<?xml version="1.0" standalone="no"?>
<!DOCTYPE svg PUBLIC "-//W3C//DTD SVG 20010904//EN"
 "http://www.w3.org/TR/2001/REC-SVG-20010904/DTD/svg10.dtd">
<svg version="1.0" xmlns="http://www.w3.org/2000/svg"
 width="1200.000000pt" height="1920.000000pt" viewBox="0 0 1200.000000 1920.000000"
 preserveAspectRatio="xMidYMid meet">

<g transform="translate(0.000000,1920.000000) scale(0.100000,-0.100000)"
fill="#000000" stroke="none">
<path d="M5738 17905 c-58 -19 -113 -71 -141 -134 -31 -68 -29 -197 2 -269 25
-56 75 -106 127 -128 49 -20 170 -18 220 5 136 62 186 285 96 431 -56 91 -188
132 -304 95z m168 -104 c44 -27 67 -82 67 -162 0 -117 -52 -184 -143 -184 -92
0 -142 64 -141 185 0 120 47 180 141 180 26 0 58 -8 76 -19z"/>
<path d="M4666 17892 c-5 -8 -186 -513 -186 -519 0 -2 26 -3 58 -3 l58 0 18
55 17 56 101 -3 101 -3 15 -52 15 -53 58 0 c33 0 59 4 59 9 0 7 -154 449 -175
504 -6 14 -19 17 -70 17 -35 0 -66 -4 -69 -8z m134 -319 c0 -2 -29 -3 -65 -3
-45 0 -65 4 -65 13 0 11 41 148 56 187 4 11 72 -170 74 -197z"/>
<path d="M5060 17635 l0 -265 153 0 c139 0 157 2 197 23 56 28 81 63 87 121 7
54 -9 99 -46 127 -23 18 -24 22 -10 32 44 33 54 126 18 171 -39 50 -65 56
-239 56 l-160 0 0 -265z m306 150 c37 -57 -19 -95 -138 -95 l-58 0 0 60 0 60
90 0 c85 0 90 -1 106 -25z m-26 -188 c44 -15 61 -56 40 -95 -19 -32 -44 -40
-137 -41 l-73 -1 0 75 0 75 68 -1 c37 0 83 -5 102 -12z"/>
<path d="M6170 17731 c0 -182 10 -262 38 -301 51 -71 197 -93 299 -46 40 19
57 34 75 68 21 40 23 58 26 246 l4 202 -61 0 -61 0 0 -194 c0 -192 0 -195 -24
-223 -21 -24 -32 -28 -76 -28 -44 0 -55 4 -76 28 -24 28 -24 31 -24 223 l0
194 -60 0 -60 0 0 -169z"/>
<path d="M6670 17855 l0 -45 80 0 80 0 0 -220 0 -220 55 0 55 0 0 220 0 220
85 0 85 0 0 45 0 45 -220 0 -220 0 0 -45z"/>
<path d="M1399 16321 c-59 -60 -31 -110 81 -144 69 -21 75 -25 78 -52 5 -38
-19 -55 -75 -55 -43 0 -83 27 -83 57 0 7 -9 13 -21 13 -18 0 -20 -4 -14 -27 9
-40 32 -62 77 -73 47 -13 100 -4 133 22 19 15 25 29 25 58 0 53 -24 76 -100
95 -94 24 -111 44 -70 85 30 30 76 26 110 -10 15 -16 33 -30 39 -30 20 0 11
40 -14 65 -20 21 -34 25 -80 25 -49 0 -60 -4 -86 -29z"/>
<path d="M2543 16330 c-44 -27 -66 -74 -66 -141 0 -74 28 -121 85 -144 49 -19
94 -14 132 16 l26 20 0 -20 c0 -12 6 -21 15 -21 12 0 15 16 15 80 l0 80 -65 0
c-51 0 -65 -3 -65 -15 0 -11 12 -15 45 -15 42 0 45 -2 45 -25 0 -42 -41 -75
-94 -75 -37 0 -48 5 -70 31 -21 25 -26 41 -26 84 0 69 15 100 55 119 44 21 91
11 118 -25 23 -32 47 -38 47 -13 0 71 -121 111 -197 64z"/>
<path d="M5379 16323 c-56 -48 -75 -134 -45 -207 30 -73 116 -104 187 -67 34
18 40 19 45 6 4 -8 12 -15 20 -15 11 0 14 18 14 80 l0 80 -70 0 c-56 0 -70 -3
-70 -15 0 -11 12 -15 50 -15 43 0 50 -3 50 -19 0 -11 -12 -33 -26 -50 -22 -26
-33 -31 -70 -31 -54 0 -89 30 -99 84 -15 77 19 148 75 160 40 7 96 -16 105
-43 8 -25 45 -29 45 -5 0 9 -15 31 -34 50 -30 30 -40 34 -89 34 -46 0 -61 -5
-88 -27z"/>
<path d="M6027 16344 c-4 -4 -7 -74 -7 -156 l0 -148 25 0 26 0 -3 152 c-3 129
-5 153 -18 156 -9 1 -19 0 -23 -4z"/>
<path d="M9147 16343 c-4 -3 -7 -73 -7 -155 0 -141 1 -148 20 -148 19 0 20 7
20 155 0 123 -3 155 -13 155 -8 0 -17 -3 -20 -7z"/>
<path d="M1660 16190 l0 -150 95 0 c88 0 95 1 95 20 0 18 -7 20 -75 20 l-75 0
0 130 c0 123 -1 130 -20 130 -19 0 -20 -7 -20 -150z"/>
<path d="M1969 16313 c-30 -79 -99 -265 -99 -268 0 -3 8 -5 19 -5 13 0 24 14
35 45 l18 45 63 0 62 0 13 -45 c10 -37 17 -45 36 -45 l23 0 -36 98 c-19 53
-43 120 -52 147 -15 41 -22 51 -44 53 -22 3 -29 -2 -38 -25z m59 -82 c11 -33
18 -62 14 -65 -3 -3 -23 -6 -44 -6 -43 0 -46 8 -24 61 7 19 16 42 19 52 4 9 8
17 11 17 2 0 13 -27 24 -59z"/>
<path d="M2180 16191 c0 -144 1 -151 20 -151 18 0 20 8 22 120 l3 119 74 -119
c61 -98 78 -120 97 -120 l24 0 0 150 c0 143 -1 150 -20 150 -18 0 -20 -8 -22
-117 l-3 -116 -71 114 c-58 94 -75 115 -97 117 l-27 3 0 -150z"/>
<path d="M2910 16325 c0 -11 12 -15 50 -15 l50 0 0 -135 0 -135 25 0 25 0 0
135 0 135 50 0 c38 0 50 4 50 15 0 13 -21 15 -125 15 -104 0 -125 -2 -125 -15z"/>
<path d="M3200 16190 c0 -143 1 -150 20 -150 18 0 20 7 20 70 l0 70 80 0 80 0
0 -70 c0 -63 2 -70 20 -70 19 0 20 7 20 150 0 143 -1 150 -20 150 -18 0 -20
-7 -20 -60 l0 -60 -80 0 -80 0 0 60 c0 53 -2 60 -20 60 -19 0 -20 -7 -20 -150z"/>
<path d="M3585 16323 c-4 -10 -26 -70 -50 -133 -24 -63 -47 -123 -51 -133 -6
-15 -3 -18 16 -15 17 2 27 14 38 46 l14 42 63 0 62 0 13 -45 c10 -37 17 -45
36 -45 13 0 24 1 24 3 0 1 -24 67 -53 147 -48 133 -55 145 -78 148 -18 2 -29
-3 -34 -15z m51 -85 c9 -29 19 -59 22 -65 3 -9 -9 -13 -42 -13 -25 0 -46 4
-46 10 0 12 40 120 45 120 2 0 11 -24 21 -52z"/>
<path d="M3760 16325 c0 -12 13 -15 55 -15 l55 0 0 -135 c0 -128 1 -135 20
-135 19 0 20 7 20 135 l0 135 50 0 c38 0 50 4 50 15 0 13 -21 15 -125 15 -104
0 -125 -2 -125 -15z"/>
<path d="M4140 16325 c0 -12 13 -15 55 -15 l55 0 0 -135 c0 -128 1 -135 20
-135 19 0 20 7 20 135 l0 135 50 0 c38 0 50 4 50 15 0 13 -21 15 -125 15 -104
0 -125 -2 -125 -15z"/>
<path d="M4430 16190 c0 -143 1 -150 20 -150 18 0 20 7 20 70 l0 70 80 0 80 0
0 -70 c0 -63 2 -70 20 -70 19 0 20 7 20 150 0 143 -1 150 -20 150 -18 0 -20
-7 -20 -60 l0 -60 -80 0 -80 0 0 60 c0 53 -2 60 -20 60 -19 0 -20 -7 -20 -150z"/>
<path d="M4785 16238 c-21 -57 -46 -124 -56 -150 l-19 -48 24 0 c19 0 26 8 36
45 l13 45 62 0 63 0 14 -42 c11 -32 21 -44 38 -46 16 -3 21 0 18 10 -98 278
-102 288 -129 288 -24 0 -29 -9 -64 -102z m89 -12 c9 -27 16 -53 16 -58 0 -4
-21 -8 -46 -8 -33 0 -45 4 -42 13 3 6 13 36 23 65 9 30 21 50 25 45 4 -4 15
-30 24 -57z"/>
<path d="M5020 16190 c0 -143 1 -150 20 -150 18 0 20 8 22 123 l3 122 75 -120
c63 -100 80 -121 103 -123 l27 -3 0 150 c0 144 -1 151 -20 151 -19 0 -20 -7
-20 -116 0 -65 -4 -113 -9 -110 -5 3 -40 55 -77 116 -61 97 -72 110 -96 110
l-28 0 0 -150z"/>
<path d="M5672 16230 c4 -103 10 -131 24 -118 3 3 8 56 11 117 6 111 6 111
-17 111 -22 0 -23 -1 -18 -110z"/>
<path d="M5790 16238 c0 -91 10 -142 24 -128 2 3 7 56 11 118 7 110 7 112 -14
112 -20 0 -21 -5 -21 -102z"/>
<path d="M7440 16289 c0 -50 0 -50 -22 -35 -65 46 -138 -11 -138 -107 0 -77
81 -138 135 -103 14 9 25 12 25 6 0 -5 9 -10 20 -10 19 0 20 7 20 150 0 143
-1 150 -20 150 -17 0 -20 -7 -20 -51z m-16 -81 c9 -12 16 -38 16 -58 0 -48
-24 -80 -60 -80 -18 0 -34 8 -44 22 -21 29 -21 102 0 122 23 24 70 20 88 -6z"/>
<path d="M8340 16319 c0 -14 5 -19 17 -17 26 5 29 38 4 38 -15 0 -21 -6 -21
-21z"/>
<path d="M9980 16290 c0 -51 -8 -61 -30 -35 -14 17 -53 20 -81 5 -32 -18 -52
-68 -47 -122 8 -81 68 -124 129 -94 16 8 29 10 29 5 0 -5 9 -9 20 -9 19 0 20
7 20 150 0 143 -1 150 -20 150 -17 0 -20 -7 -20 -50z m-19 -77 c8 -9 14 -37
14 -63 0 -26 -6 -54 -14 -63 -20 -25 -67 -21 -85 5 -18 26 -21 90 -6 119 13
24 72 26 91 2z"/>
<path d="M8230 16295 c0 -14 -7 -28 -15 -31 -19 -8 -20 -34 0 -34 11 0 15 -19
17 -92 l3 -93 33 -3 c36 -4 47 22 12 31 -18 5 -20 14 -20 81 0 69 2 76 20 76
11 0 20 6 20 14 0 7 -9 16 -20 19 -14 3 -20 14 -20 31 0 16 -6 26 -15 26 -9 0
-15 -9 -15 -25z"/>
<path d="M6163 16258 c-12 -6 -26 -23 -32 -39 -14 -39 11 -66 74 -82 43 -10
50 -15 50 -37 0 -22 -5 -25 -42 -28 -34 -3 -44 1 -53 17 -11 22 -40 29 -40 10
0 -65 138 -88 170 -29 26 49 2 82 -73 101 -54 13 -70 35 -42 55 26 20 52 17
72 -6 10 -11 23 -20 30 -20 22 0 14 27 -13 49 -29 23 -66 26 -101 9z"/>
<path d="M6494 16256 c-26 -19 -38 -56 -18 -56 8 0 23 9 34 20 11 11 27 20 36
20 27 0 54 -20 54 -40 0 -20 -7 -23 -82 -35 -60 -9 -90 -73 -50 -107 29 -26
60 -31 94 -14 21 11 35 13 42 6 16 -16 56 -12 56 5 0 8 -4 15 -9 15 -5 0 -11
36 -13 80 -2 57 -8 84 -20 96 -23 23 -98 29 -124 10z m106 -128 c0 -33 -29
-58 -67 -58 -59 0 -57 58 3 71 54 12 64 10 64 -13z"/>
<path d="M6762 16254 c-12 -8 -22 -10 -22 -5 0 6 -9 11 -20 11 -19 0 -20 -7
-20 -110 0 -103 1 -110 20 -110 18 0 20 7 20 78 0 90 16 116 67 110 l28 -3 3
-92 c2 -85 4 -93 22 -93 18 0 20 7 20 94 0 90 -1 96 -26 115 -32 25 -61 27
-92 5z"/>
<path d="M7099 16255 c-46 -25 -67 -122 -39 -175 16 -29 71 -51 110 -44 42 9
93 74 57 74 -7 0 -20 -9 -30 -20 -23 -27 -82 -27 -97 -1 -24 45 -15 51 70 51
44 0 80 3 80 8 0 4 -5 24 -10 44 -19 67 -82 95 -141 63z m95 -47 c9 -12 16
-26 16 -30 0 -5 -27 -8 -60 -8 -62 0 -68 5 -50 41 15 28 74 26 94 -3z"/>
<path d="M7813 16260 c-12 -5 -29 -19 -37 -32 -63 -98 12 -224 108 -184 32 13
56 41 56 65 0 20 -28 11 -44 -15 -14 -20 -24 -25 -49 -22 -27 3 -34 9 -46 43
-12 35 -11 45 2 78 14 33 20 37 51 37 25 0 38 -6 46 -20 13 -24 40 -27 40 -5
0 9 -11 27 -25 40 -25 26 -62 31 -102 15z"/>
<path d="M8005 16245 c-14 -13 -25 -29 -25 -35 0 -17 29 -11 50 10 24 24 53
26 74 4 30 -30 13 -48 -52 -57 -52 -6 -82 -31 -82 -67 0 -56 84 -86 128 -47
17 16 20 16 25 2 4 -8 18 -15 32 -15 27 0 34 17 10 26 -12 5 -15 25 -15 90 0
82 0 84 -30 99 -43 22 -87 19 -115 -10z m115 -113 c0 -35 -29 -62 -66 -62 -60
0 -58 58 2 71 51 12 64 10 64 -9z"/>
<path d="M8469 16255 c-36 -19 -53 -65 -46 -122 7 -62 40 -93 102 -93 36 0 47
5 69 31 46 54 31 155 -25 185 -35 18 -66 17 -100 -1z m81 -25 c22 -12 41 -70
33 -102 -9 -36 -33 -58 -64 -58 -37 0 -59 33 -59 86 0 34 5 47 26 63 30 24 38
25 64 11z"/>
<path d="M8730 16253 c-17 -12 -25 -13 -28 -5 -2 7 -10 12 -18 12 -11 0 -14
-22 -14 -110 0 -103 1 -110 20 -110 18 0 20 7 20 76 0 94 10 114 54 114 42 0
46 -10 46 -111 0 -74 1 -79 21 -79 20 0 21 4 17 96 -3 86 -5 98 -27 115 -29
23 -59 24 -91 2z"/>
<path d="M8945 16258 c-23 -13 -35 -28 -35 -45 0 -19 17 -16 40 7 11 11 27 20
36 20 27 0 54 -20 54 -40 0 -20 -7 -23 -83 -35 -72 -12 -87 -91 -23 -122 29
-13 36 -13 71 2 26 10 41 12 43 5 6 -16 52 -12 52 5 0 8 -4 15 -10 15 -6 0
-10 32 -10 75 0 67 -3 79 -25 100 -26 27 -75 33 -110 13z m95 -132 c0 -37 -26
-58 -69 -54 -26 2 -37 8 -39 22 -5 24 9 36 50 46 53 13 58 11 58 -14z"/>
<path d="M9395 16258 c-23 -13 -35 -28 -35 -45 0 -19 17 -16 40 7 11 11 27 20
36 20 27 0 54 -20 54 -40 0 -20 -7 -23 -83 -35 -72 -12 -87 -91 -23 -122 29
-13 36 -13 71 2 26 10 41 12 43 5 6 -16 52 -12 52 5 0 8 -4 15 -10 15 -6 0
-10 32 -10 75 0 67 -3 79 -25 100 -26 27 -75 33 -110 13z m95 -132 c0 -37 -26
-58 -69 -54 -26 2 -37 8 -39 22 -5 24 9 36 50 46 53 13 58 11 58 -14z"/>
<path d="M9652 16254 c-12 -8 -22 -10 -22 -5 0 6 -9 11 -20 11 -19 0 -20 -7
-20 -110 0 -103 1 -110 20 -110 18 0 20 7 20 73 0 86 16 117 60 117 40 0 50
-23 50 -114 0 -61 3 -76 15 -76 12 0 15 17 15 95 0 82 -3 98 -20 115 -24 24
-67 26 -98 4z"/>
<path d="M7530 16176 c0 -101 4 -112 42 -132 31 -16 62 -12 91 14 15 14 17 13
17 -1 0 -10 7 -17 15 -17 12 0 15 19 15 110 0 103 -1 110 -20 110 -18 0 -20
-7 -20 -78 0 -87 -14 -112 -62 -112 -33 0 -38 14 -38 111 0 72 -2 79 -20 79
-18 0 -20 -7 -20 -84z"/>
<path d="M8340 16150 c0 -103 1 -110 20 -110 19 0 20 7 20 110 0 103 -1 110
-20 110 -19 0 -20 -7 -20 -110z"/>
<path d="M5670 16060 c0 -13 7 -20 20 -20 13 0 20 7 20 20 0 13 -7 20 -20 20
-13 0 -20 -7 -20 -20z"/>
<path d="M5790 16060 c0 -13 7 -20 20 -20 13 0 20 7 20 20 0 13 -7 20 -20 20
-13 0 -20 -7 -20 -20z"/>
<path d="M2700 15730 c0 -11 7 -20 15 -20 8 0 15 9 15 20 0 11 -7 20 -15 20
-8 0 -15 -9 -15 -20z"/>
<path d="M3030 15729 c0 -25 33 -22 38 4 2 12 -3 17 -17 17 -15 0 -21 -6 -21
-21z"/>
<path d="M5050 15700 c0 -51 -8 -61 -30 -35 -14 17 -53 20 -81 5 -32 -18 -52
-68 -47 -122 8 -81 68 -124 129 -94 16 8 29 10 29 5 0 -5 9 -9 20 -9 19 0 20
7 20 150 0 143 -1 150 -20 150 -17 0 -20 -7 -20 -50z m-19 -77 c8 -9 14 -37
14 -63 0 -26 -6 -54 -14 -63 -20 -25 -67 -21 -85 5 -18 26 -21 90 -6 119 13
24 72 26 91 2z"/>
<path d="M5590 15729 c0 -25 33 -22 38 4 2 12 -3 17 -17 17 -15 0 -21 -6 -21
-21z"/>
<path d="M6540 15699 c0 -50 0 -50 -22 -35 -65 46 -138 -11 -138 -107 0 -77
81 -138 135 -103 14 9 25 12 25 6 0 -5 9 -10 20 -10 19 0 20 7 20 150 0 143
-1 150 -20 150 -17 0 -20 -7 -20 -51z m-16 -81 c9 -12 16 -38 16 -58 0 -48
-24 -80 -60 -80 -18 0 -34 8 -44 22 -21 29 -21 102 0 122 23 24 70 20 88 -6z"/>
<path d="M7220 15600 c0 -143 1 -150 20 -150 11 0 20 4 20 9 0 5 13 3 29 -5
63 -31 123 23 123 114 0 81 -64 133 -123 100 l-29 -17 0 49 c0 43 -3 50 -20
50 -19 0 -20 -7 -20 -150z m137 28 c27 -34 21 -121 -9 -140 -21 -13 -55 -9
-72 8 -18 18 -22 95 -6 125 12 22 71 27 87 7z"/>
<path d="M7602 15733 c5 -26 38 -29 38 -4 0 15 -6 21 -21 21 -14 0 -19 -5 -17
-17z"/>
<path d="M7850 15700 c0 -53 -4 -58 -34 -35 -30 23 -65 18 -97 -14 -24 -25
-29 -37 -29 -81 0 -67 21 -105 64 -120 28 -9 40 -8 65 5 18 9 31 11 31 5 0 -5
7 -10 15 -10 13 0 15 23 15 150 0 127 -2 150 -15 150 -11 0 -15 -12 -15 -50z
m-20 -79 c16 -30 12 -107 -6 -125 -17 -17 -51 -21 -72 -8 -30 19 -36 106 -9
140 16 20 75 15 87 -7z"/>
<path d="M8650 15600 c0 -127 2 -150 15 -150 12 0 15 15 15 73 0 89 16 117 64
117 42 0 46 -10 46 -111 0 -74 1 -79 21 -79 21 0 21 4 17 96 -4 86 -7 99 -27
115 -28 23 -53 24 -91 4 l-30 -16 0 51 c0 38 -4 50 -15 50 -13 0 -15 -23 -15
-150z"/>
<path d="M1850 15700 c0 -20 -5 -30 -15 -30 -8 0 -15 -7 -15 -15 0 -8 7 -15
15 -15 12 0 15 -16 15 -83 0 -51 5 -88 12 -95 17 -17 58 -15 58 3 0 8 -7 15
-15 15 -12 0 -15 16 -15 80 0 64 3 80 15 80 8 0 15 7 15 15 0 8 -7 15 -15 15
-10 0 -15 10 -15 30 0 23 -4 30 -20 30 -16 0 -20 -7 -20 -30z"/>
<path d="M2350 15700 c0 -20 -5 -30 -15 -30 -8 0 -15 -7 -15 -15 0 -8 7 -15
15 -15 11 0 15 -19 17 -92 l3 -93 33 -3 c24 -2 32 1 32 12 0 9 -7 16 -15 16
-12 0 -15 16 -15 80 0 64 3 80 15 80 8 0 15 7 15 15 0 8 -7 15 -15 15 -10 0
-15 10 -15 30 0 23 -4 30 -20 30 -16 0 -20 -7 -20 -30z"/>
<path d="M6760 15700 c0 -20 -5 -30 -15 -30 -8 0 -15 -7 -15 -15 0 -8 7 -15
15 -15 11 0 15 -19 17 -92 l3 -93 33 -3 c24 -2 32 1 32 12 0 9 -7 16 -15 16
-12 0 -15 16 -15 80 0 64 3 80 15 80 8 0 15 7 15 15 0 8 -7 15 -15 15 -10 0
-15 10 -15 30 0 23 -4 30 -20 30 -16 0 -20 -7 -20 -30z"/>
<path d="M8540 15705 c0 -14 -7 -28 -15 -31 -19 -8 -20 -34 0 -34 11 0 15 -19
17 -92 l3 -93 33 -3 c36 -4 47 22 12 31 -18 5 -20 14 -20 81 0 69 2 76 20 76
11 0 20 6 20 14 0 7 -9 16 -20 19 -14 3 -20 14 -20 31 0 16 -6 26 -15 26 -9 0
-15 -9 -15 -25z"/>
<path d="M1394 15646 c-29 -29 -34 -41 -34 -80 0 -63 21 -102 65 -116 47 -16
95 1 118 40 18 29 18 30 -2 30 -11 0 -25 -9 -31 -20 -22 -42 -110 -17 -110 31
0 17 8 19 80 19 87 0 93 5 71 63 -28 73 -101 89 -157 33z m108 -23 c34 -31 23
-43 -42 -43 -45 0 -60 3 -60 14 0 41 67 61 102 29z"/>
<path d="M1663 15663 c-14 -9 -23 -11 -23 -4 0 6 -7 11 -15 11 -12 0 -15 -19
-15 -110 0 -91 3 -110 15 -110 12 0 15 14 15 68 0 82 15 116 53 120 48 6 57
-11 57 -104 0 -79 1 -84 21 -84 21 0 21 4 17 96 -4 86 -7 99 -27 115 -28 23
-68 24 -98 2z"/>
<path d="M1989 15652 c-27 -24 -33 -38 -37 -83 -4 -48 -1 -59 22 -86 45 -54
132 -50 162 8 13 27 13 29 -3 29 -10 0 -24 -9 -31 -20 -18 -29 -76 -27 -96 2
-30 42 -22 48 64 48 79 0 80 0 80 25 0 92 -94 137 -161 77z m105 -28 c32 -32
20 -44 -44 -44 -33 0 -60 3 -60 8 0 4 7 18 16 30 18 26 65 30 88 6z"/>
<path d="M2260 15660 c-16 -16 -20 -17 -20 -5 0 8 -9 15 -20 15 -19 0 -20 -7
-20 -110 0 -103 1 -110 20 -110 18 0 20 7 20 75 0 62 4 79 20 95 11 11 27 20
35 20 8 0 15 9 15 20 0 11 -7 20 -15 20 -8 0 -24 -9 -35 -20z"/>
<path d="M2486 15659 c-27 -22 -35 -49 -13 -49 7 0 20 9 30 20 9 11 24 20 33
20 26 0 54 -20 54 -39 0 -21 -19 -31 -56 -31 -28 0 -65 -17 -76 -34 -4 -6 -8
-26 -8 -44 0 -29 5 -35 38 -49 35 -15 39 -14 74 5 30 16 38 17 42 6 6 -16 56
-19 56 -4 0 6 -7 13 -15 16 -12 5 -15 24 -15 84 0 73 -2 80 -26 99 -15 12 -41
21 -59 21 -18 0 -44 -9 -59 -21z m104 -129 c0 -33 -22 -50 -68 -50 -21 0 -31
6 -35 19 -7 27 6 42 44 51 55 13 59 12 59 -20z"/>
<path d="M2852 15664 c-12 -8 -22 -10 -22 -5 0 6 -9 11 -20 11 -19 0 -20 -7
-20 -110 0 -103 1 -110 20 -110 18 0 20 7 20 78 0 90 16 116 67 110 l28 -3 3
-92 c2 -85 4 -93 22 -93 18 0 20 7 20 94 0 90 -1 96 -26 115 -32 25 -61 27
-92 5z"/>
<path d="M3182 15664 c-12 -8 -22 -10 -22 -5 0 6 -9 11 -20 11 -19 0 -20 -7
-20 -110 0 -103 1 -110 20 -110 18 0 20 7 20 73 0 86 16 117 60 117 40 0 50
-23 50 -114 0 -61 3 -76 15 -76 12 0 15 17 15 95 0 82 -3 98 -20 115 -24 24
-67 26 -98 4z"/>
<path d="M3384 15657 c-23 -20 -28 -34 -32 -83 -4 -53 -1 -63 22 -91 32 -38
68 -48 106 -30 l28 14 -9 -30 c-5 -17 -14 -34 -21 -39 -21 -13 -65 -9 -78 7
-16 19 -40 19 -40 1 0 -48 114 -63 155 -21 24 23 25 29 25 155 0 109 -2 130
-15 130 -8 0 -15 -5 -15 -11 0 -7 -10 -5 -25 5 -34 22 -69 20 -101 -7z m107
-33 c17 -21 18 -107 0 -127 -20 -25 -67 -21 -85 5 -18 26 -21 90 -6 119 13 24
72 26 91 3z"/>
<path d="M3739 15651 c-37 -37 -42 -106 -13 -163 17 -33 74 -54 103 -39 27 15
31 14 31 -8 0 -45 -65 -68 -101 -35 -10 9 -26 14 -36 12 -16 -3 -15 -7 9 -31
20 -20 37 -27 67 -27 87 0 101 25 101 190 0 97 -3 120 -14 120 -8 0 -16 -5
-18 -12 -3 -8 -11 -7 -28 5 -36 25 -68 21 -101 -12z m111 -30 c16 -30 12 -107
-6 -125 -17 -17 -51 -21 -72 -8 -30 19 -36 106 -9 140 16 20 75 15 87 -7z"/>
<path d="M3984 15666 c-26 -19 -38 -56 -18 -56 8 0 23 9 34 20 11 11 27 20 36
20 27 0 54 -20 54 -40 0 -20 -7 -23 -82 -35 -60 -9 -90 -73 -50 -107 29 -26
60 -31 94 -14 21 11 35 13 42 6 16 -16 56 -12 56 5 0 8 -4 15 -9 15 -5 0 -11
36 -13 80 -2 57 -8 84 -20 96 -23 23 -98 29 -124 10z m106 -128 c0 -33 -29
-58 -67 -58 -59 0 -57 58 3 71 54 12 64 10 64 -13z"/>
<path d="M4250 15663 c-17 -12 -25 -13 -28 -5 -2 7 -10 12 -18 12 -11 0 -14
-22 -14 -110 0 -103 1 -110 20 -110 18 0 20 7 20 78 0 92 12 115 55 110 l30
-3 3 -92 c2 -85 4 -93 22 -93 18 0 20 7 20 83 0 91 8 107 51 107 34 0 39 -13
39 -111 0 -72 2 -79 20 -79 18 0 20 7 20 83 0 93 -13 127 -54 142 -21 7 -34 6
-58 -8 -27 -15 -32 -15 -51 -2 -28 19 -47 19 -77 -2z"/>
<path d="M4589 15665 c-46 -25 -67 -122 -39 -175 16 -29 71 -51 110 -44 42 9
93 74 57 74 -7 0 -20 -9 -30 -20 -23 -27 -82 -27 -97 -1 -24 45 -15 51 70 51
44 0 80 3 80 8 0 4 -5 24 -10 44 -19 67 -82 95 -141 63z m95 -47 c9 -12 16
-26 16 -30 0 -5 -27 -8 -60 -8 -62 0 -68 5 -50 41 15 28 74 26 94 -3z"/>
<path d="M5164 15646 c-29 -29 -34 -41 -34 -80 0 -63 21 -102 65 -116 47 -16
95 1 118 40 18 29 18 30 -2 30 -11 0 -25 -9 -31 -20 -22 -42 -110 -17 -110 31
0 17 8 19 80 19 87 0 93 5 71 63 -28 73 -101 89 -157 33z m108 -23 c34 -31 23
-43 -42 -43 -45 0 -60 3 -60 14 0 41 67 61 102 29z"/>
<path d="M5395 15655 c-49 -48 -25 -91 62 -109 42 -9 60 -31 43 -51 -19 -22
-77 -19 -92 5 -13 20 -48 28 -48 11 0 -6 10 -22 23 -37 19 -22 33 -27 69 -28
61 -1 90 24 86 73 -3 34 -6 37 -63 57 -45 16 -61 27 -63 42 -2 16 3 23 21 27
26 7 67 -9 67 -25 0 -6 9 -10 19 -10 14 0 18 5 14 20 -14 52 -97 67 -138 25z"/>
<path d="M5711 15655 c-63 -54 -48 -171 26 -202 35 -14 40 -14 66 0 25 15 27
15 27 -1 0 -51 -68 -82 -104 -47 -26 26 -57 17 -38 -11 27 -41 117 -46 153 -8
22 24 24 34 27 155 3 125 3 129 -17 129 -12 0 -21 -5 -21 -11 0 -5 -10 -3 -22
5 -32 23 -62 20 -97 -9z m103 -37 c21 -30 20 -96 -1 -120 -19 -22 -66 -24 -83
-3 -21 25 -24 92 -6 120 21 33 68 34 90 3z"/>
<path d="M5982 15664 c-12 -8 -22 -10 -22 -5 0 6 -9 11 -20 11 -19 0 -20 -7
-20 -110 0 -103 1 -110 20 -110 18 0 20 7 20 78 0 90 16 116 67 110 l28 -3 3
-92 c2 -85 4 -93 22 -93 18 0 20 7 20 94 0 90 -1 96 -26 115 -32 25 -61 27
-92 5z"/>
<path d="M6184 15646 c-29 -29 -34 -41 -34 -80 0 -63 21 -102 65 -116 47 -16
95 1 118 40 18 29 18 30 -2 30 -11 0 -25 -9 -31 -20 -22 -42 -110 -17 -110 31
0 17 8 19 80 19 87 0 93 5 71 63 -28 73 -101 89 -157 33z m108 -23 c34 -31 23
-43 -42 -43 -45 0 -60 3 -60 14 0 41 67 61 102 29z"/>
<path d="M6913 15670 c-55 -22 -72 -136 -27 -189 22 -26 33 -31 69 -31 32 0
52 7 72 24 25 22 28 31 28 86 0 57 -2 64 -33 91 -33 30 -67 36 -109 19z m82
-45 c48 -47 25 -145 -34 -145 -46 0 -67 37 -63 108 2 26 35 62 57 62 9 0 27
-11 40 -25z"/>
<path d="M7522 15658 c-19 -19 -22 -20 -22 -5 0 9 -7 17 -15 17 -12 0 -15 -19
-15 -110 0 -91 3 -110 15 -110 12 0 15 15 15 75 0 62 4 79 20 95 11 11 27 20
35 20 8 0 15 9 15 20 0 26 -20 25 -48 -2z"/>
<path d="M7959 15651 c-37 -37 -42 -106 -13 -163 17 -33 74 -54 103 -39 27 15
31 14 31 -8 0 -45 -65 -68 -101 -35 -10 9 -26 14 -36 12 -16 -3 -15 -7 9 -31
20 -20 37 -27 67 -27 87 0 101 25 101 190 0 97 -3 120 -14 120 -8 0 -16 -5
-18 -12 -3 -8 -11 -7 -28 5 -36 25 -68 21 -101 -12z m111 -30 c16 -30 12 -107
-6 -125 -17 -17 -51 -21 -72 -8 -30 19 -36 106 -9 140 16 20 75 15 87 -7z"/>
<path d="M8211 15664 c-26 -19 -51 -71 -51 -109 0 -72 70 -126 136 -105 31 10
64 43 64 62 0 16 -36 7 -48 -12 -8 -14 -23 -20 -46 -20 -35 0 -49 11 -60 48
-7 22 -6 22 75 22 l82 0 -6 42 c-10 75 -87 113 -146 72z m106 -54 l12 -25 -60
-3 c-34 -2 -64 -1 -67 2 -2 3 3 17 12 31 23 36 84 33 103 -5z"/>
<path d="M8921 15664 c-26 -19 -51 -71 -51 -109 0 -72 70 -126 136 -105 31 10
64 43 64 62 0 16 -36 7 -48 -12 -8 -14 -23 -20 -46 -20 -35 0 -49 11 -60 48
-7 22 -6 22 75 22 l82 0 -6 42 c-10 75 -87 113 -146 72z m106 -54 l12 -25 -60
-3 c-34 -2 -64 -1 -67 2 -2 3 3 17 12 31 23 36 84 33 103 -5z"/>
<path d="M9274 15662 c-50 -40 -59 -117 -21 -172 29 -44 67 -56 108 -36 l31
15 -7 -27 c-4 -15 -11 -33 -17 -39 -15 -18 -77 -17 -84 2 -8 19 -44 20 -44 1
0 -47 110 -62 156 -23 26 23 27 27 32 155 5 130 4 132 -17 132 -11 0 -21 -5
-21 -11 0 -5 -10 -3 -22 5 -29 21 -68 20 -94 -2z m100 -44 c9 -12 16 -38 16
-58 0 -48 -24 -80 -60 -80 -18 0 -34 8 -44 22 -21 29 -21 102 0 122 23 24 70
20 88 -6z"/>
<path d="M9506 15659 c-27 -22 -35 -49 -13 -49 7 0 20 9 30 20 9 11 24 20 33
20 26 0 54 -20 54 -39 0 -21 -19 -31 -56 -31 -28 0 -65 -17 -76 -34 -4 -6 -8
-26 -8 -44 0 -29 5 -35 38 -49 35 -15 39 -14 74 5 30 16 38 17 42 6 6 -16 56
-19 56 -4 0 6 -7 13 -15 16 -12 5 -15 24 -15 84 0 73 -2 80 -26 99 -15 12 -41
21 -59 21 -18 0 -44 -9 -59 -21z m104 -129 c0 -33 -22 -50 -68 -50 -21 0 -31
6 -35 19 -7 27 6 42 44 51 55 13 59 12 59 -20z"/>
<path d="M9772 15664 c-12 -8 -22 -10 -22 -5 0 6 -9 11 -20 11 -19 0 -20 -7
-20 -155 0 -148 1 -155 20 -155 17 0 20 7 20 50 0 28 2 50 4 50 3 0 16 -4 30
-10 36 -13 83 6 101 41 8 15 15 51 15 79 0 44 -5 56 -29 81 -33 32 -65 37 -99
13z m75 -36 c27 -34 21 -121 -9 -140 -21 -13 -55 -9 -72 8 -18 18 -22 95 -6
125 12 22 71 27 87 7z"/>
<path d="M2700 15560 c0 -91 3 -110 15 -110 12 0 15 19 15 110 0 91 -3 110
-15 110 -12 0 -15 -19 -15 -110z"/>
<path d="M3030 15560 c0 -103 1 -110 20 -110 19 0 20 7 20 110 0 103 -1 110
-20 110 -19 0 -20 -7 -20 -110z"/>
<path d="M5590 15560 c0 -103 1 -110 20 -110 19 0 20 7 20 110 0 103 -1 110
-20 110 -19 0 -20 -7 -20 -110z"/>
<path d="M7600 15560 c0 -103 1 -110 20 -110 19 0 20 7 20 110 0 103 -1 110
-20 110 -19 0 -20 -7 -20 -110z"/>
<path d="M6707 15163 c-4 -3 -7 -73 -7 -155 0 -141 1 -148 20 -148 19 0 20 7
20 155 0 123 -3 155 -13 155 -8 0 -17 -3 -20 -7z"/>
<path d="M9267 15163 c-4 -3 -7 -73 -7 -155 0 -141 1 -148 20 -148 19 0 20 7
20 155 0 123 -3 155 -13 155 -8 0 -17 -3 -20 -7z"/>
<path d="M1360 15010 c0 -143 1 -150 20 -150 11 0 20 4 20 9 0 5 14 3 30 -6
85 -42 165 81 115 177 -26 50 -79 65 -123 34 -22 -15 -22 -15 -22 35 0 44 -3
51 -20 51 -19 0 -20 -7 -20 -150z m144 24 c21 -20 21 -93 0 -122 -22 -31 -69
-30 -90 3 -18 28 -15 95 6 120 16 20 65 19 84 -1z"/>
<path d="M4550 15140 c0 -11 7 -20 15 -20 8 0 15 9 15 20 0 11 -7 20 -15 20
-8 0 -15 -9 -15 -20z"/>
<path d="M5440 15010 c0 -143 1 -150 20 -150 11 0 20 4 20 9 0 5 13 3 29 -5
44 -22 96 2 117 52 43 103 -44 214 -124 158 -22 -15 -22 -15 -22 35 0 44 -3
51 -20 51 -19 0 -20 -7 -20 -150z m146 15 c18 -28 15 -95 -6 -120 -17 -20 -59
-19 -82 2 -23 20 -24 90 -2 121 22 31 69 30 90 -3z"/>
<path d="M7180 15140 c0 -11 7 -20 15 -20 8 0 15 9 15 20 0 11 -7 20 -15 20
-8 0 -15 -9 -15 -20z"/>
<path d="M7980 15010 c0 -143 1 -150 20 -150 18 0 20 7 20 78 0 88 14 112 63
112 37 0 47 -25 47 -114 0 -61 3 -76 15 -76 12 0 15 17 15 95 0 82 -3 98 -20
115 -24 24 -67 26 -98 4 -22 -15 -22 -15 -22 35 0 44 -3 51 -20 51 -19 0 -20
-7 -20 -150z"/>
<path d="M9712 15143 c5 -26 38 -29 38 -4 0 15 -6 21 -21 21 -14 0 -19 -5 -17
-17z"/>
<path d="M1850 15110 c0 -20 -5 -30 -15 -30 -8 0 -15 -7 -15 -15 0 -8 7 -15
15 -15 12 0 15 -16 15 -83 0 -51 5 -88 12 -95 17 -17 58 -15 58 3 0 8 -7 15
-15 15 -12 0 -15 16 -15 80 0 64 3 80 15 80 8 0 15 7 15 15 0 8 -7 15 -15 15
-10 0 -15 10 -15 30 0 23 -4 30 -20 30 -16 0 -20 -7 -20 -30z"/>
<path d="M4430 15110 c0 -20 -5 -30 -15 -30 -8 0 -15 -5 -15 -10 0 -6 7 -13
15 -16 11 -5 15 -24 15 -81 0 -90 10 -113 50 -113 34 0 42 25 10 33 -18 5 -20
14 -20 81 0 69 2 76 20 76 11 0 20 7 20 15 0 8 -9 15 -20 15 -16 0 -20 7 -20
30 0 23 -4 30 -20 30 -16 0 -20 -7 -20 -30z"/>
<path d="M7870 15110 c0 -20 -5 -30 -15 -30 -8 0 -15 -7 -15 -15 0 -8 7 -15
15 -15 12 0 15 -16 15 -83 0 -51 5 -88 12 -95 17 -17 58 -15 58 3 0 8 -7 15
-15 15 -12 0 -15 16 -15 80 0 64 3 80 15 80 8 0 15 7 15 15 0 8 -7 15 -15 15
-10 0 -15 10 -15 30 0 23 -4 30 -20 30 -16 0 -20 -7 -20 -30z"/>
<path d="M9600 15110 c0 -20 -5 -30 -15 -30 -8 0 -15 -5 -15 -10 0 -6 7 -13
15 -16 11 -5 15 -24 15 -81 0 -90 10 -113 50 -113 34 0 42 25 10 33 -18 5 -20
14 -20 81 0 69 2 76 20 76 11 0 20 7 20 15 0 8 -9 15 -20 15 -16 0 -20 7 -20
30 0 23 -4 30 -20 30 -16 0 -20 -7 -20 -30z"/>
<path d="M1649 15075 c-46 -25 -67 -122 -39 -175 16 -29 71 -51 110 -44 42 9
93 74 57 74 -7 0 -20 -9 -30 -20 -23 -27 -82 -27 -97 -1 -24 45 -15 51 70 51
44 0 80 3 80 8 0 4 -5 24 -10 44 -19 67 -82 95 -141 63z m95 -47 c9 -12 16
-26 16 -30 0 -5 -27 -8 -60 -8 -62 0 -68 5 -50 41 15 28 74 26 94 -3z"/>
<path d="M2294 15056 c-29 -29 -34 -41 -34 -80 0 -63 21 -102 65 -116 47 -16
95 1 118 40 18 29 18 30 -2 30 -11 0 -25 -9 -31 -20 -22 -42 -110 -17 -110 31
0 17 8 19 80 19 87 0 93 5 71 63 -28 73 -101 89 -157 33z m108 -23 c34 -31 23
-43 -42 -43 -45 0 -60 3 -60 14 0 41 67 61 102 29z"/>
<path d="M2549 15075 c-46 -25 -67 -122 -39 -175 16 -29 71 -51 110 -44 42 9
93 74 57 74 -7 0 -20 -9 -30 -20 -23 -27 -82 -27 -97 -1 -24 45 -15 51 70 51
44 0 80 3 80 8 0 4 -5 24 -10 44 -19 67 -82 95 -141 63z m95 -47 c9 -12 16
-26 16 -30 0 -5 -27 -8 -60 -8 -62 0 -68 5 -50 41 15 28 74 26 94 -3z"/>
<path d="M2802 15074 c-12 -8 -22 -10 -22 -5 0 6 -9 11 -20 11 -19 0 -20 -7
-20 -110 0 -103 1 -110 20 -110 18 0 20 7 20 73 0 86 16 117 60 117 40 0 50
-23 50 -114 0 -61 3 -76 15 -76 12 0 15 17 15 95 0 82 -3 98 -20 115 -24 24
-67 26 -98 4z"/>
<path d="M3124 15067 c-23 -20 -28 -34 -32 -83 -4 -53 -1 -63 22 -91 32 -38
68 -48 106 -30 l28 14 -9 -30 c-5 -17 -14 -34 -21 -39 -21 -13 -65 -9 -78 7
-16 19 -40 19 -40 1 0 -48 114 -63 155 -21 24 23 25 29 25 155 0 109 -2 130
-15 130 -8 0 -15 -5 -15 -11 0 -7 -10 -5 -25 5 -34 22 -69 20 -101 -7z m107
-33 c17 -21 18 -107 0 -127 -20 -25 -67 -21 -85 5 -18 26 -21 90 -6 119 13 24
72 26 91 3z"/>
<path d="M3379 15075 c-46 -25 -67 -122 -39 -175 16 -29 71 -51 110 -44 42 9
93 74 57 74 -7 0 -20 -9 -30 -20 -23 -27 -82 -27 -97 -1 -24 45 -15 51 70 51
44 0 80 3 80 8 0 4 -5 24 -10 44 -19 67 -82 95 -141 63z m95 -47 c9 -12 16
-26 16 -30 0 -5 -27 -8 -60 -8 -62 0 -68 5 -50 41 15 28 74 26 94 -3z"/>
<path d="M3632 15074 c-12 -8 -22 -10 -22 -5 0 6 -9 11 -20 11 -19 0 -20 -7
-20 -110 0 -103 1 -110 20 -110 18 0 20 7 20 73 0 86 16 117 60 117 40 0 50
-23 50 -114 0 -61 3 -76 15 -76 12 0 15 17 15 95 0 82 -3 98 -20 115 -24 24
-67 26 -98 4z"/>
<path d="M3839 15062 c-27 -24 -33 -38 -37 -83 -4 -48 -1 -59 22 -86 45 -54
132 -50 162 8 13 27 13 29 -3 29 -10 0 -24 -9 -31 -20 -18 -29 -76 -27 -96 2
-30 42 -22 48 64 48 79 0 80 0 80 25 0 92 -94 137 -161 77z m105 -28 c32 -32
20 -44 -44 -44 -33 0 -60 3 -60 8 0 4 7 18 16 30 18 26 65 30 88 6z"/>
<path d="M4110 15070 c-16 -16 -20 -17 -20 -5 0 8 -9 15 -20 15 -19 0 -20 -7
-20 -110 0 -103 1 -110 20 -110 18 0 20 7 20 75 0 62 4 79 20 95 11 11 27 20
35 20 8 0 15 9 15 20 0 11 -7 20 -15 20 -8 0 -24 -9 -35 -20z"/>
<path d="M4216 15069 c-27 -22 -35 -49 -13 -49 7 0 20 9 30 20 9 11 24 20 33
20 26 0 54 -20 54 -39 0 -21 -19 -31 -56 -31 -28 0 -65 -17 -76 -34 -4 -6 -8
-26 -8 -44 0 -29 5 -35 38 -49 35 -15 39 -14 74 5 30 16 38 17 42 6 6 -16 56
-19 56 -4 0 6 -7 13 -15 16 -12 5 -15 24 -15 84 0 73 -2 80 -26 99 -15 12 -41
21 -59 21 -18 0 -44 -9 -59 -21z m104 -129 c0 -33 -22 -50 -68 -50 -21 0 -31
6 -35 19 -7 27 6 42 44 51 55 13 59 12 59 -20z"/>
<path d="M4679 15075 c-36 -19 -53 -65 -46 -122 7 -62 40 -93 102 -93 36 0 47
5 69 31 46 54 31 155 -25 185 -35 18 -66 17 -100 -1z m81 -25 c22 -12 41 -70
33 -102 -9 -36 -33 -58 -64 -58 -37 0 -59 33 -59 86 0 34 5 47 26 63 30 24 38
25 64 11z"/>
<path d="M4933 15073 c-14 -9 -23 -11 -23 -4 0 6 -7 11 -15 11 -12 0 -15 -19
-15 -110 0 -91 3 -110 15 -110 12 0 15 14 15 68 0 82 15 116 53 120 48 6 57
-11 57 -104 0 -79 1 -84 21 -84 21 0 21 4 17 96 -4 86 -7 99 -27 115 -28 23
-68 24 -98 2z"/>
<path d="M5136 15069 c-29 -23 -35 -69 -12 -88 8 -7 36 -18 63 -24 41 -10 48
-15 48 -37 0 -19 -6 -26 -24 -28 -35 -5 -71 7 -71 23 0 8 -9 15 -20 15 -48 0
-2 -64 54 -74 64 -12 115 32 104 91 -2 12 -23 25 -68 40 -69 23 -83 38 -54 60
25 19 51 16 74 -7 23 -23 40 -26 40 -7 0 18 -12 32 -37 46 -33 17 -67 13 -97
-10z"/>
<path d="M6059 15075 c-46 -25 -67 -122 -39 -175 16 -29 71 -51 110 -44 42 9
93 74 57 74 -7 0 -20 -9 -30 -20 -23 -27 -82 -27 -97 -1 -24 45 -15 51 70 51
44 0 80 3 80 8 0 4 -5 24 -10 44 -19 67 -82 95 -141 63z m95 -47 c9 -12 16
-26 16 -30 0 -5 -27 -8 -60 -8 -62 0 -68 5 -50 41 15 28 74 26 94 -3z"/>
<path d="M6522 15074 c-12 -8 -22 -10 -22 -5 0 6 -9 11 -20 11 -19 0 -20 -7
-20 -155 0 -148 1 -155 20 -155 18 0 20 7 20 54 l0 54 30 -15 c27 -13 34 -13
68 4 67 33 81 137 26 195 -31 32 -68 36 -102 12z m84 -49 c18 -28 15 -95 -6
-120 -17 -20 -59 -19 -82 2 -23 20 -24 90 -2 121 22 31 69 30 90 -3z"/>
<path d="M6843 15080 c-55 -22 -72 -136 -27 -189 22 -26 33 -31 69 -31 32 0
52 7 72 24 25 22 28 31 28 86 0 57 -2 64 -33 91 -33 30 -67 36 -109 19z m82
-45 c48 -47 25 -145 -34 -145 -46 0 -67 37 -63 108 2 26 35 62 57 62 9 0 27
-11 40 -25z"/>
<path d="M7102 15074 c-12 -8 -22 -10 -22 -5 0 6 -9 11 -20 11 -19 0 -20 -7
-20 -110 0 -103 1 -110 20 -110 18 0 20 7 20 78 0 83 14 112 53 112 10 0 17 8
17 20 0 24 -18 26 -48 4z"/>
<path d="M7332 15074 c-12 -8 -22 -10 -22 -5 0 6 -9 11 -20 11 -19 0 -20 -7
-20 -110 0 -103 1 -110 20 -110 18 0 20 7 20 78 0 90 16 116 67 110 l28 -3 3
-92 c2 -85 4 -93 22 -93 18 0 20 7 20 94 0 90 -1 96 -26 115 -32 25 -61 27
-92 5z"/>
<path d="M7534 15067 c-23 -20 -28 -34 -32 -83 -4 -53 -1 -63 22 -91 32 -38
68 -48 106 -30 l28 14 -9 -30 c-5 -17 -14 -34 -21 -39 -21 -13 -65 -9 -78 7
-16 19 -40 19 -40 1 0 -48 114 -63 155 -21 24 23 25 29 25 155 0 109 -2 130
-15 130 -8 0 -15 -5 -15 -11 0 -7 -10 -5 -25 5 -34 22 -69 20 -101 -7z m107
-33 c17 -21 18 -107 0 -127 -20 -25 -67 -21 -85 5 -18 26 -21 90 -6 119 13 24
72 26 91 3z"/>
<path d="M8249 15062 c-27 -24 -33 -38 -37 -83 -4 -48 -1 -59 22 -86 45 -54
132 -50 162 8 13 27 13 29 -3 29 -10 0 -24 -9 -31 -20 -18 -29 -76 -27 -96 2
-30 42 -22 48 64 48 79 0 80 0 80 25 0 92 -94 137 -161 77z m105 -28 c32 -32
20 -44 -44 -44 -33 0 -60 3 -60 8 0 4 7 18 16 30 18 26 65 30 88 6z"/>
<path d="M8619 15075 c-46 -25 -67 -122 -39 -175 16 -29 71 -51 110 -44 42 9
93 74 57 74 -7 0 -20 -9 -30 -20 -23 -27 -82 -27 -97 -1 -24 45 -15 51 70 51
44 0 80 3 80 8 0 4 -5 24 -10 44 -19 67 -82 95 -141 63z m95 -47 c9 -12 16
-26 16 -30 0 -5 -27 -8 -60 -8 -62 0 -68 5 -50 41 15 28 74 26 94 -3z"/>
<path d="M9070 15078 c-62 -32 -75 -140 -23 -192 35 -36 103 -36 138 -2 26 26
41 82 31 120 -16 64 -91 102 -146 74z m85 -43 c48 -47 25 -145 -35 -145 -50 0
-77 44 -66 106 7 33 37 64 64 64 7 0 24 -11 37 -25z"/>
<path d="M9853 15080 c-55 -22 -72 -136 -27 -189 22 -26 33 -31 69 -31 32 0
52 7 72 24 25 22 28 31 28 86 0 57 -2 64 -33 91 -33 30 -67 36 -109 19z m82
-45 c48 -47 25 -145 -34 -145 -46 0 -67 37 -63 108 2 26 35 62 57 62 9 0 27
-11 40 -25z"/>
<path d="M10103 15073 c-14 -9 -23 -11 -23 -4 0 6 -7 11 -15 11 -12 0 -15 -19
-15 -110 0 -91 3 -110 15 -110 12 0 15 14 15 68 0 82 15 116 53 120 48 6 57
-11 57 -104 0 -79 1 -84 21 -84 21 0 21 4 17 96 -4 86 -7 99 -27 115 -28 23
-68 24 -98 2z"/>
<path d="M1943 15068 c2 -7 17 -57 32 -111 25 -86 31 -98 49 -95 16 2 24 18
41 88 l21 85 13 -50 c30 -121 31 -125 51 -125 15 0 24 17 44 83 41 135 41 140
20 135 -13 -2 -23 -24 -39 -82 -12 -44 -24 -76 -27 -70 -3 5 -13 42 -23 82
-15 62 -20 72 -39 72 -19 0 -25 -10 -42 -82 l-21 -83 -11 40 c-6 22 -16 59
-22 83 -8 32 -16 42 -31 42 -13 0 -19 -5 -16 -12z"/>
<path d="M4550 14970 c0 -91 3 -110 15 -110 12 0 15 19 15 110 0 91 -3 110
-15 110 -12 0 -15 -19 -15 -110z"/>
<path d="M5696 14983 c48 -129 47 -125 35 -156 -7 -17 -18 -27 -31 -27 -11 0
-20 -7 -20 -15 0 -9 9 -15 23 -15 28 0 41 9 55 36 12 22 102 261 102 269 0 3
-9 5 -19 5 -16 0 -25 -17 -47 -85 -16 -46 -30 -82 -33 -79 -4 3 -18 40 -32 82
-20 61 -30 78 -47 80 -21 3 -20 0 14 -95z"/>
<path d="M6249 15063 c5 -10 21 -34 34 -53 l24 -35 -39 -57 -39 -58 25 0 c19
0 31 10 48 40 13 22 25 40 28 40 3 0 16 -18 30 -40 17 -28 32 -40 48 -40 25 0
25 0 -20 67 -15 23 -28 45 -28 49 0 3 16 29 35 55 35 49 35 49 11 49 -17 0
-31 -11 -47 -37 l-22 -36 -24 29 c-12 16 -23 32 -23 37 0 4 -11 7 -25 7 -22 0
-24 -3 -16 -17z"/>
<path d="M7180 14970 c0 -91 3 -110 15 -110 12 0 15 19 15 110 0 91 -3 110
-15 110 -12 0 -15 -19 -15 -110z"/>
<path d="M8790 15078 c0 -2 18 -50 39 -108 33 -89 43 -105 61 -105 18 0 27 15
54 85 50 130 51 130 27 130 -16 0 -25 -16 -47 -85 -16 -46 -30 -82 -33 -79 -4
3 -18 40 -32 82 -20 61 -30 78 -47 80 -12 2 -22 2 -22 0z"/>
<path d="M9360 14987 c0 -77 3 -97 18 -109 28 -26 60 -31 92 -14 17 8 30 10
30 5 0 -5 9 -9 20 -9 19 0 20 7 20 110 0 103 -1 110 -20 110 -18 0 -20 -7 -20
-73 0 -90 -16 -120 -63 -115 l-32 3 -3 93 c-2 84 -4 92 -22 92 -18 0 -20 -7
-20 -93z"/>
<path d="M9710 14970 c0 -103 1 -110 20 -110 19 0 20 7 20 110 0 103 -1 110
-20 110 -19 0 -20 -7 -20 -110z"/>
<path d="M1626 14558 c-9 -12 -16 -33 -16 -45 0 -14 -6 -23 -15 -23 -8 0 -15
-5 -15 -10 0 -6 7 -13 15 -16 12 -5 15 -26 15 -100 0 -87 1 -94 20 -94 19 0
20 7 20 95 0 88 1 95 20 95 11 0 20 7 20 15 0 8 -9 15 -20 15 -15 0 -20 7 -20
26 0 17 6 28 20 31 29 8 25 33 -4 33 -14 0 -32 -10 -40 -22z"/>
<path d="M2060 14425 c0 -131 2 -155 15 -155 13 0 15 24 15 155 0 131 -2 155
-15 155 -13 0 -15 -24 -15 -155z"/>
<path d="M5990 14425 c0 -148 1 -155 20 -155 19 0 20 7 20 155 0 148 -1 155
-20 155 -19 0 -20 -7 -20 -155z"/>
<path d="M7418 14569 c-12 -6 -18 -22 -18 -44 0 -24 -5 -35 -15 -35 -8 0 -15
-7 -15 -15 0 -8 7 -15 15 -15 12 0 15 -17 15 -95 0 -88 1 -95 20 -95 19 0 20
7 20 95 0 78 3 95 15 95 8 0 15 7 15 15 0 8 -7 15 -15 15 -9 0 -15 9 -15 25 0
14 7 28 15 31 8 4 15 12 15 20 0 16 -27 18 -52 3z"/>
<path d="M7840 14425 c0 -148 1 -155 20 -155 19 0 20 7 20 155 0 148 -1 155
-20 155 -19 0 -20 -7 -20 -155z"/>
<path d="M3080 14555 c0 -11 12 -15 50 -15 l50 0 0 -135 c0 -128 1 -135 20
-135 19 0 20 7 20 135 l0 135 50 0 c38 0 50 4 50 15 0 13 -20 15 -120 15 -100
0 -120 -2 -120 -15z"/>
<path d="M5000 14420 c0 -127 2 -150 15 -150 11 0 15 12 15 44 0 27 6 48 16
57 17 14 15 16 60 -58 19 -32 32 -43 50 -43 l25 0 -37 58 c-20 31 -40 61 -45
67 -6 5 7 26 33 52 40 41 41 43 18 43 -16 0 -42 -17 -72 -47 l-48 -47 0 87 c0
71 -3 87 -15 87 -13 0 -15 -23 -15 -150z"/>
<path d="M6470 14519 c0 -50 0 -50 -22 -35 -65 46 -138 -11 -138 -107 0 -77
81 -138 135 -103 14 9 25 12 25 6 0 -5 9 -10 20 -10 19 0 20 7 20 150 0 143
-1 150 -20 150 -17 0 -20 -7 -20 -51z m-16 -81 c9 -12 16 -38 16 -58 0 -48
-24 -80 -60 -80 -18 0 -34 8 -44 22 -21 29 -21 102 0 122 23 24 70 20 88 -6z"/>
<path d="M3820 14520 c0 -20 -5 -30 -15 -30 -8 0 -15 -7 -15 -15 0 -8 7 -15
15 -15 11 0 15 -19 17 -92 l3 -93 33 -3 c24 -2 32 1 32 12 0 9 -7 16 -15 16
-12 0 -15 16 -15 80 0 64 3 80 15 80 8 0 15 7 15 15 0 8 -7 15 -15 15 -10 0
-15 10 -15 30 0 23 -4 30 -20 30 -16 0 -20 -7 -20 -30z"/>
<path d="M8770 14520 c0 -20 -5 -30 -15 -30 -8 0 -15 -5 -15 -10 0 -6 7 -13
15 -16 11 -5 15 -24 15 -81 0 -90 10 -113 50 -113 34 0 42 25 10 33 -18 5 -20
14 -20 81 0 69 2 76 20 76 11 0 20 7 20 15 0 8 -9 15 -20 15 -16 0 -20 7 -20
30 0 23 -4 30 -20 30 -16 0 -20 -7 -20 -30z"/>
<path d="M1413 14490 c-55 -22 -72 -136 -27 -189 22 -26 33 -31 69 -31 32 0
52 7 72 24 25 22 28 31 28 86 0 57 -2 64 -33 91 -33 30 -67 36 -109 19z m82
-45 c48 -47 25 -145 -34 -145 -46 0 -67 37 -63 108 2 26 35 62 57 62 9 0 27
-11 40 -25z"/>
<path d="M1866 14479 c-29 -23 -35 -69 -12 -88 8 -7 36 -18 63 -24 41 -10 48
-15 48 -37 0 -19 -6 -26 -24 -28 -35 -5 -71 7 -71 23 0 8 -9 15 -20 15 -48 0
-2 -64 54 -74 64 -12 115 32 104 91 -2 12 -23 25 -68 40 -69 23 -83 38 -54 60
25 19 51 16 74 -7 23 -23 40 -26 40 -7 0 18 -12 32 -37 46 -33 17 -67 13 -97
-10z"/>
<path d="M2175 14475 c-14 -13 -25 -29 -25 -35 0 -17 29 -11 50 10 24 24 53
26 74 4 30 -30 13 -48 -52 -57 -52 -6 -82 -31 -82 -67 0 -56 84 -86 128 -47
17 16 20 16 25 2 4 -8 18 -15 32 -15 27 0 34 17 10 26 -12 5 -15 25 -15 90 0
82 0 84 -30 99 -43 22 -87 19 -115 -10z m115 -113 c0 -35 -29 -62 -66 -62 -60
0 -58 58 2 71 51 12 64 10 64 -9z"/>
<path d="M2450 14483 c-17 -12 -25 -13 -28 -5 -2 7 -10 12 -18 12 -11 0 -14
-22 -14 -110 0 -103 1 -110 20 -110 18 0 20 7 20 76 0 94 10 114 54 114 42 0
46 -10 46 -111 0 -74 1 -79 21 -79 20 0 21 4 17 96 -3 86 -5 98 -27 115 -29
23 -59 24 -91 2z"/>
<path d="M2651 14475 c-63 -54 -48 -171 26 -202 35 -14 40 -14 66 0 25 15 27
15 27 -1 0 -51 -68 -82 -104 -47 -26 26 -57 17 -38 -11 27 -41 117 -46 153 -8
22 24 24 34 27 155 3 125 3 129 -17 129 -12 0 -21 -5 -21 -11 0 -5 -10 -3 -22
5 -32 23 -62 20 -97 -9z m103 -37 c21 -30 20 -96 -1 -120 -19 -22 -66 -24 -83
-3 -21 25 -24 92 -6 120 21 33 68 34 90 3z"/>
<path d="M3384 14466 c-29 -29 -34 -41 -34 -80 0 -63 21 -102 65 -116 47 -16
95 1 118 40 18 29 18 30 -2 30 -11 0 -25 -9 -31 -20 -22 -42 -110 -17 -110 31
0 17 8 19 80 19 87 0 93 5 71 63 -28 73 -101 89 -157 33z m108 -23 c34 -31 23
-43 -42 -43 -45 0 -60 3 -60 14 0 41 67 61 102 29z"/>
<path d="M3615 14475 c-49 -48 -25 -91 62 -109 42 -9 60 -31 43 -51 -19 -22
-77 -19 -92 5 -13 20 -48 28 -48 11 0 -6 10 -22 23 -37 19 -22 33 -27 69 -28
61 -1 90 24 86 73 -3 34 -6 37 -63 57 -45 16 -61 27 -63 42 -2 16 3 23 21 27
26 7 67 -9 67 -25 0 -6 9 -10 19 -10 14 0 18 5 14 20 -14 52 -97 67 -138 25z"/>
<path d="M4299 14485 c-36 -19 -53 -65 -46 -122 7 -62 40 -93 102 -93 36 0 47
5 69 31 46 54 31 155 -25 185 -35 18 -66 17 -100 -1z m81 -25 c22 -12 41 -70
33 -102 -9 -36 -33 -58 -64 -58 -37 0 -59 33 -59 86 0 34 5 47 26 63 30 24 38
25 64 11z"/>
<path d="M4802 14484 c-12 -8 -22 -10 -22 -5 0 6 -9 11 -20 11 -19 0 -20 -7
-20 -110 0 -103 1 -110 20 -110 18 0 20 7 20 78 0 83 14 112 53 112 10 0 17 8
17 20 0 24 -18 26 -48 4z"/>
<path d="M5270 14483 c-17 -12 -25 -13 -28 -5 -2 7 -10 12 -18 12 -11 0 -14
-22 -14 -110 0 -103 1 -110 20 -110 18 0 20 7 20 76 0 94 10 114 54 114 42 0
46 -10 46 -111 0 -74 1 -79 21 -79 20 0 21 4 17 96 -3 86 -5 98 -27 115 -29
23 -59 24 -91 2z"/>
<path d="M5490 14488 c-62 -32 -75 -140 -23 -192 35 -36 103 -36 138 -2 26 26
41 82 31 120 -16 64 -91 102 -146 74z m85 -43 c48 -47 25 -145 -35 -145 -50 0
-77 44 -66 106 7 33 37 64 64 64 7 0 24 -11 37 -25z"/>
<path d="M6129 14485 c-46 -25 -67 -122 -39 -175 16 -29 71 -51 110 -44 42 9
93 74 57 74 -7 0 -20 -9 -30 -20 -23 -27 -82 -27 -97 -1 -24 45 -15 51 70 51
44 0 80 3 80 8 0 4 -5 24 -10 44 -19 67 -82 95 -141 63z m95 -47 c9 -12 16
-26 16 -30 0 -5 -27 -8 -60 -8 -62 0 -68 5 -50 41 15 28 74 26 94 -3z"/>
<path d="M6594 14482 c-50 -40 -59 -117 -21 -172 29 -44 67 -56 108 -36 l31
15 -7 -27 c-4 -15 -11 -33 -17 -39 -15 -18 -77 -17 -84 2 -8 19 -44 20 -44 1
0 -47 110 -62 156 -23 26 23 27 27 32 155 5 130 4 132 -17 132 -11 0 -21 -5
-21 -11 0 -5 -10 -3 -22 5 -29 21 -68 20 -94 -2z m100 -44 c9 -12 16 -38 16
-58 0 -48 -24 -80 -60 -80 -18 0 -34 8 -44 22 -21 29 -21 102 0 122 23 24 70
20 88 -6z"/>
<path d="M6839 14485 c-46 -25 -67 -122 -39 -175 16 -29 71 -51 110 -44 42 9
93 74 57 74 -7 0 -20 -9 -30 -20 -23 -27 -82 -27 -97 -1 -24 45 -15 51 70 51
44 0 80 3 80 8 0 4 -5 24 -10 44 -19 67 -82 95 -141 63z m95 -47 c9 -12 16
-26 16 -30 0 -5 -27 -8 -60 -8 -62 0 -68 5 -50 41 15 28 74 26 94 -3z"/>
<path d="M7205 14491 c-56 -23 -82 -109 -51 -169 20 -39 44 -52 94 -52 72 0
114 69 92 152 -17 60 -79 91 -135 69z m72 -36 c12 -9 25 -31 29 -49 11 -62
-16 -106 -66 -106 -60 0 -83 98 -35 145 28 29 42 31 72 10z"/>
<path d="M7652 14483 c-29 -25 -37 -66 -17 -86 9 -9 35 -21 58 -27 66 -17 69
-19 65 -42 -2 -19 -10 -24 -45 -26 -34 -2 -45 1 -55 17 -16 26 -38 27 -38 3 0
-41 73 -70 128 -51 28 10 52 44 52 75 0 18 -52 50 -97 59 -41 7 -54 32 -28 51
26 19 42 17 65 -6 21 -21 50 -27 50 -10 0 6 -11 22 -25 35 -29 30 -83 33 -113
8z"/>
<path d="M7975 14488 c-23 -13 -35 -28 -35 -45 0 -19 17 -16 40 7 11 11 27 20
36 20 27 0 54 -20 54 -40 0 -20 -7 -23 -83 -35 -72 -12 -87 -91 -23 -122 29
-13 36 -13 71 2 26 10 41 12 43 5 6 -16 52 -12 52 5 0 8 -4 15 -10 15 -6 0
-10 32 -10 75 0 67 -3 79 -25 100 -26 27 -75 33 -110 13z m95 -132 c0 -37 -26
-58 -69 -54 -26 2 -37 8 -39 22 -5 24 9 36 50 46 53 13 58 11 58 -14z"/>
<path d="M8232 14484 c-12 -8 -22 -10 -22 -5 0 6 -9 11 -20 11 -19 0 -20 -7
-20 -110 0 -103 1 -110 20 -110 18 0 20 7 20 73 0 86 16 117 60 117 40 0 50
-23 50 -114 0 -61 3 -76 15 -76 12 0 15 17 15 95 0 82 -3 98 -20 115 -24 24
-67 26 -98 4z"/>
<path d="M8434 14477 c-23 -20 -28 -34 -32 -83 -4 -53 -1 -63 22 -91 32 -38
68 -48 106 -30 l28 14 -9 -30 c-5 -17 -14 -34 -21 -39 -21 -13 -65 -9 -78 7
-16 19 -40 19 -40 1 0 -48 114 -63 155 -21 24 23 25 29 25 155 0 109 -2 130
-15 130 -8 0 -15 -5 -15 -11 0 -7 -10 -5 -25 5 -34 22 -69 20 -101 -7z m107
-33 c17 -21 18 -107 0 -127 -20 -25 -67 -21 -85 5 -18 26 -21 90 -6 119 13 24
72 26 91 3z"/>
<path d="M8921 14484 c-26 -19 -51 -71 -51 -109 0 -72 70 -126 136 -105 31 10
64 43 64 62 0 16 -36 7 -48 -12 -8 -14 -23 -20 -46 -20 -35 0 -49 11 -60 48
-7 22 -6 22 75 22 l82 0 -6 42 c-10 75 -87 113 -146 72z m106 -54 l12 -25 -60
-3 c-34 -2 -64 -1 -67 2 -2 3 3 17 12 31 23 36 84 33 103 -5z"/>
<path d="M9182 14478 c-19 -19 -22 -20 -22 -5 0 9 -7 17 -15 17 -12 0 -15 -19
-15 -110 0 -91 3 -110 15 -110 12 0 15 15 15 75 0 62 4 79 20 95 11 11 27 20
35 20 8 0 15 9 15 20 0 26 -20 25 -48 -2z"/>
<path d="M9322 14484 c-12 -8 -22 -10 -22 -5 0 6 -9 11 -20 11 -19 0 -20 -7
-20 -110 0 -103 1 -110 20 -110 18 0 20 7 20 73 0 86 17 120 58 115 27 -3 27
-4 30 -95 2 -85 4 -93 22 -93 18 0 20 7 20 70 0 88 14 120 52 120 37 0 48 -28
48 -121 0 -55 3 -69 15 -69 12 0 15 17 15 95 0 82 -3 98 -20 115 -24 24 -57
26 -88 4 -20 -14 -24 -14 -44 0 -12 9 -32 16 -43 16 -11 0 -31 -7 -43 -16z"/>
<path d="M9642 14483 c-29 -25 -37 -66 -17 -86 9 -9 35 -21 58 -27 66 -17 69
-19 65 -42 -2 -19 -10 -24 -45 -26 -34 -2 -45 1 -55 17 -16 26 -38 27 -38 3 0
-41 73 -70 128 -51 28 10 52 44 52 75 0 18 -52 50 -97 59 -41 7 -54 32 -28 51
26 19 42 17 65 -6 21 -21 50 -27 50 -10 0 6 -11 22 -25 35 -29 30 -83 33 -113
8z"/>
<path d="M4030 14483 c0 -5 17 -56 37 -114 32 -92 36 -110 25 -133 -7 -15 -20
-26 -32 -26 -11 0 -20 -7 -20 -15 0 -19 53 -20 69 -2 11 14 111 272 111 288 0
5 -8 9 -18 9 -14 0 -24 -20 -46 -85 -15 -47 -29 -85 -31 -85 -2 0 -16 38 -31
85 -22 65 -32 85 -46 85 -10 0 -18 -3 -18 -7z"/>
<path d="M4500 14397 c0 -77 3 -97 18 -109 28 -26 60 -31 92 -14 17 8 30 10
30 5 0 -5 9 -9 20 -9 19 0 20 7 20 110 0 103 -1 110 -20 110 -18 0 -20 -7 -20
-73 0 -90 -16 -120 -63 -115 l-32 3 -3 93 c-2 84 -4 92 -22 92 -18 0 -20 -7
-20 -93z"/>
<path d="M5675 14443 c9 -26 23 -76 32 -110 14 -52 21 -63 38 -63 19 0 24 11
40 80 10 44 22 77 25 73 4 -4 15 -41 25 -81 15 -64 20 -73 38 -70 17 2 26 22
52 111 29 98 31 107 14 107 -13 0 -22 -15 -34 -57 -9 -32 -20 -69 -24 -83 -9
-27 -7 -31 -42 101 -8 33 -14 40 -32 37 -18 -2 -24 -16 -41 -83 -11 -44 -22
-73 -24 -65 -3 8 -13 44 -22 80 -13 53 -20 66 -38 68 -21 3 -21 3 -7 -45z"/>
<path d="M2870 14295 c0 -18 5 -25 20 -25 15 0 20 7 20 25 0 18 -5 25 -20 25
-15 0 -20 -7 -20 -25z"/>
<path d="M1398 13979 c-12 -6 -18 -22 -18 -44 0 -24 -5 -35 -15 -35 -8 0 -15
-7 -15 -15 0 -8 7 -15 15 -15 12 0 15 -17 15 -95 0 -78 3 -95 15 -95 12 0 15
17 15 95 0 88 1 95 20 95 11 0 20 6 20 14 0 7 -9 16 -20 19 -11 3 -20 12 -20
21 0 9 9 21 20 28 42 26 10 52 -32 27z"/>
<path d="M2698 13979 c-12 -6 -18 -22 -18 -44 0 -24 -5 -35 -15 -35 -8 0 -15
-7 -15 -15 0 -8 7 -15 15 -15 12 0 15 -17 15 -95 0 -88 1 -95 20 -95 19 0 20
7 20 95 0 78 3 95 15 95 8 0 15 7 15 15 0 8 -7 15 -15 15 -9 0 -15 9 -15 25 0
14 7 28 15 31 8 4 15 12 15 20 0 16 -27 18 -52 3z"/>
<path d="M2818 13979 c-12 -6 -18 -22 -18 -44 0 -24 -5 -35 -15 -35 -8 0 -15
-7 -15 -15 0 -8 7 -15 15 -15 12 0 15 -17 15 -95 0 -88 1 -95 20 -95 19 0 20
7 20 95 0 78 3 95 15 95 8 0 15 7 15 15 0 8 -7 15 -15 15 -9 0 -15 9 -15 25 0
14 7 28 15 31 8 4 15 12 15 20 0 16 -27 18 -52 3z"/>
<path d="M8030 13835 c0 -148 1 -155 20 -155 19 0 20 7 20 155 0 148 -1 155
-20 155 -19 0 -20 -7 -20 -155z"/>
<path d="M8127 13983 c-4 -3 -7 -73 -7 -155 0 -141 1 -148 20 -148 19 0 20 7
20 155 0 123 -3 155 -13 155 -8 0 -17 -3 -20 -7z"/>
<path d="M2490 13930 c0 -53 -4 -58 -34 -35 -30 23 -65 18 -97 -14 -24 -25
-29 -37 -29 -81 0 -67 21 -105 64 -120 28 -9 40 -8 65 5 18 9 31 11 31 5 0 -5
7 -10 15 -10 13 0 15 23 15 150 0 127 -2 150 -15 150 -11 0 -15 -12 -15 -50z
m-20 -79 c16 -30 12 -107 -6 -125 -17 -17 -51 -21 -72 -8 -30 19 -36 106 -9
140 16 20 75 15 87 -7z"/>
<path d="M2580 13960 c0 -11 7 -20 15 -20 8 0 15 9 15 20 0 11 -7 20 -15 20
-8 0 -15 -9 -15 -20z"/>
<path d="M5570 13930 c0 -51 -8 -61 -30 -35 -14 17 -53 20 -81 5 -32 -18 -52
-68 -47 -122 8 -81 68 -124 129 -94 16 8 29 10 29 5 0 -5 9 -9 20 -9 19 0 20
7 20 150 0 143 -1 150 -20 150 -17 0 -20 -7 -20 -50z m-19 -77 c8 -9 14 -37
14 -63 0 -26 -6 -54 -14 -63 -20 -25 -67 -21 -85 5 -18 26 -21 90 -6 119 13
24 72 26 91 2z"/>
<path d="M6580 13830 c0 -143 1 -150 20 -150 18 0 20 7 20 78 0 88 14 112 63
112 37 0 47 -25 47 -114 0 -61 3 -76 15 -76 12 0 15 17 15 95 0 82 -3 98 -20
115 -24 24 -67 26 -98 4 -22 -15 -22 -15 -22 35 0 44 -3 51 -20 51 -19 0 -20
-7 -20 -150z"/>
<path d="M3770 13930 c0 -20 -5 -30 -15 -30 -8 0 -15 -7 -15 -15 0 -8 7 -15
15 -15 11 0 15 -19 17 -92 l3 -93 33 -3 c24 -2 32 1 32 12 0 9 -7 16 -15 16
-12 0 -15 16 -15 80 0 64 3 80 15 80 8 0 15 7 15 15 0 8 -7 15 -15 15 -10 0
-15 10 -15 30 0 23 -4 30 -20 30 -16 0 -20 -7 -20 -30z"/>
<path d="M1552 13894 c-12 -8 -22 -10 -22 -5 0 6 -9 11 -20 11 -19 0 -20 -7
-20 -110 0 -103 1 -110 20 -110 18 0 20 7 20 78 0 83 14 112 53 112 10 0 17 8
17 20 0 24 -18 26 -48 4z"/>
<path d="M1673 13900 c-55 -22 -72 -136 -27 -189 22 -26 33 -31 69 -31 32 0
52 7 72 24 25 22 28 31 28 86 0 57 -2 64 -33 91 -33 30 -67 36 -109 19z m82
-45 c48 -47 25 -145 -34 -145 -46 0 -67 37 -63 108 2 26 35 62 57 62 9 0 27
-11 40 -25z"/>
<path d="M1922 13894 c-12 -8 -22 -10 -22 -5 0 6 -7 11 -15 11 -12 0 -15 -19
-15 -110 0 -91 3 -110 15 -110 12 0 15 15 15 73 0 85 16 117 59 117 36 0 41
-13 41 -111 0 -64 3 -79 15 -79 12 0 15 14 15 68 0 82 15 116 54 120 16 2 32
-2 37 -10 5 -7 9 -50 9 -95 0 -78 1 -83 21 -83 21 0 21 4 17 96 -4 86 -7 99
-27 115 -28 23 -59 24 -89 3 -20 -14 -24 -14 -44 0 -12 9 -32 16 -43 16 -11 0
-31 -7 -43 -16z"/>
<path d="M2934 13876 c-29 -29 -34 -41 -34 -80 0 -63 21 -102 65 -116 47 -16
95 1 118 40 18 29 18 30 -2 30 -11 0 -25 -9 -31 -20 -22 -42 -110 -17 -110 31
0 17 8 19 80 19 87 0 93 5 71 63 -28 73 -101 89 -157 33z m108 -23 c34 -31 23
-43 -42 -43 -45 0 -60 3 -60 14 0 41 67 61 102 29z"/>
<path d="M3212 13894 c-12 -8 -22 -10 -22 -5 0 6 -9 11 -20 11 -19 0 -20 -7
-20 -110 0 -103 1 -110 20 -110 18 0 20 7 20 78 0 83 14 112 53 112 10 0 17 8
17 20 0 24 -18 26 -48 4z"/>
<path d="M3314 13876 c-29 -29 -34 -41 -34 -80 0 -63 21 -102 65 -116 47 -16
95 1 118 40 18 29 18 30 -2 30 -11 0 -25 -9 -31 -20 -22 -42 -110 -17 -110 31
0 17 8 19 80 19 87 0 93 5 71 63 -28 73 -101 89 -157 33z m108 -23 c34 -31 23
-43 -42 -43 -45 0 -60 3 -60 14 0 41 67 61 102 29z"/>
<path d="M3583 13893 c-14 -9 -23 -11 -23 -4 0 6 -7 11 -15 11 -12 0 -15 -19
-15 -110 0 -91 3 -110 15 -110 12 0 15 14 15 68 0 82 15 116 53 120 48 6 57
-11 57 -104 0 -79 1 -84 21 -84 21 0 21 4 17 96 -4 86 -7 99 -27 115 -28 23
-68 24 -98 2z"/>
<path d="M4024 13876 c-29 -29 -34 -41 -34 -80 0 -63 21 -102 65 -116 47 -16
95 1 118 40 18 29 18 30 -2 30 -11 0 -25 -9 -31 -20 -22 -42 -110 -17 -110 31
0 17 8 19 80 19 87 0 93 5 71 63 -28 73 -101 89 -157 33z m108 -23 c34 -31 23
-43 -42 -43 -45 0 -60 3 -60 14 0 41 67 61 102 29z"/>
<path d="M4302 13894 c-12 -8 -22 -10 -22 -5 0 6 -9 11 -20 11 -19 0 -20 -7
-20 -110 0 -103 1 -110 20 -110 18 0 20 7 20 78 0 83 14 112 53 112 10 0 17 8
17 20 0 24 -18 26 -48 4z"/>
<path d="M4406 13889 c-27 -22 -35 -49 -13 -49 7 0 20 9 30 20 9 11 24 20 33
20 26 0 54 -20 54 -39 0 -21 -19 -31 -56 -31 -28 0 -65 -17 -76 -34 -4 -6 -8
-26 -8 -44 0 -29 5 -35 38 -49 35 -15 39 -14 74 5 30 16 38 17 42 6 6 -16 56
-19 56 -4 0 6 -7 13 -15 16 -12 5 -15 24 -15 84 0 73 -2 80 -26 99 -15 12 -41
21 -59 21 -18 0 -44 -9 -59 -21z m104 -129 c0 -33 -22 -50 -68 -50 -21 0 -31
6 -35 19 -7 27 6 42 44 51 55 13 59 12 59 -20z"/>
<path d="M4635 13885 c-49 -48 -25 -91 62 -109 42 -9 60 -31 43 -51 -19 -22
-77 -19 -92 5 -13 20 -48 28 -48 11 0 -6 10 -22 23 -37 19 -22 33 -27 69 -28
61 -1 90 24 86 73 -3 34 -6 37 -63 57 -45 16 -61 27 -63 42 -2 16 3 23 21 27
26 7 67 -9 67 -25 0 -6 9 -10 19 -10 14 0 18 5 14 20 -14 52 -97 67 -138 25z"/>
<path d="M4976 13889 c-27 -22 -35 -49 -13 -49 7 0 20 9 30 20 9 11 24 20 33
20 26 0 54 -20 54 -39 0 -21 -19 -31 -56 -31 -28 0 -65 -17 -76 -34 -4 -6 -8
-26 -8 -44 0 -29 5 -35 38 -49 35 -15 39 -14 74 5 30 16 38 17 42 6 6 -16 56
-19 56 -4 0 6 -7 13 -15 16 -12 5 -15 24 -15 84 0 73 -2 80 -26 99 -15 12 -41
21 -59 21 -18 0 -44 -9 -59 -21z m104 -129 c0 -33 -22 -50 -68 -50 -21 0 -31
6 -35 19 -7 27 6 42 44 51 55 13 59 12 59 -20z"/>
<path d="M5243 13893 c-14 -9 -23 -11 -23 -4 0 6 -7 11 -15 11 -12 0 -15 -19
-15 -110 0 -91 3 -110 15 -110 12 0 15 14 15 68 0 82 15 116 53 120 48 6 57
-11 57 -104 0 -79 1 -84 21 -84 21 0 21 4 17 96 -4 86 -7 99 -27 115 -28 23
-68 24 -98 2z"/>
<path d="M5802 13893 c-29 -25 -37 -66 -17 -86 9 -9 35 -21 58 -27 66 -17 69
-19 65 -42 -2 -19 -10 -24 -45 -26 -34 -2 -45 1 -55 17 -16 26 -38 27 -38 3 0
-41 73 -70 128 -51 28 10 52 44 52 75 0 18 -52 50 -97 59 -41 7 -54 32 -28 51
26 19 42 17 65 -6 21 -21 50 -27 50 -10 0 6 -11 22 -25 35 -29 30 -83 33 -113
8z"/>
<path d="M6019 13882 c-27 -24 -33 -38 -37 -83 -4 -48 -1 -59 22 -86 45 -54
132 -50 162 8 13 27 13 29 -3 29 -10 0 -24 -9 -31 -20 -18 -29 -76 -27 -96 2
-30 42 -22 48 64 48 79 0 80 0 80 25 0 92 -94 137 -161 77z m105 -28 c32 -32
20 -44 -44 -44 -33 0 -60 3 -60 8 0 4 7 18 16 30 18 26 65 30 88 6z"/>
<path d="M6254 13876 c-29 -29 -34 -41 -34 -80 0 -63 21 -102 65 -116 47 -16
95 1 118 40 18 29 18 30 -2 30 -11 0 -25 -9 -31 -20 -22 -42 -110 -17 -110 31
0 17 8 19 80 19 87 0 93 5 71 63 -28 73 -101 89 -157 33z m108 -23 c34 -31 23
-43 -42 -43 -45 0 -60 3 -60 14 0 41 67 61 102 29z"/>
<path d="M6859 13895 c-36 -19 -53 -65 -46 -122 7 -62 40 -93 102 -93 36 0 47
5 69 31 46 54 31 155 -25 185 -35 18 -66 17 -100 -1z m81 -25 c22 -12 41 -70
33 -102 -9 -36 -33 -58 -64 -58 -37 0 -59 33 -59 86 0 34 5 47 26 63 30 24 38
25 64 11z"/>
<path d="M7831 13894 c-26 -19 -51 -71 -51 -109 0 -72 70 -126 136 -105 31 10
64 43 64 62 0 16 -36 7 -48 -12 -8 -14 -23 -20 -46 -20 -35 0 -49 11 -60 48
-7 22 -6 22 75 22 l82 0 -6 42 c-10 75 -87 113 -146 72z m106 -54 l12 -25 -60
-3 c-34 -2 -64 -1 -67 2 -2 3 3 17 12 31 23 36 84 33 103 -5z"/>
<path d="M8589 13895 c-36 -19 -53 -65 -46 -122 7 -62 40 -93 102 -93 36 0 47
5 69 31 46 54 31 155 -25 185 -35 18 -66 17 -100 -1z m81 -25 c22 -12 41 -70
33 -102 -9 -36 -33 -58 -64 -58 -37 0 -59 33 -59 86 0 34 5 47 26 63 30 24 38
25 64 11z"/>
<path d="M2580 13790 c0 -91 3 -110 15 -110 12 0 15 19 15 110 0 91 -3 110
-15 110 -12 0 -15 -19 -15 -110z"/>
<path d="M7040 13891 c0 -4 4 -21 9 -37 6 -16 19 -62 31 -101 17 -58 25 -73
40 -73 20 0 21 4 51 125 l13 50 21 -85 c17 -69 25 -86 41 -88 21 -3 26 11 80
201 4 12 0 17 -13 17 -15 0 -23 -15 -37 -72 -11 -40 -22 -77 -26 -81 -3 -4
-15 29 -25 73 -16 71 -21 80 -41 80 -20 0 -24 -9 -40 -75 -10 -41 -21 -75 -24
-75 -3 0 -14 34 -24 75 -14 61 -21 75 -37 75 -10 0 -19 -4 -19 -9z"/>
<path d="M7470 13888 c0 -7 13 -56 28 -108 23 -78 32 -96 49 -98 18 -3 23 6
38 70 10 40 20 77 23 82 3 6 15 -26 26 -70 17 -65 25 -80 42 -82 18 -3 23 5
32 40 7 24 20 73 31 111 19 64 19 67 2 67 -14 0 -23 -19 -42 -87 l-23 -88 -21
85 c-18 71 -24 86 -42 88 -18 3 -24 -4 -32 -37 -6 -23 -16 -60 -23 -83 l-11
-43 -21 83 c-16 65 -24 82 -38 82 -10 0 -18 -6 -18 -12z"/>
<path d="M8323 13883 c2 -10 20 -61 39 -113 38 -102 37 -137 -2 -147 -29 -8
-25 -33 5 -33 30 0 45 22 80 113 14 37 36 96 50 132 l24 65 -23 0 c-20 0 -26
-10 -46 -80 -13 -45 -26 -82 -30 -85 -3 -2 -19 34 -34 81 -22 69 -31 84 -48
84 -15 0 -19 -5 -15 -17z"/>
<path d="M8790 13807 c0 -77 3 -97 18 -109 28 -26 60 -31 92 -14 17 8 30 10
30 5 0 -5 9 -9 20 -9 19 0 20 7 20 110 0 103 -1 110 -20 110 -18 0 -20 -7 -20
-73 0 -90 -16 -120 -63 -115 l-32 3 -3 93 c-2 84 -4 92 -22 92 -18 0 -20 -7
-20 -93z"/>
<path d="M4330 13245 c0 -148 1 -155 20 -155 19 0 20 7 20 155 0 148 -1 155
-20 155 -19 0 -20 -7 -20 -155z"/>
<path d="M6467 13382 c-10 -10 -17 -31 -17 -45 0 -17 -5 -27 -15 -27 -8 0 -15
-7 -15 -15 0 -8 7 -15 15 -15 12 0 15 -17 15 -95 0 -88 1 -95 20 -95 19 0 20
7 20 94 0 85 2 94 20 99 11 3 20 10 20 16 0 6 -9 11 -20 11 -15 0 -20 7 -20
26 0 17 6 28 20 31 11 3 20 12 20 19 0 20 -44 17 -63 -4z"/>
<path d="M1990 13339 c0 -50 0 -50 -22 -35 -65 46 -138 -11 -138 -107 0 -77
81 -138 135 -103 14 9 25 12 25 6 0 -5 9 -10 20 -10 19 0 20 7 20 150 0 143
-1 150 -20 150 -17 0 -20 -7 -20 -51z m-16 -81 c9 -12 16 -38 16 -58 0 -48
-24 -80 -60 -80 -18 0 -34 8 -44 22 -21 29 -21 102 0 122 23 24 70 20 88 -6z"/>
<path d="M3410 13339 c0 -50 0 -50 -22 -35 -35 25 -71 20 -103 -14 -25 -26
-29 -39 -29 -84 0 -65 21 -100 69 -116 30 -10 40 -9 62 6 19 12 28 13 31 6 2
-7 10 -12 18 -12 11 0 14 27 14 150 0 143 -1 150 -20 150 -17 0 -20 -7 -20
-51z m-16 -81 c21 -30 20 -96 -1 -120 -19 -22 -66 -24 -83 -3 -21 25 -24 92
-6 120 21 33 68 34 90 3z"/>
<path d="M3740 13240 c0 -143 1 -150 20 -150 18 0 20 7 20 84 0 95 9 109 62
104 l33 -3 3 -92 c2 -85 4 -93 22 -93 18 0 20 7 20 83 0 93 -13 127 -54 142
-21 7 -34 6 -57 -7 l-29 -17 0 49 c0 43 -3 50 -20 50 -19 0 -20 -7 -20 -150z"/>
<path d="M7370 13240 c0 -143 1 -150 20 -150 18 0 20 7 20 84 0 95 9 109 62
104 l33 -3 3 -92 c2 -85 4 -93 22 -93 18 0 20 7 20 83 0 93 -13 127 -54 142
-21 7 -34 6 -57 -7 l-29 -17 0 49 c0 43 -3 50 -20 50 -19 0 -20 -7 -20 -150z"/>
<path d="M9170 13369 c0 -14 5 -19 17 -17 26 5 29 38 4 38 -15 0 -21 -6 -21
-21z"/>
<path d="M9752 13280 c4 -103 10 -131 24 -118 3 3 8 56 11 117 6 111 6 111
-17 111 -22 0 -23 -1 -18 -110z"/>
<path d="M9872 13280 c4 -103 10 -131 24 -118 3 3 8 56 11 117 6 111 6 111
-17 111 -22 0 -23 -1 -18 -110z"/>
<path d="M2680 13340 c0 -20 -5 -30 -15 -30 -8 0 -15 -7 -15 -15 0 -8 7 -15
15 -15 11 0 15 -19 17 -92 l3 -93 33 -3 c24 -2 32 1 32 12 0 9 -7 16 -15 16
-12 0 -15 16 -15 80 0 64 3 80 15 80 8 0 15 7 15 15 0 8 -7 15 -15 15 -10 0
-15 10 -15 30 0 23 -4 30 -20 30 -16 0 -20 -7 -20 -30z"/>
<path d="M3630 13340 c0 -20 -5 -30 -15 -30 -8 0 -15 -7 -15 -15 0 -8 7 -15
15 -15 11 0 15 -19 17 -92 l3 -93 33 -3 c24 -2 32 1 32 12 0 9 -7 16 -15 16
-12 0 -15 16 -15 80 0 64 3 80 15 80 8 0 15 7 15 15 0 8 -7 15 -15 15 -10 0
-15 10 -15 30 0 23 -4 30 -20 30 -16 0 -20 -7 -20 -30z"/>
<path d="M9060 13340 c0 -20 -5 -30 -15 -30 -8 0 -15 -7 -15 -15 0 -8 7 -15
15 -15 11 0 15 -19 17 -92 l3 -93 33 -3 c24 -2 32 1 32 12 0 9 -7 16 -15 16
-12 0 -15 16 -15 80 0 64 3 80 15 80 8 0 15 7 15 15 0 8 -7 15 -15 15 -10 0
-15 10 -15 30 0 23 -4 30 -20 30 -16 0 -20 -7 -20 -30z"/>
<path d="M1663 13303 c-14 -9 -23 -11 -23 -4 0 6 -7 11 -15 11 -12 0 -15 -19
-15 -110 0 -91 3 -110 15 -110 12 0 15 14 15 68 0 82 15 116 53 120 48 6 57
-11 57 -104 0 -79 1 -84 21 -84 21 0 21 4 17 96 -4 86 -7 99 -27 115 -28 23
-68 24 -98 2z"/>
<path d="M2104 13286 c-29 -29 -34 -41 -34 -80 0 -63 21 -102 65 -116 47 -16
95 1 118 40 18 29 18 30 -2 30 -11 0 -25 -9 -31 -20 -22 -42 -110 -17 -110 31
0 17 8 19 80 19 87 0 93 5 71 63 -28 73 -101 89 -157 33z m108 -23 c34 -31 23
-43 -42 -43 -45 0 -60 3 -60 14 0 41 67 61 102 29z"/>
<path d="M2382 13304 c-12 -8 -22 -10 -22 -5 0 6 -9 11 -20 11 -19 0 -20 -7
-20 -110 0 -103 1 -110 20 -110 18 0 20 7 20 78 0 83 14 112 53 112 10 0 17 8
17 20 0 24 -18 26 -48 4z"/>
<path d="M2482 13303 c-29 -25 -37 -66 -17 -86 9 -9 35 -21 58 -27 66 -17 69
-19 65 -42 -2 -19 -10 -24 -45 -26 -34 -2 -45 1 -55 17 -16 26 -38 27 -38 3 0
-41 73 -70 128 -51 28 10 52 44 52 75 0 18 -52 50 -97 59 -41 7 -54 32 -28 51
26 19 42 17 65 -6 21 -21 50 -27 50 -10 0 6 -11 22 -25 35 -29 30 -83 33 -113
8z"/>
<path d="M2815 13295 c-14 -13 -25 -29 -25 -35 0 -17 29 -11 50 10 24 24 53
26 74 4 30 -30 13 -48 -52 -57 -52 -6 -82 -31 -82 -67 0 -56 84 -86 128 -47
17 16 20 16 25 2 4 -8 18 -15 32 -15 27 0 34 17 10 26 -12 5 -15 25 -15 90 0
82 0 84 -30 99 -43 22 -87 19 -115 -10z m115 -113 c0 -35 -29 -62 -66 -62 -60
0 -58 58 2 71 51 12 64 10 64 -9z"/>
<path d="M3090 13303 c-17 -12 -25 -13 -28 -5 -2 7 -10 12 -18 12 -11 0 -14
-22 -14 -110 0 -103 1 -110 20 -110 18 0 20 7 20 76 0 94 10 114 54 114 42 0
46 -10 46 -111 0 -74 1 -79 21 -79 20 0 21 4 17 96 -3 86 -5 98 -27 115 -29
23 -59 24 -91 2z"/>
<path d="M4019 13305 c-46 -25 -67 -122 -39 -175 16 -29 71 -51 110 -44 42 9
93 74 57 74 -7 0 -20 -9 -30 -20 -23 -27 -82 -27 -97 -1 -24 45 -15 51 70 51
44 0 80 3 80 8 0 4 -5 24 -10 44 -19 67 -82 95 -141 63z m95 -47 c9 -12 16
-26 16 -30 0 -5 -27 -8 -60 -8 -62 0 -68 5 -50 41 15 28 74 26 94 -3z"/>
<path d="M4465 13308 c-23 -13 -35 -28 -35 -45 0 -19 17 -16 40 7 11 11 27 20
36 20 27 0 54 -20 54 -40 0 -20 -7 -23 -83 -35 -72 -12 -87 -91 -23 -122 29
-13 36 -13 71 2 26 10 41 12 43 5 6 -16 52 -12 52 5 0 8 -4 15 -10 15 -6 0
-10 32 -10 75 0 67 -3 79 -25 100 -26 27 -75 33 -110 13z m95 -132 c0 -37 -26
-58 -69 -54 -26 2 -37 8 -39 22 -5 24 9 36 50 46 53 13 58 11 58 -14z"/>
<path d="M4722 13304 c-12 -8 -22 -10 -22 -5 0 6 -9 11 -20 11 -19 0 -20 -7
-20 -110 0 -103 1 -110 20 -110 18 0 20 7 20 73 0 86 16 117 60 117 40 0 50
-23 50 -114 0 -61 3 -76 15 -76 12 0 15 17 15 95 0 82 -3 98 -20 115 -24 24
-67 26 -98 4z"/>
<path d="M4934 13302 c-50 -40 -59 -117 -21 -172 29 -44 67 -56 108 -36 l31
15 -7 -27 c-4 -15 -11 -33 -17 -39 -15 -18 -77 -17 -84 2 -8 19 -44 20 -44 1
0 -47 110 -62 156 -23 26 23 27 27 32 155 5 130 4 132 -17 132 -11 0 -21 -5
-21 -11 0 -5 -10 -3 -22 5 -29 21 -68 20 -94 -2z m100 -44 c9 -12 16 -38 16
-58 0 -48 -24 -80 -60 -80 -18 0 -34 8 -44 22 -21 29 -21 102 0 122 23 24 70
20 88 -6z"/>
<path d="M5415 13308 c-23 -13 -35 -28 -35 -45 0 -19 17 -16 40 7 11 11 27 20
36 20 27 0 54 -20 54 -40 0 -20 -7 -23 -83 -35 -72 -12 -87 -91 -23 -122 29
-13 36 -13 71 2 26 10 41 12 43 5 6 -16 52 -12 52 5 0 8 -4 15 -10 15 -6 0
-10 32 -10 75 0 67 -3 79 -25 100 -26 27 -75 33 -110 13z m95 -132 c0 -37 -26
-58 -69 -54 -26 2 -37 8 -39 22 -5 24 9 36 50 46 53 13 58 11 58 -14z"/>
<path d="M5641 13295 c-63 -54 -48 -171 26 -202 35 -14 40 -14 66 0 25 15 27
15 27 -1 0 -51 -68 -82 -104 -47 -26 26 -57 17 -38 -11 27 -41 117 -46 153 -8
22 24 24 34 27 155 3 125 3 129 -17 129 -12 0 -21 -5 -21 -11 0 -5 -10 -3 -22
5 -32 23 -62 20 -97 -9z m103 -37 c21 -30 20 -96 -1 -120 -19 -22 -66 -24 -83
-3 -21 25 -24 92 -6 120 21 33 68 34 90 3z"/>
<path d="M5879 13292 c-27 -24 -33 -38 -37 -83 -4 -48 -1 -59 22 -86 45 -54
132 -50 162 8 13 27 13 29 -3 29 -10 0 -24 -9 -31 -20 -18 -29 -76 -27 -96 2
-30 42 -22 48 64 48 79 0 80 0 80 25 0 92 -94 137 -161 77z m105 -28 c32 -32
20 -44 -44 -44 -33 0 -60 3 -60 8 0 4 7 18 16 30 18 26 65 30 88 6z"/>
<path d="M6250 13308 c-62 -32 -75 -140 -23 -192 35 -36 103 -36 138 -2 26 26
41 82 31 120 -16 64 -91 102 -146 74z m85 -43 c48 -47 25 -145 -35 -145 -50 0
-77 44 -66 106 7 33 37 64 64 64 7 0 24 -11 37 -25z"/>
<path d="M6709 13292 c-27 -24 -33 -38 -37 -83 -4 -48 -1 -59 22 -86 45 -54
132 -50 162 8 13 27 13 29 -3 29 -10 0 -24 -9 -31 -20 -18 -29 -76 -27 -96 2
-30 42 -22 48 64 48 79 0 80 0 80 25 0 92 -94 137 -161 77z m105 -28 c32 -32
20 -44 -44 -44 -33 0 -60 3 -60 8 0 4 7 18 16 30 18 26 65 30 88 6z"/>
<path d="M6955 13308 c-23 -13 -35 -28 -35 -45 0 -19 17 -16 40 7 11 11 27 20
36 20 27 0 54 -20 54 -40 0 -20 -7 -23 -83 -35 -72 -12 -87 -91 -23 -122 29
-13 36 -13 71 2 26 10 41 12 43 5 6 -16 52 -12 52 5 0 8 -4 15 -10 15 -6 0
-10 32 -10 75 0 67 -3 79 -25 100 -26 27 -75 33 -110 13z m95 -132 c0 -37 -26
-58 -69 -54 -26 2 -37 8 -39 22 -5 24 9 36 50 46 53 13 58 11 58 -14z"/>
<path d="M7179 13292 c-39 -35 -51 -110 -25 -160 34 -65 140 -61 164 7 10 27
9 31 -7 31 -10 0 -23 -11 -29 -25 -9 -18 -19 -25 -41 -25 -37 0 -61 31 -61 80
0 20 7 46 16 58 20 29 69 30 86 2 7 -11 20 -20 29 -20 24 0 13 35 -19 60 -35
28 -76 25 -113 -8z"/>
<path d="M7751 13295 c-63 -54 -48 -171 26 -202 35 -14 40 -14 66 0 25 15 27
15 27 -1 0 -51 -68 -82 -104 -47 -26 26 -57 17 -38 -11 27 -41 117 -46 153 -8
22 24 24 34 27 155 3 125 3 129 -17 129 -12 0 -21 -5 -21 -11 0 -5 -10 -3 -22
5 -32 23 -62 20 -97 -9z m103 -37 c21 -30 20 -96 -1 -120 -19 -22 -66 -24 -83
-3 -21 25 -24 92 -6 120 21 33 68 34 90 3z"/>
<path d="M7989 13292 c-27 -24 -33 -38 -37 -83 -4 -48 -1 -59 22 -86 45 -54
132 -50 162 8 13 27 13 29 -3 29 -10 0 -24 -9 -31 -20 -18 -29 -76 -27 -96 2
-30 42 -22 48 64 48 79 0 80 0 80 25 0 92 -94 137 -161 77z m105 -28 c32 -32
20 -44 -44 -44 -33 0 -60 3 -60 8 0 4 7 18 16 30 18 26 65 30 88 6z"/>
<path d="M8260 13303 c-17 -12 -25 -13 -28 -5 -2 7 -10 12 -18 12 -11 0 -14
-22 -14 -110 0 -103 1 -110 20 -110 18 0 20 7 20 76 0 94 10 114 54 114 42 0
46 -10 46 -111 0 -74 1 -79 21 -79 20 0 21 4 17 96 -3 86 -5 98 -27 115 -29
23 -59 24 -91 2z"/>
<path d="M8479 13305 c-46 -25 -67 -122 -39 -175 16 -29 71 -51 110 -44 42 9
93 74 57 74 -7 0 -20 -9 -30 -20 -23 -27 -82 -27 -97 -1 -24 45 -15 51 70 51
44 0 80 3 80 8 0 4 -5 24 -10 44 -19 67 -82 95 -141 63z m95 -47 c9 -12 16
-26 16 -30 0 -5 -27 -8 -60 -8 -62 0 -68 5 -50 41 15 28 74 26 94 -3z"/>
<path d="M8732 13298 c-19 -19 -22 -20 -22 -5 0 9 -7 17 -15 17 -12 0 -15 -19
-15 -110 0 -91 3 -110 15 -110 12 0 15 15 15 75 0 62 4 79 20 95 11 11 27 20
35 20 8 0 15 9 15 20 0 26 -20 25 -48 -2z"/>
<path d="M8844 13306 c-26 -19 -38 -56 -18 -56 8 0 23 9 34 20 11 11 27 20 36
20 27 0 54 -20 54 -40 0 -20 -7 -23 -82 -35 -60 -9 -90 -73 -50 -107 29 -26
60 -31 94 -14 21 11 35 13 42 6 16 -16 56 -12 56 5 0 8 -4 15 -9 15 -5 0 -11
36 -13 80 -2 57 -8 84 -20 96 -23 23 -98 29 -124 10z m106 -128 c0 -33 -29
-58 -67 -58 -59 0 -57 58 3 71 54 12 64 10 64 -13z"/>
<path d="M9315 13311 c-56 -23 -82 -109 -51 -169 20 -39 44 -52 94 -52 72 0
114 69 92 152 -17 60 -79 91 -135 69z m72 -36 c12 -9 25 -31 29 -49 11 -62
-16 -106 -66 -106 -60 0 -83 98 -35 145 28 29 42 31 72 10z"/>
<path d="M9562 13304 c-12 -8 -22 -10 -22 -5 0 6 -9 11 -20 11 -19 0 -20 -7
-20 -110 0 -103 1 -110 20 -110 18 0 20 7 20 78 0 90 16 116 67 110 l28 -3 3
-92 c2 -85 4 -93 22 -93 18 0 20 7 20 94 0 90 -1 96 -26 115 -32 25 -61 27
-92 5z"/>
<path d="M1370 13217 c0 -77 3 -97 18 -109 28 -26 60 -31 92 -14 17 8 30 10
30 5 0 -5 9 -9 20 -9 19 0 20 7 20 110 0 103 -1 110 -20 110 -18 0 -20 -7 -20
-73 0 -90 -16 -120 -63 -115 l-32 3 -3 93 c-2 84 -4 92 -22 92 -18 0 -20 -7
-20 -93z"/>
<path d="M5140 13217 c0 -77 3 -97 18 -109 28 -26 60 -31 92 -14 17 8 30 10
30 5 0 -5 9 -9 20 -9 19 0 20 7 20 110 0 103 -1 110 -20 110 -18 0 -20 -7 -20
-73 0 -90 -16 -120 -63 -115 l-32 3 -3 93 c-2 84 -4 92 -22 92 -18 0 -20 -7
-20 -93z"/>
<path d="M9170 13200 c0 -103 1 -110 20 -110 19 0 20 7 20 110 0 103 -1 110
-20 110 -19 0 -20 -7 -20 -110z"/>
<path d="M9750 13110 c0 -13 7 -20 20 -20 13 0 20 7 20 20 0 13 -7 20 -20 20
-13 0 -20 -7 -20 -20z"/>
<path d="M9870 13110 c0 -13 7 -20 20 -20 13 0 20 7 20 20 0 13 -7 20 -20 20
-13 0 -20 -7 -20 -20z"/>
<path d="M2120 3003 c-47 -8 -149 -42 -189 -63 -83 -42 -149 -121 -172 -205
-8 -29 -14 -35 -29 -30 -201 64 -370 -37 -426 -255 -25 -98 0 -215 58 -277 12
-13 20 -24 17 -26 -2 -1 -21 -12 -43 -22 -52 -27 -114 -99 -127 -148 -18 -66
9 -163 60 -221 26 -30 90 -57 145 -63 86 -8 248 41 309 96 21 18 24 15 58 -47
9 -17 38 -43 65 -58 63 -37 193 -46 274 -19 50 16 115 69 137 109 10 19 13 18
49 -14 21 -18 63 -45 94 -59 48 -23 68 -26 160 -26 89 0 113 4 157 24 58 26
129 95 139 135 3 14 7 26 8 26 0 0 28 -11 61 -25 81 -33 171 -34 240 -1 170
79 212 274 88 408 l-25 26 40 37 c49 43 66 91 59 156 -16 137 -125 239 -256
239 l-46 0 -17 59 c-44 147 -224 227 -399 175 -40 -12 -67 -29 -104 -66 -27
-27 -51 -45 -53 -39 -10 30 -63 94 -100 122 -67 49 -146 67 -232 52z m186 -51
c47 -25 94 -73 127 -130 l24 -42 33 41 c20 25 53 51 84 64 183 83 389 -5 412
-177 l6 -44 77 0 c85 0 117 -12 169 -66 33 -35 72 -128 72 -174 0 -39 -28 -91
-68 -124 l-35 -29 27 -35 c55 -72 71 -158 45 -237 -15 -45 -74 -107 -124 -130
-78 -36 -201 -21 -287 37 l-38 24 0 -35 c0 -46 -32 -108 -68 -134 -66 -47
-131 -63 -232 -59 -103 5 -158 25 -229 85 l-34 29 -44 -48 c-63 -66 -107 -81
-231 -76 -83 2 -106 7 -129 24 -41 31 -73 82 -73 119 0 17 -3 34 -6 38 -3 3
-26 -10 -52 -29 -162 -125 -360 -151 -441 -58 -46 51 -63 100 -59 161 6 72 47
122 152 188 14 9 12 17 -17 75 -28 57 -32 74 -32 145 1 68 5 90 32 146 33 70
83 128 135 155 53 27 143 29 215 5 77 -26 73 -26 73 2 0 13 7 47 16 77 31 103
146 189 309 229 57 14 145 6 191 -17z"/>
<path d="M2255 2667 c-13 -31 -32 -73 -41 -94 -9 -21 -18 -32 -21 -25 -3 6
-20 12 -39 12 -26 0 -34 4 -34 18 0 15 2 15 11 2 8 -12 9 -11 6 5 -3 11 -8 37
-12 58 -3 21 -10 35 -16 32 -5 -4 -9 1 -9 10 0 12 -5 15 -16 11 -9 -3 -18 -6
-20 -6 -7 0 -4 -52 7 -117 11 -61 12 -63 43 -64 27 0 28 -2 11 -10 -18 -8 -17
-9 5 -5 14 3 48 8 75 12 28 3 55 10 60 14 6 5 21 10 35 13 21 4 20 4 -7 6 -17
0 -35 -3 -38 -9 -3 -5 -11 -10 -18 -10 -6 0 -2 7 9 15 22 16 80 20 89 5 3 -5
18 -10 33 -11 l27 -1 -25 -8 -25 -8 26 -1 c14 -1 30 4 37 11 8 8 12 8 12 1 0
-6 9 -13 20 -16 16 -4 21 1 26 28 3 19 4 40 1 47 -3 7 -6 -1 -6 -19 -1 -17 -4
-34 -9 -37 -4 -2 -6 13 -4 35 2 21 8 39 12 39 5 0 25 -20 46 -45 41 -51 51
-55 57 -22 2 12 3 7 1 -11 -2 -21 1 -30 8 -26 7 4 9 34 5 83 -3 46 -2 62 3 41
l7 -35 2 38 c1 47 -14 77 -38 77 -14 0 -20 -10 -25 -42 l-7 -43 -44 50 c-24
28 -46 47 -50 44 -3 -4 -10 -37 -16 -74 -14 -104 -20 -105 -64 -14 -55 111
-60 113 -90 46z m-138 -54 c-3 -10 -5 -4 -5 12 0 17 2 24 5 18 2 -7 2 -21 0
-30z m183 -9 c0 -22 -16 -17 -17 6 -1 11 2 18 8 15 5 -4 9 -13 9 -21z m-107
-91 c-7 -2 -21 -2 -30 0 -10 3 -4 5 12 5 17 0 24 -2 18 -5z"/>
<path d="M2352 2625 c18 -35 34 -63 36 -61 4 5 -56 126 -63 126 -3 0 10 -29
27 -65z"/>
<path d="M1923 2660 c-29 -12 -46 -45 -37 -73 9 -30 22 -37 72 -37 47 0 56
-23 11 -27 -22 -2 -22 -2 -4 6 l20 10 -20 0 c-23 0 -55 -21 -55 -37 0 -17 69
-43 96 -36 28 7 64 49 64 73 0 9 -8 1 -18 -18 -9 -19 -24 -37 -32 -39 -11 -3
-10 -1 3 9 17 14 43 84 27 74 -4 -3 -10 2 -14 10 -4 11 -20 15 -56 15 -38 0
-50 4 -50 15 0 8 5 15 11 15 5 0 7 -6 3 -12 -6 -10 -4 -10 7 0 15 14 63 17 55
3 -4 -5 3 -7 14 -4 11 3 20 10 20 15 0 5 -5 6 -12 2 -8 -5 -9 -2 -4 12 4 10 4
15 0 12 -4 -4 -16 -1 -28 7 -23 17 -41 18 -73 5z"/>
<path d="M2629 2641 c-38 -39 -40 -96 -4 -135 33 -36 95 -37 130 -1 14 13 25
20 25 16 0 -17 -42 -44 -78 -51 l-37 -8 38 -1 c28 -1 44 5 62 24 27 27 30 37
15 65 -12 23 -68 37 -83 20 -9 -8 -8 -15 6 -24 9 -7 17 -16 17 -20 0 -11 -36
-6 -56 8 -19 14 -19 15 -1 48 13 23 14 27 3 14 -9 -11 -16 -15 -16 -9 0 7 5
15 12 19 19 12 70 10 75 -3 3 -7 11 -13 19 -13 8 0 14 -4 14 -10 0 -5 7 -10
15 -10 8 0 15 7 15 15 0 8 -4 15 -10 15 -5 0 -10 6 -10 14 0 24 -50 56 -87 56
-25 0 -43 -8 -64 -29z"/>
<path d="M2080 2375 c0 -8 7 -15 15 -15 12 0 15 -13 15 -56 0 -51 2 -56 20
-51 11 3 18 1 14 -4 -3 -5 -1 -9 4 -9 14 0 20 109 7 115 -5 3 0 3 11 1 17 -3
20 1 17 15 -4 15 -15 19 -54 19 -37 0 -49 -4 -49 -15z"/>
<path d="M2200 2320 c0 -38 4 -70 9 -70 5 0 16 -3 25 -6 12 -5 16 0 16 20 0
14 6 26 13 27 6 0 3 4 -8 9 -19 8 -19 9 3 9 18 1 22 -4 22 -29 0 -16 4 -30 9
-30 5 0 16 -3 25 -6 14 -5 16 3 16 54 0 73 -6 92 -31 92 -14 0 -19 -7 -19 -25
0 -19 -5 -25 -21 -25 -11 0 -18 4 -15 9 10 16 -5 41 -25 41 -17 0 -19 -8 -19
-70z"/>
<path d="M2369 2325 c-16 -35 -29 -66 -29 -69 0 -9 39 -13 51 -4 11 8 10 8 -4
4 -11 -3 -16 -2 -12 4 8 12 52 13 59 1 10 -16 56 -20 56 -5 0 8 -5 14 -11 14
-5 0 -7 5 -4 10 3 6 1 10 -5 10 -6 0 -9 4 -5 9 7 13 -26 82 -37 75 -4 -3 -8 0
-8 5 0 30 -25 4 -51 -54z m51 -16 c0 -5 -4 -9 -10 -9 -5 0 -10 7 -10 16 0 8 5
12 10 9 6 -3 10 -10 10 -16z"/>
<path d="M2480 2375 c0 -8 9 -15 20 -15 18 0 20 -7 20 -56 0 -51 2 -56 20 -51
11 3 18 1 14 -4 -3 -5 -1 -9 4 -9 6 0 12 25 14 55 3 56 -8 77 -15 28 -4 -26
-4 -26 -3 2 1 25 5 30 24 29 16 0 21 4 17 13 -3 8 -5 17 -5 19 0 2 -25 4 -55
4 -42 0 -55 -3 -55 -15z"/>
<path d="M1810 2194 c0 -9 8 -22 17 -29 15 -11 15 -17 -7 -75 -18 -47 -20 -64
-11 -70 7 -4 12 -11 10 -16 -1 -5 5 -10 14 -12 21 -4 49 56 51 107 2 38 16 48
43 32 15 -9 13 -10 -9 -5 -16 3 -28 2 -28 -2 0 -5 12 -10 26 -10 14 -1 27 -4
29 -6 2 -2 -3 -30 -10 -62 -13 -57 -13 -60 7 -78 29 -25 36 -23 46 13 4 19 17
35 30 40 21 8 22 7 16 -33 -7 -40 -6 -41 19 -36 15 3 27 2 27 -3 0 -4 -10 -10
-22 -12 -21 -4 -20 -4 3 -6 25 -1 28 3 46 82 10 45 15 84 11 85 -4 2 -8 10 -8
17 0 15 -27 28 -41 19 -5 -3 -9 -16 -9 -30 0 -20 -5 -24 -30 -24 -26 0 -30 3
-29 28 0 24 1 25 9 7 5 -11 9 -14 9 -7 3 42 -40 66 -68 40 -11 -11 -13 -10 -8
3 4 13 -7 22 -50 38 -66 25 -83 26 -83 5z m297 -136 c-3 -8 -6 -5 -6 6 -1 11
2 17 5 13 3 -3 4 -12 1 -19z m-246 -15 c-12 -20 -14 -14 -5 12 4 9 9 14 11 11
3 -2 0 -13 -6 -23z m149 -10 c-8 -3 -18 -11 -22 -17 -5 -7 -8 -4 -8 7 0 11 7
17 23 16 15 0 17 -2 7 -6z m87 -15 c-3 -8 -6 -5 -6 6 -1 11 2 17 5 13 3 -3 4
-12 1 -19z m-125 -50 c-8 -8 -9 -4 -5 13 4 13 8 18 11 10 2 -7 -1 -18 -6 -23z
m115 10 c-3 -8 -6 -5 -6 6 -1 11 2 17 5 13 3 -3 4 -12 1 -19z"/>
<path d="M2798 2198 c-14 -12 -13 -18 8 -65 24 -55 45 -66 63 -35 10 16 10 16
11 -2 0 -11 3 -17 6 -13 3 3 -2 29 -11 58 -11 31 -20 47 -25 39 -5 -8 -9 -5
-13 9 -6 24 -17 26 -39 9z m72 -73 c0 -5 -5 -3 -10 5 -5 8 -10 20 -10 25 0 6
5 3 10 -5 5 -8 10 -19 10 -25z"/>
<path d="M2714 2165 c-3 -8 2 -37 12 -65 18 -51 37 -62 63 -37 11 10 13 10 7
0 -4 -7 -2 -13 4 -13 7 0 9 8 5 19 -3 10 -12 38 -19 62 -8 25 -15 36 -16 24
-1 -19 -2 -18 -10 3 -11 25 -38 29 -46 7z"/>
<path d="M2549 2111 c-33 -33 -37 -67 -14 -111 18 -35 36 -45 92 -54 35 -5 46
-2 67 16 15 14 28 38 31 58 5 33 5 34 -4 6 -10 -29 -48 -76 -62 -76 -4 0 6 13
22 29 30 31 40 86 17 93 -26 9 -78 -15 -78 -35 0 -14 5 -18 20 -14 11 3 20 1
20 -4 0 -15 -35 -27 -57 -18 -21 8 -23 24 -6 69 4 8 5 19 4 23 -1 5 19 5 44 2
35 -6 45 -4 45 6 0 11 3 11 11 -1 9 -13 10 -13 6 0 -2 8 -9 15 -15 15 -6 0
-17 6 -23 13 -7 6 -30 12 -52 12 -29 0 -46 -7 -68 -29z m28 -73 c-3 -7 -5 -2
-5 12 0 14 2 19 5 13 2 -7 2 -19 0 -25z"/>
<path d="M2196 2098 c-30 -49 -86 -149 -86 -155 0 -3 14 -3 30 -1 33 5 29 -7
-5 -15 -16 -4 -15 -5 5 -6 14 0 34 6 44 14 28 21 49 18 74 -10 27 -31 52 -33
52 -4 0 22 -50 169 -57 169 -2 0 -2 -10 1 -22 3 -13 -2 -6 -11 15 -18 43 -27
46 -47 15z m23 -90 c0 -13 -3 -17 -6 -10 -2 6 -9 10 -14 7 -5 -4 -6 1 -3 9 9
24 24 19 23 -6z m81 -77 c0 -32 -6 -24 -14 19 -4 25 -3 31 4 20 5 -8 10 -26
10 -39z"/>
<path d="M2438 2075 l-3 -47 -47 41 c-25 23 -49 41 -52 41 -3 0 -6 -41 -6 -90
0 -88 1 -91 26 -100 40 -16 44 -13 43 33 l-2 42 -7 -40 -7 -40 -2 49 -1 49 23
-19 c12 -10 34 -29 49 -42 14 -13 31 -21 36 -18 6 3 13 -2 15 -11 3 -10 4 25
4 77 -1 84 -1 88 -6 30 l-5 -65 -6 75 c-4 68 -7 75 -27 78 -19 3 -22 -2 -25
-43z"/>
<path d="M2843 2054 c-3 -9 0 -20 8 -25 20 -13 52 -7 56 11 4 13 3 13 -6 0 -9
-12 -11 -11 -11 8 0 26 -37 31 -47 6z"/>
<path d="M2755 2030 c-10 -17 15 -40 39 -36 12 2 22 11 23 22 3 18 2 17 -6 -1
-9 -19 -10 -19 -10 3 -1 23 -34 32 -46 12z"/>
<path d="M1565 1598 c-33 -19 -44 -41 -45 -84 0 -30 6 -46 23 -61 54 -50 103
-52 151 -8 36 33 36 92 0 134 -21 26 -33 31 -67 31 -23 0 -51 -6 -62 -12z m99
-33 c41 -41 31 -100 -21 -121 -34 -15 -36 -14 -63 11 -36 34 -41 54 -24 94 11
27 18 31 53 31 22 0 46 -7 55 -15z"/>
<path d="M1415 1325 c-14 -13 -25 -36 -25 -50 0 -33 41 -75 73 -75 38 0 77 36
77 71 0 37 -40 79 -75 79 -14 0 -37 -11 -50 -25z m65 -5 c34 -18 44 -48 25
-76 -39 -61 -119 2 -85 67 12 21 32 24 60 9z"/>
</g>
</svg>
