<?xml version="1.0" standalone="no"?>
<!DOCTYPE svg PUBLIC "-//W3C//DTD SVG 20010904//EN"
 "http://www.w3.org/TR/2001/REC-SVG-20010904/DTD/svg10.dtd">
<svg version="1.0" xmlns="http://www.w3.org/2000/svg"
 width="1200.000000pt" height="1920.000000pt" viewBox="0 0 1200.000000 1920.000000"
 preserveAspectRatio="xMidYMid meet">

<g transform="translate(0.000000,1920.000000) scale(0.100000,-0.100000)"
fill="#000000" stroke="none">
<path d="M4116 17865 c-80 -28 -135 -109 -144 -212 -13 -169 80 -283 230 -283
135 0 222 83 235 223 8 91 -17 169 -70 223 -62 62 -161 81 -251 49z m153 -90
c42 -21 66 -78 65 -156 0 -80 -23 -126 -77 -153 -117 -57 -219 75 -176 228 16
59 61 96 116 96 24 0 57 -7 72 -15z"/>
<path d="M5955 17861 c-49 -22 -98 -76 -116 -128 -8 -21 -14 -72 -14 -113 1
-97 36 -177 97 -218 58 -38 158 -43 224 -12 50 25 104 95 104 137 0 21 -5 23
-45 23 -39 0 -46 -4 -60 -29 -21 -42 -53 -61 -100 -61 -77 0 -115 54 -115 165
0 106 43 165 120 165 43 0 78 -19 92 -52 12 -26 17 -28 65 -28 l52 0 -9 29
c-12 44 -27 67 -60 95 -57 48 -163 60 -235 27z"/>
<path d="M4520 17625 l0 -245 133 0 c157 0 195 9 236 56 27 30 31 42 31 90 0
50 -4 60 -32 88 l-33 32 23 20 c30 25 38 80 18 127 -25 62 -72 77 -238 77
l-138 0 0 -245z m278 143 c19 -19 15 -66 -7 -78 -11 -5 -54 -10 -95 -10 l-76
0 0 50 0 50 83 0 c51 0 88 -5 95 -12z m6 -194 c17 -16 21 -61 8 -81 -13 -21
-61 -33 -128 -33 l-64 0 0 65 0 65 84 0 c64 0 88 -4 100 -16z"/>
<path d="M5190 17682 c0 -209 -6 -232 -59 -232 -36 0 -51 19 -58 70 l-6 40
-48 0 c-47 0 -48 -1 -44 -27 2 -16 7 -44 10 -64 3 -21 17 -47 36 -65 28 -27
36 -29 109 -29 64 0 84 4 107 21 45 33 52 71 52 282 l1 192 -50 0 -50 0 0
-188z"/>
<path d="M5390 17625 l0 -245 185 0 185 0 0 45 0 45 -135 0 -135 0 0 60 0 60
120 0 120 0 0 45 0 45 -120 0 -120 0 0 50 0 50 130 0 130 0 0 45 0 45 -180 0
-180 0 0 -245z"/>
<path d="M6290 17825 l0 -45 75 0 75 0 0 -200 0 -200 50 0 50 0 0 200 0 200
75 0 75 0 0 45 0 45 -200 0 -200 0 0 -45z"/>
<path d="M6740 17625 l0 -245 50 0 50 0 0 245 0 245 -50 0 -50 0 0 -245z"/>
<path d="M6902 17862 c2 -4 39 -115 83 -245 l80 -238 49 3 49 3 83 243 84 242
-54 0 -53 0 -53 -185 c-29 -102 -54 -184 -55 -183 -2 2 -19 62 -39 133 -21 72
-44 154 -52 183 l-15 52 -56 0 c-30 0 -53 -4 -51 -8z"/>
<path d="M7390 17625 l0 -245 185 0 185 0 0 45 0 45 -135 0 -135 0 0 60 0 60
120 0 120 0 0 45 0 45 -120 0 -120 0 0 50 0 50 130 0 130 0 0 45 0 45 -180 0
-180 0 0 -245z"/>
<path d="M4062 16084 c-16 -11 -22 -25 -22 -55 0 -32 -3 -39 -20 -39 -13 0
-20 -7 -20 -20 0 -13 7 -20 20 -20 19 0 20 -7 20 -115 0 -108 1 -115 20 -115
19 0 20 7 20 115 l0 115 25 0 c18 0 25 5 25 20 0 15 -7 20 -26 20 -22 0 -25 4
-22 28 2 16 12 31 26 37 30 13 29 45 -1 45 -12 0 -33 -7 -45 -16z"/>
<path d="M2380 15905 l0 -185 100 0 c141 0 190 29 190 113 0 30 -7 45 -30 67
-29 27 -29 28 -10 45 13 12 20 31 20 54 -1 72 -36 91 -169 91 l-101 0 0 -185z
m204 129 c19 -18 21 -65 4 -82 -7 -7 -42 -12 -85 -12 l-73 0 0 55 0 55 69 0
c50 0 74 -4 85 -16z m18 -161 c24 -22 23 -65 -3 -89 -17 -15 -36 -19 -93 -19
l-71 0 -3 63 -3 62 77 0 c58 0 82 -4 96 -17z"/>
<path d="M3300 15905 l0 -185 25 0 c25 0 25 0 25 95 0 88 2 98 25 120 28 28
66 32 89 9 13 -12 16 -38 16 -120 l0 -104 25 0 c25 0 25 0 24 93 0 50 -5 108
-12 127 -20 58 -91 78 -141 39 l-26 -20 0 65 c0 64 -1 66 -25 66 l-25 0 0
-185z"/>
<path d="M4170 16065 c0 -20 5 -25 25 -25 20 0 25 5 25 25 0 20 -5 25 -25 25
-20 0 -25 -5 -25 -25z"/>
<path d="M7083 16080 c-18 -4 -40 -13 -49 -20 -21 -18 -44 -65 -44 -90 0 -33
42 -22 51 13 12 43 28 57 69 57 45 0 70 -24 70 -68 0 -33 -12 -45 -104 -105
-58 -37 -83 -69 -92 -114 l-6 -33 126 0 c119 0 126 1 126 20 0 19 -7 20 -95
20 -129 0 -127 21 8 101 62 36 87 70 87 116 0 41 -34 91 -67 99 -15 3 -32 7
-38 8 -5 1 -25 -1 -42 -4z"/>
<path d="M7396 16061 c-16 -30 -34 -41 -67 -41 -12 0 -19 -7 -19 -20 0 -17 7
-20 40 -20 l40 0 0 -130 0 -130 25 0 25 0 0 185 c0 156 -2 185 -15 185 -8 0
-21 -13 -29 -29z"/>
<path d="M8300 16065 c0 -20 5 -25 25 -25 20 0 25 5 25 25 0 20 -5 25 -25 25
-20 0 -25 -5 -25 -25z"/>
<path d="M9250 15905 c0 -178 1 -185 20 -185 12 0 20 7 20 17 0 15 1 15 18 0
51 -47 131 -24 163 46 58 128 -35 259 -143 203 l-28 -15 0 60 c0 56 -1 59 -25
59 l-25 0 0 -185z m165 30 c19 -18 25 -35 25 -70 0 -89 -50 -137 -106 -101
-33 22 -47 61 -38 111 12 78 71 108 119 60z"/>
<path d="M3170 16030 c0 -33 -3 -40 -20 -40 -12 0 -20 -7 -20 -16 0 -9 9 -18
20 -21 18 -5 20 -14 20 -107 0 -113 6 -126 57 -126 36 0 47 25 16 37 -29 11
-33 24 -33 111 0 81 0 82 25 82 33 0 35 37 3 42 -19 2 -24 10 -26 41 -3 29 -7
37 -23 37 -16 0 -19 -7 -19 -40z"/>
<path d="M4730 16030 c0 -33 -3 -40 -20 -40 -12 0 -20 -7 -20 -16 0 -9 9 -18
20 -21 18 -5 20 -14 20 -107 0 -113 6 -126 57 -126 36 0 47 25 16 37 -29 11
-33 24 -33 111 0 81 0 82 25 82 33 0 35 37 3 42 -19 2 -24 10 -26 41 -3 29 -7
37 -23 37 -16 0 -19 -7 -19 -40z"/>
<path d="M5020 16030 c0 -33 -3 -40 -20 -40 -13 0 -20 -7 -20 -20 0 -13 7 -20
20 -20 19 0 20 -7 20 -103 0 -114 6 -127 57 -127 40 0 45 26 8 40 -24 9 -25
13 -25 99 0 85 1 90 22 93 34 5 37 38 4 38 -24 0 -26 4 -26 40 0 33 -3 40 -20
40 -17 0 -20 -7 -20 -40z"/>
<path d="M8720 16030 c0 -33 -3 -40 -20 -40 -13 0 -20 -7 -20 -20 0 -13 7 -20
20 -20 19 0 20 -7 20 -103 0 -114 6 -127 57 -127 40 0 45 26 8 40 -24 9 -25
13 -25 99 0 85 1 90 22 93 34 5 37 38 4 38 -24 0 -26 4 -26 40 0 33 -3 40 -20
40 -17 0 -20 -7 -20 -40z"/>
<path d="M2783 15985 c-43 -18 -67 -67 -67 -137 -1 -43 5 -64 20 -85 27 -36
83 -57 127 -49 40 7 87 50 87 77 0 24 -25 24 -42 1 -36 -51 -107 -51 -133 -2
-8 16 -15 34 -15 40 0 6 37 10 100 10 l100 0 0 25 c0 39 -25 89 -55 113 -32
25 -75 28 -122 7z m101 -46 c14 -11 26 -29 26 -40 0 -17 -8 -19 -75 -19 -47 0
-75 4 -75 11 0 18 57 69 78 69 11 0 31 -9 46 -21z"/>
<path d="M3651 15987 c-48 -24 -66 -63 -66 -137 0 -62 3 -72 29 -99 51 -53
142 -50 186 6 43 55 8 74 -40 23 -17 -19 -38 -30 -54 -30 -32 0 -76 41 -76 70
0 19 6 20 95 20 l95 0 0 38 c0 92 -90 150 -169 109z m97 -44 c11 -10 23 -28
27 -40 6 -22 4 -23 -69 -23 -85 0 -96 11 -51 55 28 29 65 32 93 8z"/>
<path d="M4367 15980 c-22 -18 -27 -19 -27 -6 0 10 -9 16 -25 16 l-25 0 0
-135 0 -135 25 0 c25 0 25 0 25 93 0 103 8 123 55 135 20 6 30 15 30 28 0 27
-27 28 -58 4z"/>
<path d="M4500 15988 c-37 -20 -56 -61 -45 -95 8 -23 21 -31 70 -46 75 -23 89
-31 92 -48 5 -24 -12 -39 -50 -46 -32 -5 -40 -2 -66 26 -28 30 -61 41 -61 21
0 -32 33 -70 69 -81 78 -23 154 17 154 81 0 42 -18 58 -94 78 -54 14 -65 21
-67 41 -7 47 64 57 103 15 28 -30 56 -27 48 5 -3 11 -13 27 -24 37 -24 22 -97
28 -129 12z"/>
<path d="M5215 15990 c-11 -4 -31 -20 -45 -34 -34 -38 -40 -136 -10 -184 20
-32 71 -62 106 -62 38 0 87 34 105 74 24 52 23 90 0 143 -28 61 -95 89 -156
63z m80 -36 c24 -10 45 -58 45 -104 0 -33 -6 -48 -29 -71 -16 -16 -38 -29 -48
-29 -50 0 -91 70 -78 133 13 60 59 90 110 71z"/>
<path d="M5640 15993 c-33 -12 -60 -47 -60 -79 0 -40 12 -49 96 -77 77 -25 91
-45 50 -72 -36 -24 -94 -13 -106 21 -11 29 -50 34 -50 6 0 -73 135 -108 196
-51 17 16 24 33 24 61 0 45 -19 60 -97 78 -57 13 -77 29 -67 54 14 35 102 32
111 -4 6 -23 43 -27 43 -6 0 55 -76 92 -140 69z"/>
<path d="M5892 15980 c-69 -42 -84 -171 -27 -230 53 -55 138 -48 176 14 24 40
24 56 -1 56 -13 0 -24 -10 -30 -24 -18 -49 -68 -59 -105 -21 -21 20 -25 34
-25 80 0 46 4 60 25 80 33 34 69 32 97 -5 20 -28 58 -41 58 -20 0 24 -26 63
-51 76 -39 20 -78 17 -117 -6z"/>
<path d="M6152 15980 c-85 -52 -79 -211 11 -253 43 -21 58 -21 102 -3 47 20
75 68 75 132 0 113 -99 178 -188 124z m105 -35 c32 -23 46 -83 31 -131 -34
-103 -148 -70 -148 42 0 84 60 129 117 89z"/>
<path d="M6467 15973 c-26 -27 -27 -27 -27 -5 0 15 -6 22 -20 22 -19 0 -20 -7
-20 -135 l0 -135 25 0 c25 0 25 0 25 99 0 92 2 101 22 115 12 9 30 16 40 16
13 0 18 8 18 25 0 34 -28 33 -63 -2z"/>
<path d="M6623 15985 c-43 -18 -67 -67 -67 -137 -1 -43 5 -64 20 -85 27 -36
83 -57 127 -49 40 7 87 50 87 77 0 24 -25 24 -42 1 -36 -51 -107 -51 -133 -2
-8 16 -15 34 -15 40 0 6 37 10 100 10 l100 0 0 25 c0 39 -25 89 -55 113 -32
25 -75 28 -122 7z m101 -46 c14 -11 26 -29 26 -40 0 -17 -8 -19 -75 -19 -47 0
-75 4 -75 11 0 18 57 69 78 69 11 0 31 -9 46 -21z"/>
<path d="M7810 15993 c-8 -3 -23 -12 -32 -21 -16 -14 -18 -13 -18 1 0 10 -8
17 -20 17 -19 0 -20 -7 -20 -191 l0 -190 23 3 c20 3 22 9 25 65 l3 61 27 -14
c35 -18 56 -18 93 2 35 18 68 82 69 132 0 93 -76 162 -150 135z m75 -58 c19
-18 25 -35 25 -70 0 -89 -50 -137 -106 -101 -33 22 -47 61 -38 111 12 78 71
108 119 60z"/>
<path d="M8075 15990 c-11 -4 -31 -20 -45 -34 -34 -38 -40 -136 -10 -184 20
-32 71 -62 106 -62 38 0 87 34 105 74 24 52 23 90 0 143 -28 61 -95 89 -156
63z m80 -36 c24 -10 45 -58 45 -104 0 -33 -6 -48 -29 -71 -16 -16 -38 -29 -48
-29 -50 0 -91 70 -78 133 13 60 59 90 110 71z"/>
<path d="M8486 15979 c-21 -17 -26 -18 -26 -5 0 9 -8 16 -20 16 -19 0 -20 -7
-20 -135 0 -128 1 -135 20 -135 18 0 20 7 20 85 0 114 21 155 79 155 40 0 51
-31 51 -138 l0 -102 26 0 26 0 -4 116 c-3 113 -4 116 -31 140 -35 30 -85 31
-121 3z"/>
<path d="M8890 15988 c-37 -20 -56 -61 -45 -95 8 -23 21 -31 70 -46 75 -23 89
-31 92 -48 5 -24 -12 -39 -50 -46 -32 -5 -40 -2 -66 26 -28 30 -61 41 -61 21
0 -32 33 -70 69 -81 78 -23 154 17 154 81 0 42 -18 58 -94 78 -54 14 -65 21
-67 41 -7 47 64 57 103 15 28 -30 56 -27 48 5 -3 11 -13 27 -24 37 -24 22 -97
28 -129 12z"/>
<path d="M4170 15855 l0 -135 25 0 25 0 0 135 0 135 -25 0 -25 0 0 -135z"/>
<path d="M8300 15855 l0 -135 25 0 25 0 0 135 0 135 -25 0 -25 0 0 -135z"/>
<path d="M9526 15968 c4 -13 26 -75 49 -140 38 -106 41 -119 29 -147 -10 -23
-20 -31 -39 -31 -18 0 -25 -5 -25 -20 0 -16 7 -20 35 -20 45 0 52 12 119 191
74 199 72 189 43 189 -22 0 -27 -9 -58 -105 -18 -58 -36 -102 -40 -98 -3 5
-21 52 -39 106 -29 88 -34 97 -56 97 -22 0 -24 -3 -18 -22z"/>
<path d="M2043 15864 c-15 -24 -15 -29 -2 -53 29 -51 109 -33 109 24 0 56 -76
76 -107 29z"/>
<path d="M3770 15345 c0 -18 5 -25 20 -25 15 0 20 7 20 25 0 18 -5 25 -20 25
-15 0 -20 -7 -20 -25z"/>
<path d="M5360 15304 l0 -65 -26 20 c-47 37 -111 23 -145 -31 -16 -27 -19 -46
-17 -100 3 -58 8 -71 33 -98 44 -46 118 -49 147 -6 5 7 8 4 8 -6 0 -12 8 -18
25 -18 l25 0 0 185 0 185 -25 0 c-24 0 -25 -2 -25 -66z m-45 -70 c25 -10 45
-58 45 -109 0 -35 -6 -52 -25 -70 -29 -30 -54 -32 -88 -5 -31 25 -43 85 -27
135 16 48 50 66 95 49z"/>
<path d="M6162 15348 c2 -15 11 -24 26 -26 18 -3 22 1 22 22 0 21 -5 26 -26
26 -21 0 -25 -4 -22 -22z"/>
<path d="M7260 15185 l0 -185 25 0 25 0 0 185 0 185 -25 0 -25 0 0 -185z"/>
<path d="M9400 15304 l0 -65 -26 20 c-32 25 -64 27 -105 5 -74 -38 -79 -187
-9 -249 30 -27 100 -27 129 -1 19 17 21 17 21 3 0 -10 8 -17 20 -17 19 0 20 7
20 185 l0 185 -25 0 c-24 0 -25 -2 -25 -66z m-25 -89 c21 -20 25 -34 25 -80 0
-46 -4 -60 -25 -80 -13 -14 -33 -25 -45 -25 -11 0 -32 11 -45 25 -21 20 -25
34 -25 84 0 52 3 62 26 80 35 27 59 26 89 -4z"/>
<path d="M2433 15270 c-43 -17 -64 -68 -61 -142 3 -58 8 -71 33 -98 36 -38 82
-47 125 -25 l33 17 -7 -33 c-8 -42 -23 -57 -63 -65 -26 -5 -37 -1 -58 20 -31
31 -55 34 -55 7 0 -35 47 -61 107 -61 47 0 59 4 84 29 l29 29 0 161 c0 154 -1
161 -20 161 -12 0 -20 -7 -20 -16 0 -13 -5 -12 -26 5 -28 22 -64 26 -101 11z
m82 -36 c25 -10 45 -58 45 -109 0 -35 -6 -52 -25 -70 -29 -30 -54 -32 -88 -5
-31 25 -43 85 -27 135 16 48 50 66 95 49z"/>
<path d="M3013 15265 c-43 -18 -67 -67 -67 -137 -1 -43 5 -64 20 -85 27 -36
83 -57 127 -49 40 7 87 50 87 77 0 24 -25 24 -42 1 -36 -51 -107 -51 -133 -2
-8 16 -15 34 -15 40 0 6 37 10 100 10 l100 0 0 25 c0 39 -25 89 -55 113 -32
25 -75 28 -122 7z m101 -46 c14 -11 26 -29 26 -40 0 -17 -8 -19 -75 -19 -47 0
-75 4 -75 11 0 18 57 69 78 69 11 0 31 -9 46 -21z"/>
<path d="M3300 15273 c-33 -12 -60 -47 -60 -79 0 -40 12 -49 96 -77 77 -25 91
-45 50 -72 -36 -24 -94 -13 -106 21 -11 29 -50 34 -50 6 0 -73 135 -108 196
-51 17 16 24 33 24 61 0 45 -19 60 -97 78 -57 13 -77 29 -67 54 14 35 102 32
111 -4 6 -23 43 -27 43 -6 0 55 -76 92 -140 69z"/>
<path d="M3560 15273 c-33 -12 -60 -47 -60 -79 0 -40 12 -49 96 -77 77 -25 91
-45 50 -72 -36 -24 -94 -13 -106 21 -11 29 -50 34 -50 6 0 -73 135 -108 196
-51 17 16 24 33 24 61 0 45 -19 60 -97 78 -57 13 -77 29 -67 54 14 35 102 32
111 -4 6 -23 43 -27 43 -6 0 55 -76 92 -140 69z"/>
<path d="M3953 15260 c-27 -16 -33 -17 -33 -5 0 8 -9 15 -20 15 -19 0 -20 -7
-20 -135 l0 -135 25 0 c25 0 25 0 25 95 0 88 2 98 25 120 27 28 52 31 81 11
16 -12 19 -29 22 -120 4 -96 6 -106 23 -106 18 0 19 8 19 109 0 60 -3 117 -6
126 -8 20 -56 45 -86 45 -13 0 -38 -9 -55 -20z"/>
<path d="M4223 15270 c-43 -17 -64 -68 -61 -142 3 -58 8 -71 33 -98 36 -38 82
-47 125 -25 l33 17 -7 -33 c-8 -42 -23 -57 -63 -65 -26 -5 -37 -1 -58 20 -31
31 -55 34 -55 7 0 -35 47 -61 107 -61 47 0 59 4 84 29 l29 29 0 161 c0 154 -1
161 -20 161 -12 0 -20 -7 -20 -16 0 -13 -5 -12 -26 5 -28 22 -64 26 -101 11z
m82 -36 c25 -10 45 -58 45 -109 0 -35 -6 -52 -25 -70 -29 -30 -54 -32 -88 -5
-31 25 -43 85 -27 135 16 48 50 66 95 49z"/>
<path d="M4655 15271 c-25 -11 -40 -29 -49 -58 -6 -19 -4 -23 16 -23 15 0 27
8 33 23 7 16 20 23 48 25 43 4 67 -11 67 -39 0 -23 -27 -35 -92 -44 -92 -12
-123 -111 -47 -150 37 -20 57 -19 102 4 31 16 38 16 48 5 16 -19 69 -18 69 1
0 8 -6 15 -14 15 -11 0 -15 22 -18 100 -3 86 -6 102 -25 121 -24 24 -103 35
-138 20z m99 -212 c-22 -24 -79 -35 -99 -19 -18 15 -20 56 -4 66 6 4 35 12 63
18 l51 12 3 -29 c2 -17 -4 -37 -14 -48z"/>
<path d="M4963 15260 c-27 -16 -33 -17 -33 -5 0 8 -9 15 -20 15 -19 0 -20 -7
-20 -135 l0 -135 25 0 c25 0 25 0 25 95 0 88 2 98 25 120 27 28 52 31 81 11
16 -12 19 -29 22 -120 4 -96 6 -106 23 -106 18 0 19 8 19 109 0 60 -3 117 -6
126 -8 20 -56 45 -86 45 -13 0 -38 -9 -55 -20z"/>
<path d="M5945 15268 c-32 -17 -45 -39 -45 -75 0 -39 20 -54 101 -77 31 -9 59
-23 63 -31 8 -23 -29 -55 -64 -55 -29 0 -70 29 -70 50 0 6 -9 10 -20 10 -26 0
-26 -29 0 -63 38 -48 150 -44 185 6 39 55 5 105 -85 127 -53 13 -76 31 -67 55
14 34 101 31 112 -5 3 -11 15 -20 26 -20 30 0 23 35 -12 64 -33 28 -88 34
-124 14z"/>
<path d="M6353 15260 c-27 -16 -33 -17 -33 -5 0 8 -9 15 -20 15 -19 0 -20 -7
-20 -135 0 -125 1 -135 19 -135 17 0 19 10 23 96 4 91 6 98 32 120 32 28 58
30 80 8 13 -12 16 -38 16 -120 l0 -104 25 0 25 0 0 111 c0 109 0 111 -29 140
-35 35 -72 37 -118 9z"/>
<path d="M6623 15270 c-43 -17 -64 -68 -61 -142 3 -58 8 -71 33 -98 36 -38 82
-47 125 -25 l33 17 -7 -33 c-8 -42 -23 -57 -63 -65 -26 -5 -37 -1 -58 20 -31
31 -55 34 -55 7 0 -35 47 -61 107 -61 47 0 59 4 84 29 l29 29 0 161 c0 154 -1
161 -20 161 -12 0 -20 -7 -20 -16 0 -13 -5 -12 -26 5 -28 22 -64 26 -101 11z
m82 -36 c25 -10 45 -58 45 -109 0 -35 -6 -52 -25 -70 -29 -30 -54 -32 -88 -5
-31 25 -43 85 -27 135 16 48 50 66 95 49z"/>
<path d="M7037 15265 c-51 -29 -59 -100 -14 -124 12 -7 44 -18 71 -24 52 -14
73 -34 63 -60 -15 -39 -103 -31 -122 11 -13 30 -45 29 -45 -1 0 -53 85 -90
155 -67 34 11 65 51 65 83 0 31 -37 59 -100 76 -44 12 -66 24 -68 35 -10 48
75 65 104 21 18 -27 54 -34 54 -11 0 8 -10 27 -23 41 -29 34 -98 43 -140 20z"/>
<path d="M7425 15268 c-45 -24 -62 -78 -25 -78 11 0 20 7 20 15 0 31 83 48
108 23 7 -7 12 -22 12 -35 0 -24 -7 -27 -84 -37 -76 -10 -111 -56 -86 -115 11
-29 46 -51 78 -51 10 0 35 9 57 20 34 17 40 18 48 5 11 -20 67 -20 67 0 0 8
-7 15 -15 15 -12 0 -15 17 -15 90 0 49 -5 100 -11 114 -19 40 -107 60 -154 34z
m115 -167 c0 -52 -83 -94 -118 -59 -15 15 -16 55 0 64 15 9 66 22 96 23 18 1
22 -4 22 -28z"/>
<path d="M7736 15259 c-21 -17 -26 -18 -26 -5 0 9 -8 16 -20 16 -19 0 -20 -7
-20 -135 0 -128 1 -135 20 -135 18 0 20 7 20 85 0 114 21 155 79 155 40 0 51
-31 51 -138 l0 -102 26 0 26 0 -4 116 c-3 113 -4 116 -31 140 -35 30 -85 31
-121 3z"/>
<path d="M7995 15258 c-33 -25 -55 -75 -55 -120 1 -50 34 -114 69 -132 37 -20
58 -20 94 -2 26 14 27 14 27 -13 0 -38 -32 -65 -77 -65 -26 0 -40 6 -51 22
-17 25 -52 30 -52 7 0 -9 11 -27 25 -40 19 -20 34 -25 74 -25 114 0 131 31
131 234 0 139 -1 146 -20 146 -11 0 -20 -7 -20 -15 0 -12 -6 -11 -32 5 -43 26
-79 25 -113 -2z m104 -35 c26 -22 43 -88 33 -128 -12 -43 -55 -71 -89 -59 -36
12 -53 47 -53 107 0 78 58 121 109 80z"/>
<path d="M8813 15260 c-47 -28 -66 -72 -61 -137 6 -66 31 -103 85 -122 80 -28
152 24 160 116 12 121 -90 201 -184 143z m112 -45 c19 -18 25 -35 25 -70 0
-101 -67 -149 -125 -90 -21 20 -25 34 -25 80 0 46 4 60 25 80 13 14 36 25 50
25 14 0 37 -11 50 -25z"/>
<path d="M9125 15255 c-23 -22 -25 -23 -25 -5 0 13 -7 20 -20 20 -19 0 -20 -7
-20 -135 0 -128 1 -135 20 -135 18 0 20 7 20 83 0 97 13 128 58 142 24 7 32
15 32 32 0 31 -33 30 -65 -2z"/>
<path d="M9555 15268 c-32 -17 -45 -39 -45 -75 0 -39 20 -54 101 -77 31 -9 59
-23 63 -31 8 -23 -29 -55 -64 -55 -29 0 -70 29 -70 50 0 6 -9 10 -20 10 -26 0
-26 -29 0 -63 38 -48 150 -44 185 6 39 55 5 105 -85 127 -53 13 -76 31 -67 55
14 34 101 31 112 -5 3 -11 15 -20 26 -20 30 0 23 35 -12 64 -33 28 -88 34
-124 14z"/>
<path d="M2670 15165 c0 -57 5 -115 11 -128 21 -47 89 -61 132 -27 30 24 37
25 37 5 0 -8 9 -15 20 -15 19 0 20 7 20 135 l0 135 -25 0 c-25 0 -25 0 -25
-95 0 -88 -2 -98 -25 -120 -26 -27 -46 -31 -76 -15 -17 10 -19 22 -19 120 l0
110 -25 0 -25 0 0 -105z"/>
<path d="M3770 15135 c0 -128 1 -135 20 -135 19 0 20 7 20 135 0 128 -1 135
-20 135 -19 0 -20 -7 -20 -135z"/>
<path d="M5620 15152 c0 -108 2 -121 21 -138 14 -12 36 -19 64 -19 28 0 50 7
64 19 19 17 21 17 21 3 0 -10 8 -17 20 -17 19 0 20 7 20 135 0 128 -1 135 -20
135 -18 0 -20 -7 -20 -85 0 -114 -21 -155 -79 -155 -40 0 -51 31 -51 138 0 95
-1 102 -20 102 -19 0 -20 -7 -20 -118z"/>
<path d="M6160 15135 l0 -135 25 0 25 0 0 135 0 135 -25 0 -25 0 0 -135z"/>
<path d="M8360 15268 c0 -2 18 -61 39 -133 35 -118 41 -130 63 -133 23 -3 25
2 48 98 13 55 27 97 30 93 4 -5 18 -50 31 -101 22 -88 25 -93 49 -90 22 3 27
14 62 133 21 72 38 131 38 133 0 1 -10 2 -23 2 -20 0 -25 -10 -47 -96 -13 -52
-26 -97 -30 -99 -3 -2 -16 41 -29 96 -21 96 -23 99 -50 99 -27 0 -28 -3 -51
-100 -13 -55 -25 -98 -27 -96 -3 2 -11 30 -19 63 -36 140 -33 133 -59 133 -14
0 -25 -1 -25 -2z"/>
<path d="M3970 14465 c0 -178 1 -185 20 -185 19 0 20 7 20 185 0 178 -1 185
-20 185 -19 0 -20 -7 -20 -185z"/>
<path d="M3837 14623 c-4 -3 -7 -21 -7 -40 0 -23 -5 -33 -15 -33 -8 0 -15 -9
-15 -20 0 -11 7 -20 15 -20 12 0 15 -17 15 -89 0 -118 9 -141 55 -141 28 0 35
4 35 20 0 13 -7 20 -20 20 -19 0 -20 7 -20 95 0 88 1 95 20 95 13 0 20 7 20
20 0 13 -7 20 -20 20 -17 0 -20 7 -20 40 0 32 -4 40 -18 40 -10 0 -22 -3 -25
-7z"/>
<path d="M2424 14541 c-61 -38 -82 -153 -39 -217 22 -34 79 -57 121 -49 36 6
84 55 84 86 0 28 -35 24 -48 -6 -16 -35 -55 -52 -87 -37 -65 30 -57 181 11
198 32 8 70 -9 79 -35 8 -27 45 -28 45 -2 0 63 -103 102 -166 62z"/>
<path d="M2688 14544 c-76 -41 -86 -174 -18 -239 25 -24 39 -29 80 -29 43 0
55 5 81 30 69 69 54 200 -27 239 -40 19 -81 19 -116 -1z m113 -50 c19 -21 24
-36 24 -81 0 -48 -4 -58 -28 -79 -34 -29 -56 -30 -90 -4 -30 23 -42 67 -32
116 13 72 79 98 126 48z"/>
<path d="M3006 14539 c-21 -17 -26 -18 -26 -5 0 10 -9 16 -25 16 l-25 0 0
-135 0 -135 25 0 c25 0 25 1 25 89 0 74 3 92 21 115 12 15 30 26 45 26 19 0
24 5 24 25 0 32 -27 33 -64 4z"/>
<path d="M3175 14535 c-23 -22 -25 -23 -25 -5 0 13 -7 20 -20 20 -19 0 -20 -7
-20 -135 0 -128 1 -135 20 -135 18 0 20 7 20 83 0 97 13 128 58 142 24 7 32
15 32 32 0 31 -33 30 -65 -2z"/>
<path d="M3324 14541 c-61 -38 -82 -153 -39 -217 40 -61 143 -68 190 -12 48
57 20 81 -33 28 -19 -18 -41 -30 -57 -30 -31 0 -75 41 -75 70 0 19 6 20 100
20 64 0 100 4 100 11 0 34 -25 100 -45 119 -34 32 -101 37 -141 11z m111 -46
c45 -44 34 -55 -50 -55 -84 0 -92 9 -50 54 30 33 68 34 100 1z"/>
<path d="M3625 14550 c-11 -4 -31 -20 -45 -34 -34 -38 -41 -146 -11 -193 50
-80 188 -59 203 32 5 33 -29 30 -47 -4 -48 -94 -153 -8 -124 102 18 69 98 88
124 29 6 -14 19 -22 33 -22 19 0 22 4 17 23 -4 12 -20 34 -36 50 -30 28 -73
35 -114 17z"/>
<path d="M4060 14541 c0 -6 20 -65 45 -132 25 -67 45 -128 45 -135 0 -31 -24
-64 -47 -64 -16 0 -23 -6 -23 -20 0 -15 7 -20 28 -20 15 0 32 4 38 8 18 11 49
78 97 212 25 69 49 133 52 143 6 13 2 17 -18 17 -23 0 -28 -8 -57 -97 -18 -54
-36 -101 -39 -106 -4 -4 -22 40 -41 98 -30 93 -37 105 -57 105 -13 0 -23 -4
-23 -9z"/>
<path d="M3809 13122 c-39 -20 -62 -41 -84 -77 -28 -45 -30 -55 -30 -149 0
-89 3 -106 25 -146 38 -68 94 -101 178 -108 84 -6 131 8 183 55 97 88 100 293
5 388 -72 71 -183 86 -277 37z m185 -83 c41 -32 56 -71 56 -144 0 -105 -33
-156 -111 -170 -41 -7 -93 17 -122 56 -46 63 -28 213 30 259 35 28 111 27 147
-1z"/>
<path d="M6080 13128 c-62 -32 -84 -66 -83 -128 1 -86 32 -114 158 -144 101
-24 124 -35 131 -63 11 -42 -25 -68 -95 -68 -64 0 -101 21 -101 57 0 15 -8 18
-50 18 -45 0 -50 -2 -50 -22 0 -51 42 -100 105 -125 48 -18 154 -15 201 6 76
35 110 113 80 185 -19 45 -60 70 -150 92 -109 26 -136 39 -136 67 0 51 71 80
133 53 22 -9 41 -25 47 -41 8 -22 15 -25 55 -25 41 0 45 2 45 24 0 68 -94 136
-190 136 -38 0 -70 -7 -100 -22z"/>
<path d="M7196 13135 c-80 -28 -135 -109 -144 -212 -13 -169 80 -283 230 -283
135 0 222 83 235 223 8 91 -17 169 -70 223 -62 62 -161 81 -251 49z m153 -90
c42 -21 66 -78 65 -156 0 -80 -23 -126 -77 -153 -117 -57 -219 75 -176 228 16
59 61 96 116 96 24 0 57 -7 72 -15z"/>
<path d="M2610 13095 l0 -45 75 0 75 0 0 -200 0 -200 50 0 50 0 0 200 0 200
75 0 75 0 0 45 0 45 -200 0 -200 0 0 -45z"/>
<path d="M3030 13133 c0 -4 30 -115 67 -245 l66 -238 48 0 47 0 16 73 c9 39
26 124 39 187 l23 115 22 -115 c12 -64 29 -148 38 -188 l16 -72 48 0 c38 0 50
4 54 18 28 91 126 449 126 459 0 9 -16 13 -48 13 l-49 0 -36 -159 c-20 -88
-37 -167 -37 -177 0 -40 -12 1 -39 137 -45 220 -34 199 -97 199 l-53 0 -7 -37
c-4 -21 -19 -101 -34 -178 l-27 -140 -13 60 c-6 33 -24 112 -39 175 l-26 115
-53 3 c-28 2 -52 -1 -52 -5z"/>
<path d="M4390 13133 c0 -4 30 -115 67 -245 l66 -238 48 0 47 0 16 73 c9 39
26 124 39 187 l23 115 22 -115 c12 -64 29 -148 38 -188 l16 -72 48 0 c38 0 50
4 54 18 28 91 126 449 126 459 0 9 -16 13 -48 13 l-49 0 -36 -159 c-20 -88
-37 -167 -37 -177 0 -40 -12 1 -39 137 -45 220 -34 199 -97 199 l-53 0 -7 -37
c-4 -21 -19 -101 -34 -178 l-27 -140 -13 60 c-6 33 -24 112 -39 175 l-26 115
-53 3 c-28 2 -52 -1 -52 -5z"/>
<path d="M5163 13023 c-22 -65 -62 -175 -87 -245 l-45 -128 54 0 53 0 17 50
17 51 91 -3 91 -3 15 -47 15 -48 53 0 c29 0 53 3 53 8 0 4 -38 113 -83 242
l-83 235 -60 3 -59 3 -42 -118z m152 -162 l7 -31 -55 0 c-29 0 -56 3 -59 6 -5
4 19 88 49 174 5 15 44 -85 58 -149z"/>
<path d="M5520 13136 c0 -2 38 -72 85 -156 l85 -153 0 -88 0 -89 50 0 50 0 0
98 c0 54 4 102 9 108 4 5 41 71 80 147 l72 137 -56 0 -56 0 -50 -107 -50 -107
-51 107 -51 107 -59 0 c-32 0 -58 -2 -58 -4z"/>
<path d="M6610 13095 l0 -45 75 0 75 0 0 -200 0 -200 50 0 50 0 0 200 0 200
75 0 75 0 0 45 0 45 -200 0 -200 0 0 -45z"/>
<path d="M7790 12895 l0 -245 50 0 50 0 0 90 0 90 86 0 c100 0 141 18 168 74
24 50 21 126 -7 167 -38 58 -74 69 -219 69 l-128 0 0 -245z m252 138 c24 -22
24 -77 -2 -103 -16 -16 -33 -20 -85 -20 l-65 0 0 70 0 70 67 0 c48 0 72 -5 85
-17z"/>
<path d="M8240 12895 l0 -245 175 0 175 0 0 45 0 45 -125 0 -125 0 0 200 0
200 -50 0 -50 0 0 -245z"/>
<path d="M8712 12912 c-45 -126 -84 -236 -88 -245 -5 -15 1 -17 48 -17 l54 0
15 48 15 47 91 3 91 3 17 -51 17 -50 54 0 c30 0 54 2 54 4 0 4 -147 423 -161
459 -11 25 -16 27 -69 27 l-57 0 -81 -228z m198 -74 c0 -5 -27 -8 -60 -8 -33
0 -60 4 -60 8 0 7 39 128 56 172 4 12 63 -147 64 -172z"/>
<path d="M9110 13136 c0 -2 38 -72 85 -156 l85 -153 0 -88 0 -89 50 0 50 0 0
98 c0 54 4 102 9 108 4 5 41 71 80 147 l72 137 -56 0 -56 0 -50 -107 -50 -107
-51 107 -51 107 -59 0 c-32 0 -58 -2 -58 -4z"/>
<path d="M2434 11451 c-55 -33 -67 -117 -24 -156 10 -9 53 -25 97 -36 91 -23
119 -44 109 -84 -9 -35 -65 -59 -115 -50 -42 8 -81 40 -81 67 0 13 -8 18 -26
18 -24 0 -26 -2 -20 -32 13 -67 79 -104 168 -96 88 9 140 69 119 138 -15 51
-28 59 -128 84 -79 19 -89 24 -98 50 -8 25 -6 31 18 52 48 41 130 27 150 -26
9 -22 17 -30 32 -28 42 6 6 89 -47 107 -49 17 -119 13 -154 -8z"/>
<path d="M3010 11275 l0 -185 25 0 25 0 0 185 0 185 -25 0 -25 0 0 -185z"/>
<path d="M3570 11276 l0 -186 25 0 25 0 1 148 1 147 50 -148 c48 -142 51 -148
76 -145 23 3 30 15 76 153 l51 150 3 -152 3 -153 24 0 25 0 0 185 0 185 -39 0
-39 0 -53 -157 -52 -158 -52 155 -52 155 -36 3 -37 3 0 -185z"/>
<path d="M4470 11395 l0 -65 -32 20 c-18 11 -44 20 -56 20 -60 0 -112 -67
-112 -143 1 -50 34 -113 71 -132 36 -19 82 -14 111 12 17 15 18 15 18 0 0 -10
8 -17 20 -17 19 0 20 7 20 185 0 178 -1 185 -20 185 -18 0 -20 -7 -20 -65z
m-41 -82 c26 -22 43 -88 33 -128 -12 -43 -55 -71 -89 -59 -36 12 -53 47 -53
107 0 78 58 121 109 80z"/>
<path d="M5450 11275 l0 -185 25 0 c25 0 25 1 25 80 l0 80 79 0 c91 0 111 -12
111 -64 0 -19 3 -48 6 -65 6 -26 11 -31 36 -31 25 0 27 2 18 19 -5 11 -10 45
-10 75 0 43 -5 60 -19 73 -20 16 -19 17 5 46 26 30 30 60 14 101 -16 43 -57
56 -180 56 l-110 0 0 -185z m223 133 c27 -21 31 -61 9 -89 -18 -22 -28 -24
-99 -24 l-78 0 -3 63 -3 62 79 0 c47 0 85 -5 95 -12z"/>
<path d="M6570 11394 l0 -65 -26 20 c-32 25 -64 27 -105 5 -74 -38 -79 -187
-9 -249 30 -27 100 -27 129 -1 19 17 21 17 21 3 0 -10 8 -17 20 -17 19 0 20 7
20 185 l0 185 -25 0 c-24 0 -25 -2 -25 -66z m-25 -89 c21 -20 25 -34 25 -80 0
-46 -4 -60 -25 -80 -13 -14 -33 -25 -45 -25 -11 0 -32 11 -45 25 -21 20 -25
34 -25 84 0 52 3 62 26 80 35 27 59 26 89 -4z"/>
<path d="M6970 11275 l0 -185 25 0 c25 0 25 0 25 95 0 88 2 98 25 120 30 31
69 32 89 3 12 -17 16 -48 16 -120 0 -91 1 -98 20 -98 19 0 20 7 20 109 0 60
-3 117 -6 126 -8 20 -56 45 -87 45 -13 0 -36 -9 -51 -21 l-26 -20 0 65 c0 64
-1 66 -25 66 l-25 0 0 -185z"/>
<path d="M8300 11275 l0 -185 25 0 c25 0 25 0 25 95 0 88 2 98 25 120 30 31
69 32 89 3 12 -17 16 -48 16 -120 0 -91 1 -98 20 -98 19 0 20 7 20 109 0 60
-3 117 -6 126 -8 20 -56 45 -87 45 -13 0 -36 -9 -51 -21 l-26 -20 0 65 c0 64
-1 66 -25 66 l-25 0 0 -185z"/>
<path d="M8880 11275 c0 -174 1 -185 19 -185 17 0 19 10 23 96 4 91 6 98 32
120 30 26 47 29 77 14 17 -10 19 -22 19 -120 l0 -110 25 0 25 0 0 111 c0 109
0 111 -29 140 -35 35 -72 37 -118 9 l-33 -20 0 65 c0 58 -2 65 -20 65 -19 0
-20 -7 -20 -185z"/>
<path d="M6840 11400 c0 -33 -3 -40 -20 -40 -13 0 -20 -7 -20 -20 0 -13 7 -20
20 -20 19 0 20 -7 20 -103 0 -114 6 -127 57 -127 40 0 45 26 8 40 -24 9 -25
13 -25 99 0 85 1 90 22 93 34 5 37 38 4 38 -24 0 -26 4 -26 40 0 33 -3 40 -20
40 -17 0 -20 -7 -20 -40z"/>
<path d="M8747 11433 c-4 -3 -7 -21 -7 -40 0 -23 -5 -33 -15 -33 -8 0 -15 -9
-15 -20 0 -11 7 -20 15 -20 12 0 15 -17 15 -89 0 -118 9 -141 55 -141 28 0 35
4 35 20 0 13 -7 20 -20 20 -19 0 -20 7 -20 95 0 88 1 95 20 95 13 0 20 7 20
20 0 13 -7 20 -20 20 -17 0 -20 7 -20 40 0 32 -4 40 -18 40 -10 0 -22 -3 -25
-7z"/>
<path d="M2772 11350 c-85 -52 -79 -211 11 -253 43 -21 58 -21 102 -3 47 20
75 68 75 132 0 113 -99 178 -188 124z m105 -35 c32 -23 46 -83 31 -131 -34
-103 -148 -70 -148 42 0 84 60 129 117 89z"/>
<path d="M3178 11354 c-76 -41 -86 -174 -18 -239 25 -24 39 -29 80 -29 43 0
55 5 81 30 69 69 54 200 -27 239 -40 19 -81 19 -116 -1z m113 -50 c19 -21 24
-36 24 -81 0 -48 -4 -58 -28 -79 -34 -29 -56 -30 -90 -4 -30 23 -42 67 -32
116 13 72 79 98 126 48z"/>
<path d="M4042 11350 c-85 -52 -79 -211 11 -253 43 -21 58 -21 102 -3 47 20
75 68 75 132 0 113 -99 178 -188 124z m105 -35 c32 -23 46 -83 31 -131 -34
-103 -148 -70 -148 42 0 84 60 129 117 89z"/>
<path d="M4624 11351 c-61 -38 -82 -153 -39 -217 40 -61 143 -68 190 -12 48
57 20 81 -33 28 -19 -18 -41 -30 -57 -30 -31 0 -75 41 -75 70 0 19 6 20 100
20 64 0 100 4 100 11 0 34 -25 100 -45 119 -34 32 -101 37 -141 11z m111 -46
c45 -44 34 -55 -50 -55 -84 0 -92 9 -50 54 30 33 68 34 100 1z"/>
<path d="M5873 11355 c-43 -18 -67 -67 -67 -137 -1 -43 5 -64 20 -85 27 -36
83 -57 127 -49 40 7 87 50 87 77 0 24 -25 24 -42 1 -36 -51 -107 -51 -133 -2
-8 16 -15 34 -15 40 0 6 37 10 100 10 l100 0 0 25 c0 39 -25 89 -55 113 -32
25 -75 28 -122 7z m101 -46 c14 -11 26 -29 26 -40 0 -17 -8 -19 -75 -19 -47 0
-75 4 -75 11 0 18 57 69 78 69 11 0 31 -9 46 -21z"/>
<path d="M6155 11358 c-45 -24 -62 -78 -25 -78 11 0 20 7 20 15 0 31 83 48
108 23 7 -7 12 -22 12 -35 0 -24 -7 -27 -84 -37 -76 -10 -111 -56 -86 -115 11
-29 46 -51 78 -51 10 0 35 9 57 20 34 17 40 18 48 5 11 -20 67 -20 67 0 0 8
-7 15 -15 15 -12 0 -15 17 -15 90 0 49 -5 100 -11 114 -19 40 -107 60 -154 34z
m115 -167 c0 -52 -83 -94 -118 -59 -15 15 -16 55 0 64 15 9 66 22 96 23 18 1
22 -4 22 -28z"/>
<path d="M7335 11345 c-23 -22 -25 -23 -25 -5 0 13 -7 20 -20 20 -19 0 -20 -7
-20 -135 0 -128 1 -135 20 -135 18 0 20 7 20 83 0 97 13 128 58 142 24 7 32
15 32 32 0 31 -33 30 -65 -2z"/>
<path d="M7483 11350 c-47 -28 -66 -72 -61 -137 6 -66 31 -103 85 -122 80 -28
152 24 160 116 12 121 -90 201 -184 143z m112 -45 c19 -18 25 -35 25 -70 0
-101 -67 -149 -125 -90 -21 20 -25 34 -25 80 0 46 4 60 25 80 13 14 36 25 50
25 14 0 37 -11 50 -25z"/>
<path d="M8054 11351 c-67 -41 -74 -172 -12 -238 29 -31 79 -39 117 -20 30 15
31 15 31 -8 0 -62 -95 -97 -128 -47 -17 25 -52 30 -52 7 0 -9 11 -27 25 -40
32 -33 119 -36 158 -5 37 29 47 76 47 228 l0 132 -25 0 c-16 0 -25 -6 -25 -16
0 -13 -5 -12 -26 5 -33 26 -70 27 -110 2z m111 -46 c21 -20 25 -34 25 -80 0
-46 -4 -60 -25 -80 -13 -14 -33 -25 -45 -25 -11 0 -32 11 -45 25 -21 20 -25
34 -25 84 0 52 3 62 26 80 35 27 59 26 89 -4z"/>
<path d="M9235 11360 c-11 -4 -31 -20 -45 -34 -31 -34 -41 -136 -17 -183 17
-32 70 -63 106 -63 40 0 89 28 106 59 14 29 14 32 -1 38 -11 4 -23 -2 -36 -20
-42 -58 -137 -37 -138 31 0 21 3 22 95 22 l95 0 0 31 c0 92 -84 153 -165 119z
m95 -50 c11 -11 20 -29 20 -40 0 -18 -7 -20 -70 -20 -62 0 -70 2 -70 19 0 25
45 61 76 61 13 0 33 -9 44 -20z"/>
<path d="M7730 11242 c0 -108 2 -121 21 -138 14 -12 36 -19 64 -19 28 0 50 7
64 19 19 17 21 17 21 3 0 -10 8 -17 20 -17 19 0 20 7 20 135 0 128 -1 135 -20
135 -18 0 -20 -7 -20 -85 0 -114 -21 -155 -79 -155 -40 0 -51 31 -51 138 0 95
-1 102 -20 102 -19 0 -20 -7 -20 -118z"/>
<path d="M2043 11234 c-15 -24 -15 -29 -2 -53 29 -51 109 -33 109 24 0 56 -76
76 -107 29z"/>
<path d="M4972 11233 c3 -16 19 -18 146 -21 137 -2 142 -2 142 18 0 19 -6 20
-146 20 -133 0 -145 -1 -142 -17z"/>
<path d="M2640 10555 l0 -185 25 0 25 0 0 185 0 185 -25 0 -25 0 0 -185z"/>
<path d="M4780 10674 l0 -65 -26 20 c-32 25 -64 27 -105 5 -74 -38 -79 -187
-9 -249 30 -27 100 -27 129 -1 19 17 21 17 21 3 0 -10 8 -17 20 -17 19 0 20 7
20 185 l0 185 -25 0 c-24 0 -25 -2 -25 -66z m-25 -89 c21 -20 25 -34 25 -80 0
-46 -4 -60 -25 -80 -13 -14 -33 -25 -45 -25 -11 0 -32 11 -45 25 -21 20 -25
34 -25 84 0 52 3 62 26 80 35 27 59 26 89 -4z"/>
<path d="M6050 10674 l0 -65 -26 20 c-32 25 -64 27 -105 5 -74 -38 -79 -187
-9 -249 30 -27 100 -27 129 -1 19 17 21 17 21 3 0 -10 8 -17 20 -17 19 0 20 7
20 185 l0 185 -25 0 c-24 0 -25 -2 -25 -66z m-25 -89 c21 -20 25 -34 25 -80 0
-46 -4 -60 -25 -80 -13 -14 -33 -25 -45 -25 -11 0 -32 11 -45 25 -21 20 -25
34 -25 84 0 52 3 62 26 80 35 27 59 26 89 -4z"/>
<path d="M9280 10555 l0 -185 25 0 c25 0 25 0 25 95 0 88 2 98 25 120 30 31
69 32 89 3 12 -17 16 -48 16 -120 0 -91 1 -98 20 -98 19 0 20 7 20 109 0 60
-3 117 -6 126 -8 20 -56 45 -87 45 -13 0 -36 -9 -51 -21 l-26 -20 0 65 c0 64
-1 66 -25 66 l-25 0 0 -185z"/>
<path d="M9860 10715 c0 -20 5 -25 25 -25 20 0 25 5 25 25 0 20 -5 25 -25 25
-20 0 -25 -5 -25 -25z"/>
<path d="M6320 10680 c0 -33 -3 -40 -20 -40 -13 0 -20 -7 -20 -20 0 -13 7 -20
20 -20 19 0 20 -7 20 -103 0 -114 6 -127 57 -127 40 0 45 26 8 40 -24 9 -25
13 -25 99 0 85 1 90 22 93 34 5 37 38 4 38 -24 0 -26 4 -26 40 0 33 -3 40 -20
40 -17 0 -20 -7 -20 -40z"/>
<path d="M7040 10680 c0 -33 -3 -40 -20 -40 -12 0 -20 -7 -20 -16 0 -9 9 -18
20 -21 18 -5 20 -14 20 -107 0 -113 6 -126 57 -126 36 0 47 25 16 37 -29 11
-33 24 -33 111 0 81 0 82 25 82 33 0 35 37 3 42 -19 2 -24 10 -26 41 -3 29 -7
37 -23 37 -16 0 -19 -7 -19 -40z"/>
<path d="M9150 10680 c0 -33 -3 -40 -20 -40 -12 0 -20 -7 -20 -16 0 -9 9 -18
20 -21 18 -5 20 -14 20 -107 0 -113 6 -126 57 -126 36 0 47 25 16 37 -29 11
-33 24 -33 111 0 81 0 82 25 82 33 0 35 37 3 42 -19 2 -24 10 -26 41 -3 29 -7
37 -23 37 -16 0 -19 -7 -19 -40z"/>
<path d="M2420 10638 c-37 -20 -56 -61 -45 -95 8 -23 21 -31 70 -46 75 -23 89
-31 92 -48 5 -24 -12 -39 -50 -46 -32 -5 -40 -2 -66 26 -28 30 -61 41 -61 21
0 -32 33 -70 69 -81 78 -23 154 17 154 81 0 42 -18 58 -94 78 -54 14 -65 21
-67 41 -7 47 64 57 103 15 28 -30 56 -27 48 5 -3 11 -13 27 -24 37 -24 22 -97
28 -129 12z"/>
<path d="M2805 10641 c-25 -11 -40 -29 -49 -58 -6 -19 -4 -23 16 -23 15 0 27
8 33 23 7 16 20 23 48 25 43 4 67 -11 67 -39 0 -23 -27 -35 -92 -44 -92 -12
-123 -111 -47 -150 37 -20 57 -19 102 4 31 16 38 16 48 5 16 -19 69 -18 69 1
0 8 -6 15 -14 15 -11 0 -15 22 -18 100 -3 86 -6 102 -25 121 -24 24 -103 35
-138 20z m99 -212 c-22 -24 -79 -35 -99 -19 -18 15 -20 56 -4 66 6 4 35 12 63
18 l51 12 3 -29 c2 -17 -4 -37 -14 -48z"/>
<path d="M3116 10629 c-21 -17 -26 -18 -26 -5 0 10 -9 16 -25 16 l-25 0 0
-135 0 -135 25 0 c25 0 25 0 25 95 0 88 2 98 25 120 30 31 69 32 89 3 12 -17
16 -48 16 -120 0 -98 0 -98 25 -98 25 0 25 0 24 93 0 50 -5 108 -12 127 -20
58 -91 78 -141 39z"/>
<path d="M3374 10631 c-67 -41 -74 -172 -12 -238 29 -31 79 -39 117 -20 30 15
31 15 31 -8 0 -62 -95 -97 -128 -47 -17 25 -52 30 -52 7 0 -9 11 -27 25 -40
32 -33 119 -36 158 -5 37 29 47 76 47 228 l0 132 -25 0 c-16 0 -25 -6 -25 -16
0 -13 -5 -12 -26 5 -33 26 -70 27 -110 2z m111 -46 c21 -20 25 -34 25 -80 0
-46 -4 -60 -25 -80 -13 -14 -33 -25 -45 -25 -11 0 -32 11 -45 25 -21 20 -25
34 -25 84 0 52 3 62 26 80 35 27 59 26 89 -4z"/>
<path d="M4205 10640 c-11 -4 -31 -20 -45 -34 -34 -38 -40 -136 -10 -184 20
-32 71 -62 106 -62 38 0 87 34 105 74 24 52 23 90 0 143 -28 61 -95 89 -156
63z m80 -36 c24 -10 45 -58 45 -104 0 -33 -6 -48 -29 -71 -16 -16 -38 -29 -48
-29 -50 0 -91 70 -78 133 13 60 59 90 110 71z"/>
<path d="M4506 10629 c-21 -17 -26 -18 -26 -5 0 10 -9 16 -25 16 l-25 0 0
-135 0 -135 25 0 c25 0 25 1 25 89 0 74 3 92 21 115 12 15 30 26 45 26 19 0
24 5 24 25 0 32 -27 33 -64 4z"/>
<path d="M4927 10635 c-51 -29 -59 -100 -14 -124 12 -7 44 -18 71 -24 52 -14
73 -34 63 -60 -15 -39 -103 -31 -122 11 -13 30 -45 29 -45 -1 0 -53 85 -90
155 -67 34 11 65 51 65 83 0 31 -37 59 -100 76 -44 12 -66 24 -68 35 -10 48
75 65 104 21 18 -27 54 -34 54 -11 0 8 -10 27 -23 41 -29 34 -98 43 -140 20z"/>
<path d="M5345 10638 c-45 -24 -62 -78 -25 -78 11 0 20 7 20 15 0 31 83 48
108 23 7 -7 12 -22 12 -35 0 -24 -7 -27 -84 -37 -76 -10 -111 -56 -86 -115 11
-29 46 -51 78 -51 10 0 35 9 57 20 34 17 40 18 48 5 11 -20 67 -20 67 0 0 8
-7 15 -15 15 -12 0 -15 17 -15 90 0 49 -5 100 -11 114 -19 40 -107 60 -154 34z
m115 -167 c0 -52 -83 -94 -118 -59 -15 15 -16 55 0 64 15 9 66 22 96 23 18 1
22 -4 22 -28z"/>
<path d="M5656 10629 c-21 -17 -26 -18 -26 -5 0 10 -9 16 -25 16 l-25 0 0
-135 0 -135 25 0 c25 0 25 0 25 95 0 88 2 98 25 120 30 31 69 32 89 3 12 -17
16 -48 16 -120 0 -98 0 -98 25 -98 25 0 25 0 24 93 0 50 -5 108 -12 127 -20
58 -91 78 -141 39z"/>
<path d="M6525 10625 c-23 -22 -25 -23 -25 -5 0 13 -7 20 -20 20 -19 0 -20 -7
-20 -135 0 -128 1 -135 20 -135 18 0 20 7 20 83 0 97 13 128 58 142 24 7 32
15 32 32 0 31 -33 30 -65 -2z"/>
<path d="M7223 10630 c-47 -28 -66 -72 -61 -137 6 -66 31 -103 85 -122 80 -28
152 24 160 116 12 121 -90 201 -184 143z m112 -45 c19 -18 25 -35 25 -70 0
-101 -67 -149 -125 -90 -21 20 -25 34 -25 80 0 46 4 60 25 80 13 14 36 25 50
25 14 0 37 -11 50 -25z"/>
<path d="M7661 10637 c-45 -23 -66 -63 -65 -126 1 -79 26 -121 83 -141 38 -13
45 -13 73 3 17 10 33 16 35 13 12 -12 -20 -74 -43 -85 -37 -16 -52 -14 -80 14
-22 22 -64 35 -64 19 0 -12 24 -50 39 -61 22 -17 106 -16 140 1 44 23 51 53
51 216 0 143 -1 150 -20 150 -12 0 -20 -7 -20 -16 0 -13 -5 -12 -26 5 -30 24
-68 27 -103 8z m98 -46 c25 -25 37 -102 21 -140 -15 -37 -61 -58 -94 -43 -50
23 -60 148 -16 184 29 23 65 23 89 -1z"/>
<path d="M8234 10631 c-61 -38 -82 -153 -39 -217 40 -61 143 -68 190 -12 48
57 20 81 -33 28 -19 -18 -41 -30 -57 -30 -31 0 -75 41 -75 70 0 19 6 20 100
20 64 0 100 4 100 11 0 34 -25 100 -45 119 -34 32 -101 37 -141 11z m111 -46
c45 -44 34 -55 -50 -55 -84 0 -92 9 -50 54 30 33 68 34 100 1z"/>
<path d="M8515 10638 c-32 -17 -45 -39 -45 -75 0 -39 20 -54 101 -77 31 -9 59
-23 63 -31 8 -23 -29 -55 -64 -55 -29 0 -70 29 -70 50 0 6 -9 10 -20 10 -26 0
-26 -29 0 -63 38 -48 150 -44 185 6 39 55 5 105 -85 127 -53 13 -76 31 -67 55
14 34 101 31 112 -5 3 -11 15 -20 26 -20 30 0 23 35 -12 64 -33 28 -88 34
-124 14z"/>
<path d="M8775 10638 c-32 -17 -45 -39 -45 -75 0 -39 20 -54 101 -77 31 -9 59
-23 63 -31 8 -23 -29 -55 -64 -55 -29 0 -70 29 -70 50 0 6 -9 10 -20 10 -26 0
-26 -29 0 -63 38 -48 150 -44 185 6 39 55 5 105 -85 127 -53 13 -76 31 -67 55
14 34 101 31 112 -5 3 -11 15 -20 26 -20 30 0 23 35 -12 64 -33 28 -88 34
-124 14z"/>
<path d="M9631 10637 c-48 -24 -66 -63 -66 -137 0 -62 3 -72 29 -99 51 -53
142 -50 186 6 43 55 8 74 -40 23 -17 -19 -38 -30 -54 -30 -32 0 -76 41 -76 70
0 19 6 20 95 20 l95 0 0 38 c0 92 -90 150 -169 109z m97 -44 c11 -10 23 -28
27 -40 6 -22 4 -23 -69 -23 -85 0 -96 11 -51 55 28 29 65 32 93 8z"/>
<path d="M10057 10630 c-22 -18 -27 -19 -27 -6 0 10 -9 16 -25 16 l-25 0 0
-135 0 -135 25 0 c25 0 25 0 25 93 0 103 8 123 55 135 20 6 30 15 30 28 0 27
-27 28 -58 4z"/>
<path d="M3740 10638 c0 -2 18 -61 39 -133 35 -118 41 -130 63 -133 23 -3 25
2 48 98 13 55 27 97 30 93 4 -5 18 -50 31 -101 22 -88 25 -93 49 -90 22 3 27
14 62 133 21 72 38 131 38 133 0 1 -10 2 -23 2 -20 0 -25 -10 -47 -96 -13 -52
-26 -97 -30 -99 -3 -2 -16 41 -29 96 -21 96 -23 99 -50 99 -27 0 -28 -3 -51
-100 -13 -55 -25 -98 -27 -96 -3 2 -11 30 -19 63 -36 140 -33 133 -59 133 -14
0 -25 -1 -25 -2z"/>
<path d="M6606 10618 c4 -13 26 -75 49 -140 38 -106 41 -119 29 -147 -10 -23
-20 -31 -39 -31 -18 0 -25 -5 -25 -20 0 -16 7 -20 35 -20 45 0 52 12 119 191
74 199 72 189 43 189 -22 0 -27 -9 -58 -105 -18 -58 -36 -102 -40 -98 -3 5
-21 52 -39 106 -29 88 -34 97 -56 97 -22 0 -24 -3 -18 -22z"/>
<path d="M7900 10526 c0 -97 3 -117 19 -137 25 -31 98 -34 130 -5 19 17 21 17
21 3 0 -11 8 -17 25 -17 l25 0 0 135 0 135 -25 0 c-25 0 -25 0 -25 -95 0 -88
-2 -98 -25 -120 -29 -30 -58 -32 -85 -5 -17 17 -20 33 -20 120 0 93 -1 100
-20 100 -19 0 -20 -7 -20 -114z"/>
<path d="M9860 10505 l0 -135 25 0 25 0 0 135 0 135 -25 0 -25 0 0 -135z"/>
<path d="M7183 10015 c-14 -10 -25 -31 -29 -56 -4 -23 -12 -39 -20 -39 -8 0
-14 -9 -14 -20 0 -11 7 -20 15 -20 12 0 15 -19 15 -115 l0 -115 25 0 25 0 0
114 c0 111 1 115 22 118 34 5 37 38 4 38 -22 0 -26 4 -26 30 0 23 5 31 26 36
16 4 24 12 22 23 -4 22 -38 25 -65 6z"/>
<path d="M3680 9995 c0 -20 5 -25 25 -25 20 0 25 5 25 25 0 20 -5 25 -25 25
-20 0 -25 -5 -25 -25z"/>
<path d="M4770 9835 l0 -185 25 0 c14 0 25 4 25 9 0 5 14 3 31 -6 103 -51 197
86 145 212 -28 67 -131 86 -168 31 -4 -6 -8 19 -8 57 0 65 -1 67 -25 67 l-25
0 0 -185z m164 34 c23 -18 26 -28 26 -80 0 -50 -4 -64 -25 -84 -13 -14 -33
-25 -45 -25 -11 0 -32 11 -45 25 -21 20 -25 34 -25 80 0 46 4 60 25 80 30 30
54 31 89 4z"/>
<path d="M7030 9835 l0 -185 25 0 25 0 0 185 0 185 -25 0 -25 0 0 -185z"/>
<path d="M2470 9923 c-8 -3 -23 -12 -32 -21 -16 -14 -18 -13 -18 1 0 10 -8 17
-20 17 -19 0 -20 -7 -20 -135 0 -125 1 -135 19 -135 17 0 19 10 23 95 3 82 7
98 28 120 27 29 52 32 74 9 13 -12 16 -38 16 -120 0 -97 1 -104 20 -104 18 0
20 7 20 80 0 97 17 146 55 156 18 4 32 1 45 -11 17 -16 20 -32 20 -122 0 -96
1 -103 20 -103 19 0 20 7 20 115 0 110 -1 117 -25 140 -30 31 -73 32 -109 4
l-26 -20 -26 20 c-26 21 -54 25 -84 14z"/>
<path d="M2871 9917 c-48 -24 -66 -63 -66 -137 0 -62 3 -72 29 -99 51 -53 142
-50 186 6 43 55 8 74 -40 23 -17 -19 -38 -30 -54 -30 -32 0 -76 41 -76 70 0
19 6 20 95 20 l95 0 0 38 c0 92 -90 150 -169 109z m97 -44 c11 -10 23 -28 27
-40 6 -22 4 -23 -69 -23 -85 0 -96 11 -51 55 28 29 65 32 93 8z"/>
<path d="M3154 9921 c-24 -11 -54 -48 -54 -68 0 -22 37 -14 54 12 28 43 116
27 116 -20 0 -19 -32 -35 -68 -35 -42 0 -91 -19 -102 -40 -16 -31 -12 -85 9
-104 29 -27 81 -30 123 -8 30 16 38 17 42 6 7 -19 66 -18 66 0 0 8 -7 16 -15
20 -12 4 -15 26 -15 104 0 86 -3 101 -20 117 -23 20 -104 30 -136 16z m116
-162 c0 -48 -54 -88 -104 -75 -56 14 -35 81 28 89 70 9 76 8 76 -14z"/>
<path d="M3463 9910 c-27 -16 -33 -17 -33 -5 0 8 -9 15 -20 15 -19 0 -20 -7
-20 -135 0 -125 1 -135 19 -135 17 0 19 10 23 96 4 91 6 98 32 120 32 28 58
30 80 8 13 -12 16 -38 16 -120 l0 -104 25 0 25 0 0 111 c0 109 0 111 -29 140
-35 35 -72 37 -118 9z"/>
<path d="M3866 9909 c-21 -17 -26 -18 -26 -5 0 10 -9 16 -25 16 l-25 0 0 -135
0 -135 25 0 c25 0 25 0 25 95 0 88 2 98 25 120 30 31 69 32 89 3 12 -17 16
-48 16 -120 0 -98 0 -98 25 -98 25 0 25 0 24 93 0 50 -5 108 -12 127 -20 58
-91 78 -141 39z"/>
<path d="M4125 9908 c-33 -25 -55 -75 -55 -120 1 -50 34 -114 69 -132 37 -20
58 -20 94 -2 26 14 27 14 27 -13 0 -38 -32 -65 -77 -65 -26 0 -40 6 -51 22
-17 25 -52 30 -52 7 0 -9 11 -27 25 -40 19 -20 34 -25 74 -25 114 0 131 31
131 234 0 139 -1 146 -20 146 -11 0 -20 -7 -20 -15 0 -12 -6 -11 -32 5 -43 26
-79 25 -113 -2z m104 -35 c26 -22 43 -88 33 -128 -12 -43 -55 -71 -89 -59 -36
12 -53 47 -53 107 0 78 58 121 109 80z"/>
<path d="M4407 9915 c-51 -29 -59 -100 -14 -124 12 -7 44 -18 71 -24 52 -14
73 -34 63 -60 -15 -39 -103 -31 -122 11 -13 30 -45 29 -45 -1 0 -53 85 -90
155 -67 34 11 65 51 65 83 0 31 -37 59 -100 76 -44 12 -66 24 -68 35 -10 48
75 65 104 21 18 -27 54 -34 54 -11 0 8 -10 27 -23 41 -29 34 -98 43 -140 20z"/>
<path d="M5778 9914 c-76 -41 -86 -174 -18 -239 25 -24 39 -29 80 -29 43 0 55
5 81 30 69 69 54 200 -27 239 -40 19 -81 19 -116 -1z m113 -50 c19 -21 24 -36
24 -81 0 -48 -4 -58 -28 -79 -34 -29 -56 -30 -90 -4 -30 23 -42 67 -32 116 13
72 79 98 126 48z"/>
<path d="M6387 9910 c-22 -18 -27 -19 -27 -6 0 10 -9 16 -25 16 l-25 0 0 -135
0 -135 25 0 c25 0 25 0 25 93 0 103 8 123 55 135 20 6 30 15 30 28 0 27 -27
28 -58 4z"/>
<path d="M6517 9915 c-51 -29 -59 -100 -14 -124 12 -7 44 -18 71 -24 52 -14
73 -34 63 -60 -15 -39 -103 -31 -122 11 -13 30 -45 29 -45 -1 0 -53 85 -90
155 -67 34 11 65 51 65 83 0 31 -37 59 -100 76 -44 12 -66 24 -68 35 -10 48
75 65 104 21 18 -27 54 -34 54 -11 0 8 -10 27 -23 41 -29 34 -98 43 -140 20z"/>
<path d="M6801 9917 c-48 -24 -66 -63 -66 -137 0 -62 3 -72 29 -99 51 -53 142
-50 186 6 43 55 8 74 -40 23 -17 -19 -38 -30 -54 -30 -32 0 -76 41 -76 70 0
19 6 20 95 20 l95 0 0 38 c0 92 -90 150 -169 109z m97 -44 c11 -10 23 -28 27
-40 6 -22 4 -23 -69 -23 -85 0 -96 11 -51 55 28 29 65 32 93 8z"/>
<path d="M3680 9785 l0 -135 25 0 25 0 0 135 0 135 -25 0 -25 0 0 -135z"/>
<path d="M5045 9903 c4 -10 27 -73 51 -141 41 -117 43 -125 29 -153 -11 -20
-23 -29 -40 -29 -19 0 -25 -5 -25 -21 0 -17 5 -20 37 -17 29 2 41 10 56 35 19
33 127 315 127 333 0 5 -10 10 -23 10 -20 0 -27 -12 -57 -105 -19 -57 -36
-102 -39 -99 -3 3 -20 49 -36 102 -29 91 -32 97 -59 100 -24 3 -28 1 -21 -15z"/>
<path d="M5476 9823 c69 -188 67 -179 52 -210 -7 -16 -23 -29 -36 -31 -14 -2
-22 -10 -22 -23 0 -26 51 -26 75 1 10 11 47 96 81 188 59 157 61 167 42 170
-28 5 -31 0 -68 -111 -18 -54 -34 -96 -36 -94 -3 2 -19 49 -38 103 -30 90 -35
99 -59 102 l-27 3 36 -98z"/>
<path d="M6020 9815 c0 -57 5 -115 11 -128 21 -47 89 -61 132 -27 30 24 37 25
37 5 0 -8 9 -15 20 -15 19 0 20 7 20 135 l0 135 -25 0 c-25 0 -25 0 -25 -95 0
-88 -2 -98 -25 -120 -26 -27 -46 -31 -76 -15 -17 10 -19 22 -19 120 l0 110
-25 0 -25 0 0 -105z"/>
<path d="M7300 9680 c0 -25 4 -30 25 -30 21 0 25 5 25 30 0 25 -4 30 -25 30
-21 0 -25 -5 -25 -30z"/>
<path d="M2360 8568 c0 -11 20 -92 81 -321 9 -34 13 -38 37 -35 26 3 29 10 66
146 22 78 43 142 47 142 3 0 24 -65 45 -145 38 -142 40 -145 66 -145 22 0 29
6 34 28 4 15 26 98 49 185 l42 157 -28 0 c-27 0 -28 -2 -58 -131 -17 -72 -31
-138 -31 -147 0 -37 -19 10 -49 123 -18 66 -34 128 -37 138 -4 11 -15 17 -34
17 -26 0 -31 -5 -40 -42 -22 -82 -61 -223 -67 -238 -6 -17 -9 -7 -48 163 -25
109 -28 117 -51 117 -13 0 -24 -6 -24 -12z"/>
<path d="M2870 8555 c0 -20 5 -25 25 -25 20 0 25 5 25 25 0 20 -5 25 -25 25
-20 0 -25 -5 -25 -25z"/>
<path d="M3130 8395 c0 -174 1 -185 19 -185 17 0 19 10 23 96 4 91 6 98 32
120 30 26 47 29 77 14 17 -10 19 -22 19 -120 l0 -110 25 0 25 0 0 111 c0 109
0 111 -29 140 -35 35 -72 37 -118 9 l-33 -20 0 65 c0 58 -2 65 -20 65 -19 0
-20 -7 -20 -185z"/>
<path d="M3570 8395 l0 -185 30 0 30 0 0 85 0 85 90 0 c83 0 90 1 90 20 0 19
-7 20 -90 20 l-90 0 0 60 0 60 100 0 c93 0 100 1 100 20 0 19 -7 20 -130 20
l-130 0 0 -185z"/>
<path d="M4600 8555 c0 -20 5 -25 25 -25 20 0 25 5 25 25 0 20 -5 25 -25 25
-20 0 -25 -5 -25 -25z"/>
<path d="M4720 8395 c0 -178 1 -185 20 -185 19 0 20 7 20 185 0 178 -1 185
-20 185 -19 0 -20 -7 -20 -185z"/>
<path d="M5295 8555 c-29 -28 -32 -65 -8 -105 16 -28 16 -29 -20 -63 -31 -29
-37 -41 -37 -76 0 -53 12 -77 52 -97 39 -20 96 -14 137 15 l30 22 13 -21 c8
-12 23 -20 40 -20 35 0 35 5 -2 46 -28 33 -29 35 -15 69 20 47 19 65 -5 65
-15 0 -22 -9 -27 -30 l-6 -31 -24 23 c-44 41 -46 54 -13 87 59 58 27 141 -54
141 -26 0 -44 -7 -61 -25z m99 -37 c8 -13 6 -23 -10 -45 -29 -38 -39 -38 -57
-1 -11 23 -13 37 -6 51 13 23 57 20 73 -5z m-15 -185 c38 -45 40 -49 23 -65
-9 -10 -31 -20 -47 -24 -39 -7 -85 26 -85 62 0 24 40 74 59 74 5 0 28 -21 50
-47z"/>
<path d="M5740 8395 l0 -185 25 0 c25 0 25 1 25 85 l0 85 90 0 c83 0 90 1 90
20 0 19 -7 20 -90 20 l-90 0 0 60 0 60 105 0 c98 0 105 1 105 20 0 19 -7 20
-130 20 l-130 0 0 -185z"/>
<path d="M6220 8555 c0 -20 5 -25 25 -25 20 0 25 5 25 25 0 20 -5 25 -25 25
-20 0 -25 -5 -25 -25z"/>
<path d="M7090 8514 l0 -65 -26 20 c-47 37 -111 23 -145 -31 -16 -27 -19 -46
-17 -100 3 -58 8 -71 33 -98 44 -46 118 -49 147 -6 5 7 8 4 8 -6 0 -12 8 -18
25 -18 l25 0 0 185 0 185 -25 0 c-24 0 -25 -2 -25 -66z m-45 -70 c25 -10 45
-58 45 -109 0 -35 -6 -52 -25 -70 -29 -30 -54 -32 -88 -5 -31 25 -43 85 -27
135 16 48 50 66 95 49z"/>
<path d="M7930 8395 l0 -185 30 0 30 0 0 80 0 80 81 0 c76 0 82 2 110 29 24
24 29 38 29 76 0 38 -5 52 -29 76 -29 29 -31 29 -140 29 l-111 0 0 -185z m208
129 c28 -19 29 -67 2 -94 -16 -16 -33 -20 -85 -20 l-65 0 0 65 0 65 63 0 c40
0 70 -5 85 -16z"/>
<path d="M8270 8395 l0 -185 25 0 25 0 0 185 0 185 -25 0 -25 0 0 -185z"/>
<path d="M9452 8558 c2 -15 11 -24 26 -26 18 -3 22 1 22 22 0 21 -5 26 -26 26
-21 0 -25 -4 -22 -22z"/>
<path d="M9710 8395 l0 -185 25 0 c25 0 25 0 25 95 0 88 2 98 25 120 28 28 66
32 89 9 13 -12 16 -38 16 -120 l0 -104 25 0 c25 0 25 0 24 93 0 50 -5 108 -12
127 -20 58 -91 78 -141 39 l-26 -20 0 65 c0 64 -1 66 -25 66 l-25 0 0 -185z"/>
<path d="M2997 8553 c-4 -3 -7 -21 -7 -40 0 -23 -5 -33 -15 -33 -8 0 -15 -9
-15 -20 0 -11 7 -20 15 -20 12 0 15 -17 15 -89 0 -118 9 -141 55 -141 28 0 35
4 35 20 0 13 -7 20 -20 20 -19 0 -20 7 -20 95 0 88 1 95 20 95 13 0 20 7 20
20 0 13 -7 20 -20 20 -17 0 -20 7 -20 40 0 32 -4 40 -18 40 -10 0 -22 -3 -25
-7z"/>
<path d="M9580 8520 c0 -33 -3 -40 -20 -40 -12 0 -20 -7 -20 -16 0 -9 9 -18
20 -21 18 -5 20 -14 20 -107 0 -113 6 -126 57 -126 36 0 47 25 16 37 -29 11
-33 24 -33 111 0 81 0 82 25 82 33 0 35 37 3 42 -19 2 -24 10 -26 41 -3 29 -7
37 -23 37 -16 0 -19 -7 -19 -40z"/>
<path d="M3934 8481 c-24 -11 -54 -48 -54 -68 0 -22 37 -14 54 12 28 43 116
27 116 -20 0 -19 -32 -35 -68 -35 -42 0 -91 -19 -102 -40 -16 -31 -12 -85 9
-104 29 -27 81 -30 123 -8 30 16 38 17 42 6 7 -19 66 -18 66 0 0 8 -7 16 -15
20 -12 4 -15 26 -15 104 0 86 -3 101 -20 117 -23 20 -104 30 -136 16z m116
-162 c0 -48 -54 -88 -104 -75 -56 14 -35 81 28 89 70 9 76 8 76 -14z"/>
<path d="M4260 8483 c-8 -3 -23 -12 -32 -21 -16 -14 -18 -13 -18 1 0 10 -8 17
-20 17 -19 0 -20 -7 -20 -135 0 -125 1 -135 19 -135 17 0 19 10 23 95 3 82 7
98 28 120 27 29 52 32 74 9 13 -12 16 -38 16 -120 0 -97 1 -104 20 -104 18 0
20 7 20 80 0 97 17 146 55 156 18 4 32 1 45 -11 17 -16 20 -32 20 -122 0 -96
1 -103 20 -103 19 0 20 7 20 115 0 110 -1 117 -25 140 -30 31 -73 32 -109 4
l-26 -20 -26 20 c-26 21 -54 25 -84 14z"/>
<path d="M6127 8470 c-22 -18 -27 -19 -27 -6 0 10 -9 16 -25 16 l-25 0 0 -135
0 -135 25 0 c25 0 25 0 25 93 0 103 8 123 55 135 20 6 30 15 30 28 0 27 -27
28 -58 4z"/>
<path d="M6384 8471 c-61 -38 -82 -153 -39 -217 40 -61 143 -68 190 -12 48 57
20 81 -33 28 -19 -18 -41 -30 -57 -30 -31 0 -75 41 -75 70 0 19 6 20 100 20
64 0 100 4 100 11 0 34 -25 100 -45 119 -34 32 -101 37 -141 11z m111 -46 c45
-44 34 -55 -50 -55 -84 0 -92 9 -50 54 30 33 68 34 100 1z"/>
<path d="M6696 8469 c-21 -17 -26 -18 -26 -5 0 10 -9 16 -25 16 l-25 0 0 -135
0 -135 25 0 c25 0 25 0 25 95 0 88 2 98 25 120 30 31 69 32 89 3 12 -17 16
-48 16 -120 0 -98 0 -98 25 -98 25 0 25 0 24 93 0 50 -5 108 -12 127 -20 58
-91 78 -141 39z"/>
<path d="M7237 8475 c-51 -29 -59 -100 -14 -124 12 -7 44 -18 71 -24 52 -14
73 -34 63 -60 -15 -39 -103 -31 -122 11 -13 30 -45 29 -45 -1 0 -53 85 -90
155 -67 34 11 65 51 65 83 0 31 -37 59 -100 76 -44 12 -66 24 -68 35 -10 48
75 65 104 21 18 -27 54 -34 54 -11 0 8 -10 27 -23 41 -29 34 -98 43 -140 20z"/>
<path d="M8435 8481 c-25 -11 -40 -29 -49 -58 -6 -19 -4 -23 16 -23 15 0 27 8
33 23 7 16 20 23 48 25 43 4 67 -11 67 -39 0 -23 -27 -35 -92 -44 -92 -12
-123 -111 -47 -150 37 -20 57 -19 102 4 31 16 38 16 48 5 16 -19 69 -18 69 1
0 8 -6 15 -14 15 -11 0 -15 22 -18 100 -3 86 -6 102 -25 121 -24 24 -103 35
-138 20z m99 -212 c-22 -24 -79 -35 -99 -19 -18 15 -20 56 -4 66 6 4 35 12 63
18 l51 12 3 -29 c2 -17 -4 -37 -14 -48z"/>
<path d="M2870 8345 l0 -135 25 0 25 0 0 135 0 135 -25 0 -25 0 0 -135z"/>
<path d="M4600 8345 l0 -135 25 0 25 0 0 135 0 135 -25 0 -25 0 0 -135z"/>
<path d="M4816 8458 c4 -13 26 -75 49 -140 38 -106 41 -119 29 -147 -10 -23
-20 -31 -39 -31 -18 0 -25 -5 -25 -20 0 -16 7 -20 35 -20 45 0 52 12 119 191
74 199 72 189 43 189 -22 0 -27 -9 -58 -105 -18 -58 -36 -102 -40 -98 -3 5
-21 52 -39 106 -29 88 -34 97 -56 97 -22 0 -24 -3 -18 -22z"/>
<path d="M6220 8345 l0 -135 25 0 25 0 0 135 0 135 -25 0 -25 0 0 -135z"/>
<path d="M8656 8458 c4 -13 26 -75 49 -140 38 -106 41 -119 29 -147 -10 -23
-20 -31 -39 -31 -18 0 -25 -5 -25 -20 0 -16 7 -20 35 -20 45 0 52 12 119 191
74 199 72 189 43 189 -22 0 -27 -9 -58 -105 -18 -58 -36 -102 -40 -98 -3 5
-21 52 -39 106 -29 88 -34 97 -56 97 -22 0 -24 -3 -18 -22z"/>
<path d="M9070 8418 c10 -35 28 -96 40 -135 18 -64 24 -73 44 -73 22 0 26 9
46 93 13 50 25 96 28 101 3 5 17 -35 32 -90 23 -89 28 -99 50 -102 24 -3 27 4
59 115 19 65 36 126 39 136 4 15 0 18 -18 15 -20 -3 -27 -16 -51 -103 -14 -55
-29 -93 -32 -85 -3 8 -10 38 -17 65 -28 124 -29 126 -57 123 -25 -3 -29 -10
-48 -88 -12 -47 -24 -92 -27 -100 -2 -8 -16 30 -29 85 -23 93 -27 100 -51 103
l-26 3 18 -63z"/>
<path d="M9450 8345 l0 -135 25 0 25 0 0 135 0 135 -25 0 -25 0 0 -135z"/>
<path d="M2043 8354 c-15 -24 -15 -29 -2 -53 29 -51 109 -33 109 24 0 56 -76
76 -107 29z"/>
<path d="M7600 8355 c0 -24 3 -25 60 -25 57 0 60 1 60 25 0 24 -3 25 -60 25
-57 0 -60 -1 -60 -25z"/>
<path d="M2810 7675 l0 -185 25 0 c25 0 25 0 25 95 0 88 2 98 25 120 30 31 69
32 89 3 12 -17 16 -48 16 -120 0 -91 1 -98 20 -98 19 0 20 7 20 109 0 60 -3
117 -6 126 -8 20 -56 45 -87 45 -13 0 -36 -9 -51 -21 l-26 -20 0 65 c0 64 -1
66 -25 66 l-25 0 0 -185z"/>
<path d="M4550 7675 c0 -178 1 -185 20 -185 18 0 20 7 20 55 0 45 4 56 21 66
24 12 21 16 70 -68 26 -45 35 -53 60 -53 22 0 28 4 23 13 -5 6 -27 42 -51 79
-24 36 -43 70 -43 74 0 5 21 30 47 56 l47 48 -29 0 c-22 0 -43 -14 -87 -57
l-58 -57 0 107 c0 100 -1 107 -20 107 -19 0 -20 -7 -20 -185z"/>
<path d="M6540 7675 c0 -178 1 -185 20 -185 12 0 20 7 20 18 0 10 3 13 8 6 26
-40 103 -41 139 -1 33 36 43 63 43 119 0 111 -90 175 -164 117 l-26 -20 0 65
c0 59 -2 66 -20 66 -19 0 -20 -7 -20 -185z m150 45 c25 -13 43 -80 34 -125 -7
-38 -44 -75 -76 -75 -10 0 -30 12 -45 26 -23 23 -25 31 -21 86 4 48 9 65 27
79 26 21 53 24 81 9z"/>
<path d="M7120 7835 c0 -18 5 -25 20 -25 15 0 20 7 20 25 0 18 -5 25 -20 25
-15 0 -20 -7 -20 -25z"/>
<path d="M8100 7675 c0 -174 1 -185 19 -185 17 0 19 10 23 96 4 91 6 98 32
120 30 26 47 29 77 14 17 -10 19 -22 19 -120 l0 -110 25 0 25 0 0 111 c0 109
0 111 -29 140 -35 35 -72 37 -118 9 l-33 -20 0 65 c0 58 -2 65 -20 65 -19 0
-20 -7 -20 -185z"/>
<path d="M8960 7710 c0 -137 -2 -152 -20 -170 -37 -37 -86 -19 -96 35 -4 25
-11 35 -25 35 -30 0 -26 -70 5 -99 30 -28 87 -37 126 -21 52 22 60 51 60 220
l0 150 -25 0 -25 0 0 -150z"/>
<path d="M9550 7794 l0 -65 -26 20 c-90 70 -198 -42 -164 -169 22 -83 103
-124 161 -81 23 17 29 19 29 6 0 -8 9 -15 20 -15 19 0 20 7 20 185 0 178 -1
185 -20 185 -18 0 -20 -7 -20 -66z m-31 -83 c25 -25 37 -102 21 -140 -15 -37
-61 -58 -94 -43 -50 23 -60 148 -16 184 29 23 65 23 89 -1z"/>
<path d="M2680 7800 c0 -33 -3 -40 -20 -40 -12 0 -20 -7 -20 -16 0 -9 9 -18
20 -21 18 -5 20 -14 20 -107 0 -113 6 -126 57 -126 36 0 47 25 16 37 -29 11
-33 24 -33 111 0 81 0 82 25 82 33 0 35 37 3 42 -19 2 -24 10 -26 41 -3 29 -7
37 -23 37 -16 0 -19 -7 -19 -40z"/>
<path d="M4120 7800 c0 -33 -3 -40 -20 -40 -12 0 -20 -7 -20 -16 0 -9 9 -18
20 -21 18 -5 20 -14 20 -100 0 -114 8 -133 55 -133 28 0 35 4 35 20 0 13 -7
20 -20 20 -19 0 -20 7 -20 95 0 88 1 95 20 95 13 0 20 7 20 20 0 13 -7 20 -20
20 -17 0 -20 7 -20 40 0 36 -2 40 -25 40 -22 0 -25 -4 -25 -40z"/>
<path d="M5250 7800 c0 -33 -3 -40 -20 -40 -12 0 -20 -7 -20 -16 0 -9 9 -18
20 -21 18 -5 20 -14 20 -107 0 -113 6 -126 57 -126 36 0 47 25 16 37 -29 11
-33 24 -33 111 0 81 0 82 25 82 33 0 35 37 3 42 -19 2 -24 10 -26 41 -3 29 -7
37 -23 37 -16 0 -19 -7 -19 -40z"/>
<path d="M7967 7833 c-4 -3 -7 -21 -7 -40 0 -23 -5 -33 -15 -33 -8 0 -15 -9
-15 -20 0 -11 7 -20 15 -20 12 0 15 -17 15 -89 0 -118 9 -141 55 -141 28 0 35
4 35 20 0 13 -7 20 -20 20 -19 0 -20 7 -20 95 0 88 1 95 20 95 13 0 20 7 20
20 0 13 -7 20 -20 20 -17 0 -20 7 -20 40 0 32 -4 40 -18 40 -10 0 -22 -3 -25
-7z"/>
<path d="M2428 7754 c-76 -41 -86 -174 -18 -239 25 -24 39 -29 80 -29 43 0 55
5 81 30 69 69 54 200 -27 239 -40 19 -81 19 -116 -1z m113 -50 c19 -21 24 -36
24 -81 0 -48 -4 -58 -28 -79 -34 -29 -56 -30 -90 -4 -30 23 -42 67 -32 116 13
72 79 98 126 48z"/>
<path d="M3161 7757 c-48 -24 -66 -63 -66 -137 0 -62 3 -72 29 -99 51 -53 142
-50 186 6 43 55 8 74 -40 23 -17 -19 -38 -30 -54 -30 -32 0 -76 41 -76 70 0
19 6 20 95 20 l95 0 0 38 c0 92 -90 150 -169 109z m97 -44 c11 -10 23 -28 27
-40 6 -22 4 -23 -69 -23 -85 0 -96 11 -51 55 28 29 65 32 93 8z"/>
<path d="M3465 7745 c-23 -22 -25 -23 -25 -5 0 13 -7 20 -20 20 -19 0 -20 -7
-20 -135 0 -128 1 -135 20 -135 18 0 20 7 20 83 0 97 13 128 58 142 24 7 32
15 32 32 0 31 -33 30 -65 -2z"/>
<path d="M3605 7758 c-32 -17 -45 -39 -45 -75 0 -39 20 -54 101 -77 31 -9 59
-23 63 -31 8 -23 -29 -55 -64 -55 -29 0 -70 29 -70 50 0 6 -9 10 -20 10 -26 0
-26 -29 0 -63 38 -48 150 -44 185 6 39 55 5 105 -85 127 -53 13 -76 31 -67 55
14 34 101 31 112 -5 3 -11 15 -20 26 -20 30 0 23 35 -12 64 -33 28 -88 34
-124 14z"/>
<path d="M4305 7758 c-45 -24 -62 -78 -25 -78 11 0 20 7 20 15 0 31 83 48 108
23 7 -7 12 -22 12 -35 0 -24 -7 -27 -84 -37 -76 -10 -111 -56 -86 -115 11 -29
46 -51 78 -51 10 0 35 9 57 20 34 17 40 18 48 5 11 -20 67 -20 67 0 0 8 -7 15
-15 15 -12 0 -15 17 -15 90 0 49 -5 100 -11 114 -19 40 -107 60 -154 34z m115
-167 c0 -52 -83 -94 -118 -59 -15 15 -16 55 0 64 15 9 66 22 96 23 18 1 22 -4
22 -28z"/>
<path d="M4863 7755 c-43 -18 -67 -67 -67 -137 -1 -43 5 -64 20 -85 27 -36 83
-57 127 -49 40 7 87 50 87 77 0 24 -25 24 -42 1 -36 -51 -107 -51 -133 -2 -8
16 -15 34 -15 40 0 6 37 10 100 10 l100 0 0 25 c0 39 -25 89 -55 113 -32 25
-75 28 -122 7z m101 -46 c14 -11 26 -29 26 -40 0 -17 -8 -19 -75 -19 -47 0
-75 4 -75 11 0 18 57 69 78 69 11 0 31 -9 46 -21z"/>
<path d="M5745 7745 c-23 -22 -25 -23 -25 -5 0 13 -7 20 -20 20 -19 0 -20 -7
-20 -135 0 -128 1 -135 20 -135 18 0 20 7 20 83 0 97 13 128 58 142 24 7 32
15 32 32 0 31 -33 30 -65 -2z"/>
<path d="M5916 7749 c-21 -17 -26 -18 -26 -5 0 9 -8 16 -20 16 -19 0 -20 -7
-20 -135 0 -128 1 -135 20 -135 18 0 20 7 20 85 0 114 21 155 79 155 40 0 51
-31 51 -138 l0 -102 26 0 26 0 -4 116 c-3 113 -4 116 -31 140 -35 30 -85 31
-121 3z"/>
<path d="M6175 7758 c-32 -17 -45 -39 -45 -75 0 -39 20 -54 101 -77 31 -9 59
-23 63 -31 8 -23 -29 -55 -64 -55 -29 0 -70 29 -70 50 0 6 -9 10 -20 10 -26 0
-26 -29 0 -63 38 -48 150 -44 185 6 39 55 5 105 -85 127 -53 13 -76 31 -67 55
14 34 101 31 112 -5 3 -11 15 -20 26 -20 30 0 23 35 -12 64 -33 28 -88 34
-124 14z"/>
<path d="M6883 7755 c-43 -18 -67 -67 -67 -137 -1 -43 5 -64 20 -85 27 -36 83
-57 127 -49 40 7 87 50 87 77 0 24 -25 24 -42 1 -36 -51 -107 -51 -133 -2 -8
16 -15 34 -15 40 0 6 37 10 100 10 l100 0 0 25 c0 39 -25 89 -55 113 -32 25
-75 28 -122 7z m101 -46 c14 -11 26 -29 26 -40 0 -17 -8 -19 -75 -19 -47 0
-75 4 -75 11 0 18 57 69 78 69 11 0 31 -9 46 -21z"/>
<path d="M7303 7750 c-27 -16 -33 -17 -33 -5 0 8 -9 15 -20 15 -19 0 -20 -7
-20 -135 l0 -135 25 0 c25 0 25 0 25 95 0 88 2 98 25 120 27 28 52 31 81 11
16 -12 19 -29 22 -120 4 -96 6 -106 23 -106 18 0 19 8 19 109 0 60 -3 117 -6
126 -8 20 -56 45 -86 45 -13 0 -38 -9 -55 -20z"/>
<path d="M7564 7751 c-67 -41 -74 -172 -12 -238 29 -31 79 -39 117 -20 30 15
31 15 31 -8 0 -62 -95 -97 -128 -47 -17 25 -52 30 -52 7 0 -9 11 -27 25 -40
32 -33 119 -36 158 -5 37 29 47 76 47 228 l0 132 -25 0 c-16 0 -25 -6 -25 -16
0 -13 -5 -12 -26 5 -33 26 -70 27 -110 2z m111 -46 c21 -20 25 -34 25 -80 0
-46 -4 -60 -25 -80 -13 -14 -33 -25 -45 -25 -11 0 -32 11 -45 25 -21 20 -25
34 -25 84 0 52 3 62 26 80 35 27 59 26 89 -4z"/>
<path d="M8443 7755 c-43 -18 -67 -67 -67 -137 -1 -43 5 -64 20 -85 27 -36 83
-57 127 -49 40 7 87 50 87 77 0 24 -25 24 -42 1 -36 -51 -107 -51 -133 -2 -8
16 -15 34 -15 40 0 6 37 10 100 10 l100 0 0 25 c0 39 -25 89 -55 113 -32 25
-75 28 -122 7z m101 -46 c14 -11 26 -29 26 -40 0 -17 -8 -19 -75 -19 -47 0
-75 4 -75 11 0 18 57 69 78 69 11 0 31 -9 46 -21z"/>
<path d="M9713 7760 c-43 -17 -64 -68 -61 -142 3 -58 8 -71 33 -98 36 -38 82
-47 125 -25 l33 17 -7 -33 c-8 -42 -23 -57 -63 -65 -26 -5 -37 -1 -58 20 -31
31 -55 34 -55 7 0 -35 47 -61 107 -61 47 0 59 4 84 29 l29 29 0 161 c0 154 -1
161 -20 161 -12 0 -20 -7 -20 -16 0 -13 -5 -12 -26 5 -28 22 -64 26 -101 11z
m82 -36 c25 -10 45 -58 45 -109 0 -35 -6 -52 -25 -70 -29 -30 -54 -32 -88 -5
-31 25 -43 85 -27 135 16 48 50 66 95 49z"/>
<path d="M10015 7760 c-11 -4 -31 -20 -45 -34 -31 -34 -41 -136 -17 -183 17
-32 70 -63 106 -63 40 0 89 28 106 59 14 29 14 32 -1 38 -11 4 -23 -2 -36 -20
-42 -58 -137 -37 -138 31 0 21 3 22 95 22 l95 0 0 31 c0 92 -84 153 -165 119z
m95 -50 c11 -11 20 -29 20 -40 0 -18 -7 -20 -70 -20 -62 0 -70 2 -70 19 0 25
45 61 76 61 13 0 33 -9 44 -20z"/>
<path d="M5390 7642 c0 -108 2 -121 21 -138 14 -12 36 -19 64 -19 28 0 50 7
64 19 19 17 21 17 21 3 0 -10 8 -17 20 -17 19 0 20 7 20 135 0 128 -1 135 -20
135 -18 0 -20 -7 -20 -85 0 -114 -21 -155 -79 -155 -40 0 -51 31 -51 138 0 95
-1 102 -20 102 -19 0 -20 -7 -20 -118z"/>
<path d="M7120 7625 c0 -128 1 -135 20 -135 19 0 20 7 20 135 0 128 -1 135
-20 135 -19 0 -20 -7 -20 -135z"/>
<path d="M9080 7651 c0 -94 3 -112 20 -134 30 -37 80 -45 125 -18 28 16 35 17
35 6 0 -8 9 -15 20 -15 19 0 20 7 20 135 0 125 -1 135 -19 135 -17 0 -19 -10
-23 -96 -4 -91 -6 -98 -32 -120 -32 -28 -58 -30 -80 -8 -13 12 -16 38 -16 120
l0 104 -25 0 -25 0 0 -109z"/>
<path d="M3840 7521 c0 -17 5 -31 10 -31 14 0 13 -33 -2 -48 -6 -6 -8 -15 -4
-19 4 -5 17 3 27 16 29 35 23 105 -8 109 -20 3 -23 -1 -23 -27z"/>
<path d="M10250 7521 c0 -18 6 -31 15 -33 13 -3 13 -6 0 -32 -19 -36 -12 -45
15 -21 15 13 20 31 20 67 0 45 -2 48 -25 48 -21 0 -25 -5 -25 -29z"/>
<path d="M3140 7075 l0 -65 -32 20 c-18 11 -44 20 -56 20 -60 0 -112 -67 -112
-143 1 -50 34 -113 71 -132 36 -19 82 -14 111 12 17 15 18 15 18 0 0 -10 8
-17 20 -17 19 0 20 7 20 185 0 178 -1 185 -20 185 -18 0 -20 -7 -20 -65z m-41
-82 c26 -22 43 -88 33 -128 -12 -43 -55 -71 -89 -59 -36 12 -53 47 -53 107 0
78 58 121 109 80z"/>
<path d="M7460 6955 l0 -185 25 0 c25 0 25 0 25 95 0 88 2 98 25 120 28 28 66
32 89 9 13 -12 16 -38 16 -120 l0 -104 25 0 c25 0 25 0 24 93 0 50 -5 108 -12
127 -20 58 -91 78 -141 39 l-26 -20 0 65 c0 64 -1 66 -25 66 l-25 0 0 -185z"/>
<path d="M9460 6955 c0 -178 1 -185 20 -185 18 0 20 7 20 85 0 98 16 141 56
151 14 4 36 2 50 -5 23 -10 24 -14 24 -121 l0 -110 26 0 26 0 -4 116 c-3 113
-4 116 -31 140 -35 30 -85 31 -121 3 l-26 -20 0 65 c0 59 -2 66 -20 66 -19 0
-20 -7 -20 -185z"/>
<path d="M4960 7080 c0 -33 -3 -40 -20 -40 -12 0 -20 -7 -20 -16 0 -9 9 -18
20 -21 18 -5 20 -14 20 -107 0 -113 6 -126 57 -126 36 0 47 25 16 37 -29 11
-33 24 -33 111 0 81 0 82 25 82 33 0 35 37 3 42 -19 2 -24 10 -26 41 -3 29 -7
37 -23 37 -16 0 -19 -7 -19 -40z"/>
<path d="M5540 7080 c0 -33 -3 -40 -20 -40 -12 0 -20 -7 -20 -16 0 -9 9 -18
20 -21 18 -5 20 -14 20 -107 0 -113 6 -126 57 -126 36 0 47 25 16 37 -29 11
-33 24 -33 111 0 81 0 82 25 82 33 0 35 37 3 42 -19 2 -24 10 -26 41 -3 29 -7
37 -23 37 -16 0 -19 -7 -19 -40z"/>
<path d="M8777 7113 c-4 -3 -7 -21 -7 -40 0 -23 -5 -33 -15 -33 -8 0 -15 -9
-15 -20 0 -11 7 -20 15 -20 12 0 15 -17 15 -89 0 -118 9 -141 55 -141 28 0 35
4 35 20 0 13 -7 20 -20 20 -19 0 -20 7 -20 95 0 88 1 95 20 95 13 0 20 7 20
20 0 13 -7 20 -20 20 -17 0 -20 7 -20 40 0 32 -4 40 -18 40 -10 0 -22 -3 -25
-7z"/>
<path d="M9320 7080 c0 -33 -3 -40 -20 -40 -12 0 -20 -7 -20 -16 0 -9 9 -18
20 -21 18 -5 20 -14 20 -100 0 -114 8 -133 55 -133 28 0 35 4 35 20 0 13 -7
20 -20 20 -19 0 -20 7 -20 95 0 88 1 95 20 95 13 0 20 7 20 20 0 13 -7 20 -20
20 -17 0 -20 7 -20 40 0 36 -2 40 -25 40 -22 0 -25 -4 -25 -40z"/>
<path d="M2440 7043 c-49 -18 -81 -83 -40 -83 11 0 20 4 20 9 0 31 75 55 106
33 39 -27 13 -72 -42 -72 -78 0 -135 -50 -118 -104 18 -60 80 -80 143 -48 33
17 40 18 45 6 7 -19 66 -19 66 0 0 8 -7 16 -15 20 -12 4 -15 25 -15 95 0 49
-3 97 -6 106 -13 34 -95 56 -144 38z m100 -170 c0 -34 -8 -46 -37 -62 -59 -31
-116 8 -84 57 8 14 57 29 99 31 18 1 22 -4 22 -26z"/>
<path d="M2743 7030 c-27 -16 -33 -17 -33 -5 0 8 -9 15 -20 15 -19 0 -20 -7
-20 -135 0 -125 1 -135 19 -135 17 0 19 10 23 96 4 91 6 98 32 120 32 28 58
30 80 8 13 -12 16 -38 16 -120 l0 -104 25 0 25 0 0 111 c0 109 0 111 -29 140
-35 35 -72 37 -118 9z"/>
<path d="M3448 7039 c-65 -24 -97 -158 -55 -223 24 -36 80 -59 123 -51 58 10
115 105 64 105 -11 0 -20 -6 -20 -13 0 -21 -44 -57 -68 -57 -47 0 -83 74 -67
137 9 38 44 73 72 73 23 0 63 -31 63 -50 0 -5 9 -10 20 -10 30 0 25 36 -9 71
-31 31 -71 37 -123 18z"/>
<path d="M3715 7040 c-11 -4 -31 -20 -45 -34 -34 -38 -40 -136 -10 -184 20
-32 71 -62 106 -62 38 0 87 34 105 74 24 52 23 90 0 143 -28 61 -95 89 -156
63z m80 -36 c24 -10 45 -58 45 -104 0 -33 -6 -48 -29 -71 -16 -16 -38 -29 -48
-29 -50 0 -91 70 -78 133 13 60 59 90 110 71z"/>
<path d="M4030 7043 c-8 -3 -23 -12 -32 -21 -16 -14 -18 -13 -18 1 0 10 -8 17
-20 17 -19 0 -20 -7 -20 -135 0 -125 1 -135 19 -135 17 0 19 10 23 95 3 82 7
98 28 120 27 29 52 32 74 9 13 -12 16 -38 16 -120 0 -97 1 -104 20 -104 18 0
20 7 20 80 0 97 17 146 55 156 18 4 32 1 45 -11 17 -16 20 -32 20 -122 0 -96
1 -103 20 -103 19 0 20 7 20 115 0 110 -1 117 -25 140 -30 31 -73 32 -109 4
l-26 -20 -26 20 c-26 21 -54 25 -84 14z"/>
<path d="M4438 7030 c-23 -17 -28 -19 -28 -6 0 9 -8 16 -20 16 -19 0 -20 -7
-20 -190 0 -183 1 -190 20 -190 18 0 20 7 20 66 0 36 3 64 8 62 4 -2 19 -10
34 -17 41 -21 101 -1 126 42 60 99 21 221 -75 234 -29 4 -44 0 -65 -17z m92
-38 c44 -36 35 -155 -14 -182 -71 -37 -130 54 -96 147 20 53 68 69 110 35z"/>
<path d="M4721 7037 c-48 -24 -66 -63 -66 -137 0 -62 3 -72 29 -99 51 -53 142
-50 186 6 43 55 8 74 -40 23 -17 -19 -38 -30 -54 -30 -32 0 -76 41 -76 70 0
19 6 20 95 20 l95 0 0 38 c0 92 -90 150 -169 109z m97 -44 c11 -10 23 -28 27
-40 6 -22 4 -23 -69 -23 -85 0 -96 11 -51 55 28 29 65 32 93 8z"/>
<path d="M5144 7031 c-61 -38 -82 -153 -39 -217 40 -61 143 -68 190 -12 48 57
20 81 -33 28 -19 -18 -41 -30 -57 -30 -31 0 -75 41 -75 70 0 19 6 20 100 20
64 0 100 4 100 11 0 34 -25 100 -45 119 -34 32 -101 37 -141 11z m111 -46 c45
-44 34 -55 -50 -55 -84 0 -92 9 -50 54 30 33 68 34 100 1z"/>
<path d="M5735 7040 c-11 -4 -31 -20 -45 -34 -34 -38 -40 -136 -10 -184 20
-32 71 -62 106 -62 38 0 87 34 105 74 24 52 23 90 0 143 -28 61 -95 89 -156
63z m80 -36 c24 -10 45 -58 45 -104 0 -33 -6 -48 -29 -71 -16 -16 -38 -29 -48
-29 -50 0 -91 70 -78 133 13 60 59 90 110 71z"/>
<path d="M6160 7043 c-33 -12 -60 -47 -60 -79 0 -40 12 -49 96 -77 77 -25 91
-45 50 -72 -36 -24 -94 -13 -106 21 -11 29 -50 34 -50 6 0 -73 135 -108 196
-51 17 16 24 33 24 61 0 45 -19 60 -97 78 -57 13 -77 29 -67 54 14 35 102 32
111 -4 6 -23 43 -27 43 -6 0 55 -76 92 -140 69z"/>
<path d="M6423 7035 c-43 -18 -67 -67 -67 -137 -1 -43 5 -64 20 -85 27 -36 83
-57 127 -49 40 7 87 50 87 77 0 24 -25 24 -42 1 -36 -51 -107 -51 -133 -2 -8
16 -15 34 -15 40 0 6 37 10 100 10 l100 0 0 25 c0 39 -25 89 -55 113 -32 25
-75 28 -122 7z m101 -46 c14 -11 26 -29 26 -40 0 -17 -8 -19 -75 -19 -47 0
-75 4 -75 11 0 18 57 69 78 69 11 0 31 -9 46 -21z"/>
<path d="M6704 7031 c-61 -38 -82 -153 -39 -217 40 -61 143 -68 190 -12 48 57
20 81 -33 28 -19 -18 -41 -30 -57 -30 -31 0 -75 41 -75 70 0 19 6 20 100 20
64 0 100 4 100 11 0 34 -25 100 -45 119 -34 32 -101 37 -141 11z m111 -46 c45
-44 34 -55 -50 -55 -84 0 -92 9 -50 54 30 33 68 34 100 1z"/>
<path d="M7815 7040 c-11 -4 -31 -20 -45 -34 -34 -38 -40 -136 -10 -184 20
-32 71 -62 106 -62 38 0 87 34 105 74 24 52 23 90 0 143 -28 61 -95 89 -156
63z m80 -36 c24 -10 45 -58 45 -104 0 -33 -6 -48 -29 -71 -16 -16 -38 -29 -48
-29 -50 0 -91 70 -78 133 13 60 59 90 110 71z"/>
<path d="M8241 7037 c-45 -23 -66 -63 -65 -126 1 -79 26 -121 83 -141 38 -13
45 -13 73 3 17 10 33 16 35 13 12 -12 -20 -74 -43 -85 -37 -16 -52 -14 -80 14
-22 22 -64 35 -64 19 0 -12 24 -50 39 -61 22 -17 106 -16 140 1 44 23 51 53
51 216 0 143 -1 150 -20 150 -12 0 -20 -7 -20 -16 0 -13 -5 -12 -26 5 -30 24
-68 27 -103 8z m98 -46 c25 -25 37 -102 21 -140 -15 -37 -61 -58 -94 -43 -50
23 -60 148 -16 184 29 23 65 23 89 -1z"/>
<path d="M8524 7031 c-61 -38 -82 -153 -39 -217 40 -61 143 -68 190 -12 48 57
20 81 -33 28 -19 -18 -41 -30 -57 -30 -31 0 -75 41 -75 70 0 19 6 20 100 20
64 0 100 4 100 11 0 34 -25 100 -45 119 -34 32 -101 37 -141 11z m111 -46 c45
-44 34 -55 -50 -55 -84 0 -92 9 -50 54 30 33 68 34 100 1z"/>
<path d="M8950 7038 c-37 -20 -56 -61 -45 -95 8 -23 21 -31 70 -46 75 -23 89
-31 92 -48 5 -24 -12 -39 -50 -46 -32 -5 -40 -2 -66 26 -28 30 -61 41 -61 21
0 -32 33 -70 69 -81 78 -23 154 17 154 81 0 42 -18 58 -94 78 -54 14 -65 21
-67 41 -7 47 64 57 103 15 28 -30 56 -27 48 5 -3 11 -13 27 -24 37 -24 22 -97
28 -129 12z"/>
<path d="M9803 7035 c-43 -18 -67 -67 -67 -137 -1 -43 5 -64 20 -85 27 -36 83
-57 127 -49 40 7 87 50 87 77 0 24 -25 24 -42 1 -36 -51 -107 -51 -133 -2 -8
16 -15 34 -15 40 0 6 37 10 100 10 l100 0 0 25 c0 39 -25 89 -55 113 -32 25
-75 28 -122 7z m101 -46 c14 -11 26 -29 26 -40 0 -17 -8 -19 -75 -19 -47 0
-75 4 -75 11 0 18 57 69 78 69 11 0 31 -9 46 -21z"/>
<path d="M7080 6978 c10 -35 28 -96 40 -135 18 -64 24 -73 44 -73 22 0 26 9
46 93 13 50 25 96 28 101 3 5 17 -35 32 -90 23 -89 28 -99 50 -102 24 -3 27 4
59 115 19 65 36 126 39 136 4 15 0 18 -18 15 -20 -3 -27 -16 -51 -103 -14 -55
-29 -93 -32 -85 -3 8 -10 38 -17 65 -28 124 -29 126 -57 123 -25 -3 -29 -10
-48 -88 -12 -47 -24 -92 -27 -100 -2 -8 -16 30 -29 85 -23 93 -27 100 -51 103
l-26 3 18 -63z"/>
<path d="M2380 6235 c0 -178 1 -185 20 -185 12 0 20 7 20 18 0 10 3 13 8 6 26
-40 103 -41 139 -1 33 36 43 63 43 119 0 111 -90 175 -164 117 l-26 -20 0 65
c0 59 -2 66 -20 66 -19 0 -20 -7 -20 -185z m150 45 c25 -13 43 -80 34 -125 -7
-38 -44 -75 -76 -75 -10 0 -30 12 -45 26 -23 23 -25 31 -21 86 4 48 9 65 27
79 26 21 53 24 81 9z"/>
<path d="M3230 6360 c0 -33 -3 -40 -20 -40 -13 0 -20 -7 -20 -20 0 -13 7 -20
20 -20 19 0 20 -7 20 -103 0 -114 6 -127 57 -127 40 0 45 26 8 40 -24 9 -25
13 -25 99 0 85 1 90 22 93 34 5 37 38 4 38 -24 0 -26 4 -26 40 0 33 -3 40 -20
40 -17 0 -20 -7 -20 -40z"/>
<path d="M2735 6320 c-11 -4 -31 -20 -45 -34 -31 -34 -41 -136 -17 -183 17
-32 70 -63 106 -63 40 0 89 28 106 59 14 29 14 32 -1 38 -11 4 -23 -2 -36 -20
-42 -58 -137 -37 -138 31 0 21 3 22 95 22 l95 0 0 31 c0 92 -84 153 -165 119z
m95 -50 c11 -11 20 -29 20 -40 0 -18 -7 -20 -70 -20 -62 0 -70 2 -70 19 0 25
45 61 76 61 13 0 33 -9 44 -20z"/>
<path d="M3010 6323 c-33 -12 -60 -47 -60 -79 0 -40 12 -49 96 -77 77 -25 91
-45 50 -72 -36 -24 -94 -13 -106 21 -11 29 -50 34 -50 6 0 -73 135 -108 196
-51 17 16 24 33 24 61 0 45 -19 60 -97 78 -57 13 -77 29 -67 54 14 35 102 32
111 -4 6 -23 43 -27 43 -6 0 55 -76 92 -140 69z"/>
<path d="M3555 6318 c-45 -24 -62 -78 -25 -78 11 0 20 7 20 15 0 31 83 48 108
23 7 -7 12 -22 12 -35 0 -24 -7 -27 -84 -37 -76 -10 -111 -56 -86 -115 11 -29
46 -51 78 -51 10 0 35 9 57 20 34 17 40 18 48 5 11 -20 67 -20 67 0 0 8 -7 15
-15 15 -12 0 -15 17 -15 90 0 49 -5 100 -11 114 -19 40 -107 60 -154 34z m115
-167 c0 -52 -83 -94 -118 -59 -15 15 -16 55 0 64 15 9 66 22 96 23 18 1 22 -4
22 -28z"/>
<path d="M3866 6309 c-21 -17 -26 -18 -26 -5 0 10 -9 16 -25 16 l-25 0 0 -135
0 -135 25 0 c25 0 25 0 25 95 0 88 2 98 25 120 30 31 69 32 89 3 12 -17 16
-48 16 -120 0 -98 0 -98 25 -98 25 0 25 0 24 93 0 50 -5 108 -12 127 -20 58
-91 78 -141 39z"/>
<path d="M4125 6318 c-32 -17 -45 -39 -45 -75 0 -39 20 -54 101 -77 31 -9 59
-23 63 -31 8 -23 -29 -55 -64 -55 -29 0 -70 29 -70 50 0 6 -9 10 -20 10 -26 0
-26 -29 0 -63 38 -48 150 -44 185 6 39 55 5 105 -85 127 -53 13 -76 31 -67 55
14 34 101 31 112 -5 3 -11 15 -20 26 -20 30 0 23 35 -12 64 -33 28 -88 34
-124 14z"/>
<path d="M4785 6320 c-11 -4 -31 -20 -45 -34 -31 -34 -41 -136 -17 -183 17
-32 70 -63 106 -63 40 0 89 28 106 59 14 29 14 32 -1 38 -11 4 -23 -2 -36 -20
-42 -58 -137 -37 -138 31 0 21 3 22 95 22 l95 0 0 31 c0 92 -84 153 -165 119z
m95 -50 c11 -11 20 -29 20 -40 0 -18 -7 -20 -70 -20 -62 0 -70 2 -70 19 0 25
45 61 76 61 13 0 33 -9 44 -20z"/>
<path d="M5087 6310 c-22 -18 -27 -19 -27 -6 0 10 -9 16 -25 16 l-25 0 0 -135
0 -135 25 0 c25 0 25 0 25 93 0 103 8 123 55 135 20 6 30 15 30 28 0 27 -27
28 -58 4z"/>
<path d="M5217 6315 c-51 -29 -59 -100 -14 -124 12 -7 44 -18 71 -24 52 -14
73 -34 63 -60 -15 -39 -103 -31 -122 11 -13 30 -45 29 -45 -1 0 -53 85 -90
155 -67 34 11 65 51 65 83 0 31 -37 59 -100 76 -44 12 -66 24 -68 35 -10 48
75 65 104 21 18 -27 54 -34 54 -11 0 8 -10 27 -23 41 -29 34 -98 43 -140 20z"/>
<path d="M4322 6308 c3 -7 20 -68 39 -136 32 -117 35 -123 59 -120 22 3 26 12
48 102 15 57 28 93 32 85 4 -8 17 -53 30 -101 20 -79 25 -88 46 -88 20 0 26 9
44 73 12 39 30 100 40 135 l18 62 -22 0 c-20 0 -26 -10 -46 -87 -12 -49 -26
-94 -30 -102 -4 -8 -17 28 -30 88 -22 98 -24 101 -50 101 -27 0 -29 -4 -50
-92 -13 -51 -25 -97 -28 -102 -3 -5 -16 36 -29 92 -23 96 -26 102 -50 102 -16
0 -23 -5 -21 -12z"/>
<path d="M5457 6104 c-4 -4 -7 -18 -7 -31 0 -19 5 -23 31 -23 27 0 30 3 27 28
-3 26 -34 43 -51 26z"/>
<path d="M2135 3083 c-60 -15 -160 -54 -199 -77 -71 -41 -155 -160 -156 -220
0 -15 -5 -17 -27 -11 -16 4 -52 11 -82 16 -184 30 -357 -129 -369 -340 -5 -91
8 -143 51 -208 l32 -48 -50 -30 c-59 -36 -110 -100 -126 -158 -25 -92 36 -222
124 -266 92 -46 255 -22 384 56 31 18 57 32 58 31 2 -2 12 -22 24 -45 37 -74
118 -113 235 -113 103 0 172 23 222 74 22 22 46 50 51 60 10 18 14 17 58 -22
70 -62 140 -85 255 -86 72 -1 108 4 149 19 67 25 146 94 161 141 9 27 16 34
29 28 159 -70 277 -59 385 36 103 91 106 263 7 370 -19 19 -28 36 -22 38 30
10 71 57 87 97 22 58 14 120 -27 202 -46 96 -124 143 -235 143 -52 0 -54 1
-54 28 0 15 -12 52 -26 81 -63 125 -235 184 -399 136 -46 -13 -69 -28 -110
-70 l-52 -53 -16 34 c-25 51 -80 107 -134 134 -37 19 -66 25 -128 27 -44 1
-89 -1 -100 -4z m200 -39 c56 -20 112 -72 153 -143 l28 -51 31 44 c82 116 293
139 429 45 52 -36 94 -114 94 -177 0 -36 3 -43 16 -38 106 41 231 -9 284 -114
56 -111 49 -180 -25 -249 l-45 -41 35 -45 c82 -108 73 -241 -23 -327 -57 -51
-102 -68 -183 -68 -59 0 -77 5 -142 38 l-74 38 -12 -57 c-9 -47 -19 -64 -54
-96 -63 -59 -123 -78 -238 -78 -89 0 -99 2 -170 37 -41 20 -85 48 -98 62 l-23
25 -50 -54 c-64 -71 -117 -89 -237 -83 -136 7 -200 53 -217 156 -4 23 -8 42
-10 42 -3 0 -28 -19 -57 -43 -57 -47 -124 -79 -213 -102 -137 -36 -230 1 -280
110 -46 98 -21 185 75 261 31 24 62 44 69 44 8 0 12 3 10 8 -1 4 -16 34 -33
67 -27 54 -30 69 -30 155 0 81 4 103 26 150 33 71 79 123 138 158 40 24 56 27
126 26 58 0 93 -6 127 -21 51 -23 58 -19 58 36 0 41 56 145 96 180 44 39 101
69 189 97 83 27 164 30 230 8z"/>
<path d="M2301 2728 c-15 -35 -33 -78 -41 -97 -8 -19 -16 -29 -18 -23 -2 7
-19 12 -38 12 -26 0 -32 3 -28 15 4 8 3 37 -1 63 -7 41 -9 44 -16 22 -7 -23
-7 -23 -8 8 -1 27 -5 32 -26 32 -29 0 -31 -15 -12 -125 12 -69 13 -70 42 -68
26 2 27 1 10 -7 -16 -8 -13 -9 15 -5 94 13 125 19 130 24 11 14 75 31 78 21 5
-14 49 -12 55 3 4 9 6 9 6 -1 1 -7 -9 -17 -21 -22 l-23 -9 22 0 c12 -1 25 4
28 9 3 6 18 10 33 9 l27 -1 -25 -8 -25 -8 26 -1 c28 -1 40 20 38 69 -1 23 -2
23 -9 -5 l-8 -30 -1 33 c0 17 2 32 7 32 4 0 25 -22 47 -50 42 -53 50 -58 59
-37 3 6 3 1 0 -12 -4 -15 -2 -21 4 -17 6 3 13 30 16 59 16 127 16 133 7 112
-8 -17 -10 -15 -10 13 -1 27 -5 32 -26 32 -21 0 -25 -5 -25 -27 0 -56 -15 -58
-55 -9 -20 25 -43 46 -50 46 -9 0 -15 -26 -20 -82 -7 -79 -8 -81 -22 -55 -8
15 -18 25 -23 22 -6 -3 -7 1 -4 9 7 20 -14 58 -28 50 -6 -4 -8 -3 -5 4 9 13
-2 44 -13 37 -4 -3 -10 2 -14 10 -11 29 -27 15 -55 -47z m59 -60 c0 -5 -7 -8
-15 -8 -15 0 -20 21 -8 33 7 7 23 -11 23 -25z m-193 -15 c-3 -10 -5 -4 -5 12
0 17 2 24 5 18 2 -7 2 -21 0 -30z m470 -20 c-3 -10 -5 -2 -5 17 0 19 2 27 5
18 2 -10 2 -26 0 -35z m-392 -53 c-3 -5 -16 -10 -28 -9 -20 1 -20 2 3 9 14 4
26 8 28 9 2 1 0 -3 -3 -9z m52 4 c-3 -3 -12 -4 -19 -1 -8 3 -5 6 6 6 11 1 17
-2 13 -5z"/>
<path d="M1971 2730 c-13 -3 -34 -18 -45 -33 -19 -26 -19 -30 -5 -55 11 -21
24 -28 54 -31 32 -3 36 -5 20 -11 -20 -9 -20 -9 1 -9 11 -1 26 5 33 12 11 10
13 9 9 -3 -3 -9 -18 -15 -39 -16 -56 -2 -59 -3 -59 -19 0 -16 27 -30 78 -41
21 -4 24 -3 12 5 -13 9 -13 11 1 11 20 0 55 38 62 68 3 13 3 21 0 18 -3 -3
-12 2 -19 12 -9 12 -26 17 -61 17 -36 0 -48 4 -48 15 0 11 11 15 42 15 23 0
48 6 55 14 7 8 8 11 2 8 -7 -4 -14 -1 -17 7 -6 16 -43 24 -76 16z"/>
<path d="M2711 2724 c-13 -9 -30 -32 -38 -51 -28 -69 18 -131 99 -134 l33 -2
-35 -7 -35 -7 38 -2 c50 -1 103 46 93 84 -3 13 -2 27 4 30 5 3 10 11 10 18 0
6 -6 2 -14 -9 -8 -11 -18 -15 -23 -10 -4 5 -2 11 5 13 22 8 13 41 -19 67 -35
30 -83 34 -118 10z m102 -56 c24 -24 21 -30 -12 -23 -35 8 -52 -20 -24 -41 17
-12 17 -13 1 -19 -30 -12 -57 12 -55 48 2 17 6 37 10 43 10 17 61 12 80 -8z
m37 -91 c0 -2 -10 -12 -22 -23 l-23 -19 19 23 c18 21 26 27 26 19z"/>
<path d="M2735 2669 c-11 -17 1 -21 15 -4 8 9 8 15 2 15 -6 0 -14 -5 -17 -11z"/>
<path d="M2050 2680 c-13 -8 -13 -10 2 -10 9 0 20 5 23 10 8 13 -5 13 -25 0z"/>
<path d="M1970 2669 c0 -5 5 -7 10 -4 6 3 10 8 10 11 0 2 -4 4 -10 4 -5 0 -10
-5 -10 -11z"/>
<path d="M2101 2597 c-1 -10 -13 -30 -28 -44 -16 -14 -22 -24 -14 -21 22 6 54
54 48 69 -4 10 -6 8 -6 -4z"/>
<path d="M2120 2436 c0 -17 24 -38 33 -29 4 3 7 -19 7 -50 0 -31 4 -57 9 -57
5 0 16 -3 25 -6 13 -5 16 3 16 50 0 43 3 56 15 56 16 0 19 9 9 34 -8 21 -114
23 -114 2z m77 -78 c-2 -13 -4 -5 -4 17 -1 22 1 32 4 23 2 -10 2 -28 0 -40z
m0 -50 c-3 -8 -6 -5 -6 6 -1 11 2 17 5 13 3 -3 4 -12 1 -19z"/>
<path d="M2250 2375 c0 -41 4 -75 9 -75 5 0 16 -3 24 -6 17 -6 30 53 13 60 -6
2 -1 5 12 5 18 1 22 -4 22 -29 0 -19 5 -30 15 -31 25 -2 93 -1 118 1 21 2 21
2 -3 10 l-25 8 27 1 c15 1 29 -3 32 -8 10 -16 56 -20 56 -5 0 8 -5 14 -11 14
-5 0 -8 4 -4 9 8 14 -16 61 -28 54 -6 -3 -7 -1 -4 5 9 13 -2 44 -13 37 -4 -3
-11 3 -14 12 -9 22 -21 9 -56 -63 l-28 -59 -3 60 -3 60 -6 -70 -6 -70 -2 78
c-2 69 -4 78 -19 75 -11 -2 -19 -14 -21 -31 -2 -19 -9 -27 -22 -27 -13 0 -17
5 -14 15 7 18 -12 45 -32 45 -11 0 -14 -18 -14 -75z"/>
<path d="M2545 2440 c-8 -13 14 -42 26 -34 5 3 9 -19 9 -49 0 -51 2 -55 26
-60 25 -5 26 -4 22 52 -3 55 -2 57 20 53 16 -3 22 0 22 14 0 16 -2 17 -10 4
-8 -12 -10 -11 -10 8 0 20 -5 22 -49 22 -28 0 -53 -5 -56 -10z"/>
<path d="M1843 2245 c-3 -9 2 -22 13 -30 18 -13 18 -15 -5 -80 -20 -56 -21
-69 -10 -76 20 -13 27 -11 38 9 6 9 10 13 11 7 0 -21 -18 -38 -35 -32 -9 4
-14 3 -10 -3 3 -6 15 -10 25 -10 14 0 24 16 40 65 21 64 31 73 59 56 11 -7 12
-17 2 -54 -18 -74 -15 -90 14 -85 28 6 35 -8 8 -15 -14 -4 -13 -5 4 -6 16 -1
23 6 28 29 4 16 14 34 23 40 14 8 13 9 -7 10 -13 0 -22 3 -18 6 3 4 17 4 31 0
22 -5 24 -10 19 -46 -4 -27 -2 -40 6 -40 7 0 10 -4 6 -9 -5 -9 33 -27 39 -19
4 4 46 175 46 185 0 4 -5 1 -11 -7 -8 -12 -9 -10 -7 10 2 21 -1 25 -22 25 -17
0 -26 -7 -30 -25 -6 -26 -29 -36 -58 -25 -16 6 -16 7 1 16 9 6 17 15 17 22 0
8 -4 6 -11 -3 -9 -12 -10 -11 -6 8 7 28 -26 50 -49 31 -11 -9 -14 -8 -14 3 0
9 -23 24 -59 37 -69 25 -70 25 -78 6z m137 -71 c0 -3 -13 -3 -29 -2 -16 1 -28
5 -26 9 5 6 55 0 55 -7z m-79 -71 c-12 -20 -14 -14 -5 12 4 9 9 14 11 11 3 -2
0 -13 -6 -23z m246 -5 c-3 -8 -6 -5 -6 6 -1 11 2 17 5 13 3 -3 4 -12 1 -19z
m-10 -50 c-3 -7 -5 -2 -5 12 0 14 2 19 5 13 2 -7 2 -19 0 -25z m-120 -10 c-3
-8 -6 -5 -6 6 -1 11 2 17 5 13 3 -3 4 -12 1 -19z m110 -30 c-3 -8 -6 -5 -6 6
-1 11 2 17 5 13 3 -3 4 -12 1 -19z"/>
<path d="M2878 2253 c-24 -6 -23 -18 7 -80 26 -57 35 -62 59 -37 15 14 16 14
17 -3 0 -11 3 -13 6 -5 7 19 -29 112 -44 112 -7 0 -13 5 -13 10 0 10 -3 11
-32 3z"/>
<path d="M2780 2208 c0 -6 8 -35 17 -65 18 -56 42 -70 62 -35 9 15 10 15 11
-5 0 -13 -6 -23 -14 -23 -18 0 -37 -23 -28 -36 19 -28 72 -22 72 9 0 6 -6 3
-13 -7 -12 -16 -13 -13 -10 25 3 51 -20 135 -36 132 -6 -2 -11 2 -11 7 0 6
-11 10 -25 10 -14 0 -25 -5 -25 -12z m77 -70 c-3 -8 -6 -5 -6 6 -1 11 2 17 5
13 3 -3 4 -12 1 -19z"/>
<path d="M2650 2183 c-55 -20 -80 -80 -56 -136 17 -42 47 -61 96 -59 27 1 32
-1 20 -9 -11 -8 -9 -9 10 -4 40 10 80 60 79 98 l-1 32 -8 -30 -8 -30 -2 35
c-2 19 -2 44 -2 55 2 16 0 17 -8 5 -8 -13 -10 -13 -10 2 0 31 -68 56 -110 41z
m15 -53 c-8 -13 8 -13 21 0 8 8 20 7 40 -1 30 -12 29 -13 -18 -23 -20 -5 -25
-11 -21 -25 3 -11 15 -22 27 -24 20 -3 20 -4 -5 -16 -21 -10 -31 -10 -49 -1
-12 6 -20 17 -17 23 2 7 7 23 11 37 l7 25 -15 -25 c-9 -14 -15 -20 -16 -15 0
12 28 55 36 55 3 0 2 -4 -1 -10z m101 -118 c-17 -16 -18 -16 -5 5 7 12 15 20
18 17 3 -2 -3 -12 -13 -22z"/>
<path d="M2204 2073 c-27 -48 -50 -91 -52 -95 -5 -12 46 -10 53 2 10 15 71 12
85 -5 7 -8 27 -16 44 -16 l31 -1 -30 -8 -30 -8 27 -1 c15 0 29 3 32 8 6 9 -54
184 -61 178 -2 -3 1 -17 7 -32 6 -15 9 -30 6 -32 -2 -2 -12 18 -21 46 -9 28
-22 51 -29 51 -7 0 -35 -39 -62 -87z m66 -29 c0 -8 -7 -14 -15 -14 -17 0 -18
2 -9 24 7 18 24 12 24 -10z"/>
<path d="M2498 2114 l-3 -46 -47 41 c-25 23 -51 41 -57 41 -12 0 -15 -91 -5
-152 5 -31 11 -38 30 -38 16 0 24 7 27 23 l4 22 2 -23 c1 -15 -7 -26 -21 -32
-22 -8 -22 -9 5 -9 25 -1 27 2 27 38 0 22 -4 43 -10 46 -5 3 -10 11 -10 16 0
6 22 -9 50 -32 29 -24 55 -39 64 -36 11 4 13 1 9 -11 -4 -11 -3 -14 4 -7 7 6
8 44 4 100 l-6 90 -6 -60 -6 -60 -1 68 c-2 64 -3 67 -26 67 -22 0 -25 -5 -28
-46z"/>
<path d="M2933 2113 c-14 -5 -18 -42 -5 -44 41 -7 57 -2 59 16 l3 20 -9 -20
c-8 -19 -9 -19 -12 4 -4 25 -15 33 -36 24z"/>
<path d="M2205 1970 c-3 -5 -16 -11 -28 -11 -19 -1 -19 -2 -3 -6 10 -3 28 0
40 6 11 5 32 12 46 14 18 3 14 5 -12 6 -20 0 -40 -3 -43 -9z"/>
<path d="M1580 1617 c-49 -38 -61 -89 -33 -138 26 -43 77 -64 123 -50 53 16
75 44 75 96 0 35 -6 50 -29 74 -25 26 -37 31 -75 31 -25 0 -53 -6 -61 -13z
m107 -39 c48 -45 18 -128 -46 -128 -34 0 -81 48 -81 84 0 62 78 90 127 44z"/>
<path d="M1420 1330 c-45 -45 -4 -130 62 -130 44 0 82 43 74 83 -3 17 -14 39
-23 49 -23 25 -87 24 -113 -2z m94 -16 c36 -35 7 -98 -42 -92 -64 7 -66 108
-3 108 16 0 37 -7 45 -16z"/>
</g>
</svg>
