<?xml version="1.0" standalone="no"?>
<!DOCTYPE svg PUBLIC "-//W3C//DTD SVG 20010904//EN"
 "http://www.w3.org/TR/2001/REC-SVG-20010904/DTD/svg10.dtd">
<svg version="1.0" xmlns="http://www.w3.org/2000/svg"
 width="1284.000000pt" height="2778.000000pt" viewBox="0 0 1284.000000 2778.000000"
 preserveAspectRatio="xMidYMid meet">

<g transform="translate(0.000000,2778.000000) scale(0.100000,-0.100000)"
fill="#000000" stroke="none">
<path d="M4095 23727 c-67 -22 -101 -44 -139 -88 -50 -59 -70 -125 -70 -234 0
-76 5 -99 28 -151 51 -114 134 -166 265 -167 127 -1 224 59 273 167 19 43 22
68 22 156 0 88 -3 113 -23 157 -26 59 -94 127 -148 149 -50 21 -159 27 -208
11z m148 -111 c42 -17 83 -66 97 -114 15 -54 12 -142 -6 -195 -51 -150 -253
-149 -306 1 -22 63 -16 170 12 227 40 79 126 114 203 81z"/>
<path d="M6436 23724 c-71 -23 -146 -101 -171 -179 -27 -83 -25 -210 4 -286
26 -67 97 -139 157 -159 69 -24 163 -18 227 14 64 31 100 71 128 145 l19 51
-65 0 -65 0 -20 -40 c-24 -47 -64 -70 -122 -70 -98 0 -148 72 -148 212 0 100
25 160 79 192 68 39 160 18 192 -45 l19 -39 65 0 64 0 -14 45 c-19 66 -57 110
-120 140 -69 34 -159 41 -229 19z"/>
<path d="M4590 23410 l0 -310 168 0 c188 0 227 7 279 53 82 72 85 192 6 258
l-29 25 27 27 c48 47 51 137 7 192 -43 55 -85 65 -280 65 l-178 0 0 -310z
m341 190 c14 -8 19 -21 19 -50 0 -59 -23 -70 -142 -70 l-98 0 0 65 0 65 101 0
c55 0 109 -5 120 -10z m16 -256 c21 -21 24 -32 19 -62 -9 -61 -32 -72 -152
-72 l-104 0 0 80 0 80 105 0 c100 0 107 -1 132 -26z"/>
<path d="M5430 23472 c0 -228 -2 -250 -18 -265 -25 -23 -78 -21 -102 3 -15 15
-20 33 -20 70 l0 50 -66 0 -66 0 7 -62 c14 -129 70 -180 199 -181 91 0 141 22
173 79 22 38 23 49 23 297 l0 257 -65 0 -65 0 0 -248z"/>
<path d="M5690 23410 l0 -310 235 0 235 0 0 55 0 55 -170 0 -170 0 0 80 0 80
150 0 150 0 0 55 0 55 -150 0 -150 0 0 65 0 65 165 0 165 0 0 55 0 55 -230 0
-230 0 0 -310z"/>
<path d="M6840 23665 l0 -55 95 0 95 0 0 -255 0 -255 65 0 65 0 0 255 0 255
95 0 95 0 0 55 0 55 -255 0 -255 0 0 -55z"/>
<path d="M7410 23410 l0 -310 65 0 65 0 0 310 0 310 -65 0 -65 0 0 -310z"/>
<path d="M7622 23708 c3 -7 50 -147 104 -310 l99 -298 61 0 c50 0 63 3 69 18
4 9 49 141 100 292 51 151 96 283 100 293 6 15 0 17 -61 17 l-69 0 -65 -230
c-36 -126 -68 -226 -71 -222 -4 4 -35 107 -70 230 l-63 222 -69 0 c-51 0 -68
-3 -65 -12z"/>
<path d="M8240 23410 l0 -310 240 0 240 0 0 55 0 55 -175 0 -175 0 0 80 0 80
150 0 150 0 0 55 0 55 -150 0 -150 0 0 65 0 65 165 0 165 0 0 55 0 55 -230 0
-230 0 0 -310z"/>
<path d="M4145 21355 c-19 -18 -25 -35 -25 -70 0 -41 -2 -45 -25 -45 -18 0
-25 -5 -25 -20 0 -15 7 -20 25 -20 l25 0 0 -150 0 -150 30 0 30 0 0 150 0 150
30 0 c23 0 30 4 30 20 0 16 -7 20 -30 20 -27 0 -30 3 -30 33 0 37 15 57 42 57
13 0 18 8 18 25 0 22 -4 25 -35 25 -25 0 -44 -8 -60 -25z"/>
<path d="M2030 21135 l0 -235 123 0 c96 0 129 4 157 18 45 22 80 75 80 121 0
43 -30 97 -60 106 -21 7 -21 7 4 32 33 33 42 80 23 126 -24 56 -56 67 -202 67
l-125 0 0 -235z m240 170 c25 -13 30 -22 30 -54 0 -59 -24 -74 -125 -79 l-85
-5 0 77 0 76 75 0 c49 0 87 -6 105 -15z m14 -196 c51 -24 57 -105 10 -136 -16
-10 -57 -17 -114 -21 l-90 -5 0 87 0 86 85 0 c46 0 95 -5 109 -11z"/>
<path d="M3190 21135 l0 -235 30 0 30 0 0 121 c0 120 0 121 29 150 21 21 39
29 65 29 60 0 66 -14 66 -166 l0 -134 30 0 30 0 0 136 c0 140 -6 165 -44 196
-31 25 -110 24 -147 -3 l-29 -20 0 80 0 81 -30 0 -30 0 0 -235z"/>
<path d="M4290 21340 c0 -27 3 -30 30 -30 27 0 30 3 30 30 0 27 -3 30 -30 30
-27 0 -30 -3 -30 -30z"/>
<path d="M9530 21340 c0 -27 3 -30 30 -30 27 0 30 3 30 30 0 27 -3 30 -30 30
-27 0 -30 -3 -30 -30z"/>
<path d="M10730 21135 l0 -235 30 0 c21 0 30 5 30 17 0 15 2 14 20 -2 29 -26
98 -30 140 -7 102 56 109 276 10 327 -43 22 -112 19 -144 -6 l-26 -20 0 80 0
81 -30 0 -30 0 0 -235z m195 59 c42 -17 61 -144 30 -204 -30 -58 -90 -67 -137
-20 -29 29 -30 33 -26 105 3 61 7 78 27 99 24 26 69 34 106 20z"/>
<path d="M7933 21340 c-35 -21 -57 -56 -66 -107 -6 -31 -5 -33 22 -33 24 0 30
6 40 40 6 21 21 46 34 55 42 30 116 13 136 -32 26 -56 2 -97 -85 -148 -101
-59 -131 -89 -149 -148 -8 -28 -15 -54 -15 -59 0 -4 72 -8 160 -8 l160 0 0 25
0 25 -125 0 c-96 0 -125 3 -125 13 0 21 58 70 138 116 40 23 79 53 88 66 41
62 22 158 -38 195 -44 27 -131 27 -175 0z"/>
<path d="M8380 21330 c-15 -36 -37 -50 -79 -50 -26 0 -31 -4 -31 -25 0 -24 3
-25 55 -25 l55 0 0 -165 0 -165 30 0 30 0 0 230 0 230 -24 0 c-17 0 -27 -9
-36 -30z"/>
<path d="M3020 21290 c0 -47 -2 -50 -25 -50 -18 0 -25 -5 -25 -20 0 -15 7 -20
25 -20 l25 0 0 -128 c0 -152 8 -172 71 -172 35 0 39 3 39 25 0 20 -5 25 -25
25 l-25 0 0 125 0 125 25 0 c18 0 25 5 25 20 0 15 -7 20 -25 20 -23 0 -25 3
-25 50 0 49 -1 50 -30 50 -29 0 -30 -1 -30 -50z"/>
<path d="M4998 21293 c-3 -41 -6 -48 -25 -51 -33 -5 -31 -42 2 -42 l25 0 0
-134 c0 -154 5 -166 71 -166 35 0 39 3 39 25 0 20 -5 25 -25 25 l-25 0 0 125
0 125 25 0 c18 0 25 5 25 20 0 15 -7 20 -25 20 -23 0 -25 3 -25 50 0 49 -1 50
-29 50 -28 0 -30 -2 -33 -47z"/>
<path d="M5368 21293 c-3 -41 -6 -48 -25 -51 -15 -2 -23 -10 -23 -22 0 -12 8
-20 23 -22 21 -3 22 -7 25 -137 1 -79 7 -140 14 -148 6 -7 30 -13 54 -13 40 0
44 2 44 25 0 20 -5 25 -25 25 -32 0 -37 19 -33 145 l3 100 28 3 c19 2 27 9 27
22 0 13 -8 20 -27 22 -26 3 -28 7 -31 51 -3 42 -6 47 -27 47 -21 0 -24 -5 -27
-47z"/>
<path d="M10050 21290 c0 -43 -3 -50 -20 -50 -13 0 -20 -7 -20 -20 0 -13 7
-20 20 -20 19 0 20 -7 20 -122 0 -155 7 -172 74 -176 44 -3 47 -2 44 20 -2 14
-12 24 -28 28 -25 6 -25 7 -28 128 l-3 122 31 0 c23 0 30 4 30 19 0 14 -8 21
-27 23 -26 3 -28 7 -31 51 -3 45 -5 47 -33 47 -28 0 -29 -1 -29 -50z"/>
<path d="M2534 21240 c-71 -28 -113 -151 -83 -241 42 -124 205 -147 276 -40
30 44 29 51 -6 51 -21 0 -32 -6 -36 -20 -7 -23 -53 -50 -85 -50 -32 0 -78 27
-84 50 -19 66 -30 60 108 60 l126 0 0 42 c0 54 -32 119 -69 141 -31 18 -110
22 -147 7z m131 -65 c14 -13 25 -36 25 -50 l0 -25 -96 0 c-94 0 -95 0 -89 23
4 12 19 34 33 50 35 36 92 38 127 2z"/>
<path d="M3634 21240 c-71 -28 -113 -151 -83 -241 42 -124 205 -147 276 -40
30 44 29 51 -6 51 -21 0 -32 -6 -36 -20 -7 -23 -53 -50 -85 -50 -32 0 -78 27
-84 50 -19 66 -30 60 108 60 l126 0 0 42 c0 54 -32 119 -69 141 -31 18 -110
22 -147 7z m131 -65 c14 -13 25 -36 25 -50 l0 -25 -96 0 c-94 0 -95 0 -89 23
4 12 19 34 33 50 35 36 92 38 127 2z"/>
<path d="M4527 21223 c-26 -27 -27 -27 -27 -5 0 18 -6 22 -30 22 l-30 0 0
-170 0 -170 30 0 30 0 0 111 c0 138 18 178 83 179 23 0 27 4 27 30 0 26 -4 30
-28 30 -17 0 -38 -11 -55 -27z"/>
<path d="M4698 21234 c-36 -19 -48 -43 -48 -93 0 -49 20 -65 107 -88 100 -25
131 -63 81 -97 -46 -33 -148 -5 -148 40 0 9 -11 14 -29 14 -28 0 -29 -1 -21
-31 12 -41 28 -59 67 -76 91 -37 196 7 209 88 9 53 -21 83 -103 104 -107 28
-134 53 -97 89 32 32 134 13 134 -25 0 -5 13 -9 29 -9 29 0 30 1 19 30 -17 49
-52 70 -117 70 -31 -1 -68 -7 -83 -16z"/>
<path d="M5590 21228 c-53 -37 -72 -81 -68 -165 2 -53 9 -79 24 -99 50 -68
115 -88 189 -59 119 45 135 250 26 322 -47 32 -125 32 -171 1z m149 -52 c43
-46 47 -141 7 -201 -35 -53 -130 -38 -156 25 -20 48 -9 144 20 175 32 35 97
35 129 1z"/>
<path d="M6128 21234 c-36 -19 -48 -43 -48 -93 0 -49 20 -65 107 -88 100 -25
131 -63 81 -97 -46 -33 -148 -5 -148 40 0 9 -11 14 -29 14 -28 0 -29 -1 -21
-31 12 -41 28 -59 67 -76 91 -37 196 7 209 88 9 53 -21 83 -103 104 -107 28
-134 53 -97 89 32 32 134 13 134 -25 0 -5 13 -9 29 -9 29 0 30 1 19 30 -17 49
-52 70 -117 70 -31 -1 -68 -7 -83 -16z"/>
<path d="M6485 21240 c-82 -34 -120 -171 -74 -267 48 -99 194 -111 249 -21 27
45 26 68 -4 68 -17 0 -29 -9 -38 -27 -27 -57 -94 -68 -137 -22 -41 44 -38 157
4 203 40 43 116 32 135 -20 11 -28 60 -35 60 -9 0 25 -28 72 -52 89 -24 17
-109 21 -143 6z"/>
<path d="M6800 21227 c-51 -34 -73 -80 -74 -151 -1 -82 25 -133 85 -164 109
-57 219 11 227 142 5 80 -21 146 -70 176 -47 28 -124 27 -168 -3z m157 -66
c29 -42 32 -128 6 -172 -22 -37 -64 -54 -106 -43 -24 7 -38 20 -56 57 -29 59
-23 121 16 167 23 28 31 31 71 28 40 -3 50 -8 69 -37z"/>
<path d="M7199 21219 l-29 -31 0 26 c0 21 -5 26 -25 26 l-25 0 0 -170 0 -170
30 0 30 0 0 119 c0 135 9 157 70 170 28 5 36 12 38 34 3 24 0 27 -28 27 -23 0
-40 -9 -61 -31z"/>
<path d="M7404 21240 c-71 -28 -113 -151 -83 -241 42 -124 205 -147 276 -40
30 44 29 51 -6 51 -21 0 -32 -6 -36 -20 -7 -23 -53 -50 -85 -50 -32 0 -78 27
-84 50 -19 66 -30 60 108 60 l126 0 0 42 c0 54 -32 119 -69 141 -31 18 -110
22 -147 7z m131 -65 c14 -13 25 -36 25 -50 l0 -25 -96 0 c-94 0 -95 0 -89 23
4 12 19 34 33 50 35 36 92 38 127 2z"/>
<path d="M8871 21224 c-30 -25 -31 -25 -31 -5 0 16 -6 21 -25 21 l-25 0 0
-241 0 -240 28 3 c27 3 27 4 30 86 l3 82 29 -21 c44 -33 114 -22 156 24 52 56
70 160 40 230 -35 85 -140 116 -205 61z m128 -48 c44 -47 41 -164 -6 -210 -69
-70 -166 14 -148 127 9 49 29 93 47 100 35 14 85 6 107 -17z"/>
<path d="M9235 21240 c-88 -36 -123 -192 -62 -281 47 -68 151 -89 215 -42 95
68 93 254 -2 313 -35 21 -112 26 -151 10z m117 -51 c27 -14 48 -68 48 -122 0
-81 -65 -143 -126 -121 -76 27 -99 163 -39 228 26 28 79 35 117 15z"/>
<path d="M9770 21233 c-14 -9 -28 -22 -32 -27 -4 -6 -8 -1 -8 12 0 18 -6 22
-30 22 l-30 0 0 -170 0 -170 30 0 30 0 0 110 c0 148 22 190 98 190 55 0 66
-26 70 -171 4 -128 5 -129 28 -129 l24 0 0 146 0 146 -29 29 c-25 24 -38 29
-78 29 -29 0 -58 -7 -73 -17z"/>
<path d="M10275 21241 c-31 -13 -55 -45 -61 -82 -9 -54 21 -83 106 -104 86
-21 116 -42 105 -74 -18 -57 -147 -52 -161 6 -5 17 -13 23 -35 23 -33 0 -35
-9 -13 -56 29 -62 152 -84 220 -39 54 35 64 121 17 152 -13 9 -59 26 -101 37
-65 18 -78 25 -80 44 -5 36 15 52 68 52 40 0 52 -5 68 -25 37 -46 79 -26 52
26 -23 41 -126 64 -185 40z"/>
<path d="M4290 21070 l0 -170 30 0 30 0 0 170 0 170 -30 0 -30 0 0 -170z"/>
<path d="M9530 21070 l0 -170 30 0 30 0 0 170 0 170 -30 0 -30 0 0 -170z"/>
<path d="M11072 21228 c3 -7 31 -87 63 -177 l58 -164 -19 -36 c-14 -26 -27
-37 -46 -39 -22 -3 -28 -8 -28 -28 0 -23 3 -25 42 -22 63 4 72 22 207 396 l30
82 -32 0 -33 0 -45 -137 -46 -138 -45 135 c-45 135 -45 135 -78 138 -24 3 -31
0 -28 -10z"/>
<path d="M1620 21100 c-33 -33 -30 -75 6 -107 33 -30 69 -29 99 2 50 49 19
125 -50 125 -22 0 -43 -8 -55 -20z"/>
<path d="M3780 20420 c0 -27 3 -30 30 -30 27 0 30 3 30 30 0 27 -3 30 -30 30
-27 0 -30 -3 -30 -30z"/>
<path d="M5800 20363 c-1 -71 -3 -85 -13 -72 -50 65 -172 46 -213 -33 -25 -48
-24 -152 2 -203 40 -77 122 -106 189 -67 28 17 35 18 35 7 0 -10 10 -15 30
-15 l30 0 0 235 0 235 -30 0 -30 0 0 -87z m-48 -94 c47 -25 64 -147 28 -206
-26 -43 -80 -54 -118 -26 -57 42 -66 169 -17 219 26 26 72 32 107 13z"/>
<path d="M6820 20420 c0 -27 3 -30 30 -30 27 0 30 3 30 30 0 27 -3 30 -30 30
-27 0 -30 -3 -30 -30z"/>
<path d="M8210 20215 l0 -235 30 0 30 0 0 235 0 235 -30 0 -30 0 0 -235z"/>
<path d="M10930 20364 l0 -86 -31 26 c-65 55 -170 24 -205 -61 -31 -74 -11
-182 43 -235 30 -29 41 -33 88 -33 43 0 59 5 79 24 26 24 26 24 26 3 0 -17 6
-22 25 -22 l25 0 0 235 0 235 -25 0 c-25 0 -25 -1 -25 -86z m-40 -109 c27 -28
40 -100 29 -155 -13 -63 -78 -97 -131 -69 -59 32 -66 192 -9 236 28 22 85 16
111 -12z"/>
<path d="M2069 20307 c-66 -44 -84 -168 -38 -259 36 -71 119 -98 184 -60 35
21 35 21 35 1 0 -11 -6 -35 -14 -53 -25 -60 -119 -72 -153 -20 -18 28 -63 33
-63 8 0 -51 54 -84 136 -84 65 0 113 24 134 67 10 20 15 84 18 221 l4 192 -31
0 c-24 0 -31 -4 -31 -20 0 -18 -2 -17 -26 5 -36 34 -107 34 -155 2z m133 -38
c64 -34 63 -204 -1 -239 -79 -42 -151 44 -134 159 10 76 73 113 135 80z"/>
<path d="M2812 20310 c-92 -56 -98 -248 -9 -314 35 -26 113 -32 160 -13 34 15
77 67 77 95 0 24 -42 11 -74 -23 -27 -28 -41 -35 -70 -35 -46 0 -96 44 -96 84
l0 26 125 0 125 0 0 28 c0 51 -22 106 -55 139 -30 30 -39 33 -91 33 -42 0 -69
-6 -92 -20z m142 -52 c14 -13 28 -35 32 -50 l6 -28 -96 0 c-91 0 -96 1 -96 21
0 11 13 34 29 50 37 37 88 39 125 7z"/>
<path d="M3165 20318 c-35 -19 -55 -52 -55 -90 0 -47 24 -73 82 -88 112 -28
123 -34 126 -62 7 -57 -96 -81 -143 -33 -14 13 -25 29 -25 35 0 5 -11 10 -25
10 -19 0 -25 -5 -25 -23 0 -105 215 -134 265 -36 39 74 6 120 -104 149 -100
26 -122 48 -83 83 34 31 132 17 132 -18 0 -10 10 -15 31 -15 27 0 30 3 24 23
-4 12 -20 34 -36 50 -25 23 -38 27 -87 27 -31 0 -66 -6 -77 -12z"/>
<path d="M3495 20318 c-35 -19 -55 -52 -55 -90 0 -47 24 -73 82 -88 112 -28
123 -34 126 -62 7 -57 -96 -81 -143 -33 -14 13 -25 29 -25 35 0 5 -11 10 -25
10 -19 0 -25 -5 -25 -23 0 -105 215 -134 265 -36 39 74 6 120 -104 149 -100
26 -122 48 -83 83 34 31 132 17 132 -18 0 -10 10 -15 31 -15 27 0 30 3 24 23
-4 12 -20 34 -36 50 -25 23 -38 27 -87 27 -31 0 -66 -6 -77 -12z"/>
<path d="M4020 20313 c-14 -9 -28 -22 -32 -27 -4 -6 -8 -1 -8 12 0 18 -6 22
-30 22 l-30 0 0 -170 0 -170 30 0 30 0 0 110 c0 148 22 190 98 190 55 0 66
-26 70 -171 4 -128 5 -129 28 -129 l24 0 0 146 0 146 -29 29 c-25 24 -38 29
-78 29 -29 0 -58 -7 -73 -17z"/>
<path d="M4339 20307 c-66 -44 -84 -168 -38 -259 36 -71 119 -98 184 -60 35
21 35 21 35 1 0 -11 -6 -35 -14 -53 -25 -60 -119 -72 -153 -20 -18 28 -63 33
-63 8 0 -51 54 -84 136 -84 65 0 113 24 134 67 10 20 15 84 18 221 l4 192 -31
0 c-24 0 -31 -4 -31 -20 0 -18 -2 -17 -26 5 -36 34 -107 34 -155 2z m133 -38
c64 -34 63 -204 -1 -239 -79 -42 -151 44 -134 159 10 76 73 113 135 80z"/>
<path d="M4874 20296 c-41 -41 -46 -76 -11 -76 16 0 28 9 35 25 15 32 54 47
98 39 42 -8 56 -25 52 -61 -3 -27 -6 -28 -81 -40 -87 -13 -123 -31 -137 -69
-18 -46 -11 -75 25 -111 33 -33 39 -35 86 -31 29 3 62 14 79 27 35 25 40 26
40 6 0 -19 46 -38 71 -30 26 9 25 45 -1 45 -19 0 -20 7 -20 114 0 63 -4 126
-10 140 -13 36 -59 56 -131 56 -56 0 -64 -3 -95 -34z m176 -184 c0 -49 -33
-82 -89 -89 -48 -7 -81 15 -81 52 0 31 23 47 88 61 83 18 82 18 82 -24z"/>
<path d="M5291 20304 c-30 -25 -31 -25 -31 -5 0 16 -6 21 -25 21 l-25 0 0
-170 0 -170 25 0 c25 0 25 0 25 98 0 153 23 202 95 202 63 0 75 -28 75 -179
l0 -121 30 0 30 0 0 118 c0 136 -11 183 -47 212 -39 30 -112 28 -152 -6z"/>
<path d="M6535 20318 c-35 -19 -55 -52 -55 -90 0 -47 24 -73 82 -88 112 -28
123 -34 126 -62 7 -57 -96 -81 -143 -33 -14 13 -25 29 -25 35 0 5 -11 10 -25
10 -19 0 -25 -5 -25 -23 0 -105 215 -134 265 -36 39 74 6 120 -104 149 -100
26 -122 48 -83 83 34 31 132 17 132 -18 0 -10 10 -15 31 -15 27 0 30 3 24 23
-4 12 -20 34 -36 50 -25 23 -38 27 -87 27 -31 0 -66 -6 -77 -12z"/>
<path d="M7060 20313 c-14 -9 -28 -22 -32 -27 -4 -6 -8 -1 -8 12 0 18 -6 22
-30 22 l-30 0 0 -170 0 -170 30 0 30 0 0 110 c0 148 22 190 98 190 55 0 66
-26 70 -171 4 -128 5 -129 28 -129 l24 0 0 146 0 146 -29 29 c-25 24 -38 29
-78 29 -29 0 -58 -7 -73 -17z"/>
<path d="M7379 20307 c-66 -44 -84 -168 -38 -259 36 -71 119 -98 184 -60 35
21 35 21 35 1 0 -11 -6 -35 -14 -53 -25 -60 -119 -72 -153 -20 -18 28 -63 33
-63 8 0 -51 54 -84 136 -84 65 0 113 24 134 67 10 20 15 84 18 221 l4 192 -31
0 c-24 0 -31 -4 -31 -20 0 -18 -2 -17 -26 5 -36 34 -107 34 -155 2z m133 -38
c64 -34 63 -204 -1 -239 -79 -42 -151 44 -134 159 10 76 73 113 135 80z"/>
<path d="M7925 20318 c-35 -19 -55 -52 -55 -90 0 -47 24 -73 82 -88 112 -28
123 -34 126 -62 7 -57 -96 -81 -143 -33 -14 13 -25 29 -25 35 0 5 -11 10 -25
10 -19 0 -25 -5 -25 -23 0 -105 215 -134 265 -36 39 74 6 120 -104 149 -100
26 -122 48 -83 83 34 31 132 17 132 -18 0 -10 10 -15 31 -15 27 0 30 3 24 23
-4 12 -20 34 -36 50 -25 23 -38 27 -87 27 -31 0 -66 -6 -77 -12z"/>
<path d="M8413 20320 c-23 -10 -47 -41 -58 -77 -5 -20 -3 -23 22 -23 20 0 31
7 38 22 24 55 115 59 144 6 22 -39 3 -54 -87 -67 -66 -9 -81 -16 -104 -41 -21
-22 -28 -41 -28 -70 0 -88 94 -128 184 -77 25 14 46 22 46 17 0 -18 49 -42 70
-35 26 8 26 41 0 48 -19 5 -20 14 -20 130 l0 125 -31 26 c-26 22 -40 26 -92
25 -34 0 -72 -4 -84 -9z m157 -195 c0 -62 -47 -105 -113 -105 -42 0 -57 15
-57 56 0 39 8 45 85 60 85 17 85 17 85 -11z"/>
<path d="M8808 20309 c-24 -17 -28 -18 -28 -5 0 11 -9 16 -30 16 l-30 0 0
-170 0 -170 30 0 30 0 0 119 c0 114 1 121 26 150 21 25 34 31 64 31 62 0 70
-21 70 -172 l0 -128 30 0 30 0 0 136 c0 140 -6 165 -44 196 -30 25 -113 23
-148 -3z"/>
<path d="M9125 20297 c-105 -105 -41 -327 94 -327 20 0 51 9 69 20 l34 21 -7
-33 c-12 -62 -17 -70 -52 -84 -44 -19 -87 -10 -112 22 -11 15 -29 24 -46 24
-23 0 -25 -3 -20 -22 4 -13 20 -36 37 -52 29 -26 35 -28 104 -24 68 3 77 6
107 36 l32 32 3 205 3 205 -25 0 c-20 0 -26 -5 -26 -21 0 -20 -1 -20 -31 5
-24 20 -41 26 -81 26 -43 0 -54 -4 -83 -33z m159 -40 c26 -26 42 -106 31 -155
-12 -59 -72 -95 -120 -74 -70 32 -88 170 -30 228 32 32 87 33 119 1z"/>
<path d="M10170 20307 c-51 -34 -73 -80 -74 -151 -1 -82 25 -133 85 -164 109
-57 219 11 227 142 5 80 -21 146 -70 176 -47 28 -124 27 -168 -3z m157 -66
c29 -42 32 -128 6 -172 -22 -37 -64 -54 -106 -43 -24 7 -38 20 -56 57 -29 59
-23 121 16 167 23 28 31 31 71 28 40 -3 50 -8 69 -37z"/>
<path d="M10569 20301 l-29 -29 0 24 c0 19 -5 24 -25 24 l-25 0 0 -170 0 -170
24 0 c24 0 24 1 28 121 3 118 4 121 31 145 15 13 39 24 53 24 20 0 24 5 24 30
0 26 -4 30 -26 30 -15 0 -38 -12 -55 -29z"/>
<path d="M11108 20314 c-36 -19 -48 -43 -48 -93 0 -49 20 -65 107 -88 100 -25
131 -63 81 -97 -46 -33 -148 -5 -148 40 0 9 -11 14 -29 14 -28 0 -29 -1 -21
-31 12 -41 28 -59 67 -76 91 -37 196 7 209 88 9 53 -21 83 -103 104 -107 28
-134 53 -97 89 32 32 134 13 134 -25 0 -5 13 -9 29 -9 29 0 30 1 19 30 -17 49
-52 70 -117 70 -31 -1 -68 -7 -83 -16z"/>
<path d="M2390 20179 c0 -77 5 -149 10 -160 14 -25 62 -49 100 -49 37 0 85 23
99 47 9 15 10 14 11 -9 0 -23 4 -28 25 -28 l25 0 0 170 0 170 -25 0 c-25 0
-25 0 -25 -100 0 -146 -28 -200 -104 -200 -48 0 -56 25 -56 168 l0 132 -30 0
-30 0 0 -141z"/>
<path d="M3780 20150 l0 -170 30 0 30 0 0 170 0 170 -30 0 -30 0 0 -170z"/>
<path d="M6122 20175 c3 -143 3 -145 31 -172 23 -24 36 -28 81 -28 43 0 60 5
78 23 30 27 38 28 38 2 0 -15 7 -20 25 -20 l25 0 0 170 0 170 -29 0 -29 0 -4
-126 c-3 -124 -3 -126 -31 -150 -34 -29 -80 -31 -107 -4 -18 18 -20 33 -20
150 l0 130 -31 0 -30 0 3 -145z"/>
<path d="M6820 20150 l0 -170 30 0 30 0 0 170 0 170 -30 0 -30 0 0 -170z"/>
<path d="M9610 20313 c0 -4 21 -81 46 -170 l47 -163 31 0 32 0 28 118 c28 114
45 164 46 133 0 -8 14 -68 31 -133 l32 -119 31 3 c30 3 30 3 78 168 26 91 48
166 48 168 0 1 -13 2 -29 2 -28 0 -28 -2 -61 -127 -18 -71 -33 -129 -35 -131
-1 -2 -17 56 -35 128 l-32 130 -34 0 c-28 0 -35 -4 -41 -27 -3 -16 -18 -75
-33 -133 l-26 -105 -33 133 c-33 131 -33 132 -62 132 -16 0 -29 -3 -29 -7z"/>
<path d="M4030 19295 l0 -235 30 0 30 0 0 235 0 235 -30 0 -30 0 0 -235z"/>
<path d="M3860 19450 c0 -43 -3 -50 -20 -50 -13 0 -20 -7 -20 -20 0 -13 7 -20
20 -20 19 0 20 -7 20 -122 0 -155 7 -172 74 -176 44 -3 47 -2 44 20 -2 14 -12
24 -28 28 -25 6 -25 7 -28 128 l-3 122 31 0 c23 0 30 4 30 19 0 14 -8 21 -27
23 -26 3 -28 7 -31 51 -3 45 -5 47 -33 47 -28 0 -29 -1 -29 -50z"/>
<path d="M2074 19391 c-71 -43 -98 -184 -51 -265 64 -113 232 -95 263 28 6 23
3 26 -22 26 -23 0 -32 -7 -44 -33 -29 -63 -110 -62 -142 3 -33 64 -16 175 30
199 48 26 122 -1 122 -44 0 -10 10 -15 30 -15 17 0 30 5 30 10 0 29 -32 80
-59 94 -42 22 -119 20 -157 -3z"/>
<path d="M2403 19390 c-70 -46 -94 -165 -50 -250 28 -56 63 -81 119 -87 155
-18 237 191 124 315 -31 33 -39 36 -97 39 -52 3 -70 0 -96 -17z m137 -40 c10
-5 26 -30 35 -54 50 -130 -55 -249 -146 -168 -27 24 -33 37 -37 85 -5 64 9
110 42 132 24 17 79 20 106 5z"/>
<path d="M2807 19383 c-26 -27 -27 -27 -27 -5 0 18 -6 22 -30 22 l-30 0 0
-170 0 -170 30 0 30 0 0 111 c0 138 18 178 83 179 23 0 27 4 27 30 0 26 -4 30
-28 30 -17 0 -38 -11 -55 -27z"/>
<path d="M3027 19383 c-26 -27 -27 -27 -27 -5 0 18 -6 22 -30 22 l-30 0 0
-170 0 -170 30 0 30 0 0 111 c0 138 18 178 83 179 23 0 27 4 27 30 0 26 -4 30
-28 30 -17 0 -38 -11 -55 -27z"/>
<path d="M3212 19390 c-92 -56 -98 -248 -9 -314 35 -26 113 -32 160 -13 34 15
77 67 77 95 0 24 -42 11 -74 -23 -27 -28 -41 -35 -70 -35 -46 0 -96 44 -96 84
l0 26 125 0 125 0 0 28 c0 51 -22 106 -55 139 -30 30 -39 33 -91 33 -42 0 -69
-6 -92 -20z m142 -52 c14 -13 28 -35 32 -50 l6 -28 -96 0 c-91 0 -96 1 -96 21
0 11 13 34 29 50 37 37 88 39 125 7z"/>
<path d="M3574 19391 c-71 -43 -98 -184 -51 -265 64 -113 232 -95 263 28 6 23
3 26 -22 26 -23 0 -32 -7 -44 -33 -29 -63 -110 -62 -142 3 -33 64 -16 175 30
199 48 26 122 -1 122 -44 0 -10 10 -15 30 -15 17 0 30 5 30 10 0 29 -32 80
-59 94 -42 22 -119 20 -157 -3z"/>
<path d="M4150 19392 c0 -5 27 -84 60 -176 l61 -168 -18 -36 c-15 -30 -24 -38
-51 -40 -28 -3 -33 -7 -30 -25 2 -17 11 -23 35 -25 45 -4 67 11 91 60 25 54
152 394 152 408 0 5 -13 10 -29 10 -29 0 -30 -3 -73 -130 -23 -71 -45 -130
-48 -130 -3 0 -25 59 -48 130 -43 127 -44 130 -73 130 -16 0 -29 -4 -29 -8z"/>
<path d="M3590 17657 c-100 -28 -163 -92 -194 -197 -32 -108 -14 -253 42 -331
55 -77 136 -113 250 -112 156 2 258 96 281 258 17 118 -10 227 -74 303 -59 70
-204 108 -305 79z m160 -119 c65 -33 94 -94 93 -198 0 -59 -6 -89 -22 -124
-50 -103 -186 -125 -260 -41 -36 41 -51 90 -51 165 0 72 15 122 47 161 52 61
120 74 193 37z"/>
<path d="M6467 17656 c-95 -27 -139 -78 -145 -169 -3 -52 0 -67 20 -96 36 -54
65 -69 192 -101 66 -17 128 -38 138 -47 10 -9 18 -30 18 -49 0 -43 -30 -63
-102 -71 -73 -7 -124 14 -143 62 -15 35 -16 35 -75 35 -56 0 -60 -2 -60 -22 1
-31 33 -99 56 -120 45 -40 116 -61 204 -61 126 0 192 34 231 118 36 79 16 168
-48 211 -18 12 -81 33 -140 48 -140 34 -162 44 -169 72 -15 61 36 99 123 92
57 -5 103 -36 103 -70 0 -16 9 -18 65 -18 55 0 65 3 65 18 -1 27 -35 95 -61
119 -57 52 -182 75 -272 49z"/>
<path d="M7869 17657 c-117 -33 -192 -133 -205 -273 -21 -221 97 -368 296
-367 186 0 295 119 295 323 0 105 -22 172 -75 233 -69 78 -203 114 -311 84z
m182 -127 c52 -37 73 -93 73 -190 0 -126 -36 -186 -126 -211 -84 -22 -174 35
-197 125 -32 130 10 258 99 295 36 16 116 5 151 -19z"/>
<path d="M2002 17598 l3 -53 93 -3 92 -3 0 -254 0 -255 65 0 65 0 0 255 0 255
95 0 95 0 0 55 0 55 -256 0 -255 0 3 -52z"/>
<path d="M2540 17644 c0 -3 39 -142 86 -310 l87 -305 61 3 61 3 45 227 c25
125 47 228 50 228 3 0 25 -103 50 -228 l45 -227 64 0 64 0 87 308 87 307 -66
0 -67 0 -47 -207 c-26 -115 -47 -214 -47 -222 1 -40 -13 14 -50 194 -23 110
-43 208 -46 218 -4 14 -17 17 -74 17 -62 0 -68 -2 -73 -22 -3 -13 -22 -111
-42 -218 -21 -107 -38 -196 -39 -197 -1 -1 -24 96 -51 217 l-48 220 -69 0
c-37 0 -68 -3 -68 -6z"/>
<path d="M4272 17638 c3 -7 43 -147 89 -310 l83 -298 61 0 62 0 38 188 c50
247 63 302 64 274 1 -23 77 -411 87 -444 4 -15 17 -18 67 -18 l62 0 64 228
c35 125 74 264 87 310 l23 83 -67 -3 -66 -3 -43 -190 c-24 -104 -47 -203 -51
-220 -6 -24 -17 14 -53 190 l-45 220 -70 3 -70 3 -33 -173 c-18 -95 -38 -195
-44 -223 l-10 -50 -24 110 c-13 61 -35 161 -49 223 l-26 112 -70 0 c-52 0 -69
-3 -66 -12z"/>
<path d="M5305 17633 c-8 -22 -88 -244 -160 -450 l-54 -153 69 0 68 0 22 65
22 65 113 0 114 0 19 -62 20 -63 71 -3 c39 -2 71 -2 71 0 0 2 -49 140 -109
308 l-108 305 -75 3 c-65 2 -77 0 -83 -15z m154 -355 c1 -5 -33 -8 -74 -8 -41
0 -75 3 -75 7 0 4 17 58 38 121 l37 114 37 -113 c20 -63 37 -117 37 -121z"/>
<path d="M5821 17453 l109 -197 0 -113 0 -113 65 0 65 0 0 121 0 121 84 157
c46 86 91 171 100 189 l17 32 -74 0 -73 0 -58 -130 c-32 -71 -62 -128 -66
-125 -4 2 -33 61 -66 130 l-59 125 -76 0 -77 0 109 -197z"/>
<path d="M7102 17598 l3 -53 93 -3 92 -3 0 -254 0 -255 65 0 65 0 0 255 0 255
95 0 95 0 0 55 0 55 -256 0 -255 0 3 -52z"/>
<path d="M8600 17341 l0 -311 65 0 65 0 0 110 0 110 75 0 c99 0 169 16 207 48
93 78 89 244 -8 318 l-37 29 -184 3 -183 3 0 -310z m325 174 c41 -40 29 -121
-22 -144 -13 -6 -57 -11 -98 -11 l-75 0 0 90 0 90 85 0 c78 0 88 -2 110 -25z"/>
<path d="M9180 17340 l0 -310 220 0 220 0 0 55 0 55 -155 0 -155 0 0 255 0
255 -65 0 -65 0 0 -310z"/>
<path d="M9875 17633 c-8 -22 -88 -244 -160 -450 l-54 -153 69 0 68 0 22 65
22 65 113 0 114 0 19 -62 20 -63 71 -3 c39 -2 71 -2 71 0 0 2 -49 140 -109
308 l-108 305 -75 3 c-65 2 -77 0 -83 -15z m154 -355 c1 -5 -33 -8 -74 -8 -41
0 -75 3 -75 7 0 4 17 58 38 121 l37 114 37 -113 c20 -63 37 -117 37 -121z"/>
<path d="M10290 17644 c0 -3 47 -90 105 -194 l105 -188 0 -116 0 -116 65 0 65
0 0 119 0 120 100 186 c55 102 100 188 100 191 0 2 -32 4 -72 2 l-72 -3 -56
-122 c-30 -67 -58 -125 -62 -128 -4 -4 -35 52 -69 124 l-62 131 -73 0 c-41 0
-74 -3 -74 -6z"/>
<path d="M2141 15580 c-71 -17 -111 -66 -111 -138 0 -79 22 -96 169 -132 98
-23 121 -40 121 -86 0 -39 -17 -58 -66 -74 -75 -25 -166 10 -179 70 -6 25 -11
30 -37 30 -29 0 -30 -1 -25 -35 13 -81 80 -125 190 -125 117 1 181 50 180 140
-1 85 -36 112 -183 146 -86 19 -110 36 -110 74 0 48 30 73 91 77 67 5 98 -10
122 -60 14 -28 25 -37 44 -37 24 0 25 3 20 36 -8 49 -29 78 -69 96 -43 20
-114 28 -157 18z"/>
<path d="M2830 15335 l0 -235 25 0 25 0 0 235 0 235 -25 0 -25 0 0 -235z"/>
<path d="M3530 15335 l0 -235 30 0 30 0 2 186 3 187 64 -187 64 -186 31 0 31
0 67 198 66 197 1 -197 1 -198 30 0 30 0 0 236 0 235 -47 -3 -47 -3 -66 -194
c-37 -107 -69 -190 -72 -185 -3 5 -33 93 -67 197 l-63 187 -44 0 -44 0 0 -235z"/>
<path d="M4660 15489 l0 -80 -26 20 c-35 27 -107 28 -150 2 -95 -58 -84 -268
16 -323 46 -25 112 -19 146 13 l24 22 0 -21 c0 -17 6 -22 25 -22 l25 0 0 235
0 235 -30 0 -30 0 0 -81z m-22 -129 c21 -30 23 -44 20 -104 -3 -60 -7 -71 -31
-92 -47 -40 -104 -29 -132 26 -30 57 -12 187 27 204 7 2 31 4 53 3 33 -2 43
-8 63 -37z"/>
<path d="M5920 15335 l0 -235 30 0 30 0 0 100 0 100 98 0 c128 0 132 -3 143
-111 4 -46 8 -85 8 -86 1 -2 19 -3 40 -3 l40 0 -15 28 c-7 15 -14 53 -14 85 0
60 -12 96 -37 111 -12 6 -10 13 12 36 55 57 39 162 -30 194 -25 12 -66 16
-169 16 l-136 0 0 -235z m263 174 c31 -16 37 -28 37 -71 0 -65 -23 -78 -140
-78 l-100 0 0 80 0 80 91 0 c50 0 100 -5 112 -11z"/>
<path d="M7340 15484 l0 -86 -31 26 c-43 36 -115 37 -158 1 -62 -53 -79 -180
-34 -258 45 -75 135 -100 192 -51 30 25 31 25 31 5 0 -17 6 -21 30 -21 l30 0
0 235 0 235 -30 0 -30 0 0 -86z m-41 -103 c51 -51 51 -173 0 -216 -33 -27 -55
-31 -92 -14 -37 17 -52 54 -52 130 0 58 4 71 24 93 31 33 91 36 120 7z"/>
<path d="M7840 15335 l0 -235 29 0 29 0 4 126 c3 124 3 126 31 150 32 27 83
32 113 10 17 -13 19 -30 22 -150 4 -136 4 -136 28 -136 l24 0 0 146 0 146 -29
29 c-25 24 -38 29 -79 29 -40 0 -57 -6 -81 -26 l-31 -26 0 86 0 86 -30 0 -30
0 0 -235z"/>
<path d="M9530 15335 l0 -235 30 0 30 0 0 116 c0 149 17 183 91 184 62 0 69
-17 69 -168 l0 -132 30 0 30 0 0 131 c0 145 -12 187 -56 208 -41 18 -108 14
-138 -10 l-26 -20 0 80 0 81 -30 0 -30 0 0 -235z"/>
<path d="M10260 15335 l0 -235 30 0 30 0 0 121 c0 120 0 121 29 150 21 21 39
29 65 29 60 0 66 -14 66 -166 l0 -134 30 0 30 0 0 136 c0 140 -6 165 -44 196
-31 25 -110 24 -147 -3 l-29 -20 0 80 0 81 -30 0 -30 0 0 -235z"/>
<path d="M7670 15490 c0 -47 -2 -50 -25 -50 -18 0 -25 -5 -25 -20 0 -15 7 -20
25 -20 l25 0 0 -128 c0 -152 8 -172 71 -172 35 0 39 3 39 25 0 20 -5 25 -25
25 l-25 0 0 125 0 125 25 0 c18 0 25 5 25 20 0 15 -7 20 -25 20 -23 0 -25 3
-25 50 0 49 -1 50 -30 50 -29 0 -30 -1 -30 -50z"/>
<path d="M10088 15493 c-3 -41 -6 -48 -25 -51 -33 -5 -31 -42 2 -42 l25 0 0
-134 c0 -154 5 -166 71 -166 35 0 39 3 39 25 0 20 -5 25 -25 25 l-25 0 0 125
0 125 25 0 c18 0 25 5 25 20 0 15 -7 20 -25 20 -23 0 -25 3 -25 50 0 49 -1 50
-29 50 -28 0 -30 -2 -33 -47z"/>
<path d="M2513 15430 c-70 -46 -94 -165 -50 -250 28 -56 63 -81 119 -87 155
-18 237 191 124 315 -31 33 -39 36 -97 39 -52 3 -70 0 -96 -17z m137 -40 c10
-5 26 -30 35 -54 50 -130 -55 -249 -146 -168 -27 24 -33 37 -37 85 -5 64 9
110 42 132 24 17 79 20 106 5z"/>
<path d="M3045 15440 c-88 -36 -123 -192 -62 -281 47 -68 151 -89 215 -42 95
68 93 254 -2 313 -35 21 -112 26 -151 10z m117 -51 c27 -14 48 -68 48 -122 0
-81 -65 -143 -126 -121 -76 27 -99 163 -39 228 26 28 79 35 117 15z"/>
<path d="M4145 15440 c-88 -36 -123 -192 -62 -281 47 -68 151 -89 215 -42 95
68 93 254 -2 313 -35 21 -112 26 -151 10z m117 -51 c27 -14 48 -68 48 -122 0
-81 -65 -143 -126 -121 -76 27 -99 163 -39 228 26 28 79 35 117 15z"/>
<path d="M4862 15430 c-92 -56 -98 -248 -9 -314 35 -26 113 -32 160 -13 34 15
77 67 77 95 0 24 -42 11 -74 -23 -27 -28 -41 -35 -70 -35 -46 0 -96 44 -96 84
l0 26 125 0 125 0 0 28 c0 51 -22 106 -55 139 -30 30 -39 33 -91 33 -42 0 -69
-6 -92 -20z m142 -52 c14 -13 28 -35 32 -50 l6 -28 -96 0 c-91 0 -96 1 -96 21
0 11 13 34 29 50 37 37 88 39 125 7z"/>
<path d="M6454 15440 c-71 -28 -113 -151 -83 -241 42 -124 205 -147 276 -40
30 44 29 51 -6 51 -21 0 -32 -6 -36 -20 -7 -23 -53 -50 -85 -50 -32 0 -78 27
-84 50 -19 66 -30 60 108 60 l126 0 0 42 c0 54 -32 119 -69 141 -31 18 -110
22 -147 7z m131 -65 c14 -13 25 -36 25 -50 l0 -25 -96 0 c-94 0 -95 0 -89 23
4 12 19 34 33 50 35 36 92 38 127 2z"/>
<path d="M6782 15424 c-17 -16 -34 -41 -38 -56 -6 -26 -4 -28 24 -28 23 0 31
5 36 25 9 34 71 53 112 34 24 -12 29 -21 29 -49 0 -35 0 -35 -55 -43 -132 -19
-166 -44 -164 -120 3 -85 96 -122 186 -73 44 23 47 24 53 6 6 -20 45 -33 69
-24 23 9 20 41 -4 47 -19 5 -20 14 -20 126 0 112 -2 122 -24 148 -21 25 -32
28 -99 31 -70 4 -76 3 -105 -24z m168 -193 c0 -32 -6 -44 -31 -65 -42 -36
-102 -36 -125 -1 -18 28 -11 60 16 75 15 8 54 17 133 29 4 0 7 -17 7 -38z"/>
<path d="M8299 15421 l-29 -29 0 24 c0 19 -5 24 -25 24 l-25 0 0 -170 0 -170
24 0 c24 0 24 1 28 121 3 118 4 121 31 145 15 13 39 24 53 24 20 0 24 5 24 30
0 26 -4 30 -26 30 -15 0 -38 -12 -55 -29z"/>
<path d="M8483 15430 c-70 -46 -94 -165 -50 -250 28 -56 63 -81 119 -87 155
-18 237 191 124 315 -31 33 -39 36 -97 39 -52 3 -70 0 -96 -17z m137 -40 c10
-5 26 -30 35 -54 50 -130 -55 -249 -146 -168 -27 24 -33 37 -37 85 -5 64 9
110 42 132 24 17 79 20 106 5z"/>
<path d="M9209 15427 c-66 -44 -84 -168 -38 -259 36 -71 119 -98 184 -60 35
21 35 21 35 1 0 -11 -6 -35 -14 -53 -25 -60 -119 -72 -153 -20 -18 28 -63 33
-63 8 0 -51 54 -84 136 -84 65 0 113 24 134 67 10 20 15 84 18 221 l4 192 -31
0 c-24 0 -31 -4 -31 -20 0 -18 -2 -17 -26 5 -36 34 -107 34 -155 2z m133 -38
c64 -34 63 -204 -1 -239 -79 -42 -151 44 -134 159 10 76 73 113 135 80z"/>
<path d="M10686 15431 c-47 -31 -68 -75 -73 -149 -4 -57 -1 -74 19 -111 61
-114 232 -107 277 12 10 25 9 27 -18 27 -19 0 -32 -7 -41 -24 -30 -58 -126
-59 -160 -3 -39 64 -35 67 105 67 l125 0 0 38 c-1 48 -30 113 -65 140 -37 29
-127 31 -169 3z m135 -44 c20 -15 39 -51 39 -71 0 -13 -15 -16 -95 -16 -99 0
-104 3 -84 43 26 51 100 75 140 44z"/>
<path d="M8790 15323 c0 -174 18 -217 93 -230 49 -8 84 3 113 34 l24 26 0 -27
c0 -21 5 -26 25 -26 l25 0 0 170 0 170 -30 0 -30 0 0 -121 c0 -120 0 -121 -29
-150 -19 -18 -40 -29 -58 -29 -61 0 -73 30 -73 179 l0 121 -30 0 -30 0 0 -117z"/>
<path d="M1620 15300 c-27 -27 -27 -83 2 -110 70 -65 173 38 108 108 -27 29
-83 29 -110 2z"/>
<path d="M5310 15285 l0 -25 186 0 185 0 -3 23 c-3 22 -5 22 -185 25 l-183 2
0 -25z"/>
<path d="M2350 14415 l0 -235 30 0 30 0 0 235 0 235 -30 0 -30 0 0 -235z"/>
<path d="M5070 14564 l0 -86 -31 26 c-65 55 -170 24 -205 -61 -31 -74 -11
-182 43 -235 30 -29 41 -33 88 -33 43 0 59 5 79 24 26 24 26 24 26 3 0 -17 6
-22 25 -22 l25 0 0 235 0 235 -25 0 c-25 0 -25 -1 -25 -86z m-40 -109 c27 -28
40 -100 29 -155 -13 -63 -78 -97 -131 -69 -59 32 -66 192 -9 236 28 22 85 16
111 -12z"/>
<path d="M6680 14564 l0 -86 -31 26 c-43 36 -115 37 -158 1 -62 -53 -79 -180
-34 -258 45 -75 135 -100 192 -51 30 25 31 25 31 5 0 -17 6 -21 30 -21 l30 0
0 235 0 235 -30 0 -30 0 0 -86z m-41 -103 c51 -51 51 -173 0 -216 -33 -27 -55
-31 -92 -14 -37 17 -52 54 -52 130 0 58 4 71 24 93 31 33 91 36 120 7z"/>
<path d="M10770 14415 l0 -235 30 0 30 0 0 121 c0 120 0 121 29 150 21 21 39
29 65 29 60 0 66 -14 66 -166 l0 -134 30 0 30 0 0 136 c0 140 -6 165 -44 196
-31 25 -110 24 -147 -3 l-29 -20 0 80 0 81 -30 0 -30 0 0 -235z"/>
<path d="M11500 14620 c0 -27 3 -30 30 -30 27 0 30 3 30 30 0 27 -3 30 -30 30
-27 0 -30 -3 -30 -30z"/>
<path d="M7010 14570 c0 -43 -3 -50 -20 -50 -13 0 -20 -7 -20 -20 0 -13 7 -20
20 -20 19 0 20 -7 20 -122 0 -155 7 -172 74 -176 44 -3 47 -2 44 20 -2 14 -12
24 -28 28 -25 6 -25 7 -28 128 l-3 122 31 0 c23 0 30 4 30 19 0 14 -8 21 -27
23 -26 3 -28 7 -31 51 -3 45 -5 47 -33 47 -28 0 -29 -1 -29 -50z"/>
<path d="M7928 14573 c-3 -41 -6 -48 -25 -51 -33 -5 -31 -42 2 -42 l25 0 0
-134 c0 -154 5 -166 71 -166 35 0 39 3 39 25 0 20 -5 25 -25 25 l-25 0 0 125
0 125 25 0 c18 0 25 5 25 20 0 15 -7 20 -25 20 -23 0 -25 3 -25 50 0 49 -1 50
-29 50 -28 0 -30 -2 -33 -47z"/>
<path d="M10600 14570 c0 -47 -2 -50 -25 -50 -18 0 -25 -5 -25 -20 0 -15 7
-20 25 -20 l25 0 0 -128 c0 -152 8 -172 71 -172 35 0 39 3 39 25 0 20 -5 25
-25 25 l-25 0 0 125 0 125 25 0 c18 0 25 5 25 20 0 15 -7 20 -25 20 -23 0 -25
3 -25 50 0 49 -1 50 -30 50 -29 0 -30 -1 -30 -50z"/>
<path d="M2044 14496 c-25 -25 -34 -43 -34 -68 0 -48 30 -73 117 -97 90 -24
93 -26 93 -56 0 -36 -41 -59 -91 -52 -46 6 -69 22 -69 48 0 14 -7 19 -30 19
-33 0 -37 -13 -18 -54 16 -36 51 -56 107 -63 95 -11 161 34 161 108 0 51 -24
74 -97 94 -105 30 -108 31 -111 54 -6 36 15 51 69 51 41 0 51 -4 65 -25 10
-15 26 -25 40 -25 27 0 29 8 12 45 -17 37 -57 55 -124 55 -50 0 -59 -3 -90
-34z"/>
<path d="M2553 14520 c-23 -10 -47 -41 -58 -77 -5 -20 -3 -23 22 -23 20 0 31
7 38 22 24 55 115 59 144 6 22 -39 3 -54 -87 -67 -66 -9 -81 -16 -104 -41 -21
-22 -28 -41 -28 -70 0 -88 94 -128 184 -77 25 14 46 22 46 17 0 -18 49 -42 70
-35 26 8 26 41 0 48 -19 5 -20 14 -20 130 l0 125 -31 26 c-26 22 -40 26 -92
25 -34 0 -72 -4 -84 -9z m157 -195 c0 -62 -47 -105 -113 -105 -42 0 -57 15
-57 56 0 39 8 45 85 60 85 17 85 17 85 -11z"/>
<path d="M2948 14509 c-24 -17 -28 -18 -28 -5 0 11 -9 16 -30 16 l-30 0 0
-170 0 -170 30 0 30 0 0 119 c0 114 1 121 26 150 21 25 34 31 64 31 62 0 70
-21 70 -172 l0 -128 30 0 30 0 0 136 c0 140 -6 165 -44 196 -30 25 -113 23
-148 -3z"/>
<path d="M3265 14497 c-105 -105 -41 -327 94 -327 20 0 51 9 69 20 l34 21 -7
-33 c-12 -62 -17 -70 -52 -84 -44 -19 -87 -10 -112 22 -11 15 -29 24 -46 24
-23 0 -25 -3 -20 -22 4 -13 20 -36 37 -52 29 -26 35 -28 104 -24 68 3 77 6
107 36 l32 32 3 205 3 205 -25 0 c-20 0 -26 -5 -26 -21 0 -20 -1 -20 -31 5
-24 20 -41 26 -81 26 -43 0 -54 -4 -83 -33z m159 -40 c26 -26 42 -106 31 -155
-12 -59 -72 -95 -120 -74 -70 32 -88 170 -30 228 32 32 87 33 119 1z"/>
<path d="M4310 14507 c-51 -34 -73 -80 -74 -151 -1 -82 25 -133 85 -164 109
-57 219 11 227 142 5 80 -21 146 -70 176 -47 28 -124 27 -168 -3z m157 -66
c29 -42 32 -128 6 -172 -22 -37 -64 -54 -106 -43 -24 7 -38 20 -56 57 -29 59
-23 121 16 167 23 28 31 31 71 28 40 -3 50 -8 69 -37z"/>
<path d="M4709 14501 l-29 -29 0 24 c0 19 -5 24 -25 24 l-25 0 0 -170 0 -170
24 0 c24 0 24 1 28 121 3 118 4 121 31 145 15 13 39 24 53 24 20 0 24 5 24 30
0 26 -4 30 -26 30 -15 0 -38 -12 -55 -29z"/>
<path d="M5248 14514 c-36 -19 -48 -43 -48 -93 0 -49 20 -65 107 -88 100 -25
131 -63 81 -97 -46 -33 -148 -5 -148 40 0 9 -11 14 -29 14 -28 0 -29 -1 -21
-31 12 -41 28 -59 67 -76 91 -37 196 7 209 88 9 53 -21 83 -103 104 -107 28
-134 53 -97 89 32 32 134 13 134 -25 0 -5 13 -9 29 -9 29 0 30 1 19 30 -17 49
-52 70 -117 70 -31 -1 -68 -7 -83 -16z"/>
<path d="M5768 14514 c-31 -16 -48 -43 -48 -73 0 -32 44 -28 58 4 16 36 57 49
104 35 27 -8 40 -18 44 -36 9 -35 -10 -51 -69 -59 -78 -10 -114 -24 -137 -52
-22 -28 -26 -82 -10 -114 28 -52 133 -63 191 -20 28 21 28 21 39 2 12 -23 40
-34 64 -25 20 8 21 44 1 44 -12 0 -15 19 -15 109 0 125 -11 166 -51 186 -36
19 -136 19 -171 -1z m162 -195 c0 -41 -15 -66 -50 -84 -59 -31 -120 -11 -120
39 0 33 28 53 90 64 82 14 80 15 80 -19z"/>
<path d="M6180 14513 c-14 -9 -28 -22 -32 -27 -4 -6 -8 -1 -8 12 0 18 -6 22
-30 22 l-30 0 0 -170 0 -170 30 0 30 0 0 110 c0 148 22 190 98 190 55 0 66
-26 70 -171 4 -128 5 -129 28 -129 l24 0 0 146 0 146 -29 29 c-25 24 -38 29
-78 29 -29 0 -58 -7 -73 -17z"/>
<path d="M7276 14504 c-25 -26 -26 -26 -26 -5 0 17 -6 21 -30 21 l-30 0 0
-170 0 -170 30 0 30 0 0 120 c0 115 1 122 25 145 15 16 36 25 55 25 27 0 30 3
30 30 0 26 -3 30 -29 30 -17 0 -38 -10 -55 -26z"/>
<path d="M8153 14510 c-70 -46 -94 -165 -50 -250 28 -56 63 -81 119 -87 155
-18 237 191 124 315 -31 33 -39 36 -97 39 -52 3 -70 0 -96 -17z m137 -40 c10
-5 26 -30 35 -54 50 -130 -55 -249 -146 -168 -27 24 -33 37 -37 85 -5 64 9
110 42 132 24 17 79 20 106 5z"/>
<path d="M8685 14497 c-105 -105 -41 -327 94 -327 20 0 51 9 69 20 l34 21 -7
-33 c-12 -62 -17 -70 -52 -84 -44 -19 -87 -10 -112 22 -11 15 -29 24 -46 24
-23 0 -25 -3 -20 -22 4 -13 20 -36 37 -52 29 -26 35 -28 104 -24 68 3 77 6
107 36 l32 32 3 205 3 205 -25 0 c-20 0 -26 -5 -26 -21 0 -20 -1 -20 -31 5
-24 20 -41 26 -81 26 -43 0 -54 -4 -83 -33z m159 -40 c26 -26 42 -106 31 -155
-12 -59 -72 -95 -120 -74 -70 32 -88 170 -30 228 32 32 87 33 119 1z"/>
<path d="M9439 14507 c-48 -31 -73 -88 -73 -163 0 -68 21 -113 67 -148 34 -25
129 -29 171 -7 26 15 66 68 66 90 0 23 -44 10 -69 -20 -19 -22 -37 -32 -68
-36 -37 -5 -46 -2 -73 25 -18 18 -30 41 -30 56 l0 25 123 3 122 3 -3 43 c-3
58 -35 118 -72 137 -44 23 -120 19 -161 -8z m133 -38 c16 -9 48 -64 48 -84 0
-3 -43 -5 -95 -5 -90 0 -95 1 -95 21 0 11 13 34 29 50 31 31 75 38 113 18z"/>
<path d="M9788 14514 c-36 -19 -48 -43 -48 -93 0 -49 20 -65 107 -88 100 -25
131 -63 81 -97 -46 -33 -148 -5 -148 40 0 9 -11 14 -29 14 -28 0 -29 -1 -21
-31 12 -41 28 -59 67 -76 91 -37 196 7 209 88 9 53 -21 83 -103 104 -107 28
-134 53 -97 89 32 32 134 13 134 -25 0 -5 13 -9 29 -9 29 0 30 1 19 30 -17 49
-52 70 -117 70 -31 -1 -68 -7 -83 -16z"/>
<path d="M10118 14514 c-36 -19 -48 -43 -48 -93 0 -49 20 -65 107 -88 100 -25
131 -63 81 -97 -46 -33 -148 -5 -148 40 0 9 -11 14 -29 14 -28 0 -29 -1 -21
-31 12 -41 28 -59 67 -76 91 -37 196 7 209 88 9 53 -21 83 -103 104 -107 28
-134 53 -97 89 32 32 134 13 134 -25 0 -5 13 -9 29 -9 29 0 30 1 19 30 -17 49
-52 70 -117 70 -31 -1 -68 -7 -83 -16z"/>
<path d="M11214 14520 c-71 -28 -113 -151 -83 -241 42 -124 205 -147 276 -40
30 44 29 51 -6 51 -21 0 -32 -6 -36 -20 -7 -23 -53 -50 -85 -50 -32 0 -78 27
-84 50 -19 66 -30 60 108 60 l126 0 0 42 c0 54 -32 119 -69 141 -31 18 -110
22 -147 7z m131 -65 c14 -13 25 -36 25 -50 l0 -25 -96 0 c-94 0 -95 0 -89 23
4 12 19 34 33 50 35 36 92 38 127 2z"/>
<path d="M11739 14499 l-29 -31 0 26 c0 21 -5 26 -25 26 l-25 0 0 -170 0 -170
30 0 30 0 0 119 c0 135 9 157 70 170 28 5 36 12 38 34 3 24 0 27 -28 27 -23 0
-40 -9 -61 -31z"/>
<path d="M3750 14513 c0 -4 21 -81 46 -170 l47 -163 31 0 32 0 28 118 c28 114
45 164 46 133 0 -8 14 -68 31 -133 l32 -119 31 3 c30 3 30 3 78 168 26 91 48
166 48 168 0 1 -13 2 -29 2 -28 0 -28 -2 -61 -127 -18 -71 -33 -129 -35 -131
-1 -2 -17 56 -35 128 l-32 130 -34 0 c-28 0 -35 -4 -41 -27 -3 -16 -18 -75
-33 -133 l-26 -105 -33 133 c-33 131 -33 132 -62 132 -16 0 -29 -3 -29 -7z"/>
<path d="M7375 14503 c3 -10 32 -87 62 -172 52 -143 55 -156 44 -192 -12 -39
-45 -60 -70 -44 -7 4 -11 -5 -11 -24 0 -29 2 -31 38 -31 64 0 77 21 185 320
25 69 49 133 53 143 6 16 2 18 -26 15 -33 -3 -34 -3 -76 -132 -24 -71 -45
-131 -48 -133 -2 -2 -23 57 -47 131 l-42 136 -35 0 c-28 0 -33 -3 -27 -17z"/>
<path d="M9010 14403 c0 -174 18 -217 93 -230 49 -8 84 3 113 34 l24 26 0 -27
c0 -21 5 -26 25 -26 l25 0 0 170 0 170 -30 0 -30 0 0 -121 c0 -120 0 -121 -29
-150 -19 -18 -40 -29 -58 -29 -61 0 -73 30 -73 179 l0 121 -30 0 -30 0 0 -117z"/>
<path d="M11500 14350 l0 -170 30 0 30 0 0 170 0 170 -30 0 -30 0 0 -170z"/>
<path d="M8112 13730 c-26 -11 -42 -47 -42 -96 0 -27 -4 -34 -20 -34 -13 0
-20 -7 -20 -20 0 -13 7 -20 20 -20 19 0 20 -7 20 -150 l0 -150 30 0 30 0 0
150 0 150 30 0 c23 0 30 5 30 19 0 14 -8 21 -27 23 -22 2 -29 9 -31 31 -4 33
13 57 39 57 14 0 19 7 19 25 0 21 -5 25 -27 24 -16 0 -38 -4 -51 -9z"/>
<path d="M3670 13700 c0 -27 3 -30 30 -30 27 0 30 3 30 30 0 27 -3 30 -30 30
-27 0 -30 -3 -30 -30z"/>
<path d="M5050 13495 l0 -235 30 0 c20 0 30 5 30 15 0 11 7 10 35 -7 41 -23
99 -21 140 6 61 40 88 174 52 258 -31 73 -135 102 -198 57 l-29 -20 0 80 0 81
-30 0 -30 0 0 -235z m210 47 c27 -22 41 -92 30 -152 -18 -98 -122 -123 -165
-40 -30 58 -11 174 32 199 28 16 78 13 103 -7z"/>
<path d="M7920 13495 l0 -235 25 0 25 0 0 235 0 235 -25 0 -25 0 0 -235z"/>
<path d="M2106 13589 c-21 -17 -26 -18 -26 -5 0 11 -9 16 -30 16 l-30 0 0
-170 0 -170 30 0 30 0 0 119 c0 114 1 121 26 150 19 23 34 31 58 31 52 0 56
-11 56 -162 l0 -138 30 0 30 0 0 119 c0 114 1 121 26 150 19 23 34 31 59 31
53 0 60 -17 63 -167 4 -133 4 -133 28 -133 l24 0 0 146 0 146 -29 29 c-39 39
-105 41 -149 4 l-29 -24 -23 24 c-31 33 -105 35 -144 4z"/>
<path d="M2644 13600 c-71 -28 -113 -151 -83 -241 42 -124 205 -147 276 -40
30 44 29 51 -6 51 -21 0 -32 -6 -36 -20 -7 -23 -53 -50 -85 -50 -32 0 -78 27
-84 50 -19 66 -30 60 108 60 l126 0 0 42 c0 54 -32 119 -69 141 -31 18 -110
22 -147 7z m131 -65 c14 -13 25 -36 25 -50 l0 -25 -96 0 c-94 0 -95 0 -89 23
4 12 19 34 33 50 35 36 92 38 127 2z"/>
<path d="M2993 13600 c-23 -10 -47 -41 -58 -77 -5 -20 -3 -23 22 -23 20 0 31
7 38 22 24 55 115 59 144 6 22 -39 3 -54 -87 -67 -66 -9 -81 -16 -104 -41 -21
-22 -28 -41 -28 -70 0 -88 94 -128 184 -77 25 14 46 22 46 17 0 -18 49 -42 70
-35 26 8 26 41 0 48 -19 5 -20 14 -20 130 l0 125 -31 26 c-26 22 -40 26 -92
25 -34 0 -72 -4 -84 -9z m157 -195 c0 -62 -47 -105 -113 -105 -42 0 -57 15
-57 56 0 39 8 45 85 60 85 17 85 17 85 -11z"/>
<path d="M3388 13589 c-24 -17 -28 -18 -28 -5 0 11 -9 16 -30 16 l-30 0 0
-170 0 -170 30 0 30 0 0 119 c0 114 1 121 26 150 21 25 34 31 64 31 62 0 70
-21 70 -172 l0 -128 30 0 30 0 0 136 c0 140 -6 165 -44 196 -30 25 -113 23
-148 -3z"/>
<path d="M3910 13593 c-14 -9 -28 -22 -32 -27 -4 -6 -8 -1 -8 12 0 18 -6 22
-30 22 l-30 0 0 -170 0 -170 30 0 30 0 0 110 c0 148 22 190 98 190 55 0 66
-26 70 -171 4 -128 5 -129 28 -129 l24 0 0 146 0 146 -29 29 c-25 24 -38 29
-78 29 -29 0 -58 -7 -73 -17z"/>
<path d="M4229 13587 c-66 -44 -84 -168 -38 -259 36 -71 119 -98 184 -60 35
21 35 21 35 1 0 -11 -6 -35 -14 -53 -25 -60 -119 -72 -153 -20 -18 28 -63 33
-63 8 0 -51 54 -84 136 -84 65 0 113 24 134 67 10 20 15 84 18 221 l4 192 -31
0 c-24 0 -31 -4 -31 -20 0 -18 -2 -17 -26 5 -36 34 -107 34 -155 2z m133 -38
c64 -34 63 -204 -1 -239 -79 -42 -151 44 -134 159 10 76 73 113 135 80z"/>
<path d="M4588 13594 c-36 -19 -48 -43 -48 -93 0 -49 20 -65 107 -88 100 -25
131 -63 81 -97 -46 -33 -148 -5 -148 40 0 9 -11 14 -29 14 -28 0 -29 -1 -21
-31 12 -41 28 -59 67 -76 91 -37 196 7 209 88 9 53 -21 83 -103 104 -107 28
-134 53 -97 89 32 32 134 13 134 -25 0 -5 13 -9 29 -9 29 0 30 1 19 30 -17 49
-52 70 -117 70 -31 -1 -68 -7 -83 -16z"/>
<path d="M6323 13590 c-70 -46 -94 -165 -50 -250 28 -56 63 -81 119 -87 155
-18 237 191 124 315 -31 33 -39 36 -97 39 -52 3 -70 0 -96 -17z m137 -40 c10
-5 26 -30 35 -54 50 -130 -55 -249 -146 -168 -27 24 -33 37 -37 85 -5 64 9
110 42 132 24 17 79 20 106 5z"/>
<path d="M7089 13579 l-29 -31 0 26 c0 21 -5 26 -25 26 l-25 0 0 -170 0 -170
30 0 30 0 0 119 c0 135 9 157 70 170 28 5 36 12 38 34 3 24 0 27 -28 27 -23 0
-40 -9 -61 -31z"/>
<path d="M7265 13598 c-35 -19 -55 -52 -55 -90 0 -47 24 -73 82 -88 112 -28
123 -34 126 -62 7 -57 -96 -81 -143 -33 -14 13 -25 29 -25 35 0 5 -11 10 -25
10 -19 0 -25 -5 -25 -23 0 -105 215 -134 265 -36 39 74 6 120 -104 149 -100
26 -122 48 -83 83 34 31 132 17 132 -18 0 -10 10 -15 31 -15 27 0 30 3 24 23
-4 12 -20 34 -36 50 -25 23 -38 27 -87 27 -31 0 -66 -6 -77 -12z"/>
<path d="M7624 13600 c-71 -28 -113 -151 -83 -241 42 -124 205 -147 276 -40
30 44 29 51 -6 51 -21 0 -32 -6 -36 -20 -7 -23 -53 -50 -85 -50 -32 0 -78 27
-84 50 -19 66 -30 60 108 60 l126 0 0 42 c0 54 -32 119 -69 141 -31 18 -110
22 -147 7z m131 -65 c14 -13 25 -36 25 -50 l0 -25 -96 0 c-94 0 -95 0 -89 23
4 12 19 34 33 50 35 36 92 38 127 2z"/>
<path d="M3670 13430 l0 -170 30 0 30 0 0 170 0 170 -30 0 -30 0 0 -170z"/>
<path d="M5424 13508 c19 -51 48 -131 65 -177 l30 -83 -20 -40 c-18 -35 -24
-40 -50 -36 -26 4 -29 2 -29 -24 0 -26 3 -28 39 -28 47 0 66 17 96 85 23 52
145 380 145 391 0 3 -14 4 -32 2 -32 -3 -33 -4 -73 -130 -22 -70 -43 -129 -46
-132 -3 -3 -25 55 -48 129 l-43 135 -34 0 -33 0 33 -92z"/>
<path d="M5910 13592 c0 -5 27 -84 60 -176 l61 -168 -18 -36 c-15 -30 -24 -38
-51 -40 -28 -3 -33 -7 -30 -25 2 -17 11 -23 35 -25 45 -4 67 11 91 60 25 54
152 394 152 408 0 5 -13 10 -29 10 -29 0 -30 -3 -73 -130 -23 -71 -45 -130
-48 -130 -3 0 -25 59 -48 130 -43 127 -44 130 -73 130 -16 0 -29 -4 -29 -8z"/>
<path d="M6630 13483 c0 -174 18 -217 93 -230 49 -8 84 3 113 34 l24 26 0 -27
c0 -21 5 -26 25 -26 l25 0 0 170 0 170 -30 0 -30 0 0 -121 c0 -120 0 -121 -29
-150 -19 -18 -40 -29 -58 -29 -61 0 -73 30 -73 179 l0 121 -30 0 -30 0 0 -117z"/>
<path d="M8260 13295 c0 -33 2 -35 35 -35 33 0 35 2 35 35 0 33 -2 35 -35 35
-33 0 -35 -2 -35 -35z"/>
<path d="M1994 11883 c2 -10 26 -99 51 -198 25 -99 51 -197 56 -217 9 -35 13
-38 44 -38 31 0 35 3 44 38 65 237 96 341 100 336 4 -3 29 -87 56 -187 l51
-182 35 -3 35 -3 17 68 c9 37 36 144 61 236 l44 168 -36 -3 -35 -3 -41 -177
c-23 -97 -43 -179 -46 -182 -3 -3 -28 78 -55 179 l-50 185 -36 0 -37 0 -41
-152 c-50 -182 -62 -220 -66 -216 -3 3 -85 355 -85 364 0 2 -16 4 -36 4 -29 0
-34 -3 -30 -17z"/>
<path d="M2640 11870 c0 -27 3 -30 30 -30 27 0 30 3 30 30 0 27 -3 30 -30 30
-27 0 -30 -3 -30 -30z"/>
<path d="M2970 11665 l0 -235 30 0 30 0 0 121 c0 120 0 121 29 150 21 21 39
29 65 29 60 0 66 -14 66 -166 l0 -134 30 0 30 0 0 136 c0 140 -6 165 -44 196
-31 25 -110 24 -147 -3 l-29 -20 0 80 0 81 -30 0 -30 0 0 -235z"/>
<path d="M3530 11665 l0 -235 35 0 35 0 0 105 0 105 115 0 115 0 0 30 0 30
-115 0 -115 0 0 75 0 75 130 0 130 0 0 25 0 25 -165 0 -165 0 0 -235z"/>
<path d="M4840 11870 c0 -27 3 -30 30 -30 27 0 30 3 30 30 0 27 -3 30 -30 30
-27 0 -30 -3 -30 -30z"/>
<path d="M4980 11665 l0 -235 30 0 30 0 0 235 0 235 -30 0 -30 0 0 -235z"/>
<path d="M5719 11871 c-37 -38 -41 -103 -8 -145 l22 -28 -48 -41 c-43 -38 -48
-47 -52 -92 -2 -30 1 -60 9 -75 21 -39 75 -70 122 -70 42 0 118 29 131 50 5 8
16 4 35 -15 20 -20 36 -26 59 -23 l32 3 -40 48 c-38 46 -39 49 -27 80 7 18 16
44 20 60 6 25 4 27 -22 27 -24 0 -30 -5 -38 -36 l-9 -37 -42 51 -43 50 40 40
c35 34 40 46 40 83 -1 68 -35 99 -110 99 -33 0 -48 -6 -71 -29z m121 -40 c16
-31 12 -48 -20 -83 l-30 -33 -20 25 c-45 57 -33 110 25 110 24 0 38 -6 45 -19z
m-20 -242 c27 -33 50 -64 50 -70 0 -21 -65 -50 -103 -45 -82 10 -105 82 -45
143 18 18 35 33 40 33 4 0 30 -27 58 -61z"/>
<path d="M6280 11665 l0 -235 30 0 30 0 0 105 0 104 118 3 117 3 3 28 3 27
-121 0 -121 0 3 73 3 72 133 3 132 3 0 24 0 25 -165 0 -165 0 0 -235z"/>
<path d="M6890 11870 c0 -27 3 -30 30 -30 27 0 30 3 30 30 0 27 -3 30 -30 30
-27 0 -30 -3 -30 -30z"/>
<path d="M7990 11819 l0 -80 -26 20 c-35 27 -107 28 -150 2 -95 -58 -84 -268
16 -323 46 -25 112 -19 146 13 l24 22 0 -21 c0 -17 6 -22 25 -22 l25 0 0 235
0 235 -30 0 -30 0 0 -81z m-22 -129 c21 -30 23 -44 20 -104 -3 -60 -7 -71 -31
-92 -47 -40 -104 -29 -132 26 -30 57 -12 187 27 204 7 2 31 4 53 3 33 -2 43
-8 63 -37z"/>
<path d="M9060 11665 l0 -235 35 0 35 0 0 100 0 100 90 0 c99 0 134 12 169 56
26 32 28 111 6 154 -26 50 -59 60 -205 60 l-130 0 0 -235z m271 156 c26 -31
24 -74 -4 -107 -22 -25 -31 -28 -110 -32 l-87 -5 0 88 0 87 91 -4 c81 -3 93
-6 110 -27z"/>
<path d="M9490 11665 l0 -235 30 0 30 0 0 235 0 235 -30 0 -30 0 0 -235z"/>
<path d="M10990 11870 c0 -27 3 -30 30 -30 27 0 30 3 30 30 0 27 -3 30 -30 30
-27 0 -30 -3 -30 -30z"/>
<path d="M11320 11665 l0 -235 30 0 30 0 0 116 c0 149 17 183 91 184 62 0 69
-17 69 -168 l0 -132 30 0 30 0 0 131 c0 145 -12 187 -56 208 -41 18 -108 14
-138 -10 l-26 -20 0 80 0 81 -30 0 -30 0 0 -235z"/>
<path d="M2800 11820 c0 -47 -2 -50 -25 -50 -18 0 -25 -5 -25 -20 0 -15 7 -20
25 -20 l25 0 0 -128 c0 -152 8 -172 71 -172 35 0 39 3 39 25 0 20 -5 25 -25
25 l-25 0 0 125 0 125 25 0 c18 0 25 5 25 20 0 15 -7 20 -25 20 -23 0 -25 3
-25 50 0 49 -1 50 -30 50 -29 0 -30 -1 -30 -50z"/>
<path d="M11148 11823 c-3 -41 -6 -48 -25 -51 -33 -5 -31 -42 2 -42 l25 0 0
-134 c0 -154 5 -166 71 -166 35 0 39 3 39 25 0 20 -5 25 -25 25 l-25 0 0 125
0 125 25 0 c18 0 25 5 25 20 0 15 -7 20 -25 20 -23 0 -25 3 -25 50 0 49 -1 50
-29 50 -28 0 -30 -2 -33 -47z"/>
<path d="M3962 11754 c-17 -16 -34 -41 -38 -56 -6 -26 -4 -28 24 -28 23 0 31
5 36 25 9 34 71 53 112 34 24 -12 29 -21 29 -49 0 -35 0 -35 -55 -43 -132 -19
-166 -44 -164 -120 3 -85 96 -122 186 -73 44 23 47 24 53 6 6 -20 45 -33 69
-24 23 9 20 41 -4 47 -19 5 -20 14 -20 126 0 112 -2 122 -24 148 -21 25 -32
28 -99 31 -70 4 -76 3 -105 -24z m168 -193 c0 -32 -6 -44 -31 -65 -42 -36
-102 -36 -125 -1 -18 28 -11 60 16 75 15 8 54 17 133 29 4 0 7 -17 7 -38z"/>
<path d="M4371 11754 c-30 -25 -31 -25 -31 -5 0 16 -6 21 -25 21 l-25 0 0
-170 0 -170 30 0 30 0 0 115 c0 150 16 185 85 185 48 0 55 -20 55 -166 l0
-134 30 0 30 0 0 115 c0 150 16 185 85 185 48 0 55 -20 55 -166 l0 -134 30 0
30 0 0 146 0 146 -29 29 c-23 23 -38 29 -71 29 -41 0 -100 -26 -100 -43 0 -5
-14 3 -31 17 -23 19 -42 26 -74 26 -32 0 -51 -7 -74 -26z"/>
<path d="M6759 11751 l-29 -29 0 24 c0 19 -5 24 -25 24 l-25 0 0 -170 0 -170
24 0 c24 0 24 1 28 121 3 118 4 121 31 145 15 13 39 24 53 24 20 0 24 5 24 30
0 26 -4 30 -26 30 -15 0 -38 -12 -55 -29z"/>
<path d="M7092 11760 c-92 -56 -98 -248 -9 -314 35 -26 113 -32 160 -13 34 15
77 67 77 95 0 24 -42 11 -74 -23 -27 -28 -41 -35 -70 -35 -46 0 -96 44 -96 84
l0 26 125 0 125 0 0 28 c0 51 -22 106 -55 139 -30 30 -39 33 -91 33 -42 0 -69
-6 -92 -20z m142 -52 c14 -13 28 -35 32 -50 l6 -28 -96 0 c-91 0 -96 1 -96 21
0 11 13 34 29 50 37 37 88 39 125 7z"/>
<path d="M7488 11759 c-24 -17 -28 -18 -28 -5 0 11 -9 16 -30 16 l-30 0 0
-170 0 -170 30 0 30 0 0 119 c0 114 1 121 26 150 21 25 34 31 64 31 62 0 70
-21 70 -172 l0 -128 30 0 30 0 0 136 c0 140 -6 165 -44 196 -30 25 -113 23
-148 -3z"/>
<path d="M8185 11771 c-31 -13 -55 -45 -61 -82 -9 -54 21 -83 106 -104 86 -21
116 -42 105 -74 -18 -57 -147 -52 -161 6 -5 17 -13 23 -35 23 -33 0 -35 -9
-13 -56 29 -62 152 -84 220 -39 54 35 64 121 17 152 -13 9 -59 26 -101 37 -65
18 -78 25 -80 44 -5 36 15 52 68 52 40 0 52 -5 68 -25 37 -46 79 -26 52 26
-23 41 -126 64 -185 40z"/>
<path d="M9672 11754 c-17 -16 -34 -41 -38 -56 -6 -26 -4 -28 24 -28 23 0 31
5 36 25 9 34 71 53 112 34 24 -12 29 -21 29 -49 0 -35 0 -35 -55 -43 -132 -19
-166 -44 -164 -120 3 -85 96 -122 186 -73 44 23 47 24 53 6 6 -20 45 -33 69
-24 23 9 20 41 -4 47 -19 5 -20 14 -20 126 0 112 -2 122 -24 148 -21 25 -32
28 -99 31 -70 4 -76 3 -105 -24z m168 -193 c0 -32 -6 -44 -31 -65 -42 -36
-102 -36 -125 -1 -18 28 -11 60 16 75 15 8 54 17 133 29 4 0 7 -17 7 -38z"/>
<path d="M2640 11600 l0 -170 30 0 30 0 0 170 0 170 -30 0 -30 0 0 -170z"/>
<path d="M4840 11600 l0 -170 30 0 30 0 0 170 0 170 -30 0 -30 0 0 -170z"/>
<path d="M5102 11758 c3 -7 31 -87 63 -177 l58 -164 -19 -36 c-14 -26 -27 -37
-46 -39 -22 -3 -28 -8 -28 -28 0 -23 3 -25 42 -22 63 4 72 22 207 396 l30 82
-32 0 -33 0 -45 -137 -46 -138 -45 135 c-45 135 -45 135 -78 138 -24 3 -31 0
-28 -10z"/>
<path d="M6890 11600 l0 -170 30 0 30 0 0 170 0 170 -30 0 -30 0 0 -170z"/>
<path d="M9972 11758 c3 -7 31 -87 63 -177 l58 -164 -19 -36 c-14 -26 -27 -37
-46 -39 -22 -3 -28 -8 -28 -28 0 -23 3 -25 42 -22 63 4 72 22 207 396 l30 82
-32 0 -33 0 -45 -137 -46 -138 -45 135 c-45 135 -45 135 -78 138 -24 3 -31 0
-28 -10z"/>
<path d="M10486 11748 c4 -13 26 -88 49 -168 42 -144 42 -145 73 -148 35 -4
31 -12 72 160 13 54 25 96 27 94 2 -2 19 -59 36 -127 32 -123 33 -124 63 -127
l31 -3 46 159 c26 88 47 165 47 171 0 7 -11 11 -27 9 -25 -3 -28 -9 -54 -110
-39 -159 -38 -159 -73 -18 l-32 125 -35 3 -35 3 -28 -118 c-16 -65 -31 -122
-34 -128 -3 -5 -20 47 -37 115 l-31 125 -33 3 c-30 3 -32 2 -25 -20z"/>
<path d="M10990 11600 l0 -170 30 0 30 0 0 170 0 170 -30 0 -30 0 0 -170z"/>
<path d="M1635 11638 c-29 -16 -35 -28 -35 -70 0 -44 27 -68 77 -68 68 0 97
76 48 125 -26 27 -58 31 -90 13z"/>
<path d="M8630 11610 l0 -30 80 0 80 0 0 30 0 30 -80 0 -80 0 0 -30z"/>
<path d="M2570 10745 l0 -235 30 0 30 0 0 116 c0 149 17 183 91 184 62 0 69
-17 69 -168 l0 -132 30 0 30 0 0 131 c0 145 -12 187 -56 208 -41 18 -108 14
-138 -10 l-26 -20 0 80 0 81 -30 0 -30 0 0 -235z"/>
<path d="M4770 10745 l0 -235 25 0 c24 0 25 2 25 63 0 56 3 66 26 88 15 13 28
20 31 14 2 -5 26 -45 53 -87 47 -73 52 -78 85 -78 26 0 34 3 29 13 -5 6 -36
55 -70 108 l-62 96 61 62 62 61 -35 0 c-30 0 -45 -10 -107 -72 l-73 -72 0 137
0 137 -25 0 -25 0 0 -235z"/>
<path d="M7290 10745 l0 -235 25 0 c19 0 25 5 25 22 0 21 0 21 26 -3 37 -35
121 -34 160 1 39 36 64 97 64 158 0 104 -54 172 -139 172 -34 0 -56 -6 -75
-21 l-26 -20 0 80 0 81 -30 0 -30 0 0 -235z m210 40 c33 -35 39 -134 13 -185
-32 -62 -103 -66 -147 -7 -37 50 -19 192 26 210 36 15 85 6 108 -18z"/>
<path d="M8030 10950 c0 -25 4 -30 25 -30 21 0 25 5 25 30 0 25 -4 30 -25 30
-21 0 -25 -5 -25 -30z"/>
<path d="M9270 10745 l0 -235 30 0 30 0 0 121 c0 120 0 121 29 150 21 21 39
29 65 29 60 0 66 -14 66 -166 l0 -134 30 0 30 0 0 136 c0 140 -6 165 -44 196
-31 25 -110 24 -147 -3 l-29 -20 0 80 0 81 -30 0 -30 0 0 -235z"/>
<path d="M2398 10903 c-3 -41 -6 -48 -25 -51 -33 -5 -31 -42 2 -42 l25 0 0
-134 c0 -154 5 -166 71 -166 35 0 39 3 39 25 0 20 -5 25 -25 25 l-25 0 0 125
0 125 25 0 c18 0 25 5 25 20 0 15 -7 20 -25 20 -23 0 -25 3 -25 50 0 49 -1 50
-29 50 -28 0 -30 -2 -33 -47z"/>
<path d="M4228 10903 c-3 -41 -6 -48 -25 -51 -33 -5 -31 -42 2 -42 l25 0 0
-134 c0 -154 5 -166 71 -166 35 0 39 3 39 25 0 20 -5 25 -25 25 l-25 0 0 125
0 125 25 0 c18 0 25 5 25 20 0 15 -7 20 -25 20 -23 0 -25 3 -25 50 0 49 -1 50
-29 50 -28 0 -30 -2 -33 -47z"/>
<path d="M5658 10903 c-3 -41 -6 -48 -25 -51 -33 -5 -31 -42 2 -42 l25 0 0
-134 c0 -154 5 -166 71 -166 35 0 39 3 39 25 0 20 -5 25 -25 25 l-25 0 0 125
0 125 25 0 c18 0 25 5 25 20 0 15 -7 20 -25 20 -23 0 -25 3 -25 50 0 49 -1 50
-29 50 -28 0 -30 -2 -33 -47z"/>
<path d="M9100 10900 c0 -47 -2 -50 -25 -50 -18 0 -25 -5 -25 -20 0 -15 7 -20
25 -20 l25 0 0 -128 c0 -152 8 -172 71 -172 35 0 39 3 39 25 0 20 -5 25 -25
25 l-25 0 0 125 0 125 25 0 c18 0 25 5 25 20 0 15 -7 20 -25 20 -23 0 -25 3
-25 50 0 49 -1 50 -30 50 -29 0 -30 -1 -30 -50z"/>
<path d="M2095 10850 c-88 -36 -123 -192 -62 -281 47 -68 151 -89 215 -42 95
68 93 254 -2 313 -35 21 -112 26 -151 10z m117 -51 c27 -14 48 -68 48 -122 0
-81 -65 -143 -126 -121 -76 27 -99 163 -39 228 26 28 79 35 117 15z"/>
<path d="M2996 10841 c-47 -31 -68 -75 -73 -149 -4 -57 -1 -74 19 -111 61
-114 232 -107 277 12 10 25 9 27 -18 27 -19 0 -32 -7 -41 -24 -30 -58 -126
-59 -160 -3 -39 64 -35 67 105 67 l125 0 0 38 c-1 48 -30 113 -65 140 -37 29
-127 31 -169 3z m135 -44 c20 -15 39 -51 39 -71 0 -13 -15 -16 -95 -16 -99 0
-104 3 -84 43 26 51 100 75 140 44z"/>
<path d="M3389 10829 l-29 -31 0 26 c0 21 -5 26 -25 26 l-25 0 0 -170 0 -170
30 0 30 0 0 119 c0 135 9 157 70 170 28 5 36 12 38 34 3 24 0 27 -28 27 -23 0
-40 -9 -61 -31z"/>
<path d="M3544 10826 c-25 -25 -34 -43 -34 -68 0 -48 30 -73 117 -97 90 -24
93 -26 93 -56 0 -36 -41 -59 -91 -52 -46 6 -69 22 -69 48 0 14 -7 19 -30 19
-33 0 -37 -13 -18 -54 16 -36 51 -56 107 -63 95 -11 161 34 161 108 0 51 -24
74 -97 94 -105 30 -108 31 -111 54 -6 36 15 51 69 51 41 0 51 -4 65 -25 10
-15 26 -25 40 -25 27 0 29 8 12 45 -17 37 -57 55 -124 55 -50 0 -59 -3 -90
-34z"/>
<path d="M4434 10826 c-41 -41 -46 -76 -11 -76 16 0 28 9 35 25 15 32 54 47
98 39 42 -8 56 -25 52 -61 -3 -27 -6 -28 -81 -40 -87 -13 -123 -31 -137 -69
-18 -46 -11 -75 25 -111 33 -33 39 -35 86 -31 29 3 62 14 79 27 35 25 40 26
40 6 0 -19 46 -38 71 -30 26 9 25 45 -1 45 -19 0 -20 7 -20 114 0 63 -4 126
-10 140 -13 36 -59 56 -131 56 -56 0 -64 -3 -95 -34z m176 -184 c0 -49 -33
-82 -89 -89 -48 -7 -81 15 -81 52 0 31 23 47 88 61 83 18 82 18 82 -24z"/>
<path d="M5156 10841 c-47 -31 -68 -75 -73 -149 -4 -57 -1 -74 19 -111 61
-114 232 -107 277 12 10 25 9 27 -18 27 -19 0 -32 -7 -41 -24 -30 -58 -126
-59 -160 -3 -39 64 -35 67 105 67 l125 0 0 38 c-1 48 -30 113 -65 140 -37 29
-127 31 -169 3z m135 -44 c20 -15 39 -51 39 -71 0 -13 -15 -16 -95 -16 -99 0
-104 3 -84 43 26 51 100 75 140 44z"/>
<path d="M6287 10833 c-26 -27 -27 -27 -27 -5 0 18 -6 22 -30 22 l-30 0 0
-170 0 -170 30 0 30 0 0 111 c0 138 18 178 83 179 23 0 27 4 27 30 0 26 -4 30
-28 30 -17 0 -38 -11 -55 -27z"/>
<path d="M6510 10843 c-14 -9 -28 -22 -32 -27 -4 -6 -8 -1 -8 12 0 18 -6 22
-30 22 l-30 0 0 -170 0 -170 30 0 30 0 0 110 c0 148 22 190 98 190 55 0 66
-26 70 -171 4 -128 5 -129 28 -129 l24 0 0 146 0 146 -29 29 c-25 24 -38 29
-78 29 -29 0 -58 -7 -73 -17z"/>
<path d="M6804 10826 c-25 -25 -34 -43 -34 -68 0 -48 30 -73 117 -97 90 -24
93 -26 93 -56 0 -36 -41 -59 -91 -52 -46 6 -69 22 -69 48 0 14 -7 19 -30 19
-33 0 -37 -13 -18 -54 16 -36 51 -56 107 -63 95 -11 161 34 161 108 0 51 -24
74 -97 94 -105 30 -108 31 -111 54 -6 36 15 51 69 51 41 0 51 -4 65 -25 10
-15 26 -25 40 -25 27 0 29 8 12 45 -17 37 -57 55 -124 55 -50 0 -59 -3 -90
-34z"/>
<path d="M7734 10850 c-71 -28 -113 -151 -83 -241 42 -124 205 -147 276 -40
30 44 29 51 -6 51 -21 0 -32 -6 -36 -20 -7 -23 -53 -50 -85 -50 -32 0 -78 27
-84 50 -19 66 -30 60 108 60 l126 0 0 42 c0 54 -32 119 -69 141 -31 18 -110
22 -147 7z m131 -65 c14 -13 25 -36 25 -50 l0 -25 -96 0 c-94 0 -95 0 -89 23
4 12 19 34 33 50 35 36 92 38 127 2z"/>
<path d="M8258 10839 c-24 -17 -28 -18 -28 -5 0 11 -9 16 -30 16 l-30 0 0
-170 0 -170 30 0 30 0 0 119 c0 114 1 121 26 150 21 25 34 31 64 31 62 0 70
-21 70 -172 l0 -128 30 0 30 0 0 136 c0 140 -6 165 -44 196 -30 25 -113 23
-148 -3z"/>
<path d="M8575 10827 c-105 -105 -41 -327 94 -327 20 0 51 9 69 20 l34 21 -7
-33 c-12 -62 -17 -70 -52 -84 -44 -19 -87 -10 -112 22 -11 15 -29 24 -46 24
-23 0 -25 -3 -20 -22 4 -13 20 -36 37 -52 29 -26 35 -28 104 -24 68 3 77 6
107 36 l32 32 3 205 3 205 -25 0 c-20 0 -26 -5 -26 -21 0 -20 -1 -20 -31 5
-24 20 -41 26 -81 26 -43 0 -54 -4 -83 -33z m159 -40 c26 -26 42 -106 31 -155
-12 -59 -72 -95 -120 -74 -70 32 -88 170 -30 228 32 32 87 33 119 1z"/>
<path d="M9714 10850 c-71 -28 -113 -151 -83 -241 42 -124 205 -147 276 -40
30 44 29 51 -6 51 -21 0 -32 -6 -36 -20 -7 -23 -53 -50 -85 -50 -32 0 -78 27
-84 50 -19 66 -30 60 108 60 l126 0 0 42 c0 54 -32 119 -69 141 -31 18 -110
22 -147 7z m131 -65 c14 -13 25 -36 25 -50 l0 -25 -96 0 c-94 0 -95 0 -89 23
4 12 19 34 33 50 35 36 92 38 127 2z"/>
<path d="M5830 10715 c0 -153 9 -184 60 -205 41 -17 106 -7 136 21 l24 22 0
-21 c0 -18 6 -22 30 -22 l30 0 0 170 0 170 -30 0 -30 0 0 -105 c0 -121 -15
-170 -55 -185 -39 -15 -63 -12 -85 10 -18 18 -20 33 -20 150 l0 130 -30 0 -30
0 0 -135z"/>
<path d="M8030 10680 l0 -170 25 0 25 0 0 170 0 170 -25 0 -25 0 0 -170z"/>
<path d="M3860 10545 c0 -28 4 -35 20 -35 13 0 20 -7 20 -20 0 -11 -9 -28 -20
-37 -25 -22 -25 -33 -1 -33 32 0 51 38 51 102 l0 58 -35 0 c-33 0 -35 -2 -35
-35z"/>
<path d="M2198 9865 c-3 -222 -6 -230 -79 -230 -48 0 -69 22 -69 72 0 30 -3
33 -30 33 -28 0 -30 -3 -30 -34 0 -79 48 -126 130 -126 57 0 88 16 117 59 22
32 23 43 23 227 l0 194 -29 0 -29 0 -4 -195z"/>
<path d="M2940 9979 l0 -80 -26 20 c-35 27 -107 28 -150 2 -95 -58 -84 -268
16 -323 46 -25 112 -19 146 13 l24 22 0 -21 c0 -17 6 -22 25 -22 l25 0 0 235
0 235 -30 0 -30 0 0 -81z m-22 -129 c21 -30 23 -44 20 -104 -3 -60 -7 -71 -31
-92 -47 -40 -104 -29 -132 26 -30 57 -12 187 27 204 7 2 31 4 53 3 33 -2 43
-8 63 -37z"/>
<path d="M5140 9973 c-1 -71 -3 -85 -13 -72 -50 65 -172 46 -213 -33 -25 -48
-24 -152 2 -203 40 -77 122 -106 189 -67 28 17 35 18 35 7 0 -10 10 -15 30
-15 l30 0 0 235 0 235 -30 0 -30 0 0 -87z m-48 -94 c47 -25 64 -147 28 -206
-26 -43 -80 -54 -118 -26 -57 42 -66 169 -17 219 26 26 72 32 107 13z"/>
<path d="M10630 9825 l0 -235 25 0 25 0 0 105 c0 153 22 195 104 195 57 0 66
-23 66 -172 l0 -128 30 0 30 0 0 118 c0 136 -11 183 -47 212 -39 30 -112 28
-152 -6 l-31 -26 0 86 c0 85 0 86 -25 86 l-25 0 0 -235z"/>
<path d="M7450 9980 c0 -43 -3 -50 -20 -50 -13 0 -20 -7 -20 -20 0 -13 7 -20
20 -20 19 0 20 -7 20 -122 0 -155 7 -172 74 -176 44 -3 47 -2 44 20 -2 14 -12
24 -28 28 -25 6 -25 7 -28 128 l-3 122 31 0 c23 0 30 4 30 19 0 14 -8 21 -27
23 -26 3 -28 7 -31 51 -3 45 -5 47 -33 47 -28 0 -29 -1 -29 -50z"/>
<path d="M8188 9983 c-3 -41 -6 -48 -25 -51 -15 -2 -23 -10 -23 -22 0 -12 8
-20 23 -22 21 -3 22 -7 25 -137 1 -79 7 -140 14 -148 6 -7 30 -13 54 -13 40 0
44 2 44 25 0 20 -5 25 -25 25 -32 0 -37 19 -33 145 l3 100 28 3 c19 2 27 9 27
22 0 13 -8 20 -27 22 -26 3 -28 7 -31 51 -3 42 -6 47 -27 47 -21 0 -24 -5 -27
-47z"/>
<path d="M3129 9917 c-66 -44 -84 -168 -38 -259 36 -71 119 -98 184 -60 35 21
35 21 35 1 0 -11 -6 -35 -14 -53 -25 -60 -119 -72 -153 -20 -18 28 -63 33 -63
8 0 -51 54 -84 136 -84 65 0 113 24 134 67 10 20 15 84 18 221 l4 192 -31 0
c-24 0 -31 -4 -31 -20 0 -18 -2 -17 -26 5 -36 34 -107 34 -155 2z m133 -38
c64 -34 63 -204 -1 -239 -79 -42 -151 44 -134 159 10 76 73 113 135 80z"/>
<path d="M3524 9930 c-71 -28 -113 -151 -83 -241 42 -124 205 -147 276 -40 30
44 29 51 -6 51 -21 0 -32 -6 -36 -20 -7 -23 -53 -50 -85 -50 -32 0 -78 27 -84
50 -19 66 -30 60 108 60 l126 0 0 42 c0 54 -32 119 -69 141 -31 18 -110 22
-147 7z m131 -65 c14 -13 25 -36 25 -50 l0 -25 -96 0 c-94 0 -95 0 -89 23 4
12 19 34 33 50 35 36 92 38 127 2z"/>
<path d="M4214 9906 c-41 -41 -46 -76 -11 -76 16 0 28 9 35 25 15 32 54 47 98
39 42 -8 56 -25 52 -61 -3 -27 -6 -28 -81 -40 -87 -13 -123 -31 -137 -69 -18
-46 -11 -75 25 -111 33 -33 39 -35 86 -31 29 3 62 14 79 27 35 25 40 26 40 6
0 -19 46 -38 71 -30 26 9 25 45 -1 45 -19 0 -20 7 -20 114 0 63 -4 126 -10
140 -13 36 -59 56 -131 56 -56 0 -64 -3 -95 -34z m176 -184 c0 -49 -33 -82
-89 -89 -48 -7 -81 15 -81 52 0 31 23 47 88 61 83 18 82 18 82 -24z"/>
<path d="M4631 9914 c-30 -25 -31 -25 -31 -5 0 16 -6 21 -25 21 l-25 0 0 -170
0 -170 30 0 30 0 0 116 c0 149 17 183 92 184 59 0 68 -21 68 -172 l0 -128 30
0 30 0 0 131 c0 183 -20 219 -125 219 -32 0 -51 -7 -74 -26z"/>
<path d="M5535 9930 c-82 -34 -120 -171 -74 -267 48 -99 194 -111 249 -21 27
45 26 68 -4 68 -17 0 -29 -9 -38 -27 -27 -57 -94 -68 -137 -22 -41 44 -38 157
4 203 40 43 116 32 135 -20 11 -28 60 -35 60 -9 0 25 -28 72 -52 89 -24 17
-109 21 -143 6z"/>
<path d="M5850 9917 c-51 -34 -73 -80 -74 -151 -1 -82 25 -133 85 -164 109
-57 219 11 227 142 5 80 -21 146 -70 176 -47 28 -124 27 -168 -3z m157 -66
c29 -42 32 -128 6 -172 -22 -37 -64 -54 -106 -43 -24 7 -38 20 -56 57 -29 59
-23 121 16 167 23 28 31 31 71 28 40 -3 50 -8 69 -37z"/>
<path d="M6241 9914 c-30 -25 -31 -25 -31 -5 0 16 -6 21 -25 21 l-25 0 0 -170
0 -170 30 0 30 0 0 115 c0 150 16 185 85 185 48 0 55 -20 55 -166 l0 -134 30
0 30 0 0 115 c0 150 16 185 85 185 48 0 55 -20 55 -166 l0 -134 30 0 30 0 0
146 0 146 -29 29 c-23 23 -38 29 -71 29 -41 0 -100 -26 -100 -43 0 -5 -14 3
-31 17 -23 19 -42 26 -74 26 -32 0 -51 -7 -74 -26z"/>
<path d="M6786 9915 c-24 -22 -26 -23 -26 -5 0 16 -7 20 -30 20 l-30 0 2 -237
3 -238 28 -3 27 -3 0 85 0 85 35 -21 c41 -23 99 -21 140 6 61 40 88 174 52
258 -32 75 -145 105 -201 53z m124 -43 c48 -39 44 -182 -7 -222 -45 -35 -101
-23 -128 30 -30 58 -11 174 32 199 28 16 78 13 103 -7z"/>
<path d="M7132 9920 c-92 -56 -98 -248 -9 -314 35 -26 113 -32 160 -13 34 15
77 67 77 95 0 24 -42 11 -74 -23 -27 -28 -41 -35 -70 -35 -46 0 -96 44 -96 84
l0 26 125 0 125 0 0 28 c0 51 -22 106 -55 139 -30 30 -39 33 -91 33 -42 0 -69
-6 -92 -20z m142 -52 c14 -13 28 -35 32 -50 l6 -28 -96 0 c-91 0 -96 1 -96 21
0 11 13 34 29 50 37 37 88 39 125 7z"/>
<path d="M7682 9920 c-92 -56 -98 -248 -9 -314 35 -26 113 -32 160 -13 34 15
77 67 77 95 0 24 -42 11 -74 -23 -27 -28 -41 -35 -70 -35 -46 0 -96 44 -96 84
l0 26 125 0 125 0 0 28 c0 51 -22 106 -55 139 -30 30 -39 33 -91 33 -42 0 -69
-6 -92 -20z m142 -52 c14 -13 28 -35 32 -50 l6 -28 -96 0 c-91 0 -96 1 -96 21
0 11 13 34 29 50 37 37 88 39 125 7z"/>
<path d="M8410 9918 c-53 -37 -72 -81 -68 -165 2 -53 9 -79 24 -99 50 -68 115
-88 189 -59 119 45 135 250 26 322 -47 32 -125 32 -171 1z m149 -52 c43 -46
47 -141 7 -201 -35 -53 -130 -38 -156 25 -20 48 -9 144 20 175 32 35 97 35
129 1z"/>
<path d="M8948 9924 c-36 -19 -48 -43 -48 -93 0 -49 20 -65 107 -88 100 -25
131 -63 81 -97 -46 -33 -148 -5 -148 40 0 9 -11 14 -29 14 -28 0 -29 -1 -21
-31 12 -41 28 -59 67 -76 91 -37 196 7 209 88 9 53 -21 83 -103 104 -107 28
-134 53 -97 89 32 32 134 13 134 -25 0 -5 13 -9 29 -9 29 0 30 1 19 30 -17 49
-52 70 -117 70 -31 -1 -68 -7 -83 -16z"/>
<path d="M9296 9921 c-47 -31 -68 -75 -73 -149 -4 -57 -1 -74 19 -111 61 -114
232 -107 277 12 10 25 9 27 -18 27 -19 0 -32 -7 -41 -24 -30 -58 -126 -59
-160 -3 -39 64 -35 67 105 67 l125 0 0 38 c-1 48 -30 113 -65 140 -37 29 -127
31 -169 3z m135 -44 c20 -15 39 -51 39 -71 0 -13 -15 -16 -95 -16 -99 0 -104
3 -84 43 26 51 100 75 140 44z"/>
<path d="M9659 9917 c-48 -31 -73 -88 -73 -163 0 -68 21 -113 67 -148 34 -25
129 -29 171 -7 26 15 66 68 66 90 0 23 -44 10 -69 -20 -19 -22 -37 -32 -68
-36 -37 -5 -46 -2 -73 25 -18 18 -30 41 -30 56 l0 25 123 3 122 3 -3 43 c-3
58 -35 118 -72 137 -44 23 -120 19 -161 -8z m133 -38 c16 -9 48 -64 48 -84 0
-3 -43 -5 -95 -5 -90 0 -95 1 -95 21 0 11 13 34 29 50 31 31 75 38 113 18z"/>
<path d="M11050 9917 c-51 -34 -73 -80 -74 -151 -1 -82 25 -133 85 -164 109
-57 219 11 227 142 5 80 -21 146 -70 176 -47 28 -124 27 -168 -3z m157 -66
c29 -42 32 -128 6 -172 -22 -37 -64 -54 -106 -43 -24 7 -38 20 -56 57 -29 59
-23 121 16 167 23 28 31 31 71 28 40 -3 50 -8 69 -37z"/>
<path d="M2350 9795 c0 -153 9 -184 60 -205 41 -17 106 -7 136 21 l24 22 0
-21 c0 -18 6 -22 30 -22 l30 0 0 170 0 170 -30 0 -30 0 0 -105 c0 -121 -15
-170 -55 -185 -39 -15 -63 -12 -85 10 -18 18 -20 33 -20 150 l0 130 -30 0 -30
0 0 -135z"/>
<path d="M10122 9918 c3 -7 25 -84 49 -170 l44 -158 31 0 32 0 32 130 c18 72
33 130 35 130 1 0 17 -58 35 -130 l34 -130 30 0 31 0 44 153 c24 83 46 160 49
170 3 13 -2 17 -25 17 -27 0 -30 -4 -42 -52 -6 -29 -21 -89 -33 -133 l-22 -80
-26 105 c-15 58 -30 117 -33 133 -6 23 -13 27 -41 27 l-34 0 -33 -132 -33
-133 -26 105 c-15 58 -30 117 -33 133 -6 22 -13 27 -38 27 -21 0 -30 -4 -27
-12z"/>
<path d="M3830 9625 c0 -24 5 -35 15 -35 8 0 15 -9 15 -19 0 -11 -7 -26 -15
-35 -8 -8 -15 -22 -15 -32 0 -15 2 -15 23 -2 26 18 46 68 46 121 1 36 0 37
-34 37 -33 0 -35 -2 -35 -35z"/>
<path d="M3630 8905 l0 -235 30 0 30 0 0 121 c0 120 0 121 29 150 21 21 39 29
65 29 60 0 66 -14 66 -166 l0 -134 30 0 30 0 0 136 c0 140 -6 165 -44 196 -31
25 -110 24 -147 -3 l-29 -20 0 80 0 81 -30 0 -30 0 0 -235z"/>
<path d="M4540 8905 l0 -235 30 0 c20 0 30 5 30 15 0 11 7 10 35 -7 41 -23 99
-21 140 6 61 40 88 174 52 258 -31 73 -135 102 -198 57 l-29 -20 0 80 0 81
-30 0 -30 0 0 -235z m210 47 c27 -22 41 -92 30 -152 -18 -98 -122 -123 -165
-40 -30 58 -11 174 32 199 28 16 78 13 103 -7z"/>
<path d="M2768 9063 c-3 -41 -6 -48 -25 -51 -15 -2 -23 -10 -23 -22 0 -12 8
-20 23 -22 21 -3 22 -7 25 -137 1 -79 7 -140 14 -148 6 -7 30 -13 54 -13 40 0
44 2 44 25 0 20 -5 25 -25 25 -32 0 -37 19 -33 145 l3 100 28 3 c19 2 27 9 27
22 0 13 -8 20 -27 22 -26 3 -28 7 -31 51 -3 42 -6 47 -27 47 -21 0 -24 -5 -27
-47z"/>
<path d="M3460 9060 c0 -47 -2 -50 -25 -50 -18 0 -25 -5 -25 -20 0 -15 7 -20
25 -20 l25 0 0 -128 c0 -152 8 -172 71 -172 35 0 39 3 39 25 0 20 -5 25 -25
25 l-25 0 0 125 0 125 25 0 c18 0 25 5 25 20 0 15 -7 20 -25 20 -23 0 -25 3
-25 50 0 49 -1 50 -30 50 -29 0 -30 -1 -30 -50z"/>
<path d="M5620 9060 c0 -47 -2 -50 -25 -50 -18 0 -25 -5 -25 -20 0 -15 7 -20
25 -20 l25 0 0 -128 c0 -152 8 -172 71 -172 35 0 39 3 39 25 0 20 -5 25 -25
25 l-25 0 0 125 0 125 25 0 c18 0 25 5 25 20 0 15 -7 20 -25 20 -23 0 -25 3
-25 50 0 49 -1 50 -30 50 -29 0 -30 -1 -30 -50z"/>
<path d="M2069 8997 c-66 -44 -84 -168 -38 -259 36 -71 119 -98 184 -60 35 21
35 21 35 1 0 -11 -6 -35 -14 -53 -25 -60 -119 -72 -153 -20 -18 28 -63 33 -63
8 0 -51 54 -84 136 -84 65 0 113 24 134 67 10 20 15 84 18 221 l4 192 -31 0
c-24 0 -31 -4 -31 -20 0 -18 -2 -17 -26 5 -36 34 -107 34 -155 2z m133 -38
c64 -34 63 -204 -1 -239 -79 -42 -151 44 -134 159 10 76 73 113 135 80z"/>
<path d="M2446 9001 c-47 -31 -68 -75 -73 -149 -4 -57 -1 -74 19 -111 61 -114
232 -107 277 12 10 25 9 27 -18 27 -19 0 -32 -7 -41 -24 -30 -58 -126 -59
-160 -3 -39 64 -35 67 105 67 l125 0 0 38 c-1 48 -30 113 -65 140 -37 29 -127
31 -169 3z m135 -44 c20 -15 39 -51 39 -71 0 -13 -15 -16 -95 -16 -99 0 -104
3 -84 43 26 51 100 75 140 44z"/>
<path d="M2978 9004 c-36 -19 -48 -43 -48 -93 0 -49 20 -65 107 -88 100 -25
131 -63 81 -97 -46 -33 -148 -5 -148 40 0 9 -11 14 -29 14 -28 0 -29 -1 -21
-31 12 -41 28 -59 67 -76 91 -37 196 7 209 88 9 53 -21 83 -103 104 -107 28
-134 53 -97 89 32 32 134 13 134 -25 0 -5 13 -9 29 -9 29 0 30 1 19 30 -17 49
-52 70 -117 70 -31 -1 -68 -7 -83 -16z"/>
<path d="M4074 9010 c-71 -28 -113 -151 -83 -241 42 -124 205 -147 276 -40 30
44 29 51 -6 51 -21 0 -32 -6 -36 -20 -7 -23 -53 -50 -85 -50 -32 0 -78 27 -84
50 -19 66 -30 60 108 60 l126 0 0 42 c0 54 -32 119 -69 141 -31 18 -110 22
-147 7z m131 -65 c14 -13 25 -36 25 -50 l0 -25 -96 0 c-94 0 -95 0 -89 23 4
12 19 34 33 50 35 36 92 38 127 2z"/>
<path d="M4972 9000 c-92 -56 -98 -248 -9 -314 35 -26 113 -32 160 -13 34 15
77 67 77 95 0 24 -42 11 -74 -23 -27 -28 -41 -35 -70 -35 -46 0 -96 44 -96 84
l0 26 125 0 125 0 0 28 c0 51 -22 106 -55 139 -30 30 -39 33 -91 33 -42 0 -69
-6 -92 -20z m142 -52 c14 -13 28 -35 32 -50 l6 -28 -96 0 c-91 0 -96 1 -96 21
0 11 13 34 29 50 37 37 88 39 125 7z"/>
<path d="M5304 8986 c-25 -25 -34 -43 -34 -68 0 -48 30 -73 117 -97 90 -24 93
-26 93 -56 0 -36 -41 -59 -91 -52 -46 6 -69 22 -69 48 0 14 -7 19 -30 19 -33
0 -37 -13 -18 -54 16 -36 51 -56 107 -63 95 -11 161 34 161 108 0 51 -24 74
-97 94 -105 30 -108 31 -111 54 -6 36 15 51 69 51 41 0 51 -4 65 -25 10 -15
26 -25 40 -25 27 0 29 8 12 45 -17 37 -57 55 -124 55 -50 0 -59 -3 -90 -34z"/>
<path d="M6033 9010 c-23 -10 -47 -41 -58 -77 -5 -20 -3 -23 22 -23 20 0 31 7
38 22 24 55 115 59 144 6 22 -39 3 -54 -87 -67 -66 -9 -81 -16 -104 -41 -21
-22 -28 -41 -28 -70 0 -88 94 -128 184 -77 25 14 46 22 46 17 0 -18 49 -42 70
-35 26 8 26 41 0 48 -19 5 -20 14 -20 130 l0 125 -31 26 c-26 22 -40 26 -92
25 -34 0 -72 -4 -84 -9z m157 -195 c0 -62 -47 -105 -113 -105 -42 0 -57 15
-57 56 0 39 8 45 85 60 85 17 85 17 85 -11z"/>
<path d="M6428 8999 c-24 -17 -28 -18 -28 -5 0 11 -9 16 -30 16 l-30 0 0 -170
0 -170 30 0 30 0 0 119 c0 114 1 121 26 150 21 25 34 31 64 31 62 0 70 -21 70
-172 l0 -128 30 0 30 0 0 136 c0 140 -6 165 -44 196 -30 25 -113 23 -148 -3z"/>
<path d="M6755 9008 c-35 -19 -55 -52 -55 -90 0 -47 24 -73 82 -88 112 -28
123 -34 126 -62 7 -57 -96 -81 -143 -33 -14 13 -25 29 -25 35 0 5 -11 10 -25
10 -19 0 -25 -5 -25 -23 0 -105 215 -134 265 -36 39 74 6 120 -104 149 -100
26 -122 48 -83 83 34 31 132 17 132 -18 0 -10 10 -15 31 -15 27 0 30 3 24 23
-4 12 -20 34 -36 50 -25 23 -38 27 -87 27 -31 0 -66 -6 -77 -12z"/>
<path d="M7572 9000 c-92 -56 -98 -248 -9 -314 35 -26 113 -32 160 -13 34 15
77 67 77 95 0 24 -42 11 -74 -23 -27 -28 -41 -35 -70 -35 -46 0 -96 44 -96 84
l0 26 125 0 125 0 0 28 c0 51 -22 106 -55 139 -30 30 -39 33 -91 33 -42 0 -69
-6 -92 -20z m142 -52 c14 -13 28 -35 32 -50 l6 -28 -96 0 c-91 0 -96 1 -96 21
0 11 13 34 29 50 37 37 88 39 125 7z"/>
<path d="M7969 8991 l-29 -29 0 24 c0 19 -5 24 -25 24 l-25 0 0 -170 0 -170
24 0 c24 0 24 1 28 121 3 118 4 121 31 145 15 13 39 24 53 24 20 0 24 5 24 30
0 26 -4 30 -26 30 -15 0 -38 -12 -55 -29z"/>
<path d="M8145 9008 c-35 -19 -55 -52 -55 -90 0 -47 24 -73 82 -88 112 -28
123 -34 126 -62 7 -57 -96 -81 -143 -33 -14 13 -25 29 -25 35 0 5 -11 10 -25
10 -19 0 -25 -5 -25 -23 0 -105 215 -134 265 -36 39 74 6 120 -104 149 -100
26 -122 48 -83 83 34 31 132 17 132 -18 0 -10 10 -15 31 -15 27 0 30 3 24 23
-4 12 -20 34 -36 50 -25 23 -38 27 -87 27 -31 0 -66 -6 -77 -12z"/>
<path d="M7010 9003 c0 -4 21 -81 46 -170 l47 -163 31 0 32 0 28 118 c28 114
45 164 46 133 0 -8 14 -68 31 -133 l32 -119 31 3 c30 3 30 3 78 168 26 91 48
166 48 168 0 1 -13 2 -29 2 -28 0 -28 -2 -61 -127 -18 -71 -33 -129 -35 -131
-1 -2 -17 56 -35 128 l-32 130 -34 0 c-28 0 -35 -4 -41 -27 -3 -16 -18 -75
-33 -133 l-26 -105 -33 133 c-33 131 -33 132 -62 132 -16 0 -29 -3 -29 -7z"/>
<path d="M8440 8705 c0 -33 2 -35 35 -35 33 0 35 2 35 35 0 33 -2 35 -35 35
-33 0 -35 -2 -35 -35z"/>
<path d="M2425 3816 c-5 -2 -37 -11 -70 -21 -196 -55 -316 -156 -360 -304 -10
-33 -22 -58 -27 -55 -23 15 -162 30 -215 24 -160 -19 -289 -147 -338 -336 -31
-118 -7 -251 61 -340 19 -25 34 -47 32 -48 -2 -1 -20 -11 -42 -21 -63 -32
-123 -92 -152 -151 -23 -47 -26 -63 -22 -122 8 -110 66 -205 151 -249 113 -58
328 -25 474 73 l62 42 12 -36 c6 -20 33 -57 59 -83 61 -61 127 -82 256 -81
144 2 241 49 304 148 l26 42 40 -40 c47 -49 156 -102 241 -119 116 -24 284 15
376 85 35 27 87 111 87 140 0 21 6 20 44 -3 55 -34 142 -53 220 -49 87 4 160
37 230 104 67 65 91 120 91 214 0 65 -4 84 -33 142 -18 37 -47 79 -65 94 -22
19 -28 29 -18 32 31 11 91 76 107 118 25 65 15 157 -25 239 -58 117 -160 180
-287 178 l-60 -2 -12 58 c-24 113 -108 198 -241 242 -53 18 -80 21 -157 17
-136 -7 -221 -51 -285 -148 l-15 -23 -31 54 c-37 66 -109 134 -171 162 -35 15
-72 22 -142 24 -52 1 -99 1 -105 -1z m170 -37 c102 -19 197 -95 251 -200 l25
-51 28 45 c52 81 139 125 265 134 202 14 358 -97 373 -266 l5 -57 87 4 c74 4
95 1 139 -18 62 -27 116 -83 147 -154 50 -115 37 -204 -40 -275 -24 -22 -49
-41 -55 -41 -6 0 5 -19 24 -43 74 -90 97 -200 65 -307 -17 -57 -90 -132 -161
-165 -100 -47 -247 -28 -352 44 -25 17 -47 31 -50 31 -3 0 -6 -20 -6 -45 0
-138 -154 -245 -353 -245 -130 0 -208 28 -311 113 l-49 40 -20 -29 c-39 -54
-99 -103 -148 -119 -73 -25 -269 -18 -323 11 -58 30 -94 80 -108 149 -7 33
-13 62 -15 64 -1 2 -24 -15 -50 -39 -131 -115 -342 -177 -476 -139 -109 30
-190 187 -157 305 16 56 87 136 157 178 l49 30 -40 77 c-33 66 -40 89 -44 157
-12 216 133 421 313 439 64 7 164 -11 217 -38 l38 -19 4 22 c3 13 8 41 11 63
9 54 38 118 75 165 71 90 249 170 416 189 6 0 37 -4 69 -10z"/>
<path d="M2637 3438 c-8 -13 -32 -66 -53 -118 -23 -55 -40 -87 -42 -76 -3 16
-10 18 -47 12 l-44 -5 -7 45 c-3 25 -4 48 0 51 3 4 6 -7 7 -23 0 -16 5 -38 10
-49 11 -24 2 71 -11 113 l-8 27 -2 -30 c-3 -30 -3 -30 -9 5 -6 36 -25 47 -51
31 -12 -8 -12 -22 -2 -98 18 -124 21 -133 44 -133 12 0 16 -4 12 -11 -5 -8 3
-10 27 -6 19 4 59 9 89 13 30 4 61 12 69 18 8 6 30 16 50 22 l36 12 -36 1
c-21 1 -42 -5 -49 -14 -7 -8 -17 -15 -23 -15 -5 0 0 9 13 20 28 24 98 28 106
5 7 -18 60 -20 67 -2 3 7 6 5 6 -5 1 -13 -7 -18 -26 -18 -14 0 -24 -3 -21 -6
4 -3 31 -3 62 1 48 6 55 10 59 31 4 21 4 20 3 -3 -1 -20 -8 -29 -26 -34 -24
-7 -23 -7 6 -8 29 -1 32 2 38 37 3 20 6 46 5 57 l0 20 -9 -20 c-8 -17 -9 -16
-9 9 -1 35 11 27 66 -45 37 -49 56 -60 67 -36 3 6 4 -1 0 -18 -4 -22 -2 -27 6
-19 6 6 15 45 21 85 5 41 11 89 13 107 3 17 1 32 -4 32 -5 0 -11 -17 -13 -37
-2 -21 -3 -15 -2 14 3 47 1 52 -21 57 -35 9 -44 0 -44 -42 0 -65 -12 -65 -64
-2 -26 33 -54 60 -61 60 -9 0 -15 -24 -20 -75 -13 -137 -14 -138 -65 -36 -24
50 -48 91 -52 91 -5 0 1 -18 12 -40 11 -22 18 -40 15 -40 -2 0 -16 22 -30 49
-31 61 -40 68 -58 39z m43 -130 c0 -4 -9 -8 -20 -8 -11 0 -20 5 -20 11 0 5 5
7 11 3 8 -4 9 1 5 17 -7 23 -7 23 8 5 9 -11 16 -23 16 -28z m74 -4 c3 -8 2
-12 -4 -9 -6 3 -10 10 -10 16 0 14 7 11 14 -7z m263 -56 c-2 -13 -4 -3 -4 22
0 25 2 35 4 23 2 -13 2 -33 0 -45z m-243 16 c3 -8 2 -12 -4 -9 -6 3 -10 10
-10 16 0 14 7 11 14 -7z m-224 -54 c0 -5 -8 -10 -17 -10 -15 0 -16 2 -3 10 19
12 20 12 20 0z m-52 -17 c-10 -2 -26 -2 -35 0 -10 3 -2 5 17 5 19 0 27 -2 18
-5z"/>
<path d="M3125 3391 c-68 -30 -97 -130 -54 -185 23 -29 74 -56 107 -56 11 0
35 11 55 24 20 14 34 19 31 11 -5 -13 -50 -38 -89 -49 -11 -3 -3 -3 19 -1 42
5 70 25 92 67 18 34 18 49 0 26 -12 -16 -13 -15 -12 12 1 16 6 30 13 30 6 0
14 4 18 9 3 6 -6 6 -25 1 -17 -5 -43 -5 -61 0 -18 5 -36 7 -40 4 -17 -10 -9
-46 11 -51 28 -7 15 -23 -19 -23 -34 0 -61 28 -60 61 0 22 1 23 9 4 6 -15 9
-16 9 -4 1 19 29 45 56 52 17 4 16 5 -4 6 -14 0 -33 -6 -43 -16 -10 -9 -18
-11 -18 -5 0 14 33 32 59 32 12 0 31 -11 43 -25 12 -14 32 -25 45 -25 21 0 23
4 18 23 -12 40 -59 78 -101 83 -21 2 -48 0 -59 -5z"/>
<path d="M2176 3369 c-20 -16 -26 -29 -26 -59 0 -45 26 -70 75 -71 26 0 27 -2
10 -9 -19 -8 -19 -9 2 -9 12 -1 29 2 39 6 16 6 16 7 -2 14 -16 6 -16 8 -2 8 9
1 20 -4 24 -10 12 -20 -16 -33 -66 -31 -27 1 -52 -2 -55 -8 -12 -19 32 -47 86
-53 44 -6 59 -3 79 12 33 24 47 63 32 93 -10 21 -10 20 -5 -9 4 -27 0 -37 -25
-63 -17 -16 -36 -30 -44 -30 -7 0 2 9 19 20 42 25 52 63 25 98 -18 24 -26 27
-75 25 -58 -2 -80 14 -52 37 16 13 88 3 79 -11 -6 -10 7 -12 30 -3 26 10 19
31 -18 53 -43 27 -96 27 -130 0z m154 -29 c0 -5 -5 -10 -11 -10 -5 0 -7 5 -4
10 3 6 8 10 11 10 2 0 4 -4 4 -10z"/>
<path d="M2215 3320 c-8 -13 5 -13 25 0 13 8 13 10 -2 10 -9 0 -20 -4 -23 -10z"/>
<path d="M3128 3143 c7 -3 16 -2 19 1 4 3 -2 6 -13 5 -11 0 -14 -3 -6 -6z"/>
<path d="M2390 3020 c0 -14 7 -20 23 -20 18 0 19 -2 7 -10 -9 -6 -10 -10 -3
-10 8 0 13 -21 15 -57 3 -51 6 -58 26 -61 21 -3 22 0 22 67 0 64 2 71 20 71
13 0 20 7 20 20 0 18 -7 20 -65 20 -58 0 -65 -2 -65 -20z"/>
<path d="M2550 2949 l0 -91 25 4 c28 6 35 -8 8 -15 -14 -4 -12 -5 5 -6 18 -1
22 4 22 32 0 21 7 36 20 45 19 11 20 10 20 -23 0 -31 3 -35 28 -36 24 0 25 -1
7 -9 -19 -8 -19 -9 3 -9 12 -1 22 4 22 9 0 6 10 10 23 10 13 0 29 6 36 13 11
10 12 9 6 -1 -4 -7 -17 -17 -29 -22 -19 -8 -19 -9 -2 -9 11 -1 27 5 35 13 21
18 71 29 71 16 0 -5 12 -10 28 -11 24 0 25 -1 7 -9 -19 -8 -19 -9 3 -9 31 -1
29 23 -13 110 -20 41 -33 63 -30 49 4 -20 2 -19 -12 8 -9 17 -21 32 -25 32 -5
0 -28 -39 -51 -87 l-42 -88 -3 75 c-3 78 -13 100 -43 100 -15 0 -19 -7 -19
-35 0 -31 -3 -35 -26 -35 -21 0 -24 3 -19 20 8 25 -10 50 -36 50 -17 0 -19 -9
-19 -91z m270 -15 c0 -14 -12 -19 -23 -8 -9 9 4 35 14 28 5 -3 9 -12 9 -20z
m80 -59 c0 -5 -5 -3 -10 5 -5 8 -10 20 -10 25 0 6 5 3 10 -5 5 -8 10 -19 10
-25z"/>
<path d="M2910 3020 c0 -13 7 -20 20 -20 18 0 20 -7 20 -71 0 -71 0 -71 25
-67 28 6 35 -8 8 -15 -14 -4 -12 -5 5 -6 21 -1 22 3 22 68 0 64 2 70 22 73 13
2 24 11 26 23 4 19 3 19 -10 1 -9 -11 -22 -16 -34 -13 -17 4 -16 5 4 6 15 1
22 7 22 21 0 18 -7 20 -65 20 -58 0 -65 -2 -65 -20z"/>
<path d="M2530 3005 c0 -8 -9 -15 -20 -15 -18 0 -20 -7 -20 -65 0 -59 -2 -67
-22 -75 -23 -10 -23 -10 2 -7 24 2 25 6 28 70 3 59 5 67 22 67 13 0 20 7 20
20 0 11 -2 20 -5 20 -3 0 -5 -7 -5 -15z"/>
<path d="M2054 2798 c-4 -13 -2 -24 5 -26 6 -2 11 -10 11 -18 0 -8 5 -14 11
-14 5 0 7 5 3 12 -4 7 -3 8 4 4 8 -5 3 -31 -18 -88 -23 -63 -27 -84 -17 -90
22 -14 46 -8 52 13 4 11 9 19 11 16 3 -2 0 -16 -5 -30 -8 -20 -15 -24 -33 -20
-18 4 -20 3 -12 -7 25 -26 46 -5 74 70 26 70 30 75 55 73 15 -1 29 -3 30 -5 2
-2 -5 -38 -15 -81 -19 -83 -19 -82 30 -90 22 -4 22 -4 -5 -6 -23 -1 -27 -3
-15 -11 31 -20 49 -11 60 30 8 30 16 40 31 40 11 0 17 5 14 10 -3 6 -15 10
-26 10 -14 0 -21 -9 -26 -30 -3 -17 -8 -29 -10 -26 -3 2 -2 18 2 35 5 23 12
31 28 31 41 0 49 -13 42 -64 -7 -44 -6 -46 16 -46 19 0 21 -2 9 -10 -12 -8
-12 -10 3 -16 32 -12 43 4 65 102 25 111 26 126 11 104 -8 -12 -9 -8 -7 15 3
27 0 30 -26 30 -25 0 -31 -5 -38 -32 -9 -33 -26 -41 -63 -27 -13 5 -15 15 -9
49 5 40 4 43 -20 47 -19 4 -29 -1 -42 -19 -13 -20 -22 -24 -44 -19 -26 5 -30
2 -40 -30 -7 -19 -14 -33 -17 -31 -2 3 3 21 11 41 13 32 18 35 44 30 25 -5 31
-2 37 16 4 12 5 23 3 25 -5 5 -149 55 -158 55 -5 0 -12 -10 -16 -22z m365
-212 c-7 -31 -14 -54 -16 -52 -3 3 1 30 8 60 7 31 14 54 16 52 3 -3 -1 -30 -8
-60z m-29 -103 c-11 -17 -11 -17 -6 0 3 10 6 24 7 30 0 9 2 9 5 0 3 -7 0 -20
-6 -30z"/>
<path d="M3310 2809 c-13 -6 -26 -11 -27 -13 -3 -3 54 -137 62 -144 11 -11 45
12 46 31 0 21 1 21 8 2 5 -11 7 -23 4 -27 -2 -5 1 -8 6 -8 16 0 14 18 -10 80
-22 60 -45 93 -35 50 4 -18 2 -16 -9 8 -8 17 -16 32 -18 31 -1 0 -13 -5 -27
-10z m80 -94 c0 -5 -5 -3 -10 5 -5 8 -10 20 -10 25 0 6 5 3 10 -5 5 -8 10 -19
10 -25z"/>
<path d="M3203 2770 l-22 -9 26 -73 c15 -40 28 -74 29 -76 1 -2 14 0 29 4 21
5 25 11 21 28 -15 54 -15 67 -1 31 9 -22 13 -45 11 -52 -3 -7 2 -13 10 -13 11
0 14 5 9 18 -3 9 -13 43 -22 75 -16 55 -35 80 -27 35 2 -13 -1 -8 -8 10 -11
34 -19 36 -55 22z"/>
<path d="M3008 2714 c-54 -29 -72 -97 -42 -160 46 -97 192 -80 222 26 12 45
12 45 8 7 -6 -44 -18 -62 -61 -89 -22 -13 -25 -18 -11 -18 10 0 33 15 52 34
28 28 34 42 34 75 0 23 -5 41 -11 41 -6 0 -17 7 -25 15 -16 16 -39 21 -30 6 3
-5 -12 -11 -34 -15 -22 -3 -40 -10 -40 -15 0 -25 15 -41 37 -41 22 0 24 -2 13
-15 -15 -18 -71 -20 -88 -3 -15 15 -16 32 -1 22 8 -4 9 0 4 15 -4 15 1 28 20
47 20 20 22 25 8 22 -10 -2 -26 -19 -36 -38 -19 -35 -19 -35 -12 -5 8 39 33
58 65 50 52 -13 110 -12 110 1 0 7 -4 16 -10 19 -6 4 -7 -1 -3 -12 4 -10 -7
-4 -24 15 -26 27 -38 32 -75 32 -23 -1 -55 -7 -70 -16z"/>
<path d="M2307 2707 c-11 -29 -9 -43 4 -30 6 6 9 19 7 29 -3 18 -4 18 -11 1z"/>
<path d="M2495 2594 c-33 -58 -59 -109 -58 -112 4 -12 45 -14 56 -3 6 6 31 11
57 11 39 0 48 -4 65 -30 23 -35 75 -43 75 -12 0 23 -71 224 -78 218 -2 -3 1
-19 7 -37 6 -18 9 -34 7 -36 -2 -2 -12 20 -22 49 -11 29 -26 54 -34 56 -10 1
-36 -34 -75 -104z m78 -24 c4 -15 0 -20 -14 -20 -10 0 -19 5 -19 11 0 5 4 7
10 4 6 -3 7 1 4 9 -3 9 -2 16 4 16 5 0 12 -9 15 -20z m91 -70 c5 -20 3 -19 -8
5 -7 17 -16 41 -20 55 -5 20 -3 19 8 -5 7 -16 16 -41 20 -55z m11 -49 c-3 -6
-14 -10 -23 -10 -15 1 -15 2 1 6 9 2 17 9 17 15 0 6 3 9 6 5 3 -3 3 -10 -1
-16z"/>
<path d="M2848 2643 l-3 -56 -59 51 c-33 29 -64 51 -69 49 -11 -3 -11 -120 -1
-194 5 -34 10 -43 26 -43 10 0 16 -4 13 -10 -4 -6 5 -10 19 -10 25 0 26 3 26
55 0 42 -3 55 -15 55 -8 0 -15 5 -15 10 0 19 17 10 74 -40 31 -27 61 -50 66
-50 5 0 11 24 13 53 3 44 4 43 3 -10 -1 -35 2 -63 6 -63 10 0 11 166 1 211
l-8 34 -6 -45 -6 -45 -1 53 c-2 51 -3 52 -32 52 -28 0 -29 -1 -32 -57z m-58
-158 c0 -19 -4 -35 -8 -35 -4 0 -6 16 -4 35 2 19 6 35 8 35 2 0 4 -16 4 -35z"/>
<path d="M3378 2643 c-18 -5 -31 -30 -22 -45 3 -5 17 -14 31 -19 31 -11 53 3
52 35 l0 21 -9 -21 c-5 -12 -14 -25 -20 -29 -7 -4 -7 1 2 14 10 17 10 23 -2
34 -8 8 -22 12 -32 10z"/>
<path d="M3248 2588 c-8 -21 3 -39 29 -49 29 -11 53 3 53 30 0 12 -2 13 -9 3
-6 -10 -10 -9 -14 7 -6 23 -52 30 -59 9z"/>
<path d="M2500 2470 c0 -5 -12 -10 -27 -11 -25 0 -26 -1 -8 -9 13 -5 28 -3 41
5 12 8 36 15 55 18 28 3 26 4 -13 5 -27 1 -48 -2 -48 -8z"/>
<path d="M1731 2034 c-18 -15 -35 -42 -41 -65 -10 -34 -8 -47 9 -83 34 -69
107 -93 177 -60 47 22 64 50 64 102 0 85 -46 132 -129 132 -39 0 -56 -6 -80
-26z m114 -18 c39 -17 55 -42 55 -88 -1 -37 -14 -59 -47 -76 -39 -21 -69 -14
-102 23 -36 42 -39 76 -11 123 22 36 49 41 105 18z"/>
<path d="M1573 1718 c-29 -14 -56 -72 -47 -101 13 -45 44 -67 94 -67 37 0 51
5 70 25 69 74 -24 188 -117 143z m71 -28 c49 -18 47 -99 -3 -120 -65 -26 -122
59 -74 112 18 20 40 23 77 8z"/>
</g>
</svg>
