<svg version="1.1" id="Layer_1" xmlns="http://www.w3.org/2000/svg" xmlns:xlink="http://www.w3.org/1999/xlink" x="0px" y="0px"
	 width="100%" viewBox="0 0 512 512" enable-background="new 0 0 512 512" xml:space="preserve">
<path fill="#000000" opacity="1.000000" stroke="none" 
	d="
M353.000000,513.000000 
	C235.361923,513.000000 118.223839,513.000000 1.042876,513.000000 
	C1.042876,342.403564 1.042876,171.807114 1.042876,1.105330 
	C171.554749,1.105330 342.109589,1.105330 512.832214,1.105330 
	C512.832214,171.666534 512.832214,342.333252 512.832214,513.000000 
	C459.807037,513.000000 406.653534,513.000000 353.000000,513.000000 
M451.628876,247.077316 
	C448.464478,238.135757 443.007233,230.753860 435.767181,224.521896 
	C449.043213,217.662949 455.733948,209.658844 456.968750,199.419357 
	C460.714783,168.356369 433.277344,143.138031 402.907013,149.713348 
	C400.420471,150.251694 397.902893,150.646713 395.306152,151.125565 
	C396.507538,135.344803 392.160980,122.333130 380.115784,112.794472 
	C366.289886,101.845673 350.282166,98.773674 333.036011,101.310249 
	C319.410492,103.314316 307.361359,108.275520 298.937744,119.813889 
	C297.021332,122.438957 295.458954,125.322525 293.983521,127.686714 
	C290.243256,121.485214 287.055328,115.024757 282.795807,109.371758 
	C272.677795,95.943710 259.094604,88.479485 242.044495,89.090858 
	C223.723969,89.747803 206.831451,95.801994 191.428757,105.454613 
	C178.021973,113.856430 169.553070,126.169632 166.420486,141.840042 
	C165.561111,146.138931 165.170273,150.531494 164.510376,155.269028 
	C162.912048,154.448898 161.769516,153.835419 160.604126,153.268951 
	C150.085327,148.156082 139.004898,145.413315 127.305298,146.500458 
	C108.477119,148.250015 95.238457,158.443909 86.638931,174.873749 
	C74.012970,198.996277 72.875595,222.793442 89.325867,245.881104 
	C90.127106,247.005646 90.667137,248.316299 90.886246,248.721603 
	C83.952431,253.589355 77.037209,257.667572 71.039635,262.814972 
	C58.257805,273.784943 54.538330,288.834259 60.227184,303.329071 
	C67.631866,322.195709 78.135544,329.565552 97.181664,329.154999 
	C120.536026,328.651611 140.320023,319.380859 157.734344,304.353668 
	C159.757690,302.607666 161.751190,300.826996 164.385635,298.511108 
	C164.567490,301.938690 164.706055,304.243896 164.809464,306.550720 
	C165.339447,318.375397 170.838852,327.058411 181.291138,332.592865 
	C188.718246,336.525543 196.807465,337.404144 205.009705,337.413940 
	C218.065613,337.429504 231.299210,337.313141 241.908508,328.214783 
	C247.664017,323.279022 252.490936,317.260437 257.742950,311.723724 
	C258.908356,313.036316 260.279541,314.898132 261.957214,316.422729 
	C287.561829,339.690674 321.071106,341.253326 347.939972,325.739014 
	C359.156982,319.262238 365.716644,309.376923 365.234436,295.769836 
	C365.178467,294.190796 365.418518,292.601288 365.521149,291.019531 
	C366.229828,291.056488 366.626007,290.956238 366.849274,291.108887 
	C368.085175,291.953857 369.277649,292.862152 370.487396,293.745483 
	C378.803528,299.817780 387.966888,303.857269 398.143188,305.700043 
	C424.916290,310.548279 450.002869,294.323700 453.417114,269.049042 
	C454.345978,262.172913 452.474915,254.918549 451.628876,247.077316 
M146.140732,369.259735 
	C145.612122,367.697754 145.268524,366.040588 144.522278,364.590607 
	C141.581726,358.877106 133.545822,355.499420 126.426346,356.854340 
	C122.589615,357.584534 118.843468,363.286560 118.454659,368.988098 
	C117.972565,376.057373 125.938698,386.270721 131.958481,385.760132 
	C141.814880,384.924194 147.869797,377.013031 146.140732,369.259735 
M97.476959,425.088501 
	C99.038658,425.958496 100.516968,427.314087 102.179047,427.599518 
	C105.872437,428.233856 111.113976,424.414032 112.582222,420.487549 
	C114.114319,416.390289 112.406952,411.278961 108.636589,408.675659 
	C104.413208,405.759552 98.784653,405.264709 96.157990,407.578461 
	C92.685730,410.637146 91.548820,416.672302 93.847183,420.775360 
	C94.637703,422.186615 95.880760,423.344360 97.476959,425.088501 
z"/>
<path fill="#FDFDFD" opacity="1.000000" stroke="none" 
	d="
M451.758850,247.457550 
	C452.474915,254.918549 454.345978,262.172913 453.417114,269.049042 
	C450.002869,294.323700 424.916290,310.548279 398.143188,305.700043 
	C387.966888,303.857269 378.803528,299.817780 370.487396,293.745483 
	C369.277649,292.862152 368.085175,291.953857 366.849274,291.108887 
	C366.626007,290.956238 366.229828,291.056488 365.521149,291.019531 
	C365.418518,292.601288 365.178467,294.190796 365.234436,295.769836 
	C365.716644,309.376923 359.156982,319.262238 347.939972,325.739014 
	C321.071106,341.253326 287.561829,339.690674 261.957214,316.422729 
	C260.279541,314.898132 258.908356,313.036316 257.742950,311.723724 
	C252.490936,317.260437 247.664017,323.279022 241.908508,328.214783 
	C231.299210,337.313141 218.065613,337.429504 205.009705,337.413940 
	C196.807465,337.404144 188.718246,336.525543 181.291138,332.592865 
	C170.838852,327.058411 165.339447,318.375397 164.809464,306.550720 
	C164.706055,304.243896 164.567490,301.938690 164.385635,298.511108 
	C161.751190,300.826996 159.757690,302.607666 157.734344,304.353668 
	C140.320023,319.380859 120.536026,328.651611 97.181664,329.154999 
	C78.135544,329.565552 67.631866,322.195709 60.227184,303.329071 
	C54.538330,288.834259 58.257805,273.784943 71.039635,262.814972 
	C77.037209,257.667572 83.952431,253.589355 90.886246,248.721603 
	C90.667137,248.316299 90.127106,247.005646 89.325867,245.881104 
	C72.875595,222.793442 74.012970,198.996277 86.638931,174.873749 
	C95.238457,158.443909 108.477119,148.250015 127.305298,146.500458 
	C139.004898,145.413315 150.085327,148.156082 160.604126,153.268951 
	C161.769516,153.835419 162.912048,154.448898 164.510376,155.269028 
	C165.170273,150.531494 165.561111,146.138931 166.420486,141.840042 
	C169.553070,126.169632 178.021973,113.856430 191.428757,105.454613 
	C206.831451,95.801994 223.723969,89.747803 242.044495,89.090858 
	C259.094604,88.479485 272.677795,95.943710 282.795807,109.371758 
	C287.055328,115.024757 290.243256,121.485214 293.983521,127.686714 
	C295.458954,125.322525 297.021332,122.438957 298.937744,119.813889 
	C307.361359,108.275520 319.410492,103.314316 333.036011,101.310249 
	C350.282166,98.773674 366.289886,101.845673 380.115784,112.794472 
	C392.160980,122.333130 396.507538,135.344803 395.306152,151.125565 
	C397.902893,150.646713 400.420471,150.251694 402.907013,149.713348 
	C433.277344,143.138031 460.714783,168.356369 456.968750,199.419357 
	C455.733948,209.658844 449.043213,217.662949 435.767181,224.521896 
	C443.007233,230.753860 448.464478,238.135757 451.758850,247.457550 
M203.642975,276.199371 
	C203.642975,276.199371 203.683685,276.084839 203.753906,276.096130 
	C203.753906,276.096130 203.903564,276.011505 204.973022,275.845703 
	C207.127594,274.876862 209.282166,273.908051 211.547928,272.889221 
	C211.369568,272.601807 210.963135,271.946838 210.556717,271.291901 
	C211.028336,271.068085 211.499969,270.844269 211.971588,270.620453 
	C212.448868,271.895966 213.353302,273.188019 213.304779,274.443207 
	C213.229218,276.397522 212.698074,278.397003 212.018753,280.252380 
	C210.490814,284.425476 211.894073,286.559265 216.226654,286.990051 
	C216.414902,287.008759 216.567261,287.388367 216.734512,287.597565 
	C215.840271,288.072052 214.963394,288.537292 213.396591,289.368622 
	C215.457214,289.966888 216.746902,290.198364 217.915710,290.707428 
	C221.451813,292.247528 223.134018,290.813141 223.816086,287.341492 
	C224.804550,282.310150 225.888611,277.297577 227.168167,271.951874 
	C227.293076,271.367645 227.417984,270.783386 227.953232,269.279968 
	C228.039673,267.699432 228.126099,266.118866 228.263046,264.408936 
	C228.263046,264.408936 228.398132,264.376526 229.066086,263.957794 
	C229.051651,261.695374 229.037216,259.432953 228.482376,257.135468 
	C228.303497,257.159821 228.124634,257.184143 227.343292,256.826935 
	C227.378448,255.441330 227.854965,253.054016 227.373154,252.841736 
	C225.163910,251.868317 222.689896,251.151413 220.303452,251.128677 
	C219.560822,251.121597 218.655472,253.528870 218.081497,254.935654 
	C217.586319,256.149292 217.327606,257.498352 217.189987,258.811188 
	C216.862625,261.933899 215.618774,262.964691 212.256546,262.257965 
	C205.488037,260.835358 205.677109,261.104889 207.034882,254.749344 
	C207.532120,252.421829 207.481262,248.391068 206.176437,247.591400 
	C203.368042,245.870270 199.312927,244.401047 197.107300,249.297180 
	C196.926178,249.699295 196.086411,249.804688 195.367752,250.132233 
	C196.314438,244.598648 196.318481,244.587692 191.043808,242.642166 
	C185.608307,240.637329 180.107132,238.795395 174.749146,236.602493 
	C172.352890,235.621765 171.234024,236.096146 170.048706,238.330643 
	C167.677414,242.800842 170.073792,244.244827 173.970871,245.690811 
	C174.304932,246.463531 174.639008,247.236252 175.016312,248.821579 
	C172.871292,255.304855 170.913025,261.858673 168.502060,268.241486 
	C167.305954,271.408051 167.548355,273.261475 171.342178,274.480225 
	C171.334290,274.669434 171.326385,274.858643 170.886505,275.620636 
	C170.325500,275.881073 169.764496,276.141510 168.735046,276.619446 
	C170.309525,277.256409 171.553757,277.593262 172.625977,278.222992 
	C176.800552,280.674896 178.490891,278.568756 179.687073,274.759064 
	C180.931061,270.797119 182.590240,266.967621 183.957840,263.041870 
	C186.944977,254.467285 186.916489,254.457367 196.182098,256.772034 
	C194.731415,263.366943 193.557968,270.055389 191.712082,276.552856 
	C190.707184,280.089966 191.573563,281.560822 195.078522,282.583069 
	C194.941620,282.942413 194.804733,283.301727 194.673370,283.755402 
	C194.673370,283.755402 194.592285,283.706879 194.160751,284.027588 
	C194.444504,284.327606 194.728256,284.627655 195.648468,285.300659 
	C202.817886,287.258148 203.942551,286.597504 202.670532,281.097229 
	C202.670532,281.097229 202.703857,281.025146 203.197632,280.778656 
	C202.822708,280.398163 202.447784,280.017639 202.130310,279.565857 
	C202.130310,279.565857 202.162369,279.653809 203.262772,280.229095 
	C203.407913,278.953217 203.553040,277.677307 203.669937,276.357208 
	C203.669937,276.357208 203.632446,276.320496 203.642975,276.199371 
M343.269043,279.994202 
	C343.519836,279.331482 343.770660,278.668732 344.535034,277.569855 
	C344.684662,276.711639 344.834290,275.853394 345.260590,274.115479 
	C345.260590,271.054565 345.260590,267.993683 345.260590,264.932770 
	C344.735931,264.930420 344.211273,264.928040 343.686615,264.925659 
	C343.355530,265.832520 343.024445,266.739380 342.910736,267.050842 
	C341.524567,265.197205 340.086456,263.274139 338.478729,261.124237 
	C339.178619,260.208710 340.149414,258.938812 341.585510,257.060242 
	C339.591614,255.756699 337.689453,254.791565 336.121704,253.438873 
	C330.105927,248.248184 323.388306,247.910858 316.576508,251.035934 
	C309.681183,254.199310 305.717560,259.753448 306.057770,267.633606 
	C306.395508,275.456329 309.109863,282.494354 317.051788,284.926819 
	C322.687225,286.652832 328.969543,286.266693 335.408539,286.899200 
	C336.008850,286.497131 336.609161,286.095062 337.942963,285.361145 
	C339.598785,283.702545 341.254608,282.043945 342.889069,280.366150 
	C342.889069,280.366150 342.904083,280.399536 343.269043,279.994202 
M218.381943,178.350418 
	C218.535599,176.581116 218.689270,174.811829 218.926453,172.443863 
	C218.635681,171.931824 218.344910,171.419800 217.859940,170.214874 
	C217.113678,169.658951 216.234863,169.217133 215.642273,168.528885 
	C211.160965,163.324097 205.649460,162.089935 199.167053,163.889984 
	C197.777771,164.275742 196.012894,164.378052 194.754013,163.836670 
	C193.685791,163.377304 193.098053,161.800644 192.297699,160.718384 
	C193.268448,160.206070 194.202286,159.357452 195.217056,159.246063 
	C197.988800,158.941742 200.820969,159.145309 203.579788,158.777344 
	C206.440079,158.395859 209.242416,157.579956 212.584610,156.840149 
	C204.680695,147.711548 197.275803,146.751205 188.740997,151.894180 
	C183.884094,154.820938 182.406601,159.520340 183.980621,164.853745 
	C185.465927,169.886566 188.898178,172.051270 195.067627,172.131653 
	C198.770874,172.179886 202.470337,172.519073 206.171570,172.726883 
	C204.967117,177.183701 201.782532,178.080383 196.671616,176.899109 
	C194.050690,176.293350 190.943085,177.793411 188.055420,178.341766 
	C188.888382,180.037201 189.278778,182.567581 190.630600,183.284119 
	C196.608307,186.452698 202.652191,190.517868 210.411835,186.260437 
	C211.014374,185.882309 211.616898,185.504181 212.858780,184.984711 
	C214.221207,183.596756 215.583618,182.208786 217.444016,180.545715 
	C217.610718,180.026169 217.777420,179.506607 218.381943,178.350418 
M309.416504,230.098038 
	C309.635376,230.563705 309.854279,231.029388 310.895111,231.693146 
	C314.357483,232.184891 315.536041,230.662720 315.355621,227.241791 
	C315.087097,222.150574 315.193237,217.039612 315.608398,211.456696 
	C316.428650,211.129044 317.248901,210.801392 318.588623,210.682510 
	C319.133972,210.608139 319.679321,210.533768 321.057861,210.375351 
	C322.855286,207.695190 322.911438,205.519806 319.502533,203.562561 
	C318.816406,202.995056 318.140900,201.950623 317.442474,201.935059 
	C311.543671,201.803574 305.640686,201.860046 299.431915,201.860046 
	C299.431915,204.099350 299.431915,205.796478 299.431915,207.669067 
	C301.630249,207.931641 303.524292,208.157867 305.994049,208.452850 
	C305.994049,215.337296 305.994049,222.019104 305.994049,229.088303 
	C308.398804,228.961365 310.181641,228.867249 312.759644,228.942276 
	C313.024445,228.884659 313.289215,228.827057 313.222321,229.534744 
	C312.156281,229.736938 311.090210,229.939117 309.416504,230.098038 
M267.671753,204.802200 
	C267.671753,204.802200 267.303558,204.915466 267.195038,204.054947 
	C265.126495,203.125595 263.057953,202.196228 259.969482,200.808640 
	C259.969482,205.441483 259.969482,208.313126 259.969482,211.441345 
	C257.087006,211.441345 254.734161,211.441345 253.037048,211.441345 
	C252.504044,208.011017 252.041458,205.033875 251.489441,201.481216 
	C248.913086,202.989014 245.021118,199.292633 244.226288,205.048187 
	C243.794281,205.114044 243.362274,205.179901 242.166092,204.923553 
	C240.823486,203.892838 239.530319,202.058914 238.129608,201.972702 
	C232.553528,201.629623 226.943893,201.831406 221.193878,201.831406 
	C221.193878,204.156433 221.193878,205.993500 221.193878,207.862930 
	C223.247635,207.984375 224.870758,208.080353 227.193909,208.217728 
	C227.193909,215.050186 227.193909,221.746552 227.193909,228.280655 
	C234.469696,229.771042 235.008957,229.339035 235.012802,222.734299 
	C235.018951,212.181259 235.018967,212.181259 243.625351,209.680099 
	C244.038620,209.858002 244.451874,210.035904 244.720566,211.114243 
	C244.720566,217.040756 244.720566,222.967270 244.720566,229.112961 
	C247.347351,228.986145 249.164093,228.898453 251.579620,228.954010 
	C251.784592,228.943954 251.989578,228.933914 251.830063,229.690674 
	C250.611343,229.940781 249.392609,230.190887 248.173874,230.440994 
	C248.228058,230.711319 248.282227,230.981659 248.336395,231.251984 
	C250.098602,231.251984 251.860794,231.251984 254.008911,231.251984 
	C254.161697,227.830750 254.306839,224.580627 254.446976,221.442734 
	C256.428375,220.727661 258.150482,220.106140 259.891052,219.477982 
	C260.341339,228.780533 260.341339,228.780533 264.941132,229.794601 
	C264.500946,230.440613 264.060730,231.086624 262.750549,233.009384 
	C265.399780,231.975479 266.697357,231.469086 268.852051,230.879074 
	C269.190186,230.597641 269.820404,230.319809 269.823914,230.034271 
	C269.920776,222.164764 269.989014,214.294098 269.911835,206.425125 
	C269.907104,205.944260 268.666931,205.475540 267.671753,204.802200 
M279.349487,164.590714 
	C278.858917,163.738693 278.368378,162.886658 277.810608,161.325806 
	C274.904022,155.825241 271.997406,150.324677 268.963226,144.125198 
	C267.993103,144.131317 267.022949,144.137436 265.351105,143.986526 
	C263.872589,142.421417 262.394073,140.856308 260.915558,139.291199 
	C259.611481,140.837982 257.846008,142.186066 257.080109,143.964615 
	C252.926025,153.611511 249.018890,163.364731 244.530319,173.478958 
	C244.319183,173.459671 244.108063,173.440384 243.797928,172.613800 
	C243.416107,169.519653 241.967850,168.494553 238.726303,169.227890 
	C235.624268,169.929657 232.349121,169.866150 229.150055,170.138992 
	C229.107986,169.608429 229.065903,169.077866 229.023834,168.547302 
	C230.275742,168.301636 231.527649,168.055969 232.937759,167.779251 
	C231.971954,161.943359 230.516968,156.401169 230.298447,150.810638 
	C230.121353,146.280014 225.767868,146.346176 223.950424,143.632111 
	C222.727554,141.805984 216.628494,144.896271 216.945023,147.079086 
	C218.533920,158.036270 220.325180,168.964081 221.941406,179.241165 
	C224.096252,180.039886 225.441299,180.430511 226.682968,181.033920 
	C227.622696,181.490631 228.498764,182.821838 229.286392,182.732620 
	C236.852829,181.875763 244.413284,180.915054 251.926971,179.687347 
	C253.396362,179.447250 254.656876,177.928726 256.401825,176.715439 
	C256.654846,176.316559 256.907867,175.917694 257.984955,175.195404 
	C261.383026,174.878220 264.781097,174.561035 269.082306,174.159546 
	C267.586395,173.278000 266.987946,172.925339 266.389465,172.572662 
	C268.136414,172.393005 269.336945,173.162964 270.599396,173.812759 
	C273.401306,175.254913 274.193939,179.920868 278.480743,178.875534 
	C280.281189,178.436493 281.938202,177.436829 283.720215,176.885223 
	C284.961365,176.501022 286.304291,176.445694 287.601776,176.243469 
	C287.361633,176.753540 287.121460,177.263611 286.307617,177.919220 
	C286.541382,178.264084 286.775116,178.608948 287.720673,179.271362 
	C289.963165,179.516052 292.205688,179.760757 294.905548,180.055359 
	C295.574799,174.072067 296.183075,168.633560 296.883667,162.369980 
	C300.822754,167.167877 304.120667,171.539841 307.836700,175.521545 
	C309.165894,176.945755 311.505859,177.426620 313.872650,178.853943 
	C314.039185,179.022232 314.205688,179.190506 314.080933,179.821945 
	C313.792572,180.039383 313.504181,180.256836 312.859711,180.932022 
	C313.363007,181.258072 313.866302,181.584122 315.229340,181.924133 
	C315.819122,181.023834 316.810394,180.174713 316.932739,179.214828 
	C317.661499,173.498123 318.189514,167.755814 318.987183,161.505798 
	C318.947205,161.325348 318.907227,161.144882 319.052521,160.141541 
	C319.327972,158.188095 319.839722,156.231995 319.817993,154.281860 
	C319.791870,151.939194 319.311462,149.601593 318.499969,147.220367 
	C318.323853,147.231796 318.147766,147.243210 317.304230,146.812363 
	C317.587799,142.607132 314.724579,142.419907 311.621460,142.045242 
	C307.625671,141.562805 307.942505,144.333740 307.608246,146.731781 
	C307.081635,150.510010 306.575012,154.291031 305.900879,159.238113 
	C300.858551,153.034653 296.796814,147.829834 292.472015,142.853683 
	C291.297882,141.502747 289.329559,140.842087 287.725739,139.864609 
	C287.144775,141.464584 286.249908,143.023758 286.035706,144.671417 
	C284.947479,153.040619 284.035767,161.432770 282.924042,171.006866 
	C281.342804,168.234985 280.457977,166.683853 279.539215,165.151154 
	C279.539215,165.151154 279.574127,165.134491 279.349487,164.590714 
M374.679565,257.140472 
	C374.921143,258.763092 375.162750,260.385712 375.404327,262.008331 
	C375.905853,262.088715 376.407379,262.169067 376.908936,262.249451 
	C377.158417,260.946503 377.860474,259.526489 377.560211,258.365753 
	C376.991943,256.169128 375.848175,254.121384 374.929810,251.292114 
	C373.596069,248.634705 372.262329,245.977295 370.850891,243.368195 
	C370.850891,243.368195 370.792755,243.297562 369.973602,242.832291 
	C366.412170,244.260971 367.602753,240.660736 367.239716,239.702072 
	C365.585510,235.333847 362.944763,237.265030 360.381744,238.166550 
	C357.828949,239.064484 355.830505,239.955475 357.616699,243.477631 
	C360.086823,248.348434 361.880554,253.559570 364.279297,258.470947 
	C365.004150,259.955078 366.966522,262.084442 368.029510,261.908539 
	C370.716339,261.463989 374.318604,261.067627 374.679565,257.140472 
M358.003448,266.742950 
	C358.333557,267.175385 358.663696,267.607849 359.685974,268.270752 
	C360.153687,267.186462 361.163605,266.002289 360.985779,265.036957 
	C360.485321,262.320648 359.496094,259.694336 358.723389,256.365601 
	C358.302338,255.347229 357.881317,254.328873 357.408813,252.618454 
	C356.499542,251.118652 355.590271,249.618866 354.598572,248.087051 
	C354.598572,248.087051 354.662109,248.028915 355.309753,248.447998 
	C354.945068,247.300949 354.580383,246.153885 354.215698,245.006836 
	C353.559265,245.505447 352.902802,246.004074 352.119232,246.599243 
	C351.149384,240.670654 347.513428,243.094345 344.255249,243.982941 
	C339.838867,245.187393 342.005524,247.868225 342.784271,250.211655 
	C343.879425,253.507294 345.014496,256.790741 346.197784,260.055756 
	C349.290527,268.589630 349.304626,268.584534 358.003448,266.742950 
M297.664886,229.136215 
	C296.072083,229.628784 294.479248,230.121368 292.886444,230.613953 
	C292.951874,231.121521 293.017273,231.629089 293.082672,232.136658 
	C295.242676,231.794876 298.083008,232.137756 299.340759,230.887985 
	C300.293732,229.941086 299.228851,226.963516 299.048157,224.431107 
	C299.048157,224.431107 298.804810,224.042267 298.729767,223.343719 
	C297.353210,220.531830 295.976685,217.719940 294.338074,214.227539 
	C293.368225,213.446579 292.112762,212.846222 291.482910,211.850250 
	C289.707153,209.042435 288.405273,205.909927 286.430450,203.268936 
	C285.870087,202.519547 282.595123,202.497833 282.337555,203.018768 
	C278.209198,211.368652 274.368225,219.860657 270.257294,228.763382 
	C272.913879,228.961624 274.685333,229.093826 276.456787,229.226013 
	C276.456390,229.410019 276.455994,229.594025 276.455597,229.778030 
	C275.313171,229.935577 274.170715,230.093140 273.028290,230.250687 
	C273.165375,230.779831 273.302429,231.308975 273.439484,231.838104 
	C275.415955,231.270691 277.392395,230.703278 279.835052,229.822754 
	C280.301483,229.254288 280.767914,228.685837 282.079163,228.125534 
	C287.045135,228.342300 292.011108,228.559067 297.664886,229.136215 
M252.879990,261.169159 
	C252.683868,260.712311 252.557892,260.206665 252.279724,259.806915 
	C250.951843,257.898560 249.582657,256.018921 248.228165,254.129089 
	C246.664902,255.682907 244.706467,256.999634 243.607254,258.831879 
	C239.014648,266.486938 234.686203,274.300323 230.248871,282.048737 
	C227.145294,287.468170 227.136566,287.463165 229.472473,291.103912 
	C229.623581,291.454132 229.774673,291.804321 230.487503,292.715576 
	C233.017853,292.532196 235.548218,292.348816 238.674622,291.911957 
	C239.784592,290.950989 240.894547,289.990021 242.729034,289.157501 
	C245.541763,289.383545 248.354507,289.609589 251.167236,289.835663 
	C251.238007,289.458069 251.308777,289.080444 251.379547,288.702850 
	C250.512634,288.290833 249.645721,287.878784 248.778824,287.466766 
	C248.839935,287.292084 248.901047,287.117401 248.962158,286.942749 
	C253.772003,289.097809 258.581848,291.252899 262.914948,293.194366 
	C261.781647,293.194366 259.895233,293.194366 257.353821,293.047028 
	C257.138214,293.346130 256.922607,293.645233 256.956757,294.725708 
	C259.940247,294.713348 262.923706,294.700989 265.907196,294.688599 
	C265.615723,291.586243 265.362396,288.479431 264.999634,285.385437 
	C264.929352,284.786102 264.431763,284.236816 264.126801,282.935791 
	C261.152161,274.744537 258.177551,266.553284 254.855270,257.404724 
	C253.909698,259.754059 253.484467,260.810547 252.879990,261.169159 
M355.168304,182.066284 
	C356.401947,179.377380 357.635559,176.688492 359.046234,173.387878 
	C358.350586,173.291290 357.654938,173.194702 356.263733,172.592499 
	C355.991486,170.866257 355.719238,169.140015 355.405182,167.148819 
	C356.517090,166.667526 357.987701,166.030991 359.770355,165.259369 
	C357.493195,161.353851 355.827576,156.864944 352.800812,153.662506 
	C347.329285,147.873352 340.224884,146.500458 332.649506,149.326675 
	C325.712006,151.914917 321.172699,158.999512 321.036163,166.967468 
	C320.896454,175.122055 324.639191,180.519485 333.006409,184.806961 
	C334.346832,185.836838 335.687286,186.866714 337.762787,188.149857 
	C340.500610,188.065201 343.238403,187.980545 346.704041,187.974121 
	C349.375336,186.185120 352.046631,184.396133 355.168304,182.066284 
M283.137512,291.335876 
	C283.061890,290.887085 282.986237,290.438293 283.015503,289.110321 
	C282.620697,285.746521 282.225891,282.382721 281.897766,278.502289 
	C281.930756,278.331787 281.963776,278.161316 282.706665,278.021851 
	C286.833313,281.407196 290.873962,284.906555 295.131439,288.118439 
	C296.704010,289.304810 298.787109,289.814453 301.168518,291.096710 
	C301.363708,291.227753 301.558899,291.358795 301.208405,292.148712 
	C301.843353,292.571991 302.478333,292.995270 303.113312,293.418549 
	C303.723053,292.207184 304.913818,290.964966 304.851410,289.789276 
	C304.306610,279.525635 303.537689,269.273926 302.856079,258.447449 
	C302.423523,258.560669 301.990936,258.673889 301.112427,259.540314 
	C301.112427,262.096039 301.112427,264.651733 301.112427,267.207458 
	C300.689392,267.204773 300.266357,267.202118 299.843323,267.199463 
	C299.843323,264.485718 299.868561,261.771698 299.836548,259.058350 
	C299.801300,256.067627 299.200195,253.862656 295.249908,254.407150 
	C292.058441,254.847061 289.316833,254.897842 290.013489,259.453613 
	C290.598877,263.281677 290.534454,267.209137 290.807770,271.962891 
	C289.138519,270.769287 288.190979,270.198883 287.367584,269.485260 
	C282.724060,265.460632 278.177612,261.319733 273.431885,257.420776 
	C272.436493,256.602997 270.741638,256.406830 269.376648,256.427246 
	C269.027252,256.432495 268.374939,258.372345 268.424103,259.396393 
	C268.902130,269.350769 269.497192,279.299561 270.065216,289.249542 
	C270.203125,291.665131 270.966949,293.466583 274.102081,293.620697 
	C274.415070,294.037598 274.728058,294.454498 275.868958,295.178101 
	C278.176025,293.985046 282.748138,297.859558 283.137512,291.335876 
M377.127594,265.584106 
	C375.463745,261.616699 372.538574,262.276825 369.807739,263.938599 
	C367.043701,265.620575 366.458038,268.940247 368.832733,270.592590 
	C370.831268,271.983215 374.734802,272.394592 376.917206,271.369873 
	C380.631012,269.626099 380.523865,267.564423 377.127594,265.584106 
M355.036469,278.745605 
	C359.754395,280.406799 361.285980,277.040344 362.933075,273.817719 
	C356.583344,268.487213 353.649200,267.762238 351.498016,271.268768 
	C349.442596,274.619202 350.544861,277.203461 355.036469,278.745605 
M369.313629,239.058228 
	C369.350128,239.924561 369.386658,240.790909 369.423187,241.657227 
	C369.842682,241.552765 370.630615,241.417175 370.624786,241.348648 
	C370.566010,240.652817 370.377747,239.967926 369.313629,239.058228 
z"/>
<path fill="#FBFBFB" opacity="1.000000" stroke="none" 
	d="
M146.194931,369.642090 
	C147.869797,377.013031 141.814880,384.924194 131.958481,385.760132 
	C125.938698,386.270721 117.972565,376.057373 118.454659,368.988098 
	C118.843468,363.286560 122.589615,357.584534 126.426346,356.854340 
	C133.545822,355.499420 141.581726,358.877106 144.522278,364.590607 
	C145.268524,366.040588 145.612122,367.697754 146.194931,369.642090 
z"/>
<path fill="#F9F9F9" opacity="1.000000" stroke="none" 
	d="
M97.197021,424.853210 
	C95.880760,423.344360 94.637703,422.186615 93.847183,420.775360 
	C91.548820,416.672302 92.685730,410.637146 96.157990,407.578461 
	C98.784653,405.264709 104.413208,405.759552 108.636589,408.675659 
	C112.406952,411.278961 114.114319,416.390289 112.582222,420.487549 
	C111.113976,424.414032 105.872437,428.233856 102.179047,427.599518 
	C100.516968,427.314087 99.038658,425.958496 97.197021,424.853210 
z"/>
<path fill="#060606" opacity="1.000000" stroke="none" 
	d="
M286.881287,177.773682 
	C287.121460,177.263611 287.361633,176.753540 287.601746,176.243469 
	C286.304291,176.445694 284.961365,176.501022 283.720215,176.885223 
	C281.938202,177.436829 280.281189,178.436493 278.480743,178.875534 
	C274.193939,179.920868 273.401306,175.254913 270.599396,173.812759 
	C269.336945,173.162964 268.136414,172.393005 266.389465,172.572662 
	C266.987946,172.925339 267.586395,173.278000 269.082306,174.159546 
	C264.781097,174.561035 261.383026,174.878220 257.531982,174.961761 
	C256.523376,173.891129 255.967743,173.054108 255.412109,172.217102 
	C254.228500,173.541992 253.044891,174.866898 250.832977,177.342865 
	C253.660065,177.155685 254.836899,177.077759 256.013733,176.999847 
	C254.656876,177.928726 253.396362,179.447250 251.926971,179.687347 
	C244.413284,180.915054 236.852829,181.875763 229.286392,182.732620 
	C228.498764,182.821838 227.622696,181.490631 226.682968,181.033920 
	C225.441299,180.430511 224.096252,180.039886 221.941406,179.241165 
	C220.325180,168.964081 218.533920,158.036270 216.945023,147.079086 
	C216.628494,144.896271 222.727554,141.805984 223.950424,143.632111 
	C225.767868,146.346176 230.121353,146.280014 230.298447,150.810638 
	C230.516968,156.401169 231.971954,161.943359 232.937759,167.779251 
	C231.527649,168.055969 230.275742,168.301636 229.023834,168.547302 
	C229.065903,169.077866 229.107986,169.608429 229.150055,170.138992 
	C232.349121,169.866150 235.624268,169.929657 238.726303,169.227890 
	C241.967850,168.494553 243.416107,169.519653 243.820877,173.327087 
	C243.608017,175.100235 243.372208,176.160080 243.136398,177.219910 
	C243.656204,177.288895 244.176025,177.357864 244.695831,177.426849 
	C244.806122,175.978348 244.916412,174.529846 245.026703,173.081345 
	C249.018890,163.364731 252.926025,153.611511 257.080109,143.964615 
	C257.846008,142.186066 259.611481,140.837982 260.915558,139.291199 
	C262.394073,140.856308 263.872589,142.421417 265.802704,144.310303 
	C266.509186,145.098312 266.764069,145.562546 267.025238,146.352158 
	C270.581970,154.083359 274.132446,161.489166 278.159302,169.888672 
	C278.858704,167.536011 279.215942,166.334381 279.573151,165.132736 
	C280.457977,166.683853 281.342804,168.234985 282.924042,171.006866 
	C284.035767,161.432770 284.947479,153.040619 286.035706,144.671417 
	C286.249908,143.023758 287.144775,141.464584 287.725739,139.864609 
	C289.329559,140.842087 291.297882,141.502747 292.472015,142.853683 
	C296.796814,147.829834 300.858551,153.034653 305.900879,159.238113 
	C306.575012,154.291031 307.081635,150.510010 307.608246,146.731781 
	C307.942505,144.333740 307.625671,141.562805 311.621460,142.045242 
	C314.724579,142.419907 317.587799,142.607132 317.618469,147.327240 
	C318.054504,148.349319 318.176361,148.856506 318.298218,149.363693 
	C318.485687,149.352722 318.673126,149.341736 318.860596,149.330750 
	C318.916321,148.641098 318.972046,147.951447 319.027771,147.261795 
	C319.311462,149.601593 319.791870,151.939194 319.817993,154.281860 
	C319.839722,156.231995 319.327972,158.188095 318.712524,160.314468 
	C318.173218,159.240051 317.973877,157.992722 317.629150,155.835861 
	C316.436707,158.434143 315.600891,160.255280 314.588959,162.460220 
	C316.543793,162.256104 317.664337,162.139099 318.784912,162.022095 
	C318.189514,167.755814 317.661499,173.498123 316.932739,179.214828 
	C316.810394,180.174713 315.819122,181.023834 314.543457,181.532135 
	C313.643646,180.918182 313.429718,180.696228 313.215820,180.474289 
	C313.504181,180.256836 313.792572,180.039383 314.458191,179.391312 
	C314.892151,177.693970 314.948883,176.427277 315.005646,175.160568 
	C314.786957,175.171707 314.568298,175.182846 314.349640,175.193985 
	C314.027924,176.242020 313.706207,177.290039 313.384491,178.338074 
	C311.505859,177.426620 309.165894,176.945755 307.836700,175.521545 
	C304.120667,171.539841 300.822754,167.167877 296.883667,162.369980 
	C296.183075,168.633560 295.574799,174.072067 294.905548,180.055359 
	C292.205688,179.760757 289.963165,179.516052 287.351257,178.815552 
	C286.948303,178.164398 286.914795,177.969025 286.881287,177.773682 
M260.850067,161.356903 
	C262.062073,161.482620 263.274078,161.608337 265.672119,161.857071 
	C263.937164,159.085434 262.778046,157.233734 260.966339,154.339539 
	C259.672607,157.904251 258.877136,160.096100 258.081635,162.287964 
	C258.347351,162.440475 258.613068,162.592987 258.878754,162.745499 
	C259.351715,162.394058 259.824646,162.042633 260.850067,161.356903 
M293.987976,175.065048 
	C292.437134,175.730713 290.886322,176.396378 289.335480,177.062042 
	C289.667847,177.597946 290.000244,178.133865 290.332611,178.669769 
	C291.558868,177.707382 292.785095,176.744995 293.987976,175.065048 
M228.082840,149.668518 
	C226.486404,150.302917 226.486404,150.302917 229.206512,153.474167 
	C228.895325,152.073013 228.691101,151.153473 228.082840,149.668518 
M229.773254,161.312759 
	C229.205505,161.754669 228.637756,162.196564 228.070023,162.638474 
	C228.507309,162.980896 228.944595,163.323303 229.381882,163.665726 
	C229.652390,163.049072 229.922882,162.432434 229.773254,161.312759 
M237.919540,179.231384 
	C238.509430,178.908371 239.099319,178.585358 239.689224,178.262329 
	C239.282715,177.881500 238.876205,177.500671 238.469681,177.119843 
	C238.149231,177.674515 237.828781,178.229187 237.919540,179.231384 
M294.100342,166.901215 
	C293.895660,167.721756 293.691010,168.542297 293.486328,169.362839 
	C293.879089,169.411377 294.271881,169.459915 294.664642,169.508453 
	C294.664642,168.567841 294.664642,167.627213 294.100342,166.901215 
M294.049530,162.991241 
	C294.835999,162.951187 295.622467,162.911133 296.858612,162.848175 
	C295.985352,161.685257 295.367859,160.862915 294.431152,159.615509 
	C293.937195,160.969666 293.613220,161.857803 294.049530,162.991241 
M317.050293,165.640900 
	C316.798920,165.372971 316.547516,165.105026 316.296112,164.837097 
	C316.298920,165.578110 316.301697,166.319138 316.304504,167.060150 
	C316.552917,166.789154 316.801361,166.518158 317.050293,165.640900 
M233.624130,178.792221 
	C233.223099,178.788376 232.822067,178.784515 232.421036,178.780670 
	C232.419540,178.947113 232.407013,179.258240 232.418137,179.259094 
	C232.817383,179.289536 233.218826,179.291000 233.624130,178.792221 
M280.162415,172.111008 
	C280.393127,172.512985 280.588287,172.945450 280.884674,173.291077 
	C280.943481,173.359619 281.390778,173.095062 281.658905,172.984100 
	C281.325958,172.682098 280.993011,172.380096 280.162415,172.111008 
M229.862930,165.019470 
	C229.918747,165.503769 229.974564,165.988068 230.030396,166.472351 
	C230.288696,166.409683 230.546997,166.347000 230.805298,166.284332 
	C230.698380,165.866119 230.591476,165.447906 229.862930,165.019470 
M247.292542,176.893341 
	C247.547592,177.165619 247.797928,177.442963 248.070190,177.696777 
	C248.085434,177.710983 248.281738,177.530960 248.393768,177.441345 
	C248.126801,177.156097 247.859818,176.870865 247.292542,176.893341 
M230.022705,158.540176 
	C229.875946,158.269531 229.729187,157.998886 229.582428,157.728226 
	C229.394623,158.077393 229.206818,158.426575 229.019012,158.775757 
	C229.320389,158.881622 229.621765,158.987503 230.022705,158.540176 
M315.477325,173.769653 
	C315.477325,173.769653 315.608917,173.453812 315.608917,173.453812 
	C315.608917,173.453812 315.304932,173.531403 315.477325,173.769653 
M227.651657,156.535034 
	C227.651657,156.535034 227.438690,156.421188 227.438690,156.421188 
	C227.438690,156.421188 227.476120,156.664978 227.651657,156.535034 
z"/>
<path fill="#090909" opacity="1.000000" stroke="none" 
	d="
M173.861023,245.052673 
	C170.073792,244.244827 167.677414,242.800842 170.048706,238.330643 
	C171.234024,236.096146 172.352890,235.621765 174.749146,236.602493 
	C180.107132,238.795395 185.608307,240.637329 191.043808,242.642166 
	C196.318481,244.587692 196.314438,244.598648 195.367752,250.132233 
	C196.086411,249.804688 196.926178,249.699295 197.107300,249.297180 
	C199.312927,244.401047 203.368042,245.870270 206.176437,247.591400 
	C207.481262,248.391068 207.532120,252.421829 207.034882,254.749344 
	C205.677109,261.104889 205.488037,260.835358 212.256546,262.257965 
	C215.618774,262.964691 216.862625,261.933899 217.189987,258.811188 
	C217.327606,257.498352 217.586319,256.149292 218.081497,254.935654 
	C218.655472,253.528870 219.560822,251.121597 220.303452,251.128677 
	C222.689896,251.151413 225.163910,251.868317 227.373154,252.841736 
	C227.854965,253.054016 227.378448,255.441330 227.528961,257.254150 
	C227.773880,258.054474 227.833115,258.427612 227.892349,258.800751 
	C228.269165,258.257355 228.645981,257.713928 229.022781,257.170532 
	C229.037216,259.432953 229.051651,261.695374 228.624298,263.817230 
	C228.035172,263.047119 227.887817,262.417542 227.740463,261.787994 
	C227.491974,261.882538 227.243469,261.977081 226.994980,262.071625 
	C227.400833,262.893860 227.806686,263.716095 228.212540,264.538330 
	C228.126099,266.118866 228.039673,267.699432 227.651031,269.180420 
	C227.232880,268.720795 227.116928,268.360687 227.023071,267.669678 
	C226.848892,266.775055 226.652618,266.211365 226.456345,265.647644 
	C223.496597,266.810455 223.275482,269.804535 226.217041,272.082153 
	C226.445892,272.177765 226.931915,272.277008 226.931915,272.277008 
	C225.888611,277.297577 224.804550,282.310150 223.816086,287.341492 
	C223.134018,290.813141 221.451813,292.247528 217.915710,290.707428 
	C216.746902,290.198364 215.457214,289.966888 213.396591,289.368622 
	C214.963394,288.537292 215.840271,288.072052 216.734512,287.597565 
	C216.567261,287.388367 216.414902,287.008759 216.226654,286.990051 
	C211.894073,286.559265 210.490814,284.425476 212.018753,280.252380 
	C212.698074,278.397003 213.229218,276.397522 213.304779,274.443207 
	C213.353302,273.188019 212.448868,271.895966 211.971588,270.620453 
	C211.499969,270.844269 211.028336,271.068085 210.556717,271.291901 
	C210.963135,271.946838 211.369568,272.601807 211.547928,272.889221 
	C209.282166,273.908051 207.127594,274.876862 204.506561,275.550598 
	C203.644653,274.923645 203.249191,274.591827 202.853729,274.260010 
	C202.525162,275.212250 202.196609,276.164490 201.900543,277.534698 
	C201.979660,278.514160 202.026260,279.075653 202.072845,279.637146 
	C202.447784,280.017639 202.822708,280.398163 202.512207,280.949036 
	C199.539246,281.418365 197.251740,281.717285 194.964233,282.016235 
	C191.573563,281.560822 190.707184,280.089966 191.712082,276.552856 
	C193.557968,270.055389 194.731415,263.366943 196.182098,256.772034 
	C186.916489,254.457367 186.944977,254.467285 183.957840,263.041870 
	C182.590240,266.967621 180.931061,270.797119 179.687073,274.759064 
	C178.490891,278.568756 176.800552,280.674896 172.625977,278.222992 
	C171.553757,277.593262 170.309525,277.256409 168.735046,276.619446 
	C169.764496,276.141510 170.325500,275.881073 171.339996,275.494324 
	C173.543808,275.801788 175.294098,276.235565 177.187149,276.704742 
	C177.656754,274.717438 177.997437,273.275696 178.224472,272.314911 
	C175.908997,272.852539 173.498993,273.412109 171.088974,273.971680 
	C167.548355,273.261475 167.305954,271.408051 168.502060,268.241486 
	C170.913025,261.858673 172.871292,255.304855 175.314163,248.369476 
	C177.454788,245.479340 175.638397,245.277939 173.861023,245.052673 
M222.893143,278.709198 
	C222.879272,279.094910 222.865402,279.480591 222.172928,280.108185 
	C221.382004,282.095703 220.591080,284.083221 219.800156,286.070740 
	C220.437302,286.247620 221.074463,286.424500 221.711609,286.601349 
	C222.203308,284.452148 222.695007,282.302917 223.635849,279.799744 
	C223.468491,279.163940 223.301132,278.528137 223.295471,277.386383 
	C223.241516,276.995941 223.187576,276.605530 223.133621,276.215088 
	C222.868942,276.321655 222.365921,276.476959 222.376221,276.527313 
	C222.487656,277.072357 222.679733,277.600983 222.893143,278.709198 
M184.695267,253.919037 
	C184.991455,253.212769 185.287628,252.506500 185.583801,251.800232 
	C185.220581,251.671890 184.857376,251.543533 184.494171,251.415192 
	C184.309326,252.262009 184.124481,253.108841 183.682007,254.099838 
	C183.800919,254.083923 183.919846,254.068008 184.695267,253.919037 
M181.682495,261.910156 
	C181.980286,261.208710 182.278091,260.507294 182.575897,259.805847 
	C182.211838,259.678253 181.847763,259.550659 181.483704,259.423065 
	C181.311829,260.273926 181.139954,261.124817 180.703171,262.103577 
	C180.809509,262.078644 180.915848,262.053680 181.682495,261.910156 
M208.070221,271.403503 
	C208.196548,271.451721 208.322876,271.499939 208.449203,271.548126 
	C208.311874,271.354980 208.174545,271.161804 207.862213,270.236176 
	C204.366592,268.335449 204.243118,268.371216 203.525116,271.416779 
	C204.989761,271.294037 206.475571,271.169525 208.070221,271.403503 
M192.852341,253.210327 
	C193.795746,253.023743 194.739136,252.837158 195.682541,252.650574 
	C195.615082,252.271027 195.547623,251.891479 195.480164,251.511932 
	C193.166443,251.511932 190.852707,251.511932 188.538986,251.511932 
	C188.513123,251.777328 188.487259,252.042725 188.461395,252.308121 
	C189.737442,252.653244 191.013474,252.998367 192.852341,253.210327 
M178.371628,269.162231 
	C178.982224,268.621948 179.592804,268.081696 180.203400,267.541443 
	C179.989258,267.343201 179.775116,267.144958 179.560974,266.946747 
	C179.076996,267.532227 178.593033,268.117737 178.371628,269.162231 
M179.529846,265.388702 
	C179.818817,265.120575 180.107803,264.852478 180.396790,264.584381 
	C180.293427,264.482056 180.110062,264.282074 180.098373,264.291656 
	C179.807098,264.530304 179.533936,264.791016 179.529846,265.388702 
M182.760284,256.468384 
	C183.149719,256.596313 183.534454,256.745178 183.932587,256.834229 
	C184.010971,256.851746 184.140930,256.638550 184.247101,256.531738 
	C183.857773,256.404022 183.468430,256.276306 182.760284,256.468384 
M218.660217,288.525848 
	C218.660217,288.525848 218.354645,288.381012 218.354645,288.381012 
	C218.354645,288.381012 218.417862,288.684204 218.660217,288.525848 
z"/>
<path fill="#060606" opacity="1.000000" stroke="none" 
	d="
M302.835297,259.018646 
	C303.537689,269.273926 304.306610,279.525635 304.851410,289.789276 
	C304.913818,290.964966 303.723053,292.207184 303.113312,293.418549 
	C302.478333,292.995270 301.843353,292.571991 301.612335,291.569519 
	C301.556641,290.871155 301.096985,290.751953 300.637360,290.632751 
	C298.787109,289.814453 296.704010,289.304810 295.131439,288.118439 
	C290.873962,284.906555 286.833313,281.407196 282.206818,277.760437 
	C281.238159,277.614319 280.769348,277.729584 280.300537,277.844879 
	C280.810730,278.236206 281.320923,278.627563 281.831085,279.018921 
	C282.225891,282.382721 282.620697,285.746521 282.640869,289.526672 
	C281.314667,289.468781 280.363129,288.994537 279.329803,288.479492 
	C277.506989,293.208496 280.191162,292.659668 282.971039,292.003662 
	C282.748138,297.859558 278.176025,293.985046 275.659424,294.803864 
	C276.058746,294.126526 276.667633,293.823456 278.247314,293.037109 
	C276.043213,293.037109 274.978912,293.037109 273.914642,293.037109 
	C270.966949,293.466583 270.203125,291.665131 270.065216,289.249542 
	C269.497192,279.299561 268.902130,269.350769 268.424103,259.396393 
	C268.374939,258.372345 269.027252,256.432495 269.376648,256.427246 
	C270.741638,256.406830 272.436493,256.602997 273.431885,257.420776 
	C278.177612,261.319733 282.724060,265.460632 287.367584,269.485260 
	C288.190979,270.198883 289.138519,270.769287 290.807770,271.962891 
	C290.534454,267.209137 290.598877,263.281677 290.013489,259.453613 
	C289.316833,254.897842 292.058441,254.847061 295.249908,254.407150 
	C299.200195,253.862656 299.801300,256.067627 299.836548,259.058350 
	C299.868561,261.771698 299.843323,264.485718 299.843323,267.199463 
	C300.266357,267.202118 300.689392,267.204773 301.112427,267.207458 
	C301.112427,264.651733 301.112427,262.096039 301.649109,259.256470 
	C302.402283,258.987976 302.618774,259.003296 302.835297,259.018646 
M302.980255,281.612885 
	C302.492004,278.902039 302.003723,276.191193 301.515472,273.480347 
	C300.800568,273.698090 300.085663,273.915833 299.370728,274.133545 
	C300.449799,276.817688 301.528870,279.501801 302.980255,281.612885 
z"/>
<path fill="#080808" opacity="1.000000" stroke="none" 
	d="
M334.963135,286.823273 
	C328.969543,286.266693 322.687225,286.652832 317.051788,284.926819 
	C309.109863,282.494354 306.395508,275.456329 306.057770,267.633606 
	C305.717560,259.753448 309.681183,254.199310 316.576508,251.035934 
	C323.388306,247.910858 330.105927,248.248184 336.121704,253.438873 
	C337.689453,254.791565 339.591614,255.756699 341.585510,257.060242 
	C340.149414,258.938812 339.178619,260.208710 338.478729,261.124237 
	C340.086456,263.274139 341.524567,265.197205 342.910736,267.050842 
	C343.024445,266.739380 343.355530,265.832520 343.686615,264.925659 
	C344.211273,264.928040 344.735931,264.930420 345.260590,264.932770 
	C345.260590,267.993683 345.260590,271.054565 344.876099,274.382446 
	C344.184235,273.962341 343.876862,273.275208 343.312866,272.014435 
	C341.798645,274.743958 340.556519,276.982910 339.121521,279.569580 
	C340.711670,279.911957 341.811035,280.148651 342.910431,280.385376 
	C341.254608,282.043945 339.598785,283.702545 337.543640,285.092957 
	C335.612457,284.440918 334.080627,284.057068 332.548798,283.673187 
	C332.495636,284.088257 332.442474,284.503326 332.389343,284.918396 
	C333.247253,285.553375 334.105194,286.188324 334.963135,286.823273 
M318.020355,272.994965 
	C318.020355,272.994965 317.928314,272.998444 317.348816,273.606720 
	C319.573944,277.436951 323.029663,278.624359 327.114349,277.663727 
	C329.890411,277.010895 332.704742,275.946533 333.123505,271.968384 
	C332.026428,271.968384 331.358765,271.837952 330.763885,271.990814 
	C328.113525,272.671906 325.755676,273.630646 324.904816,269.393402 
	C324.055298,265.162811 326.463226,264.729004 329.412537,264.175049 
	C331.951324,263.698242 334.448547,263.000244 337.014313,262.388062 
	C333.574280,260.799500 330.769196,259.361969 327.847168,258.225037 
	C326.683014,257.772064 325.260223,257.983887 323.647156,257.365967 
	C318.640228,258.331512 315.596252,261.048309 315.117126,266.691833 
	C316.817810,265.831268 318.070953,265.197174 319.257904,265.301239 
	C319.097076,266.524323 318.936249,267.747406 318.140198,268.895447 
	C317.249054,268.709381 316.357880,268.523315 315.004791,268.240814 
	C315.885620,269.838074 316.404449,270.778870 316.880005,272.545776 
	C317.263214,272.726044 317.646423,272.906311 318.020355,272.994965 
z"/>
<path fill="#080808" opacity="1.000000" stroke="none" 
	d="
M358.869202,173.999588 
	C357.635559,176.688492 356.401947,179.377380 354.521576,182.161148 
	C353.582672,182.170532 353.290497,182.085068 353.054932,181.792770 
	C353.111542,181.585922 353.168365,181.160782 353.463196,180.982361 
	C354.199646,179.705750 354.641266,178.607529 355.082886,177.509323 
	C354.847687,177.397171 354.612488,177.285004 354.377319,177.172852 
	C353.595428,178.326645 352.813538,179.480438 351.811401,180.814682 
	C351.702332,181.319809 351.813507,181.644485 351.956909,181.981125 
	C351.989166,181.993088 351.981049,181.924805 351.577637,181.759430 
	C351.090485,182.068756 351.006744,182.543488 350.970459,183.020386 
	C351.017944,183.022552 351.031097,182.928421 350.736206,182.598694 
	C347.038116,183.602158 343.634888,184.935349 338.983643,186.757462 
	C341.796875,186.757462 343.213287,186.757462 344.895844,186.898514 
	C345.433380,187.325012 345.704803,187.610443 345.976227,187.895889 
	C343.238403,187.980545 340.500610,188.065201 337.515686,187.741547 
	C335.807007,186.239807 334.345459,185.146393 332.883881,184.052979 
	C324.639191,180.519485 320.896454,175.122055 321.036163,166.967468 
	C321.172699,158.999512 325.712006,151.914917 332.649506,149.326675 
	C340.224884,146.500458 347.329285,147.873352 352.800812,153.662506 
	C355.827576,156.864944 357.493195,161.353851 359.770355,165.259369 
	C357.987701,166.030991 356.517090,166.667526 355.405182,167.148819 
	C355.719238,169.140015 355.991486,170.866257 356.660095,172.811600 
	C357.056488,173.030701 357.031219,172.913376 356.707336,172.786255 
	C356.163666,173.399780 355.943848,174.140411 355.724060,174.881042 
	C356.208069,174.595032 356.692108,174.309006 357.599457,174.023071 
	C358.304962,174.015289 358.587097,174.007431 358.869202,173.999588 
M345.350067,158.306931 
	C344.863281,158.191498 344.376495,158.076065 343.259644,157.944489 
	C342.839996,157.962738 342.420380,157.981003 341.914520,157.274490 
	C340.664368,157.069901 339.414185,156.865311 338.164032,156.660721 
	C338.201691,157.211838 338.239319,157.762955 338.276978,158.314087 
	C339.517731,158.209625 340.758514,158.105179 341.995636,158.581177 
	C341.985870,158.968002 341.976105,159.354828 341.252808,159.884033 
	C340.289337,159.990448 339.325897,160.096863 337.762482,159.824890 
	C337.191315,158.937881 336.620148,158.050888 336.064209,157.187592 
	C332.369781,158.859497 331.524567,161.602448 331.199646,165.247894 
	C330.144257,171.316116 331.402039,174.180588 336.193573,176.134781 
	C339.453125,177.464172 342.631775,177.856659 345.659821,174.478485 
	C344.429718,173.785202 343.896210,173.260529 343.308899,173.191147 
	C340.285004,172.833847 338.265381,172.130096 339.335449,168.189301 
	C340.487000,163.948425 342.854370,164.718140 345.734528,165.825195 
	C347.118622,166.357193 348.614868,166.867264 350.064911,166.880341 
	C351.461578,166.892944 352.864136,166.252289 353.921326,165.985245 
	C351.186188,163.450256 349.067688,161.418365 346.855865,159.493729 
	C346.405334,159.101700 345.603729,159.113144 344.983643,159.034180 
	C344.983643,159.034180 345.080383,159.047379 345.350067,158.306931 
z"/>
<path fill="#080808" opacity="1.000000" stroke="none" 
	d="
M216.946030,180.820816 
	C215.583618,182.208786 214.221207,183.596756 212.251724,184.855927 
	C210.667068,184.140717 209.689484,183.554291 208.711884,182.967865 
	C209.092514,184.075226 209.473145,185.182587 209.853760,186.289963 
	C202.652191,190.517868 196.608307,186.452698 190.630600,183.284119 
	C189.278778,182.567581 188.888382,180.037201 188.055420,178.341766 
	C190.943085,177.793411 194.050690,176.293350 196.671616,176.899109 
	C201.782532,178.080383 204.967117,177.183701 206.171539,172.727188 
	C202.470337,172.519073 198.770874,172.179886 195.067627,172.131653 
	C188.898178,172.051270 185.465927,169.886566 183.980621,164.853745 
	C182.406601,159.520340 183.884094,154.820938 188.740997,151.894180 
	C197.275803,146.751205 204.680695,147.711548 212.584610,156.840149 
	C209.242416,157.579956 206.440079,158.395859 203.579788,158.777344 
	C200.820969,159.145309 197.988800,158.941742 195.217056,159.246063 
	C194.202286,159.357452 193.268448,160.206070 192.297699,160.718384 
	C193.098053,161.800644 193.685791,163.377304 194.754013,163.836670 
	C196.012894,164.378052 197.777771,164.275742 199.167053,163.889984 
	C205.649460,162.089935 211.160965,163.324097 215.642273,168.528885 
	C216.234863,169.217133 217.113678,169.658951 217.725937,170.830994 
	C213.801270,173.803314 213.449493,178.908493 216.946030,180.820816 
M206.511765,184.513031 
	C206.390442,184.743790 206.244400,184.966629 206.166046,185.211166 
	C206.147629,185.268661 206.357758,185.399414 206.462723,185.496460 
	C206.582809,185.267212 206.702881,185.037979 206.511765,184.513031 
M202.218979,185.794846 
	C202.350281,185.973755 202.481583,186.152679 202.612885,186.331589 
	C202.584015,186.078583 202.555145,185.825562 202.218979,185.794846 
z"/>
<path fill="#090909" opacity="1.000000" stroke="none" 
	d="
M264.131317,283.664459 
	C264.431763,284.236816 264.929352,284.786102 264.999634,285.385437 
	C265.362396,288.479431 265.615723,291.586243 265.907196,294.688599 
	C262.923706,294.700989 259.940247,294.713348 257.092346,294.301178 
	C257.488251,293.649231 257.748535,293.421783 258.008820,293.194366 
	C259.895233,293.194366 261.781647,293.194366 262.914948,293.194366 
	C258.581848,291.252899 253.772003,289.097809 248.962158,286.942749 
	C248.901047,287.117401 248.839935,287.292084 248.778824,287.466766 
	C249.645721,287.878784 250.512634,288.290833 251.379547,288.702850 
	C251.308777,289.080444 251.238007,289.458069 251.167236,289.835663 
	C248.354507,289.609589 245.541763,289.383545 242.577911,288.810181 
	C243.754242,288.175415 245.081680,287.887970 246.703064,287.536896 
	C240.490860,280.938599 237.466324,290.369843 232.552490,289.860443 
	C233.516602,290.540771 234.536636,290.330261 235.410736,290.597351 
	C236.370148,290.890564 237.195053,291.623871 238.078568,292.165436 
	C235.548218,292.348816 233.017853,292.532196 230.246872,292.188416 
	C230.006241,291.661224 230.020935,291.161682 230.020935,291.161682 
	C227.136566,287.463165 227.145294,287.468170 230.248871,282.048737 
	C234.686203,274.300323 239.014648,266.486938 243.607254,258.831879 
	C244.706467,256.999634 246.664902,255.682907 248.228165,254.129089 
	C249.582657,256.018921 250.951843,257.898560 252.279724,259.806915 
	C252.557892,260.206665 252.683868,260.712311 252.999481,261.841431 
	C255.514450,268.849915 258.097107,275.124634 260.209320,281.553894 
	C261.007294,283.982788 261.405975,285.540222 264.131317,283.664459 
M263.918427,289.685913 
	C264.180328,289.890533 264.442200,290.095123 264.704102,290.299744 
	C264.528839,289.817902 264.353577,289.336029 264.118134,288.277740 
	C263.913574,287.764404 263.709015,287.251068 263.504425,286.737732 
	C263.222931,287.070953 262.641113,287.523071 262.717010,287.714813 
	C262.933014,288.260376 263.417175,288.699768 263.918427,289.685913 
z"/>
<path fill="#080808" opacity="1.000000" stroke="none" 
	d="
M264.953827,229.144318 
	C260.341339,228.780533 260.341339,228.780533 259.891052,219.477982 
	C258.150482,220.106140 256.428375,220.727661 254.446976,221.442734 
	C254.306839,224.580627 254.161697,227.830750 254.008911,231.251984 
	C251.860794,231.251984 250.098602,231.251984 248.336395,231.251984 
	C248.282227,230.981659 248.228058,230.711319 248.173874,230.440994 
	C249.392609,230.190887 250.611343,229.940781 252.294571,229.022430 
	C252.759079,225.420898 252.759079,222.487625 252.759079,219.554352 
	C252.166336,219.540283 251.573593,219.526199 250.980850,219.512131 
	C250.980850,222.611664 250.980850,225.711212 250.980850,228.810745 
	C249.164093,228.898453 247.347351,228.986145 244.720566,229.112961 
	C244.720566,222.967270 244.720566,217.040756 244.928101,210.212250 
	C245.014832,207.756454 244.894043,206.202637 244.773254,204.648819 
	C245.021118,199.292633 248.913086,202.989014 251.489441,201.481216 
	C252.041458,205.033875 252.504044,208.011017 253.037048,211.441345 
	C254.734161,211.441345 257.087006,211.441345 259.969482,211.441345 
	C259.969482,208.313126 259.969482,205.441483 259.969482,200.808640 
	C263.057953,202.196228 265.126495,203.125595 267.131012,204.946167 
	C266.853455,213.547272 266.639923,221.257172 266.461975,228.983521 
	C266.497559,229.000000 266.429016,228.966919 266.053772,228.957642 
	C265.436951,229.013657 265.195374,229.078979 264.953827,229.144318 
z"/>
<path fill="#0A0A0A" opacity="1.000000" stroke="none" 
	d="
M298.804810,224.042267 
	C298.804810,224.042267 299.048157,224.431107 298.858521,224.932159 
	C298.104919,226.547440 297.540985,227.661636 296.977051,228.775833 
	C292.011108,228.559067 287.045135,228.342300 281.380920,227.944000 
	C280.215546,227.054779 279.748474,226.347076 279.281372,225.639374 
	C278.863403,225.794388 278.445435,225.949402 278.027466,226.104401 
	C278.474609,227.448227 278.921722,228.792053 279.368835,230.135864 
	C277.392395,230.703278 275.415955,231.270691 273.439484,231.838104 
	C273.302429,231.308975 273.165375,230.779831 273.028290,230.250687 
	C274.170715,230.093140 275.313171,229.935577 276.455597,229.778030 
	C276.455994,229.594025 276.456390,229.410019 276.456787,229.226013 
	C274.685333,229.093826 272.913879,228.961624 270.257294,228.763382 
	C274.368225,219.860657 278.209198,211.368652 282.337555,203.018768 
	C282.595123,202.497833 285.870087,202.519547 286.430450,203.268936 
	C288.405273,205.909927 289.707153,209.042435 291.482910,211.850250 
	C292.112762,212.846222 293.368225,213.446579 294.151581,214.506119 
	C293.486847,214.754929 293.008636,214.725159 292.530396,214.695374 
	C294.033661,218.100525 295.536896,221.505676 297.040161,224.910828 
	C297.628387,224.621307 298.216583,224.331787 298.804810,224.042267 
z"/>
<path fill="#080808" opacity="1.000000" stroke="none" 
	d="
M242.940155,209.868729 
	C235.018967,212.181259 235.018951,212.181259 235.012802,222.734299 
	C235.008957,229.339035 234.469696,229.771042 227.193909,228.280655 
	C227.193909,221.746552 227.193909,215.050186 227.193909,208.217728 
	C224.870758,208.080353 223.247635,207.984375 221.193878,207.862930 
	C221.193878,205.993500 221.193878,204.156433 221.193878,201.831406 
	C226.943893,201.831406 232.553528,201.629623 238.129608,201.972702 
	C239.530319,202.058914 240.823486,203.892838 242.500854,205.467880 
	C242.870453,207.297714 242.905304,208.583221 242.940155,209.868729 
M241.875458,208.456482 
	C241.701248,208.106369 241.527023,207.756241 241.352829,207.406143 
	C241.030853,207.723465 240.708878,208.040787 240.386887,208.358078 
	C240.735107,208.535049 241.083328,208.712021 241.875458,208.456482 
z"/>
<path fill="#060606" opacity="1.000000" stroke="none" 
	d="
M354.681000,248.119049 
	C355.590271,249.618866 356.499542,251.118652 357.251801,253.248947 
	C356.199615,254.308945 355.304443,254.738464 353.574585,255.568466 
	C355.730133,256.184265 357.214874,256.608398 358.699585,257.032562 
	C359.496094,259.694336 360.485321,262.320648 360.985779,265.036957 
	C361.163605,266.002289 360.153687,267.186462 359.359375,267.863342 
	C359.031036,266.746307 359.029327,266.036682 359.027588,265.327057 
	C358.675323,265.580109 358.323059,265.833130 357.970795,266.086151 
	C349.304626,268.584534 349.290527,268.589630 346.197784,260.055756 
	C345.014496,256.790741 343.879425,253.507294 342.784271,250.211655 
	C342.005524,247.868225 339.838867,245.187393 344.255249,243.982941 
	C347.513428,243.094345 351.149384,240.670654 352.119232,246.599243 
	C352.902802,246.004074 353.559265,245.505447 354.215698,245.006836 
	C354.580383,246.153885 354.945068,247.300949 354.653687,248.251846 
	C353.661011,248.203003 353.324371,248.350311 352.987762,248.497620 
	C353.044617,248.618896 353.101471,248.740173 353.158325,248.861435 
	C353.665894,248.613983 354.173431,248.366516 354.681000,248.119049 
M356.822083,258.397308 
	C356.434570,258.381989 356.047028,258.366669 355.659515,258.351349 
	C356.036438,258.649078 356.413391,258.946777 356.859650,259.945892 
	C357.187469,261.119690 357.515289,262.293518 357.843109,263.467316 
	C358.212433,263.318176 358.581787,263.169006 358.951111,263.019867 
	C358.355286,261.613373 357.759460,260.206848 356.822083,258.397308 
z"/>
<path fill="#090909" opacity="1.000000" stroke="none" 
	d="
M370.928589,243.319885 
	C372.262329,245.977295 373.596069,248.634705 374.616638,251.653595 
	C373.502167,252.015076 372.700867,252.015076 371.546295,252.015076 
	C372.421112,253.760452 373.162476,255.239532 373.903809,256.718628 
	C374.318604,261.067627 370.716339,261.463989 368.029510,261.908539 
	C366.966522,262.084442 365.004150,259.955078 364.279297,258.470947 
	C361.880554,253.559570 360.086823,248.348434 357.616699,243.477631 
	C355.830505,239.955475 357.828949,239.064484 360.381744,238.166550 
	C362.944763,237.265030 365.585510,235.333847 367.239716,239.702072 
	C367.602753,240.660736 366.412170,244.260971 370.158081,243.390366 
	C370.171356,244.754028 370.000153,245.559601 369.828949,246.365189 
	C370.139648,246.415512 370.450348,246.465851 370.761078,246.516190 
	C370.816895,245.450745 370.872742,244.385315 370.928589,243.319885 
z"/>
<path fill="#080808" opacity="1.000000" stroke="none" 
	d="
M311.964478,228.773132 
	C310.181641,228.867249 308.398804,228.961365 305.994049,229.088303 
	C305.994049,222.019104 305.994049,215.337296 305.994049,208.452850 
	C303.524292,208.157867 301.630249,207.931641 299.431915,207.669067 
	C299.431915,205.796478 299.431915,204.099350 299.431915,201.860046 
	C305.640686,201.860046 311.543671,201.803574 317.442474,201.935059 
	C318.140900,201.950623 318.816406,202.995056 319.264587,204.416718 
	C319.425995,207.000381 319.825317,208.729874 320.224670,210.459381 
	C319.679321,210.533768 319.133972,210.608139 318.187012,210.244843 
	C316.012726,209.568710 314.240112,209.330261 311.964478,209.024155 
	C311.964478,216.241898 311.964478,222.507523 311.964478,228.773132 
z"/>
<path fill="#121212" opacity="1.000000" stroke="none" 
	d="
M377.443298,265.699524 
	C380.523865,267.564423 380.631012,269.626099 376.917206,271.369873 
	C374.734802,272.394592 370.831268,271.983215 368.832733,270.592590 
	C366.458038,268.940247 367.043701,265.620575 369.807739,263.938599 
	C372.538574,262.276825 375.463745,261.616699 377.443298,265.699524 
z"/>
<path fill="#121212" opacity="1.000000" stroke="none" 
	d="
M354.652405,278.664429 
	C350.544861,277.203461 349.442596,274.619202 351.498016,271.268768 
	C353.649200,267.762238 356.583344,268.487213 362.933075,273.817719 
	C361.285980,277.040344 359.754395,280.406799 354.652405,278.664429 
z"/>
<path fill="#222222" opacity="1.000000" stroke="none" 
	d="
M264.129059,283.300110 
	C261.405975,285.540222 261.007294,283.982788 260.209320,281.553894 
	C258.097107,275.124634 255.514450,268.849915 253.089111,262.190369 
	C253.484467,260.810547 253.909698,259.754059 254.855270,257.404724 
	C258.177551,266.553284 261.152161,274.744537 264.129059,283.300110 
z"/>
<path fill="#1C1C1C" opacity="1.000000" stroke="none" 
	d="
M279.556183,165.141937 
	C279.215942,166.334381 278.858704,167.536011 278.159302,169.888672 
	C274.132446,161.489166 270.581970,154.083359 267.340881,146.310547 
	C268.130432,145.570389 268.610596,145.197250 269.090790,144.824097 
	C271.997406,150.324677 274.904022,155.825241 277.593994,161.944351 
	C277.181122,164.213242 276.335632,166.418228 279.574127,165.134491 
	C279.574127,165.134491 279.539215,165.151154 279.556183,165.141937 
z"/>
<path fill="#3A3A3A" opacity="1.000000" stroke="none" 
	d="
M266.429016,228.966919 
	C266.429016,228.966919 266.497559,229.000000 266.931549,229.224579 
	C267.577576,221.299835 267.789581,213.150513 268.001587,205.001175 
	C268.666931,205.475540 269.907104,205.944260 269.911835,206.425125 
	C269.989014,214.294098 269.920776,222.164764 269.823914,230.034271 
	C269.820404,230.319809 269.190186,230.597641 268.400085,230.649658 
	C267.441742,229.935791 266.935394,229.451355 266.429016,228.966919 
z"/>
<path fill="#272727" opacity="1.000000" stroke="none" 
	d="
M312.362061,228.857697 
	C311.964478,222.507523 311.964478,216.241898 311.964478,209.024155 
	C314.240112,209.330261 316.012726,209.568710 317.927246,210.140442 
	C317.248901,210.801392 316.428650,211.129044 315.039490,211.962219 
	C314.165070,217.901642 313.859558,223.335556 313.554016,228.769470 
	C313.289215,228.827057 313.024445,228.884659 312.362061,228.857697 
z"/>
<path fill="#222222" opacity="1.000000" stroke="none" 
	d="
M238.376587,292.038696 
	C237.195053,291.623871 236.370148,290.890564 235.410736,290.597351 
	C234.536636,290.330261 233.516602,290.540771 232.552490,289.860443 
	C237.466324,290.369843 240.490860,280.938599 246.703064,287.536896 
	C245.081680,287.887970 243.754242,288.175415 242.215668,288.745972 
	C240.894547,289.990021 239.784592,290.950989 238.376587,292.038696 
z"/>
<path fill="#272727" opacity="1.000000" stroke="none" 
	d="
M374.291687,256.929565 
	C373.162476,255.239532 372.421112,253.760452 371.546295,252.015076 
	C372.700867,252.015076 373.502167,252.015076 374.623474,252.013428 
	C375.848175,254.121384 376.991943,256.169128 377.560211,258.365753 
	C377.860474,259.526489 377.158417,260.946503 376.908936,262.249451 
	C376.407379,262.169067 375.905853,262.088715 375.404327,262.008331 
	C375.162750,260.385712 374.921143,258.763092 374.291687,256.929565 
z"/>
<path fill="#1F1F1F" opacity="1.000000" stroke="none" 
	d="
M298.767273,223.692993 
	C298.216583,224.331787 297.628387,224.621307 297.040161,224.910828 
	C295.536896,221.505676 294.033661,218.100525 292.530396,214.695374 
	C293.008636,214.725159 293.486847,214.754929 294.282623,214.846375 
	C295.976685,217.719940 297.353210,220.531830 298.767273,223.692993 
z"/>
<path fill="#1F1F1F" opacity="1.000000" stroke="none" 
	d="
M297.320984,228.956024 
	C297.540985,227.661636 298.104919,226.547440 298.865417,225.161423 
	C299.228851,226.963516 300.293732,229.941086 299.340759,230.887985 
	C298.083008,232.137756 295.242676,231.794876 293.082672,232.136658 
	C293.017273,231.629089 292.951874,231.121521 292.886444,230.613953 
	C294.479248,230.121368 296.072083,229.628784 297.320984,228.956024 
z"/>
<path fill="#080808" opacity="1.000000" stroke="none" 
	d="
M313.388184,229.152100 
	C313.859558,223.335556 314.165070,217.901642 314.805267,212.202393 
	C315.193237,217.039612 315.087097,222.150574 315.355621,227.241791 
	C315.536041,230.662720 314.357483,232.184891 310.510651,231.368225 
	C310.063202,230.745926 310.029175,230.445267 310.024170,230.141312 
	C311.090210,229.939117 312.156281,229.736938 313.388184,229.152100 
z"/>
<path fill="#1F1F1F" opacity="1.000000" stroke="none" 
	d="
M217.195023,180.683258 
	C213.449493,178.908493 213.801270,173.803314 217.823029,171.177444 
	C218.344910,171.419800 218.635681,171.931824 218.634537,172.966217 
	C218.209778,175.321396 218.076950,177.154236 217.944122,178.987061 
	C217.777420,179.506607 217.610718,180.026169 217.195023,180.683258 
z"/>
<path fill="#C3C3C3" opacity="1.000000" stroke="none" 
	d="
M267.836670,204.901688 
	C267.789581,213.150513 267.577576,221.299835 266.895966,229.208115 
	C266.639923,221.257172 266.853455,213.547272 267.185272,205.376434 
	C267.303558,204.915466 267.671753,204.802200 267.836670,204.901688 
z"/>
<path fill="#1F1F1F" opacity="1.000000" stroke="none" 
	d="
M342.899750,280.375763 
	C341.811035,280.148651 340.711670,279.911957 339.121521,279.569580 
	C340.556519,276.982910 341.798645,274.743958 343.312866,272.014435 
	C343.876862,273.275208 344.184235,273.962341 344.737762,274.822327 
	C344.834290,275.853394 344.684662,276.711639 343.915070,277.842468 
	C343.164764,278.876556 343.034424,279.638062 342.904083,280.399536 
	C342.904083,280.399536 342.889069,280.366150 342.899750,280.375763 
z"/>
<path fill="#222222" opacity="1.000000" stroke="none" 
	d="
M346.340149,187.934998 
	C345.704803,187.610443 345.433380,187.325012 345.159485,186.658539 
	C347.115051,185.161148 349.073090,184.044785 351.031097,182.928421 
	C351.031097,182.928421 351.017944,183.022552 351.275269,182.986572 
	C351.682098,182.608658 351.831573,182.266739 351.981049,181.924805 
	C351.981049,181.924805 351.989166,181.993088 352.223572,182.052368 
	C352.638062,182.074310 352.818176,182.036957 352.998322,181.999619 
	C353.290497,182.085068 353.582672,182.170532 354.296387,182.431580 
	C352.046631,184.396133 349.375336,186.185120 346.340149,187.934998 
z"/>
<path fill="#1C1C1C" opacity="1.000000" stroke="none" 
	d="
M251.280243,228.882385 
	C250.980850,225.711212 250.980850,222.611664 250.980850,219.512131 
	C251.573593,219.526199 252.166336,219.540283 252.759079,219.554352 
	C252.759079,222.487625 252.759079,225.420898 252.476807,228.639008 
	C251.989578,228.933914 251.784592,228.943954 251.280243,228.882385 
z"/>
<path fill="#0A0A0A" opacity="1.000000" stroke="none" 
	d="
M171.215576,274.225952 
	C173.498993,273.412109 175.908997,272.852539 178.224472,272.314911 
	C177.997437,273.275696 177.656754,274.717438 177.187149,276.704742 
	C175.294098,276.235565 173.543808,275.801788 171.556000,275.207947 
	C171.326385,274.858643 171.334290,274.669434 171.215576,274.225952 
z"/>
<path fill="#090909" opacity="1.000000" stroke="none" 
	d="
M256.207764,176.857635 
	C254.836899,177.077759 253.660065,177.155685 250.832977,177.342865 
	C253.044891,174.866898 254.228500,173.541992 255.412109,172.217102 
	C255.967743,173.054108 256.523376,173.891129 257.119965,175.123474 
	C256.907867,175.917694 256.654846,176.316559 256.207764,176.857635 
z"/>
<path fill="#090909" opacity="1.000000" stroke="none" 
	d="
M202.740570,281.134705 
	C203.942551,286.597504 202.817886,287.258148 195.266876,284.794678 
	C194.787613,284.094727 194.689957,283.900818 194.592285,283.706879 
	C194.592285,283.706879 194.673370,283.755402 195.049667,283.842773 
	C198.523911,284.724640 201.102371,284.159821 202.740570,281.134705 
z"/>
<path fill="#1C1C1C" opacity="1.000000" stroke="none" 
	d="
M318.886047,161.763947 
	C317.664337,162.139099 316.543793,162.256104 314.588959,162.460220 
	C315.600891,160.255280 316.436707,158.434143 317.629150,155.835861 
	C317.973877,157.992722 318.173218,159.240051 318.619904,160.725891 
	C318.907227,161.144882 318.947205,161.325348 318.886047,161.763947 
z"/>
<path fill="#1F1F1F" opacity="1.000000" stroke="none" 
	d="
M335.185852,286.861237 
	C334.105194,286.188324 333.247253,285.553375 332.389343,284.918396 
	C332.442474,284.503326 332.495636,284.088257 332.548798,283.673187 
	C334.080627,284.057068 335.612457,284.440918 337.176880,285.258850 
	C336.609161,286.095062 336.008850,286.497131 335.185852,286.861237 
z"/>
<path fill="#272727" opacity="1.000000" stroke="none" 
	d="
M202.705551,281.115967 
	C201.102371,284.159821 198.523911,284.724640 195.046906,283.795593 
	C194.804733,283.301727 194.941620,282.942413 195.021378,282.299622 
	C197.251740,281.717285 199.539246,281.418365 202.265320,281.072266 
	C202.703857,281.025146 202.670532,281.097229 202.705551,281.115967 
z"/>
<path fill="#222222" opacity="1.000000" stroke="none" 
	d="
M332.945129,184.429962 
	C334.345459,185.146393 335.807007,186.239807 337.148132,187.614914 
	C335.687286,186.866714 334.346832,185.836838 332.945129,184.429962 
z"/>
<path fill="#272727" opacity="1.000000" stroke="none" 
	d="
M320.641266,210.417358 
	C319.825317,208.729874 319.425995,207.000381 319.176208,204.835510 
	C322.911438,205.519806 322.855286,207.695190 320.641266,210.417358 
z"/>
<path fill="#1C1C1C" opacity="1.000000" stroke="none" 
	d="
M283.054260,291.669769 
	C280.191162,292.659668 277.506989,293.208496 279.329803,288.479492 
	C280.363129,288.994537 281.314667,289.468781 282.588379,289.966248 
	C282.986237,290.438293 283.061890,290.887085 283.054260,291.669769 
z"/>
<path fill="#1F1F1F" opacity="1.000000" stroke="none" 
	d="
M210.132812,186.275208 
	C209.473145,185.182587 209.092514,184.075226 208.711884,182.967865 
	C209.689484,183.554291 210.667068,184.140717 211.932037,184.926605 
	C211.616898,185.504181 211.014374,185.882309 210.132812,186.275208 
z"/>
<path fill="#3A3A3A" opacity="1.000000" stroke="none" 
	d="
M243.282745,209.774414 
	C242.905304,208.583221 242.870453,207.297714 242.882935,205.628983 
	C243.362274,205.179901 243.794281,205.114044 244.499771,204.848511 
	C244.894043,206.202637 245.014832,207.756454 245.000381,209.762054 
	C244.451874,210.035904 244.038620,209.858002 243.282745,209.774414 
z"/>
<path fill="#121212" opacity="1.000000" stroke="none" 
	d="
M279.601929,229.979309 
	C278.921722,228.792053 278.474609,227.448227 278.027466,226.104401 
	C278.445435,225.949402 278.863403,225.794388 279.281372,225.639374 
	C279.748474,226.347076 280.215546,227.054779 280.958496,227.939941 
	C280.767914,228.685837 280.301483,229.254288 279.601929,229.979309 
z"/>
<path fill="#0A0A0A" opacity="1.000000" stroke="none" 
	d="
M173.915955,245.371735 
	C175.638397,245.277939 177.454788,245.479340 175.292542,247.963165 
	C174.639008,247.236252 174.304932,246.463531 173.915955,245.371735 
z"/>
<path fill="#080808" opacity="1.000000" stroke="none" 
	d="
M218.163025,178.668732 
	C218.076950,177.154236 218.209778,175.321396 218.592773,173.265549 
	C218.689270,174.811829 218.535599,176.581116 218.163025,178.668732 
z"/>
<path fill="#1C1C1C" opacity="1.000000" stroke="none" 
	d="
M358.711487,256.699097 
	C357.214874,256.608398 355.730133,256.184265 353.574585,255.568466 
	C355.304443,254.738464 356.199615,254.308945 357.277527,253.594971 
	C357.881317,254.328873 358.302338,255.347229 358.711487,256.699097 
z"/>
<path fill="#C3C3C3" opacity="1.000000" stroke="none" 
	d="
M266.053772,228.957642 
	C266.935394,229.451355 267.441742,229.935791 267.971497,230.691467 
	C266.697357,231.469086 265.399780,231.975479 262.750549,233.009384 
	C264.060730,231.086624 264.500946,230.440613 264.947479,229.469452 
	C265.195374,229.078979 265.436951,229.013657 266.053772,228.957642 
z"/>
<path fill="#090909" opacity="1.000000" stroke="none" 
	d="
M269.027008,144.474640 
	C268.610596,145.197250 268.130432,145.570389 267.334595,145.985153 
	C266.764069,145.562546 266.509186,145.098312 266.153564,144.388824 
	C267.022949,144.137436 267.993103,144.131317 269.027008,144.474640 
z"/>
<path fill="#090909" opacity="1.000000" stroke="none" 
	d="
M244.778503,173.280151 
	C244.916412,174.529846 244.806122,175.978348 244.695831,177.426849 
	C244.176025,177.357864 243.656204,177.288895 243.136398,177.219910 
	C243.372208,176.160080 243.608017,175.100235 243.870377,173.730743 
	C244.108063,173.440384 244.319183,173.459671 244.778503,173.280151 
z"/>
<path fill="#060606" opacity="1.000000" stroke="none" 
	d="
M279.461792,164.862610 
	C276.335632,166.418228 277.181122,164.213242 277.627563,162.298767 
	C278.368378,162.886658 278.858917,163.738693 279.461792,164.862610 
z"/>
<path fill="#272727" opacity="1.000000" stroke="none" 
	d="
M201.868042,277.116730 
	C202.196609,276.164490 202.525162,275.212250 202.853729,274.260010 
	C203.249191,274.591827 203.644653,274.923645 203.971832,275.633484 
	C203.903564,276.011505 203.753906,276.096130 203.413391,276.124329 
	C202.765350,276.394653 202.457840,276.636749 202.079514,276.937988 
	C202.008698,276.997192 201.868042,277.116730 201.868042,277.116730 
z"/>
<path fill="#1C1C1C" opacity="1.000000" stroke="none" 
	d="
M274.008362,293.328918 
	C274.978912,293.037109 276.043213,293.037109 278.247314,293.037109 
	C276.667633,293.823456 276.058746,294.126526 275.245453,294.650513 
	C274.728058,294.454498 274.415070,294.037598 274.008362,293.328918 
z"/>
<path fill="#1C1C1C" opacity="1.000000" stroke="none" 
	d="
M357.987122,266.414551 
	C358.323059,265.833130 358.675323,265.580109 359.027588,265.327057 
	C359.029327,266.036682 359.031036,266.746307 359.013275,267.748108 
	C358.663696,267.607849 358.333557,267.175385 357.987122,266.414551 
z"/>
<path fill="#090909" opacity="1.000000" stroke="none" 
	d="
M227.445862,269.640015 
	C227.417984,270.783386 227.293076,271.367645 227.050049,272.114441 
	C226.931915,272.277008 226.445892,272.177765 226.245636,271.722137 
	C226.363907,270.177856 226.682434,269.089233 227.000977,268.000580 
	C227.116928,268.360687 227.232880,268.720795 227.445862,269.640015 
z"/>
<path fill="#1C1C1C" opacity="1.000000" stroke="none" 
	d="
M281.864441,278.760620 
	C281.320923,278.627563 280.810730,278.236206 280.300537,277.844879 
	C280.769348,277.729584 281.238159,277.614319 281.851868,277.744934 
	C281.963776,278.161316 281.930756,278.331787 281.864441,278.760620 
z"/>
<path fill="#080808" opacity="1.000000" stroke="none" 
	d="
M343.086548,280.196869 
	C343.034424,279.638062 343.164764,278.876556 343.658295,278.060547 
	C343.770660,278.668732 343.519836,279.331482 343.086548,280.196869 
z"/>
<path fill="#272727" opacity="1.000000" stroke="none" 
	d="
M369.769714,239.169098 
	C370.377747,239.967926 370.566010,240.652817 370.624786,241.348648 
	C370.630615,241.417175 369.842682,241.552765 369.423157,241.657227 
	C369.386658,240.790909 369.350128,239.924561 369.769714,239.169098 
z"/>
<path fill="#272727" opacity="1.000000" stroke="none" 
	d="
M370.889740,243.344040 
	C370.872742,244.385315 370.816895,245.450745 370.761078,246.516190 
	C370.450348,246.465851 370.139648,246.415512 369.828949,246.365189 
	C370.000153,245.559601 370.171356,244.754028 370.567627,243.623001 
	C370.792755,243.297562 370.850891,243.368195 370.889740,243.344040 
z"/>
<path fill="#1C1C1C" opacity="1.000000" stroke="none" 
	d="
M318.763885,147.241089 
	C318.972046,147.951447 318.916321,148.641098 318.860596,149.330750 
	C318.673126,149.341736 318.485687,149.352722 318.298218,149.363693 
	C318.176361,148.856506 318.054504,148.349319 317.952179,147.548386 
	C318.147766,147.243210 318.323853,147.231796 318.763885,147.241089 
z"/>
<path fill="#222222" opacity="1.000000" stroke="none" 
	d="
M228.752579,257.153015 
	C228.645981,257.713928 228.269165,258.257355 227.892349,258.800751 
	C227.833115,258.427612 227.773880,258.054474 227.830200,257.444885 
	C228.124634,257.184143 228.303497,257.159821 228.752579,257.153015 
z"/>
<path fill="#222222" opacity="1.000000" stroke="none" 
	d="
M358.957703,173.693726 
	C358.587097,174.007431 358.304962,174.015289 357.558350,173.746307 
	C357.073059,173.284088 357.052155,173.098724 357.031219,172.913376 
	C357.031219,172.913376 357.056488,173.030701 357.007874,173.064407 
	C357.654938,173.194702 358.350586,173.291290 358.957703,173.693726 
z"/>
<path fill="#090909" opacity="1.000000" stroke="none" 
	d="
M203.698166,276.401428 
	C203.553040,277.677307 203.407913,278.953217 203.018097,279.424805 
	C203.081665,277.880829 203.389908,277.141113 203.698166,276.401428 
z"/>
<path fill="#272727" opacity="1.000000" stroke="none" 
	d="
M203.684052,276.379333 
	C203.389908,277.141113 203.081665,277.880829 202.467896,279.137146 
	C202.162369,279.653809 202.130310,279.565857 202.101578,279.601501 
	C202.026260,279.075653 201.979660,278.514160 201.900543,277.534698 
	C201.868042,277.116730 202.008698,276.997192 202.460815,276.830109 
	C203.152756,276.548859 203.392593,276.434662 203.632446,276.320496 
	C203.632446,276.320496 203.669937,276.357208 203.684052,276.379333 
z"/>
<path fill="#272727" opacity="1.000000" stroke="none" 
	d="
M309.720337,230.119675 
	C310.029175,230.445267 310.063202,230.745926 310.099670,231.269180 
	C309.854279,231.029388 309.635376,230.563705 309.720337,230.119675 
z"/>
<path fill="#1C1C1C" opacity="1.000000" stroke="none" 
	d="
M354.639771,248.103058 
	C354.173431,248.366516 353.665894,248.613983 353.158325,248.861435 
	C353.101471,248.740173 353.044617,248.618896 352.987762,248.497620 
	C353.324371,248.350311 353.661011,248.203003 354.329865,248.042297 
	C354.662109,248.028915 354.598572,248.087051 354.639771,248.103058 
z"/>
<path fill="#222222" opacity="1.000000" stroke="none" 
	d="
M257.681335,293.120697 
	C257.748535,293.421783 257.488251,293.649231 256.967468,293.910492 
	C256.922607,293.645233 257.138214,293.346130 257.681335,293.120697 
z"/>
<path fill="#222222" opacity="1.000000" stroke="none" 
	d="
M229.746704,291.132812 
	C230.020935,291.161682 230.006241,291.661224 229.966003,291.907898 
	C229.774673,291.804321 229.623581,291.454132 229.746704,291.132812 
z"/>
<path fill="#272727" opacity="1.000000" stroke="none" 
	d="
M286.594452,177.846436 
	C286.914795,177.969025 286.948303,178.164398 286.995361,178.656784 
	C286.775116,178.608948 286.541382,178.264084 286.594452,177.846436 
z"/>
<path fill="#060606" opacity="1.000000" stroke="none" 
	d="
M314.113586,181.525162 
	C313.866302,181.584122 313.363007,181.258072 313.037781,180.703156 
	C313.429718,180.696228 313.643646,180.918182 314.113586,181.525162 
z"/>
<path fill="#272727" opacity="1.000000" stroke="none" 
	d="
M194.376526,283.867249 
	C194.689957,283.900818 194.787613,284.094727 194.948639,284.608154 
	C194.728256,284.627655 194.444504,284.327606 194.376526,283.867249 
z"/>
<path fill="#090909" opacity="1.000000" stroke="none" 
	d="
M203.637711,276.259949 
	C203.392593,276.434662 203.152756,276.548859 202.531616,276.770935 
	C202.457840,276.636749 202.765350,276.394653 203.378265,276.118713 
	C203.683685,276.084839 203.642975,276.199371 203.637711,276.259949 
z"/>
<path fill="#1C1C1C" opacity="1.000000" stroke="none" 
	d="
M302.845703,258.733032 
	C302.618774,259.003296 302.402283,258.987976 301.872070,258.879883 
	C301.990936,258.673889 302.423523,258.560669 302.845703,258.733032 
z"/>
<path fill="#090909" opacity="1.000000" stroke="none" 
	d="
M260.573853,161.524048 
	C259.824646,162.042633 259.351715,162.394058 258.878754,162.745499 
	C258.613068,162.592987 258.347351,162.440475 258.081635,162.287964 
	C258.877136,160.096100 259.672607,157.904251 260.966339,154.339539 
	C262.778046,157.233734 263.937164,159.085434 265.672119,161.857071 
	C263.274078,161.608337 262.062073,161.482620 260.573853,161.524048 
z"/>
<path fill="#272727" opacity="1.000000" stroke="none" 
	d="
M293.999664,175.423828 
	C292.785095,176.744995 291.558868,177.707382 290.332611,178.669769 
	C290.000244,178.133865 289.667847,177.597946 289.335480,177.062042 
	C290.886322,176.396378 292.437134,175.730713 293.999664,175.423828 
z"/>
<path fill="#272727" opacity="1.000000" stroke="none" 
	d="
M228.284851,149.951233 
	C228.691101,151.153473 228.895325,152.073013 229.206512,153.474167 
	C226.486404,150.302917 226.486404,150.302917 228.284851,149.951233 
z"/>
<path fill="#272727" opacity="1.000000" stroke="none" 
	d="
M229.983322,161.564270 
	C229.922882,162.432434 229.652390,163.049072 229.381882,163.665726 
	C228.944595,163.323303 228.507309,162.980896 228.070023,162.638458 
	C228.637756,162.196564 229.205505,161.754669 229.983322,161.564270 
z"/>
<path fill="#090909" opacity="1.000000" stroke="none" 
	d="
M237.713928,179.007629 
	C237.828781,178.229187 238.149231,177.674515 238.469696,177.119843 
	C238.876205,177.500671 239.282715,177.881500 239.689209,178.262329 
	C239.099319,178.585358 238.509430,178.908371 237.713928,179.007629 
z"/>
<path fill="#272727" opacity="1.000000" stroke="none" 
	d="
M294.382507,166.793915 
	C294.664642,167.627213 294.664642,168.567841 294.664642,169.508453 
	C294.271881,169.459915 293.879089,169.411377 293.486328,169.362839 
	C293.691010,168.542297 293.895660,167.721756 294.382507,166.793915 
z"/>
<path fill="#FDFDFD" opacity="1.000000" stroke="none" 
	d="
M293.669373,162.868591 
	C293.613220,161.857803 293.937195,160.969666 294.431152,159.615509 
	C295.367859,160.862915 295.985352,161.685257 296.858612,162.848175 
	C295.622467,162.911133 294.835999,162.951187 293.669373,162.868591 
z"/>
<path fill="#FDFDFD" opacity="1.000000" stroke="none" 
	d="
M313.628571,178.596008 
	C313.706207,177.290039 314.027924,176.242020 314.349640,175.193985 
	C314.568298,175.182846 314.786957,175.171707 315.005646,175.160568 
	C314.948883,176.427277 314.892151,177.693970 314.603821,179.159729 
	C314.205688,179.190506 314.039185,179.022232 313.628571,178.596008 
z"/>
<path fill="#1C1C1C" opacity="1.000000" stroke="none" 
	d="
M317.050049,165.944031 
	C316.801361,166.518158 316.552917,166.789154 316.304504,167.060150 
	C316.301697,166.319138 316.298920,165.578110 316.296143,164.837097 
	C316.547516,165.105026 316.798920,165.372971 317.050049,165.944031 
z"/>
<path fill="#090909" opacity="1.000000" stroke="none" 
	d="
M233.622040,179.044373 
	C233.218826,179.291000 232.817383,179.289536 232.418137,179.259094 
	C232.407013,179.258240 232.419540,178.947113 232.421036,178.780670 
	C232.822067,178.784515 233.223099,178.788376 233.622040,179.044373 
z"/>
<path fill="#090909" opacity="1.000000" stroke="none" 
	d="
M280.411255,172.094543 
	C280.993011,172.380096 281.325958,172.682098 281.658905,172.984100 
	C281.390778,173.095062 280.943481,173.359619 280.884674,173.291077 
	C280.588287,172.945450 280.393127,172.512985 280.411255,172.094543 
z"/>
<path fill="#272727" opacity="1.000000" stroke="none" 
	d="
M230.173737,165.024582 
	C230.591476,165.447906 230.698380,165.866119 230.805298,166.284332 
	C230.546997,166.347000 230.288696,166.409683 230.030396,166.472351 
	C229.974564,165.988068 229.918747,165.503769 230.173737,165.024582 
z"/>
<path fill="#090909" opacity="1.000000" stroke="none" 
	d="
M247.442688,176.739471 
	C247.859818,176.870865 248.126801,177.156097 248.393768,177.441345 
	C248.281738,177.530960 248.085434,177.710983 248.070190,177.696777 
	C247.797928,177.442963 247.547592,177.165619 247.442688,176.739471 
z"/>
<path fill="#272727" opacity="1.000000" stroke="none" 
	d="
M229.972931,158.816772 
	C229.621765,158.987503 229.320389,158.881622 229.019012,158.775757 
	C229.206818,158.426575 229.394623,158.077393 229.582428,157.728226 
	C229.729187,157.998886 229.875946,158.269531 229.972931,158.816772 
z"/>
<path fill="#1C1C1C" opacity="1.000000" stroke="none" 
	d="
M315.391113,173.650528 
	C315.304932,173.531403 315.608917,173.453812 315.608917,173.453812 
	C315.608917,173.453812 315.477325,173.769653 315.391113,173.650528 
z"/>
<path fill="#272727" opacity="1.000000" stroke="none" 
	d="
M227.563889,156.600006 
	C227.476120,156.664978 227.438690,156.421188 227.438690,156.421188 
	C227.438690,156.421188 227.651657,156.535034 227.563889,156.600006 
z"/>
<path fill="#0A0A0A" opacity="1.000000" stroke="none" 
	d="
M192.570923,253.276917 
	C191.013474,252.998367 189.737442,252.653244 188.461395,252.308121 
	C188.487259,252.042725 188.513123,251.777328 188.538986,251.511932 
	C190.852707,251.511932 193.166443,251.511932 195.480164,251.511932 
	C195.547623,251.891479 195.615082,252.271027 195.682541,252.650574 
	C194.739136,252.837158 193.795746,253.023743 192.570923,253.276917 
z"/>
<path fill="#222222" opacity="1.000000" stroke="none" 
	d="
M223.186691,280.153717 
	C222.695007,282.302917 222.203308,284.452148 221.711609,286.601349 
	C221.074463,286.424500 220.437302,286.247620 219.800156,286.070740 
	C220.591080,284.083221 221.382004,282.095703 222.595490,280.059692 
	C223.018066,280.011230 223.186691,280.153717 223.186691,280.153717 
z"/>
<path fill="#222222" opacity="1.000000" stroke="none" 
	d="
M227.023071,267.669678 
	C226.682434,269.089233 226.363907,270.177856 226.016785,271.626526 
	C223.275482,269.804535 223.496597,266.810455 226.456345,265.647644 
	C226.652618,266.211365 226.848892,266.775055 227.023071,267.669678 
z"/>
<path fill="#272727" opacity="1.000000" stroke="none" 
	d="
M207.961365,271.045044 
	C206.475571,271.169525 204.989761,271.294037 203.525116,271.416779 
	C204.243118,268.371216 204.366592,268.335449 207.929749,270.620514 
	C207.997299,271.004852 207.961365,271.045044 207.961365,271.045044 
z"/>
<path fill="#0A0A0A" opacity="1.000000" stroke="none" 
	d="
M180.968079,261.975677 
	C181.139954,261.124817 181.311829,260.273926 181.483704,259.423065 
	C181.847763,259.550659 182.211838,259.678253 182.575897,259.805847 
	C182.278091,260.507294 181.980286,261.208710 181.340149,261.954834 
	C180.997803,261.999542 180.968079,261.975677 180.968079,261.975677 
z"/>
<path fill="#0A0A0A" opacity="1.000000" stroke="none" 
	d="
M183.939636,253.955673 
	C184.124481,253.108841 184.309326,252.262009 184.494171,251.415192 
	C184.857376,251.543533 185.220581,251.671890 185.583801,251.800232 
	C185.287628,252.506500 184.991455,253.212769 184.344086,253.959549 
	C183.992920,254.000061 183.939651,253.955673 183.939636,253.955673 
z"/>
<path fill="#0A0A0A" opacity="1.000000" stroke="none" 
	d="
M178.240341,268.932739 
	C178.593033,268.117737 179.076996,267.532227 179.560974,266.946747 
	C179.775116,267.144958 179.989258,267.343201 180.203400,267.541443 
	C179.592804,268.081696 178.982224,268.621948 178.240341,268.932739 
z"/>
<path fill="#0A0A0A" opacity="1.000000" stroke="none" 
	d="
M179.393707,265.218262 
	C179.533936,264.791016 179.807098,264.530304 180.098373,264.291656 
	C180.110062,264.282074 180.293427,264.482056 180.396790,264.584381 
	C180.107803,264.852478 179.818817,265.120575 179.393707,265.218262 
z"/>
<path fill="#222222" opacity="1.000000" stroke="none" 
	d="
M222.849808,278.134064 
	C222.679733,277.600983 222.487656,277.072357 222.376221,276.527313 
	C222.365921,276.476959 222.868942,276.321655 223.133621,276.215088 
	C223.187576,276.605530 223.241516,276.995941 223.142426,277.699707 
	C222.989380,278.013000 222.849808,278.134064 222.849808,278.134064 
z"/>
<path fill="#222222" opacity="1.000000" stroke="none" 
	d="
M228.237793,264.473633 
	C227.806686,263.716095 227.400833,262.893860 226.994980,262.071625 
	C227.243469,261.977081 227.491974,261.882538 227.740463,261.787994 
	C227.887817,262.417542 228.035172,263.047119 228.290314,264.026611 
	C228.398132,264.376526 228.263046,264.408936 228.237793,264.473633 
z"/>
<path fill="#0A0A0A" opacity="1.000000" stroke="none" 
	d="
M182.919693,256.308472 
	C183.468430,256.276306 183.857773,256.404022 184.247101,256.531738 
	C184.140930,256.638550 184.010971,256.851746 183.932587,256.834229 
	C183.534454,256.745178 183.149719,256.596313 182.919693,256.308472 
z"/>
<path fill="#222222" opacity="1.000000" stroke="none" 
	d="
M222.934814,279.938782 
	C222.865402,279.480591 222.879272,279.094910 222.871475,278.421631 
	C222.849808,278.134064 222.989380,278.013000 223.061584,277.952667 
	C223.301132,278.528137 223.468491,279.163940 223.411270,279.976746 
	C223.186691,280.153717 223.018066,280.011230 222.934814,279.938782 
z"/>
<path fill="#222222" opacity="1.000000" stroke="none" 
	d="
M218.539032,288.605042 
	C218.417862,288.684204 218.354645,288.381012 218.354645,288.381012 
	C218.354645,288.381012 218.660217,288.525848 218.539032,288.605042 
z"/>
<path fill="#272727" opacity="1.000000" stroke="none" 
	d="
M208.017258,270.986755 
	C208.174545,271.161804 208.311874,271.354980 208.449203,271.548126 
	C208.322876,271.499939 208.196548,271.451721 208.015793,271.224274 
	C207.961365,271.045044 207.997299,271.004852 208.017258,270.986755 
z"/>
<path fill="#0A0A0A" opacity="1.000000" stroke="none" 
	d="
M184.015839,254.026093 
	C183.919846,254.068008 183.800919,254.083923 183.810822,254.027756 
	C183.939651,253.955673 183.992920,254.000061 184.015839,254.026093 
z"/>
<path fill="#0A0A0A" opacity="1.000000" stroke="none" 
	d="
M181.009979,262.014130 
	C180.915848,262.053680 180.809509,262.078644 180.835632,262.039612 
	C180.968079,261.975677 180.997803,261.999542 181.009979,262.014130 
z"/>
<path fill="#1C1C1C" opacity="1.000000" stroke="none" 
	d="
M302.794098,281.899414 
	C301.528870,279.501801 300.449799,276.817688 299.370728,274.133545 
	C300.085663,273.915833 300.800568,273.698090 301.515472,273.480347 
	C302.003723,276.191193 302.492004,278.902039 302.794098,281.899414 
z"/>
<path fill="#FDFDFD" opacity="1.000000" stroke="none" 
	d="
M300.902954,290.864746 
	C301.096985,290.751953 301.556641,290.871155 301.885162,291.240082 
	C301.558899,291.358795 301.363708,291.227753 300.902954,290.864746 
z"/>
<path fill="#F3F3F3" opacity="1.000000" stroke="none" 
	d="
M318.775421,268.970490 
	C318.936249,267.747406 319.097076,266.524323 319.544861,264.692749 
	C321.871002,262.427094 323.910217,260.769897 325.800537,259.233673 
	C325.420135,258.957336 324.687653,258.425201 323.955170,257.893097 
	C325.260223,257.983887 326.683014,257.772064 327.847168,258.225037 
	C330.769196,259.361969 333.574280,260.799500 337.014313,262.388062 
	C334.448547,263.000244 331.951324,263.698242 329.412537,264.175049 
	C326.463226,264.729004 324.055298,265.162811 324.904816,269.393402 
	C325.755676,273.630646 328.113525,272.671906 330.763885,271.990814 
	C331.358765,271.837952 332.026428,271.968384 333.123505,271.968384 
	C332.704742,275.946533 329.890411,277.010895 327.114349,277.663727 
	C323.029663,278.624359 319.573944,277.436951 318.008179,273.176025 
	C318.703491,271.487061 318.739471,270.228790 318.775421,268.970490 
z"/>
<path fill="#222222" opacity="1.000000" stroke="none" 
	d="
M323.801147,257.629517 
	C324.687653,258.425201 325.420135,258.957336 325.800537,259.233673 
	C323.910217,260.769897 321.871002,262.427094 319.577942,264.323669 
	C318.070953,265.197174 316.817810,265.831268 315.117126,266.691833 
	C315.596252,261.048309 318.640228,258.331512 323.801147,257.629517 
z"/>
<path fill="#222222" opacity="1.000000" stroke="none" 
	d="
M318.457825,268.932983 
	C318.739471,270.228790 318.703491,271.487061 318.297913,272.871887 
	C317.928314,272.998444 318.020355,272.994965 318.018890,272.701233 
	C317.652710,272.178223 317.287994,271.948944 316.923279,271.719696 
	C316.404449,270.778870 315.885620,269.838074 315.004791,268.240814 
	C316.357880,268.523315 317.249054,268.709381 318.457825,268.932983 
z"/>
<path fill="#F3F3F3" opacity="1.000000" stroke="none" 
	d="
M316.901642,272.132751 
	C317.287994,271.948944 317.652710,272.178223 318.023529,272.747009 
	C317.646423,272.906311 317.263214,272.726044 316.901642,272.132751 
z"/>
<path fill="#F3F3F3" opacity="1.000000" stroke="none" 
	d="
M338.362427,160.203278 
	C339.325897,160.096863 340.289337,159.990448 341.969421,159.919617 
	C343.445343,159.616333 344.204651,159.277451 344.963959,158.938568 
	C345.603729,159.113144 346.405334,159.101700 346.855865,159.493729 
	C349.067688,161.418365 351.186188,163.450256 353.921326,165.985245 
	C352.864136,166.252289 351.461578,166.892944 350.064911,166.880341 
	C348.614868,166.867264 347.118622,166.357193 345.734528,165.825195 
	C342.854370,164.718140 340.487000,163.948425 339.335449,168.189301 
	C338.265381,172.130096 340.285004,172.833847 343.308899,173.191147 
	C343.896210,173.260529 344.429718,173.785202 345.659821,174.478485 
	C342.631775,177.856659 339.453125,177.464172 336.193573,176.134781 
	C331.402039,174.180588 330.144257,171.316116 331.600555,165.505554 
	C332.001465,166.734299 332.001465,167.705414 332.001465,168.513000 
	C334.135101,165.725723 336.248779,162.964508 338.362427,160.203278 
z"/>
<path fill="#222222" opacity="1.000000" stroke="none" 
	d="
M338.062439,160.014099 
	C336.248779,162.964508 334.135101,165.725723 332.001465,168.513000 
	C332.001465,167.705414 332.001465,166.734299 332.001465,165.378693 
	C331.524567,161.602448 332.369781,158.859497 336.064209,157.187592 
	C336.620148,158.050888 337.191315,158.937881 338.062439,160.014099 
z"/>
<path fill="#D3D3D3" opacity="1.000000" stroke="none" 
	d="
M350.736206,182.598694 
	C349.073090,184.044785 347.115051,185.161148 344.893372,186.517487 
	C343.213287,186.757462 341.796875,186.757462 338.983643,186.757462 
	C343.634888,184.935349 347.038116,183.602158 350.736206,182.598694 
z"/>
<path fill="#222222" opacity="1.000000" stroke="none" 
	d="
M341.999268,158.000732 
	C340.758514,158.105179 339.517731,158.209625 338.276978,158.314087 
	C338.239319,157.762955 338.201691,157.211838 338.164032,156.660721 
	C339.414185,156.865311 340.664368,157.069901 341.957275,157.637238 
	C342.000000,158.000000 341.999268,158.000732 341.999268,158.000732 
z"/>
<path fill="#D3D3D3" opacity="1.000000" stroke="none" 
	d="
M352.031647,180.634232 
	C352.813538,179.480438 353.595428,178.326645 354.377319,177.172852 
	C354.612488,177.285004 354.847687,177.397171 355.082886,177.509323 
	C354.641266,178.607529 354.199646,179.705750 353.192078,180.822540 
	C352.427979,180.772171 352.229797,180.703201 352.031647,180.634232 
z"/>
<path fill="#222222" opacity="1.000000" stroke="none" 
	d="
M344.973816,158.986374 
	C344.204651,159.277451 343.445343,159.616333 342.326172,159.848419 
	C341.976105,159.354828 341.985870,158.968002 341.997437,158.290955 
	C341.999268,158.000732 342.000000,158.000000 342.000366,157.999634 
	C342.420380,157.981003 342.839996,157.962738 343.579712,158.277374 
	C344.293304,158.755966 344.686859,158.901672 345.080383,159.047379 
	C345.080383,159.047379 344.983643,159.034180 344.973816,158.986374 
z"/>
<path fill="#FDFDFD" opacity="1.000000" stroke="none" 
	d="
M356.707336,172.786255 
	C357.052155,173.098724 357.073059,173.284088 357.135010,173.746216 
	C356.692108,174.309006 356.208069,174.595032 355.724060,174.881042 
	C355.943848,174.140411 356.163666,173.399780 356.707336,172.786255 
z"/>
<path fill="#F3F3F3" opacity="1.000000" stroke="none" 
	d="
M345.215210,158.677155 
	C344.686859,158.901672 344.293304,158.755966 343.894745,158.285446 
	C344.376495,158.076065 344.863281,158.191498 345.215210,158.677155 
z"/>
<path fill="#D3D3D3" opacity="1.000000" stroke="none" 
	d="
M353.054932,181.792770 
	C352.818176,182.036957 352.638062,182.074310 352.191315,182.040405 
	C351.813507,181.644485 351.702332,181.319809 351.811401,180.814682 
	C352.229797,180.703201 352.427979,180.772171 352.897247,181.000961 
	C353.168365,181.160782 353.111542,181.585922 353.054932,181.792770 
z"/>
<path fill="#D3D3D3" opacity="1.000000" stroke="none" 
	d="
M351.577637,181.759430 
	C351.831573,182.266739 351.682098,182.608658 351.227783,182.984390 
	C351.006744,182.543488 351.090485,182.068756 351.577637,181.759430 
z"/>
<path fill="#1F1F1F" opacity="1.000000" stroke="none" 
	d="
M206.667358,184.660889 
	C206.702881,185.037979 206.582809,185.267212 206.462738,185.496460 
	C206.357758,185.399414 206.147629,185.268661 206.166046,185.211166 
	C206.244400,184.966629 206.390442,184.743790 206.667358,184.660889 
z"/>
<path fill="#1F1F1F" opacity="1.000000" stroke="none" 
	d="
M202.372620,185.683701 
	C202.555145,185.825562 202.584015,186.078583 202.612885,186.331589 
	C202.481583,186.152679 202.350281,185.973755 202.372620,185.683701 
z"/>
<path fill="#222222" opacity="1.000000" stroke="none" 
	d="
M263.795776,289.180969 
	C263.417175,288.699768 262.933014,288.260376 262.717010,287.714813 
	C262.641113,287.523071 263.222931,287.070953 263.504425,286.737732 
	C263.709015,287.251068 263.913574,287.764404 264.052246,288.647217 
	C263.986328,289.016724 263.795776,289.180969 263.795776,289.180969 
z"/>
<path fill="#222222" opacity="1.000000" stroke="none" 
	d="
M264.082336,288.935455 
	C264.353577,289.336029 264.528839,289.817902 264.704102,290.299744 
	C264.442200,290.095123 264.180328,289.890533 263.857117,289.433441 
	C263.795776,289.180969 263.986328,289.016724 264.082336,288.935455 
z"/>
<path fill="#3A3A3A" opacity="1.000000" stroke="none" 
	d="
M241.653503,208.672729 
	C241.083328,208.712021 240.735107,208.535049 240.386902,208.358093 
	C240.708878,208.040787 241.030853,207.723465 241.352814,207.406128 
	C241.527023,207.756241 241.701248,208.106369 241.653503,208.672729 
z"/>
<path fill="#1C1C1C" opacity="1.000000" stroke="none" 
	d="
M357.163666,258.800354 
	C357.759460,260.206848 358.355286,261.613373 358.951111,263.019867 
	C358.581787,263.169006 358.212433,263.318176 357.843109,263.467316 
	C357.515289,262.293518 357.187469,261.119690 356.918121,259.484009 
	C356.976593,259.022095 357.163666,258.800354 357.163666,258.800354 
z"/>
<path fill="#1C1C1C" opacity="1.000000" stroke="none" 
	d="
M356.883453,259.133301 
	C356.413391,258.946777 356.036438,258.649078 355.659515,258.351349 
	C356.047028,258.366669 356.434570,258.381989 356.992859,258.598816 
	C357.163666,258.800354 356.976593,259.022095 356.883453,259.133301 
z"/>
</svg>