<?xml version="1.0" standalone="no"?>
<!DOCTYPE svg PUBLIC "-//W3C//DTD SVG 20010904//EN"
 "http://www.w3.org/TR/2001/REC-SVG-20010904/DTD/svg10.dtd">
<svg version="1.0" xmlns="http://www.w3.org/2000/svg"
 width="1200.000000pt" height="1920.000000pt" viewBox="0 0 1200.000000 1920.000000"
 preserveAspectRatio="xMidYMid meet">

<g transform="translate(0.000000,1920.000000) scale(0.100000,-0.100000)"
fill="#000000" stroke="none">
<path d="M4215 16285 c-32 -31 -34 -86 -4 -114 12 -11 44 -25 73 -31 92 -22
123 -60 74 -94 -47 -33 -138 -10 -138 35 0 12 -7 19 -20 19 -28 0 -26 -44 3
-74 29 -29 85 -40 137 -26 52 14 80 42 80 79 0 49 -36 80 -115 99 -60 15 -70
20 -73 40 -5 34 25 62 65 62 32 0 73 -28 73 -50 0 -5 9 -10 20 -10 27 0 25 22
-6 59 -23 28 -31 31 -85 31 -50 0 -64 -4 -84 -25z"/>
<path d="M4470 16155 c0 -131 2 -155 15 -155 13 0 15 24 15 155 0 131 -2 155
-15 155 -13 0 -15 -24 -15 -155z"/>
<path d="M1951 16233 c10 -38 28 -105 39 -150 19 -71 25 -83 44 -83 19 0 25
15 57 127 l35 127 35 -125 c29 -106 37 -124 56 -127 23 -3 28 9 72 185 12 45
24 89 27 97 5 12 0 16 -18 16 -23 0 -26 -7 -47 -102 -13 -57 -26 -109 -30
-116 -5 -8 -17 21 -30 70 -38 144 -40 148 -66 148 -20 0 -26 -11 -54 -112 -17
-61 -33 -113 -35 -115 -5 -6 -9 9 -37 130 -19 87 -24 97 -44 97 l-22 0 18 -67z"/>
<path d="M2360 16150 c0 -127 2 -150 15 -150 12 0 15 15 15 73 0 89 16 117 64
117 42 0 46 -10 46 -111 0 -74 1 -79 21 -79 21 0 21 4 17 96 -4 86 -7 99 -27
115 -28 23 -53 24 -91 4 l-30 -16 0 51 c0 38 -4 50 -15 50 -13 0 -15 -23 -15
-150z"/>
<path d="M2592 16283 c5 -26 38 -29 38 -4 0 15 -6 21 -21 21 -14 0 -19 -5 -17
-17z"/>
<path d="M3380 16280 c0 -11 7 -20 15 -20 8 0 15 9 15 20 0 11 -7 20 -15 20
-8 0 -15 -9 -15 -20z"/>
<path d="M3620 16250 c0 -51 -8 -61 -30 -35 -14 17 -53 20 -81 5 -32 -18 -52
-68 -47 -122 8 -81 68 -124 129 -94 16 8 29 10 29 5 0 -5 9 -9 20 -9 19 0 20
7 20 150 0 143 -1 150 -20 150 -17 0 -20 -7 -20 -50z m-19 -77 c8 -9 14 -37
14 -63 0 -26 -6 -54 -14 -63 -20 -25 -67 -21 -85 5 -18 26 -21 90 -6 119 13
24 72 26 91 2z"/>
<path d="M6230 16250 c0 -53 -4 -58 -34 -35 -30 23 -65 18 -97 -14 -24 -25
-29 -37 -29 -81 0 -67 21 -105 64 -120 28 -9 40 -8 65 5 18 9 31 11 31 5 0 -5
7 -10 15 -10 13 0 15 23 15 150 0 127 -2 150 -15 150 -11 0 -15 -12 -15 -50z
m-20 -79 c16 -30 12 -107 -6 -125 -17 -17 -51 -21 -72 -8 -30 19 -36 106 -9
140 16 20 75 15 87 -7z"/>
<path d="M2700 16255 c0 -14 -7 -28 -15 -31 -19 -8 -20 -34 0 -34 11 0 15 -19
17 -92 l3 -93 33 -3 c36 -4 47 22 12 31 -18 5 -20 14 -20 81 0 69 2 76 20 76
11 0 20 6 20 14 0 7 -9 16 -20 19 -14 3 -20 14 -20 31 0 16 -6 26 -15 26 -9 0
-15 -9 -15 -25z"/>
<path d="M2849 16215 c-46 -25 -67 -122 -39 -175 16 -29 71 -51 110 -44 42 9
93 74 57 74 -7 0 -20 -9 -30 -20 -23 -27 -82 -27 -97 -1 -24 45 -15 51 70 51
44 0 80 3 80 8 0 4 -5 24 -10 44 -19 67 -82 95 -141 63z m95 -47 c9 -12 16
-26 16 -30 0 -5 -27 -8 -60 -8 -62 0 -68 5 -50 41 15 28 74 26 94 -3z"/>
<path d="M3186 16209 c-29 -23 -35 -69 -12 -88 8 -7 36 -18 63 -24 41 -10 48
-15 48 -37 0 -19 -6 -26 -24 -28 -35 -5 -71 7 -71 23 0 8 -9 15 -20 15 -48 0
-2 -64 54 -74 64 -12 115 32 104 91 -2 12 -23 25 -68 40 -69 23 -83 38 -54 60
25 19 51 16 74 -7 23 -23 40 -26 40 -7 0 18 -12 32 -37 46 -33 17 -67 13 -97
-10z"/>
<path d="M3734 16196 c-29 -29 -34 -41 -34 -80 0 -63 21 -102 65 -116 47 -16
95 1 118 40 18 29 18 30 -2 30 -11 0 -25 -9 -31 -20 -22 -42 -110 -17 -110 31
0 17 8 19 80 19 87 0 93 5 71 63 -28 73 -101 89 -157 33z m108 -23 c34 -31 23
-43 -42 -43 -45 0 -60 3 -60 14 0 41 67 61 102 29z"/>
<path d="M4585 16205 c-14 -13 -25 -29 -25 -35 0 -17 29 -11 50 10 24 24 53
26 74 4 30 -30 13 -48 -52 -57 -52 -6 -82 -31 -82 -67 0 -56 84 -86 128 -47
17 16 20 16 25 2 4 -8 18 -15 32 -15 27 0 34 17 10 26 -12 5 -15 25 -15 90 0
82 0 84 -30 99 -43 22 -87 19 -115 -10z m115 -113 c0 -35 -29 -62 -66 -62 -60
0 -58 58 2 71 51 12 64 10 64 -9z"/>
<path d="M4860 16213 c-17 -12 -25 -13 -28 -5 -2 7 -10 12 -18 12 -11 0 -14
-22 -14 -110 0 -103 1 -110 20 -110 18 0 20 7 20 76 0 94 10 114 54 114 42 0
46 -10 46 -111 0 -74 1 -79 21 -79 20 0 21 4 17 96 -3 86 -5 98 -27 115 -29
23 -59 24 -91 2z"/>
<path d="M5059 16201 c-37 -37 -42 -106 -13 -163 17 -33 74 -54 103 -39 27 15
31 14 31 -8 0 -45 -65 -68 -101 -35 -10 9 -26 14 -36 12 -16 -3 -15 -7 9 -31
20 -20 37 -27 67 -27 87 0 101 25 101 190 0 97 -3 120 -14 120 -8 0 -16 -5
-18 -12 -3 -8 -11 -7 -28 5 -36 25 -68 21 -101 -12z m111 -30 c16 -30 12 -107
-6 -125 -17 -17 -51 -21 -72 -8 -30 19 -36 106 -9 140 16 20 75 15 87 -7z"/>
<path d="M5743 16220 c-55 -22 -72 -136 -27 -189 22 -26 33 -31 69 -31 32 0
52 7 72 24 25 22 28 31 28 86 0 57 -2 64 -33 91 -33 30 -67 36 -109 19z m82
-45 c48 -47 25 -145 -34 -145 -46 0 -67 37 -63 108 2 26 35 62 57 62 9 0 27
-11 40 -25z"/>
<path d="M6002 16214 c-12 -8 -22 -10 -22 -5 0 6 -9 11 -20 11 -19 0 -20 -7
-20 -110 0 -103 1 -110 20 -110 18 0 20 7 20 78 0 83 14 112 53 112 10 0 17 8
17 20 0 24 -18 26 -48 4z"/>
<path d="M2590 16110 c0 -103 1 -110 20 -110 19 0 20 7 20 110 0 103 -1 110
-20 110 -19 0 -20 -7 -20 -110z"/>
<path d="M3380 16110 c0 -91 3 -110 15 -110 12 0 15 19 15 110 0 91 -3 110
-15 110 -12 0 -15 -19 -15 -110z"/>
<path d="M3950 16200 c0 -15 7 -20 25 -20 18 0 25 5 25 20 0 15 -7 20 -25 20
-18 0 -25 -5 -25 -20z"/>
<path d="M5373 16208 c2 -7 17 -57 32 -111 25 -86 31 -98 49 -95 16 2 24 18
41 88 l21 85 13 -50 c30 -121 31 -125 51 -125 15 0 24 17 44 83 41 135 41 140
20 135 -13 -2 -23 -24 -39 -82 -12 -44 -24 -76 -27 -70 -3 5 -13 42 -23 82
-15 62 -20 72 -39 72 -19 0 -25 -10 -42 -82 l-21 -83 -11 40 c-6 22 -16 59
-22 83 -8 32 -16 42 -31 42 -13 0 -19 -5 -16 -12z"/>
<path d="M1675 16130 c-35 -39 3 -91 55 -75 28 9 37 51 15 75 -10 11 -26 20
-35 20 -9 0 -25 -9 -35 -20z"/>
<path d="M3950 16020 c0 -15 7 -20 25 -20 18 0 25 5 25 20 0 15 -7 20 -25 20
-18 0 -25 -5 -25 -20z"/>
<path d="M2240 15566 c0 -150 1 -156 20 -156 20 0 20 5 18 152 -3 136 -5 153
-20 156 -17 3 -18 -9 -18 -152z"/>
<path d="M4708 15709 c-12 -6 -18 -22 -18 -44 0 -24 -5 -35 -15 -35 -8 0 -15
-7 -15 -15 0 -8 7 -15 15 -15 12 0 15 -17 15 -95 0 -88 1 -95 20 -95 19 0 20
7 20 95 0 78 3 95 15 95 8 0 15 7 15 15 0 8 -7 15 -15 15 -9 0 -15 9 -15 25 0
14 7 28 15 31 8 4 15 12 15 20 0 16 -27 18 -52 3z"/>
<path d="M6495 15700 c-88 -58 -88 -218 0 -276 39 -25 107 -24 143 3 29 21 30
22 35 3 3 -11 12 -20 21 -20 13 0 16 13 16 80 l0 80 -70 0 c-54 0 -70 -3 -70
-14 0 -11 14 -16 48 -18 44 -3 47 -5 44 -28 -8 -66 -104 -93 -159 -46 -26 22
-28 30 -28 95 0 64 3 73 28 98 41 41 100 39 137 -5 14 -17 34 -32 43 -32 21 0
21 3 2 40 -30 59 -130 80 -190 40z"/>
<path d="M1960 15559 l0 -151 91 4 c85 3 92 5 115 31 31 36 31 81 1 111 -23
23 -23 24 -5 47 21 25 17 62 -9 92 -13 14 -33 17 -105 17 l-88 0 0 -151z m159
112 c7 -5 14 -21 14 -36 0 -36 -17 -45 -80 -45 l-53 0 0 45 0 45 53 0 c28 0
58 -4 66 -9z m15 -137 c45 -45 -5 -94 -95 -94 l-39 0 0 55 0 55 59 0 c41 0 65
-5 75 -16z"/>
<path d="M2780 15560 c0 -143 1 -150 20 -150 17 0 20 7 20 44 0 27 6 48 15 56
9 7 17 11 18 9 2 -2 18 -28 36 -56 25 -40 39 -53 57 -53 23 0 23 2 -23 71
l-48 72 45 38 c42 36 43 39 20 39 -16 0 -41 -17 -72 -47 l-48 -47 0 87 c0 80
-2 87 -20 87 -19 0 -20 -7 -20 -150z"/>
<path d="M3330 15689 c0 -14 5 -19 17 -17 26 5 29 38 4 38 -15 0 -21 -6 -21
-21z"/>
<path d="M3570 15659 c0 -50 0 -50 -22 -35 -65 46 -138 -11 -138 -107 0 -77
81 -138 135 -103 14 9 25 12 25 6 0 -5 9 -10 20 -10 19 0 20 7 20 150 0 143
-1 150 -20 150 -17 0 -20 -7 -20 -51z m-16 -81 c9 -12 16 -38 16 -58 0 -48
-24 -80 -60 -80 -18 0 -34 8 -44 22 -21 29 -21 102 0 122 23 24 70 20 88 -6z"/>
<path d="M4140 15560 l0 -150 78 0 c88 0 117 12 149 59 28 41 32 135 8 181
-26 50 -51 60 -147 60 l-88 0 0 -150z m181 91 c24 -25 29 -37 29 -81 0 -72
-21 -107 -71 -120 -22 -6 -53 -10 -67 -8 l-27 3 -3 118 -3 117 56 0 c49 0 60
-4 86 -29z"/>
<path d="M4800 15689 c0 -14 5 -19 17 -17 26 5 29 38 4 38 -15 0 -21 -6 -21
-21z"/>
<path d="M5130 15690 c0 -13 7 -20 20 -20 13 0 20 7 20 20 0 13 -7 20 -20 20
-13 0 -20 -7 -20 -20z"/>
<path d="M5342 15693 c5 -26 38 -29 38 -4 0 15 -6 21 -21 21 -14 0 -19 -5 -17
-17z"/>
<path d="M6077 15692 c-21 -23 -22 -61 -2 -89 14 -21 14 -23 -9 -38 -47 -31
-57 -104 -18 -138 30 -26 74 -29 116 -7 36 18 41 18 57 4 10 -9 25 -14 35 -12
15 3 14 7 -8 33 -24 28 -25 31 -12 67 12 36 12 38 -6 38 -11 0 -20 -6 -20 -14
0 -27 -17 -25 -39 5 l-22 30 25 30 c30 35 32 56 10 87 -20 28 -83 31 -107 4z
m78 -23 c10 -16 -3 -56 -20 -63 -19 -7 -48 35 -39 58 7 18 49 22 59 5z m-5
-160 c32 -40 32 -43 15 -55 -23 -17 -77 -18 -93 -2 -18 18 -14 56 8 78 11 11
24 20 28 20 5 0 24 -19 42 -41z"/>
<path d="M7980 15690 c0 -11 7 -20 15 -20 8 0 15 9 15 20 0 11 -7 20 -15 20
-8 0 -15 -9 -15 -20z"/>
<path d="M5230 15660 c0 -20 -5 -30 -15 -30 -8 0 -15 -5 -15 -10 0 -6 7 -13
15 -16 11 -5 15 -24 15 -81 0 -90 10 -113 50 -113 34 0 42 25 10 33 -18 5 -20
14 -20 81 0 69 2 76 20 76 11 0 20 7 20 15 0 8 -9 15 -20 15 -16 0 -20 7 -20
30 0 23 -4 30 -20 30 -16 0 -20 -7 -20 -30z"/>
<path d="M7860 15660 c0 -20 -5 -30 -15 -30 -8 0 -15 -5 -15 -10 0 -6 7 -13
15 -16 11 -5 15 -24 15 -81 0 -90 10 -113 50 -113 34 0 42 25 10 33 -18 5 -20
14 -20 81 0 69 2 76 20 76 11 0 20 7 20 15 0 8 -9 15 -20 15 -16 0 -20 7 -20
30 0 23 -4 30 -20 30 -16 0 -20 -7 -20 -30z"/>
<path d="M2364 15626 c-26 -19 -38 -56 -18 -56 8 0 23 9 34 20 11 11 27 20 36
20 27 0 54 -20 54 -40 0 -20 -7 -23 -82 -35 -60 -9 -90 -73 -50 -107 29 -26
60 -31 94 -14 21 11 35 13 42 6 16 -16 56 -12 56 5 0 8 -4 15 -9 15 -5 0 -11
36 -13 80 -2 57 -8 84 -20 96 -23 23 -98 29 -124 10z m106 -128 c0 -33 -29
-58 -67 -58 -59 0 -57 58 3 71 54 12 64 10 64 -13z"/>
<path d="M2611 15626 c-13 -7 -30 -24 -37 -37 -18 -33 -17 -115 2 -144 18 -28
72 -49 100 -39 30 11 64 46 64 66 0 25 -19 22 -42 -7 -24 -31 -72 -34 -88 -6
-16 30 -12 107 6 125 22 23 71 20 84 -4 6 -11 17 -20 25 -20 24 0 17 37 -11
59 -30 24 -68 26 -103 7z"/>
<path d="M3135 15615 c-49 -48 -25 -91 62 -109 42 -9 60 -31 43 -51 -19 -22
-77 -19 -92 5 -13 20 -48 28 -48 11 0 -6 10 -22 23 -37 19 -22 33 -27 69 -28
61 -1 90 24 86 73 -3 34 -6 37 -63 57 -45 16 -61 27 -63 42 -2 16 3 23 21 27
26 7 67 -9 67 -25 0 -6 9 -10 19 -10 14 0 18 5 14 20 -14 52 -97 67 -138 25z"/>
<path d="M3689 15612 c-27 -24 -33 -38 -37 -83 -4 -48 -1 -59 22 -86 45 -54
132 -50 162 8 13 27 13 29 -3 29 -10 0 -24 -9 -31 -20 -18 -29 -76 -27 -96 2
-30 42 -22 48 64 48 79 0 80 0 80 25 0 92 -94 137 -161 77z m105 -28 c32 -32
20 -44 -44 -44 -33 0 -60 3 -60 8 0 4 7 18 16 30 18 26 65 30 88 6z"/>
<path d="M4481 15624 c-26 -19 -51 -71 -51 -109 0 -72 70 -126 136 -105 31 10
64 43 64 62 0 16 -36 7 -48 -12 -8 -14 -23 -20 -46 -20 -35 0 -49 11 -60 48
-7 22 -6 22 75 22 l82 0 -6 42 c-10 75 -87 113 -146 72z m106 -54 l12 -25 -60
-3 c-34 -2 -64 -1 -67 2 -2 3 3 17 12 31 23 36 84 33 103 -5z"/>
<path d="M4952 15624 c-12 -8 -22 -10 -22 -5 0 6 -9 11 -20 11 -19 0 -20 -7
-20 -110 0 -103 1 -110 20 -110 18 0 20 7 20 73 0 86 16 117 60 117 40 0 50
-23 50 -114 0 -61 3 -76 15 -76 12 0 15 17 15 95 0 82 -3 98 -20 115 -24 24
-67 26 -98 4z"/>
<path d="M5483 15630 c-55 -22 -72 -136 -27 -189 22 -26 33 -31 69 -31 32 0
52 7 72 24 25 22 28 31 28 86 0 57 -2 64 -33 91 -33 30 -67 36 -109 19z m82
-45 c48 -47 25 -145 -34 -145 -46 0 -67 37 -63 108 2 26 35 62 57 62 9 0 27
-11 40 -25z"/>
<path d="M5733 15623 c-14 -9 -23 -11 -23 -4 0 6 -7 11 -15 11 -12 0 -15 -19
-15 -110 0 -91 3 -110 15 -110 12 0 15 14 15 68 0 82 15 116 53 120 48 6 57
-11 57 -104 0 -79 1 -84 21 -84 21 0 21 4 17 96 -4 86 -7 99 -27 115 -28 23
-68 24 -98 2z"/>
<path d="M6809 15625 c-46 -25 -67 -122 -39 -175 16 -29 71 -51 110 -44 42 9
93 74 57 74 -7 0 -20 -9 -30 -20 -23 -27 -82 -27 -97 -1 -24 45 -15 51 70 51
44 0 80 3 80 8 0 4 -5 24 -10 44 -19 67 -82 95 -141 63z m95 -47 c9 -12 16
-26 16 -30 0 -5 -27 -8 -60 -8 -62 0 -68 5 -50 41 15 28 74 26 94 -3z"/>
<path d="M7062 15624 c-12 -8 -22 -10 -22 -5 0 6 -9 11 -20 11 -19 0 -20 -7
-20 -110 0 -103 1 -110 20 -110 18 0 20 7 20 73 0 86 16 117 60 117 40 0 50
-23 50 -114 0 -61 3 -76 15 -76 12 0 15 17 15 95 0 82 -3 98 -20 115 -24 24
-67 26 -98 4z"/>
<path d="M7269 15612 c-27 -24 -33 -38 -37 -83 -4 -48 -1 -59 22 -86 45 -54
132 -50 162 8 13 27 13 29 -3 29 -10 0 -24 -9 -31 -20 -18 -29 -76 -27 -96 2
-30 42 -22 48 64 48 79 0 80 0 80 25 0 92 -94 137 -161 77z m105 -28 c32 -32
20 -44 -44 -44 -33 0 -60 3 -60 8 0 4 7 18 16 30 18 26 65 30 88 6z"/>
<path d="M7540 15620 c-16 -16 -20 -17 -20 -5 0 8 -9 15 -20 15 -19 0 -20 -7
-20 -110 0 -103 1 -110 20 -110 18 0 20 7 20 75 0 62 4 79 20 95 11 11 27 20
35 20 8 0 15 9 15 20 0 11 -7 20 -15 20 -8 0 -24 -9 -35 -20z"/>
<path d="M7645 15615 c-14 -13 -25 -29 -25 -35 0 -17 29 -11 50 10 24 24 53
26 74 4 30 -30 13 -48 -52 -57 -52 -6 -82 -31 -82 -67 0 -56 84 -86 128 -47
17 16 20 16 25 2 4 -8 18 -15 32 -15 27 0 34 17 10 26 -12 5 -15 25 -15 90 0
82 0 84 -30 99 -43 22 -87 19 -115 -10z m115 -113 c0 -35 -29 -62 -66 -62 -60
0 -58 58 2 71 51 12 64 10 64 -9z"/>
<path d="M8109 15625 c-36 -19 -53 -65 -46 -122 7 -62 40 -93 102 -93 36 0 47
5 69 31 46 54 31 155 -25 185 -35 18 -66 17 -100 -1z m81 -25 c22 -12 41 -70
33 -102 -9 -36 -33 -58 -64 -58 -37 0 -59 33 -59 86 0 34 5 47 26 63 30 24 38
25 64 11z"/>
<path d="M8370 15623 c-17 -12 -25 -13 -28 -5 -2 7 -10 12 -18 12 -11 0 -14
-22 -14 -110 0 -103 1 -110 20 -110 18 0 20 7 20 76 0 94 10 114 54 114 42 0
46 -10 46 -111 0 -74 1 -79 21 -79 20 0 21 4 17 96 -3 86 -5 98 -27 115 -29
23 -59 24 -91 2z"/>
<path d="M3330 15520 c0 -103 1 -110 20 -110 19 0 20 7 20 110 0 103 -1 110
-20 110 -19 0 -20 -7 -20 -110z"/>
<path d="M3910 15610 c0 -13 7 -20 20 -20 13 0 20 7 20 20 0 13 -7 20 -20 20
-13 0 -20 -7 -20 -20z"/>
<path d="M4800 15520 c0 -103 1 -110 20 -110 19 0 20 7 20 110 0 103 -1 110
-20 110 -19 0 -20 -7 -20 -110z"/>
<path d="M5130 15520 c0 -103 1 -110 20 -110 19 0 20 7 20 110 0 103 -1 110
-20 110 -19 0 -20 -7 -20 -110z"/>
<path d="M5340 15520 c0 -103 1 -110 20 -110 19 0 20 7 20 110 0 103 -1 110
-20 110 -19 0 -20 -7 -20 -110z"/>
<path d="M7980 15520 c0 -91 3 -110 15 -110 12 0 15 19 15 110 0 91 -3 110
-15 110 -12 0 -15 -19 -15 -110z"/>
<path d="M1675 15540 c-35 -39 3 -91 55 -75 28 9 37 51 15 75 -10 11 -26 20
-35 20 -9 0 -25 -9 -35 -20z"/>
<path d="M3910 15430 c0 -13 7 -20 20 -20 13 0 20 7 20 20 0 13 -7 20 -20 20
-13 0 -20 -7 -20 -20z"/>
<path d="M2760 14975 c0 -148 1 -155 20 -155 19 0 20 7 20 155 0 148 -1 155
-20 155 -19 0 -20 -7 -20 -155z"/>
<path d="M2007 15028 c-37 -51 -67 -102 -67 -115 0 -22 4 -23 65 -23 l65 0 0
-35 c0 -24 5 -35 15 -35 10 0 15 11 15 35 0 31 3 35 25 35 32 0 34 27 3 32
-22 3 -23 8 -26 101 -2 71 -6 97 -16 97 -7 0 -43 -41 -79 -92z m59 -94 c-6
-17 -86 -19 -86 -4 0 6 19 38 43 71 l42 61 3 -58 c2 -31 1 -63 -2 -70z"/>
<path d="M2227 15100 c-35 -28 -50 -80 -45 -156 5 -74 28 -114 77 -128 41 -12
75 4 101 46 26 42 28 151 4 202 -27 56 -90 73 -137 36z m97 -42 c20 -28 21
-142 3 -178 -9 -17 -22 -26 -44 -28 -27 -3 -34 2 -48 29 -20 38 -17 157 4 183
20 24 67 20 85 -6z"/>
<path d="M4520 15070 c0 -51 -8 -61 -30 -35 -14 17 -53 20 -81 5 -32 -18 -52
-68 -47 -122 8 -81 68 -124 129 -94 16 8 29 10 29 5 0 -5 9 -9 20 -9 19 0 20
7 20 150 0 143 -1 150 -20 150 -17 0 -20 -7 -20 -50z m-19 -77 c8 -9 14 -37
14 -63 0 -26 -6 -54 -14 -63 -20 -25 -67 -21 -85 5 -18 26 -21 90 -6 119 13
24 72 26 91 2z"/>
<path d="M7122 15103 c5 -26 38 -29 38 -4 0 15 -6 21 -21 21 -14 0 -19 -5 -17
-17z"/>
<path d="M7010 15070 c0 -20 -5 -30 -15 -30 -8 0 -15 -7 -15 -15 0 -8 7 -15
15 -15 12 0 15 -16 15 -83 0 -51 5 -88 12 -95 17 -17 58 -15 58 3 0 8 -7 15
-15 15 -12 0 -15 16 -15 80 0 64 3 80 15 80 8 0 15 7 15 15 0 8 -7 15 -15 15
-10 0 -15 10 -15 30 0 23 -4 30 -20 30 -16 0 -20 -7 -20 -30z"/>
<path d="M2565 15025 c-49 -48 -25 -91 62 -109 42 -9 60 -31 43 -51 -19 -22
-77 -19 -92 5 -13 20 -48 28 -48 11 0 -6 10 -22 23 -37 19 -22 33 -27 69 -28
61 -1 90 24 86 73 -3 34 -6 37 -63 57 -45 16 -61 27 -63 42 -2 16 3 23 21 27
26 7 67 -9 67 -25 0 -6 9 -10 19 -10 14 0 18 5 14 20 -14 52 -97 67 -138 25z"/>
<path d="M2884 15036 c-26 -19 -38 -56 -18 -56 8 0 23 9 34 20 11 11 27 20 36
20 27 0 54 -20 54 -40 0 -20 -7 -23 -82 -35 -60 -9 -90 -73 -50 -107 29 -26
60 -31 94 -14 21 11 35 13 42 6 16 -16 56 -12 56 5 0 8 -4 15 -9 15 -5 0 -11
36 -13 80 -2 57 -8 84 -20 96 -23 23 -98 29 -124 10z m106 -128 c0 -33 -29
-58 -67 -58 -59 0 -57 58 3 71 54 12 64 10 64 -13z"/>
<path d="M3152 15034 c-12 -8 -22 -10 -22 -5 0 6 -9 11 -20 11 -19 0 -20 -7
-20 -110 0 -103 1 -110 20 -110 18 0 20 7 20 78 0 90 16 116 67 110 l28 -3 3
-92 c2 -85 4 -93 22 -93 18 0 20 7 20 94 0 90 -1 96 -26 115 -32 25 -61 27
-92 5z"/>
<path d="M3354 15027 c-23 -20 -28 -34 -32 -83 -4 -53 -1 -63 22 -91 32 -38
68 -48 106 -30 l28 14 -9 -30 c-5 -17 -14 -34 -21 -39 -21 -13 -65 -9 -78 7
-16 19 -40 19 -40 1 0 -48 114 -63 155 -21 24 23 25 29 25 155 0 109 -2 130
-15 130 -8 0 -15 -5 -15 -11 0 -7 -10 -5 -25 5 -34 22 -69 20 -101 -7z m107
-33 c17 -21 18 -107 0 -127 -20 -25 -67 -21 -85 5 -18 26 -21 90 -6 119 13 24
72 26 91 3z"/>
<path d="M4045 15041 c-56 -23 -82 -109 -51 -169 20 -39 44 -52 94 -52 72 0
114 69 92 152 -17 60 -79 91 -135 69z m72 -36 c12 -9 25 -31 29 -49 11 -62
-16 -106 -66 -106 -60 0 -83 98 -35 145 28 29 42 31 72 10z"/>
<path d="M4292 15028 c-19 -19 -22 -20 -22 -5 0 9 -7 17 -15 17 -12 0 -15 -19
-15 -110 0 -91 3 -110 15 -110 12 0 15 15 15 75 0 62 4 79 20 95 11 11 27 20
35 20 8 0 15 9 15 20 0 26 -20 25 -48 -2z"/>
<path d="M4632 15033 c-29 -25 -37 -66 -17 -86 9 -9 35 -21 58 -27 66 -17 69
-19 65 -42 -2 -19 -10 -24 -45 -26 -34 -2 -45 1 -55 17 -16 26 -38 27 -38 3 0
-41 73 -70 128 -51 28 10 52 44 52 75 0 18 -52 50 -97 59 -41 7 -54 32 -28 51
26 19 42 17 65 -6 21 -21 50 -27 50 -10 0 6 -11 22 -25 35 -29 30 -83 33 -113
8z"/>
<path d="M5000 15033 c-17 -12 -25 -13 -28 -5 -2 7 -10 12 -18 12 -11 0 -14
-28 -14 -155 0 -131 2 -155 15 -155 12 0 15 13 15 56 0 49 2 55 15 44 27 -23
83 -16 113 13 24 24 27 35 27 93 0 60 -3 68 -28 90 -33 28 -63 30 -97 7z m80
-42 c15 -29 12 -93 -6 -119 -17 -24 -65 -30 -82 -9 -20 24 -23 74 -8 111 13
32 19 36 50 36 25 0 38 -6 46 -19z"/>
<path d="M5204 15016 c-29 -29 -34 -41 -34 -80 0 -63 21 -102 65 -116 47 -16
95 1 118 40 18 29 18 30 -2 30 -11 0 -25 -9 -31 -20 -22 -42 -110 -17 -110 31
0 17 8 19 80 19 87 0 93 5 71 63 -28 73 -101 89 -157 33z m108 -23 c34 -31 23
-43 -42 -43 -45 0 -60 3 -60 14 0 41 67 61 102 29z"/>
<path d="M5482 15034 c-12 -8 -22 -10 -22 -5 0 6 -9 11 -20 11 -19 0 -20 -7
-20 -110 0 -103 1 -110 20 -110 18 0 20 7 20 78 0 83 14 112 53 112 10 0 17 8
17 20 0 24 -18 26 -48 4z"/>
<path d="M5699 15021 c-37 -37 -42 -106 -13 -163 17 -33 74 -54 103 -39 27 15
31 14 31 -8 0 -45 -65 -68 -101 -35 -10 9 -26 14 -36 12 -16 -3 -15 -7 9 -31
20 -20 37 -27 67 -27 87 0 101 25 101 190 0 97 -3 120 -14 120 -8 0 -16 -5
-18 -12 -3 -8 -11 -7 -28 5 -36 25 -68 21 -101 -12z m111 -30 c16 -30 12 -107
-6 -125 -17 -17 -51 -21 -72 -8 -30 19 -36 106 -9 140 16 20 75 15 87 -7z"/>
<path d="M5951 15034 c-26 -19 -51 -71 -51 -109 0 -72 70 -126 136 -105 31 10
64 43 64 62 0 16 -36 7 -48 -12 -8 -14 -23 -20 -46 -20 -35 0 -49 11 -60 48
-7 22 -6 22 75 22 l82 0 -6 42 c-10 75 -87 113 -146 72z m106 -54 l12 -25 -60
-3 c-34 -2 -64 -1 -67 2 -2 3 3 17 12 31 23 36 84 33 103 -5z"/>
<path d="M6212 15034 c-12 -8 -22 -10 -22 -5 0 6 -9 11 -20 11 -19 0 -20 -7
-20 -110 0 -103 1 -110 20 -110 18 0 20 7 20 78 0 90 16 116 67 110 l28 -3 3
-92 c2 -85 4 -93 22 -93 18 0 20 7 20 94 0 90 -1 96 -26 115 -32 25 -61 27
-92 5z"/>
<path d="M6414 15016 c-29 -29 -34 -41 -34 -80 0 -63 21 -102 65 -116 47 -16
95 1 118 40 18 29 18 30 -2 30 -11 0 -25 -9 -31 -20 -22 -42 -110 -17 -110 31
0 17 8 19 80 19 87 0 93 5 71 63 -28 73 -101 89 -157 33z m108 -23 c34 -31 23
-43 -42 -43 -45 0 -60 3 -60 14 0 41 67 61 102 29z"/>
<path d="M6682 15028 c-19 -19 -22 -20 -22 -5 0 9 -7 17 -15 17 -12 0 -15 -19
-15 -110 0 -103 1 -110 20 -110 18 0 20 7 20 79 0 85 12 111 51 111 12 0 19 7
19 20 0 27 -30 26 -58 -2z"/>
<path d="M6805 15038 c-23 -13 -35 -28 -35 -45 0 -19 17 -16 40 7 11 11 27 20
36 20 27 0 54 -20 54 -40 0 -20 -7 -23 -83 -35 -72 -12 -87 -91 -23 -122 29
-13 36 -13 71 2 26 10 41 12 43 5 6 -16 52 -12 52 5 0 8 -4 15 -10 15 -6 0
-10 32 -10 75 0 67 -3 79 -25 100 -26 27 -75 33 -110 13z m95 -132 c0 -37 -26
-58 -69 -54 -26 2 -37 8 -39 22 -5 24 9 36 50 46 53 13 58 11 58 -14z"/>
<path d="M7260 15038 c-62 -32 -75 -140 -23 -192 35 -36 103 -36 138 -2 26 26
41 82 31 120 -16 64 -91 102 -146 74z m85 -43 c48 -47 25 -145 -35 -145 -50 0
-77 44 -66 106 7 33 37 64 64 64 7 0 24 -11 37 -25z"/>
<path d="M7512 15034 c-12 -8 -22 -10 -22 -5 0 6 -9 11 -20 11 -19 0 -20 -7
-20 -110 0 -103 1 -110 20 -110 18 0 20 7 20 73 0 86 16 117 60 117 40 0 50
-23 50 -114 0 -61 3 -76 15 -76 12 0 15 17 15 95 0 82 -3 98 -20 115 -24 24
-67 26 -98 4z"/>
<path d="M3670 15028 c0 -7 13 -56 28 -108 23 -78 32 -96 49 -98 18 -3 23 6
38 70 10 40 20 77 23 82 3 6 15 -26 26 -70 17 -65 25 -80 42 -82 18 -3 23 5
32 40 7 24 20 73 31 111 19 64 19 67 2 67 -14 0 -23 -19 -42 -87 l-23 -88 -21
85 c-18 71 -24 86 -42 88 -18 3 -24 -4 -32 -37 -6 -23 -16 -60 -23 -83 l-11
-43 -21 83 c-16 65 -24 82 -38 82 -10 0 -18 -6 -18 -12z"/>
<path d="M7120 14930 c0 -103 1 -110 20 -110 19 0 20 7 20 110 0 103 -1 110
-20 110 -19 0 -20 -7 -20 -110z"/>
<path d="M1675 14950 c-35 -39 3 -91 55 -75 28 9 37 51 15 75 -10 11 -26 20
-35 20 -9 0 -25 -9 -35 -20z"/>
<path d="M6076 14518 c-9 -12 -16 -33 -16 -45 0 -14 -6 -23 -15 -23 -8 0 -15
-5 -15 -10 0 -6 7 -13 15 -16 12 -5 15 -26 15 -100 0 -87 1 -94 20 -94 19 0
20 7 20 95 0 88 1 95 20 95 11 0 20 7 20 15 0 8 -9 15 -20 15 -15 0 -20 7 -20
26 0 17 6 28 20 31 29 8 25 33 -4 33 -14 0 -32 -10 -40 -22z"/>
<path d="M6177 14533 c-4 -3 -7 -73 -7 -155 0 -141 1 -148 20 -148 19 0 20 7
20 155 0 123 -3 155 -13 155 -8 0 -17 -3 -20 -7z"/>
<path d="M1930 14515 c0 -11 12 -15 50 -15 l50 0 0 -135 0 -135 25 0 25 0 0
135 0 135 50 0 c38 0 50 4 50 15 0 13 -21 15 -125 15 -104 0 -125 -2 -125 -15z"/>
<path d="M2930 14380 c0 -127 2 -150 15 -150 12 0 15 15 15 73 0 89 16 117 64
117 42 0 46 -10 46 -111 0 -74 1 -79 21 -79 21 0 21 4 17 96 -4 86 -7 99 -27
115 -28 23 -53 24 -91 4 l-30 -16 0 51 c0 38 -4 50 -15 50 -13 0 -15 -23 -15
-150z"/>
<path d="M3830 14380 c0 -127 2 -150 15 -150 12 0 15 15 15 73 0 89 16 117 64
117 42 0 46 -10 46 -111 0 -74 1 -79 21 -79 21 0 21 4 17 96 -4 86 -7 99 -27
115 -28 23 -53 24 -91 4 l-30 -16 0 51 c0 38 -4 50 -15 50 -13 0 -15 -23 -15
-150z"/>
<path d="M4062 14513 c5 -26 38 -29 38 -4 0 15 -6 21 -21 21 -14 0 -19 -5 -17
-17z"/>
<path d="M5370 14479 c0 -50 0 -50 -22 -35 -35 25 -71 20 -103 -14 -25 -26
-29 -39 -29 -84 0 -65 21 -100 69 -116 30 -10 40 -9 62 6 19 12 28 13 31 6 2
-7 10 -12 18 -12 11 0 14 27 14 150 0 143 -1 150 -20 150 -17 0 -20 -7 -20
-51z m-16 -81 c21 -30 20 -96 -1 -120 -19 -22 -66 -24 -83 -3 -21 25 -24 92
-6 120 21 33 68 34 90 3z"/>
<path d="M6270 14509 c0 -14 5 -19 17 -17 26 5 29 38 4 38 -15 0 -21 -6 -21
-21z"/>
<path d="M2820 14485 c0 -14 -7 -28 -15 -31 -19 -8 -20 -34 0 -34 11 0 15 -19
17 -92 l3 -93 33 -3 c36 -4 47 22 12 31 -18 5 -20 14 -20 81 0 69 2 76 20 76
11 0 20 6 20 14 0 7 -9 16 -20 19 -14 3 -20 14 -20 31 0 16 -6 26 -15 26 -9 0
-15 -9 -15 -25z"/>
<path d="M4170 14485 c0 -14 -7 -28 -15 -31 -19 -8 -20 -34 0 -34 11 0 15 -19
17 -92 l3 -93 33 -3 c36 -4 47 22 12 31 -18 5 -20 14 -20 81 0 69 2 76 20 76
11 0 20 6 20 14 0 7 -9 16 -20 19 -14 3 -20 14 -20 31 0 16 -6 26 -15 26 -9 0
-15 -9 -15 -25z"/>
<path d="M5590 14480 c0 -20 -5 -30 -15 -30 -8 0 -15 -7 -15 -15 0 -8 7 -15
15 -15 11 0 15 -19 17 -92 l3 -93 33 -3 c24 -2 32 1 32 12 0 9 -7 16 -15 16
-12 0 -15 16 -15 80 0 64 3 80 15 80 8 0 15 7 15 15 0 8 -7 15 -15 15 -10 0
-15 10 -15 30 0 23 -4 30 -20 30 -16 0 -20 -7 -20 -30z"/>
<path d="M2244 14446 c-26 -19 -38 -56 -18 -56 8 0 23 9 34 20 11 11 27 20 36
20 27 0 54 -20 54 -40 0 -20 -7 -23 -82 -35 -60 -9 -90 -73 -50 -107 29 -26
60 -31 94 -14 21 11 35 13 42 6 16 -16 56 -12 56 5 0 8 -4 15 -9 15 -5 0 -11
36 -13 80 -2 57 -8 84 -20 96 -23 23 -98 29 -124 10z m106 -128 c0 -33 -29
-58 -67 -58 -59 0 -57 58 3 71 54 12 64 10 64 -13z"/>
<path d="M2510 14443 c-17 -12 -25 -13 -28 -5 -2 7 -10 12 -18 12 -11 0 -14
-28 -14 -155 0 -131 2 -155 15 -155 12 0 15 13 15 56 0 49 2 55 15 44 27 -23
83 -16 113 13 24 24 27 35 27 93 0 60 -3 68 -28 90 -33 28 -63 30 -97 7z m80
-42 c15 -29 12 -93 -6 -119 -17 -24 -65 -30 -82 -9 -20 24 -23 74 -8 111 13
32 19 36 50 36 25 0 38 -6 46 -19z"/>
<path d="M3201 14444 c-26 -19 -51 -71 -51 -109 0 -72 70 -126 136 -105 31 10
64 43 64 62 0 16 -36 7 -48 -12 -8 -14 -23 -20 -46 -20 -35 0 -49 11 -60 48
-7 22 -6 22 75 22 l82 0 -6 42 c-10 75 -87 113 -146 72z m106 -54 l12 -25 -60
-3 c-34 -2 -64 -1 -67 2 -2 3 3 17 12 31 23 36 84 33 103 -5z"/>
<path d="M4304 14426 c-29 -29 -34 -41 -34 -80 0 -63 21 -102 65 -116 47 -16
95 1 118 40 18 29 18 30 -2 30 -11 0 -25 -9 -31 -20 -22 -42 -110 -17 -110 31
0 17 8 19 80 19 87 0 93 5 71 63 -28 73 -101 89 -157 33z m108 -23 c34 -31 23
-43 -42 -43 -45 0 -60 3 -60 14 0 41 67 61 102 29z"/>
<path d="M4659 14432 c-39 -35 -51 -110 -25 -160 34 -65 140 -61 164 7 10 27
9 31 -7 31 -10 0 -23 -11 -29 -25 -9 -18 -19 -25 -41 -25 -37 0 -61 31 -61 80
0 20 7 46 16 58 20 29 69 30 86 2 7 -11 20 -20 29 -20 24 0 13 35 -19 60 -35
28 -76 25 -113 -8z"/>
<path d="M4885 14448 c-23 -13 -35 -28 -35 -45 0 -19 17 -16 40 7 11 11 27 20
36 20 27 0 54 -20 54 -40 0 -20 -7 -23 -83 -35 -72 -12 -87 -91 -23 -122 29
-13 36 -13 71 2 26 10 41 12 43 5 6 -16 52 -12 52 5 0 8 -4 15 -10 15 -6 0
-10 32 -10 75 0 67 -3 79 -25 100 -26 27 -75 33 -110 13z m95 -132 c0 -37 -26
-58 -69 -54 -26 2 -37 8 -39 22 -5 24 9 36 50 46 53 13 58 11 58 -14z"/>
<path d="M5142 14438 c-19 -19 -22 -20 -22 -5 0 9 -7 17 -15 17 -12 0 -15 -19
-15 -110 0 -103 1 -110 20 -110 18 0 20 7 20 79 0 85 12 111 51 111 12 0 19 7
19 20 0 27 -30 26 -58 -2z"/>
<path d="M5739 14445 c-36 -19 -53 -65 -46 -122 7 -62 40 -93 102 -93 36 0 47
5 69 31 46 54 31 155 -25 185 -35 18 -66 17 -100 -1z m81 -25 c22 -12 41 -70
33 -102 -9 -36 -33 -58 -64 -58 -37 0 -59 33 -59 86 0 34 5 47 26 63 30 24 38
25 64 11z"/>
<path d="M6422 14444 c-12 -8 -22 -10 -22 -5 0 6 -9 11 -20 11 -19 0 -20 -7
-20 -155 0 -148 1 -155 20 -155 17 0 20 7 20 50 0 28 2 50 4 50 3 0 16 -4 30
-10 36 -13 83 6 101 41 8 15 15 51 15 79 0 44 -5 56 -29 81 -33 32 -65 37 -99
13z m75 -36 c27 -34 21 -121 -9 -140 -21 -13 -55 -9 -72 8 -18 18 -22 95 -6
125 12 22 71 27 87 7z"/>
<path d="M3500 14441 c0 -4 4 -21 9 -37 6 -16 19 -62 31 -101 17 -58 25 -73
40 -73 20 0 21 4 51 125 l13 50 21 -85 c17 -69 25 -86 41 -88 21 -3 26 11 80
201 4 12 0 17 -13 17 -15 0 -23 -15 -37 -72 -11 -40 -22 -77 -26 -81 -3 -4
-15 29 -25 73 -16 71 -21 80 -41 80 -20 0 -24 -9 -40 -75 -10 -41 -21 -75 -24
-75 -3 0 -14 34 -24 75 -14 61 -21 75 -37 75 -10 0 -19 -4 -19 -9z"/>
<path d="M4060 14340 c0 -103 1 -110 20 -110 19 0 20 7 20 110 0 103 -1 110
-20 110 -19 0 -20 -7 -20 -110z"/>
<path d="M6270 14340 c0 -103 1 -110 20 -110 19 0 20 7 20 110 0 103 -1 110
-20 110 -19 0 -20 -7 -20 -110z"/>
<path d="M1675 14360 c-35 -39 3 -91 55 -75 28 9 37 51 15 75 -10 11 -26 20
-35 20 -9 0 -25 -9 -35 -20z"/>
<path d="M4726 13908 c-56 -98 -58 -199 -4 -300 42 -80 64 -77 30 5 -38 88
-37 198 0 280 33 70 13 81 -26 15z"/>
<path d="M7570 13795 c0 -148 1 -155 20 -155 19 0 20 7 20 155 0 148 -1 155
-20 155 -19 0 -20 -7 -20 -155z"/>
<path d="M7897 13888 c36 -87 35 -195 -2 -275 -29 -64 -24 -82 11 -38 34 43
56 115 55 187 0 48 -7 75 -31 125 -42 86 -68 86 -33 1z"/>
<path d="M1930 13925 c0 -11 12 -15 50 -15 l50 0 0 -135 0 -135 25 0 25 0 0
135 0 135 50 0 c38 0 50 4 50 15 0 13 -21 15 -125 15 -104 0 -125 -2 -125 -15z"/>
<path d="M2972 13923 c5 -26 38 -29 38 -4 0 15 -6 21 -21 21 -14 0 -19 -5 -17
-17z"/>
<path d="M3300 13790 c0 -143 1 -150 20 -150 18 0 20 7 20 78 0 88 14 112 63
112 37 0 47 -25 47 -114 0 -61 3 -76 15 -76 12 0 15 17 15 95 0 82 -3 98 -20
115 -24 24 -67 26 -98 4 -22 -15 -22 -15 -22 35 0 44 -3 51 -20 51 -19 0 -20
-7 -20 -150z"/>
<path d="M3780 13919 c0 -25 33 -22 38 4 2 12 -3 17 -17 17 -15 0 -21 -6 -21
-21z"/>
<path d="M5130 13790 c0 -143 1 -150 20 -150 18 0 20 7 20 79 0 92 13 114 64
109 l31 -3 3 -92 c2 -85 4 -93 22 -93 18 0 20 7 20 94 0 90 -1 96 -26 115 -32
25 -61 27 -92 5 -22 -15 -22 -15 -22 35 0 44 -3 51 -20 51 -19 0 -20 -7 -20
-150z"/>
<path d="M5370 13920 c0 -11 7 -20 15 -20 8 0 15 9 15 20 0 11 -7 20 -15 20
-8 0 -15 -9 -15 -20z"/>
<path d="M6680 13890 c0 -53 -4 -58 -34 -35 -30 23 -65 18 -97 -14 -24 -25
-29 -37 -29 -81 0 -67 21 -105 64 -120 28 -9 40 -8 65 5 18 9 31 11 31 5 0 -5
7 -10 15 -10 13 0 15 23 15 150 0 127 -2 150 -15 150 -11 0 -15 -12 -15 -50z
m-20 -79 c16 -30 12 -107 -6 -125 -17 -17 -51 -21 -72 -8 -30 19 -36 106 -9
140 16 20 75 15 87 -7z"/>
<path d="M8350 13790 c0 -143 1 -150 20 -150 18 0 20 7 20 78 0 88 14 112 63
112 37 0 47 -25 47 -114 0 -61 3 -76 15 -76 12 0 15 17 15 95 0 82 -3 98 -20
115 -24 24 -67 26 -98 4 -22 -15 -22 -15 -22 35 0 44 -3 51 -20 51 -19 0 -20
-7 -20 -150z"/>
<path d="M9590 13790 c0 -127 2 -150 15 -150 12 0 15 15 15 73 0 89 16 117 64
117 42 0 46 -10 46 -111 0 -74 1 -79 21 -79 21 0 21 4 17 96 -4 86 -7 99 -27
115 -28 23 -53 24 -91 4 l-30 -16 0 51 c0 38 -4 50 -15 50 -13 0 -15 -23 -15
-150z"/>
<path d="M3550 13890 c0 -20 -5 -30 -15 -30 -8 0 -15 -7 -15 -15 0 -8 7 -15
15 -15 11 0 15 -19 17 -92 l3 -93 33 -3 c24 -2 32 1 32 12 0 9 -7 16 -15 16
-12 0 -15 16 -15 80 0 64 3 80 15 80 8 0 15 7 15 15 0 8 -7 15 -15 15 -10 0
-15 10 -15 30 0 23 -4 30 -20 30 -16 0 -20 -7 -20 -30z"/>
<path d="M5470 13890 c0 -20 -5 -30 -15 -30 -8 0 -15 -7 -15 -15 0 -8 7 -15
15 -15 11 0 15 -19 17 -92 l3 -93 33 -3 c24 -2 32 1 32 12 0 9 -7 16 -15 16
-12 0 -15 16 -15 80 0 64 3 80 15 80 8 0 15 7 15 15 0 8 -7 15 -15 15 -10 0
-15 10 -15 30 0 23 -4 30 -20 30 -16 0 -20 -7 -20 -30z"/>
<path d="M9480 13895 c0 -14 -7 -28 -15 -31 -19 -8 -20 -34 0 -34 11 0 15 -19
17 -92 l3 -93 33 -3 c36 -4 47 22 12 31 -18 5 -20 14 -20 81 0 69 2 76 20 76
11 0 20 6 20 14 0 7 -9 16 -20 19 -14 3 -20 14 -20 31 0 16 -6 26 -15 26 -9 0
-15 -9 -15 -25z"/>
<path d="M2265 13861 c-56 -23 -82 -109 -51 -169 20 -39 44 -52 94 -52 72 0
114 69 92 152 -17 60 -79 91 -135 69z m72 -36 c12 -9 25 -31 29 -49 11 -62
-16 -106 -66 -106 -60 0 -83 98 -35 145 28 29 42 31 72 10z"/>
<path d="M2510 13853 c-17 -12 -25 -13 -28 -5 -2 7 -10 12 -18 12 -11 0 -14
-28 -14 -155 0 -131 2 -155 15 -155 12 0 15 13 15 56 0 49 2 55 15 44 27 -23
83 -16 113 13 24 24 27 35 27 93 0 60 -3 68 -28 90 -33 28 -63 30 -97 7z m80
-42 c15 -29 12 -93 -6 -119 -17 -24 -65 -30 -82 -9 -20 24 -23 74 -8 111 13
32 19 36 50 36 25 0 38 -6 46 -19z"/>
<path d="M2892 13848 c-19 -19 -22 -20 -22 -5 0 9 -7 17 -15 17 -12 0 -15 -19
-15 -110 0 -91 3 -110 15 -110 12 0 15 15 15 75 0 62 4 79 20 95 11 11 27 20
35 20 8 0 15 9 15 20 0 26 -20 25 -48 -2z"/>
<path d="M3094 13847 c-23 -20 -28 -34 -32 -83 -4 -53 -1 -63 22 -91 32 -38
68 -48 106 -30 l28 14 -9 -30 c-5 -17 -14 -34 -21 -39 -21 -13 -65 -9 -78 7
-16 19 -40 19 -40 1 0 -48 114 -63 155 -21 24 23 25 29 25 155 0 109 -2 130
-15 130 -8 0 -15 -5 -15 -11 0 -7 -10 -5 -25 5 -34 22 -69 20 -101 -7z m107
-33 c17 -21 18 -107 0 -127 -20 -25 -67 -21 -85 5 -18 26 -21 90 -6 119 13 24
72 26 91 3z"/>
<path d="M3899 13842 c-39 -35 -51 -110 -25 -160 34 -65 140 -61 164 7 10 27
9 31 -7 31 -10 0 -23 -11 -29 -25 -9 -18 -19 -25 -41 -25 -37 0 -61 31 -61 80
0 20 7 46 16 58 20 29 69 30 86 2 7 -11 20 -20 29 -20 24 0 13 35 -19 60 -35
28 -76 25 -113 -8z"/>
<path d="M4130 13858 c-62 -32 -75 -140 -23 -192 35 -36 103 -36 138 -2 26 26
41 82 31 120 -16 64 -91 102 -146 74z m85 -43 c48 -47 25 -145 -35 -145 -50 0
-77 44 -66 106 7 33 37 64 64 64 7 0 24 -11 37 -25z"/>
<path d="M4382 13854 c-12 -8 -22 -10 -22 -5 0 6 -9 11 -20 11 -19 0 -20 -7
-20 -110 0 -103 1 -110 20 -110 18 0 20 7 20 73 0 86 16 117 60 117 40 0 50
-23 50 -114 0 -61 3 -76 15 -76 12 0 15 17 15 95 0 82 -3 98 -20 115 -24 24
-67 26 -98 4z"/>
<path d="M5609 13842 c-27 -24 -33 -38 -37 -83 -4 -48 -1 -59 22 -86 45 -54
132 -50 162 8 13 27 13 29 -3 29 -10 0 -24 -9 -31 -20 -18 -29 -76 -27 -96 2
-30 42 -22 48 64 48 79 0 80 0 80 25 0 92 -94 137 -161 77z m105 -28 c32 -32
20 -44 -44 -44 -33 0 -60 3 -60 8 0 4 7 18 16 30 18 26 65 30 88 6z"/>
<path d="M5967 13849 c-73 -57 -53 -191 32 -212 47 -11 111 34 111 79 0 15
-37 0 -45 -18 -15 -34 -75 -32 -93 2 -14 28 -10 93 8 115 18 22 67 19 82 -5
14 -23 48 -27 48 -6 0 7 -12 25 -26 40 -33 32 -81 34 -117 5z"/>
<path d="M6176 13849 c-27 -22 -35 -49 -13 -49 7 0 20 9 30 20 9 11 24 20 33
20 26 0 54 -20 54 -39 0 -21 -19 -31 -56 -31 -28 0 -65 -17 -76 -34 -4 -6 -8
-26 -8 -44 0 -29 5 -35 38 -49 35 -15 39 -14 74 5 30 16 38 17 42 6 6 -16 56
-19 56 -4 0 6 -7 13 -15 16 -12 5 -15 24 -15 84 0 73 -2 80 -26 99 -15 12 -41
21 -59 21 -18 0 -44 -9 -59 -21z m104 -129 c0 -33 -22 -50 -68 -50 -21 0 -31
6 -35 19 -7 27 6 42 44 51 55 13 59 12 59 -20z"/>
<path d="M6452 13854 c-12 -8 -22 -10 -22 -5 0 6 -9 11 -20 11 -19 0 -20 -7
-20 -110 0 -103 1 -110 20 -110 18 0 20 7 20 78 0 83 14 112 53 112 10 0 17 8
17 20 0 24 -18 26 -48 4z"/>
<path d="M6785 13845 c-49 -48 -25 -91 62 -109 42 -9 60 -31 43 -51 -19 -22
-77 -19 -92 5 -13 20 -48 28 -48 11 0 -6 10 -22 23 -37 19 -22 33 -27 69 -28
61 -1 90 24 86 73 -3 34 -6 37 -63 57 -45 16 -61 27 -63 42 -2 16 3 23 21 27
26 7 67 -9 67 -25 0 -6 9 -10 19 -10 14 0 18 5 14 20 -14 52 -97 67 -138 25z"/>
<path d="M7143 13860 c-55 -22 -72 -136 -27 -189 22 -26 33 -31 69 -31 32 0
52 7 72 24 25 22 28 31 28 86 0 57 -2 64 -33 91 -33 30 -67 36 -109 19z m82
-45 c48 -47 25 -145 -34 -145 -46 0 -67 37 -63 108 2 26 35 62 57 62 9 0 27
-11 40 -25z"/>
<path d="M7393 13853 c-14 -9 -23 -11 -23 -4 0 6 -7 11 -15 11 -12 0 -15 -19
-15 -110 0 -91 3 -110 15 -110 12 0 15 14 15 68 0 82 15 116 53 120 48 6 57
-11 57 -104 0 -79 1 -84 21 -84 21 0 21 4 17 96 -4 86 -7 99 -27 115 -28 23
-68 24 -98 2z"/>
<path d="M8173 13858 c-12 -6 -26 -23 -32 -39 -14 -39 11 -66 74 -82 43 -10
50 -15 50 -37 0 -22 -5 -25 -42 -28 -34 -3 -44 1 -53 17 -11 22 -40 29 -40 10
0 -65 138 -88 170 -29 26 49 2 82 -73 101 -54 13 -70 35 -42 55 26 20 52 17
72 -6 10 -11 23 -20 30 -20 22 0 14 27 -13 49 -29 23 -66 26 -101 9z"/>
<path d="M8629 13855 c-36 -19 -53 -65 -46 -122 7 -62 40 -93 102 -93 36 0 47
5 69 31 46 54 31 155 -25 185 -35 18 -66 17 -100 -1z m81 -25 c22 -12 41 -70
33 -102 -9 -36 -33 -58 -64 -58 -37 0 -59 33 -59 86 0 34 5 47 26 63 30 24 38
25 64 11z"/>
<path d="M9155 13845 c-49 -48 -25 -91 62 -109 42 -9 60 -31 43 -51 -19 -22
-77 -19 -92 5 -13 20 -48 28 -48 11 0 -6 10 -22 23 -37 19 -22 33 -27 69 -28
61 -1 90 24 86 73 -3 34 -6 37 -63 57 -45 16 -61 27 -63 42 -2 16 3 23 21 27
26 7 67 -9 67 -25 0 -6 9 -10 19 -10 14 0 18 5 14 20 -14 52 -97 67 -138 25z"/>
<path d="M9861 13854 c-26 -19 -51 -71 -51 -109 0 -72 70 -126 136 -105 31 10
64 43 64 62 0 16 -36 7 -48 -12 -8 -14 -23 -20 -46 -20 -35 0 -49 11 -60 48
-7 22 -6 22 75 22 l82 0 -6 42 c-10 75 -87 113 -146 72z m106 -54 l12 -25 -60
-3 c-34 -2 -64 -1 -67 2 -2 3 3 17 12 31 23 36 84 33 103 -5z"/>
<path d="M2970 13750 c0 -103 1 -110 20 -110 19 0 20 7 20 110 0 103 -1 110
-20 110 -19 0 -20 -7 -20 -110z"/>
<path d="M3780 13750 c0 -103 1 -110 20 -110 19 0 20 7 20 110 0 103 -1 110
-20 110 -19 0 -20 -7 -20 -110z"/>
<path d="M4803 13848 c2 -7 17 -57 32 -111 25 -86 31 -98 49 -95 16 2 24 18
41 88 l21 85 13 -50 c30 -121 31 -125 51 -125 15 0 24 17 44 83 41 135 41 140
20 135 -13 -2 -23 -24 -39 -82 -12 -44 -24 -76 -27 -70 -3 5 -13 42 -23 82
-15 62 -20 72 -39 72 -19 0 -25 -10 -42 -82 l-21 -83 -11 40 c-6 22 -16 59
-22 83 -8 32 -16 42 -31 42 -13 0 -19 -5 -16 -12z"/>
<path d="M5370 13750 c0 -91 3 -110 15 -110 12 0 15 19 15 110 0 91 -3 110
-15 110 -12 0 -15 -19 -15 -110z"/>
<path d="M7650 13853 c0 -5 17 -56 37 -114 32 -92 36 -110 25 -133 -7 -15 -20
-26 -32 -26 -11 0 -20 -7 -20 -15 0 -19 53 -20 69 -2 11 14 111 272 111 288 0
5 -8 9 -18 9 -14 0 -24 -20 -46 -85 -15 -47 -29 -85 -31 -85 -2 0 -16 38 -31
85 -22 65 -32 85 -46 85 -10 0 -18 -3 -18 -7z"/>
<path d="M8810 13851 c0 -4 4 -21 9 -37 6 -16 19 -62 31 -101 17 -58 25 -73
40 -73 20 0 21 4 51 125 l13 50 21 -85 c17 -69 25 -86 41 -88 21 -3 26 11 80
201 4 12 0 17 -13 17 -15 0 -23 -15 -37 -72 -11 -40 -22 -77 -26 -81 -3 -4
-15 29 -25 73 -16 71 -21 80 -41 80 -20 0 -24 -9 -40 -75 -10 -41 -21 -75 -24
-75 -3 0 -14 34 -24 75 -14 61 -21 75 -37 75 -10 0 -19 -4 -19 -9z"/>
<path d="M1675 13770 c-35 -39 3 -91 55 -75 28 9 37 51 15 75 -10 11 -26 20
-35 20 -9 0 -25 -9 -35 -20z"/>
<path d="M2680 13760 c0 -17 7 -20 50 -20 43 0 50 3 50 20 0 17 -7 20 -50 20
-43 0 -50 -3 -50 -20z"/>
<path d="M3400 13330 c0 -13 7 -20 20 -20 13 0 20 7 20 20 0 13 -7 20 -20 20
-13 0 -20 -7 -20 -20z"/>
<path d="M3290 13300 c0 -20 -5 -30 -15 -30 -8 0 -15 -7 -15 -15 0 -8 7 -15
15 -15 11 0 15 -19 17 -92 l3 -93 33 -3 c24 -2 32 1 32 12 0 9 -7 16 -15 16
-12 0 -15 16 -15 80 0 64 3 80 15 80 8 0 15 7 15 15 0 8 -7 15 -15 15 -10 0
-15 10 -15 30 0 23 -4 30 -20 30 -16 0 -20 -7 -20 -30z"/>
<path d="M1981 13255 c-63 -54 -48 -171 26 -202 35 -14 40 -14 66 0 25 15 27
15 27 -1 0 -51 -68 -82 -104 -47 -26 26 -57 17 -38 -11 27 -41 117 -46 153 -8
22 24 24 34 27 155 3 125 3 129 -17 129 -12 0 -21 -5 -21 -11 0 -5 -10 -3 -22
5 -32 23 -62 20 -97 -9z m103 -37 c21 -30 20 -96 -1 -120 -19 -22 -66 -24 -83
-3 -21 25 -24 92 -6 120 21 33 68 34 90 3z"/>
<path d="M2219 13252 c-27 -24 -33 -38 -37 -83 -4 -48 -1 -59 22 -86 45 -54
132 -50 162 8 13 27 13 29 -3 29 -10 0 -24 -9 -31 -20 -18 -29 -76 -27 -96 2
-30 42 -22 48 64 48 79 0 80 0 80 25 0 92 -94 137 -161 77z m105 -28 c32 -32
20 -44 -44 -44 -33 0 -60 3 -60 8 0 4 7 18 16 30 18 26 65 30 88 6z"/>
<path d="M2490 13263 c-17 -12 -25 -13 -28 -5 -2 7 -10 12 -18 12 -11 0 -14
-22 -14 -110 0 -103 1 -110 20 -110 18 0 20 7 20 76 0 94 10 114 54 114 42 0
46 -10 46 -111 0 -74 1 -79 21 -79 20 0 21 4 17 96 -3 86 -5 98 -27 115 -29
23 -59 24 -91 2z"/>
<path d="M2709 13265 c-46 -25 -67 -122 -39 -175 16 -29 71 -51 110 -44 42 9
93 74 57 74 -7 0 -20 -9 -30 -20 -23 -27 -82 -27 -97 -1 -24 45 -15 51 70 51
44 0 80 3 80 8 0 4 -5 24 -10 44 -19 67 -82 95 -141 63z m95 -47 c9 -12 16
-26 16 -30 0 -5 -27 -8 -60 -8 -62 0 -68 5 -50 41 15 28 74 26 94 -3z"/>
<path d="M2962 13258 c-19 -19 -22 -20 -22 -5 0 9 -7 17 -15 17 -12 0 -15 -19
-15 -110 0 -103 1 -110 20 -110 18 0 20 7 20 79 0 85 12 111 51 111 12 0 19 7
19 20 0 27 -30 26 -58 -2z"/>
<path d="M3074 13266 c-26 -19 -38 -56 -18 -56 8 0 23 9 34 20 11 11 27 20 36
20 27 0 54 -20 54 -40 0 -20 -7 -23 -82 -35 -60 -9 -90 -73 -50 -107 29 -26
60 -31 94 -14 21 11 35 13 42 6 16 -16 56 -12 56 5 0 8 -4 15 -9 15 -5 0 -11
36 -13 80 -2 57 -8 84 -20 96 -23 23 -98 29 -124 10z m106 -128 c0 -33 -29
-58 -67 -58 -59 0 -57 58 3 71 54 12 64 10 64 -13z"/>
<path d="M3540 13268 c-62 -32 -75 -140 -23 -192 35 -36 103 -36 138 -2 26 26
41 82 31 120 -16 64 -91 102 -146 74z m85 -43 c48 -47 25 -145 -35 -145 -50 0
-77 44 -66 106 7 33 37 64 64 64 7 0 24 -11 37 -25z"/>
<path d="M3792 13264 c-12 -8 -22 -10 -22 -5 0 6 -9 11 -20 11 -19 0 -20 -7
-20 -110 0 -103 1 -110 20 -110 18 0 20 7 20 78 0 90 16 116 67 110 l28 -3 3
-92 c2 -85 4 -93 22 -93 18 0 20 7 20 94 0 90 -1 96 -26 115 -32 25 -61 27
-92 5z"/>
<path d="M3992 13263 c-29 -25 -37 -66 -17 -86 9 -9 35 -21 58 -27 66 -17 69
-19 65 -42 -2 -19 -10 -24 -45 -26 -34 -2 -45 1 -55 17 -16 26 -38 27 -38 3 0
-41 73 -70 128 -51 28 10 52 44 52 75 0 18 -52 50 -97 59 -41 7 -54 32 -28 51
26 19 42 17 65 -6 21 -21 50 -27 50 -10 0 6 -11 22 -25 35 -29 30 -83 33 -113
8z"/>
<path d="M3400 13160 c0 -103 1 -110 20 -110 19 0 20 7 20 110 0 103 -1 110
-20 110 -19 0 -20 -7 -20 -110z"/>
<path d="M2006 12749 c-68 -54 -80 -173 -25 -250 27 -39 86 -56 138 -40 66 19
124 111 71 111 -11 0 -20 -6 -20 -14 0 -7 -11 -25 -25 -40 -36 -39 -94 -37
-129 5 -21 25 -26 41 -26 84 0 68 14 99 54 120 28 15 38 16 69 6 21 -7 42 -21
47 -32 11 -20 50 -27 50 -8 0 6 -15 26 -34 45 -30 30 -40 34 -89 34 -40 0 -61
-5 -81 -21z"/>
<path d="M2260 12615 c0 -148 1 -155 20 -155 19 0 20 7 20 155 0 148 -1 155
-20 155 -19 0 -20 -7 -20 -155z"/>
<path d="M4470 12615 c0 -131 2 -155 15 -155 13 0 15 24 15 155 0 131 -2 155
-15 155 -13 0 -15 -24 -15 -155z"/>
<path d="M5158 12759 c-12 -6 -18 -22 -18 -44 0 -24 -5 -35 -15 -35 -8 0 -15
-7 -15 -15 0 -8 7 -15 15 -15 12 0 15 -17 15 -95 0 -88 1 -95 20 -95 19 0 20
7 20 95 0 78 3 95 15 95 8 0 15 7 15 15 0 8 -7 15 -15 15 -9 0 -15 9 -15 25 0
14 7 28 15 31 8 4 15 12 15 20 0 16 -27 18 -52 3z"/>
<path d="M5886 12748 c-9 -12 -16 -33 -16 -45 0 -14 -6 -23 -15 -23 -8 0 -15
-5 -15 -10 0 -6 7 -13 15 -16 12 -5 15 -26 15 -100 0 -87 1 -94 20 -94 19 0
20 7 20 95 0 88 1 95 20 95 11 0 20 7 20 15 0 8 -9 15 -20 15 -15 0 -20 7 -20
26 0 17 6 28 20 31 29 8 25 33 -4 33 -14 0 -32 -10 -40 -22z"/>
<path d="M5987 12763 c-4 -3 -7 -73 -7 -155 0 -141 1 -148 20 -148 19 0 20 7
20 155 0 123 -3 155 -13 155 -8 0 -17 -3 -20 -7z"/>
<path d="M2360 12740 c0 -11 7 -20 15 -20 8 0 15 9 15 20 0 11 -7 20 -15 20
-8 0 -15 -9 -15 -20z"/>
<path d="M2660 12610 c0 -143 1 -150 20 -150 17 0 20 7 20 44 0 27 6 48 15 56
9 7 17 11 18 9 2 -2 18 -28 36 -56 25 -40 39 -53 57 -53 23 0 23 2 -23 71
l-48 72 45 38 c42 36 43 39 20 39 -16 0 -41 -17 -72 -47 l-48 -47 0 87 c0 80
-2 87 -20 87 -19 0 -20 -7 -20 -150z"/>
<path d="M3000 12610 c0 -143 1 -150 20 -150 18 0 20 8 22 122 l3 122 75 -122
c60 -97 80 -122 98 -122 22 0 22 1 22 150 0 143 -1 150 -20 150 -18 0 -20 -8
-22 -115 l-3 -114 -70 114 c-62 101 -73 114 -97 115 l-28 0 0 -150z"/>
<path d="M6080 12739 c0 -14 5 -19 17 -17 26 5 29 38 4 38 -15 0 -21 -6 -21
-21z"/>
<path d="M6650 12739 c0 -14 5 -19 17 -17 26 5 29 38 4 38 -15 0 -21 -6 -21
-21z"/>
<path d="M7640 12610 c0 -143 1 -150 20 -150 18 0 20 7 20 78 0 88 14 112 63
112 37 0 47 -25 47 -114 0 -61 3 -76 15 -76 12 0 15 17 15 95 0 82 -3 98 -20
115 -24 24 -67 26 -98 4 -22 -15 -22 -15 -22 35 0 44 -3 51 -20 51 -19 0 -20
-7 -20 -150z"/>
<path d="M7880 12740 c0 -13 7 -20 20 -20 13 0 20 7 20 20 0 13 -7 20 -20 20
-13 0 -20 -7 -20 -20z"/>
<path d="M9190 12710 c0 -51 -8 -61 -30 -35 -14 17 -53 20 -81 5 -32 -18 -52
-68 -47 -122 8 -81 68 -124 129 -94 16 8 29 10 29 5 0 -5 9 -9 20 -9 19 0 20
7 20 150 0 143 -1 150 -20 150 -17 0 -20 -7 -20 -50z m-19 -77 c8 -9 14 -37
14 -63 0 -26 -6 -54 -14 -63 -20 -25 -67 -21 -85 5 -18 26 -21 90 -6 119 13
24 72 26 91 2z"/>
<path d="M3760 12710 c0 -20 -5 -30 -15 -30 -8 0 -15 -5 -15 -10 0 -6 7 -13
15 -16 11 -5 15 -24 15 -81 0 -90 10 -113 50 -113 34 0 42 25 10 33 -18 5 -20
14 -20 81 0 69 2 76 20 76 11 0 20 7 20 15 0 8 -9 15 -20 15 -16 0 -20 7 -20
30 0 23 -4 30 -20 30 -16 0 -20 -7 -20 -30z"/>
<path d="M5260 12715 c0 -14 -7 -28 -15 -31 -19 -8 -20 -34 0 -34 11 0 15 -19
17 -92 l3 -93 33 -3 c36 -4 47 22 12 31 -18 5 -20 14 -20 81 0 69 2 76 20 76
11 0 20 6 20 14 0 7 -9 16 -20 19 -14 3 -20 14 -20 31 0 16 -6 26 -15 26 -9 0
-15 -9 -15 -25z"/>
<path d="M7980 12710 c0 -20 -5 -30 -15 -30 -8 0 -15 -7 -15 -15 0 -8 7 -15
15 -15 12 0 15 -16 15 -83 0 -51 5 -88 12 -95 17 -17 58 -15 58 3 0 8 -7 15
-15 15 -12 0 -15 16 -15 80 0 64 3 80 15 80 8 0 15 7 15 15 0 8 -7 15 -15 15
-10 0 -15 10 -15 30 0 23 -4 30 -20 30 -16 0 -20 -7 -20 -30z"/>
<path d="M2491 12676 c-13 -7 -30 -24 -37 -37 -18 -33 -17 -115 2 -144 18 -28
72 -49 100 -39 30 11 64 46 64 66 0 25 -19 22 -42 -7 -24 -31 -72 -34 -88 -6
-16 30 -12 107 6 125 22 23 71 20 84 -4 6 -11 17 -20 25 -20 24 0 17 37 -11
59 -30 24 -68 26 -103 7z"/>
<path d="M3341 12674 c-26 -19 -51 -71 -51 -109 0 -72 70 -126 136 -105 31 10
64 43 64 62 0 16 -36 7 -48 -12 -8 -14 -23 -20 -46 -20 -35 0 -49 11 -60 48
-7 22 -6 22 75 22 l82 0 -6 42 c-10 75 -87 113 -146 72z m106 -54 l12 -25 -60
-3 c-34 -2 -64 -1 -67 2 -2 3 3 17 12 31 23 36 84 33 103 -5z"/>
<path d="M4029 12675 c-36 -19 -53 -65 -46 -122 7 -62 40 -93 102 -93 36 0 47
5 69 31 46 54 31 155 -25 185 -35 18 -66 17 -100 -1z m81 -25 c22 -12 41 -70
33 -102 -9 -36 -33 -58 -64 -58 -37 0 -59 33 -59 86 0 34 5 47 26 63 30 24 38
25 64 11z"/>
<path d="M4290 12673 c-17 -12 -25 -13 -28 -5 -2 7 -10 12 -18 12 -11 0 -14
-22 -14 -110 0 -103 1 -110 20 -110 18 0 20 7 20 76 0 94 10 114 54 114 42 0
46 -10 46 -111 0 -74 1 -79 21 -79 20 0 21 4 17 96 -3 86 -5 98 -27 115 -29
23 -59 24 -91 2z"/>
<path d="M4924 12676 c-26 -19 -38 -56 -18 -56 8 0 23 9 34 20 11 11 27 20 36
20 27 0 54 -20 54 -40 0 -20 -7 -23 -82 -35 -60 -9 -90 -73 -50 -107 29 -26
60 -31 94 -14 21 11 35 13 42 6 16 -16 56 -12 56 5 0 8 -4 15 -9 15 -5 0 -11
36 -13 80 -2 57 -8 84 -20 96 -23 23 -98 29 -124 10z m106 -128 c0 -33 -29
-58 -67 -58 -59 0 -57 58 3 71 54 12 64 10 64 -13z"/>
<path d="M5409 12675 c-46 -25 -67 -122 -39 -175 16 -29 71 -51 110 -44 42 9
93 74 57 74 -7 0 -20 -9 -30 -20 -23 -27 -82 -27 -97 -1 -24 45 -15 51 70 51
44 0 80 3 80 8 0 4 -5 24 -10 44 -19 67 -82 95 -141 63z m95 -47 c9 -12 16
-26 16 -30 0 -5 -27 -8 -60 -8 -62 0 -68 5 -50 41 15 28 74 26 94 -3z"/>
<path d="M5662 12668 c-19 -19 -22 -20 -22 -5 0 9 -7 17 -15 17 -12 0 -15 -19
-15 -110 0 -103 1 -110 20 -110 18 0 20 7 20 79 0 85 12 111 51 111 12 0 19 7
19 20 0 27 -30 26 -58 -2z"/>
<path d="M6232 12674 c-12 -8 -22 -10 -22 -5 0 6 -9 11 -20 11 -19 0 -20 -7
-20 -155 0 -148 1 -155 20 -155 17 0 20 7 20 50 0 28 2 50 4 50 3 0 16 -4 30
-10 36 -13 83 6 101 41 8 15 15 51 15 79 0 44 -5 56 -29 81 -33 32 -65 37 -99
13z m75 -36 c27 -34 21 -121 -9 -140 -21 -13 -55 -9 -72 8 -18 18 -22 95 -6
125 12 22 71 27 87 7z"/>
<path d="M6470 12673 c-17 -12 -25 -13 -28 -5 -2 7 -10 12 -18 12 -11 0 -14
-28 -14 -155 0 -131 2 -155 15 -155 12 0 15 13 15 56 0 49 2 55 15 44 27 -23
83 -16 113 13 24 24 27 35 27 93 0 60 -3 68 -28 90 -33 28 -63 30 -97 7z m80
-42 c15 -29 12 -93 -6 -119 -17 -24 -65 -30 -82 -9 -20 24 -23 74 -8 111 13
32 19 36 50 36 25 0 38 -6 46 -19z"/>
<path d="M6802 12674 c-12 -8 -22 -10 -22 -5 0 6 -9 11 -20 11 -19 0 -20 -7
-20 -110 0 -103 1 -110 20 -110 18 0 20 7 20 78 0 90 16 116 67 110 l28 -3 3
-92 c2 -85 4 -93 22 -93 18 0 20 7 20 94 0 90 -1 96 -26 115 -32 25 -61 27
-92 5z"/>
<path d="M7004 12667 c-23 -20 -28 -34 -32 -83 -4 -53 -1 -63 22 -91 32 -38
68 -48 106 -30 l28 14 -9 -30 c-5 -17 -14 -34 -21 -39 -21 -13 -65 -9 -78 7
-16 19 -40 19 -40 1 0 -48 114 -63 155 -21 24 23 25 29 25 155 0 109 -2 130
-15 130 -8 0 -15 -5 -15 -11 0 -7 -10 -5 -25 5 -34 22 -69 20 -101 -7z m107
-33 c17 -21 18 -107 0 -127 -20 -25 -67 -21 -85 5 -18 26 -21 90 -6 119 13 24
72 26 91 3z"/>
<path d="M8131 12674 c-26 -19 -51 -71 -51 -109 0 -72 70 -126 136 -105 31 10
64 43 64 62 0 16 -36 7 -48 -12 -8 -14 -23 -20 -46 -20 -35 0 -49 11 -60 48
-7 22 -6 22 75 22 l82 0 -6 42 c-10 75 -87 113 -146 72z m106 -54 l12 -25 -60
-3 c-34 -2 -64 -1 -67 2 -2 3 3 17 12 31 23 36 84 33 103 -5z"/>
<path d="M8493 12680 c-12 -5 -29 -19 -37 -32 -63 -98 12 -224 108 -184 32 13
56 41 56 65 0 20 -28 11 -44 -15 -14 -20 -24 -25 -49 -22 -27 3 -34 9 -46 43
-12 35 -11 45 2 78 14 33 20 37 51 37 25 0 38 -6 46 -20 13 -24 40 -27 40 -5
0 9 -11 27 -25 40 -25 26 -62 31 -102 15z"/>
<path d="M8694 12676 c-26 -19 -38 -56 -18 -56 8 0 23 9 34 20 11 11 27 20 36
20 27 0 54 -20 54 -40 0 -20 -7 -23 -82 -35 -60 -9 -90 -73 -50 -107 29 -26
60 -31 94 -14 21 11 35 13 42 6 16 -16 56 -12 56 5 0 8 -4 15 -9 15 -5 0 -11
36 -13 80 -2 57 -8 84 -20 96 -23 23 -98 29 -124 10z m106 -128 c0 -33 -29
-58 -67 -58 -59 0 -57 58 3 71 54 12 64 10 64 -13z"/>
<path d="M8960 12670 c-16 -16 -20 -17 -20 -5 0 8 -9 15 -20 15 -19 0 -20 -7
-20 -110 0 -103 1 -110 20 -110 18 0 20 7 20 75 0 62 4 79 20 95 11 11 27 20
35 20 8 0 15 9 15 20 0 11 -7 20 -15 20 -8 0 -24 -9 -35 -20z"/>
<path d="M2360 12570 c0 -91 3 -110 15 -110 12 0 15 19 15 110 0 91 -3 110
-15 110 -12 0 -15 -19 -15 -110z"/>
<path d="M3530 12674 c0 -3 14 -25 30 -49 17 -24 30 -48 30 -52 0 -5 -12 -25
-26 -44 -45 -60 -48 -69 -22 -69 16 0 31 13 49 41 l27 42 27 -42 c20 -29 35
-41 52 -41 23 0 23 1 -16 58 l-39 58 34 44 c39 52 41 60 14 60 -12 0 -29 -14
-42 -35 -13 -19 -25 -35 -28 -35 -3 0 -15 16 -28 35 -13 21 -30 35 -42 35 -11
0 -20 -3 -20 -6z"/>
<path d="M4542 12668 c80 -212 81 -217 64 -243 -9 -14 -23 -25 -31 -25 -8 0
-15 -7 -15 -15 0 -21 43 -19 62 3 14 16 58 121 99 240 l18 53 -21 -3 c-17 -2
-26 -18 -45 -73 -13 -38 -26 -77 -29 -85 -4 -9 -17 20 -33 70 -23 72 -30 86
-50 88 -17 3 -22 0 -19 -10z"/>
<path d="M6080 12570 c0 -103 1 -110 20 -110 19 0 20 7 20 110 0 103 -1 110
-20 110 -19 0 -20 -7 -20 -110z"/>
<path d="M6650 12570 c0 -103 1 -110 20 -110 19 0 20 7 20 110 0 103 -1 110
-20 110 -19 0 -20 -7 -20 -110z"/>
<path d="M7320 12668 c0 -7 13 -56 28 -108 23 -78 32 -96 49 -98 18 -3 23 6
38 70 10 40 20 77 23 82 3 6 15 -26 26 -70 17 -65 25 -80 42 -82 18 -3 23 5
32 40 7 24 20 73 31 111 19 64 19 67 2 67 -14 0 -23 -19 -42 -87 l-23 -88 -21
85 c-18 71 -24 86 -42 88 -18 3 -24 -4 -32 -37 -6 -23 -16 -60 -23 -83 l-11
-43 -21 83 c-16 65 -24 82 -38 82 -10 0 -18 -6 -18 -12z"/>
<path d="M7880 12570 c0 -103 1 -110 20 -110 19 0 20 7 20 110 0 103 -1 110
-20 110 -19 0 -20 -7 -20 -110z"/>
<path d="M1675 12590 c-35 -39 3 -91 55 -75 28 9 37 51 15 75 -10 11 -26 20
-35 20 -9 0 -25 -9 -35 -20z"/>
<path d="M1960 12020 c0 -143 1 -150 20 -150 18 0 20 7 20 70 l0 70 75 0 c59
0 75 3 75 15 0 11 -17 15 -72 17 l-73 3 -3 48 -3 47 85 0 c70 0 86 3 86 15 0
12 -18 15 -105 15 l-105 0 0 -150z"/>
<path d="M2212 12153 c5 -26 38 -29 38 -4 0 15 -6 21 -21 21 -14 0 -19 -5 -17
-17z"/>
<path d="M3424 12161 c-28 -12 -54 -50 -54 -78 0 -34 24 -28 41 10 11 25 21
33 47 35 43 4 64 -13 60 -52 -2 -25 -14 -38 -58 -67 -69 -46 -88 -67 -96 -107
l-6 -32 101 0 c83 0 101 3 101 15 0 12 -15 15 -74 15 -41 0 -77 4 -80 8 -7 12
40 55 82 76 53 27 72 52 72 95 0 52 -25 81 -75 87 -22 2 -50 0 -61 -5z"/>
<path d="M3700 12149 c-7 -11 -25 -25 -41 -31 -41 -14 -38 -38 6 -38 l35 0 0
-105 c0 -98 1 -105 20 -105 19 0 20 7 20 150 0 125 -2 150 -15 150 -8 0 -19
-9 -25 -21z"/>
<path d="M4442 12153 c5 -26 38 -29 38 -4 0 15 -6 21 -21 21 -14 0 -19 -5 -17
-17z"/>
<path d="M5532 12153 c5 -26 38 -29 38 -4 0 15 -6 21 -21 21 -14 0 -19 -5 -17
-17z"/>
<path d="M6092 12060 c4 -103 10 -131 24 -118 3 3 8 56 11 117 6 111 6 111
-17 111 -22 0 -23 -1 -18 -110z"/>
<path d="M6210 12068 c0 -91 10 -142 24 -128 2 3 7 56 11 118 7 110 7 112 -14
112 -20 0 -21 -5 -21 -102z"/>
<path d="M2670 12120 c0 -20 -5 -30 -15 -30 -8 0 -15 -7 -15 -15 0 -8 7 -15
15 -15 12 0 15 -16 15 -83 0 -51 5 -88 12 -95 17 -17 58 -15 58 3 0 8 -7 15
-15 15 -12 0 -15 16 -15 80 0 64 3 80 15 80 8 0 15 7 15 15 0 8 -7 15 -15 15
-10 0 -15 10 -15 30 0 23 -4 30 -20 30 -16 0 -20 -7 -20 -30z"/>
<path d="M2910 12120 c0 -20 -5 -30 -15 -30 -8 0 -15 -7 -15 -15 0 -8 7 -15
15 -15 11 0 15 -19 17 -92 l3 -93 33 -3 c24 -2 32 1 32 12 0 9 -7 16 -15 16
-12 0 -15 16 -15 80 0 64 3 80 15 80 8 0 15 7 15 15 0 8 -7 15 -15 15 -10 0
-15 10 -15 30 0 23 -4 30 -20 30 -16 0 -20 -7 -20 -30z"/>
<path d="M4780 12120 c0 -20 -5 -30 -15 -30 -8 0 -15 -5 -15 -10 0 -6 7 -13
15 -16 11 -5 15 -24 15 -81 0 -90 10 -113 50 -113 34 0 42 25 10 33 -18 5 -20
14 -20 81 0 69 2 76 20 76 11 0 20 7 20 15 0 8 -9 15 -20 15 -16 0 -20 7 -20
30 0 23 -4 30 -20 30 -16 0 -20 -7 -20 -30z"/>
<path d="M2370 12080 c-16 -16 -20 -17 -20 -5 0 8 -9 15 -20 15 -19 0 -20 -7
-20 -110 0 -103 1 -110 20 -110 18 0 20 7 20 75 0 62 4 79 20 95 11 11 27 20
35 20 8 0 15 9 15 20 0 11 -7 20 -15 20 -8 0 -24 -9 -35 -20z"/>
<path d="M2483 12088 c-12 -6 -26 -23 -32 -39 -14 -39 11 -66 74 -82 43 -10
50 -15 50 -37 0 -22 -5 -25 -42 -28 -34 -3 -44 1 -53 17 -11 22 -40 29 -40 10
0 -65 138 -88 170 -29 26 49 2 82 -73 101 -54 13 -70 35 -42 55 26 20 52 17
72 -6 10 -11 23 -20 30 -20 22 0 14 27 -13 49 -29 23 -66 26 -101 9z"/>
<path d="M3059 12085 c-36 -19 -53 -65 -46 -122 7 -62 40 -93 102 -93 36 0 47
5 69 31 46 54 31 155 -25 185 -35 18 -66 17 -100 -1z m81 -25 c22 -12 41 -70
33 -102 -9 -36 -33 -58 -64 -58 -37 0 -59 33 -59 86 0 34 5 47 26 63 30 24 38
25 64 11z"/>
<path d="M4023 12083 c-14 -9 -23 -11 -23 -4 0 6 -9 11 -20 11 -20 0 -20 -5
-18 -152 3 -136 5 -153 21 -156 14 -3 17 5 17 52 l0 54 30 -15 c59 -29 118 16
127 99 11 97 -65 160 -134 111z m81 -39 c21 -20 21 -93 0 -122 -22 -31 -69
-30 -90 3 -18 28 -15 95 6 120 16 20 65 19 84 -1z"/>
<path d="M4250 12088 c-62 -32 -75 -140 -23 -192 35 -36 103 -36 138 -2 26 26
41 82 31 120 -16 64 -91 102 -146 74z m85 -43 c48 -47 25 -145 -35 -145 -50 0
-77 44 -66 106 7 33 37 64 64 64 7 0 24 -11 37 -25z"/>
<path d="M4600 12083 c-17 -12 -25 -13 -28 -5 -2 7 -10 12 -18 12 -11 0 -14
-22 -14 -110 0 -103 1 -110 20 -110 18 0 20 7 20 76 0 94 10 114 54 114 42 0
46 -10 46 -111 0 -74 1 -79 21 -79 20 0 21 4 17 96 -3 86 -5 98 -27 115 -29
23 -59 24 -91 2z"/>
<path d="M4916 12079 c-29 -23 -35 -69 -12 -88 8 -7 36 -18 63 -24 41 -10 48
-15 48 -37 0 -19 -6 -26 -24 -28 -35 -5 -71 7 -71 23 0 8 -9 15 -20 15 -48 0
-2 -64 54 -74 64 -12 115 32 104 91 -2 12 -23 25 -68 40 -69 23 -83 38 -54 60
25 19 51 16 74 -7 23 -23 40 -26 40 -7 0 18 -12 32 -37 46 -33 17 -67 13 -97
-10z"/>
<path d="M5690 12083 c-17 -12 -25 -13 -28 -5 -2 7 -10 12 -18 12 -11 0 -14
-22 -14 -110 0 -103 1 -110 20 -110 18 0 20 7 20 76 0 94 10 114 54 114 42 0
46 -10 46 -111 0 -74 1 -79 21 -79 20 0 21 4 17 96 -3 86 -5 98 -27 115 -29
23 -59 24 -91 2z"/>
<path d="M5885 12075 c-49 -48 -25 -91 62 -109 42 -9 60 -31 43 -51 -19 -22
-77 -19 -92 5 -13 20 -48 28 -48 11 0 -6 10 -22 23 -37 19 -22 33 -27 69 -28
61 -1 90 24 86 73 -3 34 -6 37 -63 57 -45 16 -61 27 -63 42 -2 16 3 23 21 27
26 7 67 -9 67 -25 0 -6 9 -10 19 -10 14 0 18 5 14 20 -14 52 -97 67 -138 25z"/>
<path d="M2210 11980 c0 -103 1 -110 20 -110 19 0 20 7 20 110 0 103 -1 110
-20 110 -19 0 -20 -7 -20 -110z"/>
<path d="M4440 11980 c0 -103 1 -110 20 -110 19 0 20 7 20 110 0 103 -1 110
-20 110 -19 0 -20 -7 -20 -110z"/>
<path d="M5210 12078 c0 -7 13 -56 28 -108 23 -78 32 -96 49 -98 18 -3 23 6
38 70 10 40 20 77 23 82 3 6 15 -26 26 -70 17 -65 25 -80 42 -82 18 -3 23 5
32 40 7 24 20 73 31 111 19 64 19 67 2 67 -14 0 -23 -19 -42 -87 l-23 -88 -21
85 c-18 71 -24 86 -42 88 -18 3 -24 -4 -32 -37 -6 -23 -16 -60 -23 -83 l-11
-43 -21 83 c-16 65 -24 82 -38 82 -10 0 -18 -6 -18 -12z"/>
<path d="M5530 11980 c0 -103 1 -110 20 -110 19 0 20 7 20 110 0 103 -1 110
-20 110 -19 0 -20 -7 -20 -110z"/>
<path d="M1675 12000 c-35 -39 3 -91 55 -75 28 9 37 51 15 75 -10 11 -26 20
-35 20 -9 0 -25 -9 -35 -20z"/>
<path d="M6090 11890 c0 -13 7 -20 20 -20 13 0 20 7 20 20 0 13 -7 20 -20 20
-13 0 -20 -7 -20 -20z"/>
<path d="M6210 11890 c0 -13 7 -20 20 -20 13 0 20 7 20 20 0 13 -7 20 -20 20
-13 0 -20 -7 -20 -20z"/>
<path d="M1985 11565 c-32 -31 -34 -86 -4 -114 12 -11 44 -25 73 -31 92 -22
123 -60 74 -94 -47 -33 -138 -10 -138 35 0 12 -7 19 -20 19 -28 0 -26 -44 3
-74 29 -29 85 -40 137 -26 52 14 80 42 80 79 0 49 -36 80 -115 99 -60 15 -70
20 -73 40 -5 34 25 62 65 62 32 0 73 -28 73 -50 0 -5 9 -10 20 -10 27 0 25 22
-6 59 -23 28 -31 31 -85 31 -50 0 -64 -4 -84 -25z"/>
<path d="M2480 11435 c0 -131 2 -155 15 -155 13 0 15 24 15 155 0 131 -2 155
-15 155 -13 0 -15 -24 -15 -155z"/>
<path d="M4293 11570 c-44 -27 -66 -74 -66 -141 0 -74 28 -121 85 -144 49 -19
94 -14 132 16 l26 20 0 -20 c0 -12 6 -21 15 -21 12 0 15 16 15 80 l0 80 -65 0
c-51 0 -65 -3 -65 -15 0 -11 12 -15 45 -15 42 0 45 -2 45 -25 0 -42 -41 -75
-94 -75 -37 0 -48 5 -70 31 -21 25 -26 41 -26 84 0 69 15 100 55 119 44 21 91
11 118 -25 23 -32 47 -38 47 -13 0 71 -121 111 -197 64z"/>
<path d="M2930 11430 c0 -143 1 -150 20 -150 19 0 20 7 21 123 l1 122 41 -122
c35 -104 45 -123 62 -123 17 0 27 19 62 123 l41 122 1 -122 c1 -116 2 -123 21
-123 19 0 20 7 20 150 l0 150 -29 0 c-29 0 -30 -3 -72 -127 -23 -71 -44 -121
-47 -113 -3 8 -23 66 -44 128 -39 108 -41 112 -69 112 l-29 0 0 -150z"/>
<path d="M3670 11530 c0 -53 -4 -58 -34 -35 -30 23 -65 18 -97 -14 -24 -25
-29 -37 -29 -81 0 -67 21 -105 64 -120 28 -9 40 -8 65 5 18 9 31 11 31 5 0 -5
7 -10 15 -10 13 0 15 23 15 150 0 127 -2 150 -15 150 -11 0 -15 -12 -15 -50z
m-20 -79 c16 -30 12 -107 -6 -125 -17 -17 -51 -21 -72 -8 -30 19 -36 106 -9
140 16 20 75 15 87 -7z"/>
<path d="M5700 11430 c0 -143 1 -150 20 -150 18 0 20 7 20 79 0 92 13 114 64
109 l31 -3 3 -92 c2 -85 4 -93 22 -93 18 0 20 7 20 94 0 90 -1 96 -26 115 -32
25 -61 27 -92 5 -22 -15 -22 -15 -22 35 0 44 -3 51 -20 51 -19 0 -20 -7 -20
-150z"/>
<path d="M7360 11559 c0 -25 33 -22 38 4 2 12 -3 17 -17 17 -15 0 -21 -6 -21
-21z"/>
<path d="M5590 11530 c0 -20 -5 -30 -15 -30 -8 0 -15 -7 -15 -15 0 -8 7 -15
15 -15 11 0 15 -19 17 -92 l3 -93 33 -3 c24 -2 32 1 32 12 0 9 -7 16 -15 16
-12 0 -15 16 -15 80 0 64 3 80 15 80 8 0 15 7 15 15 0 8 -7 15 -15 15 -10 0
-15 10 -15 30 0 23 -4 30 -20 30 -16 0 -20 -7 -20 -30z"/>
<path d="M2283 11500 c-55 -22 -72 -136 -27 -189 22 -26 33 -31 69 -31 32 0
52 7 72 24 25 22 28 31 28 86 0 57 -2 64 -33 91 -33 30 -67 36 -109 19z m82
-45 c48 -47 25 -145 -34 -145 -46 0 -67 37 -63 108 2 26 35 62 57 62 9 0 27
-11 40 -25z"/>
<path d="M2609 11495 c-36 -19 -53 -65 -46 -122 7 -62 40 -93 102 -93 36 0 47
5 69 31 46 54 31 155 -25 185 -35 18 -66 17 -100 -1z m81 -25 c22 -12 41 -70
33 -102 -9 -36 -33 -58 -64 -58 -37 0 -59 33 -59 86 0 34 5 47 26 63 30 24 38
25 64 11z"/>
<path d="M3319 11495 c-36 -19 -53 -65 -46 -122 7 -62 40 -93 102 -93 36 0 47
5 69 31 46 54 31 155 -25 185 -35 18 -66 17 -100 -1z m81 -25 c22 -12 41 -70
33 -102 -9 -36 -33 -58 -64 -58 -37 0 -59 33 -59 86 0 34 5 47 26 63 30 24 38
25 64 11z"/>
<path d="M3799 11495 c-46 -25 -67 -122 -39 -175 16 -29 71 -51 110 -44 42 9
93 74 57 74 -7 0 -20 -9 -30 -20 -23 -27 -82 -27 -97 -1 -24 45 -15 51 70 51
44 0 80 3 80 8 0 4 -5 24 -10 44 -19 67 -82 95 -141 63z m95 -47 c9 -12 16
-26 16 -30 0 -5 -27 -8 -60 -8 -62 0 -68 5 -50 41 15 28 74 26 94 -3z"/>
<path d="M4824 11476 c-29 -29 -34 -41 -34 -80 0 -63 21 -102 65 -116 47 -16
95 1 118 40 18 29 18 30 -2 30 -11 0 -25 -9 -31 -20 -22 -42 -110 -17 -110 31
0 17 8 19 80 19 87 0 93 5 71 63 -28 73 -101 89 -157 33z m108 -23 c34 -31 23
-43 -42 -43 -45 0 -60 3 -60 14 0 41 67 61 102 29z"/>
<path d="M5055 11485 c-49 -48 -25 -91 62 -109 42 -9 60 -31 43 -51 -19 -22
-77 -19 -92 5 -13 20 -48 28 -48 11 0 -6 10 -22 23 -37 19 -22 33 -27 69 -28
61 -1 90 24 86 73 -3 34 -6 37 -63 57 -45 16 -61 27 -63 42 -2 16 3 23 21 27
26 7 67 -9 67 -25 0 -6 9 -10 19 -10 14 0 18 5 14 20 -14 52 -97 67 -138 25z"/>
<path d="M5272 11493 c-29 -25 -37 -66 -17 -86 9 -9 35 -21 58 -27 66 -17 69
-19 65 -42 -2 -19 -10 -24 -45 -26 -34 -2 -45 1 -55 17 -16 26 -38 27 -38 3 0
-41 73 -70 128 -51 28 10 52 44 52 75 0 18 -52 50 -97 59 -41 7 -54 32 -28 51
26 19 42 17 65 -6 21 -21 50 -27 50 -10 0 6 -11 22 -25 35 -29 30 -83 33 -113
8z"/>
<path d="M5979 11495 c-46 -25 -67 -122 -39 -175 16 -29 71 -51 110 -44 42 9
93 74 57 74 -7 0 -20 -9 -30 -20 -23 -27 -82 -27 -97 -1 -24 45 -15 51 70 51
44 0 80 3 80 8 0 4 -5 24 -10 44 -19 67 -82 95 -141 63z m95 -47 c9 -12 16
-26 16 -30 0 -5 -27 -8 -60 -8 -62 0 -68 5 -50 41 15 28 74 26 94 -3z"/>
<path d="M6352 11494 c-12 -8 -22 -10 -22 -5 0 6 -9 11 -20 11 -19 0 -20 -7
-20 -110 0 -103 1 -110 20 -110 18 0 20 7 20 73 0 86 17 120 58 115 27 -3 27
-4 30 -95 2 -85 4 -93 22 -93 18 0 20 7 20 70 0 88 14 120 52 120 37 0 48 -28
48 -121 0 -55 3 -69 15 -69 12 0 15 17 15 95 0 82 -3 98 -20 115 -24 24 -57
26 -88 4 -20 -14 -24 -14 -44 0 -12 9 -32 16 -43 16 -11 0 -31 -7 -43 -16z"/>
<path d="M6674 11476 c-29 -29 -34 -41 -34 -80 0 -63 21 -102 65 -116 47 -16
95 1 118 40 18 29 18 30 -2 30 -11 0 -25 -9 -31 -20 -22 -42 -110 -17 -110 31
0 17 8 19 80 19 87 0 93 5 71 63 -28 73 -101 89 -157 33z m108 -23 c34 -31 23
-43 -42 -43 -45 0 -60 3 -60 14 0 41 67 61 102 29z"/>
<path d="M6925 11498 c-23 -13 -35 -28 -35 -45 0 -19 17 -16 40 7 11 11 27 20
36 20 27 0 54 -20 54 -40 0 -20 -7 -23 -83 -35 -72 -12 -87 -91 -23 -122 29
-13 36 -13 71 2 26 10 41 12 43 5 6 -16 52 -12 52 5 0 8 -4 15 -10 15 -6 0
-10 32 -10 75 0 67 -3 79 -25 100 -26 27 -75 33 -110 13z m95 -132 c0 -37 -26
-58 -69 -54 -26 2 -37 8 -39 22 -5 24 9 36 50 46 53 13 58 11 58 -14z"/>
<path d="M7182 11494 c-12 -8 -22 -10 -22 -5 0 6 -9 11 -20 11 -19 0 -20 -7
-20 -110 0 -103 1 -110 20 -110 18 0 20 7 20 73 0 86 16 117 60 117 40 0 50
-23 50 -114 0 -61 3 -76 15 -76 12 0 15 17 15 95 0 82 -3 98 -20 115 -24 24
-67 26 -98 4z"/>
<path d="M7512 11494 c-12 -8 -22 -10 -22 -5 0 6 -9 11 -20 11 -19 0 -20 -7
-20 -110 0 -103 1 -110 20 -110 18 0 20 7 20 73 0 86 16 117 60 117 40 0 50
-23 50 -114 0 -61 3 -76 15 -76 12 0 15 17 15 95 0 82 -3 98 -20 115 -24 24
-67 26 -98 4z"/>
<path d="M7724 11492 c-50 -40 -59 -117 -21 -172 29 -44 67 -56 108 -36 l31
15 -7 -27 c-4 -15 -11 -33 -17 -39 -15 -18 -77 -17 -84 2 -8 19 -44 20 -44 1
0 -47 110 -62 156 -23 26 23 27 27 32 155 5 130 4 132 -17 132 -11 0 -21 -5
-21 -11 0 -5 -10 -3 -22 5 -29 21 -68 20 -94 -2z m100 -44 c9 -12 16 -38 16
-58 0 -48 -24 -80 -60 -80 -18 0 -34 8 -44 22 -21 29 -21 102 0 122 23 24 70
20 88 -6z"/>
<path d="M7952 11493 c-29 -25 -37 -66 -17 -86 9 -9 35 -21 58 -27 66 -17 69
-19 65 -42 -2 -19 -10 -24 -45 -26 -34 -2 -45 1 -55 17 -16 26 -38 27 -38 3 0
-41 73 -70 128 -51 28 10 52 44 52 75 0 18 -52 50 -97 59 -41 7 -54 32 -28 51
26 19 42 17 65 -6 21 -21 50 -27 50 -10 0 6 -11 22 -25 35 -29 30 -83 33 -113
8z"/>
<path d="M8299 11495 c-36 -19 -53 -65 -46 -122 7 -62 40 -93 102 -93 36 0 47
5 69 31 46 54 31 155 -25 185 -35 18 -66 17 -100 -1z m81 -25 c22 -12 41 -70
33 -102 -9 -36 -33 -58 -64 -58 -37 0 -59 33 -59 86 0 34 5 47 26 63 30 24 38
25 64 11z"/>
<path d="M8560 11493 c-17 -12 -25 -13 -28 -5 -2 7 -10 12 -18 12 -11 0 -14
-22 -14 -110 0 -103 1 -110 20 -110 18 0 20 7 20 76 0 94 10 114 54 114 42 0
46 -10 46 -111 0 -74 1 -79 21 -79 20 0 21 4 17 96 -3 86 -5 98 -27 115 -29
23 -59 24 -91 2z"/>
<path d="M9110 11498 c-62 -32 -75 -140 -23 -192 35 -36 103 -36 138 -2 26 26
41 82 31 120 -16 64 -91 102 -146 74z m85 -43 c48 -47 25 -145 -35 -145 -50 0
-77 44 -66 106 7 33 37 64 64 64 7 0 24 -11 37 -25z"/>
<path d="M9602 11488 c-19 -19 -22 -20 -22 -5 0 9 -7 17 -15 17 -12 0 -15 -19
-15 -110 0 -91 3 -110 15 -110 12 0 15 15 15 75 0 62 4 79 20 95 11 11 27 20
35 20 8 0 15 9 15 20 0 26 -20 25 -48 -2z"/>
<path d="M9839 11495 c-36 -19 -53 -65 -46 -122 7 -62 40 -93 102 -93 36 0 47
5 69 31 46 54 31 155 -25 185 -35 18 -66 17 -100 -1z m81 -25 c22 -12 41 -70
33 -102 -9 -36 -33 -58 -64 -58 -37 0 -59 33 -59 86 0 34 5 47 26 63 30 24 38
25 64 11z"/>
<path d="M10403 11493 c-14 -9 -23 -11 -23 -4 0 6 -7 11 -15 11 -12 0 -15 -19
-15 -110 0 -91 3 -110 15 -110 12 0 15 14 15 68 0 82 15 116 53 120 48 6 57
-11 57 -104 0 -79 1 -84 21 -84 21 0 21 4 17 96 -4 86 -7 99 -27 115 -28 23
-68 24 -98 2z"/>
<path d="M4000 11480 c0 -15 7 -20 25 -20 18 0 25 5 25 20 0 15 -7 20 -25 20
-18 0 -25 -5 -25 -20z"/>
<path d="M4560 11416 c0 -101 4 -112 42 -132 31 -16 62 -12 91 14 15 14 17 13
17 -1 0 -10 7 -17 15 -17 12 0 15 19 15 110 0 103 -1 110 -20 110 -18 0 -20
-7 -20 -78 0 -87 -14 -112 -62 -112 -33 0 -38 14 -38 111 0 72 -2 79 -20 79
-18 0 -20 -7 -20 -84z"/>
<path d="M7360 11390 c0 -103 1 -110 20 -110 19 0 20 7 20 110 0 103 -1 110
-20 110 -19 0 -20 -7 -20 -110z"/>
<path d="M8866 11403 c48 -129 47 -125 35 -156 -7 -17 -18 -27 -31 -27 -11 0
-20 -7 -20 -15 0 -9 9 -15 23 -15 28 0 41 9 55 36 12 22 102 261 102 269 0 3
-9 5 -19 5 -16 0 -25 -17 -47 -85 -16 -46 -30 -82 -33 -79 -4 3 -18 40 -32 82
-20 61 -30 78 -47 80 -21 3 -20 0 14 -95z"/>
<path d="M9301 11423 c1 -108 8 -125 52 -142 35 -13 40 -13 67 8 24 17 30 19
30 6 0 -8 7 -15 15 -15 12 0 15 19 15 110 0 91 -3 110 -15 110 -12 0 -15 -13
-15 -59 0 -78 -15 -119 -48 -128 -46 -11 -57 6 -60 101 -3 78 -5 86 -22 86
-18 0 -20 -7 -19 -77z"/>
<path d="M10020 11491 c0 -4 4 -21 9 -37 6 -16 19 -62 31 -101 17 -58 25 -73
40 -73 20 0 21 4 51 125 l13 50 21 -85 c17 -69 25 -86 41 -88 21 -3 26 11 80
201 4 12 0 17 -13 17 -15 0 -23 -15 -37 -72 -11 -40 -22 -77 -26 -81 -3 -4
-15 29 -25 73 -16 71 -21 80 -41 80 -20 0 -24 -9 -40 -75 -10 -41 -21 -75 -24
-75 -3 0 -14 34 -24 75 -14 61 -21 75 -37 75 -10 0 -19 -4 -19 -9z"/>
<path d="M1675 11410 c-35 -39 3 -91 55 -75 28 9 37 51 15 75 -10 11 -26 20
-35 20 -9 0 -25 -9 -35 -20z"/>
<path d="M4000 11300 c0 -15 7 -20 25 -20 18 0 25 5 25 20 0 15 -7 20 -25 20
-18 0 -25 -5 -25 -20z"/>
<path d="M2015 10980 c-88 -58 -88 -218 0 -276 39 -25 107 -24 143 3 29 21 30
22 35 3 3 -11 12 -20 21 -20 13 0 16 13 16 80 l0 80 -70 0 c-54 0 -70 -3 -70
-14 0 -11 14 -16 48 -18 44 -3 47 -5 44 -28 -8 -66 -104 -93 -159 -46 -26 22
-28 30 -28 95 0 64 3 73 28 98 41 41 100 39 137 -5 14 -17 34 -32 43 -32 21 0
21 3 2 40 -30 59 -130 80 -190 40z"/>
<path d="M3260 10841 c0 -144 1 -151 20 -151 19 0 20 7 21 128 l1 127 42 -125
c35 -102 46 -126 63 -128 18 -3 26 11 58 110 21 62 40 116 44 120 3 4 5 -47 3
-112 -3 -115 -2 -120 17 -120 20 0 21 5 21 150 l0 150 -28 0 c-26 0 -29 -6
-66 -115 -21 -64 -42 -118 -47 -120 -4 -3 -25 48 -46 112 -39 116 -40 118 -71
121 l-32 3 0 -150z"/>
<path d="M4000 10940 c0 -51 -8 -61 -30 -35 -14 17 -53 20 -81 5 -32 -18 -52
-68 -47 -122 8 -81 68 -124 129 -94 16 8 29 10 29 5 0 -5 9 -9 20 -9 19 0 20
7 20 150 0 143 -1 150 -20 150 -17 0 -20 -7 -20 -50z m-19 -77 c8 -9 14 -37
14 -63 0 -26 -6 -54 -14 -63 -20 -25 -67 -21 -85 5 -18 26 -21 90 -6 119 13
24 72 26 91 2z"/>
<path d="M4540 10975 c0 -11 12 -15 50 -15 l50 0 0 -135 c0 -128 1 -135 20
-135 19 0 20 7 20 135 l0 135 55 0 c42 0 55 3 55 15 0 13 -21 15 -125 15 -104
0 -125 -2 -125 -15z"/>
<path d="M5060 10840 c0 -127 2 -150 15 -150 11 0 15 11 15 38 0 26 7 45 19
56 18 17 20 15 52 -38 26 -43 39 -56 57 -56 l24 0 -23 38 c-12 20 -31 49 -41
64 -24 35 -24 36 19 80 36 37 36 38 13 38 -16 0 -42 -17 -72 -47 l-48 -47 0
87 c0 71 -3 87 -15 87 -13 0 -15 -23 -15 -150z"/>
<path d="M7380 10883 c0 -132 -5 -151 -38 -160 -33 -8 -56 8 -60 41 -4 32 -42
38 -42 6 0 -79 103 -118 157 -58 15 17 19 41 22 149 3 126 2 129 -18 129 -20
0 -21 -5 -21 -107z"/>
<path d="M7860 10939 c0 -50 0 -50 -22 -35 -35 25 -71 20 -103 -14 -25 -26
-29 -39 -29 -84 0 -65 21 -100 69 -116 30 -10 40 -9 62 6 19 12 28 13 31 6 2
-7 10 -12 18 -12 11 0 14 27 14 150 0 143 -1 150 -20 150 -17 0 -20 -7 -20
-51z m-16 -81 c21 -30 20 -96 -1 -120 -19 -22 -66 -24 -83 -3 -21 25 -24 92
-6 120 21 33 68 34 90 3z"/>
<path d="M9170 10940 c0 -53 -4 -58 -34 -35 -30 23 -65 18 -97 -14 -24 -25
-29 -37 -29 -81 0 -67 21 -105 64 -120 28 -9 40 -8 65 5 18 9 31 11 31 5 0 -5
7 -10 15 -10 13 0 15 23 15 150 0 127 -2 150 -15 150 -11 0 -15 -12 -15 -50z
m-20 -79 c16 -30 12 -107 -6 -125 -17 -17 -51 -21 -72 -8 -30 19 -36 106 -9
140 16 20 75 15 87 -7z"/>
<path d="M5640 10945 c0 -14 -7 -28 -15 -31 -19 -8 -20 -34 0 -34 11 0 15 -19
17 -92 l3 -93 33 -3 c36 -4 47 22 12 31 -18 5 -20 14 -20 81 0 69 2 76 20 76
11 0 20 6 20 14 0 7 -9 16 -20 19 -14 3 -20 14 -20 31 0 16 -6 26 -15 26 -9 0
-15 -9 -15 -25z"/>
<path d="M2352 10904 c-12 -8 -22 -10 -22 -5 0 6 -9 11 -20 11 -19 0 -20 -7
-20 -110 0 -103 1 -110 20 -110 18 0 20 7 20 78 0 83 14 112 53 112 10 0 17 8
17 20 0 24 -18 26 -48 4z"/>
<path d="M2473 10910 c-55 -22 -72 -136 -27 -189 22 -26 33 -31 69 -31 32 0
52 7 72 24 25 22 28 31 28 86 0 57 -2 64 -33 91 -33 30 -67 36 -109 19z m82
-45 c48 -47 25 -145 -34 -145 -46 0 -67 37 -63 108 2 26 35 62 57 62 9 0 27
-11 40 -25z"/>
<path d="M2960 10903 c-17 -12 -25 -13 -28 -5 -2 7 -10 12 -18 12 -11 0 -14
-28 -14 -155 0 -131 2 -155 15 -155 12 0 15 13 15 56 0 49 2 55 15 44 27 -23
83 -16 113 13 24 24 27 35 27 93 0 60 -3 68 -28 90 -33 28 -63 30 -97 7z m80
-42 c15 -29 12 -93 -6 -119 -17 -24 -65 -30 -82 -9 -20 24 -23 74 -8 111 13
32 19 36 50 36 25 0 38 -6 46 -19z"/>
<path d="M3665 10911 c-56 -23 -82 -109 -51 -169 20 -39 44 -52 94 -52 72 0
114 69 92 152 -17 60 -79 91 -135 69z m72 -36 c12 -9 25 -31 29 -49 11 -62
-16 -106 -66 -106 -60 0 -83 98 -35 145 28 29 42 31 72 10z"/>
<path d="M4114 10886 c-29 -29 -34 -41 -34 -80 0 -63 21 -102 65 -116 47 -16
95 1 118 40 18 29 18 30 -2 30 -11 0 -25 -9 -31 -20 -22 -42 -110 -17 -110 31
0 17 8 19 80 19 87 0 93 5 71 63 -28 73 -101 89 -157 33z m108 -23 c34 -31 23
-43 -42 -43 -45 0 -60 3 -60 14 0 41 67 61 102 29z"/>
<path d="M4854 10906 c-26 -19 -38 -56 -18 -56 8 0 23 9 34 20 11 11 27 20 36
20 27 0 54 -20 54 -40 0 -20 -7 -23 -82 -35 -60 -9 -90 -73 -50 -107 29 -26
60 -31 94 -14 21 11 35 13 42 6 16 -16 56 -12 56 5 0 8 -4 15 -9 15 -5 0 -11
36 -13 80 -2 57 -8 84 -20 96 -23 23 -98 29 -124 10z m106 -128 c0 -33 -29
-58 -67 -58 -59 0 -57 58 3 71 54 12 64 10 64 -13z"/>
<path d="M5311 10904 c-26 -19 -51 -71 -51 -109 0 -72 70 -126 136 -105 31 10
64 43 64 62 0 16 -36 7 -48 -12 -8 -14 -23 -20 -46 -20 -35 0 -49 11 -60 48
-7 22 -6 22 75 22 l82 0 -6 42 c-10 75 -87 113 -146 72z m106 -54 l12 -25 -60
-3 c-34 -2 -64 -1 -67 2 -2 3 3 17 12 31 23 36 84 33 103 -5z"/>
<path d="M6042 10898 c-19 -19 -22 -20 -22 -5 0 9 -7 17 -15 17 -12 0 -15 -19
-15 -110 0 -103 1 -110 20 -110 18 0 20 7 20 79 0 85 12 111 51 111 12 0 19 7
19 20 0 27 -30 26 -58 -2z"/>
<path d="M6183 10903 c-14 -9 -23 -11 -23 -4 0 6 -7 11 -15 11 -12 0 -15 -19
-15 -110 0 -91 3 -110 15 -110 12 0 15 14 15 68 0 82 15 116 53 120 48 6 57
-11 57 -104 0 -79 1 -84 21 -84 21 0 21 4 17 96 -4 86 -7 99 -27 115 -28 23
-68 24 -98 2z"/>
<path d="M6386 10899 c-29 -23 -35 -69 -12 -88 8 -7 36 -18 63 -24 41 -10 48
-15 48 -37 0 -19 -6 -26 -24 -28 -35 -5 -71 7 -71 23 0 8 -9 15 -20 15 -48 0
-2 -64 54 -74 64 -12 115 32 104 91 -2 12 -23 25 -68 40 -69 23 -83 38 -54 60
25 19 51 16 74 -7 23 -23 40 -26 40 -7 0 18 -12 32 -37 46 -33 17 -67 13 -97
-10z"/>
<path d="M6735 10908 c-23 -13 -35 -28 -35 -45 0 -19 17 -16 40 7 11 11 27 20
36 20 27 0 54 -20 54 -40 0 -20 -7 -23 -83 -35 -72 -12 -87 -91 -23 -122 29
-13 36 -13 71 2 26 10 41 12 43 5 6 -16 52 -12 52 5 0 8 -4 15 -10 15 -6 0
-10 32 -10 75 0 67 -3 79 -25 100 -26 27 -75 33 -110 13z m95 -132 c0 -37 -26
-58 -69 -54 -26 2 -37 8 -39 22 -5 24 9 36 50 46 53 13 58 11 58 -14z"/>
<path d="M6956 10899 c-29 -23 -35 -69 -12 -88 8 -7 36 -18 63 -24 41 -10 48
-15 48 -37 0 -19 -6 -26 -24 -28 -35 -5 -71 7 -71 23 0 8 -9 15 -20 15 -48 0
-2 -64 54 -74 64 -12 115 32 104 91 -2 12 -23 25 -68 40 -69 23 -83 38 -54 60
25 19 51 16 74 -7 23 -23 40 -26 40 -7 0 18 -12 32 -37 46 -33 17 -67 13 -97
-10z"/>
<path d="M7984 10902 c-50 -40 -59 -117 -21 -172 29 -44 67 -56 108 -36 l31
15 -7 -27 c-4 -15 -11 -33 -17 -39 -15 -18 -77 -17 -84 2 -8 19 -44 20 -44 1
0 -47 110 -62 156 -23 26 23 27 27 32 155 5 130 4 132 -17 132 -11 0 -21 -5
-21 -11 0 -5 -10 -3 -22 5 -29 21 -68 20 -94 -2z m100 -44 c9 -12 16 -38 16
-58 0 -48 -24 -80 -60 -80 -18 0 -34 8 -44 22 -21 29 -21 102 0 122 23 24 70
20 88 -6z"/>
<path d="M8214 10886 c-29 -29 -34 -41 -34 -80 0 -63 21 -102 65 -116 47 -16
95 1 118 40 18 29 18 30 -2 30 -11 0 -25 -9 -31 -20 -22 -42 -110 -17 -110 31
0 17 8 19 80 19 87 0 93 5 71 63 -28 73 -101 89 -157 33z m108 -23 c34 -31 23
-43 -42 -43 -45 0 -60 3 -60 14 0 41 67 61 102 29z"/>
<path d="M8585 10908 c-23 -13 -35 -28 -35 -45 0 -19 17 -16 40 7 11 11 27 20
36 20 27 0 54 -20 54 -40 0 -20 -7 -23 -83 -35 -72 -12 -87 -91 -23 -122 29
-13 36 -13 71 2 26 10 41 12 43 5 6 -16 52 -12 52 5 0 8 -4 15 -10 15 -6 0
-10 32 -10 75 0 67 -3 79 -25 100 -26 27 -75 33 -110 13z m95 -132 c0 -37 -26
-58 -69 -54 -26 2 -37 8 -39 22 -5 24 9 36 50 46 53 13 58 11 58 -14z"/>
<path d="M8842 10904 c-12 -8 -22 -10 -22 -5 0 6 -9 11 -20 11 -19 0 -20 -7
-20 -110 0 -103 1 -110 20 -110 18 0 20 7 20 78 0 90 16 116 67 110 l28 -3 3
-92 c2 -85 4 -93 22 -93 18 0 20 7 20 94 0 90 -1 96 -26 115 -32 25 -61 27
-92 5z"/>
<path d="M2670 10821 c0 -49 3 -96 6 -105 9 -24 68 -40 96 -25 13 7 26 17 30
23 5 7 8 4 8 -6 0 -11 8 -18 20 -18 19 0 20 7 20 110 0 103 -1 110 -20 110
-18 0 -20 -7 -20 -73 0 -86 -16 -117 -60 -117 -40 0 -50 23 -50 114 0 61 -3
76 -15 76 -12 0 -15 -17 -15 -89z"/>
<path d="M4330 10890 c0 -15 7 -20 25 -20 18 0 25 5 25 20 0 15 -7 20 -25 20
-18 0 -25 -5 -25 -20z"/>
<path d="M5750 10821 c0 -49 3 -96 6 -105 9 -24 68 -40 96 -25 13 7 26 17 30
23 5 7 8 4 8 -6 0 -11 8 -18 20 -18 19 0 20 7 20 110 0 103 -1 110 -20 110
-18 0 -20 -7 -20 -73 0 -86 -16 -117 -60 -117 -40 0 -50 23 -50 114 0 61 -3
76 -15 76 -12 0 -15 -17 -15 -89z"/>
<path d="M7480 10817 c0 -77 3 -97 18 -109 28 -26 60 -31 92 -14 17 8 30 10
30 5 0 -5 9 -9 20 -9 19 0 20 7 20 110 0 103 -1 110 -20 110 -18 0 -20 -7 -20
-73 0 -90 -16 -120 -63 -115 l-32 3 -3 93 c-2 84 -4 92 -22 92 -18 0 -20 -7
-20 -93z"/>
<path d="M1675 10820 c-35 -39 3 -91 55 -75 28 9 37 51 15 75 -10 11 -26 20
-35 20 -9 0 -25 -9 -35 -20z"/>
<path d="M4330 10710 c0 -15 7 -20 25 -20 18 0 25 5 25 20 0 15 -7 20 -25 20
-18 0 -25 -5 -25 -20z"/>
<path d="M3738 10399 c-12 -6 -18 -22 -18 -44 0 -24 -5 -35 -15 -35 -8 0 -15
-7 -15 -15 0 -8 7 -15 15 -15 12 0 15 -17 15 -95 0 -78 3 -95 15 -95 12 0 15
17 15 95 0 88 1 95 20 95 11 0 20 6 20 14 0 7 -9 16 -20 19 -11 3 -20 12 -20
21 0 9 9 21 20 28 42 26 10 52 -32 27z"/>
<path d="M4440 10250 c0 -143 1 -150 20 -150 18 0 20 7 20 78 0 88 14 112 63
112 37 0 47 -25 47 -114 0 -61 3 -76 15 -76 12 0 15 17 15 95 0 82 -3 98 -20
115 -24 24 -67 26 -98 4 -22 -15 -22 -15 -22 35 0 44 -3 51 -20 51 -19 0 -20
-7 -20 -150z"/>
<path d="M5030 10250 c0 -143 1 -150 20 -150 11 0 20 4 20 9 0 5 13 3 29 -5
44 -22 96 2 117 52 43 103 -44 214 -124 158 -22 -15 -22 -15 -22 35 0 44 -3
51 -20 51 -19 0 -20 -7 -20 -150z m146 15 c18 -28 15 -95 -6 -120 -17 -20 -59
-19 -82 2 -23 20 -24 90 -2 121 22 31 69 30 90 -3z"/>
<path d="M3240 10350 c0 -20 -5 -30 -15 -30 -8 0 -15 -7 -15 -15 0 -8 7 -15
15 -15 12 0 15 -16 15 -83 0 -51 5 -88 12 -95 17 -17 58 -15 58 3 0 8 -7 15
-15 15 -12 0 -15 16 -15 80 0 64 3 80 15 80 8 0 15 7 15 15 0 8 -7 15 -15 15
-10 0 -15 10 -15 30 0 23 -4 30 -20 30 -16 0 -20 -7 -20 -30z"/>
<path d="M4330 10350 c0 -20 -5 -30 -15 -30 -8 0 -15 -7 -15 -15 0 -8 7 -15
15 -15 12 0 15 -16 15 -83 0 -51 5 -88 12 -95 17 -17 58 -15 58 3 0 8 -7 15
-15 15 -12 0 -15 16 -15 80 0 64 3 80 15 80 8 0 15 7 15 15 0 8 -7 15 -15 15
-10 0 -15 10 -15 30 0 23 -4 30 -20 30 -16 0 -20 -7 -20 -30z"/>
<path d="M5730 10350 c0 -20 -5 -30 -15 -30 -8 0 -15 -7 -15 -15 0 -8 7 -15
15 -15 12 0 15 -16 15 -83 0 -51 5 -88 12 -95 17 -17 58 -15 58 3 0 8 -7 15
-15 15 -12 0 -15 16 -15 80 0 64 3 80 15 80 8 0 15 7 15 15 0 8 -7 15 -15 15
-10 0 -15 10 -15 30 0 23 -4 30 -20 30 -16 0 -20 -7 -20 -30z"/>
<path d="M1979 10302 c-39 -35 -51 -110 -25 -160 34 -65 140 -61 164 7 10 27
9 31 -7 31 -10 0 -23 -11 -29 -25 -9 -18 -19 -25 -41 -25 -37 0 -61 31 -61 80
0 20 7 46 16 58 20 29 69 30 86 2 7 -11 20 -20 29 -20 24 0 13 35 -19 60 -35
28 -76 25 -113 -8z"/>
<path d="M2210 10318 c-62 -32 -75 -140 -23 -192 35 -36 103 -36 138 -2 26 26
41 82 31 120 -16 64 -91 102 -146 74z m85 -43 c48 -47 25 -145 -35 -145 -50 0
-77 44 -66 106 7 33 37 64 64 64 7 0 24 -11 37 -25z"/>
<path d="M2462 10314 c-12 -8 -22 -10 -22 -5 0 6 -9 11 -20 11 -19 0 -20 -7
-20 -110 0 -103 1 -110 20 -110 18 0 20 7 20 73 0 86 17 120 58 115 27 -3 27
-4 30 -95 2 -85 4 -93 22 -93 18 0 20 7 20 70 0 88 14 120 52 120 37 0 48 -28
48 -121 0 -55 3 -69 15 -69 12 0 15 17 15 95 0 82 -3 98 -20 115 -24 24 -57
26 -88 4 -20 -14 -24 -14 -44 0 -12 9 -32 16 -43 16 -11 0 -31 -7 -43 -16z"/>
<path d="M2813 10313 c-14 -9 -23 -11 -23 -4 0 6 -9 11 -20 11 -20 0 -20 -5
-18 -152 3 -136 5 -153 21 -156 14 -3 17 5 17 52 l0 54 30 -15 c59 -29 118 16
127 99 11 97 -65 160 -134 111z m81 -39 c21 -20 21 -93 0 -122 -22 -31 -69
-30 -90 3 -18 28 -15 95 6 120 16 20 65 19 84 -1z"/>
<path d="M3039 10315 c-46 -25 -67 -122 -39 -175 16 -29 71 -51 110 -44 42 9
93 74 57 74 -7 0 -20 -9 -30 -20 -23 -27 -82 -27 -97 -1 -24 45 -15 51 70 51
44 0 80 3 80 8 0 4 -5 24 -10 44 -19 67 -82 95 -141 63z m95 -47 c9 -12 16
-26 16 -30 0 -5 -27 -8 -60 -8 -62 0 -68 5 -50 41 15 28 74 26 94 -3z"/>
<path d="M3391 10314 c-26 -19 -51 -71 -51 -109 0 -72 70 -126 136 -105 31 10
64 43 64 62 0 16 -36 7 -48 -12 -8 -14 -23 -20 -46 -20 -35 0 -49 11 -60 48
-7 22 -6 22 75 22 l82 0 -6 42 c-10 75 -87 113 -146 72z m106 -54 l12 -25 -60
-3 c-34 -2 -64 -1 -67 2 -2 3 3 17 12 31 23 36 84 33 103 -5z"/>
<path d="M3870 10318 c-62 -32 -75 -140 -23 -192 35 -36 103 -36 138 -2 26 26
41 82 31 120 -16 64 -91 102 -146 74z m85 -43 c48 -47 25 -145 -35 -145 -50 0
-77 44 -66 106 7 33 37 64 64 64 7 0 24 -11 37 -25z"/>
<path d="M4122 10308 c-19 -19 -22 -20 -22 -5 0 9 -7 17 -15 17 -12 0 -15 -19
-15 -110 0 -103 1 -110 20 -110 18 0 20 7 20 79 0 85 12 111 51 111 12 0 19 7
19 20 0 27 -30 26 -58 -2z"/>
<path d="M4709 10302 c-27 -24 -33 -38 -37 -83 -4 -48 -1 -59 22 -86 45 -54
132 -50 162 8 13 27 13 29 -3 29 -10 0 -24 -9 -31 -20 -18 -29 -76 -27 -96 2
-30 42 -22 48 64 48 79 0 80 0 80 25 0 92 -94 137 -161 77z m105 -28 c32 -32
20 -44 -44 -44 -33 0 -60 3 -60 8 0 4 7 18 16 30 18 26 65 30 88 6z"/>
<path d="M5311 10314 c-26 -19 -51 -71 -51 -109 0 -72 70 -126 136 -105 31 10
64 43 64 62 0 16 -36 7 -48 -12 -8 -14 -23 -20 -46 -20 -35 0 -49 11 -60 48
-7 22 -6 22 75 22 l82 0 -6 42 c-10 75 -87 113 -146 72z m106 -54 l12 -25 -60
-3 c-34 -2 -64 -1 -67 2 -2 3 3 17 12 31 23 36 84 33 103 -5z"/>
<path d="M5543 10318 c-12 -6 -26 -23 -32 -39 -14 -39 11 -66 74 -82 43 -10
50 -15 50 -37 0 -22 -5 -25 -42 -28 -34 -3 -44 1 -53 17 -11 22 -40 29 -40 10
0 -65 138 -88 170 -29 26 49 2 82 -73 101 -54 13 -70 35 -42 55 26 20 52 17
72 -6 10 -11 23 -20 30 -20 22 0 14 27 -13 49 -29 23 -66 26 -101 9z"/>
<path d="M5985 10305 c-14 -13 -25 -29 -25 -35 0 -17 29 -11 50 10 24 24 53
26 74 4 30 -30 13 -48 -52 -57 -52 -6 -82 -31 -82 -67 0 -56 84 -86 128 -47
17 16 20 16 25 2 4 -8 18 -15 32 -15 27 0 34 17 10 26 -12 5 -15 25 -15 90 0
82 0 84 -30 99 -43 22 -87 19 -115 -10z m115 -113 c0 -35 -29 -62 -66 -62 -60
0 -58 58 2 71 51 12 64 10 64 -9z"/>
<path d="M6260 10313 c-17 -12 -25 -13 -28 -5 -2 7 -10 12 -18 12 -11 0 -14
-22 -14 -110 0 -103 1 -110 20 -110 18 0 20 7 20 76 0 94 10 114 54 114 42 0
46 -10 46 -111 0 -74 1 -79 21 -79 20 0 21 4 17 96 -3 86 -5 98 -27 115 -29
23 -59 24 -91 2z"/>
<path d="M6455 10305 c-49 -48 -25 -91 62 -109 42 -9 60 -31 43 -51 -19 -22
-77 -19 -92 5 -13 20 -48 28 -48 11 0 -6 10 -22 23 -37 19 -22 33 -27 69 -28
61 -1 90 24 86 73 -3 34 -6 37 -63 57 -45 16 -61 27 -63 42 -2 16 3 23 21 27
26 7 67 -9 67 -25 0 -6 9 -10 19 -10 14 0 18 5 14 20 -14 52 -97 67 -138 25z"/>
<path d="M6999 10315 c-46 -25 -67 -122 -39 -175 16 -29 71 -51 110 -44 42 9
93 74 57 74 -7 0 -20 -9 -30 -20 -23 -27 -82 -27 -97 -1 -24 45 -15 51 70 51
44 0 80 3 80 8 0 4 -5 24 -10 44 -19 67 -82 95 -141 63z m95 -47 c9 -12 16
-26 16 -30 0 -5 -27 -8 -60 -8 -62 0 -68 5 -50 41 15 28 74 26 94 -3z"/>
<path d="M7252 10308 c-19 -19 -22 -20 -22 -5 0 9 -7 17 -15 17 -12 0 -15 -19
-15 -110 0 -103 1 -110 20 -110 18 0 20 7 20 79 0 85 12 111 51 111 12 0 19 7
19 20 0 27 -30 26 -58 -2z"/>
<path d="M7355 10305 c-49 -48 -25 -91 62 -109 42 -9 60 -31 43 -51 -19 -22
-77 -19 -92 5 -13 20 -48 28 -48 11 0 -6 10 -22 23 -37 19 -22 33 -27 69 -28
61 -1 90 24 86 73 -3 34 -6 37 -63 57 -45 16 -61 27 -63 42 -2 16 3 23 21 27
26 7 67 -9 67 -25 0 -6 9 -10 19 -10 14 0 18 5 14 20 -14 52 -97 67 -138 25z"/>
<path d="M6630 10311 c0 -4 4 -21 9 -37 6 -16 19 -62 31 -101 17 -58 25 -73
40 -73 20 0 21 4 51 125 l13 50 21 -85 c17 -69 25 -86 41 -88 21 -3 26 11 80
201 4 12 0 17 -13 17 -15 0 -23 -15 -37 -72 -11 -40 -22 -77 -26 -81 -3 -4
-15 29 -25 73 -16 71 -21 80 -41 80 -20 0 -24 -9 -40 -75 -10 -41 -21 -75 -24
-75 -3 0 -14 34 -24 75 -14 61 -21 75 -37 75 -10 0 -19 -4 -19 -9z"/>
</g>
</svg>
