<?xml version="1.0" standalone="no"?>
<!DOCTYPE svg PUBLIC "-//W3C//DTD SVG 20010904//EN"
 "http://www.w3.org/TR/2001/REC-SVG-20010904/DTD/svg10.dtd">
<svg version="1.0" xmlns="http://www.w3.org/2000/svg"
 width="1000.000000pt" height="1000.000000pt" viewBox="0 0 1000.000000 1000.000000"
 preserveAspectRatio="xMidYMid meet">

<g transform="translate(0.000000,1000.000000) scale(0.100000,-0.100000)"
fill="#000000" stroke="none">
<path d="M3003 5680 c-62 -18 -167 -69 -159 -78 3 -2 34 8 70 22 78 31 86 32
55 5 -18 -16 -20 -22 -10 -28 9 -6 -5 -11 -40 -16 -98 -12 -113 -21 -173 -100
-31 -41 -54 -75 -51 -75 4 0 26 14 50 30 51 35 75 38 75 9 0 -11 4 -18 9 -15
14 9 20 -30 14 -87 -4 -42 -1 -59 16 -87 11 -19 21 -42 21 -51 0 -9 9 -24 20
-34 20 -18 21 -18 14 1 -4 10 -11 26 -17 34 -5 8 7 -3 27 -25 20 -22 34 -46
31 -52 -2 -7 2 -13 9 -13 7 0 19 -6 25 -14 7 -8 27 -17 46 -20 19 -4 47 -13
62 -21 15 -8 33 -15 38 -15 6 0 23 -14 38 -31 19 -22 33 -30 47 -26 13 3 24
-1 30 -14 8 -14 4 -30 -17 -68 l-28 -49 34 -70 c22 -45 43 -74 59 -81 24 -12
25 -14 18 -89 -3 -42 -10 -93 -16 -112 -25 -94 -19 -120 27 -120 21 0 23 3 14
14 -10 12 -1 26 48 75 32 34 62 61 66 61 15 0 161 144 172 170 7 15 24 45 38
65 14 21 25 41 25 45 0 4 -31 21 -69 38 -53 24 -70 37 -73 54 -2 14 -15 28
-33 37 -16 8 -45 27 -64 43 -18 16 -39 27 -47 24 -7 -3 -29 1 -47 9 -29 12
-37 12 -62 -1 -16 -8 -45 -14 -65 -12 -31 3 -35 6 -38 36 -3 28 -7 32 -33 32
-31 0 -35 10 -19 40 16 29 -8 36 -35 10 -28 -27 -51 -21 -65 15 -14 36 1 60
51 84 46 22 65 19 96 -18 24 -28 31 -14 11 19 -10 16 -9 23 10 43 13 13 22 28
20 33 -6 21 28 74 48 74 11 0 29 7 40 15 10 8 27 15 37 15 10 0 17 4 15 9 -7
20 -124 106 -139 103 -10 -2 -20 1 -23 7 -3 5 3 7 14 4 15 -4 20 0 20 15 0 32
-46 79 -85 86 -21 4 -35 13 -35 22 0 10 5 12 18 5 9 -5 36 -17 58 -26 23 -9
58 -36 78 -61 20 -24 50 -51 66 -59 l29 -15 -6 36 c-4 25 -2 39 8 45 17 11 -6
32 -86 80 l-50 30 67 -3 c36 -2 64 0 61 5 -2 4 -70 7 -151 6 -111 0 -162 -5
-209 -19z m161 -112 c-4 -6 0 -14 7 -19 11 -7 10 -9 -4 -9 -17 0 -17 -1 0 -32
10 -18 22 -36 27 -40 11 -7 -21 -17 -69 -21 -16 -1 -30 3 -30 8 0 6 10 10 23
9 41 -2 15 23 -32 30 -5 0 -11 6 -13 13 -6 16 41 45 61 37 13 -5 15 -1 9 27
-6 31 -5 33 10 20 9 -7 14 -18 11 -23z m-184 -18 c0 -5 -5 -10 -11 -10 -5 0
-7 5 -4 10 3 6 8 10 11 10 2 0 4 -4 4 -10z m57 -60 c-12 -20 -32 -17 -20 3 5
9 3 9 -8 0 -8 -6 -19 -9 -25 -5 -16 11 -10 37 8 37 9 0 20 4 25 8 4 5 13 1 20
-9 9 -12 9 -21 0 -34z m90 -65 c0 -8 -6 -15 -14 -15 -17 0 -17 17 0 23 6 3 12
6 13 6 0 1 1 -6 1 -14z m193 -6 c0 -5 -4 -9 -10 -9 -5 0 -10 7 -10 16 0 8 5
12 10 9 6 -3 10 -10 10 -16z"/>
<path d="M3420 5541 c0 -11 50 -24 58 -16 8 8 -19 25 -40 25 -10 0 -18 -4 -18
-9z"/>
<path d="M4262 5474 c-68 -35 -107 -118 -100 -213 9 -118 68 -183 172 -189 92
-5 152 35 175 116 l10 32 -44 0 c-37 0 -44 -3 -49 -25 -7 -26 -51 -55 -85 -55
-12 0 -35 13 -53 29 -29 26 -32 34 -36 97 -3 76 7 105 50 137 37 28 93 17 116
-24 15 -25 23 -29 60 -29 29 0 42 4 42 14 0 20 -41 76 -73 100 -37 28 -139 33
-185 10z"/>
<path d="M6312 5469 c-66 -33 -97 -93 -96 -189 0 -82 13 -117 61 -162 36 -35
73 -48 131 -48 117 1 192 83 192 210 0 91 -38 161 -104 191 -55 25 -130 24
-184 -2z m165 -84 c35 -35 35 -36 31 -111 -3 -71 -6 -78 -36 -105 -77 -69
-172 -9 -172 109 0 128 97 187 177 107z"/>
<path d="M4656 5373 c-21 -59 -53 -150 -72 -201 l-34 -93 47 3 c43 3 47 5 58
38 l12 35 75 3 75 3 12 -41 c11 -39 13 -40 56 -40 25 0 45 3 45 8 0 4 -30 93
-68 197 l-67 190 -50 3 -51 3 -38 -108z m134 -135 c0 -4 -20 -8 -45 -8 -31 0
-45 4 -45 13 0 11 18 72 37 127 4 13 53 -108 53 -132z"/>
<path d="M4990 5280 l0 -200 140 0 140 0 0 35 0 35 -100 0 -100 0 0 165 0 165
-40 0 -40 0 0 -200z"/>
<path d="M5330 5280 l0 -200 140 0 140 0 0 35 0 34 -97 3 -98 3 -3 163 -2 162
-40 0 -40 0 0 -200z"/>
<path d="M5660 5280 l0 -200 45 0 45 0 0 200 0 200 -45 0 -45 0 0 -200z"/>
<path d="M5830 5280 l0 -200 105 0 c117 0 146 9 188 60 52 61 58 206 12 277
-34 51 -71 63 -192 63 l-113 0 0 -200z m215 107 c47 -40 47 -166 0 -213 -20
-20 -34 -24 -80 -24 l-55 0 0 130 0 130 54 0 c43 0 61 -5 81 -23z"/>
<path d="M6670 5280 l0 -200 40 0 40 0 0 81 0 81 59 -4 c77 -5 91 -18 91 -78
0 -72 5 -80 56 -80 41 0 44 2 40 23 -3 12 -8 47 -11 78 -4 38 -13 63 -26 75
-19 17 -19 17 1 31 11 8 25 31 31 52 9 31 8 44 -5 73 -28 58 -57 68 -195 68
l-121 0 0 -200z m224 114 c19 -19 21 -58 3 -72 -14 -12 -50 -17 -109 -14 l-38
2 0 50 0 50 64 0 c45 0 69 -5 80 -16z"/>
<path d="M7175 5463 c-3 -10 -33 -92 -65 -183 -32 -91 -61 -173 -65 -182 -6
-16 -1 -18 39 -18 44 0 45 1 57 40 l12 41 75 -3 75 -3 12 -35 c11 -33 15 -35
58 -38 26 -2 47 -1 47 1 0 6 -85 246 -116 330 l-26 67 -48 0 c-36 0 -49 -4
-55 -17z m79 -150 c10 -32 21 -64 23 -70 4 -10 -9 -13 -47 -13 -38 0 -51 3
-47 13 2 6 13 38 23 70 10 31 21 57 24 57 3 0 14 -26 24 -57z"/>
<path d="M2670 5450 c0 -5 7 -7 15 -4 8 4 15 8 15 10 0 2 -7 4 -15 4 -8 0 -15
-4 -15 -10z"/>
<path d="M3733 5434 c-3 -9 0 -19 6 -24 7 -4 13 -13 15 -21 1 -8 7 -24 14 -36
16 -29 15 -32 -8 -26 -18 5 -20 0 -20 -35 0 -25 5 -42 14 -45 20 -8 9 -45 -19
-63 -27 -17 -33 -31 -46 -98 -8 -42 -6 -54 13 -87 25 -45 41 -52 84 -40 66 19
76 -23 50 -209 -9 -66 -10 -89 -2 -76 6 10 20 29 32 42 32 36 59 252 44 359
-13 97 -19 117 -30 110 -5 -3 -14 4 -21 16 -10 19 -9 21 5 16 22 -8 20 3 -7
65 -32 71 -90 162 -83 128 4 -19 2 -17 -9 8 -17 36 -23 39 -32 16z m95 -156
c19 -19 14 -28 -13 -28 -27 0 -28 1 -19 24 7 19 16 20 32 4z"/>
<path d="M2565 5290 c-27 -53 -55 -180 -53 -244 l2 -61 3 58 c3 35 9 60 17 63
9 4 12 20 8 55 -4 42 -2 48 11 43 16 -6 31 27 26 57 -1 8 1 22 6 32 14 32 -3
30 -20 -3z m5 -45 c0 -8 -4 -15 -10 -15 -5 0 -7 7 -4 15 4 8 8 15 10 15 2 0 4
-7 4 -15z"/>
<path d="M3180 5159 c-13 -9 -13 -10 0 -6 8 2 30 -2 48 -10 17 -7 32 -9 32 -4
0 5 -14 14 -31 20 -38 13 -31 13 -49 0z"/>
<path d="M3313 5113 c9 -2 23 -2 30 0 6 3 -1 5 -18 5 -16 0 -22 -2 -12 -5z"/>
<path d="M2550 5043 c0 -12 6 -28 13 -35 8 -7 12 -19 9 -26 -2 -6 2 -12 8 -12
15 0 5 44 -16 74 l-14 20 0 -21z"/>
<path d="M2537 4957 c-13 -33 -9 -70 8 -63 10 4 15 -1 15 -16 0 -27 18 -12 24
19 3 14 -2 23 -14 26 -10 3 -20 15 -22 28 -3 21 -4 22 -11 6z"/>
<path d="M2851 4953 c7 -12 15 -20 18 -17 3 2 -3 12 -13 22 -17 16 -18 16 -5
-5z"/>
<path d="M2512 4930 c0 -19 2 -27 5 -17 2 9 2 25 0 35 -3 9 -5 1 -5 -18z"/>
<path d="M2602 4908 c3 -15 0 -29 -6 -32 -6 -2 -3 -5 7 -5 14 -1 16 4 11 27
-9 36 -18 44 -12 10z"/>
<path d="M2626 4886 c3 -8 17 -22 30 -31 14 -9 22 -20 19 -25 -3 -5 7 -12 22
-15 15 -4 36 -10 45 -16 24 -13 34 -11 20 3 -16 16 -15 28 2 28 7 0 20 7 27
17 13 15 12 15 -8 2 -19 -12 -27 -11 -61 9 -22 12 -49 22 -61 22 -11 0 -21 5
-21 10 0 6 -4 10 -10 10 -5 0 -7 -6 -4 -14z"/>
<path d="M2532 4860 c5 -16 48 -46 48 -34 0 5 -12 18 -27 28 -16 12 -24 14
-21 6z"/>
<path d="M2810 4830 c0 -5 5 -10 11 -10 5 0 7 5 4 10 -3 6 -8 10 -11 10 -2 0
-4 -4 -4 -10z"/>
<path d="M2840 4803 c8 -3 18 -11 22 -17 4 -6 10 -7 15 -3 9 10 -16 27 -37 26
-13 -1 -13 -1 0 -6z"/>
<path d="M2630 4790 c0 -6 -6 -10 -14 -10 -7 0 -19 -14 -27 -31 -11 -29 -10
-37 12 -78 17 -33 30 -46 46 -46 14 0 47 -24 85 -60 34 -33 56 -52 49 -42 -8
9 -9 17 -4 17 12 0 33 45 33 70 0 11 -5 20 -11 20 -5 0 -8 4 -5 8 3 5 -5 24
-18 43 -13 19 -33 52 -45 74 -11 22 -21 32 -21 22 0 -20 -25 -23 -37 -4 -10
17 -43 30 -43 17z"/>
<path d="M4730 4769 c-42 -16 -60 -49 -60 -107 0 -43 5 -58 24 -77 33 -33 68
-40 106 -22 16 9 30 11 30 6 0 -5 7 -9 15 -9 12 0 15 13 15 55 l0 55 -45 0
c-33 0 -45 -4 -45 -15 0 -9 9 -15 25 -15 30 0 32 -11 5 -35 -31 -28 -72 -10
-83 35 -18 74 38 127 87 81 25 -24 56 -28 56 -8 0 39 -83 75 -130 56z"/>
<path d="M5144 4773 c-12 -2 -32 -15 -45 -29 -19 -20 -24 -37 -24 -79 0 -59
25 -98 72 -110 38 -9 91 13 108 45 20 38 19 104 -1 135 -13 20 -65 48 -83 44
-3 -1 -16 -4 -27 -6z m52 -41 c42 -28 41 -115 -1 -134 -19 -9 -29 -7 -50 6
-20 13 -25 25 -25 58 0 59 39 95 76 70z"/>
<path d="M4900 4665 l0 -105 75 0 c68 0 75 2 75 20 0 17 -7 20 -50 20 l-50 0
0 85 c0 84 0 85 -25 85 l-25 0 0 -105z"/>
<path d="M5310 4665 l0 -105 63 0 c78 0 107 17 107 65 0 19 -5 37 -10 40 -7 4
-7 12 0 25 14 27 13 37 -10 60 -16 16 -33 20 -85 20 l-65 0 0 -105z m120 45
c0 -17 -7 -20 -40 -20 -33 0 -40 3 -40 20 0 17 7 20 40 20 33 0 40 -3 40 -20z
m5 -85 c0 -16 -8 -21 -42 -23 -40 -3 -43 -2 -43 23 0 25 3 26 43 23 34 -2 42
-7 42 -23z"/>
<path d="M5575 4758 c-3 -7 -20 -55 -39 -105 l-34 -93 25 0 c16 0 27 7 30 20
4 16 14 20 45 20 31 0 41 -4 45 -20 3 -13 14 -20 29 -20 30 0 30 2 -1 86 -46
125 -46 124 -72 124 -13 0 -26 -6 -28 -12z m43 -85 c10 -31 10 -33 -14 -33
-27 0 -29 6 -14 46 12 31 13 30 28 -13z"/>
<path d="M5730 4665 l0 -105 75 0 c68 0 75 2 75 20 0 17 -7 20 -50 20 l-50 0
0 85 c0 84 0 85 -25 85 l-25 0 0 -105z"/>
<path d="M5990 4665 c0 -98 1 -105 20 -105 18 0 20 7 21 78 1 72 2 74 11 37
29 -118 28 -115 52 -115 20 0 24 8 37 73 l14 72 3 -72 c3 -70 4 -73 27 -73 25
0 25 2 25 83 0 111 -5 127 -40 127 -31 0 -31 0 -51 -93 -14 -65 -20 -61 -39
31 -13 61 -13 62 -46 62 l-34 0 0 -105z"/>
<path d="M6240 4665 l0 -105 80 0 c73 0 80 2 80 20 0 18 -7 20 -60 20 -57 0
-60 1 -60 25 0 23 3 25 50 25 43 0 50 3 50 20 0 17 -7 20 -50 20 -43 0 -50 3
-50 20 0 18 7 20 55 20 48 0 55 2 55 20 0 18 -7 20 -75 20 l-75 0 0 -105z"/>
<path d="M6430 4665 l0 -105 64 0 c59 0 66 2 90 31 30 35 35 93 11 138 -18 36
-32 41 -106 41 l-59 0 0 -105z m121 49 c7 -9 13 -31 13 -49 0 -43 -19 -65 -55
-65 -29 0 -29 0 -29 65 0 65 0 65 29 65 16 0 35 -7 42 -16z"/>
<path d="M6640 4665 l0 -105 25 0 25 0 0 105 0 105 -25 0 -25 0 0 -105z"/>
<path d="M6750 4678 c-18 -51 -35 -99 -38 -105 -2 -8 5 -13 21 -13 16 0 26 7
30 20 4 16 14 20 45 20 31 0 41 -4 45 -20 3 -13 14 -20 31 -20 l25 0 -36 105
c-34 98 -38 105 -63 105 -25 0 -30 -7 -60 -92z m75 -10 c6 -25 4 -28 -18 -28
-24 0 -25 1 -14 35 11 38 22 36 32 -7z"/>
<path d="M7072 4643 c3 -16 19 -18 158 -18 139 0 155 2 158 18 3 16 -10 17
-158 17 -148 0 -161 -1 -158 -17z"/>
<path d="M4195 4629 c-16 -24 17 -29 166 -27 129 3 154 5 154 18 0 13 -25 15
-157 18 -107 2 -159 -1 -163 -9z"/>
<path d="M2910 4572 c0 -13 -11 -24 -32 -33 -17 -7 -26 -15 -20 -17 12 -4 68
23 76 37 3 5 -1 14 -9 21 -12 10 -15 9 -15 -8z"/>
<path d="M3440 4349 c-45 -11 -88 -16 -109 -12 -24 4 -32 2 -27 -6 6 -10 -12
-16 -37 -12 -42 7 -186 8 -197 1 -25 -15 54 -23 193 -18 106 4 144 9 192 28
56 21 91 41 70 39 -6 0 -44 -9 -85 -20z"/>
</g>
</svg>
