<?xml version="1.0" standalone="no"?>
<!DOCTYPE svg PUBLIC "-//W3C//DTD SVG 20010904//EN"
 "http://www.w3.org/TR/2001/REC-SVG-20010904/DTD/svg10.dtd">
<svg version="1.0" xmlns="http://www.w3.org/2000/svg"
 width="1000.000000pt" height="1000.000000pt" viewBox="0 0 1000.000000 1000.000000"
 preserveAspectRatio="xMidYMid meet">

<g transform="translate(0.000000,1000.000000) scale(0.100000,-0.100000)"
fill="#000080" stroke="none">
<path d="M4725 8074 c-138 -25 -245 -55 -365 -103 -111 -44 -274 -130 -266
-139 8 -8 134 39 160 59 13 10 34 19 45 19 12 0 47 10 79 23 31 13 71 27 87
31 l30 7 -32 -20 c-18 -12 -33 -28 -33 -36 0 -9 -11 -20 -25 -25 -26 -10 -43
-36 -31 -48 4 -3 16 -1 26 6 27 16 30 15 30 -8 0 -20 -10 -25 -40 -20 -8 1
-82 -9 -165 -21 -169 -27 -220 -51 -260 -122 -11 -20 -35 -46 -53 -57 -34 -21
-40 -35 -19 -43 7 -3 -4 -21 -30 -49 -24 -24 -43 -48 -43 -53 0 -5 -19 -29
-42 -54 -54 -56 -32 -48 85 30 103 69 172 103 192 95 8 -3 15 -24 17 -52 2
-27 8 -49 16 -52 6 -2 12 3 12 12 0 9 5 16 10 16 6 0 10 -15 10 -34 0 -19 5
-38 10 -41 16 -10 12 -46 -11 -111 -28 -82 -22 -161 19 -218 37 -52 73 -133
66 -149 -2 -7 4 -22 16 -32 11 -10 20 -23 20 -30 0 -6 11 -22 25 -35 25 -23
25 -23 25 -2 0 11 -4 24 -10 27 -5 3 -10 13 -10 21 0 8 -12 32 -26 54 -42 63
-24 55 31 -13 28 -34 69 -82 93 -106 38 -40 41 -46 27 -61 -19 -21 -2 -40 38
-40 20 0 30 -6 34 -19 7 -26 54 -47 137 -60 43 -6 82 -19 105 -35 20 -13 55
-29 78 -35 46 -13 103 -55 103 -77 0 -18 71 -63 112 -71 22 -4 33 -2 40 10 5
10 13 17 18 17 17 0 42 -61 43 -106 2 -37 -3 -48 -35 -81 -82 -84 -89 -161
-24 -272 24 -42 52 -98 62 -125 12 -34 29 -57 58 -77 59 -42 87 -70 97 -97 13
-34 -16 -248 -62 -452 -31 -139 -33 -179 -12 -203 37 -41 133 -64 133 -32 0 9
-7 18 -15 21 -21 8 -19 28 5 49 11 10 20 28 20 40 0 25 56 82 132 134 39 27
54 45 58 67 4 24 10 30 38 32 26 3 57 26 150 114 64 60 118 116 120 123 2 8
12 17 22 20 55 17 100 66 141 152 23 48 63 116 90 151 40 52 49 71 49 104 0
30 -3 39 -14 35 -8 -3 -29 5 -47 19 -18 13 -39 24 -46 24 -7 0 -55 20 -105 45
-51 25 -98 43 -105 40 -16 -5 -17 7 -3 21 15 15 -21 96 -51 116 -13 8 -42 21
-64 28 -57 18 -121 67 -140 106 -12 27 -22 34 -43 34 -16 0 -33 5 -40 12 -9 9
-12 8 -12 -5 0 -19 -44 -25 -55 -7 -3 5 -27 19 -52 30 -37 16 -48 18 -55 8 -6
-10 -10 -10 -17 0 -11 18 -77 1 -117 -31 -24 -18 -42 -22 -107 -23 -93 -1
-107 11 -107 89 0 78 -9 87 -87 87 -52 0 -64 3 -55 12 7 7 12 22 12 34 0 12 7
38 15 58 13 32 14 37 1 42 -30 12 -71 -1 -83 -26 -22 -45 -69 -62 -118 -44
-17 7 -48 63 -59 106 -16 69 77 168 159 168 14 0 28 7 31 15 4 10 20 15 44 15
65 0 95 -17 124 -69 26 -49 50 -69 61 -50 9 13 -13 75 -31 89 -26 22 -16 59
31 109 48 52 53 66 30 97 -19 25 -19 40 0 24 9 -7 17 -11 18 -9 1 2 17 34 36
72 33 66 34 67 74 67 49 0 115 28 122 51 7 21 39 34 57 23 20 -12 48 -12 48 0
0 21 -30 55 -44 50 -8 -3 -31 16 -56 46 -23 28 -57 58 -74 67 -17 8 -52 35
-78 59 -51 48 -63 52 -72 28 -5 -13 -16 -9 -69 20 -35 20 -76 36 -91 36 -39 0
-75 45 -76 94 0 31 3 37 16 32 9 -3 20 -6 25 -6 5 0 9 -7 9 -16 0 -11 6 -14
20 -9 27 9 27 -19 -1 -39 -23 -16 -18 -36 9 -36 9 0 41 -11 70 -25 61 -28 87
-31 95 -11 7 18 -8 82 -24 104 -32 42 -84 92 -97 92 -7 0 -10 5 -7 10 18 28
134 -7 149 -45 3 -8 12 -15 21 -15 8 0 15 -8 15 -19 0 -10 7 -24 15 -31 8 -7
15 -19 15 -26 0 -8 4 -14 9 -14 6 0 36 -23 68 -51 59 -52 130 -95 141 -85 3 3
0 30 -7 58 -17 71 -12 110 17 123 43 19 28 40 -93 127 -82 59 -157 99 -193
102 -40 5 -38 24 4 32 37 7 194 -1 256 -12 23 -5 30 -3 23 4 -37 39 -479 56
-650 26z m102 -94 c14 -11 38 -20 53 -20 34 0 90 -19 90 -31 0 -5 -10 -9 -23
-9 -13 0 -28 -5 -34 -11 -8 -8 -17 -7 -34 2 -13 7 -40 15 -59 19 -35 5 -48 25
-36 56 7 19 13 18 43 -6z m-187 -56 c0 -8 -4 -12 -10 -9 -5 3 -10 10 -10 16 0
5 5 9 10 9 6 0 10 -7 10 -16z m-50 -10 c0 -11 -5 -14 -16 -10 -9 3 -18 6 -20
6 -3 0 -2 5 1 10 10 16 35 12 35 -6z m-80 -7 c24 1 24 1 5 -13 -25 -18 -28
-18 -51 8 -19 21 -19 21 1 13 11 -4 31 -8 45 -8z m203 -31 c6 -37 6 -38 -13
-21 -23 21 -25 36 -8 53 14 14 14 15 21 -32z m-83 -18 c10 -6 6 -7 -15 -3 -16
4 -34 11 -40 17 -12 12 31 1 55 -14z m140 -17 c0 -6 -4 -13 -10 -16 -5 -3 -10
1 -10 9 0 9 5 16 10 16 6 0 10 -4 10 -9z m-160 -25 c0 -2 -7 -7 -16 -10 -8 -3
-12 -2 -9 4 6 10 25 14 25 6z m-117 -13 c-7 -2 -19 -2 -25 0 -7 3 -2 5 12 5
14 0 19 -2 13 -5z m-39 -72 c3 -4 -5 -18 -18 -30 -22 -20 -24 -21 -23 -4 1 12
-4 17 -17 16 -22 -2 -8 13 19 20 32 8 34 7 39 -2z m394 -37 c7 -8 18 -14 23
-14 5 0 9 -8 9 -18 0 -11 9 -27 19 -36 10 -10 22 -33 26 -52 4 -23 13 -38 28
-43 l22 -8 -23 -7 c-12 -4 -26 -4 -32 -1 -5 3 -10 -1 -10 -9 0 -13 -11 -14
-64 -9 -42 4 -66 2 -70 -6 -4 -6 -3 -11 3 -11 6 0 15 -9 21 -19 9 -19 8 -19
-20 -4 -16 8 -39 12 -49 8 -25 -8 -44 23 -30 48 11 19 44 23 54 7 3 -5 11 -10
16 -10 6 0 8 4 4 9 -3 5 -1 12 5 16 5 3 10 1 10 -4 0 -14 27 -14 35 0 10 16 0
21 -43 24 -43 2 -55 8 -103 49 l-34 29 25 16 c13 9 37 29 53 44 26 25 34 28
70 21 22 -3 47 -13 55 -20z m-278 6 c0 -5 -5 -10 -11 -10 -5 0 -7 5 -4 10 3 6
8 10 11 10 2 0 4 -4 4 -10z m-79 -24 c-15 -18 5 -34 22 -17 15 15 27 14 27 -4
0 -8 5 -15 10 -15 6 0 13 7 16 15 7 18 34 20 34 2 0 -7 -5 -18 -12 -25 -18
-18 3 -14 24 5 31 28 20 5 -17 -36 -22 -24 -32 -42 -25 -46 15 -9 2 -25 -22
-25 -13 0 -18 5 -15 14 8 19 -16 38 -37 30 -9 -3 -30 -1 -47 6 l-30 13 28 19
c24 17 25 19 6 13 -22 -6 -24 -3 -27 27 -1 6 15 17 34 24 45 16 44 16 31 0z
m179 -92 c0 -2 -7 -4 -15 -4 -8 0 -15 4 -15 10 0 5 7 7 15 4 8 -4 15 -8 15
-10z m390 1 c-7 -8 -17 -15 -22 -15 -6 0 -5 7 2 15 7 8 17 15 22 15 6 0 5 -7
-2 -15z m-86 -104 c3 -4 3 -11 0 -14 -8 -8 -34 3 -34 14 0 11 27 12 34 0z m51
0 c3 -5 1 -12 -5 -16 -5 -3 -10 1 -10 9 0 18 6 21 15 7z m146 -21 c5 0 9 -4 9
-10 0 -12 -47 -13 -54 -1 -8 12 6 22 22 16 7 -3 18 -5 23 -5z m80 -20 c24 0
24 -8 -1 -44 l-19 -30 -10 28 c-6 15 -11 33 -11 40 0 17 14 30 18 17 2 -6 12
-11 23 -11z m-451 -20 l25 -20 -52 0 c-54 0 -67 11 -35 29 24 15 34 13 62 -9z
m377 -46 c-3 -3 -12 -4 -19 -1 -8 3 -5 6 6 6 11 1 17 -2 13 -5z"/>
<path d="M4729 7580 c25 -22 41 -26 41 -10 0 11 -33 30 -52 30 -7 -1 -3 -9 11
-20z"/>
<path d="M4895 7550 c-3 -5 -1 -10 4 -10 6 0 11 5 11 10 0 6 -2 10 -4 10 -3 0
-8 -4 -11 -10z"/>
<path d="M4524 7595 c21 -16 32 -13 21 4 -3 6 -14 11 -23 11 -15 -1 -15 -2 2
-15z"/>
<path d="M5493 7713 c-33 -13 40 -42 116 -47 37 -2 35 18 -4 37 -34 16 -86 21
-112 10z"/>
<path d="M3709 7504 c-10 -13 -10 -17 2 -25 19 -12 22 -11 44 4 10 8 15 19 11
25 -10 17 -41 15 -57 -4z"/>
<path d="M6283 7497 c4 -12 1 -17 -11 -17 -18 0 -42 -41 -42 -71 0 -27 19 -33
41 -13 18 17 19 16 19 -14 0 -17 7 -37 15 -46 20 -19 19 -27 -2 -19 -14 6 -14
1 5 -28 34 -51 56 -98 50 -105 -4 -3 -23 0 -42 7 -23 8 -39 9 -45 4 -5 -6 -11
-47 -15 -92 -6 -80 -6 -83 15 -83 12 0 23 -8 26 -20 6 -23 14 -25 32 -7 11 10
11 8 3 -8 -6 -11 -17 -37 -26 -57 -16 -37 -68 -88 -89 -88 -15 0 -57 -108 -70
-175 -5 -27 -11 -86 -14 -131 -4 -78 -4 -81 21 -98 14 -9 26 -23 26 -31 0 -8
17 -33 37 -56 l37 -41 70 7 c39 4 84 14 100 22 27 14 30 14 45 -4 9 -11 23
-23 32 -26 24 -8 35 -245 14 -304 -8 -24 -22 -105 -30 -180 -8 -76 -18 -153
-21 -170 -4 -18 -4 -33 -1 -33 3 0 17 21 32 48 15 26 36 56 46 68 73 80 146
466 136 717 -5 128 -39 364 -58 400 -13 22 -41 23 -32 0 13 -32 -12 -4 -37 43
-16 31 -21 48 -14 51 7 2 9 13 6 25 -4 15 -2 19 7 13 7 -4 11 -15 8 -25 -5
-18 37 -69 48 -58 14 14 -109 302 -163 380 -16 24 -44 66 -61 95 -45 73 -70
90 -37 26 20 -40 24 -57 17 -75 -7 -17 -10 -18 -10 -6 -1 10 -12 42 -26 72
-14 30 -25 66 -25 80 0 14 -5 28 -12 32 -8 5 -9 2 -5 -9z m179 -404 c16 -18
48 -77 48 -88 0 -5 -40 -1 -97 11 -27 5 -31 39 -7 72 18 27 36 28 56 5z m55
-125 c-3 -8 -6 -5 -6 6 -1 11 2 17 5 13 3 -3 4 -12 1 -19z"/>
<path d="M3700 7349 c0 -5 5 -7 10 -4 6 3 10 8 10 11 0 2 -4 4 -10 4 -5 0 -10
-5 -10 -11z"/>
<path d="M3560 7279 c0 -11 5 -17 10 -14 6 3 10 13 10 21 0 8 -4 14 -10 14 -5
0 -10 -9 -10 -21z"/>
<path d="M3615 7280 c-3 -5 1 -10 9 -10 9 0 16 5 16 10 0 6 -4 10 -9 10 -6 0
-13 -4 -16 -10z"/>
<path d="M6320 7210 c0 -5 5 -10 10 -10 6 0 10 5 10 10 0 6 -4 10 -10 10 -5 0
-10 -4 -10 -10z"/>
<path d="M3486 7168 c-19 -29 -72 -163 -81 -203 -4 -16 -14 -45 -22 -64 -28
-62 -54 -215 -60 -355 -5 -116 -4 -138 8 -134 11 3 15 33 19 120 5 115 15 148
46 148 22 0 26 20 9 47 -13 20 -16 42 -13 99 4 76 23 120 34 76 4 -12 11 -22
16 -22 15 0 50 89 51 134 2 51 -16 63 -23 16 -4 -19 -13 -46 -20 -60 -12 -21
-15 -22 -18 -7 -6 27 16 82 49 123 22 28 28 45 24 62 -4 15 -2 21 5 17 5 -3
10 1 10 9 0 23 -17 20 -34 -6z"/>
<path d="M6290 6950 c0 -5 5 -10 10 -10 6 0 10 5 10 10 0 6 -4 10 -10 10 -5 0
-10 -4 -10 -10z"/>
<path d="M4923 6808 c-24 -12 -32 -38 -11 -38 6 0 20 8 31 17 18 17 19 17 33
-1 7 -11 17 -17 20 -13 3 3 28 -3 55 -14 93 -36 106 -17 16 24 -66 30 -116 39
-144 25z"/>
<path d="M5219 6704 c-6 -8 -21 -14 -33 -14 -17 -1 -18 -2 -6 -9 19 -11 150
-2 150 11 0 20 -95 31 -111 12z"/>
<path d="M5093 6693 c-20 -7 -15 -23 7 -23 11 0 20 4 20 9 0 13 -12 19 -27 14z"/>
<path d="M5373 6693 c-20 -7 -15 -23 7 -23 11 0 20 4 20 9 0 13 -12 19 -27 14z"/>
<path d="M3418 6604 c-17 -16 -8 -94 12 -114 11 -11 20 -31 20 -45 0 -27 9
-32 28 -13 18 18 15 36 -15 74 -14 20 -29 51 -32 71 -3 19 -9 31 -13 27z"/>
<path d="M3411 6432 c-14 -26 -7 -42 10 -25 6 6 9 19 7 29 -3 17 -5 17 -17 -4z"/>
<path d="M3480 6400 c-10 -24 -10 -33 0 -45 21 -25 30 -17 30 24 0 50 -14 60
-30 21z"/>
<path d="M3310 6353 c1 -37 27 -183 34 -191 14 -13 14 9 0 98 -7 52 -14 101
-14 108 0 6 -4 12 -10 12 -5 0 -10 -12 -10 -27z"/>
<path d="M3386 6313 c-24 -69 -21 -139 5 -153 24 -13 25 -13 38 20 9 24 10 23
11 -10 2 -51 14 -73 39 -75 18 -1 21 2 16 19 -4 12 -9 32 -12 46 -6 23 -5 24
12 10 16 -13 18 -13 13 0 -2 8 -15 20 -28 27 l-23 11 23 4 c36 5 37 28 2 28
-38 0 -53 19 -60 75 -2 25 -8 45 -12 45 -5 0 -15 -21 -24 -47z"/>
<path d="M4100 6341 c0 -6 13 -18 29 -27 16 -10 34 -28 41 -42 8 -17 14 -22
21 -15 16 16 -4 47 -45 72 -37 23 -46 25 -46 12z"/>
<path d="M3535 6232 c-3 -16 -1 -39 4 -53 8 -20 10 -16 10 29 1 58 -4 67 -14
24z"/>
<path d="M3572 6170 c-8 -20 -18 -30 -31 -30 -29 0 -26 -17 4 -24 30 -8 45 -1
45 20 0 8 7 14 15 14 8 0 15 -9 15 -19 0 -12 16 -29 43 -44 57 -34 74 -54 59
-69 -17 -17 -15 -28 7 -28 11 0 26 -7 35 -15 8 -8 21 -15 29 -15 8 0 20 7 27
15 18 21 24 20 75 -25 45 -39 65 -49 65 -32 0 5 -13 21 -30 37 -42 40 -40 65
4 65 50 0 98 64 58 78 -7 2 -12 -3 -12 -11 0 -19 -18 -34 -51 -42 -19 -5 -38
3 -79 31 -79 54 -135 77 -159 64 -23 -12 -52 -3 -45 14 6 15 -11 31 -42 40
-18 5 -24 1 -32 -24z"/>
<path d="M3671 6164 c0 -11 3 -14 6 -6 3 7 2 16 -1 19 -3 4 -6 -2 -5 -13z"/>
<path d="M4845 6149 c-10 -15 1 -23 20 -15 9 3 13 10 10 16 -8 13 -22 13 -30
-1z"/>
<path d="M3360 6111 c0 -10 27 -41 60 -70 55 -48 60 -50 70 -32 14 27 14 28
-20 40 -16 5 -30 15 -30 20 0 6 -6 11 -14 11 -8 0 -23 11 -34 25 -24 30 -32
31 -32 6z"/>
<path d="M3640 6063 c0 -5 4 -14 9 -21 7 -11 9 -11 14 1 3 8 3 18 0 21 -9 8
-23 7 -23 -1z"/>
<path d="M3527 6029 c-9 -6 -17 -17 -17 -24 0 -23 28 -18 35 6 9 26 4 30 -18
18z"/>
<path d="M3605 6030 c-3 -5 -1 -10 4 -10 6 0 11 5 11 10 0 6 -2 10 -4 10 -3 0
-8 -4 -11 -10z"/>
<path d="M4040 6027 c0 -21 22 -37 50 -37 l25 1 -30 24 c-34 28 -45 31 -45 12z"/>
<path d="M4110 5971 c-17 -5 -21 -9 -12 -15 16 -10 74 3 66 15 -6 10 -18 10
-54 0z"/>
<path d="M3606 5925 c-5 -18 -13 -25 -30 -25 -24 0 -56 -36 -56 -64 0 -8 -10
-22 -22 -30 -20 -14 -20 -18 -9 -53 28 -84 95 -197 129 -217 27 -15 36 -16 42
-6 16 26 60 -2 163 -107 58 -60 114 -119 124 -132 11 -13 26 -22 34 -19 10 3
6 12 -15 31 l-28 27 25 9 c36 14 69 91 70 161 0 62 -30 127 -89 190 -30 32
-62 88 -114 200 -24 50 -42 41 -33 -17 3 -18 3 -33 -1 -33 -15 0 -62 29 -81
50 -15 17 -88 60 -101 60 -1 0 -5 -11 -8 -25z m404 -366 c0 -6 -4 -7 -10 -4
-5 3 -10 11 -10 16 0 6 5 7 10 4 6 -3 10 -11 10 -16z"/>
<path d="M4172 5938 c-17 -17 -15 -28 7 -28 11 0 22 -6 24 -12 3 -7 6 -3 6 8
1 29 -21 48 -37 32z"/>
<path d="M4310 5782 c0 -15 28 -47 35 -40 8 8 -13 48 -25 48 -6 0 -10 -4 -10
-8z"/>
<path d="M4610 5730 c0 -5 7 -10 16 -10 8 0 12 5 9 10 -3 6 -10 10 -16 10 -5
0 -9 -4 -9 -10z"/>
<path d="M4560 5706 c0 -18 17 -29 30 -21 8 5 7 11 -1 21 -15 18 -29 18 -29 0z"/>
<path d="M4257 5663 c-4 -6 5 -21 18 -33 29 -27 33 -13 7 21 -11 13 -21 18
-25 12z"/>
<path d="M4277 5464 c-3 -4 -4 -19 -1 -34 4 -16 1 -31 -5 -35 -9 -5 -9 -10 0
-21 9 -11 8 -14 -8 -14 -29 0 -123 -50 -123 -66 0 -8 7 -14 17 -14 16 0 129
59 169 89 l21 16 -25 35 c-37 50 -38 51 -45 44z"/>
<path d="M5394 5029 c-11 -18 13 -34 31 -19 8 7 15 16 15 21 0 13 -38 11 -46
-2z"/>
<path d="M5719 4925 c-14 -8 -53 -18 -87 -24 -33 -5 -81 -17 -106 -25 -64 -22
-207 -32 -243 -17 -17 6 -39 8 -57 3 l-29 -8 26 -21 26 -20 -57 -7 c-33 -4
-58 -3 -60 3 -2 5 -29 7 -61 4 -40 -4 -74 0 -106 10 -33 12 -53 14 -65 7 -11
-6 -62 -7 -122 -4 -72 4 -112 2 -133 -6 l-30 -13 45 -14 c71 -21 261 -43 380
-43 115 0 297 20 403 45 108 25 337 118 337 136 0 13 -32 10 -61 -6z"/>
<path d="M1430 4368 c-211 -74 -324 -293 -290 -562 18 -143 59 -236 140 -314
163 -157 474 -141 611 31 44 56 77 123 85 179 l7 39 -98 -3 -99 -3 -7 -29
c-23 -87 -105 -146 -200 -146 -102 1 -180 60 -216 165 -21 60 -24 247 -5 311
40 134 159 207 282 174 65 -18 99 -46 127 -107 l24 -53 100 0 c54 0 99 4 99 8
0 5 -7 32 -16 62 -31 105 -99 180 -208 231 -61 28 -82 33 -170 36 -86 3 -111
0 -166 -19z"/>
<path d="M6340 4375 c-162 -46 -268 -168 -306 -356 -42 -206 15 -416 143 -529
171 -150 473 -140 631 20 57 58 96 133 118 227 22 95 15 275 -15 360 -44 123
-136 220 -251 264 -73 29 -241 36 -320 14z m224 -167 c58 -18 128 -90 152
-159 14 -41 19 -82 19 -169 0 -110 -2 -119 -33 -182 -38 -77 -83 -116 -156
-135 -87 -23 -181 2 -237 64 -109 116 -115 376 -13 510 53 70 168 100 268 71z"/>
<path d="M2400 4348 c-17 -40 -330 -921 -330 -930 0 -4 47 -8 104 -8 l105 0
33 100 32 100 175 -2 175 -3 31 -97 30 -98 108 0 c59 0 107 4 107 8 0 4 -70
205 -156 447 -86 242 -161 455 -167 473 l-10 32 -114 0 c-108 0 -114 -1 -123
-22z m179 -386 c29 -90 55 -170 58 -178 4 -12 -15 -14 -117 -14 -112 0 -122 2
-117 18 29 105 113 350 118 344 3 -4 29 -80 58 -170z"/>
<path d="M3100 3890 l0 -480 340 0 340 0 0 85 0 85 -217 0 c-120 0 -228 3
-240 6 l-23 6 0 389 0 389 -100 0 -100 0 0 -480z"/>
<path d="M3920 3890 l0 -480 335 0 335 0 0 85 0 85 -212 0 c-117 0 -223 3
-235 6 l-23 6 -2 387 -3 386 -97 3 -98 3 0 -481z"/>
<path d="M4720 3890 l0 -480 100 0 100 0 -2 478 -3 477 -97 3 -98 3 0 -481z"/>
<path d="M5100 3890 l0 -481 263 3 262 3 56 28 c104 51 184 160 215 294 20 86
20 260 -1 336 -33 127 -102 214 -210 264 l-60 28 -262 3 -263 4 0 -482z m490
288 c86 -44 115 -119 114 -288 -1 -125 -14 -177 -60 -238 -49 -64 -74 -72
-216 -72 l-128 0 0 310 0 310 123 0 c107 0 128 -3 167 -22z"/>
<path d="M7100 3891 l0 -481 100 0 100 0 0 186 0 185 150 -3 c148 -3 150 -3
177 -30 26 -27 28 -33 34 -165 4 -76 10 -146 14 -155 6 -16 22 -18 116 -18
114 0 126 5 92 42 -13 15 -18 48 -23 162 -8 159 -19 192 -77 232 l-32 21 43
30 c110 78 125 260 31 370 -19 23 -61 54 -93 70 l-57 28 -287 3 -288 4 0 -481z
m537 283 c64 -48 64 -165 0 -204 -28 -18 -51 -20 -184 -20 l-153 0 0 126 0
125 154 -3 c138 -3 158 -5 183 -24z"/>
<path d="M8317 4328 c-9 -24 -83 -232 -166 -463 -82 -231 -153 -428 -156 -438
-7 -16 0 -17 100 -15 l108 3 32 95 32 95 174 3 175 2 32 -100 33 -100 109 0
109 0 -51 148 c-29 81 -104 296 -168 477 l-117 330 -115 3 -115 3 -16 -43z
m242 -545 c1 -10 -28 -13 -114 -13 -94 0 -115 3 -115 15 0 8 26 92 57 187 l56
173 58 -175 c32 -96 58 -181 58 -187z"/>
<path d="M2474 2661 c-52 -24 -108 -90 -124 -146 -20 -73 -9 -193 24 -249 40
-69 93 -100 178 -104 63 -4 73 -2 118 26 50 31 60 31 60 0 0 -14 8 -18 35 -18
l35 0 0 135 0 135 -105 0 -105 0 0 -40 0 -40 54 0 c30 0 57 -4 60 -8 9 -15
-27 -73 -55 -88 -42 -21 -111 -18 -143 7 -42 33 -60 77 -60 149 0 98 43 161
119 176 43 8 101 -20 121 -57 13 -26 20 -29 64 -29 60 0 63 11 24 78 -49 83
-197 120 -300 73z"/>
<path d="M3431 2659 c-50 -26 -96 -84 -112 -143 -6 -23 -9 -77 -7 -122 5 -97
36 -159 100 -202 38 -24 50 -27 133 -27 83 0 95 3 133 28 56 37 90 91 104 165
22 121 -18 232 -104 289 -35 24 -54 28 -122 31 -68 3 -88 -1 -125 -19z m196
-91 c29 -24 53 -91 53 -151 0 -105 -47 -167 -127 -167 -84 0 -128 46 -140 148
-11 94 39 186 105 194 36 4 89 -7 109 -24z"/>
<path d="M2900 2420 l0 -250 178 0 177 0 -3 45 -4 45 -119 0 -119 0 0 205 0
205 -55 0 -55 0 0 -250z"/>
<path d="M3870 2420 l0 -250 138 0 c154 0 193 8 234 47 55 53 56 154 3 201
l-26 22 25 31 c31 36 33 79 8 128 -30 60 -66 71 -234 71 l-148 0 0 -250z m276
152 c20 -14 25 -45 9 -68 -14 -22 -22 -24 -100 -24 l-85 0 0 50 0 50 83 0 c45
0 87 -4 93 -8z m14 -202 c11 -11 20 -31 20 -45 0 -49 -31 -65 -125 -65 l-85 0
0 65 0 65 85 0 c72 0 88 -3 105 -20z"/>
<path d="M4491 2603 c-13 -38 -53 -147 -87 -243 -35 -96 -64 -178 -64 -182 0
-5 24 -8 54 -8 l54 0 17 50 17 50 92 0 92 0 15 -47 15 -48 57 -3 c31 -2 57 0
57 3 0 4 -38 115 -85 247 -47 133 -85 242 -85 244 0 2 -28 4 -63 4 l-62 0 -24
-67z m139 -230 c0 -9 -18 -13 -61 -13 -45 0 -60 3 -57 13 3 6 18 50 33 97 l28
85 29 -85 c15 -46 28 -90 28 -97z"/>
<path d="M4880 2420 l0 -250 175 0 175 0 0 45 0 45 -125 0 -125 0 0 205 0 205
-50 0 -50 0 0 -250z"/>
<path d="M5490 2420 l0 -250 50 0 50 0 2 202 3 202 44 -202 44 -202 52 0 53 0
16 73 c9 39 29 131 45 202 l29 130 1 -202 1 -203 50 0 50 0 0 250 0 251 -77
-3 -77 -3 -42 -183 c-23 -101 -44 -186 -47 -188 -2 -3 -7 10 -11 28 -3 18 -22
104 -43 191 l-37 157 -78 0 -78 0 0 -250z"/>
<path d="M6080 2420 l0 -250 190 0 190 0 0 45 0 45 -140 0 -141 0 3 63 3 62
123 3 122 3 0 44 0 45 -125 0 -125 0 0 50 0 50 135 0 135 0 0 45 0 45 -185 0
-185 0 0 -250z"/>
<path d="M6550 2420 l0 -250 128 0 c144 0 188 13 235 69 34 40 57 118 57 190
0 109 -37 182 -110 219 -39 19 -59 22 -177 22 l-133 0 0 -250z m269 139 c31
-30 41 -61 41 -135 0 -124 -35 -164 -142 -164 l-68 0 0 160 0 160 73 0 c61 0
77 -4 96 -21z"/>
<path d="M7040 2420 l0 -250 55 0 55 0 0 250 0 250 -55 0 -55 0 0 -250z"/>
<path d="M7330 2523 c-29 -82 -70 -194 -90 -250 l-38 -103 57 0 57 0 15 48 15
47 95 3 95 3 13 -51 13 -50 60 0 c44 0 59 3 56 13 -3 6 -43 119 -89 249 l-84
238 -61 0 -62 0 -52 -147z m170 -155 c0 -5 -27 -8 -61 -8 -48 0 -60 3 -56 14
3 7 15 47 27 87 12 41 25 78 28 83 5 8 61 -153 62 -176z"/>
<path d="M8127 2402 c-20 -22 -22 -53 -5 -70 9 -9 106 -12 374 -12 358 0 363
0 378 21 8 12 12 29 9 38 -14 40 -24 41 -388 41 -328 0 -353 -1 -368 -18z"/>
<path d="M1176 2348 c-20 -29 -20 -34 4 -58 19 -19 33 -20 374 -20 309 0 357
2 370 16 9 8 16 24 16 34 0 10 -7 26 -16 34 -13 14 -61 16 -374 16 l-359 0
-15 -22z"/>
</g>
</svg>
