<?xml version="1.0" standalone="no"?>
<!DOCTYPE svg PUBLIC "-//W3C//DTD SVG 20010904//EN"
 "http://www.w3.org/TR/2001/REC-SVG-20010904/DTD/svg10.dtd">
<svg version="1.0" xmlns="http://www.w3.org/2000/svg"
 width="1284.000000pt" height="2778.000000pt" viewBox="0 0 1284.000000 2778.000000"
 preserveAspectRatio="xMidYMid meet">

<g transform="translate(0.000000,2778.000000) scale(0.100000,-0.100000)"
fill="#000000" stroke="none">
<path d="M3903 24696 c-135 -44 -210 -153 -220 -322 -7 -106 20 -200 76 -272
98 -124 292 -146 408 -47 l41 35 7 -40 7 -40 49 0 49 0 0 185 0 185 -145 0
-145 0 0 -60 0 -60 80 0 c44 0 80 -2 80 -5 0 -3 -9 -23 -20 -44 -39 -77 -111
-111 -194 -92 -100 22 -145 94 -146 231 0 154 57 231 177 238 55 4 69 1 102
-21 21 -14 44 -39 51 -56 12 -30 14 -31 81 -31 76 0 83 8 57 67 -44 102 -134
155 -267 160 -53 2 -102 -2 -128 -11z"/>
<path d="M7310 24640 l0 -60 65 0 65 0 0 60 0 60 -65 0 -65 0 0 -60z"/>
<path d="M7000 24586 l0 -65 -32 -3 c-32 -3 -33 -5 -33 -48 0 -43 1 -45 32
-48 l31 -3 4 -180 3 -181 27 -23 c29 -25 116 -41 162 -29 24 6 26 11 26 55 l0
49 -40 0 -40 0 0 155 0 155 40 0 40 0 0 50 0 50 -40 0 -40 0 0 65 0 65 -70 0
-70 0 0 -64z"/>
<path d="M4570 24521 c-113 -35 -165 -116 -165 -256 0 -100 22 -161 75 -209
98 -88 295 -71 362 32 46 71 46 72 -32 72 -58 0 -71 -3 -80 -19 -5 -11 -26
-25 -45 -31 -67 -22 -145 27 -145 91 l0 29 171 0 172 0 -5 68 c-11 146 -101
234 -238 231 -25 0 -56 -4 -70 -8z m141 -130 c17 -17 29 -40 29 -55 l0 -26
-100 0 c-62 0 -100 4 -100 10 0 23 29 79 47 89 10 6 35 11 56 11 29 0 45 -7
68 -29z"/>
<path d="M5180 24514 c-19 -8 -45 -27 -57 -42 l-23 -27 0 38 0 37 -65 0 -65 0
0 -255 0 -255 70 0 70 0 0 171 c0 98 4 179 10 190 13 24 61 49 94 49 14 0 38
-11 53 -24 l28 -24 3 -181 3 -181 65 0 65 0 -3 209 c-3 193 -5 212 -24 238
-46 63 -149 89 -224 57z"/>
<path d="M5669 24517 c-61 -23 -97 -55 -125 -113 -36 -74 -38 -193 -4 -272 41
-95 105 -132 231 -132 86 0 142 28 187 94 17 27 32 52 32 57 0 5 -30 9 -66 9
-58 0 -68 -3 -85 -24 -24 -31 -60 -39 -110 -26 -43 12 -79 56 -79 98 0 22 0
22 175 22 133 0 175 3 175 13 0 6 -5 41 -11 77 -21 132 -92 199 -217 207 -41
2 -81 -2 -103 -10z m139 -113 c29 -20 57 -73 44 -86 -5 -5 -51 -7 -103 -6 -88
3 -94 4 -91 23 5 33 23 62 46 73 32 16 79 14 104 -4z"/>
<path d="M6284 24511 c-17 -10 -40 -32 -52 -47 l-21 -29 -1 43 0 43 -62 -3
-63 -3 -3 -252 -2 -253 70 0 70 0 0 161 0 161 29 29 c28 27 58 35 114 30 15
-2 17 7 17 68 l0 71 -32 0 c-18 0 -47 -9 -64 -19z"/>
<path d="M6561 24519 c-18 -6 -44 -17 -57 -25 -26 -18 -64 -89 -64 -122 0 -20
5 -22 60 -22 49 0 62 3 67 18 13 37 36 52 80 52 60 0 83 -14 83 -50 0 -16 -4
-32 -10 -35 -5 -3 -48 -12 -95 -20 -146 -23 -195 -62 -202 -157 -8 -106 52
-162 169 -156 57 3 72 8 106 35 l40 32 6 -29 6 -30 75 0 c74 0 88 7 61 29 -11
10 -15 53 -18 201 -3 210 -7 223 -78 264 -39 23 -174 32 -229 15z m169 -318
c0 -42 -4 -53 -30 -74 -57 -49 -128 -42 -145 14 -10 29 24 72 64 81 17 5 46
12 64 17 17 5 35 9 40 10 4 1 7 -21 7 -48z"/>
<path d="M7720 24521 c-123 -40 -189 -146 -178 -286 6 -74 33 -129 87 -178 45
-41 93 -57 170 -57 80 0 130 19 182 70 123 119 98 341 -47 426 -36 21 -62 28
-118 30 -39 2 -82 0 -96 -5z m156 -132 c13 -12 29 -38 35 -57 15 -44 6 -142
-15 -174 -49 -75 -178 -58 -206 27 -7 20 -10 66 -8 101 4 66 27 105 73 125 32
14 95 3 121 -22z"/>
<path d="M8360 24514 c-19 -8 -45 -27 -57 -42 l-23 -27 0 38 0 37 -65 0 -65 0
0 -255 0 -255 70 0 70 0 0 171 c0 98 4 179 10 190 13 24 61 49 94 49 14 0 38
-11 53 -24 l28 -24 3 -181 3 -181 65 0 65 0 -3 209 c-3 193 -5 212 -24 238
-46 63 -149 89 -224 57z"/>
<path d="M8835 24517 c-96 -37 -142 -137 -100 -217 21 -41 69 -67 169 -90 104
-24 126 -34 126 -60 0 -49 -113 -69 -164 -29 -14 11 -26 27 -26 35 0 11 -16
14 -71 14 l-71 0 6 -31 c9 -45 42 -87 89 -111 52 -26 181 -36 247 -18 100 27
156 134 113 217 -24 46 -78 74 -187 98 -44 9 -88 22 -98 29 -43 26 -2 76 63
76 39 0 89 -31 89 -56 0 -11 15 -14 65 -14 59 0 65 2 65 20 0 53 -63 122 -128
140 -48 13 -149 12 -187 -3z"/>
<path d="M7310 24265 l0 -255 65 0 65 0 0 255 0 255 -65 0 -65 0 0 -255z"/>
<path d="M10735 21801 c-23 -10 -53 -33 -69 -51 -23 -28 -27 -42 -26 -84 3
-92 1 -103 -19 -109 -32 -8 -71 -117 -42 -117 4 0 10 -46 13 -102 4 -79 10
-113 26 -145 27 -53 85 -101 140 -116 l42 -11 0 -102 0 -101 -78 -7 c-106 -8
-193 -32 -214 -57 -24 -28 -23 -74 1 -98 74 -74 565 -83 686 -13 37 22 46 76
18 110 -22 26 -108 49 -215 58 l-78 7 0 101 0 102 47 13 c35 9 61 25 94 60 54
56 69 103 69 220 0 47 4 81 10 81 30 0 -8 109 -41 117 -20 6 -22 18 -19 105 2
66 -20 101 -82 132 -44 22 -65 26 -137 26 -62 0 -97 -6 -126 -19z m77 -13 c-7
-7 -12 -25 -12 -41 0 -42 24 -28 28 16 3 34 6 37 33 37 27 0 29 -2 29 -40 0
-29 4 -40 15 -40 18 0 21 50 3 68 -9 9 -6 12 15 12 15 0 27 -4 27 -10 0 -5 9
-10 21 -10 12 0 36 -15 55 -34 27 -27 34 -42 34 -74 0 -23 -4 -44 -10 -47 -5
-3 -10 1 -10 9 0 31 -142 35 -148 4 -3 -15 5 -18 55 -19 32 -1 69 -4 83 -8 27
-7 38 -37 21 -54 -8 -8 -11 -7 -11 5 0 19 -29 28 -97 28 -46 0 -53 -3 -53 -20
0 -18 7 -20 59 -20 80 0 111 -13 111 -45 0 -14 5 -25 10 -25 6 0 10 9 10 20 0
11 5 20 10 20 6 0 10 -53 10 -140 0 -119 -3 -147 -19 -178 -42 -82 -102 -112
-224 -112 -98 0 -153 23 -201 83 l-31 39 -3 154 c-2 105 0 154 7 154 6 0 11
-9 11 -20 0 -11 5 -20 10 -20 6 0 10 11 10 24 0 33 12 39 95 46 56 4 70 8 73
23 3 15 -5 17 -62 17 -44 0 -69 -5 -80 -15 -20 -20 -26 -19 -26 5 0 27 36 40
111 40 52 0 60 2 57 18 -6 31 -148 27 -148 -4 0 -8 -4 -12 -10 -9 -5 3 -10 25
-10 47 0 35 6 47 40 79 24 23 46 36 55 33 8 -4 15 -1 15 5 0 6 12 11 27 11 21
0 24 -3 15 -12z m-215 -330 c-3 -7 -5 -2 -5 12 0 14 2 19 5 13 2 -7 2 -19 0
-25z m530 0 c-3 -7 -5 -2 -5 12 0 14 2 19 5 13 2 -7 2 -19 0 -25z m-239 -520
l-3 -143 -25 0 -25 0 -3 143 -3 142 31 0 31 0 -3 -142z m-158 -109 c-47 -5
-96 -13 -110 -17 l-25 -9 22 -11 c75 -40 380 -41 478 -2 l30 12 -25 9 c-14 5
-63 13 -110 18 l-85 10 86 -4 c95 -5 164 -25 164 -46 0 -77 -567 -79 -593 -2
-7 24 98 51 198 50 45 0 39 -1 -30 -8z m-120 -97 c92 -23 410 -23 495 0 119
33 112 31 91 14 -84 -68 -588 -68 -672 0 -18 15 -18 15 1 9 11 -3 49 -14 85
-23z"/>
<path d="M10740 21745 c0 -14 5 -25 10 -25 6 0 10 11 10 25 0 14 -4 25 -10 25
-5 0 -10 -11 -10 -25z"/>
<path d="M10950 21761 c0 -17 12 -41 21 -41 5 0 9 11 9 25 0 16 -6 25 -15 25
-8 0 -15 -4 -15 -9z"/>
<path d="M10693 21513 c-7 -2 -13 -12 -13 -21 0 -15 9 -16 72 -12 59 4 73 8
76 23 3 15 -5 17 -60 16 -35 0 -69 -3 -75 -6z"/>
<path d="M10892 21503 c3 -15 17 -19 76 -23 62 -4 72 -3 72 11 0 23 -21 29
-92 29 -51 0 -59 -2 -56 -17z"/>
<path d="M10640 21348 c0 -100 2 -115 25 -154 36 -61 89 -84 193 -84 91 0 125
10 165 48 50 47 57 72 57 192 0 67 -4 110 -10 110 -5 0 -10 -9 -10 -20 0 -23
-15 -27 -24 -5 -4 11 -22 15 -76 15 -63 0 -71 -2 -68 -17 3 -15 17 -19 73 -23
79 -6 95 -13 95 -41 0 -23 -15 -25 -24 -4 -4 11 -22 15 -76 15 -56 0 -70 -3
-70 -15 0 -11 11 -15 41 -15 68 0 129 -20 129 -42 0 -32 -29 -77 -60 -93 -38
-20 -43 -19 -29 4 7 10 9 27 5 37 -6 16 -9 16 -16 4 -6 -8 -10 -27 -10 -41 0
-29 -27 -46 -44 -29 -7 7 -6 10 3 10 8 0 11 11 9 33 -4 45 -22 36 -26 -13 -3
-37 -5 -40 -32 -40 -27 0 -29 3 -32 40 -4 49 -22 58 -26 13 -2 -20 1 -33 8
-33 6 0 8 -4 5 -10 -16 -26 -46 0 -55 46 -6 32 -8 35 -15 20 -5 -11 -3 -26 4
-37 14 -24 4 -24 -37 1 -49 30 -70 101 -34 115 9 3 47 9 85 12 45 4 67 10 67
19 0 7 -9 16 -21 19 -31 10 -120 -5 -126 -21 -8 -21 -23 -17 -23 6 0 27 29 40
89 40 59 0 81 7 81 26 0 21 -138 20 -146 -1 -9 -22 -24 -18 -24 5 0 11 -4 20
-10 20 -6 0 -10 -44 -10 -112z m204 -183 c50 -2 90 3 127 15 53 18 54 18 31
-1 -68 -54 -224 -51 -289 6 l-28 24 43 -21 c29 -14 67 -21 116 -23z"/>
<path d="M1471 21770 c-79 -19 -125 -84 -118 -169 6 -79 36 -103 168 -132 121
-27 163 -51 167 -96 4 -43 -13 -72 -53 -89 -45 -18 -128 -18 -165 1 -37 19
-70 62 -70 91 0 21 -5 24 -35 24 -31 0 -35 -3 -35 -27 0 -44 38 -110 77 -135
50 -30 184 -38 247 -14 66 25 98 65 104 129 8 104 -34 143 -191 179 -112 25
-147 46 -147 88 0 66 77 106 165 87 48 -10 71 -29 87 -73 10 -27 17 -34 39
-34 36 0 40 9 28 53 -27 98 -140 147 -268 117z"/>
<path d="M3607 21764 c-120 -38 -193 -187 -166 -338 26 -143 106 -216 239
-216 68 0 122 19 161 56 l27 25 6 -35 c6 -30 11 -36 31 -36 l25 0 0 145 0 145
-120 0 -120 0 0 -30 0 -30 85 0 85 0 0 -27 c-1 -54 -34 -109 -82 -132 -110
-53 -228 -2 -259 112 -16 59 -6 163 19 214 30 59 73 86 143 91 71 5 130 -23
154 -75 14 -28 21 -33 52 -33 33 0 35 1 28 28 -26 107 -183 176 -308 136z"/>
<path d="M1850 21725 c0 -32 2 -35 30 -35 28 0 30 3 30 35 0 32 -2 35 -30 35
-28 0 -30 -3 -30 -35z"/>
<path d="M2020 21490 l0 -270 30 0 30 0 0 270 0 270 -30 0 -30 0 0 -270z"/>
<path d="M6190 21725 c0 -32 2 -35 30 -35 28 0 30 3 30 35 0 32 -2 35 -30 35
-28 0 -30 -3 -30 -35z"/>
<path d="M3040 21675 c0 -52 -1 -55 -25 -55 -21 0 -25 -5 -25 -30 0 -25 4 -30
25 -30 l25 0 0 -142 c0 -161 8 -190 55 -198 49 -9 75 -1 75 25 0 17 -7 24 -30
29 l-30 6 0 140 0 140 30 0 c27 0 30 3 30 30 0 27 -3 30 -30 30 -30 0 -30 1
-30 55 l0 55 -35 0 -35 0 0 -55z"/>
<path d="M5990 21676 c0 -52 -1 -55 -27 -58 -22 -2 -29 -9 -31 -30 -3 -25 0
-28 27 -28 l31 0 0 -153 c0 -185 4 -192 103 -188 22 1 27 6 27 26 0 19 -5 25
-23 25 -42 0 -47 16 -47 157 l0 133 36 0 c33 0 35 2 32 28 -2 22 -8 28 -35 30
-33 3 -33 4 -33 58 0 53 0 54 -30 54 -30 0 -30 -1 -30 -54z"/>
<path d="M2287 21616 c-21 -8 -47 -22 -57 -31 -62 -56 -81 -200 -37 -285 63
-127 266 -118 316 13 10 26 9 27 -24 27 -25 0 -35 -5 -40 -20 -9 -27 -56 -50
-104 -50 -55 0 -90 32 -98 88 l-6 42 146 0 145 0 -5 43 c-3 23 -16 65 -29 94
-39 81 -117 111 -207 79z m102 -57 c32 -11 47 -31 61 -80 l9 -29 -110 0 c-92
0 -109 2 -109 15 0 28 30 74 58 89 33 18 50 19 91 5z"/>
<path d="M2735 21616 c-17 -7 -37 -21 -45 -31 -14 -17 -15 -16 -20 6 -5 19
-13 24 -35 24 l-30 0 -3 -197 -2 -198 35 0 35 0 0 126 c0 146 13 186 66 212
42 20 93 7 111 -28 8 -17 13 -74 13 -167 l0 -143 36 0 36 0 -4 163 c-3 184
-10 204 -79 231 -47 19 -74 20 -114 2z"/>
<path d="M4149 21620 c-48 -14 -78 -42 -105 -96 -23 -48 -26 -63 -22 -128 6
-91 31 -136 92 -165 86 -42 193 -16 234 58 12 21 22 41 22 45 0 3 -16 6 -35 6
-24 0 -35 -5 -35 -14 0 -27 -50 -56 -97 -56 -53 0 -88 21 -102 62 -24 69 -27
68 135 68 l146 0 -6 48 c-12 78 -45 134 -96 160 -45 22 -85 26 -131 12z m102
-66 c27 -14 59 -65 59 -94 0 -6 -41 -10 -110 -10 -94 0 -110 2 -110 16 0 28
33 73 64 88 40 20 60 20 97 0z"/>
<path d="M4603 21623 c-12 -2 -36 -17 -53 -33 l-30 -28 0 29 c0 26 -4 29 -30
29 l-30 0 0 -200 0 -200 30 0 30 0 0 113 c0 129 10 174 46 208 35 33 98 33
125 0 17 -20 19 -41 19 -172 l0 -149 35 0 35 0 0 150 c0 163 -10 206 -52 234
-25 17 -91 27 -125 19z"/>
<path d="M4990 21619 c-125 -37 -174 -242 -83 -350 50 -59 140 -76 219 -40 38
17 84 72 84 100 0 25 -52 10 -84 -24 -29 -30 -40 -35 -80 -35 -58 0 -102 36
-112 93 l-6 37 147 0 148 0 -6 51 c-7 58 -41 124 -77 151 -31 22 -103 31 -150
17z m127 -81 c12 -13 25 -38 29 -55 l7 -33 -112 0 c-87 0 -111 3 -111 14 0 21
44 80 70 94 34 17 89 8 117 -20z"/>
<path d="M5450 21623 c-8 -3 -30 -19 -47 -36 l-33 -31 0 32 c0 29 -3 32 -30
32 l-30 0 0 -200 0 -200 35 0 35 0 0 140 c0 135 1 142 24 165 13 13 40 27 60
30 33 7 36 10 36 41 0 35 -12 41 -50 27z"/>
<path d="M5649 21621 c-48 -15 -71 -33 -85 -66 -20 -48 -18 -55 16 -55 17 0
30 5 30 10 0 6 11 22 25 35 18 19 35 25 67 25 59 0 88 -22 88 -65 0 -39 2 -38
-114 -55 -102 -16 -134 -40 -143 -108 -10 -75 44 -132 124 -132 40 0 115 30
128 50 5 8 11 4 19 -11 13 -26 55 -45 80 -36 24 10 21 57 -4 57 -19 0 -20 7
-20 140 0 138 0 140 -27 170 -38 43 -119 60 -184 41z m120 -317 c-43 -46 -138
-54 -159 -14 -15 29 -12 65 8 83 9 9 49 21 87 27 38 6 72 14 75 16 3 3 6 -15
8 -41 3 -38 -1 -52 -19 -71z"/>
<path d="M6455 21618 c-122 -42 -165 -223 -82 -342 25 -35 89 -65 140 -66 145
-1 230 173 157 320 -40 80 -131 117 -215 88z m125 -75 c61 -56 63 -187 4 -247
-31 -30 -95 -36 -130 -11 -53 37 -71 153 -35 224 34 66 108 81 161 34z"/>
<path d="M6905 21616 c-17 -7 -36 -20 -44 -29 -19 -24 -31 -21 -31 8 0 21 -5
25 -30 25 l-30 0 0 -200 0 -200 35 0 35 0 0 134 c0 122 2 136 23 167 43 63
134 62 156 -3 6 -17 11 -91 11 -164 l0 -134 30 0 30 0 0 164 c0 152 -1 165
-22 191 -39 50 -105 66 -163 41z"/>
<path d="M1850 21420 l0 -200 30 0 30 0 0 200 0 200 -30 0 -30 0 0 -200z"/>
<path d="M6190 21420 l0 -200 30 0 30 0 0 200 0 200 -30 0 -30 0 0 -200z"/>
<path d="M2827 20755 c-17 -36 -49 -55 -93 -55 -19 0 -24 -5 -24 -25 0 -24 3
-25 55 -25 l55 0 0 -170 0 -170 35 0 35 0 0 240 0 240 -23 0 c-17 0 -28 -10
-40 -35z"/>
<path d="M3130 20772 c-76 -41 -105 -161 -57 -233 46 -69 135 -89 201 -44 41
28 42 27 20 -44 -19 -66 -52 -101 -94 -101 -43 0 -66 14 -78 50 -8 23 -17 30
-36 30 -33 0 -36 -8 -22 -50 23 -70 135 -105 206 -64 119 71 136 375 25 448
-42 27 -123 31 -165 8z m137 -52 c1 0 9 -13 18 -30 49 -95 -26 -195 -119 -156
-43 18 -60 54 -53 109 9 68 58 102 122 85 16 -4 31 -8 32 -8z"/>
<path d="M3512 20770 c-33 -15 -47 -29 -62 -62 -29 -64 -27 -88 9 -88 25 0 30
5 35 33 9 50 46 79 98 79 53 -1 88 -35 88 -86 0 -46 -21 -69 -115 -125 -91
-55 -134 -106 -142 -169 l-6 -42 167 0 167 0 -3 28 -3 27 -127 3 c-71 1 -128
6 -128 10 0 22 40 57 123 106 103 60 130 95 130 162 0 114 -116 176 -231 124z"/>
<path d="M3895 20771 c-45 -21 -61 -42 -70 -94 -8 -39 13 -90 40 -101 13 -5
10 -12 -19 -40 -32 -30 -36 -39 -36 -85 0 -67 21 -106 70 -131 109 -56 237 0
248 108 5 55 -15 104 -49 123 -21 11 -21 11 6 39 20 20 26 38 27 70 1 101
-112 159 -217 111z m141 -62 c21 -17 17 -76 -6 -99 -26 -26 -89 -27 -121 -2
-42 35 -20 116 35 124 26 5 73 -7 92 -23z m-5 -192 c47 -36 51 -97 9 -139 -28
-28 -36 -30 -78 -25 -58 6 -92 41 -92 93 0 53 36 84 97 84 26 0 55 -6 64 -13z"/>
<path d="M4954 20766 c-8 -34 -33 -54 -80 -64 -29 -6 -40 -13 -42 -30 -3 -21
0 -22 57 -22 l61 0 0 -170 0 -170 30 0 30 0 0 240 0 240 -25 0 c-18 0 -26 -7
-31 -24z"/>
<path d="M5265 20776 c-133 -60 -118 -276 21 -302 47 -9 93 2 121 28 28 26 30
14 9 -57 -20 -64 -50 -95 -93 -95 -46 0 -69 14 -81 50 -8 23 -17 30 -36 30
-20 0 -26 -5 -26 -22 1 -62 60 -108 136 -108 66 0 109 29 143 95 23 45 26 61
26 165 0 126 -12 162 -67 203 -33 25 -113 32 -153 13z m138 -77 c19 -24 23
-99 6 -131 -17 -32 -69 -49 -113 -37 -66 18 -84 110 -36 172 33 42 107 39 143
-4z"/>
<path d="M5737 20758 c-131 -174 -197 -275 -197 -300 l0 -28 105 0 105 0 0
-60 0 -60 30 0 30 0 0 60 0 60 35 0 c31 0 35 3 35 25 0 22 -4 25 -35 25 l-35
0 0 155 0 155 -24 0 c-16 0 -33 -11 -49 -32z m10 -275 c-3 -2 -37 -3 -76 -1
l-72 3 73 104 73 104 3 -103 c1 -56 1 -104 -1 -107z"/>
<path d="M5976 20763 c-2 -10 -10 -61 -16 -113 -6 -52 -14 -103 -16 -112 -7
-25 40 -24 73 2 37 29 104 27 140 -4 24 -21 28 -32 28 -76 0 -46 -4 -55 -33
-81 -52 -46 -134 -35 -155 21 -9 23 -17 30 -39 30 -23 0 -28 -4 -28 -24 0 -31
41 -80 80 -96 17 -7 54 -11 88 -8 100 7 152 63 152 164 0 61 -31 111 -84 135
-49 22 -85 24 -130 5 l-32 -13 7 46 c4 25 8 54 8 64 1 15 13 17 106 17 l105 0
0 30 0 30 -124 0 c-110 0 -125 -2 -130 -17z"/>
<path d="M1810 20533 c-61 -23 -79 -95 -35 -138 47 -48 128 -18 141 51 10 52
-56 106 -106 87z"/>
<path d="M4380 20500 l0 -30 80 0 80 0 0 30 0 30 -80 0 -80 0 0 -30z"/>
<path d="M1350 19559 l0 -271 153 4 c147 3 155 4 194 30 50 33 79 98 69 152
-7 39 -47 92 -75 101 -16 5 -14 10 15 39 28 28 34 41 34 78 0 25 -8 56 -20 75
-33 55 -62 63 -225 63 l-145 0 0 -271z m280 196 c21 -11 31 -25 36 -50 13 -73
-39 -105 -173 -105 l-73 0 0 85 0 85 90 0 c61 0 100 -5 120 -15z m41 -244 c21
-26 25 -81 8 -113 -18 -33 -71 -48 -169 -48 l-90 0 0 96 0 96 116 -4 c108 -3
117 -5 135 -27z"/>
<path d="M2260 19560 l0 -270 35 0 c29 0 35 4 35 22 l0 21 25 -23 c32 -30 109
-39 151 -17 67 35 104 108 104 206 0 165 -151 258 -257 159 l-23 -21 0 96 0
97 -35 0 -35 0 0 -270z m249 46 c20 -21 26 -38 29 -90 5 -80 -1 -106 -34 -145
-21 -26 -33 -31 -69 -31 -37 0 -47 5 -74 35 -28 32 -31 42 -31 103 0 111 44
169 119 158 19 -3 46 -17 60 -30z"/>
<path d="M3290 19560 l0 -270 131 0 c152 0 195 10 240 56 25 26 33 44 37 83 6
71 -3 97 -48 130 -29 21 -36 30 -25 35 23 8 55 67 55 101 0 45 -31 96 -70 117
-29 15 -58 18 -177 18 l-143 0 0 -270z m274 199 c29 -14 46 -54 39 -93 -9 -44
-45 -60 -149 -64 l-94 -4 0 86 0 86 90 0 c49 0 100 -5 114 -11z m25 -234 c32
-16 41 -33 41 -76 0 -74 -46 -99 -180 -99 l-90 0 0 95 0 95 100 0 c69 0 110
-5 129 -15z"/>
<path d="M1938 19689 c-44 -13 -88 -60 -88 -95 0 -20 5 -24 30 -24 18 0 30 5
30 13 0 30 45 57 93 57 54 0 87 -25 87 -64 0 -33 -16 -43 -85 -51 -130 -14
-177 -49 -177 -132 0 -37 6 -51 29 -75 49 -49 145 -50 202 -2 29 24 30 24 36
4 8 -25 50 -43 82 -35 30 7 33 55 4 55 -17 0 -19 11 -23 138 -2 82 -9 146 -16
159 -26 48 -128 73 -204 52z m141 -291 c-19 -45 -95 -76 -143 -58 -51 19 -54
100 -4 116 13 4 52 12 88 18 l65 11 3 -29 c2 -15 -2 -42 -9 -58z"/>
<path d="M3880 19684 c-55 -24 -89 -63 -106 -123 -55 -186 97 -339 256 -258
55 27 89 84 97 159 10 101 -31 183 -112 219 -48 22 -88 23 -135 3z m125 -66
c55 -43 71 -137 36 -215 -22 -48 -45 -63 -96 -63 -48 0 -80 23 -99 71 -56 140
57 288 159 207z"/>
<path d="M4300 19684 c-55 -24 -89 -63 -106 -123 -55 -186 97 -339 256 -258
55 27 89 84 97 159 10 101 -31 183 -112 219 -48 22 -88 23 -135 3z m125 -66
c55 -43 71 -137 36 -215 -22 -48 -45 -63 -96 -63 -48 0 -80 23 -99 71 -56 140
57 288 159 207z"/>
<path d="M4755 19685 c-16 -9 -38 -24 -47 -32 -17 -15 -18 -14 -18 10 0 23 -4
27 -30 27 l-30 0 0 -200 0 -200 29 0 29 0 4 133 c4 144 13 174 58 200 37 22
66 21 90 -3 18 -18 20 -33 20 -175 l0 -155 35 0 35 0 0 135 c0 152 9 184 58
204 35 15 79 5 92 -19 6 -10 10 -86 10 -169 l0 -151 35 0 35 0 0 158 c0 140
-2 161 -20 190 -40 66 -128 77 -190 25 l-31 -26 -28 27 c-36 35 -94 43 -136
21z"/>
<path d="M5369 19690 c-48 -14 -78 -42 -105 -96 -23 -48 -26 -63 -22 -128 6
-91 31 -136 92 -165 86 -42 193 -16 234 58 12 21 22 41 22 45 0 3 -16 6 -35 6
-24 0 -35 -5 -35 -14 0 -27 -50 -56 -97 -56 -53 0 -88 21 -102 62 -24 69 -27
68 135 68 l146 0 -6 48 c-12 78 -45 134 -96 160 -45 22 -85 26 -131 12z m102
-66 c27 -14 59 -65 59 -94 0 -6 -41 -10 -110 -10 -94 0 -110 2 -110 16 0 28
33 73 64 88 40 20 60 20 97 0z"/>
<path d="M5830 19693 c-8 -3 -30 -19 -47 -36 l-33 -31 0 32 c0 29 -3 32 -30
32 l-30 0 0 -200 0 -200 35 0 35 0 0 140 c0 135 1 142 24 165 13 13 40 27 60
30 33 7 36 10 36 41 0 35 -12 41 -50 27z"/>
<path d="M6005 19685 c-57 -20 -85 -56 -85 -110 0 -36 5 -48 29 -68 17 -14 54
-30 83 -37 101 -24 128 -39 128 -71 0 -38 -33 -59 -93 -59 -38 0 -53 5 -72 25
-14 13 -25 31 -25 40 0 12 -8 15 -32 13 -29 -3 -33 -6 -30 -28 8 -64 75 -110
160 -110 98 0 162 52 162 131 0 55 -35 83 -137 110 -109 29 -132 50 -100 93
16 22 83 31 120 17 15 -6 32 -22 37 -36 7 -19 17 -25 41 -25 29 0 31 2 24 28
-9 38 -52 80 -94 92 -47 13 -68 12 -116 -5z"/>
<path d="M2655 19668 c4 -13 36 -102 71 -197 35 -96 64 -184 64 -195 0 -12 -9
-36 -20 -53 -16 -27 -26 -33 -56 -33 -33 0 -35 -2 -32 -27 3 -25 7 -28 48 -31
61 -4 77 15 130 148 38 94 150 400 150 408 0 2 -17 2 -37 0 l-37 -3 -50 -152
c-28 -84 -53 -153 -56 -153 -3 0 -28 69 -56 153 l-50 152 -38 3 c-35 3 -37 2
-31 -20z"/>
<path d="M10724 19617 c-219 -83 -333 -316 -264 -540 23 -73 87 -167 143 -210
220 -167 538 -96 657 147 89 180 53 376 -94 514 -87 81 -149 105 -281 109 -85
2 -109 -1 -161 -20z m110 -73 c9 -22 7 -297 -2 -309 -19 -27 -243 -205 -257
-205 -35 0 -66 135 -53 232 15 114 92 217 201 269 70 33 102 36 111 13z m191
-13 c73 -35 137 -98 173 -171 23 -47 27 -67 27 -145 0 -98 -24 -185 -51 -185
-8 0 -71 46 -140 102 l-124 103 0 156 c0 86 3 159 7 162 13 14 49 6 108 -22z
m-190 -443 c3 -13 5 -68 3 -123 -3 -96 -4 -100 -26 -103 -46 -7 -186 67 -180
94 4 16 169 154 185 154 7 0 15 -10 18 -22z m199 -55 l89 -77 -38 -33 c-41
-35 -133 -70 -159 -60 -13 5 -16 25 -16 120 0 63 3 117 7 120 14 14 31 4 117
-70z"/>
<path d="M2827 18825 c-17 -36 -49 -55 -93 -55 -19 0 -24 -5 -24 -25 0 -24 3
-25 55 -25 l55 0 0 -170 0 -170 35 0 35 0 0 240 0 240 -23 0 c-17 0 -28 -10
-40 -35z"/>
<path d="M3130 18842 c-76 -41 -105 -161 -57 -233 46 -69 135 -89 201 -44 41
28 42 27 20 -44 -19 -66 -52 -101 -94 -101 -43 0 -66 14 -78 50 -8 23 -17 30
-36 30 -33 0 -36 -8 -22 -50 23 -70 135 -105 206 -64 119 71 136 375 25 448
-42 27 -123 31 -165 8z m137 -52 c1 0 9 -13 18 -30 49 -95 -26 -195 -119 -156
-43 18 -60 54 -53 109 9 68 58 102 122 85 16 -4 31 -8 32 -8z"/>
<path d="M3528 18709 c-79 -109 -108 -157 -108 -179 l0 -29 103 -3 102 -3 3
-57 c3 -57 4 -58 32 -58 30 0 30 0 30 60 l0 60 35 0 c31 0 35 3 35 25 0 22 -4
25 -35 25 l-35 0 0 155 0 155 -27 0 c-24 -1 -42 -20 -135 -151z m102 -54 l0
-105 -75 0 c-41 0 -75 2 -75 5 0 7 141 205 146 205 2 0 4 -47 4 -105z"/>
<path d="M3911 18843 c-37 -18 -73 -68 -91 -127 -19 -60 -9 -223 16 -266 63
-108 222 -108 276 0 24 47 23 126 -2 167 -39 65 -135 85 -205 44 l-38 -22 6
35 c3 19 13 52 23 72 33 70 124 80 154 16 11 -24 21 -32 43 -32 33 0 36 21 7
68 -35 58 -121 78 -189 45z m130 -242 c21 -22 29 -39 29 -66 0 -76 -49 -123
-117 -110 -74 14 -100 119 -44 176 22 21 39 29 66 29 27 0 44 -8 66 -29z"/>
<path d="M4954 18836 c-8 -34 -33 -54 -80 -64 -29 -6 -40 -13 -42 -30 -3 -21
0 -22 57 -22 l61 0 0 -170 0 -170 30 0 30 0 0 240 0 240 -25 0 c-18 0 -26 -7
-31 -24z"/>
<path d="M5265 18846 c-133 -60 -118 -276 21 -302 47 -9 93 2 121 28 28 26 30
14 9 -57 -20 -64 -50 -95 -93 -95 -46 0 -69 14 -81 50 -8 23 -17 30 -36 30
-20 0 -26 -5 -26 -22 1 -62 60 -108 136 -108 66 0 109 29 143 95 23 45 26 61
26 165 0 126 -12 162 -67 203 -33 25 -113 32 -153 13z m138 -77 c19 -24 23
-99 6 -131 -17 -32 -69 -49 -113 -37 -66 18 -84 110 -36 172 33 42 107 39 143
-4z"/>
<path d="M5654 18840 c-30 -15 -49 -35 -70 -73 -27 -48 -29 -59 -29 -162 0
-99 3 -115 25 -155 60 -107 211 -108 273 -2 38 65 19 171 -38 208 -58 38 -144
35 -186 -7 -17 -17 -19 -18 -19 -1 0 37 23 95 48 124 45 50 120 40 143 -19 6
-16 17 -23 34 -23 54 0 15 88 -51 116 -46 19 -82 17 -130 -6z m109 -221 c31
-14 47 -48 47 -100 0 -100 -130 -135 -176 -48 -49 96 35 191 129 148z"/>
<path d="M6117 18828 c-131 -174 -197 -275 -197 -300 l0 -28 105 0 105 0 0
-60 0 -60 30 0 30 0 0 60 0 60 35 0 c31 0 35 3 35 25 0 22 -4 25 -35 25 l-35
0 0 155 0 155 -24 0 c-16 0 -33 -11 -49 -32z m10 -275 c-3 -2 -37 -3 -76 -1
l-72 3 73 104 73 104 3 -103 c1 -56 1 -104 -1 -107z"/>
<path d="M1771 18574 c-58 -73 26 -169 108 -124 31 16 46 65 31 100 -15 37
-37 50 -84 50 -25 0 -40 -7 -55 -26z"/>
<path d="M4380 18570 l0 -30 80 0 80 0 0 30 0 30 -80 0 -80 0 0 -30z"/>
<path d="M1525 17911 c-127 -31 -203 -152 -193 -307 7 -103 45 -177 112 -219
45 -27 57 -30 137 -30 82 0 90 2 133 33 37 25 48 29 51 17 3 -8 7 -22 10 -30
2 -8 16 -15 30 -15 l25 0 0 145 0 145 -120 0 -120 0 0 -30 0 -30 86 0 86 0 -7
-37 c-9 -49 -33 -91 -68 -117 -40 -30 -163 -30 -204 0 -100 72 -102 294 -4
377 40 33 68 41 132 35 58 -6 98 -31 119 -76 13 -27 20 -32 52 -32 l36 0 -11
37 c-31 99 -165 162 -282 134z"/>
<path d="M2970 17896 c0 -3 36 -57 81 -121 44 -64 82 -122 85 -129 2 -6 -14
-39 -37 -71 -23 -33 -66 -95 -96 -137 l-54 -78 44 0 45 0 75 111 76 111 73
-111 73 -111 43 0 c23 0 42 2 42 4 0 3 -41 64 -91 136 -54 79 -88 138 -85 147
4 8 39 63 79 121 41 59 77 113 81 120 5 9 -4 12 -36 12 l-43 0 -67 -102 -66
-101 -68 102 -67 101 -44 0 c-23 0 -43 -2 -43 -4z"/>
<path d="M10197 17773 c-4 -3 -7 -129 -7 -280 0 -175 -4 -273 -10 -273 -6 0
-10 -52 -10 -135 0 -83 4 -135 10 -135 6 0 10 -16 10 -35 l0 -35 655 0 655 0
0 35 c0 19 5 35 10 35 6 0 10 52 10 135 0 82 -4 135 -10 135 -6 0 -11 104 -12
278 l-3 277 -646 3 c-355 1 -649 -1 -652 -5z m71 -37 c5 -24 -10 -38 -31 -30
-20 7 -23 40 -4 47 19 8 32 2 35 -17z m1197 -11 c0 -13 -8 -21 -22 -23 -19 -3
-23 1 -23 23 0 22 4 26 23 23 14 -2 22 -10 22 -23z m-48 -57 c23 -21 23 -22
23 -285 l0 -263 -590 0 -590 0 0 257 0 257 27 28 27 28 540 0 540 0 23 -22z
m-547 -637 c0 -11 -5 -23 -11 -27 -15 -9 -33 12 -26 30 9 23 37 20 37 -3z
m-180 -71 c0 -15 -7 -20 -25 -20 -18 0 -25 5 -25 20 0 15 7 20 25 20 18 0 25
-5 25 -20z m380 0 c0 -15 -7 -20 -25 -20 -18 0 -25 5 -25 20 0 15 7 20 25 20
18 0 25 -5 25 -20z m-802 -14 c5 -24 -10 -38 -31 -30 -20 7 -23 40 -4 47 19 8
32 2 35 -17z m287 -11 c0 -35 -31 -47 -51 -20 -18 25 0 57 29 53 17 -2 22 -10
22 -33z m650 14 c14 -42 -45 -66 -61 -24 -10 25 4 45 30 45 16 0 27 -7 31 -21z
m260 -14 c0 -13 -8 -21 -22 -23 -19 -3 -23 1 -23 23 0 22 4 26 23 23 14 -2 22
-10 22 -23z"/>
<path d="M10485 17447 c-55 -47 -41 -160 23 -186 20 -8 122 -11 361 -9 l333 3
24 28 c35 40 34 114 -2 156 l-26 31 -343 0 c-344 0 -344 0 -370 -23z m119 -18
c56 -44 19 -149 -53 -149 -33 0 -81 48 -81 81 0 26 26 76 42 82 29 12 67 6 92
-14z m396 -29 l0 -50 -150 0 -150 0 0 50 0 50 150 0 150 0 0 -50z m195 25 c27
-26 32 -63 13 -98 -27 -52 -83 -62 -123 -22 -52 51 -16 145 55 145 19 0 40 -9
55 -25z"/>
<path d="M10300 17405 l0 -45 40 0 40 0 0 45 0 45 -40 0 -40 0 0 -45z m54 19
c3 -9 6 -25 6 -37 0 -17 -2 -19 -9 -8 -8 12 -12 12 -25 2 -19 -16 -19 -14 -5
28 12 34 24 40 33 15z"/>
<path d="M2037 17756 c-48 -17 -74 -41 -98 -87 -46 -91 -29 -220 36 -277 39
-35 85 -47 152 -39 56 6 91 31 121 85 l23 42 -29 0 c-21 0 -41 -11 -65 -35
-30 -30 -42 -35 -80 -35 -57 0 -95 29 -106 82 -5 20 -6 39 -3 42 3 4 68 6 144
6 l138 0 0 33 c0 86 -52 168 -118 187 -48 13 -69 12 -115 -4z m136 -86 c15
-17 27 -41 27 -55 l0 -25 -110 0 c-60 0 -110 2 -110 5 0 25 35 78 62 95 45 28
94 21 131 -20z"/>
<path d="M2485 17756 c-17 -7 -36 -20 -44 -29 -19 -24 -31 -21 -31 8 0 21 -5
25 -30 25 l-30 0 0 -200 0 -200 35 0 35 0 0 134 c0 122 2 136 23 167 43 63
134 62 156 -3 6 -17 11 -91 11 -164 l0 -134 30 0 30 0 0 164 c0 152 -1 165
-22 191 -39 50 -105 66 -163 41z"/>
<path d="M2637 16895 c-17 -36 -49 -55 -93 -55 -19 0 -24 -5 -24 -25 0 -24 3
-25 55 -25 l55 0 0 -170 0 -170 35 0 35 0 0 240 0 240 -23 0 c-17 0 -28 -10
-40 -35z"/>
<path d="M2940 16912 c-76 -41 -105 -161 -57 -233 46 -69 135 -89 201 -44 41
28 42 27 20 -44 -19 -66 -52 -101 -94 -101 -43 0 -66 14 -78 50 -8 23 -17 30
-36 30 -33 0 -36 -8 -22 -50 23 -70 135 -105 206 -64 119 71 136 375 25 448
-42 27 -123 31 -165 8z m137 -52 c1 0 9 -13 18 -30 49 -95 -26 -195 -119 -156
-43 18 -60 54 -53 109 9 68 58 102 122 85 16 -4 31 -8 32 -8z"/>
<path d="M3341 16913 c-37 -18 -73 -68 -91 -127 -19 -60 -9 -223 16 -266 63
-108 222 -108 276 0 24 47 23 126 -2 167 -39 65 -135 85 -205 44 l-38 -22 6
35 c3 19 13 52 23 72 33 70 124 80 154 16 11 -24 21 -32 43 -32 33 0 36 21 7
68 -35 58 -121 78 -189 45z m130 -242 c21 -22 29 -39 29 -66 0 -76 -49 -123
-117 -110 -74 14 -100 119 -44 176 22 21 39 29 66 29 27 0 44 -8 66 -29z"/>
<path d="M4764 16906 c-8 -34 -33 -54 -80 -64 -29 -6 -40 -13 -42 -30 -3 -21
0 -22 57 -22 l61 0 0 -170 0 -170 30 0 30 0 0 240 0 240 -25 0 c-18 0 -26 -7
-31 -24z"/>
<path d="M5075 16916 c-133 -60 -118 -276 21 -302 47 -9 93 2 121 28 28 26 30
14 9 -57 -20 -64 -50 -95 -93 -95 -46 0 -69 14 -81 50 -8 23 -17 30 -36 30
-20 0 -26 -5 -26 -22 1 -62 60 -108 136 -108 66 0 109 29 143 95 23 45 26 61
26 165 0 126 -12 162 -67 203 -33 25 -113 32 -153 13z m138 -77 c19 -24 23
-99 6 -131 -17 -32 -69 -49 -113 -37 -66 18 -84 110 -36 172 33 42 107 39 143
-4z"/>
<path d="M5454 16916 c-75 -33 -101 -132 -48 -187 l26 -27 -25 -17 c-34 -22
-51 -66 -44 -121 8 -76 71 -124 163 -124 98 0 154 54 154 149 0 47 -4 57 -33
86 l-33 33 22 19 c31 28 39 81 20 127 -26 63 -128 94 -202 62z m132 -67 c25
-28 22 -78 -5 -101 -31 -25 -91 -24 -119 2 -27 26 -29 80 -4 102 33 30 99 29
128 -3z m9 -204 c17 -16 25 -35 25 -59 0 -48 -8 -65 -41 -81 -105 -55 -211 66
-127 145 33 30 111 28 143 -5z"/>
<path d="M5834 16912 c-72 -46 -100 -124 -92 -259 5 -94 35 -165 82 -195 24
-15 44 -18 90 -15 53 3 62 7 92 39 42 46 57 102 57 209 0 70 -4 95 -25 141
-15 31 -38 64 -53 74 -40 26 -114 29 -151 6z m93 -42 c53 -19 68 -60 68 -185
0 -93 -3 -115 -21 -145 -39 -67 -115 -63 -151 8 -27 56 -26 224 3 272 15 27
51 57 70 60 1 0 14 -5 31 -10z"/>
<path d="M3665 16908 c-2 -7 -9 -51 -15 -98 -6 -47 -13 -100 -17 -117 -5 -31
-3 -33 22 -33 15 0 38 9 52 20 31 24 99 27 130 5 52 -37 50 -132 -4 -175 -49
-39 -132 -19 -153 36 -7 18 -17 24 -40 24 -35 0 -35 0 -16 -43 24 -58 59 -81
130 -85 113 -7 185 55 186 161 0 106 -107 181 -208 145 l-43 -16 5 27 c3 14 8
43 12 64 l6 37 99 0 99 0 0 30 0 30 -120 0 c-88 0 -122 -3 -125 -12z"/>
<path d="M1775 16645 c-28 -27 -33 -79 -11 -107 52 -69 172 -14 151 69 -16 63
-94 85 -140 38z"/>
<path d="M4190 16640 l0 -30 80 0 80 0 0 30 0 30 -80 0 -80 0 0 -30z"/>
<path d="M1350 15690 l0 -270 35 0 35 0 1 223 1 222 75 -222 75 -223 36 0 37
0 77 228 76 227 1 -227 1 -228 35 0 35 0 0 270 0 270 -54 0 -54 0 -72 -217
c-40 -120 -75 -221 -79 -225 -4 -4 -40 94 -81 217 l-75 225 -52 0 -53 0 0
-270z"/>
<path d="M1980 15925 c0 -32 2 -35 30 -35 28 0 30 3 30 35 0 32 -2 35 -30 35
-28 0 -30 -3 -30 -35z"/>
<path d="M2140 15690 l0 -270 35 0 35 0 0 270 0 270 -35 0 -35 0 0 -270z"/>
<path d="M2310 15690 l0 -270 35 0 35 0 0 270 0 270 -35 0 -35 0 0 -270z"/>
<path d="M3740 15925 c0 -33 2 -35 35 -35 33 0 35 2 35 35 0 33 -2 35 -35 35
-33 0 -35 -2 -35 -35z"/>
<path d="M4330 15690 l0 -270 35 0 35 0 0 270 0 270 -35 0 -35 0 0 -270z"/>
<path d="M10492 15914 c-53 -37 -52 -26 -52 -681 0 -680 -2 -659 70 -696 32
-16 66 -17 367 -15 319 3 333 4 360 24 54 40 53 23 53 682 0 524 -2 617 -15
642 -31 61 -26 60 -410 60 -301 0 -354 -2 -373 -16z m536 -56 c-4 -10 -45 -13
-163 -13 -118 0 -159 3 -162 13 -4 9 33 12 162 12 129 0 166 -3 163 -12z m192
-588 l0 -510 -355 0 -355 0 0 510 0 510 355 0 355 0 0 -510z m-321 -604 c7 -8
11 -27 9 -43 -3 -24 -8 -28 -37 -31 -36 -4 -51 9 -51 44 0 40 54 61 79 30z"/>
<path d="M2589 15820 c-48 -14 -78 -42 -105 -96 -23 -48 -26 -63 -22 -128 6
-91 31 -136 92 -165 86 -42 193 -16 234 58 12 21 22 41 22 45 0 3 -16 6 -35 6
-24 0 -35 -5 -35 -14 0 -27 -50 -56 -97 -56 -53 0 -88 21 -102 62 -24 69 -27
68 135 68 l146 0 -6 48 c-12 78 -45 134 -96 160 -45 22 -85 26 -131 12z m102
-66 c27 -14 59 -65 59 -94 0 -6 -41 -10 -110 -10 -94 0 -110 2 -110 16 0 28
33 73 64 88 40 20 60 20 97 0z"/>
<path d="M3034 15816 c-17 -8 -41 -24 -53 -37 l-21 -23 0 32 c0 29 -3 32 -30
32 l-30 0 0 -200 0 -200 35 0 35 0 0 140 c0 138 0 140 28 170 38 43 89 50 127
17 l29 -24 4 -152 4 -151 29 0 29 0 0 158 c0 105 -4 165 -13 181 -28 56 -114
84 -173 57z"/>
<path d="M3454 15816 c-17 -8 -41 -24 -53 -37 l-21 -23 0 32 c0 29 -3 32 -30
32 l-30 0 0 -200 0 -200 35 0 35 0 0 140 c0 138 0 140 28 170 38 43 89 50 127
17 l29 -24 4 -152 4 -151 29 0 29 0 0 158 c0 105 -4 165 -13 181 -28 56 -114
84 -173 57z"/>
<path d="M4009 15821 c-45 -14 -68 -31 -84 -61 -23 -45 -19 -60 15 -60 17 0
30 5 30 10 0 6 11 22 25 35 48 49 155 25 155 -34 0 -38 -14 -47 -80 -56 -30
-3 -72 -11 -92 -16 -85 -22 -118 -126 -59 -191 27 -31 34 -33 93 -33 54 0 72
5 106 28 32 20 42 24 42 12 0 -23 46 -48 75 -41 32 8 37 56 6 56 -18 0 -20 10
-23 144 -3 135 -4 146 -26 169 -36 38 -122 56 -183 38z m131 -302 c-16 -29
-95 -63 -128 -54 -40 10 -52 24 -52 60 0 45 24 61 110 77 l75 13 3 -37 c2 -20
-2 -47 -8 -59z"/>
<path d="M4575 15815 c-57 -20 -85 -56 -85 -110 0 -36 5 -48 29 -68 17 -14 54
-30 83 -37 101 -24 128 -39 128 -71 0 -38 -33 -59 -93 -59 -38 0 -53 5 -72 25
-14 13 -25 31 -25 40 0 12 -8 15 -32 13 -29 -3 -33 -6 -30 -28 8 -64 75 -110
160 -110 98 0 162 52 162 131 0 55 -35 83 -137 110 -109 29 -132 50 -100 93
16 22 83 31 120 17 15 -6 32 -22 37 -36 7 -19 17 -25 41 -25 29 0 31 2 24 28
-9 38 -52 80 -94 92 -47 13 -68 12 -116 -5z"/>
<path d="M1980 15620 l0 -200 30 0 30 0 0 200 0 200 -30 0 -30 0 0 -200z"/>
<path d="M3747 15813 c-4 -3 -7 -93 -7 -200 l0 -193 35 0 35 0 0 200 0 200
-28 0 c-16 0 -32 -3 -35 -7z"/>
<path d="M2637 14955 c-17 -36 -49 -55 -93 -55 -19 0 -24 -5 -24 -25 0 -24 3
-25 55 -25 l55 0 0 -170 0 -170 35 0 35 0 0 240 0 240 -23 0 c-17 0 -28 -10
-40 -35z"/>
<path d="M2940 14972 c-76 -41 -105 -161 -57 -233 46 -69 135 -89 201 -44 41
28 42 27 20 -44 -19 -66 -52 -101 -94 -101 -43 0 -66 14 -78 50 -8 23 -17 30
-36 30 -33 0 -36 -8 -22 -50 23 -70 135 -105 206 -64 119 71 136 375 25 448
-42 27 -123 31 -165 8z m137 -52 c1 0 9 -13 18 -30 49 -95 -26 -195 -119 -156
-43 18 -60 54 -53 109 9 68 58 102 122 85 16 -4 31 -8 32 -8z"/>
<path d="M3325 14971 c-45 -21 -61 -42 -70 -94 -8 -39 13 -90 40 -101 13 -5
10 -12 -19 -40 -32 -30 -36 -39 -36 -85 0 -67 21 -106 70 -131 109 -56 237 0
248 108 5 55 -15 104 -49 123 -21 11 -21 11 6 39 20 20 26 38 27 70 1 101
-112 159 -217 111z m141 -62 c21 -17 17 -76 -6 -99 -26 -26 -89 -27 -121 -2
-42 35 -20 116 35 124 26 5 73 -7 92 -23z m-5 -192 c47 -36 51 -97 9 -139 -28
-28 -36 -30 -78 -25 -58 6 -92 41 -92 93 0 53 36 84 97 84 26 0 55 -6 64 -13z"/>
<path d="M3775 14956 c-17 -35 -50 -56 -90 -56 -20 0 -25 -5 -25 -25 0 -24 3
-25 55 -25 l55 0 0 -170 0 -170 30 0 30 0 0 240 c0 231 -1 240 -20 240 -12 0
-25 -12 -35 -34z"/>
<path d="M4764 14966 c-8 -34 -33 -54 -80 -64 -29 -6 -40 -13 -42 -30 -3 -21
0 -22 57 -22 l61 0 0 -170 0 -170 30 0 30 0 0 240 0 240 -25 0 c-18 0 -26 -7
-31 -24z"/>
<path d="M5075 14976 c-133 -60 -118 -276 21 -302 47 -9 93 2 121 28 28 26 30
14 9 -57 -20 -64 -50 -95 -93 -95 -46 0 -69 14 -81 50 -8 23 -17 30 -36 30
-20 0 -26 -5 -26 -22 1 -62 60 -108 136 -108 66 0 109 29 143 95 23 45 26 61
26 165 0 126 -12 162 -67 203 -33 25 -113 32 -153 13z m138 -77 c19 -24 23
-99 6 -131 -17 -32 -69 -49 -113 -37 -66 18 -84 110 -36 172 33 42 107 39 143
-4z"/>
<path d="M5455 14976 c-133 -60 -118 -276 21 -302 47 -9 93 2 121 28 28 26 30
14 9 -57 -20 -64 -50 -95 -93 -95 -46 0 -69 14 -81 50 -8 23 -17 30 -36 30
-20 0 -26 -5 -26 -22 1 -62 60 -108 136 -108 66 0 109 29 143 95 23 45 26 61
26 165 0 126 -12 162 -67 203 -33 25 -113 32 -153 13z m138 -77 c19 -24 23
-99 6 -131 -17 -32 -69 -49 -113 -37 -66 18 -84 110 -36 172 33 42 107 39 143
-4z"/>
<path d="M5844 14970 c-30 -15 -49 -35 -70 -73 -27 -48 -29 -59 -29 -162 0
-99 3 -115 25 -155 60 -107 211 -108 273 -2 38 65 19 171 -38 208 -58 38 -144
35 -186 -7 -17 -17 -19 -18 -19 -1 0 37 23 95 48 124 45 50 120 40 143 -19 6
-16 17 -23 34 -23 54 0 15 88 -51 116 -46 19 -82 17 -130 -6z m109 -221 c31
-14 47 -48 47 -100 0 -100 -130 -135 -176 -48 -49 96 35 191 129 148z"/>
<path d="M1775 14715 c-66 -66 4 -167 91 -130 58 24 67 103 17 141 -29 22 -81
17 -108 -11z"/>
<path d="M4190 14700 l0 -30 80 0 80 0 0 30 0 30 -80 0 -80 0 0 -30z"/>
<path d="M1525 14041 c-127 -31 -203 -152 -193 -307 7 -103 45 -177 112 -219
45 -27 57 -30 137 -30 82 0 90 2 133 33 37 25 48 29 51 17 3 -8 7 -22 10 -30
2 -8 16 -15 30 -15 l25 0 0 145 0 145 -120 0 -120 0 0 -30 0 -30 86 0 86 0 -7
-37 c-9 -49 -33 -91 -68 -117 -40 -30 -163 -30 -204 0 -100 72 -102 294 -4
377 40 33 68 41 132 35 58 -6 98 -31 119 -76 13 -27 20 -32 52 -32 l36 0 -11
37 c-31 99 -165 162 -282 134z"/>
<path d="M2980 14000 l0 -29 151 -3 150 -3 -165 -209 c-127 -160 -166 -216
-166 -237 l0 -29 215 0 215 0 0 35 0 35 -166 0 -165 0 165 204 c134 165 166
211 166 235 l0 31 -200 0 -200 0 0 -30z"/>
<path d="M2037 13886 c-48 -17 -74 -41 -98 -87 -46 -91 -29 -220 36 -277 39
-35 85 -47 152 -39 56 6 91 31 121 85 l23 42 -29 0 c-21 0 -41 -11 -65 -35
-30 -30 -42 -35 -80 -35 -57 0 -95 29 -106 82 -5 20 -6 39 -3 42 3 4 68 6 144
6 l138 0 0 33 c0 86 -52 168 -118 187 -48 13 -69 12 -115 -4z m136 -86 c15
-17 27 -41 27 -55 l0 -25 -110 0 c-60 0 -110 2 -110 5 0 25 35 78 62 95 45 28
94 21 131 -20z"/>
<path d="M2485 13886 c-17 -7 -36 -20 -44 -29 -19 -24 -31 -21 -31 8 0 21 -5
25 -30 25 l-30 0 0 -200 0 -200 35 0 35 0 0 134 c0 122 2 136 23 167 43 63
134 62 156 -3 6 -17 11 -91 11 -164 l0 -134 30 0 30 0 0 164 c0 152 -1 165
-22 191 -39 50 -105 66 -163 41z"/>
<path d="M10852 13547 c-16 -17 -26 -52 -42 -150 -28 -173 -26 -176 125 -197
l89 -13 -29 -23 c-29 -23 -30 -24 -6 -24 22 0 23 -2 15 -47 -4 -27 -8 -61 -9
-77 -2 -26 -14 -35 -159 -111 -134 -70 -155 -84 -141 -95 8 -7 15 -21 15 -31
0 -11 3 -19 7 -19 4 0 89 45 189 100 134 74 191 100 218 100 42 0 52 14 62 89
7 51 8 53 34 47 21 -4 33 1 50 19 22 23 28 24 89 19 92 -8 100 0 122 122 24
133 24 186 0 208 -28 25 -257 61 -280 44 -14 -12 -14 -11 -2 4 11 15 11 19 -2
24 -22 8 -50 1 -54 -13 -2 -6 5 -14 17 -18 11 -3 18 -10 15 -14 -2 -5 37 -14
88 -21 111 -14 137 -28 137 -73 0 -30 -12 -115 -26 -175 -9 -44 -34 -45 -269
-8 -189 31 -223 39 -238 57 -9 12 -15 29 -13 38 3 9 10 53 17 98 16 119 20
121 162 100 61 -10 115 -17 119 -17 4 0 -3 10 -15 23 -17 19 -44 27 -124 40
-130 22 -135 21 -161 -6z m612 -234 c4 -9 1 -23 -7 -30 -7 -8 -21 -11 -30 -7
-17 6 -23 35 -10 47 12 13 41 7 47 -10z"/>
<path d="M2637 13025 c-17 -36 -49 -55 -93 -55 -19 0 -24 -5 -24 -25 0 -24 3
-25 55 -25 l55 0 0 -170 0 -170 35 0 35 0 0 240 0 240 -23 0 c-17 0 -28 -10
-40 -35z"/>
<path d="M2940 13042 c-76 -41 -105 -161 -57 -233 46 -69 135 -89 201 -44 41
28 42 27 20 -44 -19 -66 -52 -101 -94 -101 -43 0 -66 14 -78 50 -8 23 -17 30
-36 30 -33 0 -36 -8 -22 -50 23 -70 135 -105 206 -64 119 71 136 375 25 448
-42 27 -123 31 -165 8z m137 -52 c1 0 9 -13 18 -30 49 -95 -26 -195 -119 -156
-43 18 -60 54 -53 109 9 68 58 102 122 85 16 -4 31 -8 32 -8z"/>
<path d="M3320 13042 c-76 -41 -105 -161 -57 -233 46 -69 135 -89 201 -44 41
28 42 27 20 -44 -19 -66 -52 -101 -94 -101 -43 0 -66 14 -78 50 -8 23 -17 30
-36 30 -33 0 -36 -8 -22 -50 23 -70 135 -105 206 -64 119 71 136 375 25 448
-42 27 -123 31 -165 8z m137 -52 c1 0 9 -13 18 -30 49 -95 -26 -195 -119 -156
-43 18 -60 54 -53 109 9 68 58 102 122 85 16 -4 31 -8 32 -8z"/>
<path d="M4706 13050 c-54 -17 -96 -73 -96 -130 0 -27 3 -30 30 -30 26 0 30 3
30 29 0 89 138 117 177 36 14 -30 14 -38 2 -71 -11 -29 -30 -46 -91 -83 -103
-62 -135 -95 -153 -155 -8 -27 -15 -53 -15 -58 0 -4 74 -8 165 -8 l165 0 0 30
0 30 -131 0 -131 0 14 23 c18 26 71 66 148 110 68 40 100 85 100 142 0 103
-103 168 -214 135z"/>
<path d="M5074 13042 c-72 -46 -100 -124 -92 -259 5 -94 35 -165 82 -195 24
-15 44 -18 90 -15 53 3 62 7 92 39 42 46 57 102 57 209 0 70 -4 95 -25 141
-15 31 -38 64 -53 74 -40 26 -114 29 -151 6z m93 -42 c53 -19 68 -60 68 -185
0 -93 -3 -115 -21 -145 -39 -67 -115 -63 -151 8 -27 56 -26 224 3 272 15 27
51 57 70 60 1 0 14 -5 31 -10z"/>
<path d="M5517 13025 c-17 -36 -49 -55 -93 -55 -19 0 -24 -5 -24 -25 0 -24 3
-25 55 -25 l55 0 0 -170 0 -170 35 0 35 0 0 240 0 240 -23 0 c-17 0 -28 -10
-40 -35z"/>
<path d="M5835 13046 c-36 -16 -85 -70 -85 -94 0 -9 -3 -27 -6 -39 -6 -20 -3
-23 24 -23 28 0 32 4 42 38 14 53 41 75 90 75 57 0 90 -32 90 -88 0 -49 -24
-75 -112 -125 -69 -38 -123 -96 -137 -147 -19 -66 -26 -63 154 -63 l165 0 0
30 0 30 -130 0 c-88 0 -130 4 -130 11 0 19 58 66 134 108 93 51 121 87 121
158 0 36 -6 60 -21 80 -42 57 -131 79 -199 49z"/>
<path d="M3620 13020 l0 -30 125 0 c69 0 125 -2 125 -5 0 -2 -20 -33 -45 -69
-57 -81 -110 -195 -129 -275 l-14 -61 33 0 c32 0 33 1 50 71 21 86 88 225 144
299 22 30 41 65 41 77 l0 23 -165 0 -165 0 0 -30z"/>
<path d="M10432 12703 c-162 -92 -200 -118 -187 -126 9 -5 22 -22 29 -37 l12
-29 179 96 c189 100 225 125 225 155 0 18 -33 59 -47 57 -5 0 -100 -52 -211
-116z"/>
<path d="M1776 12784 c-42 -43 -33 -104 21 -132 33 -18 59 -14 89 12 57 48 20
146 -55 146 -17 0 -39 -10 -55 -26z"/>
<path d="M4190 12770 l0 -30 80 0 80 0 0 30 0 30 -80 0 -80 0 0 -30z"/>
<path d="M10210 12547 c0 -28 17 -47 42 -47 20 0 23 21 8 51 -15 28 -50 25
-50 -4z"/>
<path d="M1525 12111 c-127 -31 -203 -152 -193 -307 7 -103 45 -177 112 -219
45 -27 57 -30 137 -30 82 0 90 2 133 33 37 25 48 29 51 17 3 -8 7 -22 10 -30
2 -8 16 -15 30 -15 l25 0 0 145 0 145 -120 0 -120 0 0 -30 0 -30 86 0 86 0 -7
-37 c-9 -49 -33 -91 -68 -117 -40 -30 -163 -30 -204 0 -100 72 -102 294 -4
377 40 33 68 41 132 35 58 -6 98 -31 119 -76 13 -27 20 -32 52 -32 l36 0 -11
37 c-31 99 -165 162 -282 134z"/>
<path d="M3139 12073 c-67 -176 -189 -503 -189 -508 0 -3 16 -5 36 -3 36 3 37
5 64 78 l27 75 110 3 109 3 25 -78 25 -78 42 -3 42 -3 -44 123 c-24 68 -68
189 -97 271 l-54 147 -43 0 c-37 0 -44 -3 -53 -27z m90 -165 c19 -57 36 -109
38 -115 4 -10 -16 -13 -82 -13 -48 0 -85 4 -83 8 2 4 20 56 42 115 21 59 42
107 45 107 4 0 22 -46 40 -102z"/>
<path d="M3490 11830 l0 -270 35 0 35 0 0 270 0 270 -35 0 -35 0 0 -270z"/>
<path d="M4080 11830 l0 -270 35 0 35 0 0 140 0 140 29 32 c25 28 36 33 75 33
25 0 50 -5 56 -11 20 -20 30 -86 30 -211 l0 -123 31 0 30 0 -3 169 c-3 164 -4
170 -27 195 -29 31 -91 50 -132 41 -16 -4 -43 -18 -59 -32 l-30 -25 0 96 0 96
-35 0 -35 0 0 -270z"/>
<path d="M2037 11956 c-48 -17 -74 -41 -98 -87 -46 -91 -29 -220 36 -277 39
-35 85 -47 152 -39 56 6 91 31 121 85 l23 42 -29 0 c-21 0 -41 -11 -65 -35
-30 -30 -42 -35 -80 -35 -57 0 -95 29 -106 82 -5 20 -6 39 -3 42 3 4 68 6 144
6 l138 0 0 33 c0 86 -52 168 -118 187 -48 13 -69 12 -115 -4z m136 -86 c15
-17 27 -41 27 -55 l0 -25 -110 0 c-60 0 -110 2 -110 5 0 25 35 78 62 95 45 28
94 21 131 -20z"/>
<path d="M2485 11956 c-17 -7 -36 -20 -44 -29 -19 -24 -31 -21 -31 8 0 21 -5
25 -30 25 l-30 0 0 -200 0 -200 35 0 35 0 0 134 c0 122 2 136 23 167 43 63
134 62 156 -3 6 -17 11 -91 11 -164 l0 -134 30 0 30 0 0 164 c0 152 -1 165
-22 191 -39 50 -105 66 -163 41z"/>
<path d="M3785 11956 c-17 -7 -36 -20 -44 -29 -19 -24 -31 -21 -31 8 0 21 -5
25 -30 25 l-30 0 0 -280 0 -280 35 0 35 0 0 95 0 94 35 -21 c44 -25 122 -21
163 9 60 43 96 173 73 261 -15 55 -63 109 -109 122 -47 13 -60 12 -97 -4z m86
-62 c36 -18 59 -67 59 -126 0 -100 -40 -158 -107 -158 -73 0 -103 43 -103 147
0 123 65 182 151 137z"/>
<path d="M4599 11961 c-45 -14 -68 -31 -84 -61 -23 -45 -19 -60 15 -60 17 0
30 5 30 10 0 6 11 22 25 35 48 49 155 25 155 -34 0 -38 -14 -47 -80 -56 -30
-3 -72 -11 -92 -16 -85 -22 -118 -126 -59 -191 27 -31 34 -33 93 -33 54 0 72
5 106 28 32 20 42 24 42 12 0 -23 46 -48 75 -41 32 8 37 56 6 56 -18 0 -20 10
-23 144 -3 135 -4 146 -26 169 -36 38 -122 56 -183 38z m131 -302 c-16 -29
-95 -63 -128 -54 -40 10 -52 24 -52 60 0 45 24 61 110 77 l75 13 3 -37 c2 -20
-2 -47 -8 -59z"/>
<path d="M10925 11496 c-48 -21 -116 -99 -165 -188 l-45 -82 -60 -15 c-37 -10
-73 -27 -93 -46 -19 -16 -41 -30 -51 -31 -25 -2 -80 -33 -59 -34 32 0 452
-132 499 -156 57 -28 106 -85 120 -139 17 -61 6 -221 -18 -275 -20 -46 -49
-78 -60 -66 -3 3 1 14 9 23 9 10 21 35 27 55 15 46 16 212 2 265 -14 52 -70
116 -124 141 -67 32 -449 142 -488 141 -32 -1 -32 -2 11 -11 96 -20 421 -131
471 -161 43 -26 59 -44 84 -91 27 -53 30 -69 30 -150 0 -96 -10 -166 -24 -166
-5 0 -5 19 0 43 13 68 10 191 -6 236 -39 112 -76 132 -427 237 -81 24 -168 44
-192 44 -38 0 -48 -5 -74 -34 -36 -41 -48 -108 -39 -225 10 -145 55 -203 207
-267 212 -89 324 -126 385 -127 59 -1 135 20 135 36 0 5 4 6 9 3 5 -3 38 7 73
23 98 45 149 107 172 211 4 18 23 34 71 59 35 18 79 49 96 69 31 35 31 37 27
121 -5 102 -22 141 -80 179 -76 50 -98 77 -98 119 0 85 -40 184 -90 226 -54
46 -170 62 -235 33z m155 -78 c22 -24 50 -106 50 -145 0 -44 -18 -63 -58 -63
-74 0 -157 19 -173 40 -17 19 -17 19 -33 -19 -8 -22 -20 -69 -27 -106 -6 -37
-15 -63 -20 -58 -20 20 50 231 72 217 7 -4 9 -3 5 4 -10 17 128 152 156 152 4
0 17 -10 28 -22z m-410 -298 c-20 -13 -43 -13 -35 0 3 6 16 10 28 10 18 0 19
-2 7 -10z m356 -45 c49 -9 141 -33 204 -54 l115 -39 25 21 25 22 -24 -27 c-13
-15 -52 -42 -87 -60 -62 -32 -65 -33 -91 -16 -69 42 -104 57 -182 77 -65 17
-94 30 -123 57 l-38 34 44 0 c24 0 83 -7 132 -15z m-391 -92 c116 -35 224 -73
242 -84 77 -48 103 -106 103 -231 0 -99 -15 -166 -44 -203 -23 -28 -29 -30
-88 -29 -68 2 -159 31 -363 118 -183 78 -221 136 -213 329 5 141 35 183 118
170 19 -3 130 -35 245 -70z m626 -78 c-23 -14 -48 -25 -55 -25 -13 1 74 49 89
49 6 1 -10 -10 -34 -24z m-81 -65 c0 -16 -2 -30 -4 -30 -2 0 -6 14 -8 30 -3
17 -1 30 4 30 4 0 8 -13 8 -30z m7 -77 c-3 -10 -5 -4 -5 12 0 17 2 24 5 18 2
-7 2 -21 0 -30z m10 -45 c-3 -8 -6 -5 -6 6 -1 11 2 17 5 13 3 -3 4 -12 1 -19z"/>
<path d="M2575 11116 c-36 -16 -85 -70 -85 -94 0 -9 -3 -27 -6 -39 -6 -20 -3
-23 24 -23 28 0 32 4 42 38 14 53 41 75 90 75 57 0 90 -32 90 -88 0 -49 -24
-75 -112 -125 -69 -38 -123 -96 -137 -147 -19 -66 -26 -63 154 -63 l165 0 0
30 0 30 -130 0 c-88 0 -130 4 -130 11 0 19 58 66 134 108 93 51 121 87 121
158 0 36 -6 60 -21 80 -42 57 -131 79 -199 49z"/>
<path d="M2952 11113 c-19 -9 -44 -35 -60 -62 -25 -43 -27 -54 -27 -166 0
-102 3 -126 21 -160 29 -55 75 -85 133 -85 60 0 104 27 133 82 20 38 23 57 23
158 0 103 -3 120 -25 164 -41 79 -121 107 -198 69z m125 -65 c46 -43 56 -224
17 -304 -34 -69 -109 -72 -148 -5 -25 42 -33 169 -16 239 22 93 88 124 147 70z"/>
<path d="M3395 11096 c-17 -35 -50 -56 -90 -56 -20 0 -25 -5 -25 -25 0 -24 3
-25 55 -25 l55 0 0 -170 0 -170 30 0 30 0 0 240 c0 231 -1 240 -20 240 -12 0
-25 -12 -35 -34z"/>
<path d="M3725 11123 c-54 -14 -95 -66 -95 -123 0 -25 4 -30 25 -30 20 0 27 6
31 29 8 38 38 71 67 72 75 4 108 -17 109 -71 1 -43 -39 -80 -88 -80 -29 0 -34
-3 -34 -24 0 -21 5 -24 52 -28 38 -4 57 -12 70 -28 41 -50 8 -133 -57 -146
-66 -12 -114 16 -125 74 -4 22 -10 27 -35 27 -27 0 -30 -3 -27 -30 12 -105
136 -159 247 -105 52 25 77 68 78 133 1 45 -3 53 -34 81 l-34 31 22 21 c54 54
33 152 -41 185 -39 18 -89 22 -131 12z"/>
<path d="M6720 11061 c0 -48 -2 -51 -25 -51 -20 0 -25 -5 -25 -25 0 -20 5 -25
25 -25 l25 0 0 -139 c0 -162 4 -171 76 -171 41 0 45 2 42 22 -2 14 -12 24 -28
28 -25 6 -25 7 -28 133 l-3 127 31 0 c27 0 31 3 28 23 -2 15 -11 23 -30 25
-24 3 -27 8 -30 50 -3 43 -5 47 -30 50 -27 3 -28 2 -28 -47z"/>
<path d="M4745 11013 c-11 -3 -32 -17 -47 -31 l-28 -26 0 28 c0 24 -3 27 -27
24 l-28 -3 -3 -247 -2 -248 30 0 30 0 0 85 c0 47 3 85 6 85 3 0 17 -9 31 -20
56 -44 151 -14 193 61 32 58 35 167 5 218 -34 58 -101 89 -160 74z m70 -59
c46 -18 64 -154 28 -216 -39 -68 -127 -58 -159 17 -24 59 -11 148 27 186 19
19 71 25 104 13z"/>
<path d="M5113 11001 c-17 -11 -36 -28 -42 -38 -9 -15 -10 -13 -11 15 0 30 -2
33 -27 30 l-28 -3 -3 -177 -2 -178 35 0 35 0 0 125 c0 120 1 127 25 150 15 16
36 25 55 25 28 0 30 3 30 35 0 41 -18 46 -67 16z"/>
<path d="M5317 11006 c-50 -18 -62 -30 -86 -80 -28 -57 -28 -145 0 -202 35
-74 136 -105 216 -67 34 16 73 64 73 91 0 21 -47 13 -63 -11 -40 -62 -140 -57
-171 7 -31 66 -31 66 115 66 l132 0 -6 51 c-14 120 -106 183 -210 145z m104
-56 c19 -10 49 -59 49 -80 0 -6 -37 -10 -101 -10 -88 0 -100 2 -95 16 3 9 6
19 6 23 0 5 12 20 26 35 29 28 79 35 115 16z"/>
<path d="M5671 11007 c-73 -26 -101 -118 -49 -162 14 -12 58 -30 96 -40 39 -9
78 -25 88 -36 15 -17 15 -20 0 -44 -32 -49 -125 -46 -154 6 -13 21 -25 29 -45
29 -25 0 -27 -3 -22 -22 20 -65 69 -98 147 -98 60 0 109 27 131 73 34 69 -2
116 -108 143 -98 25 -125 52 -89 88 10 10 33 16 65 16 45 0 52 -3 67 -30 22
-39 62 -42 62 -4 0 47 -72 96 -139 93 -9 0 -31 -5 -50 -12z"/>
<path d="M6037 11006 c-50 -18 -62 -30 -86 -80 -28 -57 -28 -145 0 -202 35
-74 136 -105 216 -67 34 16 73 64 73 91 0 21 -47 13 -63 -11 -40 -62 -140 -57
-171 7 -31 66 -31 66 115 66 l132 0 -6 51 c-14 120 -106 183 -210 145z m104
-56 c19 -10 49 -59 49 -80 0 -6 -37 -10 -101 -10 -88 0 -100 2 -95 16 3 9 6
19 6 23 0 5 12 20 26 35 29 28 79 35 115 16z"/>
<path d="M6450 11009 c-14 -6 -35 -20 -47 -31 l-23 -21 0 27 c0 24 -3 27 -27
24 l-28 -3 -3 -177 -2 -178 30 0 30 0 0 98 c0 157 26 212 100 212 63 0 70 -17
70 -173 l0 -137 30 0 30 0 0 148 c0 165 -6 183 -66 208 -38 16 -59 17 -94 3z"/>
<path d="M1810 10873 c-61 -23 -79 -95 -35 -138 49 -50 126 -22 141 51 10 51
-56 106 -106 87z"/>
<path d="M4190 10840 l0 -30 80 0 80 0 0 30 0 30 -80 0 -80 0 0 -30z"/>
<path d="M2455 3604 c-144 -36 -287 -105 -342 -165 -38 -42 -91 -139 -98 -180
-4 -21 -12 -39 -18 -39 -7 0 -45 7 -86 16 -135 28 -260 -8 -353 -100 -168
-168 -193 -425 -57 -597 l28 -36 -45 -21 c-64 -32 -130 -96 -160 -158 -22 -46
-26 -64 -22 -122 6 -121 83 -233 181 -266 67 -22 186 -20 276 4 82 23 112 37
189 88 29 19 54 33 55 31 1 -2 13 -26 27 -54 52 -103 158 -151 319 -142 126 6
194 32 254 95 24 27 50 58 56 71 l12 22 44 -40 c87 -80 199 -121 336 -121 183
0 326 78 374 203 l18 47 31 -19 c68 -41 192 -65 266 -51 111 21 219 101 265
195 55 112 26 271 -66 361 l-39 38 40 23 c82 49 117 160 85 269 -23 79 -46
122 -91 168 -57 58 -132 89 -220 90 l-72 1 -7 42 c-7 46 -45 125 -78 162 -37
40 -108 81 -182 103 -164 49 -362 -10 -436 -128 l-22 -36 -30 57 c-36 66 -106
133 -174 166 -38 18 -68 23 -143 25 -52 2 -104 1 -115 -2z m274 -69 c61 -34
122 -99 157 -167 13 -27 26 -48 28 -48 2 0 15 18 30 40 63 96 227 156 362 133
73 -13 155 -48 201 -87 42 -36 83 -121 90 -188 l5 -54 83 4 c104 5 168 -14
223 -67 76 -74 121 -219 93 -302 -12 -36 -60 -94 -101 -120 l-25 -16 34 -39
c72 -81 98 -201 67 -306 -13 -45 -26 -66 -71 -106 -30 -27 -76 -60 -102 -73
-95 -47 -244 -24 -364 56 l-37 24 -6 -22 c-3 -12 -6 -35 -6 -50 0 -107 -148
-211 -319 -224 -139 -10 -269 33 -365 121 l-39 36 -15 -21 c-36 -52 -74 -87
-124 -115 -51 -28 -58 -29 -183 -29 -120 0 -134 2 -180 26 -70 35 -107 92
-113 168 l-4 60 -58 -48 c-148 -123 -344 -183 -478 -147 -75 20 -96 37 -136
109 -68 121 -59 210 30 307 29 31 74 68 99 81 25 13 45 28 45 32 0 4 -11 25
-25 45 -33 48 -65 152 -65 211 1 163 101 340 229 403 69 34 212 33 297 -3 l62
-26 6 49 c12 85 44 155 101 216 62 67 125 104 244 144 75 25 98 28 181 25 83
-2 102 -6 149 -32z"/>
<path d="M2677 3218 c-8 -12 -32 -65 -52 -116 -25 -61 -41 -89 -46 -80 -5 7
-27 13 -51 13 -41 0 -43 2 -45 30 l-2 30 9 -30 c6 -21 7 -9 4 40 -5 65 -23
114 -25 70 -1 -16 -3 -14 -8 5 -8 29 -48 40 -57 16 -5 -14 22 -211 32 -227 2
-4 19 -6 37 -5 17 2 22 1 9 -1 -12 -2 -20 -8 -18 -12 7 -11 189 21 201 35 6 7
26 15 45 17 34 4 34 4 -6 5 -26 1 -46 -4 -54 -13 -7 -8 -20 -15 -29 -14 -11 0
-10 3 5 9 12 5 25 13 29 19 11 18 85 13 111 -8 13 -10 20 -21 17 -25 -3 -3 8
-6 25 -6 17 0 34 5 37 10 3 6 17 10 30 10 14 0 25 7 28 18 4 13 5 11 6 -5 1
-18 -5 -23 -26 -24 l-28 -1 29 -9 c17 -4 32 -6 35 -4 2 3 6 31 7 63 2 44 1 50
-5 27 l-9 -30 -1 38 c0 20 1 37 4 37 2 0 28 -28 56 -62 29 -35 57 -63 63 -63
6 0 14 16 17 35 l6 35 2 -35 c0 -20 -5 -42 -11 -49 -11 -11 -10 -13 2 -9 16 5
25 44 34 158 4 47 3 67 -3 55 -7 -17 -9 -15 -12 15 -3 29 -8 35 -31 38 -25 3
-27 0 -33 -45 -4 -26 -8 -52 -9 -57 -1 -6 -24 18 -52 51 -69 86 -80 83 -89
-19 -12 -129 -15 -131 -65 -28 -24 49 -48 90 -54 90 -5 0 -17 7 -27 16 -16 14
-19 14 -32 -8z m77 -55 c9 -18 14 -33 12 -33 -6 0 -36 55 -36 66 0 11 5 3 24
-33z m-277 -50 c-3 -10 -5 -4 -5 12 0 17 2 24 5 18 2 -7 2 -21 0 -30z m590
-35 c-2 -13 -4 -3 -4 22 0 25 2 35 4 23 2 -13 2 -33 0 -45z m-353 26 c9 -23 8
-24 -14 -24 -11 0 -20 2 -20 4 0 12 13 36 20 36 4 0 11 -7 14 -16z m84 -29
c-3 -3 -9 2 -12 12 -6 14 -5 15 5 6 7 -7 10 -15 7 -18z m20 -40 c-3 -3 -9 2
-12 12 -6 14 -5 15 5 6 7 -7 10 -15 7 -18z m12 -30 c0 -8 -4 -15 -10 -15 -5 0
-7 7 -4 15 4 8 8 15 10 15 2 0 4 -7 4 -15z m-250 -25 c-8 -5 -26 -9 -40 -9
-23 1 -23 2 5 9 43 11 52 11 35 0z"/>
<path d="M3163 3165 c-83 -36 -85 -194 -3 -220 11 -4 18 -10 15 -15 -14 -23
90 -27 123 -4 23 16 52 64 52 86 0 7 -10 -5 -23 -27 -26 -46 -58 -65 -107 -64
l-35 2 40 6 c22 4 50 12 61 19 25 13 49 65 40 87 -4 10 1 15 14 15 12 0 20 7
20 18 0 13 -2 14 -9 3 -8 -13 -58 -17 -106 -9 -29 5 -35 -41 -6 -49 28 -7 16
-23 -18 -23 -56 0 -81 70 -41 110 27 27 66 25 92 -5 21 -25 68 -35 68 -15 0
28 -35 73 -65 86 -42 17 -71 17 -112 -1z"/>
<path d="M2199 3141 c-31 -32 -35 -50 -18 -84 18 -33 29 -37 86 -35 61 2 76
-7 48 -28 -13 -10 -32 -13 -55 -9 -19 3 -42 1 -50 -4 -21 -14 10 -45 61 -60
71 -21 139 17 139 79 0 14 -5 32 -10 40 -8 11 -9 8 -4 -13 4 -17 1 -39 -7 -54
-13 -25 -57 -53 -81 -53 -7 1 1 7 18 14 35 16 64 51 64 79 0 10 -11 29 -25 43
-23 23 -31 25 -74 19 -54 -7 -74 6 -49 32 11 10 25 12 51 8 20 -4 34 -11 31
-16 -7 -11 17 -11 34 0 16 10 12 46 -5 46 -7 0 -18 6 -24 13 -7 6 -33 12 -57
12 -35 0 -49 -6 -73 -29z m161 -16 c0 -8 -4 -15 -10 -15 -5 0 -7 7 -4 15 4 8
8 15 10 15 2 0 4 -7 4 -15z"/>
<path d="M2245 3100 c-8 -13 5 -13 25 0 13 8 13 10 -2 10 -9 0 -20 -4 -23 -10z"/>
<path d="M3187 3092 c-10 -10 -17 -27 -16 -38 0 -18 1 -18 9 1 10 25 28 41 55
48 16 4 15 5 -6 6 -14 0 -33 -7 -42 -17z"/>
<path d="M2270 3010 l-35 -7 38 -2 c20 0 37 4 37 9 0 6 -1 9 -2 9 -2 -1 -19
-5 -38 -9z"/>
<path d="M2425 2800 c-9 -15 4 -30 26 -30 17 0 19 -7 19 -71 0 -71 0 -71 25
-67 28 6 35 -8 8 -15 -14 -4 -12 -5 5 -6 21 -1 22 3 22 68 0 65 1 69 25 73 23
5 24 3 27 -56 3 -55 5 -61 26 -64 19 -3 22 1 24 35 l1 38 4 -35 c3 -25 0 -38
-14 -48 -17 -13 -17 -14 2 -10 14 2 21 12 23 36 2 19 11 36 23 42 17 10 19 7
19 -26 0 -33 2 -36 25 -32 28 6 35 -8 8 -15 -14 -4 -12 -5 5 -6 21 -1 22 2 22
83 0 101 -5 116 -36 116 -20 0 -24 -5 -24 -30 0 -27 -3 -30 -30 -30 -27 0 -30
3 -30 30 0 25 -4 30 -23 30 -16 0 -28 -9 -35 -25 -8 -17 -19 -25 -34 -24 l-23
2 23 4 c14 3 22 12 22 24 0 17 -7 19 -64 19 -36 0 -68 -4 -71 -10z"/>
<path d="M2806 2743 c-47 -96 -52 -113 -29 -113 11 0 25 6 32 13 11 10 12 9 6
-1 -4 -7 -17 -17 -29 -22 l-21 -9 21 0 c12 -1 27 5 33 13 14 16 71 27 71 13 0
-5 14 -7 30 -5 36 5 39 1 8 -12 l-23 -9 22 0 c12 -1 25 4 29 10 7 13 -45 130
-56 124 -4 -2 -6 4 -6 13 1 9 -3 18 -8 19 -5 0 -13 8 -18 17 -15 28 -27 18
-62 -51z m54 -35 c0 -19 -2 -20 -10 -8 -13 19 -13 30 0 30 6 0 10 -10 10 -22z
m79 -53 c0 -5 -6 1 -14 15 -8 14 -14 30 -14 35 0 6 6 -1 14 -15 8 -14 14 -29
14 -35z"/>
<path d="M2950 2790 c0 -13 7 -20 20 -20 16 0 20 -7 21 -37 2 -94 3 -98 27
-101 21 -3 22 0 22 66 0 66 1 70 25 74 14 3 25 1 25 -3 0 -5 -9 -9 -20 -9 -18
0 -20 -7 -20 -65 0 -50 -4 -66 -17 -75 -16 -10 -16 -10 2 -8 17 3 20 12 23 71
3 59 5 67 22 67 20 0 25 15 14 44 -5 12 -21 16 -75 16 -62 0 -69 -2 -69 -20z"/>
<path d="M2641 2774 c0 -11 3 -14 6 -6 3 7 2 16 -1 19 -3 4 -6 -2 -5 -13z"/>
<path d="M2087 2583 c-14 -13 -6 -41 15 -55 l22 -15 -27 -74 c-33 -89 -33 -96
-5 -105 15 -4 26 -1 36 12 14 18 14 18 8 1 -3 -10 -6 -21 -6 -23 0 -2 -12 -4
-27 -4 -22 0 -25 -2 -13 -10 33 -22 46 -10 77 73 20 52 36 81 45 79 7 -2 21
-4 30 -5 21 -2 21 3 3 -72 -21 -87 -20 -105 8 -105 17 0 19 -2 7 -10 -12 -8
-12 -10 2 -15 28 -11 41 -1 53 41 8 28 16 38 28 36 9 -2 17 2 17 8 0 5 -11 10
-25 10 -20 0 -25 -6 -31 -35 -3 -19 -10 -37 -14 -40 -4 -2 -2 16 3 40 9 39 14
45 36 45 43 0 52 -12 41 -50 -14 -47 -13 -49 13 -60 12 -5 16 -9 9 -9 -23 -1
-2 -21 23 -21 21 0 25 8 44 91 12 50 24 102 27 116 5 18 3 24 -5 19 -7 -4 -11
0 -11 12 0 12 -9 22 -22 26 -35 9 -37 8 -44 -30 -8 -41 -25 -51 -60 -35 -19 8
-24 16 -20 31 3 11 8 28 11 39 4 14 -1 20 -22 26 -22 5 -32 2 -50 -19 -17 -20
-28 -25 -47 -20 -17 4 -27 0 -35 -13 -14 -23 -14 -8 -1 18 9 16 14 17 32 8 18
-10 24 -8 35 7 20 27 13 34 -52 59 -87 32 -101 36 -108 28z m72 -182 c-6 -18
-13 -30 -15 -28 -2 2 1 18 7 36 6 18 13 30 15 28 2 -2 -1 -18 -7 -36z m308 7
c-3 -8 -6 -5 -6 6 -1 11 2 17 5 13 3 -3 4 -12 1 -19z m-18 -82 c-7 -31 -14
-54 -16 -52 -3 3 1 30 8 60 7 31 14 54 16 52 3 -3 -1 -30 -8 -60z m-28 -89
c-10 -9 -11 -8 -5 6 3 10 9 15 12 12 3 -3 0 -11 -7 -18z"/>
<path d="M3353 2574 c-7 -3 -13 -12 -13 -19 0 -20 58 -145 68 -145 4 0 16 6
26 13 17 13 17 16 -7 83 -24 68 -40 82 -74 68z"/>
<path d="M3420 2562 c0 -7 9 -35 20 -64 11 -29 20 -62 20 -72 0 -14 3 -17 10
-10 8 8 3 32 -15 79 -26 71 -35 87 -35 67z"/>
<path d="M3257 2538 c-21 -7 -27 -15 -22 -27 4 -9 16 -41 26 -71 24 -66 28
-70 58 -59 18 7 22 14 17 32 -15 55 -16 70 -2 37 8 -19 15 -46 15 -59 1 -16 5
-21 10 -15 10 10 -27 154 -40 154 -4 0 -5 -10 -3 -22 3 -14 -1 -10 -10 10 -8
17 -16 32 -18 31 -2 0 -16 -5 -31 -11z"/>
<path d="M3059 2486 c-40 -23 -59 -60 -59 -114 0 -69 37 -112 103 -119 34 -4
45 -9 35 -15 -12 -9 -2 -7 54 8 35 10 68 63 67 107 l-1 42 -9 -45 c-8 -45 -54
-100 -82 -100 -6 1 0 7 15 16 77 41 75 172 -2 141 -8 -3 -24 -7 -35 -9 -14 -2
-20 -11 -20 -28 0 -18 6 -25 20 -26 37 -2 40 -5 21 -19 -47 -36 -106 -4 -106
56 0 25 26 59 46 59 4 0 -2 -7 -14 -16 -15 -10 -22 -25 -21 -47 l1 -32 8 29
c14 46 42 66 84 59 22 -3 42 -1 51 7 9 7 15 8 15 2 0 -6 -6 -13 -12 -15 -8 -3
-5 -6 5 -6 12 -1 17 5 15 17 -2 9 -6 15 -10 12 -3 -3 -18 6 -32 19 -31 29
-100 38 -137 17z"/>
<path d="M2341 2473 c0 -6 -4 -20 -7 -30 -5 -14 -4 -15 5 -7 7 7 11 20 8 30
-3 11 -5 14 -6 7z"/>
<path d="M2592 2457 c-18 -23 -122 -209 -122 -218 0 -12 57 -12 65 1 12 19 90
12 110 -10 20 -22 61 -27 68 -7 3 7 6 6 6 -5 1 -11 -9 -18 -26 -21 -26 -4 -26
-4 5 -6 41 -1 41 11 1 126 -35 100 -53 135 -45 88 l5 -30 -14 30 c-8 17 -14
35 -15 41 0 17 -27 25 -38 11z m21 -127 c4 -15 0 -20 -14 -20 -18 0 -26 20
-12 33 11 12 21 8 26 -13z m91 -70 c5 -20 3 -19 -8 5 -7 17 -16 41 -20 55 -5
20 -3 19 8 -5 7 -16 16 -41 20 -55z"/>
<path d="M2908 2463 c-13 -3 -18 -17 -20 -59 l-3 -55 -57 50 c-83 75 -87 72
-81 -56 6 -130 6 -133 35 -133 19 0 20 -2 8 -10 -11 -7 -7 -10 18 -10 l32 0 0
54 c0 52 -12 81 -23 54 -3 -8 -6 -6 -6 5 -1 27 13 21 76 -33 32 -27 61 -50 66
-50 9 0 8 138 -1 199 -7 45 -14 52 -44 44z m-78 -223 c0 -16 -4 -30 -8 -30 -5
0 -7 14 -4 30 2 17 6 30 8 30 2 0 4 -13 4 -30z"/>
<path d="M2965 2320 c0 -75 4 -119 10 -117 11 4 7 217 -4 229 -4 5 -7 -46 -6
-112z"/>
<path d="M3422 2398 c-29 -29 2 -67 39 -48 14 8 19 8 15 1 -4 -6 -3 -11 2 -11
6 0 12 7 16 15 7 19 -3 47 -14 40 -5 -3 -11 -1 -15 5 -8 14 -28 13 -43 -2z"/>
<path d="M3301 2351 c-8 -15 -7 -23 5 -35 21 -22 56 -3 52 27 -4 30 -43 35
-57 8z"/>
<path d="M3370 2338 c0 -6 -8 -20 -17 -31 -17 -19 -17 -20 5 -8 18 10 33 51
17 51 -3 0 -5 -5 -5 -12z"/>
<path d="M2535 2230 c-3 -5 -18 -10 -33 -11 -26 0 -26 -1 -4 -9 23 -10 52 -4
52 10 0 5 19 11 43 13 l42 4 -47 1 c-26 1 -50 -2 -53 -8z"/>
<path d="M1794 1808 c-102 -26 -124 -165 -35 -225 104 -70 240 24 202 140 -22
67 -95 104 -167 85z m72 -43 c24 -10 39 -25 50 -52 14 -33 14 -40 0 -70 -10
-22 -29 -39 -51 -49 -47 -19 -49 -19 -89 20 -30 27 -36 40 -36 73 0 50 31 93
66 93 14 0 40 -7 60 -15z"/>
<path d="M1566 1444 c-36 -37 -36 -95 0 -129 21 -19 38 -25 74 -25 59 0 90 29
90 84 0 84 -105 129 -164 70z m118 -26 c32 -45 14 -96 -41 -112 -32 -10 -76
32 -76 72 0 44 19 62 64 62 28 0 42 -6 53 -22z"/>
</g>
</svg>
