<?xml version="1.0" standalone="no"?>
<!DOCTYPE svg PUBLIC "-//W3C//DTD SVG 20010904//EN"
 "http://www.w3.org/TR/2001/REC-SVG-20010904/DTD/svg10.dtd">
<svg version="1.0" xmlns="http://www.w3.org/2000/svg"
 width="1200.000000pt" height="2596.000000pt" viewBox="0 0 1200.000000 2596.000000"
 preserveAspectRatio="xMidYMid meet">

<g transform="translate(0.000000,2596.000000) scale(0.100000,-0.100000)"
fill="#000000" stroke="none">
<path d="M3630 23073 c-26 -9 -66 -38 -97 -68 -43 -43 -55 -65 -74 -125 -45
-148 -9 -304 88 -390 98 -86 249 -93 341 -14 43 36 52 35 52 -8 0 -27 2 -28
50 -28 l50 0 0 170 0 170 -135 0 -135 0 0 -55 0 -55 71 0 71 0 -6 -27 c-10
-40 -75 -99 -119 -107 -20 -4 -54 -2 -76 4 -90 24 -130 90 -131 213 0 83 16
135 53 175 72 77 208 68 252 -18 15 -29 18 -30 80 -30 78 0 81 9 33 90 -50 81
-114 113 -233 117 -64 2 -103 -2 -135 -14z"/>
<path d="M6830 23025 l0 -55 60 0 60 0 0 55 0 55 -60 0 -60 0 0 -55z"/>
<path d="M6547 23033 c-4 -3 -7 -33 -7 -65 0 -58 0 -58 -30 -58 -29 0 -30 -2
-30 -45 0 -43 1 -45 30 -45 l30 0 1 -147 c0 -182 9 -213 64 -231 21 -7 62 -12
90 -10 l50 3 3 47 3 47 -38 3 -38 3 -3 143 -3 142 41 0 40 0 0 45 0 45 -40 0
-40 0 0 65 0 65 -58 0 c-32 0 -62 -3 -65 -7z"/>
<path d="M4231 22899 c-83 -42 -131 -150 -116 -262 19 -143 90 -206 229 -207
85 0 146 26 181 78 40 59 35 72 -31 72 -47 0 -59 -4 -75 -24 -22 -28 -59 -37
-104 -25 -40 11 -63 36 -71 77 l-6 32 162 0 163 0 -5 69 c-6 83 -35 139 -91
178 -34 24 -52 28 -116 31 -63 2 -84 -1 -120 -19z m170 -108 c16 -16 29 -39
29 -50 0 -20 -5 -21 -95 -21 -52 0 -95 2 -95 5 0 19 31 75 47 84 35 20 83 13
114 -18z"/>
<path d="M4834 22906 c-17 -8 -39 -24 -48 -37 l-16 -23 0 32 0 32 -60 0 -60 0
0 -235 0 -235 60 0 60 0 0 144 c0 79 5 157 11 175 21 59 101 80 144 36 25 -24
25 -27 25 -190 l0 -165 66 0 66 0 -3 189 c-4 210 -7 220 -79 269 -38 26 -116
29 -166 8z"/>
<path d="M5290 22909 c-90 -37 -133 -114 -133 -234 1 -166 74 -244 227 -245
92 0 148 26 187 88 16 25 26 49 23 53 -3 5 -31 9 -64 9 -43 0 -59 -4 -64 -15
-10 -27 -69 -45 -108 -35 -43 12 -66 36 -74 78 l-6 32 162 0 163 0 -5 69 c-6
83 -35 139 -91 178 -34 24 -52 28 -116 30 -42 2 -87 -2 -101 -8z m151 -118
c16 -16 29 -39 29 -50 0 -20 -5 -21 -95 -21 -52 0 -95 2 -95 5 0 19 31 75 47
84 35 20 83 13 114 -18z"/>
<path d="M5870 22905 c-14 -7 -32 -25 -40 -39 -19 -36 -30 -32 -30 9 l0 36
-55 -3 -56 -3 -2 -233 -2 -232 63 0 62 0 0 146 0 146 28 28 c20 19 44 31 75
35 l47 7 0 59 0 59 -32 0 c-18 -1 -44 -7 -58 -15z"/>
<path d="M6104 22900 c-42 -21 -84 -80 -84 -119 0 -19 6 -21 60 -21 44 0 60 4
60 13 0 39 83 62 131 37 24 -13 25 -56 2 -69 -10 -5 -52 -14 -93 -20 -119 -19
-169 -60 -177 -148 -4 -39 0 -55 19 -83 34 -50 62 -61 139 -58 54 3 73 9 102
31 l36 27 3 -23 c3 -20 9 -22 77 -25 73 -3 74 -2 58 16 -15 16 -17 42 -17 183
0 194 -8 220 -80 257 -60 30 -177 31 -236 2z m186 -283 c0 -51 -34 -90 -87
-102 -27 -5 -37 -2 -58 19 -27 27 -27 56 -1 83 9 9 95 35 139 42 4 1 7 -18 7
-42z"/>
<path d="M7169 22893 c-75 -39 -112 -100 -117 -195 -10 -171 75 -268 234 -268
140 0 229 78 241 208 16 170 -79 282 -237 282 -53 0 -78 -6 -121 -27z m172
-89 c76 -39 80 -207 7 -258 -37 -26 -93 -20 -130 13 -30 27 -33 34 -36 102 -2
61 1 80 18 107 32 51 86 65 141 36z"/>
<path d="M7805 22904 c-16 -8 -38 -25 -47 -37 l-18 -22 0 33 0 32 -60 0 -60 0
0 -235 0 -235 59 0 60 0 3 154 c3 176 13 203 82 220 30 8 41 6 64 -11 l27 -20
3 -172 2 -171 65 0 65 0 0 178 c0 210 -11 247 -79 281 -48 25 -123 27 -166 5z"/>
<path d="M8231 22898 c-58 -31 -84 -77 -78 -141 7 -75 45 -106 164 -131 98
-21 123 -32 123 -55 0 -49 -104 -69 -154 -30 -14 11 -26 27 -26 35 0 11 -16
14 -66 14 l-66 0 7 -27 c21 -89 79 -126 203 -132 98 -4 158 14 196 59 50 60
40 157 -20 196 -15 10 -72 30 -127 44 -114 29 -138 48 -98 81 39 32 123 20
136 -20 5 -18 15 -21 67 -21 l61 0 -7 30 c-15 78 -71 113 -186 118 -75 3 -90
1 -129 -20z"/>
<path d="M6830 22675 l0 -235 60 0 60 0 0 235 0 235 -60 0 -60 0 0 -235z"/>
<path d="M10040 20377 c-81 -43 -107 -84 -97 -156 5 -42 -4 -83 -18 -80 -5 1
-14 -8 -20 -20 -5 -11 -13 -21 -17 -21 -12 0 -10 -58 2 -65 6 -3 10 -41 10
-83 0 -97 13 -143 52 -188 32 -36 95 -74 123 -74 12 0 15 -16 15 -99 l0 -98
-85 -7 c-47 -3 -108 -14 -137 -24 l-53 -17 -3 -51 c-3 -59 0 -62 122 -89 64
-14 109 -17 250 -12 159 5 209 12 279 39 24 9 27 15 27 58 0 44 -3 49 -32 63
-31 14 -140 34 -218 40 l-35 2 -3 95 -3 96 47 12 c60 16 127 81 143 137 6 22
11 75 11 117 0 42 5 80 10 83 12 8 13 65 1 65 -5 0 -11 9 -14 21 -3 11 -15 23
-26 26 -19 5 -21 13 -21 85 0 71 -3 81 -25 104 -14 14 -41 32 -60 40 -44 18
-191 19 -225 1z m124 -3 c10 -4 16 -18 16 -40 0 -19 5 -34 10 -34 17 0 24 31
11 51 -9 16 -8 19 8 19 11 0 23 -5 26 -10 4 -6 10 -8 15 -5 5 3 26 -9 45 -27
27 -25 38 -44 42 -76 4 -26 2 -42 -5 -42 -6 0 -12 5 -14 12 -3 7 -32 14 -72
16 -62 4 -68 3 -64 -14 3 -16 15 -20 71 -25 74 -6 94 -18 82 -46 -7 -16 -8
-17 -12 -1 -3 11 -19 19 -47 23 -59 9 -90 3 -94 -17 -3 -15 5 -18 53 -18 66 0
92 -11 107 -48 11 -26 12 -26 15 -4 3 12 9 22 15 22 7 0 9 -44 6 -132 -4 -141
-13 -172 -60 -214 -50 -46 -85 -56 -183 -52 -103 3 -141 21 -186 86 -22 32
-24 47 -27 174 -3 97 -1 138 7 138 6 0 11 -9 11 -21 0 -11 5 -17 10 -14 6 3
10 15 10 26 0 26 37 39 106 39 47 0 55 3 52 18 -4 20 -35 26 -94 17 -28 -4
-44 -12 -47 -23 -4 -16 -5 -15 -12 1 -12 29 10 42 83 47 55 4 67 8 70 24 4 17
-2 18 -64 14 -40 -2 -69 -9 -72 -16 -2 -7 -8 -12 -13 -12 -12 0 -12 52 1 84
10 26 67 69 81 60 4 -2 10 0 14 6 3 5 16 10 28 10 16 0 18 -3 9 -12 -17 -17
-15 -58 3 -58 10 0 15 10 15 33 0 45 10 54 44 41z m-257 -316 c-3 -8 -6 -5 -6
6 -1 11 2 17 5 13 3 -3 4 -12 1 -19z m490 0 c-3 -8 -6 -5 -6 6 -1 11 2 17 5
13 3 -3 4 -12 1 -19z m-224 -370 c-2 -5 -3 -65 -3 -134 0 -124 0 -125 -22
-122 -22 3 -23 7 -26 122 -1 66 0 126 3 134 5 14 52 13 48 0z m-80 -215 c-7
-2 -19 -2 -25 0 -7 3 -2 5 12 5 14 0 19 -2 13 -5z m140 0 c-7 -2 -21 -2 -30 0
-10 3 -4 5 12 5 17 0 24 -2 18 -5z m-270 -15 c-121 -22 -12 -53 187 -53 138 0
240 15 240 36 0 4 -24 12 -52 18 l-53 10 46 -4 c140 -13 122 -62 -32 -86 -156
-24 -435 7 -427 49 4 18 66 41 113 40 19 0 11 -4 -22 -10z m-38 -86 c122 -31
431 -18 528 23 9 4 17 3 17 -2 0 -6 -28 -18 -62 -29 -53 -16 -95 -19 -258 -19
-163 0 -205 3 -257 19 -35 11 -63 23 -63 29 0 5 8 6 18 2 9 -4 44 -15 77 -23z"/>
<path d="M10040 20320 c0 -11 5 -20 10 -20 6 0 10 9 10 20 0 11 -4 20 -10 20
-5 0 -10 -9 -10 -20z"/>
<path d="M10240 20320 c0 -11 5 -20 10 -20 6 0 10 9 10 20 0 11 -4 20 -10 20
-5 0 -10 -9 -10 -20z"/>
<path d="M9993 20103 c-7 -2 -13 -12 -13 -20 0 -13 8 -15 46 -9 26 3 57 6 70
6 15 0 24 6 24 15 0 12 -13 15 -57 14 -32 0 -64 -3 -70 -6z"/>
<path d="M10180 20095 c0 -9 9 -15 24 -15 13 0 44 -3 70 -6 37 -6 46 -4 46 9
0 20 -21 27 -86 27 -41 0 -54 -4 -54 -15z"/>
<path d="M9940 19961 c0 -110 8 -143 47 -183 35 -37 84 -52 168 -51 86 0 134
19 171 69 27 35 29 44 32 152 3 92 1 113 -10 110 -7 -3 -12 -12 -10 -21 1 -8
-2 -18 -8 -22 -5 -3 -10 0 -10 8 0 16 -41 27 -101 27 -32 0 -39 -3 -39 -20 0
-17 7 -20 53 -20 65 0 94 -8 101 -27 9 -22 -5 -39 -16 -19 -13 22 -138 24
-138 1 0 -11 11 -15 41 -15 59 0 119 -20 119 -39 0 -35 -38 -78 -89 -98 -29
-13 -53 -18 -56 -12 -4 5 -1 9 5 9 15 0 9 52 -7 57 -7 3 -13 -10 -15 -34 -3
-33 -6 -38 -28 -38 -22 0 -25 5 -28 38 -4 46 -32 53 -32 7 0 -16 5 -30 11 -30
5 0 8 -4 4 -9 -7 -12 -98 25 -119 48 -9 10 -19 31 -22 48 -6 30 -4 32 32 42
22 6 58 11 82 11 31 0 42 4 42 15 0 9 -10 15 -22 16 -61 3 -104 -4 -114 -17
-15 -19 -24 -18 -24 5 0 28 16 35 90 41 53 4 65 8 68 24 4 17 -1 18 -64 13
-38 -3 -70 -10 -72 -16 -6 -19 -22 -12 -22 9 0 11 -4 20 -10 20 -6 0 -10 -40
-10 -99z m209 -184 c53 0 89 6 111 17 42 20 49 15 13 -10 -19 -12 -52 -20
-102 -22 -84 -5 -139 8 -167 39 -19 21 -18 21 24 -1 34 -18 60 -23 121 -23z"/>
<path d="M10040 19851 c0 -11 5 -23 10 -26 6 -4 10 5 10 19 0 14 -4 26 -10 26
-5 0 -10 -9 -10 -19z"/>
<path d="M10240 19844 c0 -14 4 -23 10 -19 6 3 10 15 10 26 0 10 -4 19 -10 19
-5 0 -10 -12 -10 -26z"/>
<path d="M1341 20328 c-59 -30 -84 -76 -78 -142 7 -74 38 -97 168 -127 72 -16
111 -30 127 -46 43 -43 20 -113 -43 -129 -14 -3 -53 -4 -87 -2 -53 4 -65 9
-89 36 -16 18 -29 41 -29 52 0 16 -7 20 -36 20 -35 0 -35 -1 -29 -32 20 -93
85 -138 200 -138 147 1 230 83 193 195 -18 53 -58 78 -170 105 -115 28 -138
41 -138 79 0 16 3 37 6 46 10 25 59 45 113 45 56 0 104 -31 115 -75 5 -20 13
-25 36 -25 35 0 39 22 14 76 -24 51 -74 76 -158 81 -60 4 -78 1 -115 -19z"/>
<path d="M3369 20337 c-59 -22 -93 -52 -124 -109 -27 -48 -30 -62 -30 -148 0
-102 11 -137 64 -193 47 -52 95 -69 177 -65 64 3 77 7 113 36 22 17 42 32 44
32 3 0 7 -13 11 -30 4 -21 11 -30 26 -30 19 0 20 6 20 135 l0 135 -110 0 -110
0 0 -30 0 -30 81 0 82 0 -6 -36 c-8 -46 -30 -80 -70 -105 -26 -16 -45 -19
-101 -17 -64 4 -70 6 -101 40 -92 100 -66 295 46 353 68 36 165 8 202 -56 17
-31 28 -39 51 -39 26 0 28 2 23 30 -10 45 -35 78 -84 107 -53 31 -149 40 -204
20z"/>
<path d="M1730 20305 c0 -32 2 -35 30 -35 28 0 30 3 30 35 0 32 -2 35 -30 35
-28 0 -30 -3 -30 -35z"/>
<path d="M1890 20085 l0 -255 30 0 30 0 0 255 0 255 -30 0 -30 0 0 -255z"/>
<path d="M5780 20305 c0 -32 2 -35 30 -35 28 0 30 3 30 35 0 32 -2 35 -30 35
-28 0 -30 -3 -30 -35z"/>
<path d="M2840 20250 c0 -47 -2 -50 -25 -50 -20 0 -25 -5 -25 -25 0 -20 5 -25
25 -25 l25 0 0 -132 c0 -145 9 -178 50 -188 43 -10 70 0 70 25 0 17 -7 25 -22
27 -22 3 -23 7 -26 136 l-3 132 26 0 c20 0 25 5 25 25 0 20 -5 25 -25 25 -23
0 -25 3 -25 50 l0 50 -35 0 -35 0 0 -50z"/>
<path d="M5598 20253 c-3 -41 -6 -48 -28 -53 -15 -4 -26 -14 -28 -27 -3 -17 3
-22 25 -25 l28 -3 5 -147 c3 -81 10 -151 15 -157 11 -10 35 -14 78 -12 22 1
27 6 27 25 0 19 -6 25 -27 28 l-28 3 -3 133 -3 132 31 0 c25 0 30 4 30 25 0
21 -5 25 -30 25 -29 0 -30 1 -30 50 0 49 -1 50 -29 50 -28 0 -30 -2 -33 -47z"/>
<path d="M2130 20199 c-65 -27 -103 -96 -103 -189 -1 -85 27 -141 83 -170 46
-23 107 -26 153 -6 39 16 87 70 87 97 0 29 -44 25 -65 -7 -21 -33 -75 -55
-114 -48 -40 8 -73 45 -74 86 l-2 33 130 2 130 2 -2 46 c-2 54 -29 112 -65
138 -31 23 -120 32 -158 16z m134 -74 c23 -25 38 -69 28 -80 -3 -3 -47 -5 -99
-5 -102 0 -115 8 -93 52 32 62 121 80 164 33z"/>
<path d="M2537 20186 c-46 -31 -47 -31 -47 -6 0 16 -7 20 -30 20 l-30 0 0
-185 0 -185 35 0 35 0 0 129 c0 125 1 131 26 160 21 26 33 31 69 31 68 0 75
-17 75 -182 l0 -138 35 0 35 0 0 128 c0 70 -5 143 -10 163 -23 82 -120 115
-193 65z"/>
<path d="M3875 20203 c-39 -10 -83 -53 -100 -97 -24 -61 -18 -174 11 -213 47
-63 124 -88 197 -64 41 14 97 72 97 101 0 33 -41 25 -72 -14 -15 -19 -41 -37
-57 -41 -44 -9 -98 17 -117 59 -18 36 -13 68 8 65 7 -1 67 -1 132 0 l119 1 -6
51 c-11 95 -62 150 -144 155 -26 1 -57 0 -68 -3z m114 -70 c27 -23 45 -82 27
-89 -7 -3 -53 -4 -102 -2 -88 3 -89 3 -86 28 1 13 15 37 29 52 32 34 98 39
132 11z"/>
<path d="M4267 20186 c-46 -31 -47 -31 -47 -6 0 15 -7 20 -25 20 l-25 0 0
-185 0 -185 30 0 30 0 0 129 c0 125 1 131 26 160 21 26 33 31 69 31 68 0 75
-17 75 -182 l0 -138 36 0 36 0 -4 155 -3 155 -32 31 c-45 45 -113 51 -166 15z"/>
<path d="M4645 20196 c-75 -32 -119 -140 -97 -236 7 -28 19 -62 28 -76 39 -58
144 -81 214 -46 35 17 80 73 80 98 0 25 -47 16 -65 -12 -21 -33 -75 -55 -114
-48 -40 8 -73 45 -74 86 l-2 33 130 2 130 2 -2 45 c-2 61 -39 126 -83 148 -41
21 -103 23 -145 4z m120 -52 c19 -8 45 -55 45 -84 0 -19 -6 -20 -100 -20 -84
0 -100 3 -100 15 0 24 28 73 47 84 20 12 83 14 108 5z"/>
<path d="M5054 20176 l-34 -34 0 29 c0 26 -4 29 -30 29 l-30 0 0 -185 0 -185
30 0 30 0 0 110 c0 152 22 200 94 200 23 0 26 4 26 35 0 31 -3 35 -26 35 -16
0 -39 -13 -60 -34z"/>
<path d="M5262 20199 c-34 -10 -72 -59 -72 -91 0 -31 47 -23 64 11 17 33 34
41 81 41 43 0 78 -28 78 -64 0 -33 -16 -46 -60 -46 -69 0 -132 -21 -158 -52
-44 -52 -30 -132 30 -164 41 -22 116 -15 156 15 l28 21 25 -25 c26 -25 42 -30
70 -19 23 9 20 41 -4 47 -19 5 -20 14 -20 125 0 133 -7 163 -44 187 -31 20
-129 28 -174 14z m148 -225 c0 -48 -15 -73 -55 -90 -47 -19 -81 -18 -105 6
-44 44 -17 88 66 106 92 19 94 19 94 -22z"/>
<path d="M6030 20203 c-73 -30 -110 -94 -110 -188 0 -78 23 -132 72 -167 45
-32 143 -33 185 -2 109 81 110 257 1 337 -27 21 -118 33 -148 20z m94 -53 c41
-15 66 -66 66 -133 0 -104 -54 -158 -134 -136 -30 8 -41 19 -57 52 -36 79 -17
181 40 212 31 17 51 18 85 5z"/>
<path d="M6450 20199 c-13 -6 -33 -17 -42 -26 -17 -15 -18 -15 -18 5 0 18 -6
22 -30 22 l-30 0 0 -185 0 -185 30 0 30 0 0 115 c0 163 21 205 102 205 67 0
78 -29 78 -196 l0 -124 30 0 30 0 0 145 c0 113 -4 153 -16 176 -25 49 -103 72
-164 48z"/>
<path d="M1730 20015 l0 -185 30 0 30 0 0 185 0 185 -30 0 -30 0 0 -185z"/>
<path d="M5780 20015 l0 -185 30 0 30 0 0 185 0 185 -30 0 -30 0 0 -185z"/>
<path d="M2639 19393 c-19 -30 -33 -40 -67 -47 -31 -7 -42 -14 -42 -27 0 -16
8 -19 55 -19 l55 0 0 -160 0 -160 30 0 30 0 0 225 c0 211 -1 225 -18 225 -11
0 -29 -17 -43 -37z"/>
<path d="M2931 19413 c-48 -25 -73 -63 -78 -120 -9 -93 35 -151 122 -160 34
-4 53 0 81 16 l36 22 -7 -38 c-15 -80 -46 -115 -102 -115 -38 0 -73 28 -73 58
0 14 -41 20 -53 8 -10 -10 13 -61 39 -85 21 -20 36 -24 89 -24 57 0 67 3 94
29 48 46 66 106 66 216 0 104 -14 144 -66 183 -38 28 -106 32 -148 10z m98
-44 c39 -14 51 -35 51 -94 0 -59 -32 -95 -85 -95 -52 0 -85 36 -85 92 0 48 20
85 54 98 28 12 28 12 65 -1z"/>
<path d="M3305 19419 c-56 -16 -95 -68 -95 -125 0 -19 5 -24 23 -24 19 0 26 8
36 41 29 96 170 82 171 -17 0 -43 -28 -75 -98 -112 -67 -36 -129 -98 -137
-139 -15 -69 -29 -63 141 -63 l154 0 0 25 0 25 -120 0 c-66 0 -120 4 -120 9 0
22 47 63 121 106 89 51 119 88 119 149 0 95 -93 155 -195 125z"/>
<path d="M3656 19420 c-39 -12 -63 -36 -77 -77 -14 -43 -5 -78 26 -107 l25
-23 -24 -13 c-31 -16 -46 -50 -46 -104 0 -77 61 -126 155 -126 87 0 145 55
145 137 0 33 -7 50 -31 77 -30 35 -30 35 -11 56 43 46 32 128 -22 163 -32 21
-101 30 -140 17z m117 -72 c24 -28 21 -55 -8 -83 -61 -62 -164 2 -124 76 22
42 98 46 132 7z m9 -188 c28 -35 24 -94 -8 -119 -81 -64 -191 21 -143 110 23
44 118 49 151 9z"/>
<path d="M4626 19395 c-12 -29 -22 -36 -60 -46 -34 -8 -46 -16 -46 -30 0 -16
8 -19 50 -19 l50 0 0 -160 0 -160 30 0 30 0 0 225 c0 218 -1 225 -20 225 -13
0 -25 -12 -34 -35z"/>
<path d="M4933 19423 c-35 -7 -81 -59 -94 -105 -20 -74 8 -141 74 -174 37 -19
109 -14 136 10 10 9 20 16 23 16 10 0 -12 -82 -29 -111 -35 -58 -112 -56 -141
4 -9 18 -21 27 -38 27 -28 0 -31 -18 -9 -60 41 -79 162 -81 227 -5 43 49 63
217 37 296 -28 81 -97 119 -186 102z m112 -74 c15 -14 20 -33 20 -70 0 -43 -4
-54 -28 -75 -27 -23 -68 -31 -102 -18 -21 8 -45 56 -45 89 0 36 27 84 53 95
31 13 78 3 102 -21z"/>
<path d="M5282 19289 c-73 -101 -102 -150 -102 -170 l0 -29 95 0 95 0 0 -55
c0 -54 0 -55 30 -55 30 0 30 1 30 55 0 54 0 55 30 55 25 0 30 4 30 25 0 21 -5
25 -30 25 l-30 0 0 145 c0 145 0 145 -23 145 -19 0 -45 -29 -125 -141z m88
-54 l0 -95 -69 0 -70 0 67 95 c37 52 68 95 69 95 2 0 3 -43 3 -95z"/>
<path d="M5589 19418 c0 -2 -8 -56 -18 -120 -17 -117 -17 -118 3 -118 11 0 39
9 63 21 79 38 143 -1 143 -88 0 -33 -6 -50 -25 -68 -45 -46 -155 -25 -155 30
0 10 -10 15 -30 15 -41 0 -40 -30 4 -77 30 -33 39 -37 93 -41 116 -8 180 54
171 164 -5 61 -31 97 -85 120 -42 18 -77 18 -114 -2 l-31 -16 6 31 c3 17 9 45
12 61 l6 30 94 0 94 0 0 30 0 30 -115 0 c-63 0 -115 -1 -116 -2z"/>
<path d="M1669 19177 c-55 -42 -39 -130 26 -137 60 -6 95 21 95 73 0 60 -75
100 -121 64z"/>
<path d="M4094 19181 c-2 -2 -4 -15 -4 -28 0 -22 3 -23 80 -23 78 0 80 1 80
24 0 23 -3 25 -76 28 -42 2 -78 1 -80 -1z"/>
<path d="M1260 18280 l0 -250 138 0 c156 0 190 10 229 69 41 61 20 168 -36
186 -27 8 -26 15 4 43 41 40 44 112 6 156 -34 39 -65 46 -206 46 l-135 0 0
-250z m270 180 c43 -23 36 -104 -10 -127 -14 -7 -61 -13 -107 -13 l-83 0 0 73
c0 41 3 77 8 81 10 11 167 0 192 -14z m24 -221 c20 -15 26 -29 26 -58 0 -74
-46 -101 -177 -101 l-73 0 0 90 0 90 99 0 c84 0 102 -3 125 -21z"/>
<path d="M2118 18280 l-3 -250 32 0 c25 0 31 4 27 15 -8 21 2 19 36 -6 42 -32
129 -23 170 16 84 80 77 264 -12 329 -40 29 -117 28 -157 -2 l-31 -23 0 86 0
85 -30 0 -29 0 -3 -250z m223 41 c19 -19 30 -41 31 -63 6 -127 -25 -188 -97
-188 -62 0 -95 47 -95 135 0 63 19 118 47 134 35 20 83 13 114 -18z"/>
<path d="M3070 18280 l0 -250 138 0 c110 0 144 3 172 18 80 40 109 155 52 211
-15 15 -34 30 -42 33 -12 4 -9 11 12 31 56 52 44 146 -24 187 -29 17 -51 20
-170 20 l-138 0 0 -250z m269 180 c44 -23 38 -103 -9 -127 -14 -7 -61 -13
-107 -13 l-83 0 0 81 0 82 89 -6 c50 -3 99 -11 110 -17z m25 -221 c20 -15 26
-29 26 -58 0 -74 -46 -101 -177 -101 l-73 0 0 90 0 90 99 0 c84 0 102 -3 125
-21z"/>
<path d="M1805 18395 c-42 -15 -71 -45 -78 -82 -5 -27 0 -33 29 -33 14 0 25 8
29 20 12 37 35 50 85 50 56 0 80 -18 80 -60 0 -32 -7 -35 -85 -45 -116 -15
-155 -45 -155 -122 0 -36 6 -50 29 -74 25 -25 37 -29 84 -29 41 0 63 6 91 25
43 29 46 30 46 10 0 -20 35 -37 68 -33 34 4 46 48 14 48 -28 0 -32 17 -32 154
0 116 -1 124 -23 144 -44 41 -113 51 -182 27z m145 -221 c0 -46 -14 -70 -50
-89 -80 -42 -164 14 -117 78 9 14 93 38 160 46 4 1 7 -15 7 -35z"/>
<path d="M3634 18399 c-42 -12 -101 -79 -110 -124 -27 -146 41 -255 160 -255
74 0 115 25 149 90 55 108 20 237 -77 281 -45 20 -74 22 -122 8z m107 -59 c35
-20 51 -67 47 -143 -3 -63 -7 -72 -36 -98 -90 -80 -194 18 -167 157 9 52 54
94 100 94 20 0 45 -5 56 -10z"/>
<path d="M4015 18391 c-22 -10 -48 -27 -57 -37 -52 -58 -63 -170 -25 -244 31
-62 65 -83 140 -88 52 -3 67 0 96 20 48 32 72 77 78 147 9 98 -26 168 -101
202 -52 23 -81 23 -131 0z m117 -52 c11 -6 28 -29 39 -52 57 -127 -33 -258
-140 -203 -72 38 -78 202 -8 251 25 18 80 20 109 4z"/>
<path d="M4450 18399 c-14 -6 -35 -20 -47 -31 l-23 -21 0 27 c0 24 -3 27 -27
24 l-28 -3 -3 -182 -2 -183 35 0 35 0 0 131 0 131 29 29 c34 34 79 39 104 11
14 -15 17 -42 17 -160 l0 -142 33 0 32 0 -3 82 c-5 123 4 182 35 212 31 31 75
34 103 6 18 -18 20 -33 20 -160 l0 -140 30 0 30 0 0 145 c0 168 -9 197 -67
222 -45 18 -93 10 -132 -23 -25 -20 -31 -22 -38 -10 -11 19 -63 46 -88 45 -11
0 -31 -5 -45 -10z"/>
<path d="M5019 18401 c-81 -26 -119 -89 -119 -197 0 -122 57 -184 168 -184 64
0 106 20 132 63 27 44 25 57 -9 57 -21 0 -32 -6 -36 -20 -4 -11 -19 -27 -35
-35 -58 -30 -119 -13 -145 40 -30 65 -30 65 121 65 l137 0 -5 48 c-6 61 -33
117 -68 142 -32 23 -103 33 -141 21z m94 -62 c25 -11 40 -34 52 -76 6 -23 5
-23 -99 -23 -67 0 -106 4 -106 10 0 21 30 69 52 84 26 19 67 21 101 5z"/>
<path d="M5450 18403 c-8 -3 -30 -19 -47 -36 l-33 -31 0 32 c0 27 -4 32 -25
32 l-25 0 0 -185 0 -185 30 0 30 0 0 124 c0 115 2 127 23 151 12 15 38 30 57
34 30 6 35 11 35 36 0 30 -15 39 -45 28z"/>
<path d="M5613 18399 c-43 -13 -83 -62 -83 -103 0 -56 30 -81 122 -106 95 -25
108 -33 108 -66 0 -31 -36 -54 -85 -54 -46 0 -82 21 -95 56 -12 32 -60 34 -60
4 0 -37 30 -81 65 -96 19 -8 59 -14 90 -14 94 0 145 40 145 115 0 56 -26 79
-125 105 -44 12 -86 27 -92 32 -18 15 -16 42 5 61 37 33 142 12 142 -29 0 -9
11 -14 31 -14 29 0 31 2 24 28 -17 71 -102 107 -192 81z"/>
<path d="M2480 18390 c0 -5 30 -91 66 -190 67 -184 69 -198 38 -247 -10 -16
-24 -23 -44 -23 -25 0 -30 -4 -30 -25 0 -23 4 -25 44 -25 59 0 72 17 135 179
49 125 121 324 121 336 0 4 -15 5 -32 3 -33 -3 -33 -3 -83 -150 l-50 -148 -50
148 c-50 147 -50 147 -82 150 -19 2 -33 -1 -33 -8z"/>
<path d="M10035 18336 c-260 -82 -362 -411 -195 -632 66 -87 148 -135 262
-153 315 -51 563 278 428 568 -32 67 -100 146 -156 182 -18 11 -54 26 -80 34
-59 18 -204 18 -259 1z m92 -206 c2 -80 0 -150 -5 -156 -13 -18 -230 -194
-240 -194 -5 0 -18 19 -28 42 -14 32 -19 65 -19 133 0 94 13 133 69 208 38 52
155 118 201 114 19 -2 20 -10 22 -147z m170 126 c141 -66 225 -221 196 -361
-15 -71 -35 -110 -55 -109 -8 1 -66 43 -127 94 l-111 93 0 154 c0 152 0 153
23 153 12 0 45 -11 74 -24z m-169 -515 c2 -94 0 -112 -13 -117 -34 -13 -175
59 -175 89 0 17 160 149 174 144 7 -2 12 -46 14 -116z m180 49 c45 -39 82 -75
82 -80 0 -27 -156 -100 -180 -85 -11 7 -14 218 -3 228 11 12 16 9 101 -63z"/>
<path d="M2641 17591 c-13 -31 -47 -51 -87 -51 -21 0 -25 -4 -22 -22 3 -20 10
-23 56 -26 l52 -3 0 -155 0 -154 30 0 30 0 0 220 0 220 -24 0 c-17 0 -27 -8
-35 -29z"/>
<path d="M2918 17604 c-58 -31 -86 -140 -53 -204 25 -49 62 -70 120 -70 38 0
60 6 79 21 29 23 31 17 15 -46 -22 -87 -93 -122 -144 -70 -14 13 -25 29 -25
35 0 5 -13 10 -29 10 -25 0 -28 -3 -23 -25 11 -61 94 -104 163 -85 83 23 123
101 124 240 0 109 -18 160 -69 191 -38 23 -119 25 -158 3z m141 -60 c14 -18
21 -41 21 -69 0 -63 -29 -95 -85 -95 -57 0 -85 32 -85 97 0 59 32 93 89 93 31
0 44 -6 60 -26z"/>
<path d="M3295 17482 c-69 -96 -99 -146 -100 -165 l0 -29 95 -1 95 -2 3 -52
c3 -51 4 -53 33 -53 29 0 29 1 29 55 0 54 0 55 30 55 23 0 30 4 30 20 0 16 -7
20 -30 20 l-30 0 0 145 0 145 -27 0 c-24 0 -41 -18 -128 -138z m91 -139 c-4
-9 -26 -13 -71 -13 -36 0 -65 2 -65 5 0 3 30 49 68 102 l67 96 3 -88 c2 -49 1
-94 -2 -102z"/>
<path d="M3643 17600 c-18 -10 -42 -39 -55 -62 -20 -37 -23 -58 -23 -153 0
-98 3 -114 23 -148 43 -68 134 -91 203 -51 93 54 91 211 -2 260 -40 20 -121
15 -149 -11 -19 -18 -20 -17 -20 9 0 72 48 129 106 124 31 -2 43 -9 59 -35 21
-34 65 -46 65 -18 0 29 -30 75 -60 90 -41 21 -108 19 -147 -5z m132 -215 c34
-33 35 -103 1 -141 -32 -38 -86 -39 -124 -1 -22 23 -27 36 -26 74 1 37 6 51
28 70 37 31 89 31 121 -2z"/>
<path d="M4621 17585 c-16 -28 -28 -36 -61 -41 -34 -6 -40 -10 -40 -30 0 -22
4 -24 50 -24 l50 0 0 -155 0 -155 30 0 30 0 0 220 c0 210 -1 220 -19 220 -11
0 -28 -14 -40 -35z"/>
<path d="M4887 17590 c-78 -68 -70 -202 14 -246 39 -20 108 -18 145 5 l31 19
-9 -41 c-19 -88 -63 -128 -123 -113 -18 5 -31 17 -38 36 -9 23 -18 30 -39 30
-37 0 -37 -29 0 -70 52 -59 154 -58 205 2 78 93 77 312 -2 383 -16 13 -41 20
-85 23 -59 4 -65 2 -99 -28z m142 -30 c45 -24 51 -120 10 -161 -26 -26 -99
-26 -122 -1 -36 39 -29 138 11 162 22 12 78 13 101 0z"/>
<path d="M5270 17598 c-53 -36 -74 -88 -78 -196 -6 -140 26 -207 110 -230 41
-11 96 -2 132 21 54 36 73 144 36 205 -40 65 -152 82 -207 31 l-25 -24 7 40
c15 81 52 125 105 125 37 0 61 -17 73 -52 8 -23 57 -25 57 -3 0 29 -30 75 -60
90 -43 22 -111 19 -150 -7z m135 -213 c30 -29 34 -97 9 -133 -53 -76 -164 -30
-164 68 0 76 102 119 155 65z"/>
<path d="M5631 17478 c-72 -102 -101 -150 -99 -166 3 -24 6 -24 98 -26 l95 -1
3 -52 c3 -48 5 -53 27 -53 22 0 24 5 27 53 3 51 4 52 36 55 23 2 32 8 32 22 0
14 -9 20 -32 22 l-33 3 -3 143 c-3 140 -3 142 -25 142 -18 0 -45 -31 -126
-142z m99 -48 l0 -100 -70 0 c-38 0 -70 3 -70 6 0 7 130 194 136 194 2 0 4
-45 4 -100z"/>
<path d="M1695 17382 c-87 -18 -73 -151 16 -152 86 -1 109 119 28 148 -13 5
-33 6 -44 4z"/>
<path d="M4092 17353 c3 -28 4 -28 78 -28 74 0 75 0 78 28 l3 27 -81 0 -81 0
3 -27z"/>
<path d="M1382 16723 c-95 -52 -136 -128 -136 -253 -1 -76 3 -91 29 -140 41
-74 94 -110 173 -117 69 -6 136 13 167 47 25 27 32 25 40 -11 5 -24 11 -29 28
-27 21 3 22 8 25 136 l3 132 -116 0 -115 0 0 -25 c0 -25 1 -25 80 -25 l80 0 0
-34 c0 -140 -226 -188 -296 -62 -62 110 -28 273 67 321 68 36 171 8 207 -55
13 -24 24 -30 50 -30 l32 0 -15 37 c-35 83 -101 122 -205 123 -44 0 -76 -6
-98 -17z"/>
<path d="M2854 16606 l85 -123 -89 -127 c-50 -69 -90 -129 -90 -131 0 -3 17
-5 39 -5 37 0 40 2 106 100 38 55 72 100 76 100 4 0 35 -43 69 -96 34 -52 68
-98 75 -100 7 -3 27 -4 44 -2 l31 3 -85 124 c-47 69 -85 129 -85 134 0 5 33
57 73 116 40 58 76 112 81 119 5 9 -4 12 -33 12 -41 0 -41 -1 -102 -95 -34
-52 -64 -93 -68 -90 -5 2 -35 45 -67 94 l-59 91 -43 0 -43 0 85 -124z"/>
<path d="M9520 16350 c0 -167 -4 -260 -10 -260 -6 0 -10 -48 -10 -125 0 -71 4
-125 9 -125 6 0 11 -15 13 -32 l3 -33 610 0 610 0 3 33 c2 17 7 32 13 32 5 0
9 54 9 125 0 77 -4 125 -10 125 -6 0 -10 93 -10 260 l0 260 -615 0 -615 0 0
-260z m78 218 c-3 -25 -17 -32 -37 -19 -19 12 -6 41 19 41 16 0 21 -5 18 -22z
m1117 -3 c0 -13 -8 -21 -22 -23 -17 -3 -23 2 -23 16 0 10 3 22 7 26 13 13 38
1 38 -19z m-52 -53 l27 -28 0 -242 0 -242 -550 0 -550 0 0 244 0 244 31 26 31
26 492 0 492 0 27 -28z m-503 -603 c0 -25 -33 -22 -38 4 -2 12 3 17 17 17 15
0 21 -6 21 -21z m-170 -59 c0 -13 -7 -20 -20 -20 -13 0 -20 7 -20 20 0 13 7
20 20 20 13 0 20 -7 20 -20z m350 0 c0 -13 -7 -20 -20 -20 -13 0 -20 7 -20 20
0 13 7 20 20 20 13 0 20 -7 20 -20z m-740 -20 c0 -24 -25 -33 -40 -14 -10 11
-10 17 0 28 15 19 40 10 40 -14z m268 4 c4 -29 -23 -51 -43 -34 -16 13 -20 42
-8 54 14 14 48 1 51 -20z m600 -5 c4 -30 -22 -46 -44 -28 -15 12 -19 41 -7 53
16 16 48 1 51 -25z m250 -2 c4 -20 -25 -34 -40 -19 -15 15 -1 44 19 40 10 -2
19 -11 21 -21z"/>
<path d="M9799 16301 c-24 -24 -29 -38 -29 -76 0 -38 5 -52 29 -76 l29 -29
307 0 c339 0 353 2 374 62 12 34 7 84 -12 109 -27 37 -50 39 -362 39 l-307 0
-29 -29z m102 -4 c43 -33 50 -87 14 -122 -50 -50 -125 -17 -125 56 0 60 67
100 111 66z m379 -37 l0 -50 -140 0 -140 0 0 50 0 50 140 0 140 0 0 -50z m173
30 c33 -26 41 -63 23 -99 -16 -31 -34 -41 -72 -41 -63 0 -89 99 -38 139 33 26
54 26 87 1z"/>
<path d="M9627 16273 c-6 -49 -3 -53 39 -53 34 0 34 0 34 45 0 44 0 45 -34 45
-32 0 -34 -2 -39 -37z m52 -4 c9 -27 9 -30 -6 -25 -9 4 -20 1 -25 -6 -12 -20
-10 19 2 43 14 25 16 24 29 -12z"/>
<path d="M1869 16577 c-112 -74 -105 -285 11 -345 81 -42 165 -20 218 58 28
42 28 50 -4 50 -16 0 -37 -13 -58 -35 -28 -30 -40 -35 -77 -35 -24 0 -52 7
-62 15 -20 14 -48 85 -40 97 2 5 63 8 135 8 l131 0 -5 48 c-6 63 -35 120 -72
143 -45 28 -133 26 -177 -4z m158 -60 c12 -12 25 -34 28 -49 l7 -28 -106 0
-106 0 11 27 c30 80 112 105 166 50z"/>
<path d="M2291 16574 c-30 -25 -31 -25 -31 -5 0 17 -6 21 -30 21 l-30 0 0
-185 0 -185 29 0 29 0 4 134 c3 117 6 137 23 156 27 30 62 42 98 34 45 -10 57
-51 57 -199 l0 -125 30 0 30 0 0 145 c0 156 -8 188 -52 219 -13 10 -44 16 -74
16 -42 0 -59 -5 -83 -26z"/>
<path d="M2470 15796 c-12 -32 -48 -56 -82 -56 -23 0 -28 -4 -28 -25 0 -23 3
-25 50 -25 l50 0 0 -160 0 -160 30 0 30 0 0 225 c0 219 -1 225 -20 225 -12 0
-24 -10 -30 -24z"/>
<path d="M2751 15802 c-48 -24 -73 -62 -78 -119 -10 -117 100 -197 200 -145
34 18 37 19 37 2 0 -29 -22 -84 -43 -107 -39 -43 -110 -27 -130 30 -8 22 -57
24 -57 2 0 -32 32 -77 65 -91 81 -33 153 -4 195 81 22 43 25 63 25 150 0 81
-4 107 -21 139 -36 70 -121 95 -193 58z m122 -52 c52 -41 40 -148 -20 -171
-96 -37 -168 88 -94 162 35 35 77 38 114 9z"/>
<path d="M3120 15802 c-24 -13 -44 -35 -63 -74 -25 -49 -29 -67 -29 -148 0
-109 24 -170 82 -202 43 -24 119 -20 158 9 83 60 81 194 -3 249 -41 26 -116
24 -155 -4 l-31 -23 7 38 c17 94 73 142 139 117 8 -4 22 -19 31 -35 10 -20 22
-29 39 -29 32 0 33 27 4 64 -44 56 -115 71 -179 38z m121 -221 c23 -23 29 -38
29 -71 0 -53 -42 -100 -90 -100 -47 0 -90 47 -90 97 0 90 90 134 151 74z"/>
<path d="M4451 15791 c-13 -30 -40 -48 -81 -53 -17 -2 -26 -10 -28 -25 -3 -21
0 -23 47 -23 l50 0 3 -157 3 -158 28 -3 27 -3 0 225 c0 214 -1 226 -19 226
-11 0 -23 -11 -30 -29z"/>
<path d="M4730 15802 c-47 -26 -71 -70 -72 -131 0 -63 25 -109 72 -134 46 -24
112 -18 146 14 28 26 29 20 10 -46 -20 -63 -50 -95 -93 -95 -35 0 -73 29 -73
55 0 10 -10 15 -31 15 -29 0 -31 -2 -24 -27 23 -93 153 -124 224 -53 87 87 85
338 -4 396 -40 26 -113 29 -155 6z m113 -43 c48 -22 63 -106 27 -152 -59 -75
-173 -17 -155 80 12 68 69 99 128 72z"/>
<path d="M5093 15805 c-67 -29 -90 -120 -43 -170 l25 -26 -21 -17 c-30 -24
-44 -55 -44 -97 0 -54 25 -94 73 -116 116 -52 227 8 227 124 0 41 -5 53 -31
79 l-30 31 21 22 c31 33 35 83 10 123 -35 56 -118 77 -187 47z m122 -60 c14
-13 25 -34 25 -45 0 -32 -44 -70 -80 -70 -38 0 -80 39 -80 74 0 31 43 66 82
66 17 0 39 -10 53 -25z m10 -190 c52 -51 16 -145 -55 -145 -37 0 -85 23 -94
45 -24 65 16 125 84 125 30 0 47 -6 65 -25z"/>
<path d="M5450 15801 c-23 -12 -44 -36 -60 -67 -22 -42 -25 -62 -25 -144 0
-83 3 -102 25 -145 59 -115 200 -114 253 3 17 38 22 66 22 142 0 76 -5 104
-22 142 -37 81 -117 110 -193 69z m113 -51 c33 -26 51 -102 45 -189 -6 -79
-23 -120 -60 -140 -37 -21 -76 -6 -102 39 -28 47 -29 208 -3 257 29 55 75 68
120 33z"/>
<path d="M3425 15798 c-2 -7 -9 -49 -15 -93 -6 -44 -13 -92 -16 -107 -5 -25
-3 -28 21 -28 15 0 38 9 52 20 63 49 153 2 153 -80 0 -83 -90 -129 -154 -79
-14 11 -26 27 -26 35 0 9 -11 14 -30 14 -38 0 -40 -26 -5 -68 34 -40 75 -55
136 -50 92 9 143 72 136 166 -7 103 -107 159 -211 117 -16 -7 -18 -4 -12 23 3
18 9 46 12 62 l6 30 94 0 c94 0 94 0 94 25 l0 25 -115 0 c-84 0 -117 -3 -120
-12z"/>
<path d="M1668 15566 c-71 -54 -9 -170 73 -136 35 15 49 37 49 79 0 54 -78 91
-122 57z"/>
<path d="M3917 15573 c-4 -3 -7 -17 -7 -30 0 -22 3 -23 80 -23 l80 0 0 30 0
30 -73 0 c-41 0 -77 -3 -80 -7z"/>
<path d="M1260 14665 l0 -255 35 0 35 0 1 203 1 202 67 -200 68 -200 35 -3 36
-3 70 208 70 208 1 -207 1 -208 35 0 35 0 -2 253 -3 252 -49 0 -49 0 -70 -208
c-38 -115 -73 -205 -77 -200 -4 4 -38 99 -75 211 l-67 202 -49 0 -49 0 0 -255z"/>
<path d="M1850 14885 c0 -32 2 -35 30 -35 28 0 30 3 30 35 0 32 -2 35 -30 35
-28 0 -30 -3 -30 -35z"/>
<path d="M2007 14914 c-4 -4 -7 -119 -7 -256 l0 -248 35 0 35 0 -2 253 -3 252
-25 3 c-14 2 -29 0 -33 -4z"/>
<path d="M2160 14665 l0 -255 30 0 30 0 0 255 0 255 -30 0 -30 0 0 -255z"/>
<path d="M3500 14885 c0 -32 2 -35 30 -35 28 0 30 3 30 35 0 32 -2 35 -30 35
-28 0 -30 -3 -30 -35z"/>
<path d="M4050 14665 l0 -255 30 0 30 0 0 255 0 255 -30 0 -30 0 0 -255z"/>
<path d="M9794 14856 l-34 -34 0 -583 c0 -447 3 -590 13 -609 7 -14 28 -33 47
-42 31 -16 69 -18 333 -18 329 0 353 4 382 59 14 27 15 97 13 617 l-3 586 -33
29 -32 29 -326 0 -326 0 -34 -34z m514 -38 c-4 -10 -43 -13 -153 -13 -110 0
-149 3 -152 13 -4 9 31 12 152 12 121 0 156 -3 153 -12z m177 -548 l0 -475
-330 0 -330 0 -3 465 c-1 256 0 471 3 478 3 10 75 12 332 10 l328 -3 0 -475z
m-297 -562 c28 -28 7 -78 -33 -78 -27 0 -45 18 -45 45 0 27 18 45 45 45 12 0
26 -5 33 -12z"/>
<path d="M2394 14771 c-66 -30 -89 -77 -89 -183 0 -93 11 -119 68 -162 42 -31
132 -33 181 -4 38 22 80 83 70 100 -12 18 -55 8 -66 -17 -6 -13 -27 -32 -46
-41 -65 -31 -136 9 -144 81 l-3 29 130 1 130 0 3 40 c4 52 -32 123 -77 152
-42 28 -101 30 -157 4z m128 -52 c22 -12 52 -74 43 -89 -7 -11 -188 -14 -198
-4 -9 9 11 56 35 82 24 24 84 30 120 11z"/>
<path d="M2825 14775 c-16 -9 -36 -23 -42 -32 -11 -15 -13 -14 -13 10 0 23 -4
27 -30 27 l-30 0 0 -185 0 -185 30 0 30 0 0 108 c0 122 11 175 43 197 22 16
84 20 104 7 24 -15 33 -66 33 -188 l0 -124 30 0 30 0 0 145 c0 166 -9 197 -65
221 -44 18 -83 18 -120 -1z"/>
<path d="M3230 14783 c-8 -3 -27 -17 -42 -31 l-28 -26 0 27 c0 23 -4 27 -30
27 l-30 0 0 -185 0 -185 30 0 30 0 0 93 c1 173 26 227 106 227 67 0 74 -17 74
-182 l0 -138 30 0 30 0 0 153 c0 167 -5 183 -60 212 -29 15 -81 19 -110 8z"/>
<path d="M3725 14776 c-38 -17 -61 -43 -70 -78 -7 -26 -5 -28 23 -28 22 0 32
6 37 20 11 34 50 53 97 47 45 -6 68 -27 68 -64 0 -29 -21 -39 -101 -47 -81 -9
-123 -33 -139 -80 -36 -111 86 -185 199 -121 51 29 51 29 51 10 0 -19 46 -38
71 -30 25 8 24 41 -1 48 -19 5 -20 14 -20 134 0 144 -7 164 -66 189 -42 17
-110 17 -149 0z m126 -288 c-61 -55 -151 -43 -151 21 0 40 26 58 99 70 35 6
66 13 70 17 3 3 7 -14 9 -37 3 -38 -1 -47 -27 -71z"/>
<path d="M4260 14772 c-45 -22 -76 -80 -63 -120 13 -37 58 -66 129 -81 85 -19
96 -27 92 -64 -2 -26 -10 -34 -39 -45 -53 -20 -112 -2 -129 38 -10 24 -19 30
-42 30 -28 0 -30 -2 -23 -27 16 -69 67 -103 150 -103 93 0 150 47 150 123 0
54 -33 80 -130 103 -83 19 -116 44 -99 72 32 52 127 52 152 0 17 -36 62 -40
62 -5 0 77 -122 123 -210 79z"/>
<path d="M1850 14595 l0 -185 30 0 30 0 0 185 0 185 -30 0 -30 0 0 -185z"/>
<path d="M3500 14595 l0 -185 30 0 30 0 0 185 0 185 -30 0 -30 0 0 -185z"/>
<path d="M2464 13975 c-13 -29 -25 -37 -60 -46 -33 -8 -44 -16 -44 -30 0 -16
8 -19 50 -19 l50 0 0 -160 0 -160 30 0 30 0 0 225 c0 217 -1 225 -20 225 -12
0 -25 -13 -36 -35z"/>
<path d="M2775 14003 c-59 -16 -105 -85 -105 -156 0 -46 31 -97 71 -119 41
-23 119 -20 147 6 10 9 21 16 24 16 12 0 -21 -102 -39 -122 -43 -48 -113 -41
-132 13 -7 22 -16 29 -35 29 -20 0 -26 -5 -26 -23 0 -54 60 -97 136 -97 40 0
51 5 84 38 47 46 70 119 70 217 0 80 -26 145 -71 178 -27 19 -90 30 -124 20z
m79 -57 c91 -38 60 -186 -39 -186 -48 0 -76 27 -81 80 -6 52 11 89 46 107 31
16 34 16 74 -1z"/>
<path d="M3113 13995 c-69 -30 -93 -119 -48 -174 25 -29 26 -30 6 -41 -29 -15
-43 -45 -43 -96 0 -81 59 -134 147 -134 98 0 161 62 152 150 -4 33 -12 51 -35
71 l-30 27 24 23 c32 30 34 105 3 138 -45 48 -116 62 -176 36z m94 -46 c34
-13 43 -25 43 -66 0 -39 -30 -63 -77 -63 -82 0 -100 104 -23 133 22 8 26 8 57
-4z m34 -208 c58 -58 23 -141 -60 -141 -87 0 -130 93 -67 146 39 34 89 32 127
-5z"/>
<path d="M3527 13975 c-13 -28 -25 -37 -62 -47 -32 -9 -45 -17 -45 -30 0 -15
9 -18 50 -18 l50 0 0 -160 0 -160 30 0 30 0 0 225 c0 211 -1 225 -18 225 -11
0 -25 -14 -35 -35z"/>
<path d="M4447 13975 c-13 -28 -25 -37 -62 -47 -31 -9 -45 -17 -45 -30 0 -13
10 -18 51 -20 l51 -3 -1 -157 -2 -158 31 0 30 0 0 225 c0 211 -1 225 -18 225
-11 0 -25 -14 -35 -35z"/>
<path d="M4745 13996 c-66 -29 -91 -79 -85 -171 5 -91 113 -142 202 -96 l37
18 -6 -31 c-3 -17 -14 -47 -24 -67 -34 -68 -116 -71 -147 -6 -9 18 -21 27 -38
27 -28 0 -31 -18 -9 -60 20 -38 63 -60 117 -60 88 0 141 64 157 188 15 115
-10 211 -63 246 -36 23 -105 29 -141 12z m123 -72 c35 -40 27 -117 -17 -151
-24 -19 -75 -15 -104 7 -32 25 -42 69 -27 115 22 66 101 82 148 29z"/>
<path d="M5090 13993 c-41 -21 -80 -90 -80 -143 0 -107 118 -175 209 -119 l33
20 -7 -38 c-9 -52 -36 -95 -68 -111 -36 -18 -92 5 -101 42 -5 19 -13 26 -31
26 -35 0 -33 -40 4 -82 24 -27 36 -32 89 -36 61 -4 63 -4 101 35 53 52 75 128
69 233 -5 84 -24 129 -69 163 -38 28 -106 32 -149 10z m99 -44 c39 -14 51 -35
51 -94 0 -59 -32 -95 -85 -95 -52 0 -85 36 -85 92 0 48 20 85 54 98 28 12 28
12 65 -1z"/>
<path d="M5464 13991 c-34 -15 -47 -30 -70 -77 -25 -51 -29 -69 -28 -149 0
-105 23 -162 77 -195 65 -40 162 -18 204 46 24 38 24 129 -1 167 -39 58 -131
75 -194 37 l-33 -20 7 37 c14 79 47 117 99 117 35 0 75 -27 75 -51 0 -8 12
-13 31 -13 27 0 30 3 24 23 -13 41 -36 68 -70 83 -45 19 -71 17 -121 -5z m121
-226 c28 -27 33 -80 13 -118 -45 -85 -168 -47 -168 53 0 56 34 90 90 90 30 0
47 -6 65 -25z"/>
<path d="M1685 13770 c-51 -20 -65 -90 -25 -130 45 -45 130 -8 130 56 0 32
-28 74 -49 74 -5 0 -15 2 -23 4 -7 3 -22 1 -33 -4z"/>
<path d="M3914 13761 c-2 -2 -4 -15 -4 -28 0 -22 3 -23 80 -23 78 0 80 1 80
24 0 23 -3 25 -76 28 -42 2 -78 1 -80 -1z"/>
<path d="M1407 13116 c-106 -38 -162 -129 -162 -261 0 -142 61 -229 179 -255
62 -14 137 1 182 35 40 31 40 31 48 0 5 -18 13 -25 31 -25 l26 0 -3 133 -3
132 -110 0 -110 0 -3 -27 -3 -28 82 0 82 0 -6 -40 c-7 -56 -31 -88 -80 -111
-55 -24 -101 -24 -153 2 -117 56 -121 300 -6 371 73 45 181 21 219 -49 14 -27
24 -33 50 -33 31 0 31 1 23 31 -17 58 -66 103 -134 124 -60 18 -99 18 -149 1z"/>
<path d="M2782 13083 l3 -28 138 -3 c75 -1 137 -5 137 -7 0 -3 -67 -90 -150
-193 -112 -139 -150 -194 -150 -214 l0 -28 200 0 200 0 0 30 0 30 -155 0 -155
0 155 194 c112 139 155 201 155 220 l0 26 -191 0 -190 0 3 -27z"/>
<path d="M1905 12978 c-72 -26 -114 -97 -115 -194 0 -118 61 -184 171 -184 67
0 115 27 142 80 l17 35 -25 3 c-18 2 -34 -6 -59 -32 -28 -30 -40 -36 -74 -36
-28 0 -49 7 -67 23 -25 22 -49 80 -37 91 3 3 63 6 134 6 l128 0 0 43 c0 50
-34 123 -70 149 -31 22 -106 31 -145 16z m100 -58 c23 -9 55 -60 55 -90 0 -6
-39 -10 -105 -10 -58 0 -105 2 -105 4 0 24 29 72 54 87 35 21 62 24 101 9z"/>
<path d="M2325 12977 c-17 -8 -37 -22 -45 -32 -14 -17 -15 -16 -20 6 -4 17
-14 25 -33 27 l-27 3 0 -185 0 -186 30 0 30 0 0 116 c0 84 4 125 15 149 26 54
92 72 136 36 23 -18 24 -26 27 -160 l4 -141 29 0 29 0 0 143 c0 93 -5 150 -13
166 -28 56 -106 83 -162 58z"/>
<path d="M10141 12661 c-19 -19 -37 -100 -48 -215 -7 -80 6 -92 115 -108 45
-7 82 -15 82 -19 0 -5 -10 -15 -22 -23 l-22 -16 23 0 c22 0 23 -2 15 -47 -4
-27 -8 -59 -9 -73 -1 -21 -22 -35 -141 -97 -136 -71 -155 -85 -135 -98 6 -3
11 -15 11 -26 0 -23 4 -23 33 -5 12 8 89 50 171 95 102 56 159 81 182 81 39 0
49 14 59 83 7 44 10 48 31 44 16 -3 31 4 45 20 21 21 28 23 85 17 53 -6 64 -4
81 13 21 21 39 99 50 213 7 88 -2 95 -144 116 -97 14 -114 14 -138 2 -27 -15
-26 -15 51 -27 95 -15 132 -28 139 -50 7 -23 -21 -189 -36 -207 -16 -19 -30
-18 -251 16 -163 25 -196 33 -211 51 -9 12 -15 29 -13 38 3 9 10 51 17 94 16
107 22 110 161 88 l107 -17 28 22 28 23 -39 1 c-32 0 -37 -3 -32 -17 5 -16 5
-16 -7 -2 -8 10 -48 22 -108 33 -122 20 -135 20 -158 -3z m569 -217 c11 -12
11 -18 -2 -30 -18 -18 -48 -8 -48 15 0 33 28 42 50 15z"/>
<path d="M2460 12167 c-12 -25 -24 -34 -57 -41 -36 -8 -43 -14 -43 -33 0 -21
4 -23 50 -23 l50 0 0 -155 0 -155 30 0 30 0 0 220 0 220 -22 0 c-16 0 -28 -11
-38 -33z"/>
<path d="M2729 12173 c-79 -67 -77 -194 3 -243 43 -26 113 -26 154 -1 l31 19
-9 -41 c-20 -90 -67 -132 -125 -111 -16 5 -34 22 -41 37 -17 34 -62 39 -62 6
0 -30 62 -89 97 -91 89 -4 129 17 165 90 20 40 23 62 23 152 0 119 -14 157
-68 190 -50 31 -127 27 -168 -7z m141 -33 c30 -16 45 -79 30 -124 -14 -43 -35
-56 -89 -56 -49 0 -81 35 -81 87 0 37 22 88 42 96 23 9 79 7 98 -3z"/>
<path d="M3092 12180 c-44 -27 -65 -80 -60 -149 4 -47 10 -59 41 -88 32 -29
43 -33 91 -33 39 0 60 6 80 21 30 24 31 20 11 -49 -17 -57 -53 -92 -95 -92
-27 0 -70 36 -70 58 0 7 -13 12 -30 12 -35 0 -35 0 -16 -45 19 -46 56 -67 116
-68 85 -1 139 56 160 169 23 119 -6 230 -70 267 -39 24 -117 22 -158 -3z m143
-55 c33 -32 35 -100 4 -139 -41 -52 -146 -27 -151 37 -5 85 22 127 84 127 28
0 46 -7 63 -25z"/>
<path d="M4385 12190 c-34 -13 -63 -53 -73 -97 -11 -47 -8 -53 24 -53 17 0 23
7 28 36 10 50 38 74 86 74 58 0 95 -37 87 -87 -8 -46 -26 -65 -101 -107 -88
-50 -126 -94 -139 -163 l-6 -33 154 0 155 0 0 25 0 25 -120 0 c-66 0 -120 3
-120 8 0 19 35 54 78 78 26 15 64 38 85 51 131 83 85 254 -68 252 -27 0 -59
-4 -70 -9z"/>
<path d="M4721 12175 c-44 -38 -66 -105 -66 -205 0 -93 14 -139 54 -183 70
-76 196 -43 233 61 19 56 17 198 -5 254 -27 69 -66 98 -132 98 -43 0 -60 -5
-84 -25z m139 -47 c29 -31 35 -60 35 -163 0 -102 -18 -149 -62 -166 -39 -14
-82 7 -99 48 -35 83 -25 234 18 280 29 30 80 31 108 1z"/>
<path d="M5151 12165 c-16 -28 -28 -36 -61 -41 -34 -6 -40 -10 -40 -30 0 -22
4 -24 50 -24 l50 0 0 -155 0 -155 30 0 30 0 0 220 c0 210 -1 220 -19 220 -11
0 -28 -14 -40 -35z"/>
<path d="M5433 12180 c-38 -23 -63 -67 -63 -110 0 -25 4 -30 24 -30 19 0 26 7
31 30 12 53 41 80 89 80 54 0 86 -30 86 -81 0 -42 -27 -71 -117 -123 -74 -43
-113 -90 -120 -146 l-6 -40 152 0 151 0 0 25 0 25 -120 0 c-81 0 -120 4 -120
11 0 18 54 63 116 96 33 18 73 46 89 63 27 28 30 38 30 91 0 57 -2 63 -37 95
-34 30 -44 34 -95 34 -40 0 -68 -6 -90 -20z"/>
<path d="M3380 12165 l0 -24 120 -3 120 -3 -36 -50 c-61 -85 -116 -205 -137
-302 -5 -20 -1 -23 27 -23 31 0 32 2 44 58 15 71 85 219 136 285 20 26 36 56
36 67 0 19 -7 20 -155 20 l-155 0 0 -25z"/>
<path d="M9751 11870 c-145 -81 -190 -111 -177 -116 10 -4 23 -19 30 -34 l11
-28 150 80 c188 100 225 124 225 146 0 19 -27 62 -38 62 -4 0 -94 -50 -201
-110z"/>
<path d="M1668 11956 c-29 -21 -40 -64 -26 -94 38 -78 148 -54 148 33 0 56
-78 95 -122 61z"/>
<path d="M3912 11933 c3 -28 4 -28 78 -28 74 0 75 0 78 28 l3 27 -81 0 -81 0
3 -27z"/>
<path d="M9540 11726 c0 -28 24 -51 45 -42 19 7 19 30 -1 50 -23 24 -44 20
-44 -8z"/>
<path d="M1382 11303 c-95 -52 -136 -128 -136 -253 -1 -76 3 -91 29 -140 41
-74 94 -110 173 -117 69 -6 136 13 167 47 25 27 32 25 40 -11 5 -24 11 -29 28
-27 21 3 22 8 25 136 l3 132 -116 0 -115 0 0 -25 c0 -25 1 -25 80 -25 l80 0 0
-34 c0 -140 -226 -188 -296 -62 -62 110 -28 273 67 321 68 36 171 8 207 -55
13 -24 24 -30 50 -30 l32 0 -15 37 c-35 83 -101 122 -205 123 -44 0 -76 -6
-98 -17z"/>
<path d="M2852 11066 c-51 -134 -92 -249 -92 -256 0 -7 13 -10 31 -8 29 3 34
9 58 73 l27 70 104 0 103 0 25 -72 c23 -72 24 -73 58 -73 19 0 34 4 34 9 0 9
-151 433 -170 479 -8 17 -18 22 -48 22 l-39 0 -91 -244z m166 59 c18 -50 32
-96 32 -103 0 -8 -23 -12 -76 -12 -57 0 -75 3 -71 13 2 6 19 56 38 109 19 53
37 94 40 90 3 -4 20 -48 37 -97z"/>
<path d="M3260 11055 l0 -256 33 3 32 3 0 250 0 250 -32 3 -33 3 0 -256z"/>
<path d="M3810 11055 l0 -256 33 3 32 3 5 130 c3 72 9 138 14 148 22 47 123
59 146 17 5 -10 10 -82 10 -159 l0 -141 30 0 30 0 0 156 0 156 -34 34 c-29 29
-41 34 -83 34 -45 0 -86 -17 -105 -44 -9 -13 -9 -16 -11 89 l-2 80 -32 3 -33
3 0 -256z"/>
<path d="M1869 11157 c-112 -74 -105 -285 11 -345 81 -42 165 -20 218 58 28
42 28 50 -4 50 -16 0 -37 -13 -58 -35 -28 -30 -40 -35 -77 -35 -24 0 -52 7
-62 15 -20 14 -48 85 -40 97 2 5 63 8 135 8 l131 0 -5 48 c-6 63 -35 120 -72
143 -45 28 -133 26 -177 -4z m158 -60 c12 -12 25 -34 28 -49 l7 -28 -106 0
-106 0 11 27 c30 80 112 105 166 50z"/>
<path d="M2291 11154 c-30 -25 -31 -25 -31 -5 0 17 -6 21 -30 21 l-30 0 0
-185 0 -185 29 0 29 0 4 134 c3 117 6 137 23 156 27 30 62 42 98 34 45 -10 57
-51 57 -199 l0 -125 30 0 30 0 0 145 c0 156 -8 188 -52 219 -13 10 -44 16 -74
16 -42 0 -59 -5 -83 -26z"/>
<path d="M3503 11154 c-32 -25 -33 -25 -33 -5 0 17 -6 21 -30 21 l-30 0 0
-255 0 -255 35 0 35 0 0 85 0 84 35 -21 c94 -55 204 24 220 157 9 72 -9 132
-55 177 -34 35 -42 38 -91 38 -43 0 -61 -6 -86 -26z m106 -35 c41 -15 61 -54
61 -124 0 -100 -32 -145 -103 -145 -67 0 -108 75 -91 166 17 96 59 129 133
103z"/>
<path d="M4275 11170 c-30 -12 -63 -52 -67 -80 -2 -21 2 -26 25 -28 15 -2 27
2 27 8 0 26 49 60 87 60 55 0 85 -24 81 -63 -3 -34 -7 -35 -132 -52 -71 -10
-106 -47 -106 -112 0 -101 92 -142 195 -88 48 26 48 26 62 5 10 -13 25 -20 49
-20 29 0 34 3 34 24 0 15 -7 26 -20 29 -19 5 -20 14 -20 132 0 69 -5 135 -10
146 -17 31 -64 49 -127 48 -32 0 -67 -4 -78 -9z m137 -279 c-27 -37 -92 -57
-129 -39 -30 14 -38 36 -29 73 6 25 32 36 126 53 l45 8 3 -35 c2 -22 -3 -43
-16 -60z"/>
<path d="M10224 10750 c-48 -15 -130 -105 -170 -186 l-36 -72 -59 -17 c-33 -9
-75 -29 -93 -46 -19 -16 -38 -29 -43 -28 -4 2 -21 -4 -36 -11 -28 -14 -28 -14
42 -32 150 -39 380 -116 424 -141 30 -18 56 -44 74 -74 24 -41 27 -58 28 -128
0 -124 -11 -171 -52 -216 l-35 -39 58 26 c94 41 154 108 169 187 7 34 14 41
65 67 31 16 71 45 88 65 30 33 32 41 32 108 -1 100 -23 146 -94 192 -30 19
-57 39 -60 44 -3 5 -10 42 -16 82 -20 143 -83 215 -195 224 -33 2 -74 0 -91
-5z m129 -78 c9 -10 23 -37 32 -61 32 -91 11 -148 -49 -137 -17 3 -53 8 -81
12 -62 8 -74 17 -73 55 1 23 15 43 65 89 35 33 70 60 77 60 7 0 20 -8 29 -18z
m-199 -189 c-12 -38 -26 -86 -30 -108 -6 -30 -9 -34 -12 -17 -5 34 45 192 62
192 2 0 -7 -30 -20 -67z m-184 -93 c-19 -12 -30 -12 -30 -1 0 10 31 20 40 14
2 -2 -2 -8 -10 -13z m357 -46 c46 -8 127 -30 180 -49 77 -26 101 -31 113 -22
13 10 13 10 1 -5 -15 -20 -112 -68 -136 -68 -8 0 -32 11 -53 24 -20 14 -80 37
-132 51 -87 25 -150 61 -150 87 0 9 58 3 177 -18z m232 -138 c-15 -14 -89 -45
-89 -37 0 5 17 16 38 24 35 15 60 21 51 13z m-109 -76 c0 -16 -2 -30 -4 -30
-2 0 -6 14 -8 30 -3 17 -1 30 4 30 4 0 8 -13 8 -30z m14 -85 c5 -29 4 -36 -3
-25 -6 8 -11 28 -11 44 0 39 6 31 14 -19z"/>
<path d="M2401 10382 c-44 -22 -70 -57 -78 -105 -5 -36 -5 -37 26 -37 24 0 31
4 31 20 0 75 84 116 144 69 21 -16 26 -29 26 -63 0 -49 -13 -64 -105 -119 -33
-19 -70 -46 -82 -59 -26 -27 -53 -88 -53 -118 0 -20 4 -20 153 -18 l152 3 0
25 0 25 -124 5 -124 5 24 28 c13 15 60 49 103 75 96 57 119 85 119 146 0 106
-113 169 -212 118z"/>
<path d="M2750 10378 c-58 -40 -75 -88 -75 -208 0 -87 4 -112 21 -145 59 -114
194 -114 249 0 23 45 26 66 26 145 0 79 -3 100 -26 145 -40 83 -125 110 -195
63z m117 -43 c12 -8 27 -32 34 -53 18 -52 15 -188 -4 -234 -28 -67 -96 -75
-140 -16 -22 30 -34 137 -23 212 13 86 77 130 133 91z"/>
<path d="M3180 10386 c0 -27 -36 -59 -76 -65 -30 -5 -40 -11 -42 -29 -3 -20 0
-22 52 -22 l56 0 0 -160 0 -160 30 0 30 0 0 225 0 225 -25 0 c-15 0 -25 -6
-25 -14z"/>
<path d="M3463 10385 c-38 -16 -73 -68 -73 -107 0 -23 4 -28 25 -28 20 0 27 6
32 30 11 57 74 86 126 59 30 -16 37 -28 37 -65 0 -40 -27 -64 -73 -64 -33 0
-37 -3 -37 -25 0 -21 5 -25 30 -25 59 0 100 -37 100 -90 0 -34 -42 -71 -85
-76 -53 -6 -87 13 -101 56 -9 27 -18 36 -38 38 -21 3 -26 -1 -26 -20 0 -69 69
-128 150 -128 92 0 153 55 154 141 1 45 -3 54 -32 80 l-33 30 21 17 c30 24 38
91 15 130 -34 56 -122 78 -192 47z"/>
<path d="M6280 10336 c0 -39 -3 -45 -22 -48 -15 -2 -24 -11 -26 -25 -3 -19 1
-23 22 -23 l26 0 0 -129 c0 -148 6 -161 71 -161 36 0 40 2 37 23 -2 14 -11 23
-25 25 -22 3 -23 7 -23 123 l0 119 26 0 c21 0 25 4 22 22 -2 15 -12 25 -28 28
-22 4 -25 10 -25 45 0 36 -3 40 -27 43 -27 3 -28 2 -28 -42z"/>
<path d="M9720 10361 c0 -5 19 -11 43 -14 72 -10 397 -124 440 -154 24 -16 52
-49 66 -78 23 -44 26 -61 25 -150 0 -55 -6 -111 -11 -125 -8 -19 -10 5 -6 91
6 109 4 119 -20 172 -20 44 -37 64 -72 86 -60 38 -442 161 -500 161 -34 0 -83
-46 -95 -88 -15 -56 -12 -181 6 -243 22 -74 68 -116 190 -169 139 -61 313
-120 354 -120 83 0 147 49 170 131 14 46 13 193 -1 240 -16 53 -60 103 -114
128 -46 22 -383 124 -442 135 -18 3 -33 2 -33 -3z m138 -71 c70 -22 161 -51
202 -64 112 -35 148 -61 176 -120 19 -42 24 -67 24 -141 0 -253 -64 -269 -435
-113 -149 62 -171 78 -201 142 -20 43 -24 67 -24 148 0 141 23 188 92 188 21
0 96 -18 166 -40z"/>
<path d="M4424 10286 c-18 -8 -35 -19 -38 -25 -11 -17 -24 -13 -22 7 1 12 -6
17 -24 17 l-25 0 -3 -232 -2 -233 30 0 30 0 0 82 0 81 21 -19 c28 -25 105 -26
142 -1 65 42 94 185 51 257 -37 64 -103 91 -160 66z m94 -71 c44 -55 35 -165
-15 -204 -36 -29 -69 -26 -104 8 -26 26 -29 36 -29 91 0 61 18 114 42 123 7 3
30 6 50 6 28 1 41 -5 56 -24z"/>
<path d="M4805 10292 c-11 -2 -32 -16 -47 -30 l-28 -26 0 27 c0 22 -5 27 -25
27 l-25 0 0 -170 0 -170 25 0 c25 0 25 0 25 99 0 141 18 181 84 181 22 0 26 5
26 29 0 34 -6 39 -35 33z"/>
<path d="M4982 10290 c-70 -17 -112 -82 -112 -176 0 -120 76 -189 185 -168 42
8 105 64 105 94 0 29 -43 26 -59 -4 -15 -27 -50 -46 -87 -46 -34 0 -84 51 -84
84 l0 26 121 0 122 0 -7 47 c-14 107 -90 166 -184 143z m83 -56 c16 -6 45 -54
45 -74 0 -6 -34 -10 -90 -10 -81 0 -90 2 -90 19 0 31 48 71 86 71 18 0 40 -3
49 -6z"/>
<path d="M5325 10290 c-68 -15 -95 -44 -95 -104 0 -46 30 -69 120 -91 71 -17
96 -38 84 -68 -7 -19 -48 -37 -85 -37 -29 0 -79 37 -79 60 0 5 -11 10 -25 10
-20 0 -25 -5 -25 -24 0 -89 163 -128 240 -56 24 22 30 36 30 68 0 48 -28 76
-94 92 -90 23 -111 35 -111 60 0 53 99 64 131 14 10 -14 26 -24 40 -24 28 0
30 10 10 48 -22 43 -80 64 -141 52z"/>
<path d="M5663 10290 c-50 -12 -83 -38 -104 -83 -25 -57 -24 -130 2 -185 37
-76 143 -104 215 -57 28 18 66 74 58 87 -10 15 -43 8 -54 -12 -16 -30 -67 -53
-105 -46 -39 8 -63 32 -71 74 l-6 32 122 0 123 0 -6 51 c-12 103 -84 160 -174
139z m96 -76 c12 -15 21 -35 21 -45 0 -17 -9 -19 -90 -19 -101 0 -108 7 -64
59 21 26 33 31 69 31 35 0 48 -5 64 -26z"/>
<path d="M6030 10289 c-14 -6 -35 -20 -47 -31 l-23 -21 0 27 c0 23 -4 27 -22
24 -23 -3 -23 -5 -26 -171 l-2 -168 27 3 28 3 5 123 c5 116 7 125 29 143 17
14 36 19 65 17 37 -3 42 -7 53 -38 7 -19 12 -83 12 -142 l1 -108 25 0 25 0 0
141 0 141 -29 29 c-16 16 -38 29 -49 29 -11 0 -26 2 -34 4 -7 3 -24 0 -38 -5z"/>
<path d="M1690 10160 c-13 -3 -32 -20 -42 -36 -46 -79 58 -157 120 -91 54 57
-1 147 -78 127z"/>
<path d="M3917 10153 c-4 -3 -7 -17 -7 -30 0 -22 3 -23 80 -23 l80 0 0 30 0
30 -73 0 c-41 0 -77 -3 -80 -7z"/>
<path d="M2226 3349 c-183 -52 -293 -147 -341 -295 l-17 -52 -46 15 c-54 16
-171 18 -220 4 -158 -47 -282 -234 -282 -426 0 -61 27 -144 66 -198 19 -26 34
-51 34 -56 0 -5 -15 -15 -32 -22 -45 -18 -125 -95 -151 -144 -33 -62 -30 -154
6 -228 16 -32 44 -73 63 -91 98 -95 311 -84 493 26 34 21 66 38 70 38 4 0 13
-16 19 -35 17 -46 87 -106 151 -129 42 -15 72 -17 154 -14 148 6 220 43 288
148 l16 25 41 -37 c156 -141 443 -153 588 -25 44 39 84 101 84 132 0 13 8 11
48 -8 112 -57 240 -61 333 -11 75 41 144 115 165 176 34 103 1 240 -75 312
l-30 29 49 44 c55 50 74 93 72 169 -3 112 -76 231 -173 279 -38 20 -64 25
-122 25 l-74 0 -7 41 c-9 55 -47 127 -88 166 -152 145 -451 129 -556 -30 l-25
-38 -29 53 c-36 68 -108 133 -176 158 -70 27 -201 26 -296 -1z m323 -44 c61
-34 112 -88 148 -160 l26 -50 15 25 c109 171 405 199 549 51 49 -51 65 -86 71
-158 l5 -63 36 7 c103 22 224 -14 277 -84 61 -80 89 -193 64 -259 -14 -35 -55
-84 -91 -108 l-29 -18 30 -34 c69 -79 94 -176 70 -274 -15 -61 -57 -113 -128
-159 -99 -63 -197 -61 -332 6 -41 21 -78 40 -82 41 -5 2 -8 -15 -8 -37 0 -84
-51 -150 -152 -196 -156 -71 -336 -47 -474 63 l-52 41 -43 -51 c-28 -33 -62
-60 -98 -77 -49 -22 -69 -26 -161 -25 -85 0 -113 4 -150 21 -79 36 -112 81
-124 166 l-7 48 -41 -33 c-72 -60 -102 -78 -175 -108 -100 -42 -205 -55 -278
-36 -65 17 -87 33 -126 95 -57 89 -59 183 -6 262 21 31 129 121 157 131 8 2 0
26 -24 68 -87 159 -54 361 79 494 55 56 109 79 195 84 60 3 87 0 135 -17 33
-12 67 -24 76 -27 13 -5 17 5 22 51 15 150 126 262 317 323 36 12 72 23 80 26
8 3 51 4 95 3 66 -3 90 -8 134 -32z"/>
<path d="M2460 2915 c-32 -77 -46 -101 -52 -90 -7 11 -19 14 -49 9 -38 -6 -39
-6 -38 22 l1 29 9 -25 c6 -17 7 -5 3 35 -6 63 -22 109 -25 70 -1 -16 -2 -16
-8 5 -7 26 -28 35 -49 22 -17 -12 15 -222 34 -222 7 0 14 -4 16 -9 5 -14 181
12 186 27 2 6 19 12 37 12 18 0 36 6 39 13 5 10 7 10 12 0 5 -12 64 -19 64 -8
0 3 -24 52 -52 110 -34 67 -58 105 -68 105 -11 0 -31 -34 -60 -105z m-143 -12
c-3 -10 -5 -4 -5 12 0 17 2 24 5 18 2 -7 2 -21 0 -30z m223 -15 c0 -5 -10 -8
-22 -7 -22 0 -22 1 -3 9 11 5 14 9 7 9 -7 1 -10 6 -6 12 6 11 23 -6 24 -23z
m-42 -75 c-10 -2 -18 -8 -18 -13 0 -4 -8 -11 -17 -14 -15 -6 -15 -4 2 14 10
11 25 19 34 19 13 -1 13 -2 -1 -6z m-78 -23 c0 -5 -10 -10 -22 -9 -22 0 -22 1
-3 9 11 5 21 9 23 9 1 1 2 -3 2 -9z m-67 -17 c-7 -2 -21 -2 -30 0 -10 3 -4 5
12 5 17 0 24 -2 18 -5z"/>
<path d="M2679 3018 c-1 -2 -7 -43 -13 -93 l-11 -90 -45 82 c-24 45 -46 80
-48 78 -2 -1 17 -44 42 -94 25 -50 46 -95 46 -100 0 -5 -12 -12 -27 -14 -28
-4 -28 -4 3 -6 16 0 35 4 42 11 9 9 12 8 12 -5 0 -11 8 -17 24 -17 18 0 25 7
30 31 3 17 6 41 5 53 0 20 -1 21 -9 1 -8 -18 -9 -17 -9 8 -1 15 3 27 8 27 5 0
28 -25 51 -55 49 -63 69 -70 71 -22 2 31 2 31 6 4 3 -16 -1 -35 -8 -43 -9 -11
-8 -14 3 -14 11 0 17 17 22 63 4 34 9 82 12 107 4 33 3 41 -5 30 -9 -12 -11
-10 -11 12 0 18 -7 29 -21 33 -27 9 -32 3 -44 -52 l-10 -46 -48 56 c-41 49
-63 65 -68 55z m188 -140 c-2 -13 -4 -5 -4 17 -1 22 1 32 4 23 2 -10 2 -28 0
-40z m-151 -84 c-4 -9 -9 -15 -11 -12 -3 3 -3 13 1 22 4 9 9 15 11 12 3 -3 3
-13 -1 -22z"/>
<path d="M2093 2959 c-95 -27 -77 -144 20 -138 60 3 67 1 61 -16 -5 -11 -21
-15 -61 -15 -46 0 -54 -3 -51 -17 9 -47 121 -63 162 -24 33 32 33 69 -1 101
-21 21 -35 25 -76 23 -27 -1 -54 0 -58 3 -10 6 0 34 12 34 4 0 5 -8 2 -17 -6
-16 -5 -16 10 -4 9 7 14 18 11 23 -4 7 0 7 12 0 12 -6 28 -6 43 0 24 9 24 9 5
27 -26 25 -52 31 -91 20z m118 -201 c-17 -15 -39 -28 -49 -27 -12 0 -9 3 8 10
38 15 60 40 61 68 l2 26 4 -25 c4 -18 -3 -31 -26 -52z"/>
<path d="M2945 2948 c-65 -51 -66 -149 -2 -188 18 -11 28 -20 22 -20 -27 -1
24 -20 53 -20 65 0 122 54 107 101 -6 18 -91 52 -107 42 -14 -8 -8 -43 7 -49
24 -9 17 -24 -10 -24 -29 0 -65 32 -65 59 0 28 39 71 64 71 12 0 32 -11 44
-25 21 -24 62 -35 62 -15 0 25 -26 61 -55 75 -46 21 -87 19 -120 -7z m161
-166 c-18 -34 -62 -55 -102 -49 -26 4 -25 4 7 6 40 1 84 30 94 62 4 11 9 18
12 16 2 -3 -2 -18 -11 -35z"/>
<path d="M2190 2905 c-24 -14 -24 -14 -3 -15 12 0 25 5 28 11 11 17 2 18 -25
4z"/>
<path d="M2980 2890 c-11 -11 -20 -26 -20 -32 0 -7 8 -3 18 9 9 12 28 27 42
32 24 9 24 10 3 10 -13 1 -32 -8 -43 -19z"/>
<path d="M3130 2871 c0 -5 -8 -12 -17 -14 -14 -4 -12 -5 5 -6 13 -1 22 5 22
14 0 8 -2 15 -5 15 -3 0 -5 -4 -5 -9z"/>
<path d="M2120 2810 l-25 -8 27 -1 c15 -1 30 4 33 9 7 11 0 11 -35 0z"/>
<path d="M2270 2610 c0 -13 7 -20 20 -20 18 0 20 -7 20 -65 0 -61 1 -65 23
-65 18 0 19 -2 7 -11 -12 -8 -12 -10 5 -7 17 3 20 12 23 65 2 51 6 62 22 66
17 4 20 0 20 -31 0 -66 10 -84 39 -79 25 5 25 5 6 -10 -20 -15 -20 -15 0 -11
14 2 21 12 23 35 4 42 32 54 32 13 0 -21 5 -30 16 -30 8 0 12 -4 9 -10 -3 -5
3 -10 14 -10 20 0 21 6 21 84 0 62 -4 87 -15 96 -21 18 -45 5 -45 -25 0 -20
-5 -25 -25 -25 -14 0 -25 5 -25 11 0 5 5 7 10 4 6 -3 10 1 10 10 0 9 -4 13
-10 10 -5 -3 -10 1 -10 9 0 25 -38 19 -56 -9 -10 -15 -25 -24 -38 -24 -20 2
-20 2 2 6 14 3 22 12 22 24 0 17 -7 19 -60 19 -53 0 -60 -2 -60 -20z"/>
<path d="M2620 2558 c-45 -102 -44 -98 -23 -98 10 0 25 6 32 13 11 10 12 9 6
-1 -4 -7 -17 -17 -29 -22 l-21 -9 21 0 c12 -1 27 6 34 14 7 9 15 13 18 11 2
-3 13 -1 23 5 14 7 19 6 19 -2 0 -7 12 -10 30 -7 36 5 39 1 8 -12 l-23 -9 22
0 c12 -1 24 3 28 8 7 12 -66 162 -76 155 -4 -2 -9 3 -13 11 -10 28 -23 15 -56
-57z m54 -23 c3 -8 1 -15 -4 -15 -6 0 -10 7 -10 15 0 8 2 15 4 15 2 0 6 -7 10
-15z"/>
<path d="M2760 2611 c0 -10 9 -21 20 -24 17 -4 20 -14 20 -66 0 -54 2 -61 20
-61 18 0 20 7 20 64 0 60 2 64 25 68 13 3 22 1 19 -3 -3 -5 -12 -9 -20 -9 -11
0 -14 -14 -14 -60 0 -45 -4 -61 -17 -70 -16 -10 -16 -10 2 -8 17 3 20 12 23
66 2 47 7 62 18 62 22 0 28 27 11 45 -10 10 -35 15 -71 15 -48 0 -56 -3 -56
-19z"/>
<path d="M1946 2404 c-10 -25 -7 -31 14 -37 26 -7 25 -21 -5 -101 -27 -73 -26
-86 9 -86 15 0 26 9 34 28 10 24 11 25 5 2 -8 -37 -21 -49 -46 -43 -18 4 -19
3 -7 -6 33 -24 47 -12 75 64 27 75 41 87 73 67 10 -7 9 -22 -3 -76 -17 -71
-14 -86 13 -86 13 0 14 -2 4 -9 -11 -7 -10 -10 3 -15 29 -11 34 -7 45 34 8 30
16 40 31 40 11 0 17 5 14 10 -3 6 -15 10 -25 10 -14 0 -21 -10 -26 -35 -3 -19
-10 -37 -14 -40 -10 -6 9 67 20 79 5 5 20 6 35 2 25 -6 26 -9 20 -50 -6 -36
-4 -46 12 -55 10 -6 14 -11 8 -11 -13 0 17 -20 32 -20 6 0 21 42 34 98 12 53
24 103 27 111 3 8 1 12 -5 8 -6 -4 -16 -34 -23 -67 -7 -33 -15 -58 -18 -56 -2
3 3 37 13 76 10 39 16 73 14 74 -2 2 -15 6 -29 8 -20 2 -26 -3 -34 -32 -5 -19
-11 -37 -12 -38 -7 -10 -64 11 -64 23 0 9 6 12 15 9 11 -5 15 1 15 17 0 19 -2
21 -10 9 -8 -12 -10 -9 -10 13 0 22 -4 27 -25 27 -13 0 -33 -9 -44 -21 -13
-14 -26 -19 -39 -15 -14 5 -24 1 -31 -11 -6 -10 -10 -13 -11 -8 0 23 18 36 42
30 19 -5 27 -2 32 11 9 23 1 30 -74 59 -75 30 -76 30 -84 9z m75 -151 c-12
-20 -14 -14 -5 12 4 9 9 14 11 11 3 -2 0 -13 -6 -23z m256 -125 c-3 -8 -6 -5
-6 6 -1 11 2 17 5 13 3 -3 4 -12 1 -19z m-7 -28 c0 -5 -5 -10 -11 -10 -5 0 -7
5 -4 10 3 6 8 10 11 10 2 0 4 -4 4 -10z"/>
<path d="M3133 2403 c-18 -7 -17 -15 17 -89 27 -59 31 -64 50 -54 11 6 20 18
20 28 0 14 2 15 9 2 6 -8 7 -18 5 -22 -3 -4 0 -8 5 -8 6 0 11 3 11 8 0 17 -45
132 -52 132 -4 0 -5 -8 -2 -17 2 -10 -1 -8 -7 5 -12 21 -30 26 -56 15z m86
-88 c0 -5 -4 -3 -9 5 -5 8 -9 22 -9 30 0 16 17 -16 18 -35z"/>
<path d="M3043 2370 l-22 -9 21 -63 c11 -35 24 -67 28 -71 12 -13 48 2 53 21
3 12 5 11 6 -5 0 -13 6 -23 12 -23 6 0 9 6 6 13 -2 6 -12 39 -22 72 -13 46
-19 56 -25 40 -6 -17 -7 -16 -14 8 -7 29 -10 30 -43 17z"/>
<path d="M2883 2333 c-36 -7 -83 -69 -83 -109 0 -72 41 -114 124 -127 48 -8
90 12 111 53 20 38 20 80 0 80 -8 0 -15 4 -15 9 0 12 -39 21 -46 10 -3 -5 -16
-9 -30 -9 -19 0 -24 -5 -24 -25 0 -20 5 -25 26 -25 22 0 25 -2 14 -15 -31 -37
-100 -5 -100 48 0 42 23 57 81 51 32 -4 55 -1 65 6 8 8 14 8 14 2 0 -6 -5 -13
-10 -15 -6 -3 -5 -4 2 -3 15 3 18 26 3 27 -5 0 -19 9 -30 19 -22 21 -66 31
-102 23z m147 -164 c0 -15 -56 -69 -72 -69 -7 0 1 9 19 19 17 11 34 29 38 40
7 23 15 28 15 10z"/>
<path d="M2366 2201 c-57 -100 -65 -121 -45 -121 5 0 7 -4 4 -10 -3 -6 5 -10
19 -10 14 0 28 5 31 10 3 6 25 10 48 11 33 0 38 2 22 9 -15 7 -16 9 -4 9 9 1
22 -6 29 -14 11 -13 60 -22 60 -11 0 2 -7 23 -15 46 -8 24 -13 45 -11 47 4 4
36 -84 36 -99 0 -4 -12 -8 -27 -9 -28 0 -28 0 -5 -10 28 -11 42 -4 42 19 0 32
-63 202 -76 202 -6 0 -14 7 -18 15 -12 33 -36 10 -90 -84z m77 -21 c4 -15 0
-20 -14 -20 -10 0 -19 5 -19 11 0 5 4 7 10 4 6 -3 7 1 4 9 -3 9 -2 16 4 16 5
0 12 -9 15 -20z m-66 -90 c-14 -11 -28 -20 -32 -20 -10 0 38 39 49 40 5 0 -3
-9 -17 -20z"/>
<path d="M2698 2249 l-3 -52 -51 47 c-63 56 -89 61 -80 15 3 -17 6 -65 6 -106
0 -66 2 -75 20 -80 11 -3 17 -10 14 -15 -4 -5 6 -8 22 -6 28 3 29 5 26 48 -2
24 -8 48 -15 52 -6 4 -8 10 -5 14 4 3 31 -14 60 -40 29 -25 58 -46 65 -46 6 0
14 17 16 38 3 29 4 26 3 -11 -1 -26 2 -47 7 -47 9 0 9 112 0 176 l-8 49 -6
-40 -6 -40 -2 48 c-1 45 -2 47 -30 47 -29 0 -30 -2 -33 -51z m-58 -149 c0 -22
-3 -40 -8 -40 -4 0 -6 18 -4 40 2 22 6 40 8 40 2 0 4 -18 4 -40z"/>
<path d="M2882 2258 c-7 -7 -11 -26 -11 -42 2 -28 2 -28 6 -6 3 14 12 33 20
43 18 19 4 24 -15 5z"/>
<path d="M3194 2235 c-16 -42 24 -60 50 -23 9 12 16 18 16 12 0 -5 -5 -15 -12
-22 -9 -9 -9 -12 0 -12 22 0 26 32 7 46 -25 18 -54 18 -61 -1z"/>
<path d="M3087 2204 c-22 -23 9 -64 35 -47 7 3 8 1 4 -5 -10 -17 9 -15 24 3 6
8 10 20 7 27 -3 8 -6 5 -7 -7 -2 -17 -3 -16 -9 5 -7 24 -39 39 -54 24z"/>
<path d="M1676 1689 c-94 -25 -115 -160 -32 -210 92 -56 211 15 192 116 -14
71 -85 114 -160 94z m101 -64 c13 -15 23 -39 23 -56 0 -39 -48 -89 -85 -89
-30 0 -84 48 -86 77 -2 35 3 58 18 82 13 21 21 23 61 18 34 -4 53 -12 69 -32z"/>
<path d="M1461 1344 c-31 -40 -28 -87 10 -118 17 -15 43 -26 59 -26 44 0 90
44 90 86 0 51 -36 84 -94 84 -36 0 -48 -5 -65 -26z m116 -21 c49 -67 -45 -142
-96 -77 -25 32 -26 52 -5 83 14 19 23 22 53 17 20 -3 42 -13 48 -23z"/>
</g>
</svg>
