<?xml version="1.0" standalone="no"?>
<!DOCTYPE svg PUBLIC "-//W3C//DTD SVG 20010904//EN"
 "http://www.w3.org/TR/2001/REC-SVG-20010904/DTD/svg10.dtd">
<svg version="1.0" xmlns="http://www.w3.org/2000/svg"
 width="1200.000000pt" height="1920.000000pt" viewBox="0 0 1200.000000 1920.000000"
 preserveAspectRatio="xMidYMid meet">

<g transform="translate(0.000000,1920.000000) scale(0.100000,-0.100000)"
fill="#000000" stroke="none">
<path d="M3976 17375 c-84 -30 -138 -92 -162 -185 -37 -147 24 -297 142 -346
19 -8 62 -14 98 -14 56 0 70 4 114 34 l50 33 6 -28 c5 -25 10 -29 41 -29 l35
0 0 145 0 145 -110 0 -110 0 0 -45 0 -45 60 0 c67 0 71 -6 40 -58 -38 -62
-138 -79 -198 -35 -48 36 -63 80 -60 170 2 64 8 88 24 109 37 50 71 69 126 69
47 0 53 -3 88 -42 35 -40 41 -43 89 -43 55 0 58 4 37 53 -41 99 -193 154 -310
112z"/>
<path d="M6642 17333 l3 -48 50 0 50 0 3 48 3 47 -56 0 -56 0 3 -47z"/>
<path d="M6400 17290 c0 -47 -2 -50 -25 -50 -22 0 -25 -4 -25 -40 0 -36 3 -40
24 -40 l24 0 4 -141 c3 -134 4 -142 27 -160 17 -14 39 -19 82 -19 l59 0 0 39
c0 25 -5 39 -12 38 -49 -1 -48 -4 -48 123 l0 120 30 0 c28 0 30 2 30 40 0 38
-2 40 -30 40 -29 0 -30 1 -30 50 l0 50 -55 0 -55 0 0 -50z"/>
<path d="M4493 17239 c-72 -21 -123 -104 -123 -200 0 -100 39 -166 115 -195
56 -21 147 -14 184 14 27 19 71 78 71 93 0 5 -22 9 -48 9 -35 0 -54 -5 -66
-19 -42 -47 -128 -28 -144 31 l-8 33 139 3 139 3 -6 47 c-11 77 -25 109 -61
141 -53 46 -121 60 -192 40z m102 -85 c14 -6 45 -53 45 -69 0 -3 -36 -5 -80
-5 -88 0 -96 7 -59 54 20 26 57 34 94 20z"/>
<path d="M4985 17237 c-17 -8 -37 -22 -45 -32 -14 -17 -15 -16 -20 6 -5 21
-13 24 -53 27 l-47 3 0 -200 0 -201 50 0 50 0 0 125 c0 162 15 195 86 195 13
0 33 -9 44 -20 18 -18 20 -33 20 -160 l0 -140 56 0 56 0 -3 158 c-4 170 -11
193 -64 228 -34 22 -94 27 -130 11z"/>
<path d="M5363 17239 c-72 -21 -123 -104 -123 -200 0 -100 39 -166 115 -195
56 -21 147 -14 184 14 27 19 71 78 71 93 0 5 -22 9 -48 9 -35 0 -54 -5 -66
-19 -42 -47 -128 -28 -144 31 l-8 33 139 3 139 3 -6 47 c-11 77 -25 109 -61
141 -53 46 -121 60 -192 40z m102 -85 c14 -6 45 -53 45 -69 0 -3 -36 -5 -80
-5 -88 0 -96 7 -59 54 20 26 57 34 94 20z"/>
<path d="M5854 17240 c-12 -4 -31 -20 -42 -35 l-21 -26 -3 28 c-3 26 -7 28
-50 31 l-48 3 0 -200 0 -201 50 0 50 0 0 125 c0 120 1 127 25 150 18 19 35 25
65 25 l41 0 -3 53 c-3 56 -18 67 -64 47z"/>
<path d="M6069 17241 c-61 -20 -83 -43 -103 -108 -7 -22 -5 -23 42 -23 42 0
52 4 66 25 12 19 25 25 50 25 50 0 66 -9 66 -36 0 -26 -31 -44 -74 -44 -12 0
-46 -7 -75 -16 -68 -20 -94 -58 -88 -127 6 -67 38 -98 106 -105 41 -4 58 0 94
22 43 25 45 25 50 6 4 -17 14 -20 61 -20 52 0 70 10 46 25 -6 4 -10 64 -10
148 0 157 -6 180 -58 210 -36 21 -133 31 -173 18z m128 -248 c-12 -69 -87
-113 -127 -73 -40 40 -17 76 60 94 30 8 59 14 64 15 5 1 6 -16 3 -36z"/>
<path d="M6956 17235 c-47 -17 -94 -59 -112 -102 -8 -18 -14 -60 -14 -95 0
-119 63 -194 172 -205 132 -13 227 73 228 205 0 99 -49 172 -134 197 -61 18
-89 18 -140 0z m135 -104 c25 -26 29 -37 29 -86 0 -59 -19 -109 -45 -119 -29
-11 -80 -6 -102 9 -42 29 -53 142 -20 186 36 47 96 51 138 10z"/>
<path d="M7483 17243 c-12 -2 -33 -15 -48 -29 -33 -30 -35 -30 -35 2 0 24 -2
25 -47 22 l-48 -3 -3 -197 -2 -198 55 0 55 0 0 135 c0 131 1 137 25 160 30 31
77 33 105 5 18 -18 20 -33 20 -160 l0 -140 50 0 50 0 0 158 c0 138 -2 161 -20
189 -10 17 -28 36 -38 42 -24 13 -89 21 -119 14z"/>
<path d="M7844 17240 c-49 -15 -94 -73 -94 -120 0 -65 36 -95 145 -123 93 -23
112 -40 85 -72 -19 -23 -96 -19 -120 5 -11 11 -20 25 -20 30 0 6 -22 10 -50
10 -47 0 -50 -1 -50 -26 0 -35 55 -89 105 -103 126 -35 240 14 252 108 10 73
-30 108 -154 137 -72 17 -93 28 -93 50 0 40 117 42 127 3 4 -16 14 -19 60 -19
52 0 54 1 48 23 -12 38 -34 66 -65 82 -37 19 -135 27 -176 15z"/>
<path d="M6647 17233 c-4 -3 -7 -93 -7 -200 l0 -193 55 0 55 0 0 200 0 200
-48 0 c-27 0 -52 -3 -55 -7z"/>
<path d="M1939 15385 c-44 -29 -49 -41 -49 -111 0 -36 -4 -54 -12 -54 -26 0
-49 -82 -28 -95 6 -3 10 -39 10 -79 0 -90 23 -130 93 -165 l47 -23 0 -68 0
-69 -47 -6 c-65 -8 -135 -26 -151 -38 -8 -6 -12 -25 -10 -46 3 -33 7 -37 53
-53 38 -13 85 -17 195 -17 110 0 157 4 195 17 46 16 50 20 53 53 2 21 -2 40
-10 46 -20 15 -101 33 -153 33 l-46 0 3 77 c3 75 4 77 32 84 34 9 72 43 92 81
8 16 14 57 14 103 0 43 4 75 10 75 6 0 10 8 10 18 0 27 -23 72 -37 72 -9 0
-13 18 -13 56 0 30 -4 64 -10 74 -33 62 -172 83 -241 35z m65 -15 c-4 -19 -2
-30 5 -30 6 0 11 14 11 31 0 24 4 30 18 27 10 -2 18 -14 20 -31 2 -15 8 -27
14 -27 6 0 8 12 5 29 l-6 30 37 -15 c20 -9 45 -24 55 -36 20 -23 25 -90 5 -70
-17 17 -111 16 -106 0 3 -7 20 -14 39 -16 59 -4 79 -12 79 -29 0 -13 -3 -14
-12 -5 -17 17 -111 16 -106 0 3 -7 20 -14 39 -16 59 -4 79 -12 80 -30 0 -10 3
-12 6 -4 14 35 23 2 23 -85 0 -113 -15 -154 -69 -190 -27 -18 -48 -23 -101
-23 -53 0 -74 5 -101 23 -54 36 -69 77 -69 190 0 58 4 97 10 97 6 0 10 -6 11
-12 0 -7 4 -4 8 7 6 15 20 21 61 25 71 7 80 30 13 30 -27 0 -55 -6 -62 -12
-10 -11 -12 -9 -9 7 3 16 13 21 57 25 71 7 82 30 14 30 -27 0 -54 -5 -61 -12
-9 -9 -12 -6 -12 16 0 42 17 66 63 86 23 10 43 19 44 19 1 1 0 -12 -3 -29z
m56 -600 c0 -93 -1 -100 -20 -100 -19 0 -20 7 -20 100 0 93 1 100 20 100 19 0
20 -7 20 -100z m-85 -77 c-100 -12 -117 -15 -108 -24 18 -18 170 -30 255 -19
96 12 120 26 57 34 -95 13 -101 14 -38 12 36 -2 76 -9 88 -16 20 -10 21 -14 9
-26 -49 -49 -396 -39 -402 11 -2 16 64 34 119 33 28 -1 37 -3 20 -5z m-95 -74
c59 -14 280 -10 340 6 61 16 78 13 28 -4 -95 -34 -341 -32 -419 3 -20 10 -24
13 -9 9 14 -3 41 -10 60 -14z"/>
<path d="M1961 15354 c0 -11 3 -14 6 -6 3 7 2 16 -1 19 -3 4 -6 -2 -5 -13z"/>
<path d="M2111 15354 c0 -11 3 -14 6 -6 3 7 2 16 -1 19 -3 4 -6 -2 -5 -13z"/>
<path d="M1915 15179 c-4 -6 -5 -12 -3 -14 8 -8 108 8 108 16 0 13 -98 11
-105 -2z"/>
<path d="M2060 15181 c0 -8 100 -24 108 -16 2 2 1 8 -3 14 -7 13 -105 15 -105
2z"/>
<path d="M1891 15064 c-1 -79 2 -95 21 -119 59 -75 202 -73 257 3 18 26 21 43
20 119 0 51 -4 80 -8 69 -5 -14 -10 -16 -15 -8 -9 14 -106 16 -106 2 0 -5 15
-10 33 -11 52 -2 82 -14 85 -34 3 -16 1 -18 -9 -7 -15 14 -109 16 -109 2 0 -5
15 -10 33 -11 49 -2 82 -13 85 -31 4 -22 -47 -76 -79 -83 -24 -6 -26 -4 -22
19 3 15 1 26 -6 26 -6 0 -11 -11 -11 -25 0 -18 -5 -25 -20 -25 -15 0 -20 7
-20 25 0 14 -5 25 -11 25 -7 0 -9 -10 -7 -25 6 -29 -2 -31 -47 -10 -35 17 -61
55 -52 78 5 14 49 27 93 27 13 0 24 5 24 10 0 14 -94 12 -109 -2 -10 -11 -12
-9 -9 7 3 20 33 32 86 34 17 1 32 6 32 11 0 14 -97 12 -106 -2 -5 -8 -10 -6
-15 8 -4 11 -8 -20 -8 -72z m159 -129 c31 1 65 7 78 14 12 6 22 9 22 7 0 -15
-65 -36 -110 -36 -28 0 -64 7 -80 15 -40 21 -38 27 3 11 17 -7 57 -12 87 -11z"/>
<path d="M1962 14990 c0 -14 2 -19 5 -12 2 6 2 18 0 25 -3 6 -5 1 -5 -13z"/>
<path d="M2112 14990 c0 -14 2 -19 5 -12 2 6 2 18 0 25 -3 6 -5 1 -5 -13z"/>
<path d="M3168 15334 c-58 -31 -77 -125 -35 -168 14 -14 51 -30 97 -41 110
-26 130 -38 130 -80 0 -47 -29 -65 -103 -65 -48 0 -62 4 -82 25 -14 13 -25 33
-25 45 0 15 -6 20 -25 20 -21 0 -25 -5 -25 -29 0 -89 139 -141 247 -92 50 23
63 45 63 106 0 66 -24 86 -138 115 -99 24 -119 40 -107 87 4 16 18 30 41 39
59 25 124 1 145 -53 11 -30 49 -31 49 -3 0 36 -28 77 -64 94 -42 20 -132 20
-168 0z"/>
<path d="M4770 15339 c-77 -31 -128 -134 -116 -233 20 -146 144 -216 272 -151
27 14 50 25 52 25 1 0 2 -9 2 -20 0 -13 7 -20 20 -20 20 0 21 5 18 108 l-3
107 -85 0 c-81 0 -85 -1 -88 -22 -3 -22 0 -23 62 -23 73 0 77 -4 52 -65 -17
-41 -60 -65 -116 -65 -85 0 -130 55 -130 161 0 99 48 159 127 159 54 0 95 -20
111 -54 8 -18 19 -26 37 -26 30 0 31 14 5 57 -37 61 -145 91 -220 62z"/>
<path d="M7650 15298 c-72 -126 -80 -260 -21 -380 55 -111 106 -138 58 -31
-49 110 -58 199 -32 311 8 34 24 80 35 102 24 47 24 50 5 50 -8 0 -28 -24 -45
-52z"/>
<path d="M10598 15263 c30 -75 35 -99 35 -168 0 -83 -20 -170 -54 -237 -29
-58 3 -51 41 8 46 74 65 139 65 230 0 77 -3 87 -44 168 -29 58 -49 86 -61 86
-15 0 -13 -11 18 -87z"/>
<path d="M3480 15315 c0 -20 5 -25 25 -25 20 0 25 5 25 25 0 20 -5 25 -25 25
-20 0 -25 -5 -25 -25z"/>
<path d="M3600 15140 l0 -200 25 0 25 0 0 200 0 200 -25 0 -25 0 0 -200z"/>
<path d="M6680 15315 c0 -20 5 -25 25 -25 20 0 25 5 25 25 0 20 -5 25 -25 25
-20 0 -25 -5 -25 -25z"/>
<path d="M7888 15303 c-10 -21 -24 -30 -55 -37 -31 -7 -43 -15 -43 -28 0 -15
8 -18 50 -18 l50 0 0 -140 0 -140 25 0 25 0 0 195 c0 187 -1 195 -19 195 -12
0 -25 -11 -33 -27z"/>
<path d="M8121 15304 c-114 -96 -14 -277 122 -220 44 18 47 10 21 -54 -18 -44
-39 -60 -77 -60 -25 0 -57 27 -57 48 0 7 -11 12 -25 12 -16 0 -25 -6 -25 -16
0 -65 99 -106 169 -70 55 29 83 101 83 211 -1 118 -44 175 -133 175 -36 0 -55
-6 -78 -26z m130 -33 c19 -15 24 -29 24 -64 0 -59 -24 -87 -76 -87 -41 0 -66
18 -75 56 -21 83 64 146 127 95z"/>
<path d="M8424 15296 c-26 -26 -34 -42 -34 -70 0 -29 4 -36 20 -36 15 0 22 9
27 30 7 35 46 70 78 70 38 0 75 -37 75 -75 0 -36 -32 -70 -99 -105 -54 -28
-99 -79 -109 -127 l-10 -43 134 0 134 0 0 25 0 25 -106 0 -106 0 14 23 c8 12
46 41 84 64 93 56 114 82 114 140 0 38 -5 50 -34 79 -31 31 -40 34 -91 34 -51
0 -60 -3 -91 -34z"/>
<path d="M8739 15301 c-39 -40 -43 -103 -8 -133 21 -17 21 -18 -6 -40 -31 -27
-43 -90 -23 -128 7 -13 29 -35 48 -48 29 -20 44 -23 88 -20 44 4 59 11 85 37
28 27 32 38 32 82 0 42 -4 55 -26 73 l-25 22 20 27 c31 41 25 95 -13 129 -26
24 -40 28 -87 28 -48 0 -59 -4 -85 -29z m129 -27 c45 -31 17 -104 -41 -104
-38 0 -67 25 -67 58 0 54 60 80 108 46z m22 -181 c16 -20 20 -36 16 -58 -9
-43 -30 -60 -76 -60 -49 0 -83 30 -83 74 0 46 28 71 79 71 34 0 47 -5 64 -27z"/>
<path d="M9446 15307 c-6 -25 -43 -47 -76 -47 -13 0 -20 -7 -20 -20 0 -17 7
-20 45 -20 l45 0 0 -140 0 -140 30 0 30 0 0 195 0 195 -24 0 c-17 0 -26 -7
-30 -23z"/>
<path d="M9684 15311 c-51 -31 -70 -121 -39 -180 30 -58 129 -77 178 -34 20
18 20 18 13 -22 -4 -22 -14 -50 -22 -63 -32 -50 -101 -54 -122 -7 -8 17 -20
25 -36 25 -23 0 -24 -2 -15 -29 15 -42 41 -62 90 -68 93 -13 150 57 157 193 5
97 -8 144 -49 179 -38 31 -109 34 -155 6z m109 -32 c31 -17 37 -28 37 -74 0
-58 -22 -85 -71 -85 -52 0 -79 27 -79 80 0 69 57 108 113 79z"/>
<path d="M10058 15258 c-117 -160 -128 -176 -128 -197 0 -20 5 -21 85 -21 l85
0 0 -50 c0 -46 2 -50 24 -50 23 0 25 5 28 48 3 43 5 47 31 50 19 2 27 9 27 23
0 14 -7 19 -30 19 l-30 0 0 125 c0 117 -1 125 -20 125 -12 0 -38 -25 -72 -72z
m42 -93 l0 -85 -61 0 -60 0 58 85 c32 46 59 85 61 85 1 0 2 -38 2 -85z"/>
<path d="M10290 15323 c0 -5 -7 -51 -15 -103 -8 -52 -15 -98 -15 -102 0 -15
42 -8 67 12 58 45 133 7 133 -68 0 -91 -119 -125 -155 -44 -6 13 -19 22 -32
22 -32 0 -30 -32 5 -71 54 -60 175 -48 216 22 20 34 23 107 6 139 -26 49 -120
77 -171 50 -18 -10 -19 -8 -13 32 9 70 6 68 94 68 79 0 80 0 80 25 l0 25 -100
0 c-55 0 -100 -3 -100 -7z"/>
<path d="M4360 15270 c0 -33 -3 -40 -20 -40 -13 0 -20 -7 -20 -20 0 -13 7 -20
20 -20 19 0 20 -7 20 -106 0 -128 7 -144 60 -144 33 0 40 3 40 19 0 13 -8 21
-22 23 -22 3 -23 8 -26 106 l-3 102 26 0 c18 0 25 5 25 20 0 15 -7 20 -25 20
-22 0 -25 4 -25 40 0 36 -2 40 -25 40 -22 0 -25 -4 -25 -40z"/>
<path d="M6540 15270 c0 -33 -3 -40 -20 -40 -13 0 -20 -7 -20 -20 0 -13 7 -20
20 -20 19 0 20 -7 20 -106 0 -128 7 -144 60 -144 33 0 40 3 40 19 0 13 -8 21
-22 23 -22 3 -23 8 -26 106 l-3 102 26 0 c18 0 25 5 25 20 0 15 -7 20 -25 20
-22 0 -25 4 -25 40 0 36 -2 40 -25 40 -22 0 -25 -4 -25 -40z"/>
<path d="M3795 15230 c-55 -22 -91 -103 -80 -176 13 -90 90 -141 175 -115 39
11 80 51 80 77 0 24 -40 15 -64 -13 -45 -52 -136 -24 -136 43 0 24 1 24 106
24 l107 0 -7 42 c-9 54 -35 99 -67 115 -27 14 -84 16 -114 3z m99 -52 c13 -13
27 -33 31 -45 6 -23 5 -23 -74 -23 -71 0 -81 2 -81 18 0 22 18 46 45 60 30 17
51 14 79 -10z"/>
<path d="M4116 15219 c-21 -17 -26 -18 -26 -5 0 10 -9 16 -25 16 l-25 0 0
-145 0 -145 25 0 c25 0 25 0 25 95 0 52 5 105 11 118 23 51 102 58 120 10 5
-13 9 -69 9 -124 l0 -99 26 0 26 0 -4 126 c-3 124 -3 126 -31 150 -36 31 -94
32 -131 3z"/>
<path d="M5165 15230 c-55 -22 -91 -103 -80 -176 13 -90 90 -141 175 -115 39
11 80 51 80 77 0 24 -40 15 -64 -13 -45 -52 -136 -24 -136 43 0 24 1 24 106
24 l107 0 -7 42 c-9 54 -35 99 -67 115 -27 14 -84 16 -114 3z m99 -52 c13 -13
27 -33 31 -45 6 -23 5 -23 -74 -23 -71 0 -81 2 -81 18 0 22 18 46 45 60 30 17
51 14 79 -10z"/>
<path d="M5486 15219 c-21 -17 -26 -18 -26 -5 0 10 -9 16 -25 16 l-25 0 0
-145 0 -145 25 0 c25 0 25 0 25 95 0 52 5 105 11 118 23 51 102 58 120 10 5
-13 9 -69 9 -124 l0 -99 26 0 26 0 -4 126 c-3 124 -3 126 -31 150 -36 31 -94
32 -131 3z"/>
<path d="M5773 15220 c-49 -30 -66 -71 -61 -153 3 -63 7 -72 35 -98 63 -56
156 -46 201 21 l24 35 -23 3 c-14 3 -29 -4 -38 -17 -48 -62 -151 -36 -151 38
0 20 6 21 105 21 102 0 105 1 105 23 0 117 -104 184 -197 127z m100 -31 c23
-10 47 -46 47 -69 0 -6 -36 -10 -80 -10 -72 0 -80 2 -80 19 0 21 53 71 75 71
8 0 25 -5 38 -11z"/>
<path d="M6111 15214 c-30 -25 -31 -25 -31 -5 0 14 -6 21 -20 21 -19 0 -20 -7
-20 -145 l0 -145 25 0 25 0 0 104 c0 101 1 105 26 125 15 12 35 21 45 21 14 0
19 7 19 25 0 33 -29 33 -69 -1z"/>
<path d="M6265 15228 c-46 -26 -63 -88 -25 -88 11 0 20 5 20 10 0 23 41 50 75
50 25 0 39 -6 50 -24 23 -35 10 -54 -43 -61 -79 -10 -93 -15 -118 -40 -34 -34
-32 -79 5 -116 35 -35 70 -37 126 -9 25 13 41 16 43 10 6 -16 49 -31 67 -24
19 8 20 34 1 34 -21 0 -26 23 -26 131 l0 99 -32 20 c-37 22 -111 26 -143 8z
m125 -183 c0 -29 -6 -39 -32 -55 -40 -24 -66 -25 -90 -3 -36 32 -17 69 45 83
68 16 77 13 77 -25z"/>
<path d="M6874 15230 c-36 -14 -72 -67 -80 -116 -8 -56 17 -127 57 -156 62
-46 154 -26 191 43 25 46 24 134 -2 176 -33 54 -106 78 -166 53z m107 -59 c25
-25 29 -37 29 -84 0 -73 -26 -107 -80 -107 -65 0 -102 69 -80 149 19 73 80 92
131 42z"/>
<path d="M7196 15219 c-21 -17 -26 -18 -26 -5 0 10 -9 16 -25 16 l-25 0 0
-145 0 -145 25 0 c25 0 25 0 25 95 0 52 5 105 11 118 23 51 102 58 120 10 5
-13 9 -69 9 -124 l0 -99 26 0 26 0 -4 126 c-3 124 -3 126 -31 150 -36 31 -94
32 -131 3z"/>
<path d="M3480 15085 l0 -145 25 0 25 0 0 145 0 145 -25 0 -25 0 0 -145z"/>
<path d="M6680 15085 l0 -145 25 0 25 0 0 145 0 145 -25 0 -25 0 0 -145z"/>
<path d="M8984 15105 c-12 -31 7 -35 157 -35 l149 0 0 25 0 25 -150 0 c-122 0
-152 -3 -156 -15z"/>
<path d="M7005 13752 c-47 -72 -67 -148 -63 -243 3 -77 7 -94 42 -163 36 -71
58 -97 72 -84 2 3 -10 38 -27 79 -54 125 -51 276 7 391 28 56 29 58 9 58 -8 0
-26 -17 -40 -38z"/>
<path d="M9913 13779 c3 -8 18 -43 34 -79 25 -58 28 -76 28 -175 -1 -101 -3
-116 -33 -184 -17 -41 -30 -77 -27 -79 13 -13 38 15 72 84 37 75 38 82 38 180
0 99 -1 104 -40 180 -25 50 -47 80 -59 82 -13 3 -17 0 -13 -9z"/>
<path d="M3110 13580 l0 -200 105 0 c110 0 143 9 178 48 40 44 26 141 -23 157
-20 6 -20 7 5 37 28 33 32 66 11 107 -22 41 -55 51 -171 51 l-105 0 0 -200z
m217 137 c9 -8 16 -27 16 -42 0 -45 -25 -59 -108 -63 l-75 -4 0 59 c0 33 3 63
8 67 13 14 142 0 159 -17z m-2 -161 c31 -13 35 -19 35 -52 0 -61 -20 -74 -117
-74 l-83 0 0 70 0 70 65 0 c36 0 81 -7 100 -14z"/>
<path d="M3780 13580 l0 -200 25 0 c17 0 25 6 25 17 0 15 1 15 18 0 28 -26 74
-31 116 -13 92 38 104 227 17 279 -39 23 -92 22 -125 -4 l-26 -20 0 70 c0 69
-1 71 -25 71 l-25 0 0 -200z m164 49 c34 -16 50 -59 44 -120 -6 -60 -33 -92
-77 -92 -59 0 -89 54 -76 135 8 43 43 88 69 88 8 0 26 -5 40 -11z"/>
<path d="M4540 13581 l0 -201 106 0 c153 0 204 31 204 125 0 36 -35 85 -61 85
-6 0 0 12 15 26 35 35 36 92 2 131 -24 27 -27 28 -145 31 l-121 4 0 -201z
m220 134 c20 -18 26 -51 12 -71 -15 -23 -52 -34 -111 -34 l-61 0 0 66 0 67 70
-5 c48 -4 77 -11 90 -23z m21 -174 c24 -30 24 -52 -2 -85 -19 -24 -26 -26
-100 -26 l-79 0 0 71 0 71 81 -4 c70 -3 83 -6 100 -27z"/>
<path d="M7240 13756 c0 -21 -48 -56 -76 -56 -17 0 -24 -6 -24 -20 0 -17 7
-20 45 -20 l45 0 0 -140 0 -140 25 0 25 0 0 195 c0 188 -1 195 -20 195 -11 0
-20 -6 -20 -14z"/>
<path d="M7474 13751 c-51 -31 -70 -121 -39 -180 30 -58 129 -77 178 -34 20
18 20 18 13 -22 -4 -22 -14 -50 -22 -63 -32 -50 -101 -54 -122 -7 -8 17 -20
25 -36 25 -23 0 -24 -2 -15 -29 15 -42 41 -62 90 -68 93 -13 150 57 157 193 5
97 -8 144 -49 179 -38 31 -109 34 -155 6z m109 -32 c31 -17 37 -28 37 -74 0
-58 -22 -85 -71 -85 -52 0 -79 27 -79 80 0 69 57 108 113 79z"/>
<path d="M7808 13648 c-49 -68 -88 -132 -88 -145 0 -22 3 -23 85 -23 l85 0 0
-50 c0 -47 2 -50 25 -50 23 0 25 3 25 50 0 49 1 50 30 50 23 0 30 4 30 20 0
16 -7 20 -30 20 l-30 0 0 125 c0 123 0 125 -22 125 -18 -1 -44 -29 -110 -122z
m79 -125 c-3 -2 -30 -3 -61 -1 l-56 3 57 83 58 84 3 -82 c2 -46 1 -84 -1 -87z"/>
<path d="M8114 13751 c-41 -25 -66 -81 -72 -163 -9 -126 34 -204 117 -215 50
-7 95 11 120 46 62 87 17 197 -84 209 -38 4 -52 1 -77 -18 l-31 -23 7 39 c4
22 14 49 22 62 32 50 105 54 126 7 7 -16 19 -25 35 -25 33 0 29 26 -11 66 -28
28 -41 34 -77 34 -25 0 -57 -8 -75 -19z m118 -188 c64 -58 -4 -175 -83 -143
-16 7 -34 21 -39 31 -13 24 -13 75 1 100 21 40 83 46 121 12z"/>
<path d="M8800 13760 c0 -21 -49 -60 -75 -60 -18 0 -25 -5 -25 -20 0 -17 7
-20 45 -20 l45 0 0 -140 0 -140 25 0 25 0 0 195 c0 188 -1 195 -20 195 -11 0
-20 -5 -20 -10z"/>
<path d="M9021 13744 c-39 -33 -56 -90 -41 -143 20 -76 103 -111 172 -73 l38
20 -6 -26 c-21 -89 -59 -125 -112 -106 -15 5 -31 19 -37 32 -10 22 -55 32 -55
12 0 -52 65 -96 130 -87 81 11 125 87 125 217 0 126 -42 180 -139 180 -33 0
-52 -6 -75 -26z m134 -39 c27 -26 33 -72 14 -108 -16 -30 -28 -37 -70 -37 -48
0 -72 27 -72 82 0 76 77 115 128 63z"/>
<path d="M9346 13740 c-44 -39 -59 -86 -59 -180 -1 -131 50 -195 146 -187 68
6 108 46 114 114 11 110 -83 177 -179 127 l-31 -16 6 37 c8 49 31 83 63 91 32
8 74 -11 81 -36 3 -13 14 -20 29 -20 34 0 31 34 -5 71 -25 24 -37 29 -80 29
-42 0 -56 -5 -85 -30z m137 -182 c20 -23 22 -85 4 -109 -34 -45 -92 -46 -127
-2 -65 83 54 192 123 111z"/>
<path d="M9678 13648 c-49 -68 -88 -132 -88 -145 0 -22 3 -23 85 -23 l85 0 0
-50 c0 -47 2 -50 25 -50 23 0 25 3 25 50 0 49 1 50 30 50 23 0 30 4 30 20 0
16 -7 20 -30 20 l-30 0 0 125 c0 123 0 125 -22 125 -18 -1 -44 -29 -110 -122z
m79 -125 c-3 -2 -30 -3 -61 -1 l-56 3 57 83 58 84 3 -82 c2 -46 1 -84 -1 -87z"/>
<path d="M1950 13741 c-311 -102 -344 -525 -52 -668 51 -25 68 -28 157 -28 91
0 105 3 159 30 66 34 133 103 168 173 19 40 23 62 23 147 0 89 -3 106 -28 157
-34 69 -88 124 -159 163 -46 26 -65 30 -148 32 -52 1 -106 -1 -120 -6z m70
-188 l0 -138 -101 -82 c-55 -46 -107 -83 -114 -83 -20 0 -45 86 -45 155 0 114
69 214 181 265 80 36 79 38 79 -117z m155 113 c103 -48 175 -160 175 -272 0
-55 -29 -144 -47 -144 -8 0 -59 37 -114 82 l-99 82 0 138 c0 158 -2 155 85
114z m-155 -455 c0 -54 -3 -100 -6 -104 -18 -18 -170 60 -162 83 6 16 151 129
160 124 4 -3 8 -49 8 -103z m199 12 l44 -39 -36 -28 c-37 -28 -120 -59 -131
-49 -8 8 -8 198 0 206 7 7 48 -23 123 -90z"/>
<path d="M3534 13671 c-47 -20 -73 -91 -34 -91 11 0 20 5 20 10 0 6 9 19 20
30 40 40 125 16 118 -34 -2 -16 -13 -23 -48 -29 -98 -18 -119 -27 -136 -58
-45 -87 51 -160 146 -110 33 17 42 18 46 7 6 -16 40 -27 60 -19 19 7 18 29 -1
37 -12 4 -15 26 -15 105 0 90 -2 103 -23 127 -19 22 -34 28 -78 30 -30 2 -64
0 -75 -5z m126 -170 c0 -66 -87 -114 -129 -72 -12 12 -21 25 -21 29 0 24 32
45 86 57 32 7 60 13 62 14 1 1 2 -12 2 -28z"/>
<path d="M4974 13670 c-36 -14 -72 -67 -80 -116 -8 -56 17 -127 57 -156 62
-46 154 -26 191 43 25 46 24 134 -2 176 -33 54 -106 78 -166 53z m107 -59 c25
-25 29 -37 29 -84 0 -73 -26 -107 -80 -107 -65 0 -102 69 -80 149 19 73 80 92
131 42z"/>
<path d="M5273 13661 c-43 -27 -66 -74 -65 -137 1 -112 80 -176 176 -144 97
32 125 190 46 265 -39 38 -111 45 -157 16z m129 -53 c33 -44 29 -128 -8 -169
-27 -30 -88 -25 -113 7 -24 30 -29 106 -10 148 23 49 98 57 131 14z"/>
<path d="M5606 13659 c-21 -17 -26 -18 -26 -5 0 10 -9 16 -25 16 l-25 0 0
-145 0 -145 24 0 c23 0 24 2 28 106 3 102 5 107 31 130 34 29 51 30 77 4 18
-18 20 -33 20 -130 l0 -110 25 0 25 0 0 109 c0 106 1 110 26 130 33 26 49 26
74 1 18 -18 20 -33 20 -130 l0 -110 26 0 26 0 -4 126 c-3 124 -3 126 -31 150
-35 30 -85 31 -121 3 l-26 -20 -26 20 c-15 12 -41 21 -59 21 -18 0 -44 -9 -59
-21z"/>
<path d="M6053 13660 c-49 -30 -66 -71 -61 -153 3 -63 7 -72 35 -98 63 -56
156 -46 201 21 l24 35 -23 3 c-14 3 -29 -4 -38 -17 -48 -62 -151 -36 -151 38
0 20 6 21 105 21 102 0 105 1 105 23 0 117 -104 184 -197 127z m100 -31 c23
-10 47 -46 47 -69 0 -6 -36 -10 -80 -10 -72 0 -80 2 -80 19 0 21 53 71 75 71
8 0 25 -5 38 -11z"/>
<path d="M6391 13654 c-30 -25 -31 -25 -31 -5 0 14 -6 21 -20 21 -19 0 -20 -7
-20 -145 l0 -145 25 0 25 0 0 104 c0 101 1 105 26 125 15 12 35 21 45 21 14 0
19 7 19 25 0 33 -29 33 -69 -1z"/>
<path d="M6550 13673 c-33 -13 -60 -47 -60 -75 0 -49 17 -67 78 -83 92 -26
104 -33 100 -58 -7 -50 -111 -58 -133 -9 -13 29 -55 30 -55 2 0 -50 81 -90
154 -76 42 8 86 57 86 95 0 44 -28 63 -138 91 -39 10 -43 14 -40 38 5 48 103
57 115 12 3 -13 14 -20 29 -20 31 0 31 21 1 56 -18 21 -34 27 -73 30 -27 2
-56 1 -64 -3z"/>
<path d="M4081 13643 c6 -16 31 -83 56 -151 l44 -123 -19 -32 c-13 -22 -25
-31 -40 -30 -17 2 -22 -3 -22 -22 0 -22 4 -25 35 -25 29 0 39 6 55 33 21 34
59 126 115 283 l33 94 -27 0 c-25 0 -29 -6 -65 -116 -21 -63 -39 -114 -41
-112 -2 2 -20 54 -40 116 -35 109 -37 112 -65 112 -28 0 -29 -1 -19 -27z"/>
<path d="M8330 13535 l0 -25 156 0 155 0 -3 23 c-3 22 -6 22 -155 25 l-153 3
0 -26z"/>
<path d="M1510 12045 c0 -123 -4 -195 -10 -195 -6 0 -10 -40 -10 -100 0 -60 4
-100 10 -100 6 0 10 -9 10 -20 0 -20 7 -20 485 -20 473 0 485 0 485 19 0 11 5
23 10 26 6 3 10 46 10 95 0 49 -4 92 -10 95 -6 4 -10 82 -10 201 l0 194 -485
0 -485 0 0 -195z m60 160 c0 -8 -9 -15 -20 -15 -11 0 -20 7 -20 15 0 8 9 15
20 15 11 0 20 -7 20 -15z m886 4 c10 -17 -13 -36 -27 -22 -12 12 -4 33 11 33
5 0 12 -5 16 -11z m-41 -45 l25 -16 0 -184 0 -184 -440 0 -440 0 0 177 c0 168
1 178 22 200 l21 23 394 0 c346 0 397 -2 418 -16z m-399 -445 c10 -17 -13 -36
-27 -22 -12 12 -4 33 11 33 5 0 12 -5 16 -11z m-136 -54 c0 -8 -7 -15 -15 -15
-8 0 -15 7 -15 15 0 8 7 15 15 15 8 0 15 -7 15 -15z m280 0 c0 -8 -7 -15 -15
-15 -8 0 -15 7 -15 15 0 8 7 15 15 15 8 0 15 -7 15 -15z m-592 -18 c2 -12 -3
-17 -17 -17 -12 0 -21 6 -21 13 0 31 32 34 38 4z m215 11 c7 -21 -4 -38 -23
-38 -10 0 -20 6 -23 13 -7 20 4 37 23 37 10 0 20 -6 23 -12z m477 -8 c0 -24
-26 -38 -42 -22 -16 16 -2 42 22 42 13 0 20 -7 20 -20z m195 -10 c0 -22 -29
-18 -33 3 -3 14 1 18 15 15 10 -2 18 -10 18 -18z"/>
<path d="M1721 11994 c-12 -15 -21 -37 -21 -49 0 -12 9 -34 21 -49 l20 -26
259 0 259 0 20 26 c12 15 21 37 21 49 0 12 -9 34 -21 49 l-20 26 -259 0 -259
0 -20 -26z m99 -4 c11 -11 20 -29 20 -40 0 -26 -34 -60 -62 -60 -50 0 -76 63
-41 102 21 24 58 23 83 -2z m290 -15 l0 -35 -110 0 -110 0 0 35 0 35 110 0
110 0 0 -35z m142 18 c22 -20 23 -61 1 -85 -43 -48 -122 8 -92 65 22 41 59 49
91 20z"/>
<path d="M1590 11974 c0 -33 2 -35 28 -32 22 2 28 8 30 36 3 30 1 32 -27 32
-29 0 -31 -3 -31 -36z m43 6 c4 -15 0 -20 -14 -20 -21 0 -22 1 -13 24 8 22 21
20 27 -4z"/>
<path d="M3205 12216 c-87 -39 -133 -176 -96 -287 13 -41 63 -93 104 -108 61
-23 168 0 193 41 6 9 10 5 14 -12 3 -14 14 -26 23 -28 15 -3 17 8 17 107 l0
111 -85 0 c-84 0 -85 0 -85 -25 0 -24 3 -25 60 -25 54 0 60 -2 60 -20 0 -29
-26 -76 -52 -94 -13 -10 -44 -16 -74 -16 -42 0 -59 5 -83 26 -71 59 -66 221 9
274 58 41 167 18 185 -40 9 -27 55 -28 55 -1 0 27 -48 81 -87 97 -41 18 -119
17 -158 0z"/>
<path d="M4911 12177 c-43 -76 -65 -167 -57 -245 8 -89 76 -232 110 -232 9 0
3 25 -19 81 -18 44 -36 104 -39 133 -9 72 9 179 44 254 27 57 27 62 10 62 -12
0 -29 -19 -49 -53z"/>
<path d="M7858 12143 c30 -75 35 -99 35 -168 0 -83 -20 -170 -54 -237 -29 -58
3 -51 41 8 46 74 65 139 65 230 0 77 -3 87 -44 168 -29 58 -49 86 -61 86 -15
0 -13 -11 18 -87z"/>
<path d="M4310 12215 c0 -3 29 -47 64 -98 l64 -92 -69 -95 c-37 -52 -68 -98
-69 -102 0 -5 13 -8 30 -8 26 0 36 10 82 80 29 44 55 80 58 80 3 0 28 -36 55
-80 46 -72 53 -79 83 -80 17 0 32 2 32 4 0 2 -30 47 -66 100 -36 54 -63 103
-60 111 3 8 30 50 61 94 30 43 55 81 55 85 0 3 -13 6 -29 6 -24 0 -35 -11 -79
-77 l-50 -76 -49 76 c-43 69 -51 76 -80 76 -18 1 -33 -1 -33 -4z"/>
<path d="M5148 12183 c-10 -21 -24 -30 -55 -37 -31 -7 -43 -15 -43 -28 0 -15
8 -18 50 -18 l50 0 0 -140 0 -140 25 0 25 0 0 195 c0 187 -1 195 -19 195 -12
0 -25 -11 -33 -27z"/>
<path d="M5381 12184 c-39 -33 -56 -90 -41 -143 20 -76 103 -111 172 -73 l38
20 -6 -26 c-21 -89 -59 -125 -112 -106 -15 5 -31 19 -37 32 -10 22 -55 32 -55
12 0 -52 65 -96 130 -87 81 11 125 87 125 217 0 126 -42 180 -139 180 -33 0
-52 -6 -75 -26z m134 -39 c27 -26 33 -72 14 -108 -16 -30 -28 -37 -70 -37 -48
0 -72 27 -72 82 0 76 77 115 128 63z"/>
<path d="M5718 12195 c-46 -25 -73 -97 -73 -195 0 -98 17 -139 68 -170 112
-69 239 54 181 175 -29 61 -111 82 -172 45 l-34 -21 7 33 c17 79 58 117 110
104 14 -4 31 -18 37 -31 7 -16 19 -25 35 -25 26 0 28 8 11 45 -23 51 -111 71
-170 40z m95 -176 c63 -28 60 -125 -4 -160 -29 -15 -83 5 -98 37 -23 52 -11
98 34 122 26 14 38 15 68 1z"/>
<path d="M5995 12198 c-6 -21 -25 -154 -25 -182 0 -32 22 -34 57 -6 37 29 79
26 114 -9 31 -31 35 -53 19 -95 -24 -63 -115 -73 -148 -15 -11 18 -25 29 -39
29 -27 0 -28 -10 -8 -50 43 -84 194 -78 237 10 52 103 -15 199 -132 188 l-52
-5 6 36 c3 20 6 42 6 49 0 9 24 12 86 12 83 0 85 1 82 23 -3 21 -8 22 -101 25
-72 2 -98 -1 -102 -10z"/>
<path d="M6706 12187 c-6 -25 -43 -47 -76 -47 -13 0 -20 -7 -20 -20 0 -17 7
-20 45 -20 l45 0 0 -140 0 -140 30 0 30 0 0 195 0 195 -24 0 c-17 0 -26 -7
-30 -23z"/>
<path d="M6944 12191 c-51 -31 -70 -121 -39 -180 30 -58 129 -77 178 -34 20
18 20 18 13 -22 -4 -22 -14 -50 -22 -63 -32 -50 -101 -54 -122 -7 -8 17 -20
25 -36 25 -23 0 -24 -2 -15 -29 15 -42 41 -62 90 -68 93 -13 150 57 157 193 5
97 -8 144 -49 179 -38 31 -109 34 -155 6z m109 -32 c31 -17 37 -28 37 -74 0
-58 -22 -85 -71 -85 -52 0 -79 27 -79 80 0 69 57 108 113 79z"/>
<path d="M7251 12184 c-44 -40 -51 -91 -19 -128 l24 -28 -28 -28 c-50 -51 -31
-142 36 -174 108 -51 228 31 197 136 -7 20 -21 44 -32 52 l-21 14 21 21 c30
30 28 91 -2 127 -20 23 -34 28 -84 32 -55 4 -63 2 -92 -24z m127 -30 c26 -18
29 -60 5 -86 -40 -44 -132 -5 -118 50 12 50 67 68 113 36z m14 -171 c18 -17
25 -77 10 -100 -4 -6 -20 -17 -36 -23 -82 -31 -150 64 -90 125 21 20 93 19
116 -2z"/>
<path d="M7576 12189 c-39 -31 -57 -72 -63 -148 -7 -82 15 -166 51 -200 37
-35 112 -40 149 -11 49 39 61 75 62 180 0 82 -3 101 -24 136 -13 23 -34 47
-48 53 -39 18 -97 13 -127 -10z m103 -29 c30 -16 46 -70 46 -156 0 -60 -5 -87
-18 -108 -67 -102 -158 -8 -142 148 7 62 26 111 47 119 21 9 48 8 67 -3z"/>
<path d="M3594 12101 c-62 -38 -86 -160 -44 -229 53 -87 200 -74 233 21 10 27
-30 21 -56 -9 -33 -38 -91 -38 -123 0 -13 15 -24 36 -24 47 0 18 8 19 105 19
l105 0 0 30 c0 110 -107 176 -196 121z m129 -52 c9 -12 17 -30 17 -40 0 -17
-8 -19 -80 -19 -92 0 -101 11 -50 62 26 25 36 29 63 24 18 -3 40 -16 50 -27z"/>
<path d="M3926 12099 c-21 -17 -26 -18 -26 -5 0 10 -9 16 -25 16 l-25 0 0
-145 0 -145 25 0 25 0 0 101 c0 98 1 101 29 130 34 34 63 37 91 9 18 -18 20
-33 20 -130 l0 -110 25 0 25 0 0 121 c0 120 0 121 -29 150 -37 36 -94 40 -135
8z"/>
<path d="M6244 11985 c-12 -31 7 -35 157 -35 l149 0 0 25 0 25 -150 0 c-122 0
-152 -3 -156 -15z"/>
<path d="M1860 10810 c-19 -19 -20 -33 -20 -413 0 -369 1 -395 18 -410 16 -15
48 -17 234 -17 195 0 216 2 231 18 15 17 17 60 17 410 0 379 -1 393 -20 412
-19 19 -33 20 -230 20 -197 0 -211 -1 -230 -20z m325 -30 c-3 -5 -46 -10 -95
-10 -49 0 -92 5 -95 10 -4 6 30 10 95 10 65 0 99 -4 95 -10z m115 -355 l0
-315 -210 0 -210 0 0 315 0 315 210 0 210 0 0 -315z m-183 -381 c3 -8 -2 -23
-11 -32 -15 -15 -17 -15 -32 0 -21 21 -11 48 16 48 11 0 23 -7 27 -16z"/>
<path d="M5945 10632 c-47 -72 -67 -148 -63 -243 3 -77 7 -94 42 -163 36 -71
58 -97 72 -84 2 3 -10 38 -27 79 -54 125 -51 276 7 391 28 56 29 58 9 58 -8 0
-26 -17 -40 -38z"/>
<path d="M8853 10659 c3 -8 18 -43 34 -79 25 -58 28 -76 28 -175 -1 -101 -3
-116 -33 -184 -17 -41 -30 -77 -27 -79 13 -13 38 15 72 84 37 75 38 82 38 180
0 99 -1 104 -40 180 -25 50 -47 80 -59 82 -13 3 -17 0 -13 -9z"/>
<path d="M3110 10460 l0 -200 25 0 25 0 1 168 1 167 56 -167 c54 -162 58 -168
83 -168 26 0 30 6 82 163 l55 162 1 -162 1 -163 25 0 25 0 0 200 0 200 -38 0
-38 0 -54 -165 c-30 -91 -57 -161 -61 -157 -4 4 -30 78 -59 165 l-52 157 -39
0 -39 0 0 -200z"/>
<path d="M3570 10635 c0 -20 5 -25 25 -25 20 0 25 5 25 25 0 20 -5 25 -25 25
-20 0 -25 -5 -25 -25z"/>
<path d="M3700 10460 l0 -200 25 0 25 0 0 200 0 200 -25 0 -25 0 0 -200z"/>
<path d="M3820 10460 l0 -200 25 0 25 0 0 200 0 200 -25 0 -25 0 0 -200z"/>
<path d="M4880 10635 c0 -20 5 -25 25 -25 20 0 25 5 25 25 0 20 -5 25 -25 25
-20 0 -25 -5 -25 -25z"/>
<path d="M5310 10460 l0 -200 25 0 25 0 0 200 0 200 -25 0 -25 0 0 -200z"/>
<path d="M6176 10627 c-6 -25 -43 -47 -76 -47 -13 0 -20 -7 -20 -20 0 -17 7
-20 45 -20 l45 0 0 -140 0 -140 30 0 30 0 0 195 0 195 -24 0 c-17 0 -26 -7
-30 -23z"/>
<path d="M6414 10631 c-51 -31 -70 -121 -39 -180 30 -58 129 -77 178 -34 20
18 20 18 13 -22 -4 -22 -14 -50 -22 -63 -32 -50 -101 -54 -122 -7 -8 17 -20
25 -36 25 -23 0 -24 -2 -15 -29 15 -42 41 -62 90 -68 93 -13 150 57 157 193 5
97 -8 144 -49 179 -38 31 -109 34 -155 6z m109 -32 c31 -17 37 -28 37 -74 0
-58 -22 -85 -71 -85 -52 0 -79 27 -79 80 0 69 57 108 113 79z"/>
<path d="M6721 10624 c-44 -40 -51 -91 -19 -128 l24 -28 -28 -28 c-50 -51 -31
-142 36 -174 108 -51 228 31 197 136 -7 20 -21 44 -32 52 l-21 14 21 21 c30
30 28 91 -2 127 -20 23 -34 28 -84 32 -55 4 -63 2 -92 -24z m127 -30 c26 -18
29 -60 5 -86 -40 -44 -132 -5 -118 50 12 50 67 68 113 36z m14 -171 c18 -17
25 -77 10 -100 -4 -6 -20 -17 -36 -23 -82 -31 -150 64 -90 125 21 20 93 19
116 -2z"/>
<path d="M7108 10623 c-10 -21 -24 -30 -55 -37 -31 -7 -43 -15 -43 -28 0 -15
8 -18 50 -18 l50 0 0 -140 0 -140 25 0 25 0 0 195 c0 187 -1 195 -19 195 -12
0 -25 -11 -33 -27z"/>
<path d="M7740 10640 c0 -21 -49 -60 -75 -60 -18 0 -25 -5 -25 -20 0 -17 7
-20 45 -20 l45 0 0 -140 0 -140 25 0 25 0 0 195 c0 188 -1 195 -20 195 -11 0
-20 -5 -20 -10z"/>
<path d="M7972 10635 c-52 -38 -69 -133 -33 -191 34 -55 126 -69 174 -26 19
17 19 16 12 -18 -17 -80 -57 -119 -110 -106 -14 4 -31 18 -37 31 -7 17 -19 25
-35 25 -21 0 -23 -4 -18 -22 13 -44 50 -70 104 -76 48 -4 53 -3 90 34 28 29
41 52 50 92 22 102 10 189 -33 239 -19 22 -33 27 -82 30 -43 3 -65 0 -82 -12z
m122 -46 c34 -27 37 -98 6 -129 -29 -29 -94 -27 -114 2 -25 35 -20 94 9 123
30 30 64 32 99 4z"/>
<path d="M8282 10635 c-52 -38 -69 -133 -33 -191 34 -55 126 -69 174 -26 19
17 19 16 12 -18 -17 -80 -57 -119 -110 -106 -14 4 -31 18 -37 31 -7 17 -19 25
-35 25 -21 0 -23 -4 -18 -22 13 -44 50 -70 104 -76 48 -4 53 -3 90 34 28 29
41 52 50 92 22 102 10 189 -33 239 -19 22 -33 27 -82 30 -43 3 -65 0 -82 -12z
m122 -46 c34 -27 37 -98 6 -129 -29 -29 -94 -27 -114 2 -25 35 -20 94 9 123
30 30 64 32 99 4z"/>
<path d="M8605 10628 c-44 -35 -65 -92 -65 -182 0 -60 5 -90 20 -122 45 -92
173 -100 224 -14 21 36 21 118 0 148 -36 52 -121 68 -168 31 -26 -20 -26 -20
-26 0 0 30 19 73 42 99 31 32 72 29 100 -8 13 -18 31 -30 44 -30 21 0 22 2 12
30 -23 69 -123 95 -183 48z m128 -190 c23 -27 22 -89 -2 -119 -13 -16 -29 -23
-55 -23 -43 0 -71 25 -80 69 -16 82 84 136 137 73z"/>
<path d="M3997 10542 c-36 -22 -67 -87 -67 -143 0 -113 98 -179 196 -133 29
14 64 57 64 79 0 16 -44 1 -63 -21 -44 -51 -126 -29 -142 39 l-7 27 111 0 112
0 -7 38 c-10 58 -34 102 -65 117 -37 20 -98 18 -132 -3z m126 -54 c9 -11 17
-29 17 -39 0 -17 -8 -19 -80 -19 -44 0 -80 2 -80 5 0 19 35 67 53 75 30 13 69
3 90 -22z"/>
<path d="M4343 10548 c-13 -6 -23 -15 -23 -20 0 -4 -4 -8 -10 -8 -5 0 -10 7
-10 15 0 8 -9 15 -20 15 -19 0 -20 -7 -20 -145 l0 -145 25 0 25 0 0 104 c0 84
3 108 18 124 26 32 64 37 92 14 23 -19 25 -28 28 -131 4 -109 5 -111 28 -111
24 0 24 2 24 93 -1 103 -11 162 -33 185 -19 18 -95 25 -124 10z"/>
<path d="M4653 10548 c-13 -6 -23 -15 -23 -20 0 -4 -4 -8 -10 -8 -5 0 -10 7
-10 15 0 8 -9 15 -20 15 -19 0 -20 -7 -20 -145 l0 -145 25 0 25 0 0 104 c0 84
3 108 18 124 26 32 64 37 92 14 23 -19 25 -28 28 -131 4 -109 5 -111 28 -111
24 0 24 2 24 93 -1 103 -11 162 -33 185 -19 18 -95 25 -124 10z"/>
<path d="M5054 10550 c-26 -10 -54 -48 -54 -72 0 -26 37 -23 51 5 16 29 28 37
62 37 41 0 67 -17 67 -45 0 -30 -3 -32 -80 -44 -79 -13 -110 -39 -110 -92 0
-77 75 -111 155 -69 23 12 41 16 43 10 6 -16 39 -31 56 -24 20 8 21 30 1 38
-12 4 -15 26 -15 106 0 99 -1 102 -29 131 -25 24 -37 29 -78 28 -26 0 -58 -4
-69 -9z m105 -226 c-45 -48 -119 -39 -119 16 0 35 7 40 79 54 l56 11 3 -29 c2
-19 -4 -36 -19 -52z"/>
<path d="M5484 10550 c-30 -12 -54 -49 -54 -82 0 -37 32 -64 94 -79 28 -6 59
-16 69 -21 26 -13 17 -50 -16 -66 -35 -17 -93 0 -102 29 -4 12 -15 19 -31 19
-60 0 3 -85 71 -95 83 -13 145 26 145 91 0 41 -23 60 -106 87 -61 19 -69 25
-69 47 0 46 100 54 112 10 3 -13 14 -20 29 -20 33 0 31 25 -5 61 -24 23 -38
29 -73 28 -24 0 -53 -4 -64 -9z"/>
<path d="M3570 10405 l0 -145 25 0 25 0 0 145 0 145 -25 0 -25 0 0 -145z"/>
<path d="M4880 10405 l0 -145 25 0 25 0 0 145 0 145 -25 0 -25 0 0 -145z"/>
<path d="M7270 10415 l0 -25 155 0 155 0 0 25 0 25 -155 0 -155 0 0 -25z"/>
<path d="M1998 9213 c-9 -10 -23 -62 -31 -118 -21 -131 -16 -139 88 -156 71
-11 75 -13 60 -29 -13 -15 -13 -18 -2 -23 11 -4 12 -17 4 -64 l-9 -58 -115
-60 c-63 -33 -116 -62 -117 -65 -2 -3 2 -17 8 -31 l11 -26 150 83 c96 54 157
82 168 78 28 -9 45 13 52 66 6 45 9 49 29 44 15 -3 28 2 41 16 16 18 26 20 70
15 41 -6 53 -3 66 12 18 20 39 125 39 196 0 60 -16 70 -133 87 -77 11 -91 10
-104 -2 -13 -14 -7 -16 47 -22 75 -9 105 -19 113 -40 9 -23 -18 -166 -35 -182
-13 -13 -36 -12 -188 13 -104 16 -181 34 -192 43 -17 14 -18 21 -7 94 12 83
35 121 67 112 64 -18 162 -27 181 -16 12 6 19 15 16 21 -9 13 -45 11 -45 -3 0
-9 -3 -10 -8 -2 -7 10 -136 34 -186 34 -13 0 -30 -8 -38 -17z m487 -193 c0 -8
-10 -16 -22 -18 -22 -3 -32 16 -16 32 12 11 38 2 38 -14z"/>
<path d="M3205 9096 c-87 -39 -133 -176 -96 -287 13 -41 63 -93 104 -108 61
-23 168 0 193 41 6 9 10 5 14 -12 3 -14 14 -26 23 -28 15 -3 17 8 17 107 l0
111 -85 0 c-84 0 -85 0 -85 -25 0 -24 3 -25 60 -25 54 0 60 -2 60 -20 0 -29
-26 -76 -52 -94 -13 -10 -44 -16 -74 -16 -42 0 -59 5 -83 26 -71 59 -66 221 9
274 58 41 167 18 185 -40 9 -27 55 -28 55 -1 0 27 -48 81 -87 97 -41 18 -119
17 -158 0z"/>
<path d="M4880 9058 c-72 -126 -80 -260 -21 -380 55 -111 106 -138 58 -31 -49
110 -58 199 -32 311 8 34 24 80 35 102 24 47 24 50 5 50 -8 0 -28 -24 -45 -52z"/>
<path d="M7828 9023 c30 -75 35 -99 35 -168 0 -83 -20 -170 -54 -237 -29 -58
3 -51 41 8 46 74 65 139 65 230 0 77 -3 87 -44 168 -29 58 -49 86 -61 86 -15
0 -13 -11 18 -87z"/>
<path d="M4312 9078 c3 -22 8 -23 111 -26 59 -1 107 -5 107 -8 0 -2 -52 -69
-115 -148 -81 -101 -115 -151 -115 -170 l0 -26 155 0 155 0 0 25 0 24 -120 3
-121 3 121 149 c78 96 120 157 120 172 l0 24 -151 0 c-150 0 -150 0 -147 -22z"/>
<path d="M5118 9063 c-10 -21 -24 -30 -55 -37 -31 -7 -43 -15 -43 -28 0 -15 8
-18 50 -18 l50 0 0 -140 0 -140 25 0 25 0 0 195 c0 187 -1 195 -19 195 -12 0
-25 -11 -33 -27z"/>
<path d="M5351 9064 c-114 -96 -14 -277 122 -220 44 18 47 10 21 -54 -18 -44
-39 -60 -77 -60 -25 0 -57 27 -57 48 0 7 -11 12 -25 12 -16 0 -25 -6 -25 -16
0 -65 99 -106 169 -70 55 29 83 101 83 211 -1 118 -44 175 -133 175 -36 0 -55
-6 -78 -26z m130 -33 c19 -15 24 -29 24 -64 0 -59 -24 -87 -76 -87 -41 0 -66
18 -75 56 -21 83 64 146 127 95z"/>
<path d="M5661 9064 c-39 -33 -56 -90 -41 -143 20 -76 103 -111 172 -73 l38
20 -6 -26 c-21 -89 -59 -125 -112 -106 -15 5 -31 19 -37 32 -10 22 -55 32 -55
12 0 -52 65 -96 130 -87 81 11 125 87 125 217 0 126 -42 180 -139 180 -33 0
-52 -6 -75 -26z m134 -39 c27 -26 33 -72 14 -108 -16 -30 -28 -37 -70 -37 -48
0 -72 27 -72 82 0 76 77 115 128 63z"/>
<path d="M5927 9083 c-4 -3 -7 -15 -7 -25 0 -16 10 -18 105 -18 58 0 105 -2
105 -4 0 -1 -20 -33 -44 -71 -48 -71 -90 -167 -101 -228 -7 -35 -6 -37 19 -37
20 0 27 6 31 28 20 93 99 258 139 292 9 7 16 25 16 41 l0 29 -128 0 c-71 0
-132 -3 -135 -7z"/>
<path d="M6608 9074 c-32 -17 -58 -62 -58 -99 0 -20 5 -25 25 -25 20 0 25 5
25 25 0 36 42 75 80 75 41 0 70 -31 70 -75 0 -38 -23 -65 -81 -95 -79 -41
-129 -103 -129 -160 0 -19 6 -20 136 -20 135 0 135 0 132 23 -3 21 -8 22 -105
25 -139 4 -139 18 2 100 89 51 113 93 95 164 -8 27 -21 45 -43 58 -38 24 -110
26 -149 4z"/>
<path d="M6917 9070 c-42 -34 -60 -96 -55 -197 3 -61 9 -97 22 -119 36 -60
105 -80 167 -48 90 46 97 297 11 364 -34 27 -110 27 -145 0z m105 -31 c30 -16
48 -71 48 -149 0 -120 -43 -179 -108 -147 -35 16 -51 63 -51 150 -1 120 45
181 111 146z"/>
<path d="M7296 9067 c-6 -25 -43 -47 -76 -47 -13 0 -20 -7 -20 -20 0 -17 7
-20 45 -20 l45 0 0 -140 0 -140 30 0 30 0 0 195 0 195 -24 0 c-17 0 -26 -7
-30 -23z"/>
<path d="M7535 9068 c-27 -21 -55 -73 -55 -103 0 -9 9 -15 23 -15 19 0 26 8
36 40 19 63 81 81 126 35 50 -49 29 -92 -74 -154 -72 -42 -103 -80 -116 -138
l-7 -33 136 0 136 0 0 25 0 25 -105 0 c-58 0 -105 4 -105 8 0 15 54 59 107 87
74 39 95 65 101 124 4 47 2 53 -31 86 -31 31 -40 35 -90 35 -41 0 -61 -5 -82
-22z"/>
<path d="M3594 8981 c-62 -38 -86 -160 -44 -229 53 -87 200 -74 233 21 10 27
-30 21 -56 -9 -33 -38 -91 -38 -123 0 -13 15 -24 36 -24 47 0 18 8 19 105 19
l105 0 0 30 c0 110 -107 176 -196 121z m129 -52 c9 -12 17 -30 17 -40 0 -17
-8 -19 -80 -19 -92 0 -101 11 -50 62 26 25 36 29 63 24 18 -3 40 -16 50 -27z"/>
<path d="M3926 8979 c-21 -17 -26 -18 -26 -5 0 10 -9 16 -25 16 l-25 0 0 -145
0 -145 25 0 25 0 0 101 c0 98 1 101 29 130 34 34 63 37 91 9 18 -18 20 -33 20
-130 l0 -110 25 0 25 0 0 121 c0 120 0 121 -29 150 -37 36 -94 40 -135 8z"/>
<path d="M6214 8865 c-12 -31 7 -35 157 -35 l149 0 0 25 0 25 -150 0 c-122 0
-152 -3 -156 -15z"/>
<path d="M1660 8535 c-153 -86 -165 -95 -165 -122 0 -21 5 -29 23 -31 26 -4
30 19 6 42 -8 9 -11 16 -4 16 6 0 16 -11 22 -25 6 -14 14 -25 17 -25 3 0 74
37 156 83 117 65 151 88 153 106 4 24 -13 51 -32 50 -6 0 -85 -42 -176 -94z"/>
<path d="M2106 7749 c-25 -22 -59 -69 -77 -104 -29 -55 -38 -65 -74 -75 -22
-7 -54 -23 -72 -36 -17 -13 -38 -24 -45 -24 -8 0 -23 -7 -34 -15 -15 -11 -16
-14 -4 -15 18 0 262 -72 330 -97 65 -23 98 -49 121 -96 29 -56 24 -212 -7
-254 -31 -42 -44 -38 -22 6 17 34 19 56 16 138 -4 116 -21 149 -96 187 -47 23
-232 80 -238 73 -2 -2 44 -20 103 -41 60 -20 123 -47 141 -59 51 -35 72 -89
72 -188 0 -46 -4 -90 -9 -98 -5 -8 -7 20 -4 71 8 119 -19 188 -86 222 -45 24
-358 116 -391 116 -69 0 -90 -37 -90 -158 0 -149 33 -192 202 -259 218 -87
264 -97 321 -66 18 9 36 16 40 15 4 -1 33 10 63 24 62 29 108 83 118 140 6 30
14 39 51 55 23 10 57 35 74 54 26 30 31 44 31 86 0 27 -6 64 -14 83 -12 30
-26 43 -95 95 -18 13 -26 32 -32 79 -18 130 -70 182 -183 182 -64 0 -68 -2
-110 -41z m166 -26 c18 -22 38 -78 38 -108 0 -43 -27 -54 -103 -43 -53 8 -70
15 -76 30 -7 19 -8 18 -18 -4 -6 -13 -16 -50 -23 -81 -13 -66 -26 -77 -16 -15
12 73 44 130 104 185 63 58 72 61 94 36z m-312 -223 c-20 -13 -33 -13 -25 0 3
6 14 10 23 10 15 0 15 -2 2 -10z m255 -35 c119 -22 255 -63 255 -77 0 -5 -11
-13 -25 -20 -13 -6 -22 -15 -19 -19 3 -5 -3 -6 -12 -2 -12 4 -15 3 -10 -5 9
-15 -11 -8 -87 29 -32 15 -82 33 -112 40 -36 8 -63 22 -81 40 -34 35 -28 36
91 14z m-301 -65 c92 -28 180 -57 196 -65 67 -35 94 -106 84 -220 -15 -169
-58 -178 -335 -65 -140 57 -182 90 -198 156 -22 88 -8 213 27 233 29 17 53 13
226 -39z m433 -127 c-3 -10 -5 -4 -5 12 0 17 2 24 5 18 2 -7 2 -21 0 -30z m16
-63 c3 -11 1 -18 -4 -14 -5 3 -9 12 -9 20 0 20 7 17 13 -6z"/>
<path d="M3205 7536 c-87 -39 -133 -176 -96 -287 13 -41 63 -93 104 -108 61
-23 168 0 193 41 6 9 10 5 14 -12 3 -14 14 -26 23 -28 15 -3 17 8 17 107 l0
111 -85 0 c-84 0 -85 0 -85 -25 0 -24 3 -25 60 -25 54 0 60 -2 60 -20 0 -29
-26 -76 -52 -94 -13 -10 -44 -16 -74 -16 -42 0 -59 5 -83 26 -71 59 -66 221 9
274 58 41 167 18 185 -40 9 -27 55 -28 55 -1 0 27 -48 81 -87 97 -41 18 -119
17 -158 0z"/>
<path d="M5970 7498 c-72 -126 -80 -260 -21 -380 55 -111 106 -138 58 -31 -49
110 -58 199 -32 311 8 34 24 80 35 102 24 47 24 50 5 50 -8 0 -28 -24 -45 -52z"/>
<path d="M9538 7463 c30 -75 35 -99 35 -168 0 -83 -20 -170 -54 -237 -29 -58
3 -51 41 8 46 74 65 139 65 230 0 77 -3 87 -44 168 -29 58 -49 86 -61 86 -15
0 -13 -11 18 -87z"/>
<path d="M4435 7523 c-20 -53 -91 -238 -116 -305 l-28 -78 28 0 c27 0 31 5 48
58 l20 57 80 3 81 3 19 -58 c18 -53 22 -58 51 -61 l32 -3 -36 98 c-20 54 -52
144 -73 200 -35 101 -37 103 -67 103 -21 0 -34 -6 -39 -17z m67 -133 l26 -80
-60 0 c-44 0 -59 3 -56 13 3 6 16 42 29 80 13 37 26 67 29 67 3 0 18 -36 32
-80z"/>
<path d="M4690 7340 l0 -200 25 0 25 0 0 200 0 200 -25 0 -25 0 0 -200z"/>
<path d="M5130 7340 l0 -200 25 0 c25 0 25 0 25 95 0 104 10 137 47 154 34 16
50 14 73 -9 18 -18 20 -33 20 -130 l0 -110 26 0 26 0 -4 126 c-3 124 -3 126
-31 150 -36 31 -94 32 -131 3 l-26 -20 0 70 c0 69 -1 71 -25 71 l-25 0 0 -200z"/>
<path d="M6135 7508 c-27 -21 -55 -73 -55 -103 0 -9 9 -15 23 -15 19 0 26 8
36 40 19 63 81 81 126 35 50 -49 29 -92 -74 -154 -72 -42 -103 -80 -116 -138
l-7 -33 136 0 136 0 0 25 0 25 -105 0 c-58 0 -105 4 -105 8 0 15 54 59 107 87
74 39 95 65 101 124 4 47 2 53 -31 86 -31 31 -40 35 -90 35 -41 0 -61 -5 -82
-22z"/>
<path d="M6459 7515 c-38 -21 -63 -79 -67 -160 -5 -91 11 -150 53 -192 57 -57
141 -42 182 33 49 89 38 241 -22 301 -27 27 -40 33 -76 33 -24 -1 -56 -7 -70
-15z m108 -47 c29 -32 35 -58 35 -143 -1 -113 -41 -170 -102 -145 -35 14 -51
49 -57 125 -12 138 60 232 124 163z"/>
<path d="M6840 7520 c0 -21 -49 -60 -75 -60 -18 0 -25 -5 -25 -20 0 -17 7 -20
45 -20 l45 0 0 -140 0 -140 25 0 25 0 0 195 c0 188 -1 195 -20 195 -11 0 -20
-5 -20 -10z"/>
<path d="M7060 7503 c-20 -18 -33 -41 -37 -66 -6 -36 -4 -39 18 -35 14 2 25
11 27 23 6 33 43 65 74 65 30 0 78 -38 78 -62 0 -27 -31 -57 -65 -64 -25 -4
-35 -11 -35 -25 0 -15 7 -19 33 -19 68 0 102 -74 55 -117 -33 -30 -62 -36
-101 -19 -26 10 -37 22 -42 45 -5 24 -12 31 -31 31 -29 0 -31 -18 -8 -65 39
-83 189 -87 237 -6 24 40 22 102 -3 129 -12 12 -26 22 -32 22 -6 0 -1 12 13
26 37 39 33 98 -9 135 -27 25 -41 29 -87 29 -46 0 -60 -5 -85 -27z"/>
<path d="M9370 7470 c0 -33 -3 -40 -20 -40 -13 0 -20 -7 -20 -20 0 -13 7 -20
20 -20 19 0 20 -7 20 -99 0 -132 8 -151 60 -151 33 0 40 3 40 19 0 13 -8 21
-22 23 -22 3 -23 8 -26 106 l-3 102 26 0 c18 0 25 5 25 20 0 15 -7 20 -25 20
-22 0 -25 4 -25 40 0 36 -2 40 -25 40 -22 0 -25 -4 -25 -40z"/>
<path d="M1748 7473 c6 -2 18 -2 25 0 6 3 1 5 -13 5 -14 0 -19 -2 -12 -5z"/>
<path d="M1830 7454 c25 -7 50 -13 55 -13 18 1 -59 27 -80 28 -11 0 0 -7 25
-15z"/>
<path d="M3594 7421 c-62 -38 -86 -160 -44 -229 53 -87 200 -74 233 21 10 27
-30 21 -56 -9 -33 -38 -91 -38 -123 0 -13 15 -24 36 -24 47 0 18 8 19 105 19
l105 0 0 30 c0 110 -107 176 -196 121z m129 -52 c9 -12 17 -30 17 -40 0 -17
-8 -19 -80 -19 -92 0 -101 11 -50 62 26 25 36 29 63 24 18 -3 40 -16 50 -27z"/>
<path d="M3926 7419 c-21 -17 -26 -18 -26 -5 0 10 -9 16 -25 16 l-25 0 0 -145
0 -145 25 0 25 0 0 101 c0 98 1 101 29 130 34 34 63 37 91 9 18 -18 20 -33 20
-130 l0 -110 25 0 25 0 0 121 c0 120 0 121 -29 150 -37 36 -94 40 -135 8z"/>
<path d="M4886 7419 c-21 -17 -26 -18 -26 -5 0 10 -9 16 -25 16 l-25 0 2 -202
c3 -202 3 -203 26 -206 21 -3 22 0 22 73 l0 76 29 -22 c23 -17 38 -21 68 -16
109 18 152 190 68 274 -40 40 -97 45 -139 12z m99 -42 c53 -45 40 -174 -20
-197 -32 -12 -69 1 -91 35 -26 40 -15 131 20 162 34 29 58 29 91 0z"/>
<path d="M5494 7431 c-47 -20 -73 -91 -34 -91 11 0 20 5 20 10 0 6 9 19 20 30
40 40 125 16 118 -34 -2 -16 -13 -23 -48 -29 -98 -18 -119 -27 -136 -58 -45
-87 51 -160 146 -110 33 17 42 18 46 7 6 -16 40 -27 60 -19 19 7 18 29 -1 37
-12 4 -15 26 -15 105 0 90 -2 103 -23 127 -19 22 -34 28 -78 30 -30 2 -64 0
-75 -5z m126 -170 c0 -66 -87 -114 -129 -72 -12 12 -21 25 -21 29 0 24 32 45
86 57 32 7 60 13 62 14 1 1 2 -12 2 -28z"/>
<path d="M7716 7419 c-21 -17 -26 -18 -26 -5 0 10 -9 16 -25 16 l-25 0 2 -202
c3 -202 3 -203 26 -206 21 -3 22 0 22 67 0 39 2 71 4 71 2 0 17 -7 32 -15 36
-19 56 -19 100 0 50 20 78 86 72 168 -4 54 -8 63 -41 93 -44 41 -99 46 -141
13z m88 -30 c34 -16 50 -59 44 -120 -6 -60 -33 -92 -77 -92 -59 0 -89 54 -76
135 8 43 43 88 69 88 8 0 26 -5 40 -11z"/>
<path d="M8041 7414 c-30 -25 -31 -25 -31 -5 0 14 -6 21 -20 21 -19 0 -20 -7
-20 -145 l0 -145 25 0 25 0 0 104 c0 101 1 105 26 125 15 12 35 21 45 21 14 0
19 7 19 25 0 33 -29 33 -69 -1z"/>
<path d="M8215 7430 c-55 -22 -91 -103 -80 -176 13 -90 90 -141 175 -115 39
11 80 51 80 77 0 24 -40 15 -64 -13 -45 -52 -136 -24 -136 43 0 24 1 24 106
24 l107 0 -7 42 c-9 54 -35 99 -67 115 -27 14 -84 16 -114 3z m99 -52 c13 -13
27 -33 31 -45 6 -23 5 -23 -74 -23 -71 0 -81 2 -81 18 0 22 18 46 45 60 30 17
51 14 79 -10z"/>
<path d="M8504 7430 c-30 -12 -54 -49 -54 -82 0 -37 32 -64 94 -79 28 -6 59
-16 69 -21 26 -13 17 -50 -16 -66 -35 -17 -93 0 -102 29 -4 12 -15 19 -31 19
-60 0 3 -85 71 -95 83 -13 145 26 145 91 0 41 -23 60 -106 87 -61 19 -69 25
-69 47 0 46 100 54 112 10 3 -13 14 -20 29 -20 33 0 31 25 -5 61 -24 23 -38
29 -73 28 -24 0 -53 -4 -64 -9z"/>
<path d="M8793 7420 c-49 -30 -66 -71 -61 -153 3 -63 7 -72 35 -98 63 -56 156
-46 201 21 l24 35 -23 3 c-14 3 -29 -4 -38 -17 -48 -62 -151 -36 -151 38 0 20
6 21 105 21 102 0 105 1 105 23 0 117 -104 184 -197 127z m100 -31 c23 -10 47
-46 47 -69 0 -6 -36 -10 -80 -10 -72 0 -80 2 -80 19 0 21 53 71 75 71 8 0 25
-5 38 -11z"/>
<path d="M9126 7419 c-21 -17 -26 -18 -26 -5 0 10 -9 16 -25 16 l-25 0 0 -145
0 -145 25 0 25 0 0 101 c0 98 1 101 29 130 34 34 63 37 91 9 18 -18 20 -33 20
-130 l0 -110 25 0 25 0 0 121 c0 120 0 121 -29 150 -37 36 -94 40 -135 8z"/>
<path d="M7304 7305 c-12 -31 7 -35 157 -35 l149 0 0 25 0 25 -150 0 c-122 0
-152 -3 -156 -15z"/>
</g>
</svg>
