<?xml version="1.0" encoding="UTF-8"?>
<svg version="1.1" xmlns="http://www.w3.org/2000/svg" width="512" height="512">
<path d="M0 0 C168.96 0 337.92 0 512 0 C512 168.96 512 337.92 512 512 C343.04 512 174.08 512 0 512 C0 343.04 0 174.08 0 0 Z " fill="#FEFEFE" transform="translate(0,0)"/>
<path d="M0 0 C7.06236627 6.29112502 11.70052091 13.63628073 15.50390625 22.23046875 C16.01953125 21.57046875 16.53515625 20.91046875 17.06640625 20.23046875 C18.27296875 18.74546875 18.27296875 18.74546875 19.50390625 17.23046875 C19.98988281 16.60269531 20.47585938 15.97492188 20.9765625 15.328125 C28.98871051 5.45973466 39.68963344 1.18919604 51.87890625 -1.51953125 C68.5691305 -2.6705812 85.31553202 -0.32381944 98.703125 10.65234375 C99.29738281 11.173125 99.89164062 11.69390625 100.50390625 12.23046875 C101.10847656 12.730625 101.71304687 13.23078125 102.3359375 13.74609375 C109.80765689 20.45273512 114.34228989 30.29664607 115.50390625 40.23046875 C115.50390625 41.55046875 115.50390625 42.87046875 115.50390625 44.23046875 C116.98890625 43.73546875 116.98890625 43.73546875 118.50390625 43.23046875 C132.40316423 42.35439431 142.62603269 44.12091947 153.50390625 53.23046875 C161.72957218 60.57853198 169.05458098 72.9160426 169.7421875 84.109375 C170.18703551 102.63808893 170.18703551 102.63808893 163.6328125 110.46484375 C160.18859643 114.03276512 156.47259584 117.25395156 152.50390625 120.23046875 C153.49390625 120.93171875 154.48390625 121.63296875 155.50390625 122.35546875 C159.12852709 125.44857697 161.47454341 129.0675444 163.81640625 133.16796875 C164.32204102 134.04509521 164.32204102 134.04509521 164.83789062 134.93994141 C170.74413805 145.66365831 171.42342881 158.87888311 168.06640625 170.60546875 C163.24567206 182.88406351 152.73867357 192.31046245 141 197.8984375 C124.62570849 204.09740046 109.47011627 201.93851901 93.7265625 195.0078125 C91.95619404 194.1397408 90.22242535 193.19713574 88.50390625 192.23046875 C88.29636719 192.84792969 88.08882813 193.46539062 87.875 194.1015625 C83.85307252 205.15765604 77.28243735 213.29197199 66.7265625 218.63671875 C64.00557018 219.89312326 61.27428871 221.0875307 58.50390625 222.23046875 C57.26640625 222.76027344 57.26640625 222.76027344 56.00390625 223.30078125 C43.76991869 227.85029537 27.99589553 227.76212969 15.50390625 224.23046875 C14.55128906 223.97394531 13.59867188 223.71742188 12.6171875 223.453125 C1.4051477 220.10817586 -8.49900508 213.81993435 -16.49609375 205.23046875 C-16.49609375 204.57046875 -16.49609375 203.91046875 -16.49609375 203.23046875 C-17.15609375 203.23046875 -17.81609375 203.23046875 -18.49609375 203.23046875 C-18.851875 204.5453125 -18.851875 204.5453125 -19.21484375 205.88671875 C-22.37073815 214.12283339 -30.08640895 220.90385189 -37.76171875 225.015625 C-52.06661765 231.37108723 -69.33748781 232.68764553 -84.49609375 228.23046875 C-96.37230439 223.33603042 -104.23376715 217.09044368 -109.37109375 205.16796875 C-109.74234375 204.19859375 -110.11359375 203.22921875 -110.49609375 202.23046875 C-111.30046875 202.84921875 -111.30046875 202.84921875 -112.12109375 203.48046875 C-125.87110043 213.61205262 -142.18382006 221.50306229 -159.49609375 222.23046875 C-160.97142578 222.32521484 -160.97142578 222.32521484 -162.4765625 222.421875 C-173.23471983 222.82032527 -185.2221193 220.66426036 -193.49609375 213.23046875 C-203.32848241 202.03762379 -207.34501854 188.78768133 -206.66210938 174.18212891 C-205.78481545 163.86876478 -198.58697759 156.74323528 -191.19140625 150.1875 C-186.57672312 146.44305988 -181.90009631 143.68683355 -176.49609375 141.23046875 C-176.87121094 140.69679687 -177.24632812 140.163125 -177.6328125 139.61328125 C-185.85031546 127.6492593 -191.09799225 116.11286469 -190.93359375 101.41796875 C-190.92529541 100.45310547 -190.91699707 99.48824219 -190.90844727 98.49414062 C-190.72788493 90.83983958 -189.57880193 84.2858336 -186.49609375 77.23046875 C-185.78453125 75.51150391 -185.78453125 75.51150391 -185.05859375 73.7578125 C-178.58692331 59.46102131 -167.29328333 47.13860252 -152.49609375 41.23046875 C-146.91967847 39.30281902 -142.0081846 38.91425382 -136.18359375 38.98046875 C-135.34344727 38.98578613 -134.50330078 38.99110352 -133.63769531 38.99658203 C-127.73391259 39.08693438 -122.19330713 39.6026935 -116.49609375 41.23046875 C-115.43261719 41.51664063 -115.43261719 41.51664063 -114.34765625 41.80859375 C-112.72346745 42.25797405 -111.1082899 42.73980036 -109.49609375 43.23046875 C-109.39296875 42.42609375 -109.28984375 41.62171875 -109.18359375 40.79296875 C-106.32260709 25.96785604 -97.99401739 13.1330747 -85.47827148 4.58300781 C-60.48198331 -11.64366709 -25.10389999 -19.47653376 0 0 Z " fill="#FCFCFC" transform="translate(274.49609375,62.76953125)"/>
<path d="M0 0 C7.06236627 6.29112502 11.70052091 13.63628073 15.50390625 22.23046875 C16.01953125 21.57046875 16.53515625 20.91046875 17.06640625 20.23046875 C18.27296875 18.74546875 18.27296875 18.74546875 19.50390625 17.23046875 C19.98988281 16.60269531 20.47585938 15.97492188 20.9765625 15.328125 C28.98871051 5.45973466 39.68963344 1.18919604 51.87890625 -1.51953125 C68.5691305 -2.6705812 85.31553202 -0.32381944 98.703125 10.65234375 C99.29738281 11.173125 99.89164062 11.69390625 100.50390625 12.23046875 C101.10847656 12.730625 101.71304687 13.23078125 102.3359375 13.74609375 C109.80765689 20.45273512 114.34228989 30.29664607 115.50390625 40.23046875 C115.50390625 41.55046875 115.50390625 42.87046875 115.50390625 44.23046875 C116.98890625 43.73546875 116.98890625 43.73546875 118.50390625 43.23046875 C132.40316423 42.35439431 142.62603269 44.12091947 153.50390625 53.23046875 C161.72957218 60.57853198 169.05458098 72.9160426 169.7421875 84.109375 C170.18703551 102.63808893 170.18703551 102.63808893 163.6328125 110.46484375 C160.18859643 114.03276512 156.47259584 117.25395156 152.50390625 120.23046875 C153.49390625 120.93171875 154.48390625 121.63296875 155.50390625 122.35546875 C159.12852709 125.44857697 161.47454341 129.0675444 163.81640625 133.16796875 C164.32204102 134.04509521 164.32204102 134.04509521 164.83789062 134.93994141 C170.74413805 145.66365831 171.42342881 158.87888311 168.06640625 170.60546875 C163.24567206 182.88406351 152.73867357 192.31046245 141 197.8984375 C124.62570849 204.09740046 109.47011627 201.93851901 93.7265625 195.0078125 C91.95619404 194.1397408 90.22242535 193.19713574 88.50390625 192.23046875 C88.29636719 192.84792969 88.08882813 193.46539062 87.875 194.1015625 C83.85307252 205.15765604 77.28243735 213.29197199 66.7265625 218.63671875 C64.00557018 219.89312326 61.27428871 221.0875307 58.50390625 222.23046875 C57.26640625 222.76027344 57.26640625 222.76027344 56.00390625 223.30078125 C43.76991869 227.85029537 27.99589553 227.76212969 15.50390625 224.23046875 C14.55128906 223.97394531 13.59867188 223.71742188 12.6171875 223.453125 C1.4051477 220.10817586 -8.49900508 213.81993435 -16.49609375 205.23046875 C-16.49609375 204.57046875 -16.49609375 203.91046875 -16.49609375 203.23046875 C-17.15609375 203.23046875 -17.81609375 203.23046875 -18.49609375 203.23046875 C-18.851875 204.5453125 -18.851875 204.5453125 -19.21484375 205.88671875 C-22.37073815 214.12283339 -30.08640895 220.90385189 -37.76171875 225.015625 C-52.06661765 231.37108723 -69.33748781 232.68764553 -84.49609375 228.23046875 C-96.37230439 223.33603042 -104.23376715 217.09044368 -109.37109375 205.16796875 C-109.74234375 204.19859375 -110.11359375 203.22921875 -110.49609375 202.23046875 C-111.30046875 202.84921875 -111.30046875 202.84921875 -112.12109375 203.48046875 C-125.87110043 213.61205262 -142.18382006 221.50306229 -159.49609375 222.23046875 C-160.97142578 222.32521484 -160.97142578 222.32521484 -162.4765625 222.421875 C-173.23471983 222.82032527 -185.2221193 220.66426036 -193.49609375 213.23046875 C-203.32848241 202.03762379 -207.34501854 188.78768133 -206.66210938 174.18212891 C-205.78481545 163.86876478 -198.58697759 156.74323528 -191.19140625 150.1875 C-186.57672312 146.44305988 -181.90009631 143.68683355 -176.49609375 141.23046875 C-176.87121094 140.69679687 -177.24632812 140.163125 -177.6328125 139.61328125 C-185.85031546 127.6492593 -191.09799225 116.11286469 -190.93359375 101.41796875 C-190.92529541 100.45310547 -190.91699707 99.48824219 -190.90844727 98.49414062 C-190.72788493 90.83983958 -189.57880193 84.2858336 -186.49609375 77.23046875 C-185.78453125 75.51150391 -185.78453125 75.51150391 -185.05859375 73.7578125 C-178.58692331 59.46102131 -167.29328333 47.13860252 -152.49609375 41.23046875 C-146.91967847 39.30281902 -142.0081846 38.91425382 -136.18359375 38.98046875 C-135.34344727 38.98578613 -134.50330078 38.99110352 -133.63769531 38.99658203 C-127.73391259 39.08693438 -122.19330713 39.6026935 -116.49609375 41.23046875 C-115.43261719 41.51664063 -115.43261719 41.51664063 -114.34765625 41.80859375 C-112.72346745 42.25797405 -111.1082899 42.73980036 -109.49609375 43.23046875 C-109.39296875 42.42609375 -109.28984375 41.62171875 -109.18359375 40.79296875 C-106.32260709 25.96785604 -97.99401739 13.1330747 -85.47827148 4.58300781 C-60.48198331 -11.64366709 -25.10389999 -19.47653376 0 0 Z M-92.30859375 20.60546875 C-98.83439001 29.618745 -101.52582311 38.32741702 -103.49609375 49.23046875 C-103.826422 50.89773362 -104.15855426 52.56464884 -104.49609375 54.23046875 C-105.58921875 53.63234375 -106.68234375 53.03421875 -107.80859375 52.41796875 C-120.24857416 46.35967673 -135.68101433 44.7999306 -149.18359375 48.35546875 C-162.08981033 53.23215867 -171.80288947 63.85739317 -177.87109375 75.9765625 C-184.62529289 91.11320521 -187.21439144 107.38797187 -181.49609375 123.23046875 C-178.62561126 129.76539697 -175.45693446 136.28920769 -171.49609375 142.23046875 C-172.21152344 142.49601563 -172.92695313 142.7615625 -173.6640625 143.03515625 C-186.48848214 148.44794578 -195.9840411 157.47073441 -201.49609375 170.23046875 C-204.28706482 181.44540736 -201.24779372 190.5744024 -195.74609375 200.48046875 C-191.01527183 207.95706922 -185.20066695 213.02029447 -176.49609375 215.23046875 C-172.88102043 215.63629214 -169.31829179 215.65942008 -165.68359375 215.60546875 C-164.70527588 215.59604248 -163.72695801 215.58661621 -162.71899414 215.5769043 C-155.88324787 215.43374432 -149.90220099 214.71611919 -143.49609375 212.23046875 C-142.51382813 211.91335938 -141.5315625 211.59625 -140.51953125 211.26953125 C-126.77830898 206.5553893 -114.75240182 198.43746765 -104.49609375 188.23046875 C-104.49222656 189.32101563 -104.49222656 189.32101563 -104.48828125 190.43359375 C-104.13374352 199.65157476 -101.87946867 207.59215083 -95.4140625 214.43359375 C-83.62396666 224.26211498 -68.1045311 224.08367244 -53.49609375 223.23046875 C-45.5098239 222.20076695 -38.87574486 220.19556307 -32.49609375 215.23046875 C-31.90441406 214.78832031 -31.31273437 214.34617187 -30.703125 213.890625 C-25.81035768 209.99153228 -22.17311139 205.25982418 -18.49609375 200.23046875 C-17.01109375 201.52984375 -17.01109375 201.52984375 -15.49609375 202.85546875 C0.72297769 216.64653548 16.71104271 222.57124753 38.02050781 221.44628906 C52.97981142 220.14624734 66.31699659 214.42303311 76.50390625 203.23046875 C80.06168623 197.81400688 81.58447567 192.44576073 82.06640625 186.04296875 C82.15019531 184.95628906 82.23398437 183.86960938 82.3203125 182.75 C82.38089844 181.91855469 82.44148438 181.08710938 82.50390625 180.23046875 C83.09816406 180.67777344 83.69242187 181.12507812 84.3046875 181.5859375 C99.12999262 192.39941822 113.4087067 195.75365993 131.50390625 194.23046875 C139.0984736 192.6856542 144.77493146 188.26599221 150.50390625 183.23046875 C151.14457031 182.68390625 151.78523438 182.13734375 152.4453125 181.57421875 C159.33427196 175.26553881 163.02776909 167.41244629 163.7421875 158.13671875 C164.03374898 144.75558123 160.91760693 134.65369169 152.50390625 124.23046875 C151.98828125 123.58722656 151.47265625 122.94398438 150.94140625 122.28125 C149.81808593 120.91220337 148.66507108 119.56756765 147.50390625 118.23046875 C148.16390625 118.04484375 148.82390625 117.85921875 149.50390625 117.66796875 C157.74844346 113.71746134 162.13614679 107.55792754 165.75390625 99.41796875 C168.37921632 88.26040095 165.19362277 77.50175945 159.56640625 67.73046875 C153.89155358 58.95638233 145.70331319 51.96482126 135.50390625 49.23046875 C132.48793491 48.86270814 129.53841262 48.85323952 126.50390625 48.91796875 C125.74851562 48.91474609 124.993125 48.91152344 124.21484375 48.90820312 C119.02119845 48.95728397 114.49703218 49.80629306 109.50390625 51.23046875 C109.5503125 50.41964844 109.59671875 49.60882813 109.64453125 48.7734375 C110.01086987 37.53469198 107.80059097 28.97337243 100.46875 20.29296875 C93.50266332 12.9806551 86.06191986 9.33507901 76.50390625 6.23046875 C75.38628906 5.86179687 74.26867187 5.493125 73.1171875 5.11328125 C69.13566102 4.14049748 65.38946869 3.88586075 61.31640625 3.91796875 C60.2015686 3.92534058 60.2015686 3.92534058 59.06420898 3.93286133 C43.49166043 4.26040388 31.26569536 10.07591362 20.50390625 21.23046875 C17.48408634 24.80284347 17.48408634 24.80284347 16.50390625 29.23046875 C15.84390625 29.23046875 15.18390625 29.23046875 14.50390625 29.23046875 C14.40078125 28.51246094 14.29765625 27.79445312 14.19140625 27.0546875 C11.60042288 16.4110456 1.58051041 5.50630408 -7.49609375 -0.20703125 C-33.63758534 -15.41085015 -74.06373098 -1.57685372 -92.30859375 20.60546875 Z " fill="#0A0A0A" transform="translate(274.49609375,62.76953125)"/>
<path d="M0 0 C3.52426477 2.34950984 5.42221746 4.35987862 7.8125 7.875 C8.26446105 11.11405421 7.85198258 12.75655225 6.8125 15.875 C7.1425 16.865 7.4725 17.855 7.8125 18.875 C7.8125 19.205 7.8125 19.535 7.8125 19.875 C8.4725 19.875 9.1325 19.875 9.8125 19.875 C8.40109982 24.93251729 6.60722953 29.05779919 2.0703125 32.0078125 C-0.8656358 33.13546046 -3.30227226 33.06815712 -6.4375 33 C-7.51515625 32.98195312 -8.5928125 32.96390625 -9.703125 32.9453125 C-10.93289063 32.91050781 -10.93289063 32.91050781 -12.1875 32.875 C-12.6825 31.39 -12.6825 31.39 -13.1875 29.875 C-14.13625 29.25625 -15.085 28.6375 -16.0625 28 C-19.37494137 25.74753987 -20.46238688 24.42134691 -22.1875 20.875 C-23.0053406 15.40062552 -22.88945287 10.44737443 -20.625 5.375 C-14.51571393 -0.89093443 -8.57359065 -3.02597317 0 0 Z " fill="#080808" transform="translate(321.1875,114.125)"/>
<path d="M0 0 C3.39792055 0.56738862 4.83096984 1.5243223 7.015625 4.16015625 C7.54414063 4.78857422 8.07265625 5.41699219 8.6171875 6.06445312 C9.15601563 6.72380859 9.69484375 7.38316406 10.25 8.0625 C10.80429687 8.72572266 11.35859375 9.38894531 11.9296875 10.07226562 C13.29473642 11.7079708 14.64847909 13.35309951 16 15 C16.13277344 14.14535156 16.26554687 13.29070312 16.40234375 12.41015625 C16.57894531 11.30542969 16.75554687 10.20070313 16.9375 9.0625 C17.11152344 7.96035156 17.28554688 6.85820313 17.46484375 5.72265625 C18 3 18 3 19 2 C22 1.875 22 1.875 25 2 C26 3 26 3 26.09765625 5.50390625 C26.08605469 6.51324219 26.07445312 7.52257812 26.0625 8.5625 C26.05347656 9.57441406 26.04445313 10.58632812 26.03515625 11.62890625 C26.02355469 12.41136719 26.01195312 13.19382812 26 14 C26.33 11.69 26.66 9.38 27 7 C27.66 7 28.32 7 29 7 C28.71976661 10.52183993 28.42374735 14.04218608 28.125 17.5625 C28.04636719 18.55314453 27.96773438 19.54378906 27.88671875 20.56445312 C27.42072335 25.95924602 26.71601855 30.8591545 25 36 C24.01 35.67 23.02 35.34 22 35 C22.66 34.34 23.32 33.68 24 33 C24 31.68 24 30.36 24 29 C23.67 30.32 23.34 31.64 23 33 C19.77098814 32.43289291 18.29861024 31.63773172 16.203125 29.12890625 C15.71972656 28.55462891 15.23632812 27.98035156 14.73828125 27.38867188 C14.24714844 26.78603516 13.75601562 26.18339844 13.25 25.5625 C12.74339844 24.96373047 12.23679687 24.36496094 11.71484375 23.74804688 C8 19.2772174 8 19.2772174 8 17 C7.34 17 6.68 17 6 17 C6.66 17.99 7.32 18.98 8 20 C8.23046875 23.1015625 8.23046875 23.1015625 8.1875 26.625 C8.18105469 27.79289062 8.17460937 28.96078125 8.16796875 30.1640625 C8 33 8 33 7 34 C4.66702567 34.04092937 2.33294775 34.04241723 0 34 C0 33.34 0 32.68 0 32 C1.98 32 3.96 32 6 32 C5.67 31.34 5.34 30.68 5 30 C3.824375 30.495 2.64875 30.99 1.4375 31.5 C-2.59220111 33.02999347 -5.72138314 33.26741355 -10 33 C-10 32.34 -10 31.68 -10 31 C-8.02 31 -6.04 31 -4 31 C-6.61890104 23.83248137 -9.88091362 17.09485979 -13.4453125 10.359375 C-14.35480598 8.6017022 -15.18472045 6.80330567 -16 5 C-15.67 4.34 -15.34 3.68 -15 3 C-13.72710095 5.20716463 -12.4566395 7.41567485 -11.1875 9.625 C-10.83107422 10.24246094 -10.47464844 10.85992187 -10.10742188 11.49609375 C-7.94086828 15.27265506 -5.9095701 19.08447772 -4 23 C-2.38159365 15.37282967 -1.13635546 7.71271047 0 0 Z " fill="#090909" transform="translate(269,106)"/>
<path d="M0 0 C6.75 1.625 6.75 1.625 9 5 C9.125 7.6875 9.125 7.6875 9 10 C8.34 10.33 7.68 10.66 7 11 C6.67 10.34 6.34 9.68 6 9 C6 9.99 6 10.98 6 12 C8.70879335 13.35439668 11.00933268 13.06501451 14 13 C14.99 10.03 15.98 7.06 17 4 C20.18781084 4.28336096 22.37394881 4.51531521 24.9375 6.5 C26.56128907 10.32068016 26.02110396 14.02306879 25 18 C24.34 18.66 23.68 19.32 23 20 C22.505 19.01 22.505 19.01 22 18 C20.68 23.61 19.36 29.22 18 35 C12 35 12 35 10 34 C10.33 30.04 10.66 26.08 11 22 C10.67 22.66 10.34 23.32 10 24 C8.35 24 6.7 24 5 24 C4.855625 25.093125 4.71125 26.18625 4.5625 27.3125 C4 31 4 31 3 34 C0.69 34 -1.62 34 -4 34 C-4.33 33.34 -4.66 32.68 -5 32 C-2.69 32 -0.38 32 2 32 C2.66 28.37 3.32 24.74 4 21 C2.43413992 22.56586008 2.38905307 24.4251488 1.9375 26.5625 C1.76089844 27.38878906 1.58429688 28.21507812 1.40234375 29.06640625 C1.26957031 29.70449219 1.13679688 30.34257812 1 31 C-4.75 31.125 -4.75 31.125 -7 30 C-6.39700836 22.76410027 -4.8849413 16.00629124 -3 9 C-4.1446875 8.7834375 -4.1446875 8.7834375 -5.3125 8.5625 C-8 8 -8 8 -11 7 C-11.17015625 7.59425781 -11.3403125 8.18851563 -11.515625 8.80078125 C-13.41710318 15.30424118 -15.62386266 21.65559268 -18 28 C-20.31 27.67 -22.62 27.34 -25 27 C-25 26.34 -25 25.68 -25 25 C-23.02 25.33 -21.04 25.66 -19 26 C-18.89816406 25.34644531 -18.79632813 24.69289062 -18.69140625 24.01953125 C-17.7920704 20.09192327 -16.38367698 16.44219151 -14.9375 12.6875 C-14.51500977 11.57665039 -14.51500977 11.57665039 -14.08398438 10.44335938 C-13.39281425 8.62757345 -12.69688311 6.81360101 -12 5 C-9.36 5 -6.72 5 -4 5 C-3.67 4.34 -3.34 3.68 -3 3 C-2.34 3 -1.68 3 -1 3 C-0.67 2.01 -0.34 1.02 0 0 Z " fill="#080808" transform="translate(196,196)"/>
<path d="M0 0 C5.61 0 11.22 0 17 0 C17 1.65 17 3.3 17 5 C15.35 5 13.7 5 12 5 C13.06645115 6.29633621 13.06645115 6.29633621 15.5625 6.0625 C16.366875 6.041875 17.17125 6.02125 18 6 C18 5.01 18 4.02 18 3 C18.66 3 19.32 3 20 3 C20 2.01 20 1.02 20 0 C22.31 0 24.62 0 27 0 C27 0.66 27 1.32 27 2 C27.66 2 28.32 2 29 2 C29 3.65 29 5.3 29 7 C31.475 7.495 31.475 7.495 34 8 C34 5.36 34 2.72 34 0 C35.98 0 37.96 0 40 0 C40 0.66 40 1.32 40 2 C40.66 2 41.32 2 42 2 C42 9.59 42 17.18 42 25 C40.02 25 38.04 25 36 25 C37.32 24.67 38.64 24.34 40 24 C38.93354885 22.70366379 38.93354885 22.70366379 36.4375 22.9375 C35.633125 22.958125 34.82875 22.97875 34 23 C34 20.03 34 17.06 34 14 C33.34 14 32.68 14 32 14 C32 14.66 32 15.32 32 16 C31.01 16 30.02 16 29 16 C29 18.97 29 21.94 29 25 C27.02 25 25.04 25 23 25 C24.32 24.67 25.64 24.34 27 24 C26.67 23.67 26.34 23.34 26 23 C24.02 23 22.04 23 20 23 C20 17.72 20 12.44 20 7 C18.02 7 16.04 7 14 7 C14 12.94 14 18.88 14 25 C12.02 25 10.04 25 8 25 C9.32 24.67 10.64 24.34 12 24 C11.67 23.67 11.34 23.34 11 23 C9.35 23 7.7 23 6 23 C5.67 17.39 5.34 11.78 5 6 C3.35 5.67 1.7 5.34 0 5 C0 3.35 0 1.7 0 0 Z " fill="#030303" transform="translate(210,159)"/>
<path d="M0 0 C3.35537627 1.34215051 5.45789202 2.45789202 8 5 C8 5.99 8 6.98 8 8 C0.25 9 0.25 9 -2 9 C-4.69762718 9.90023803 -4.69762718 9.90023803 -7 12 C-7.55926476 14.04921438 -7.74700943 15.94360634 -7.859375 18.0625 C-8 20 -8 20 -9 23 C-7.54176788 23.0270043 -6.08339325 23.04639787 -4.625 23.0625 C-3.40683594 23.07990234 -3.40683594 23.07990234 -2.1640625 23.09765625 C0.04937142 23.14466334 0.04937142 23.14466334 2 22 C2.33 21.01 2.66 20.02 3 19 C1.02 19.33 -0.96 19.66 -3 20 C-3.33 18.02 -3.66 16.04 -4 14 C0.46684769 11.83862209 5.07036605 11.13240752 10 11 C11.55090815 12.55090815 11.20677311 14.03696233 11.25 16.1875 C11.1741988 20.52884158 10.59831498 23.39588567 8 27 C3.01516204 30.94633005 -1.09500292 31.65199987 -7.4140625 31.375 C-11.25243922 30.81837739 -13.226226 29.70612097 -16 27 C-19.33063714 22.18675949 -20.76655435 17.91341927 -20 12 C-16.60664861 2.57402393 -9.54484286 -0.93042166 0 0 Z " fill="#080808" transform="translate(306,199)"/>
<path d="M0 0 C3 1 3 1 4.62573242 3.65209961 C5.19654541 4.80718018 5.7673584 5.96226074 6.35546875 7.15234375 C6.66196854 7.76767471 6.96846832 8.38300568 7.28425598 9.01698303 C7.93013542 10.31848408 8.57118943 11.62238929 9.20776367 12.9284668 C10.18439121 14.93112517 11.17575185 16.92592334 12.16992188 18.91992188 C17 28.68889467 17 28.68889467 17 31 C10.9453125 31.1953125 10.9453125 31.1953125 9 31 C8.34 30.34 7.68 29.68 7 29 C6.67 29.66 6.34 30.32 6 31 C3.03 31 0.06 31 -3 31 C-3.66 32.32 -4.32 33.64 -5 35 C-7.43017578 35.72949219 -7.43017578 35.72949219 -10.4453125 36.046875 C-11.52167969 36.16933594 -12.59804687 36.29179687 -13.70703125 36.41796875 C-14.83496094 36.52753906 -15.96289062 36.63710937 -17.125 36.75 C-18.26066406 36.87503906 -19.39632812 37.00007813 -20.56640625 37.12890625 C-23.37625744 37.43586478 -26.18682747 37.72545157 -29 38 C-29 37.34 -29 36.68 -29 36 C-21.08 35.01 -21.08 35.01 -13 34 C-13 31.69 -13 29.38 -13 27 C-12.02197266 23.94213867 -12.02197266 23.94213867 -10.6640625 20.91796875 C-10.17679688 19.82162109 -9.68953125 18.72527344 -9.1875 17.59570312 C-8.671875 16.47099609 -8.15625 15.34628906 -7.625 14.1875 C-7.11710937 13.04345703 -6.60921875 11.89941406 -6.0859375 10.72070312 C-2.30245536 2.30245536 -2.30245536 2.30245536 0 0 Z " fill="#090909" transform="translate(247,105)"/>
<path d="M0 0 C3 0.125 3 0.125 4 1.125 C5.49735108 11.01491148 5.09972039 21.15296052 5 31.125 C0.65511639 30.27156143 -1.41436051 28.17121321 -4.625 25.125 C-8.02862436 21.74233497 -8.02862436 21.74233497 -12 19.125 C-12.33 23.415 -12.66 27.705 -13 32.125 C-15.64 32.125 -18.28 32.125 -21 32.125 C-22.13955862 25.79910373 -22.1142637 19.60221662 -22.0625 13.1875 C-22.05798828 12.12208984 -22.05347656 11.05667969 -22.04882812 9.95898438 C-22.03711787 7.34759709 -22.02071724 4.73632876 -22 2.125 C-17.05039444 2.89055841 -14.9424133 4.63869855 -11.3125 8.125 C-7.93780615 11.52069785 -7.93780615 11.52069785 -4 14.125 C-4.01160156 13.19816406 -4.02320313 12.27132812 -4.03515625 11.31640625 C-4.04417969 10.11886719 -4.05320312 8.92132813 -4.0625 7.6875 C-4.07410156 6.49253906 -4.08570313 5.29757813 -4.09765625 4.06640625 C-3.96813875 0.16533911 -3.96813875 0.16533911 0 0 Z " fill="#080808" transform="translate(277,202.875)"/>
<path d="M0 0 C2.9375 1.375 2.9375 1.375 5 3 C5.99 3.66 6.98 4.32 8 5 C8 6.32 8 7.64 8 9 C1.375 10.25 1.375 10.25 -2 8 C-5.12521833 7.83300768 -5.12521833 7.83300768 -8 8 C-8.33 9.32 -8.66 10.64 -9 12 C-8.04738281 11.96519531 -7.09476563 11.93039063 -6.11328125 11.89453125 C-4.85902344 11.86746094 -3.60476562 11.84039062 -2.3125 11.8125 C-1.07113281 11.77769531 0.17023438 11.74289063 1.44921875 11.70703125 C5.22385906 12.01847022 6.96303354 12.82761138 10 15 C10.66 15.33 11.32 15.66 12 16 C13.48463768 22.85217391 13.48463768 22.85217391 11.8125 26.8125 C8.51408208 30.79334922 6.39850081 32.09840821 1.25 32.6875 C-0.16570961 32.80395353 -1.58222818 32.91214662 -3 33 C-0.65848007 31.82165412 1.68908859 30.67655025 4.0625 29.5625 C6.59496254 28.21544546 8.25058298 27.23536619 10 25 C10 24.34 10 23.68 10 23 C8.9171875 24.423125 8.9171875 24.423125 7.8125 25.875 C4.8296342 29.39793899 2.48710266 30.66868888 -2.140625 31.28515625 C-6.61432967 31.57402129 -8.40929341 31.45809899 -12.0625 28.625 C-14 26 -14 26 -14 24 C-10.70807706 22.35403853 -7.15500794 22.98621036 -3.53125 23.0625 C-1.00488703 23.17952662 -1.00488703 23.17952662 1 22 C1.33 21.01 1.66 20.02 2 19 C0.96359375 19.05800781 -0.0728125 19.11601562 -1.140625 19.17578125 C-2.51037156 19.22269038 -3.88016692 19.26818932 -5.25 19.3125 C-5.93191406 19.35439453 -6.61382812 19.39628906 -7.31640625 19.43945312 C-11.07702373 19.53073025 -12.64878126 19.32705489 -15.44140625 16.7265625 C-17.12752809 13.77690574 -17.76762358 11.42460085 -17.56640625 8.00390625 C-16.64340566 4.73839381 -14.88220875 3.06482848 -12.203125 1.06640625 C-8.18768309 -0.8772385 -4.32988452 -0.75717845 0 0 Z " fill="#070707" transform="translate(199,114)"/>
<path d="M0 0 C4.36007587 2.36170776 6.41323146 5.32784819 8 10 C8.29191385 14.859507 7.73687301 18.03797134 4.75 21.9375 C-0.27493759 25.70620319 -3.6929294 26.41343761 -9.84765625 25.54296875 C-12.99690832 24.74851133 -14.79141401 23.34243969 -17 21 C-19.54060904 16.74179611 -19.55430034 12.84146703 -19 8 C-17.72781553 4.91997445 -16.44860676 3.40654988 -14 1.1875 C-9.35896635 -0.64957582 -4.92082513 -0.65956843 0 0 Z " fill="#FAFAFA" transform="translate(120,346)"/>
<path d="M0 0 C1.9375 0.25 1.9375 0.25 4 1 C4.66 1.99 5.32 2.98 6 4 C6.66 4 7.32 4 8 4 C9.51581779 8.03590965 11.00981182 12.07956421 12.5 16.125 C12.92925781 17.26710937 13.35851562 18.40921875 13.80078125 19.5859375 C14.40986328 21.24882812 14.40986328 21.24882812 15.03125 22.9453125 C15.40830078 23.96125488 15.78535156 24.97719727 16.17382812 26.02392578 C17.04185471 29.15077097 17.15154142 31.77132575 17 35 C14.36 35 11.72 35 9 35 C9 34.67 9 34.34 9 34 C10.98 34 12.96 34 15 34 C13.16243766 25.5741044 10.52877474 17.86651761 7 10 C7.31807617 10.83978394 7.31807617 10.83978394 7.64257812 11.6965332 C8.60014633 14.23329974 9.55014699 16.77283511 10.5 19.3125 C10.83386719 20.19357422 11.16773438 21.07464844 11.51171875 21.98242188 C11.82753906 22.82998047 12.14335937 23.67753906 12.46875 24.55078125 C12.90864258 25.72120972 12.90864258 25.72120972 13.35742188 26.9152832 C14 29 14 29 14 32 C10.6875 32.25 10.6875 32.25 7 32 C6.54367188 31.34257812 6.08734375 30.68515625 5.6171875 30.0078125 C4.14419198 27.72777106 4.14419198 27.72777106 1.37109375 27.5390625 C-0.08103516 27.58160156 -0.08103516 27.58160156 -1.5625 27.625 C-2.53316406 27.63789063 -3.50382813 27.65078125 -4.50390625 27.6640625 C-7.17037266 27.76605755 -7.17037266 27.76605755 -9 30 C-12.625 30.125 -12.625 30.125 -16 30 C-15.40864084 25.83963671 -14.00547192 22.90219716 -11.875 19.296875 C-11.25109375 18.2346875 -10.6271875 17.1725 -9.984375 16.078125 C-9.00210938 14.43070313 -9.00210938 14.43070313 -8 12.75 C-7.34515625 11.63625 -6.6903125 10.5225 -6.015625 9.375 C-1.1765253 1.1765253 -1.1765253 1.1765253 0 0 Z " fill="#0A0A0A" transform="translate(236,203)"/>
<path d="M0 0 C4.31633181 3.18586395 7.91120739 6.79612218 9.625 11.9375 C10.1885668 17.62735711 9.95296433 22.10658403 6.625 26.9375 C1.70096359 32.00426211 -2.04455153 34.00293822 -9.125 34.375 C-15.00250633 34.34027323 -18.22786586 31.87392524 -22.375 27.9375 C-22.92285156 27.43863281 -23.47070312 26.93976563 -24.03515625 26.42578125 C-27.36448154 22.72760942 -26.701339 17.55906676 -26.65625 12.88671875 C-26.15040299 7.58235075 -23.60484831 5.02093779 -19.75 1.625 C-13.99650685 -2.46300829 -6.59770222 -2.0770544 0 0 Z M-19.5 6.25 C-21.94637103 9.97235593 -22.18685282 13.80329131 -22.0078125 18.171875 C-20.92754109 22.89306114 -18.0007074 25.86959374 -14.375 28.9375 C-11.31070224 30.46964888 -8.7584358 30.16688548 -5.375 29.9375 C-0.82522584 28.03294338 1.40208378 25.30100222 3.625 20.9375 C4.49203785 16.54976302 3.97066859 13.64213213 2 9.625 C-1.95530605 5.14925895 -5.56993137 3.76733371 -11.4375 3.375 C-15.30426417 3.52663781 -16.24918836 3.84439938 -19.5 6.25 Z " fill="#0C0C0C" transform="translate(150.375,300.0625)"/>
<path d="M0 0 C0.33 0.66 0.66 1.32 1 2 C1.66 2 2.32 2 3 2 C3.50478485 4.41575607 4.00397642 6.83244361 4.5 9.25 C4.64308594 9.93191406 4.78617188 10.61382812 4.93359375 11.31640625 C5.61251049 14.64633121 6 17.58332551 6 21 C7.299375 20.979375 8.59875 20.95875 9.9375 20.9375 C11.29165633 20.91600546 12.64756083 20.92851801 14 21 C15 22 15 22 15.125 24.5 C15 27 15 27 14 28 C12.09253992 28.40080066 10.17322427 28.74587161 8.25 29.0625 C7.20328125 29.23910156 6.1565625 29.41570312 5.078125 29.59765625 C2.32535585 29.95747252 -0.23022965 30.15442964 -3 30 C-4.71584548 28.28415452 -4.59895289 25.91454764 -4.97265625 23.57421875 C-5.23852539 21.91422852 -5.23852539 21.91422852 -5.50976562 20.22070312 C-5.69216797 19.05474609 -5.87457031 17.88878906 -6.0625 16.6875 C-6.24876953 15.53314453 -6.43503906 14.37878906 -6.62695312 13.18945312 C-8 4.52366644 -8 4.52366644 -8 0 C-4.97878489 -0.97110486 -2.99536737 -1.13617383 0 0 Z " fill="#050505" transform="translate(218,110)"/>
<path d="M0 0 C2.09396342 0.68247697 4.18348783 1.37562863 6.26953125 2.08203125 C8.17731413 2.72341748 10.09209259 3.34420039 12.01171875 3.94921875 C13.49091797 4.43841797 13.49091797 4.43841797 15 4.9375 C15.928125 5.23527344 16.85625 5.53304687 17.8125 5.83984375 C20 7 20 7 20.9375 8.94140625 C21 11 21 11 19 14 C16.69 13.67 14.38 13.34 12 13 C11.68977905 13.85549438 11.68977905 13.85549438 11.37329102 14.72827148 C10.43924145 17.29907175 9.5009299 19.86829565 8.5625 22.4375 C8.23701172 23.33533203 7.91152344 24.23316406 7.57617188 25.15820312 C7.10727539 26.43920898 7.10727539 26.43920898 6.62890625 27.74609375 C6.1968689 28.93223267 6.1968689 28.93223267 5.75610352 30.14233398 C5 32 5 32 4 33 C1.66055264 32.71269945 -0.6739143 32.38063221 -3 32 C-2.42381249 26.85404946 -1.25256722 22.44921945 0.5625 17.5625 C1.01753906 16.32628906 1.47257813 15.09007812 1.94140625 13.81640625 C2.29074219 12.88699219 2.64007813 11.95757812 3 11 C2.01 11 1.02 11 0 11 C0 10.01 0 9.02 0 8 C-0.66 7.67 -1.32 7.34 -2 7 C-1.125 1.125 -1.125 1.125 0 0 Z " fill="#0B0B0B" transform="translate(172,187)"/>
<path d="M0 0 C0.99 0 1.98 0 3 0 C6.82343164 3.82343164 9.26447887 8.13698424 11.6875 12.9375 C12.00783203 13.54529297 12.32816406 14.15308594 12.65820312 14.77929688 C14.45606614 18.33285554 15.40137073 21.00901176 15 25 C12.69 25 10.38 25 8 25 C7.67 24.34 7.34 23.68 7 23 C6.30132812 23 5.60265625 23 4.8828125 23 C-0.078125 23 -5.0390625 23 -10 23 C-9.35592303 17.96814871 -7.1775132 13.76491374 -5 9.25 C-4.63132812 8.47011719 -4.26265625 7.69023437 -3.8828125 6.88671875 C-1.14835963 1.14835963 -1.14835963 1.14835963 0 0 Z " fill="#141414" transform="translate(263,159)"/>
<path d="M0 0 C2.50445821 1.54182651 2.73927731 2.53235772 3.45214844 5.34423828 C3.66484375 6.14990234 3.87753906 6.95556641 4.09667969 7.78564453 C4.30164063 8.62740234 4.50660156 9.46916016 4.71777344 10.33642578 C4.93820312 11.18591797 5.15863281 12.03541016 5.38574219 12.91064453 C5.92755363 15.00721926 6.44957289 17.10889078 6.96777344 19.21142578 C6.30777344 19.87142578 5.64777344 20.53142578 4.96777344 21.21142578 C5.13277344 22.03642578 5.29777344 22.86142578 5.46777344 23.71142578 C5.63277344 24.53642578 5.79777344 25.36142578 5.96777344 26.21142578 C3.96777344 28.21142578 3.96777344 28.21142578 0.84277344 28.33642578 C-0.58035156 28.27455078 -0.58035156 28.27455078 -2.03222656 28.21142578 C-2.65722656 25.83642578 -2.65722656 25.83642578 -3.03222656 23.21142578 C-2.37222656 22.55142578 -1.71222656 21.89142578 -1.03222656 21.21142578 C-2.02222656 20.88142578 -3.01222656 20.55142578 -4.03222656 20.21142578 C-5.24545018 17.79088232 -6.25952699 15.47928244 -7.21972656 12.96142578 C-7.62868164 11.95789063 -7.62868164 11.95789063 -8.04589844 10.93408203 C-9.49212559 7.24420924 -10.37844787 4.1814301 -10.03222656 0.21142578 C-6.02688988 -2.22038578 -4.1850071 -1.62392755 0 0 Z " fill="#090909" transform="translate(327.0322265625,194.78857421875)"/>
<path d="M0 0 C3.09244792 0.03255208 6.18489583 0.06510417 9.27734375 0.09765625 C9.27734375 7.35765625 9.27734375 14.61765625 9.27734375 22.09765625 C4.98734375 22.09765625 0.69734375 22.09765625 -3.72265625 22.09765625 C-3.74948826 18.6184389 -3.76941295 15.13942586 -3.78515625 11.66015625 C-3.79353516 10.66693359 -3.80191406 9.67371094 -3.81054688 8.65039062 C-3.81376953 7.70615234 -3.81699219 6.76191406 -3.8203125 5.7890625 C-3.82554932 4.91451416 -3.83078613 4.03996582 -3.83618164 3.13891602 C-3.6599308 -0.03018786 -3.20527528 0.11496683 0 0 Z " fill="#F6F6F6" transform="translate(261.72265625,437.90234375)"/>
<path d="M0 0 C4.36007587 2.36170776 6.41323146 5.32784819 8 10 C8.29191385 14.859507 7.73687301 18.03797134 4.75 21.9375 C-0.27493759 25.70620319 -3.6929294 26.41343761 -9.84765625 25.54296875 C-12.99690832 24.74851133 -14.79141401 23.34243969 -17 21 C-19.54060904 16.74179611 -19.55430034 12.84146703 -19 8 C-17.72781553 4.91997445 -16.44860676 3.40654988 -14 1.1875 C-9.35896635 -0.64957582 -4.92082513 -0.65956843 0 0 Z M-14.0625 5.4375 C-15.50464017 9.3793498 -15.87687897 12.87225267 -15 17 C-13.41712683 19.67075851 -11.64954506 21.39091556 -9 23 C-4.82789353 23.95610773 -3.34232421 23.19651946 0.375 21.0625 C2.93899677 18.70092403 3.46526636 16.89459225 3.625 13.4375 C3.40899408 10.19201099 3.13231707 9.17642276 1.125 6.5 C-3.28857695 3.38453392 -9.38664633 2.17857169 -14.0625 5.4375 Z " fill="#161616" transform="translate(120,346)"/>
<path d="M0 0 C6.93 0 13.86 0 21 0 C21 4.29 21 8.58 21 13 C13.74 13 6.48 13 -1 13 C-0.67 8.71 -0.34 4.42 0 0 Z " fill="#CBCBCB" transform="translate(227,443)"/>
<path d="M0 0 C5.61 0 11.22 0 17 0 C17 1.65 17 3.3 17 5 C15.35 5.33 13.7 5.66 12 6 C11.67 11.61 11.34 17.22 11 23 C9.35 23 7.7 23 6 23 C5 22 5 22 4.90234375 18.62109375 C4.90901631 17.22652923 4.92097468 15.83198257 4.9375 14.4375 C4.94201172 13.72658203 4.94652344 13.01566406 4.95117188 12.28320312 C4.96299136 10.52209987 4.98092737 8.76103964 5 7 C4.01 6.67 3.02 6.34 2 6 C1.34 5.67 0.68 5.34 0 5 C0 3.35 0 1.7 0 0 Z " fill="#0D0D0D" transform="translate(277,159)"/>
<path d="M0 0 C5.61 0 11.22 0 17 0 C17 1.65 17 3.3 17 5 C15.35 5.33 13.7 5.66 12 6 C11.67 11.61 11.34 17.22 11 23 C9.35 23 7.7 23 6 23 C5.67 17.39 5.34 11.78 5 6 C3.35 5.67 1.7 5.34 0 5 C0 3.35 0 1.7 0 0 Z " fill="#020202" transform="translate(210,159)"/>
<path d="M0 0 C0.89135742 1.64233398 0.89135742 1.64233398 1.60546875 3.74609375 C1.86650391 4.50083984 2.12753906 5.25558594 2.39648438 6.03320312 C2.65751953 6.82662109 2.91855469 7.62003906 3.1875 8.4375 C3.46013672 9.22705078 3.73277344 10.01660156 4.01367188 10.83007812 C6 16.66958412 6 16.66958412 6 19 C3.35261084 20.4606285 2.10551666 21 -1 21 C-2.17578304 18.42047597 -3.340791 15.83696062 -4.5 13.25 C-5.00080078 12.15558594 -5.00080078 12.15558594 -5.51171875 11.0390625 C-5.82753906 10.33007812 -6.14335937 9.62109375 -6.46875 8.890625 C-6.76201172 8.24125977 -7.05527344 7.59189453 -7.35742188 6.92285156 C-8 5 -8 5 -8 1 C-3.375 -1.125 -3.375 -1.125 0 0 Z " fill="#090909" transform="translate(338,189)"/>
<path d="M0 0 C0.99 0.33 1.98 0.66 3 1 C3.6875 3.0625 3.6875 3.0625 4 5 C-0.88182883 7.75385216 -5.55432314 8.97137215 -11 10 C-11 11.98 -11 13.96 -11 16 C-9.02 15.67 -7.04 15.34 -5 15 C-5.375 16.9375 -5.375 16.9375 -6 19 C-9.04983996 20.52491998 -11.6423369 20.23562548 -15 20 C-16.9375 18.5 -16.9375 18.5 -18 17 C-17.34 16.67 -16.68 16.34 -16 16 C-16.0928125 14.1128125 -16.0928125 14.1128125 -16.1875 12.1875 C-16.20826011 8.27768014 -16.20826011 8.27768014 -14.5 6 C-14.005 5.67 -13.51 5.34 -13 5 C-13.33 4.34 -13.66 3.68 -14 3 C-12.33388095 2.957279 -10.66617115 2.95936168 -9 3 C-8.67 3.33 -8.34 3.66 -8 4 C-5.32941149 4.14115161 -2.67567762 4.04247107 0 4 C0 2.68 0 1.36 0 0 Z " fill="#F3F3F3" transform="translate(314,203)"/>
<path d="M0 0 C1.9375 1.0625 1.9375 1.0625 3 3 C3.36528977 6.4093712 3.6140629 8.88023824 1.9375 11.9375 C-1.11976176 13.6140629 -3.5906288 13.36528977 -7 13 C-8.9375 11.9375 -8.9375 11.9375 -10 10 C-10.36528977 6.5906288 -10.6140629 4.11976176 -8.9375 1.0625 C-5.88023824 -0.6140629 -3.4093712 -0.36528977 0 0 Z " fill="#121212" transform="translate(213,443)"/>
<path d="M0 0 C1.65 0 3.3 0 5 0 C5.33 1.65 5.66 3.3 6 5 C6.99 5.33 7.98 5.66 9 6 C9 7.65 9 9.3 9 11 C8.01 11.33 7.02 11.66 6 12 C5.26676204 14.01508358 5.26676204 14.01508358 5 16 C3.68 16.33 2.36 16.66 1 17 C1 15.02 1 13.04 1 11 C-2.465 9.02 -2.465 9.02 -6 7 C-6 6.34 -6 5.68 -6 5 C-5.38125 4.9175 -4.7625 4.835 -4.125 4.75 C-1.81562433 4.18741541 -1.81562433 4.18741541 -0.75 1.9375 C-0.5025 1.298125 -0.255 0.65875 0 0 Z " fill="#4E4D4C" transform="translate(322,441)"/>
<path d="M0 0 C2.5 1.8125 2.5 1.8125 5 4 C5 4.99 5 5.98 5 7 C2.03 6.67 -0.94 6.34 -4 6 C-4.33 7.98 -4.66 9.96 -5 12 C-3.35 12.33 -1.7 12.66 0 13 C-0.99 14.485 -0.99 14.485 -2 16 C-8.44807122 15.39169139 -8.44807122 15.39169139 -10.9375 13.625 C-12 12 -12 12 -12 9 C-11.34 9 -10.68 9 -10 9 C-9.896875 8.236875 -9.79375 7.47375 -9.6875 6.6875 C-8.93875261 3.76057838 -8.48307071 2.68494084 -6 1 C-3.375 0.875 -3.375 0.875 -1 1 C-0.67 0.67 -0.34 0.34 0 0 Z " fill="#EDEDED" transform="translate(319,122)"/>
<path d="M0 0 C1.98 0.495 1.98 0.495 4 1 C5.65 6.94 7.3 12.88 9 19 C8.34 19.66 7.68 20.32 7 21 C7.165 21.825 7.33 22.65 7.5 23.5 C7.665 24.325 7.83 25.15 8 26 C6 28 6 28 2.875 28.125 C1.451875 28.063125 1.451875 28.063125 0 28 C-0.77341204 25.21571665 -1.17574966 23.52724898 -0.25 20.75 C1 19 1 19 4 18 C2.83445193 11.9490696 1.54656904 5.96533774 0 0 Z " fill="#C1C1C1" transform="translate(325,195)"/>
<path d="M0 0 C6.0546875 -0.1953125 6.0546875 -0.1953125 8 0 C8.66 0.66 9.32 1.32 10 2 C10.33 1.34 10.66 0.68 11 0 C11.99 0 12.98 0 14 0 C14 3.63 14 7.26 14 11 C13.01 11 12.02 11 11 11 C10.67 9.35 10.34 7.7 10 6 C9.67 7.65 9.34 9.3 9 11 C8.34 11 7.68 11 7 11 C7 9.68 7 8.36 7 7 C5.68 7 4.36 7 3 7 C3 8.32 3 9.64 3 11 C2.01 11 1.02 11 0 11 C0 7.37 0 3.74 0 0 Z " fill="#5A5A5A" transform="translate(233,372)"/>
<path d="M0 0 C2 1 2 1 3 2 C3.04092937 4.33297433 3.04241723 6.66705225 3 9 C3.33 8.67 3.66 8.34 4 8 C4 7.030625 4 6.06125 4 5.0625 C4 2 4 2 5 0 C5.66 0 6.32 0 7 0 C8.17571451 3.67410785 8.07366746 7.16929183 8 11 C7.01 11 6.02 11 5 11 C5 12.65 5 14.3 5 16 C6.32 16 7.64 16 9 16 C9 16.99 9 17.98 9 19 C5.37 19 1.74 19 -2 19 C-2 18.01 -2 17.02 -2 16 C-0.68 16 0.64 16 2 16 C2 14.35 2 12.7 2 11 C1.01 11 0.02 11 -1 11 C-1.14285714 3.57142857 -1.14285714 3.57142857 0 0 Z " fill="#9F9F9F" transform="translate(183,440)"/>
<path d="M0 0 C3.09244792 0.03255208 6.18489583 0.06510417 9.27734375 0.09765625 C9.27734375 7.35765625 9.27734375 14.61765625 9.27734375 22.09765625 C4.98734375 22.09765625 0.69734375 22.09765625 -3.72265625 22.09765625 C-3.74948826 18.6184389 -3.76941295 15.13942586 -3.78515625 11.66015625 C-3.79353516 10.66693359 -3.80191406 9.67371094 -3.81054688 8.65039062 C-3.81376953 7.70615234 -3.81699219 6.76191406 -3.8203125 5.7890625 C-3.82554932 4.91451416 -3.83078613 4.03996582 -3.83618164 3.13891602 C-3.6599308 -0.03018786 -3.20527528 0.11496683 0 0 Z M-2.72265625 3.09765625 C-2.72265625 8.37765625 -2.72265625 13.65765625 -2.72265625 19.09765625 C0.90734375 19.09765625 4.53734375 19.09765625 8.27734375 19.09765625 C8.27734375 13.81765625 8.27734375 8.53765625 8.27734375 3.09765625 C4.64734375 3.09765625 1.01734375 3.09765625 -2.72265625 3.09765625 Z " fill="#434343" transform="translate(261.72265625,437.90234375)"/>
<path d="M0 0 C6.93 0 13.86 0 21 0 C21 4.29 21 8.58 21 13 C13.74 13 6.48 13 -1 13 C-0.67 8.71 -0.34 4.42 0 0 Z M1 1 C1 3.97 1 6.94 1 10 C7.27 10 13.54 10 20 10 C20 7.03 20 4.06 20 1 C13.73 1 7.46 1 1 1 Z " fill="#2C2C2C" transform="translate(227,443)"/>
<path d="M0 0 C2.70572453 3.25644722 4.25072398 6.57530636 5.8125 10.5 C6.50279297 12.18609375 6.50279297 12.18609375 7.20703125 13.90625 C8 17 8 17 7.13671875 19.40625 C6.76160156 19.9321875 6.38648438 20.458125 6 21 C6.33 21.33 6.66 21.66 7 22 C7.04384447 23.66608987 7.0396713 25.33380554 7 27 C7 27.99 7 28.98 7 30 C1.25 29.25 1.25 29.25 -1 27 C-1.4375 24.5625 -1.4375 24.5625 -1 22 C1.5 20.1875 1.5 20.1875 4 19 C3.50357149 14.2342863 2.49849752 10.3050827 0.62109375 5.89453125 C0 4 0 4 0 0 Z " fill="#171717" transform="translate(340,190)"/>
<path d="M0 0 C0.66 0 1.32 0 2 0 C2 2.97 2 5.94 2 9 C3.98 9 5.96 9 8 9 C9.32 6.03 10.64 3.06 12 0 C13.32 0.33 14.64 0.66 16 1 C17.046875 3.28515625 17.046875 3.28515625 17.75 6.0625 C17.99234375 6.98160156 18.2346875 7.90070313 18.484375 8.84765625 C18.65453125 9.55792969 18.8246875 10.26820313 19 11 C18.01 11 17.02 11 16 11 C16 10.34 16 9.68 16 9 C14.35 9 12.7 9 11 9 C11 9.66 11 10.32 11 11 C7.37 11 3.74 11 0 11 C0 7.37 0 3.74 0 0 Z " fill="#3C3C3C" transform="translate(213,372)"/>
<path d="M0 0 C3 0.25 3 0.25 5 2.25 C5.25 5.75 5.25 5.75 5 9.25 C3 11.25 3 11.25 0 11.5 C-3 11.25 -3 11.25 -5 9.25 C-5.25 5.75 -5.25 5.75 -5 2.25 C-3 0.25 -3 0.25 0 0 Z " fill="#0E0E0E" transform="translate(293,392.75)"/>
<path d="M0 0 C3 0.25 3 0.25 5 2.25 C5.25 5.75 5.25 5.75 5 9.25 C3 11.25 3 11.25 0 11.5 C-3 11.25 -3 11.25 -5 9.25 C-5.25 5.75 -5.25 5.75 -5 2.25 C-3 0.25 -3 0.25 0 0 Z " fill="#0E0E0E" transform="translate(187,392.75)"/>
<path d="M0 0 C3 0.25 3 0.25 5 2.25 C5.34490322 6.30261287 5.30163882 7.79754176 3 11.25 C0 11.5625 0 11.5625 -3 11.25 C-5 9.25 -5 9.25 -5.25 5.75 C-4.93427155 1.32980166 -4.46370491 0.37197541 0 0 Z " fill="#111111" transform="translate(254,371.75)"/>
<path d="M0 0 C2.64 0 5.28 0 8 0 C9.04005702 3.38018531 9.08004482 6.4780279 9 10 C6.04335481 11.4783226 3.25770263 11.06032783 0 11 C0 7.37 0 3.74 0 0 Z " fill="#6A6A6A" transform="translate(287,372)"/>
<path d="M0 0 C0.33 0 0.66 0 1 0 C1 7.59 1 15.18 1 23 C0.67 23 0.34 23 0 23 C0 17.72 0 12.44 0 7 C-1.98 7 -3.96 7 -6 7 C-6 12.94 -6 18.88 -6 25 C-7.98 25 -9.96 25 -12 25 C-10.68 24.67 -9.36 24.34 -8 24 C-8.33 23.34 -8.66 22.68 -9 22 C-9.07181821 19.28239892 -9.09299506 16.59140612 -9.0625 13.875 C-9.05798828 13.12089844 -9.05347656 12.36679688 -9.04882812 11.58984375 C-9.03703499 9.72652873 -9.01909942 7.86325445 -9 6 C-6.69 6 -4.38 6 -2 6 C-2 5.01 -2 4.02 -2 3 C-1.34 3 -0.68 3 0 3 C0 2.01 0 1.02 0 0 Z " fill="#555555" transform="translate(230,159)"/>
<path d="M0 0 C2.64 0 5.28 0 8 0 C8.87867729 3.73437848 9.08912219 7.16774573 9 11 C8.01 11 7.02 11 6 11 C6 9.68 6 8.36 6 7 C4.68 7 3.36 7 2 7 C2 8.32 2 9.64 2 11 C1.34 11 0.68 11 0 11 C0 7.37 0 3.74 0 0 Z " fill="#090909" transform="translate(252,393)"/>
<path d="M0 0 C0.66 0 1.32 0 2 0 C1.67 2.31 1.34 4.62 1 7 C-1.97 6.01 -4.94 5.02 -8 4 C-8.4125 5.423125 -8.825 6.84625 -9.25 8.3125 C-10.93907022 13.96159132 -12.93259019 19.47991085 -15 25 C-17.31 24.67 -19.62 24.34 -22 24 C-22 23.34 -22 22.68 -22 22 C-20.02 22.33 -18.04 22.66 -16 23 C-15.89816406 22.34644531 -15.79632813 21.69289062 -15.69140625 21.01953125 C-14.7920704 17.09192327 -13.38367698 13.44219151 -11.9375 9.6875 C-11.51500977 8.57665039 -11.51500977 8.57665039 -11.08398438 7.44335938 C-10.39281425 5.62757345 -9.69688311 3.81360101 -9 2 C-6.36 2 -3.72 2 -1 2 C-0.67 1.34 -0.34 0.68 0 0 Z " fill="#222222" transform="translate(193,199)"/>
<path d="M0 0 C0.33 0.66 0.66 1.32 1 2 C1.66 2 2.32 2 3 2 C3 9.59 3 17.18 3 25 C1.02 25 -0.96 25 -3 25 C-1.68 24.67 -0.36 24.34 1 24 C0.67 23.34 0.34 22.68 0 22 C-0.08426094 20.3325394 -0.10725143 18.66174813 -0.09765625 16.9921875 C-0.09282227 15.51298828 -0.09282227 15.51298828 -0.08789062 14.00390625 C-0.07951172 12.97136719 -0.07113281 11.93882812 -0.0625 10.875 C-0.05798828 9.83472656 -0.05347656 8.79445312 -0.04882812 7.72265625 C-0.03701952 5.14838038 -0.02055075 2.57421854 0 0 Z " fill="#555555" transform="translate(249,159)"/>
<path d="M0 0 C0.66 0 1.32 0 2 0 C0.58859982 5.05751729 -1.20527047 9.18279919 -5.7421875 12.1328125 C-8.6781358 13.26046046 -11.11477226 13.19315712 -14.25 13.125 C-15.32765625 13.10695312 -16.4053125 13.08890625 -17.515625 13.0703125 C-18.33546875 13.04710937 -19.1553125 13.02390625 -20 13 C-20.33 12.34 -20.66 11.68 -21 11 C-19.71416016 10.88785156 -19.71416016 10.88785156 -18.40234375 10.7734375 C-11.75637075 10.00918807 -7.05721761 9.26329724 -2.171875 4.53515625 C-0.78199139 2.88643295 -0.78199139 2.88643295 0 0 Z " fill="#5C5C5C" transform="translate(329,134)"/>
<path d="M0 0 C4 1 4 1 5.25 3.0625 C5.4975 3.701875 5.745 4.34125 6 5 C6.33 3.35 6.66 1.7 7 0 C7.66 0 8.32 0 9 0 C9 3.63 9 7.26 9 11 C6 10 6 10 4 7 C3.67 8.32 3.34 9.64 3 11 C2.01 11 1.02 11 0 11 C0 7.37 0 3.74 0 0 Z " fill="#353535" transform="translate(230,393)"/>
<path d="M0 0 C1.32 0.33 2.64 0.66 4 1 C5.046875 3.28515625 5.046875 3.28515625 5.75 6.0625 C5.99234375 6.98160156 6.2346875 7.90070313 6.484375 8.84765625 C6.65453125 9.55792969 6.8246875 10.26820313 7 11 C6.01 11 5.02 11 4 11 C4 10.34 4 9.68 4 9 C2.35 9 0.7 9 -1 9 C-1 9.66 -1 10.32 -1 11 C-1.99 10.67 -2.98 10.34 -4 10 C-2.68 6.7 -1.36 3.4 0 0 Z " fill="#3A3A3A" transform="translate(266,393)"/>
<path d="M0 0 C1.32 0.33 2.64 0.66 4 1 C5.046875 3.28515625 5.046875 3.28515625 5.75 6.0625 C5.99234375 6.98160156 6.2346875 7.90070313 6.484375 8.84765625 C6.65453125 9.55792969 6.8246875 10.26820313 7 11 C6.01 11 5.02 11 4 11 C4 10.34 4 9.68 4 9 C2.35 9 0.7 9 -1 9 C-1 9.66 -1 10.32 -1 11 C-1.99 10.67 -2.98 10.34 -4 10 C-2.68 6.7 -1.36 3.4 0 0 Z " fill="#3A3A3A" transform="translate(301,372)"/>
<path d="M0 0 C2.97 0 5.94 0 9 0 C9 0.66 9 1.32 9 2 C7.02 2 5.04 2 3 2 C3 2.66 3 3.32 3 4 C4.65 4 6.3 4 8 4 C8 4.66 8 5.32 8 6 C6.35 6 4.7 6 3 6 C3 6.99 3 7.98 3 9 C4.98 9 6.96 9 9 9 C9 9.66 9 10.32 9 11 C6.03 11 3.06 11 0 11 C0 7.37 0 3.74 0 0 Z " fill="#343434" transform="translate(182,372)"/>
<path d="M0 0 C0.66 0 1.32 0 2 0 C3.32 6.6 4.64 13.2 6 20 C4.68 20 3.36 20 2 20 C0.22780424 13.73824165 -0.85093264 7.52456368 -1 1 C-0.67 0.67 -0.34 0.34 0 0 Z " fill="#6E6E6E" transform="translate(219,112)"/>
<path d="M0 0 C1.98 0 3.96 0 6 0 C6 0.33 6 0.66 6 1 C4.35 1 2.7 1 1 1 C1 2.32 1 3.64 1 5 C3.64 5.33 6.28 5.66 9 6 C9 4.35 9 2.7 9 1 C9.66 1 10.32 1 11 1 C11 2.65 11 4.3 11 6 C9.35 6.33 7.7 6.66 6 7 C6 7.99 6 8.98 6 10 C3.71296692 11.19725883 1.42115138 12.38297018 -0.875 13.5625 C-1.52597656 13.90474609 -2.17695313 14.24699219 -2.84765625 14.59960938 C-4.53529857 15.46082891 -6.26579593 16.23686703 -8 17 C-8.66 16.67 -9.32 16.34 -10 16 C-8.75146327 15.20602761 -7.50109957 14.41492783 -6.25 13.625 C-5.55390625 13.18414062 -4.8578125 12.74328125 -4.140625 12.2890625 C-2 11 -2 11 0.203125 10.0234375 C2.3489839 9.06611807 2.3489839 9.06611807 3 6 C2.01 6 1.02 6 0 6 C0 4.02 0 2.04 0 0 Z " fill="#4A4848" transform="translate(291,441)"/>
<path d="M0 0 C0.94875 0.04125 1.8975 0.0825 2.875 0.125 C3.205 1.115 3.535 2.105 3.875 3.125 C1.895 3.125 -0.085 3.125 -2.125 3.125 C-2.125 4.775 -2.125 6.425 -2.125 8.125 C-0.805 8.455 0.515 8.785 1.875 9.125 C1.875 8.465 1.875 7.805 1.875 7.125 C1.215 7.125 0.555 7.125 -0.125 7.125 C-0.125 6.465 -0.125 5.805 -0.125 5.125 C1.525 5.125 3.175 5.125 4.875 5.125 C4.875 7.105 4.875 9.085 4.875 11.125 C-1.1796875 11.3203125 -1.1796875 11.3203125 -3.125 11.125 C-5.125 9.125 -5.125 9.125 -5.375 5.625 C-5.05328869 1.12104166 -4.56738407 0.18269536 0 0 Z " fill="#181818" transform="translate(213.125,392.875)"/>
<path d="M0 0 C1.010625 0.0825 2.02125 0.165 3.0625 0.25 C3.7225 1.24 4.3825 2.23 5.0625 3.25 C2.0925 2.755 2.0925 2.755 -0.9375 2.25 C-0.9375 2.91 -0.9375 3.57 -0.9375 4.25 C0.7125 4.58 2.3625 4.91 4.0625 5.25 C4.44468767 6.90614657 4.77645102 8.57457024 5.0625 10.25 C4.0625 11.25 4.0625 11.25 0.5 11.3125 C-0.634375 11.291875 -1.76875 11.27125 -2.9375 11.25 C-3.2675 10.26 -3.5975 9.27 -3.9375 8.25 C-1.6275 8.58 0.6825 8.91 3.0625 9.25 C3.0625 8.59 3.0625 7.93 3.0625 7.25 C0.0925 6.755 0.0925 6.755 -2.9375 6.25 C-3.31968767 4.59385343 -3.65145102 2.92542976 -3.9375 1.25 C-2.9375 0.25 -2.9375 0.25 0 0 Z " fill="#303030" transform="translate(314.9375,392.75)"/>
<path d="M0 0 C0.99 0 1.98 0 3 0 C3 1.32 3 2.64 3 4 C4.32 4 5.64 4 7 4 C7 2.68 7 1.36 7 0 C7.66 0 8.32 0 9 0 C9 3.63 9 7.26 9 11 C8.34 11 7.68 11 7 11 C7 9.35 7 7.7 7 6 C5.68 6 4.36 6 3 6 C3 7.65 3 9.3 3 11 C2.01 11 1.02 11 0 11 C0 7.37 0 3.74 0 0 Z " fill="#303030" transform="translate(171,372)"/>
<path d="M0 0 C0.99 0 1.98 0 3 0 C4.6875 2.5 4.6875 2.5 6 5 C6.33 3.35 6.66 1.7 7 0 C7.66 0 8.32 0 9 0 C9 3.63 9 7.26 9 11 C4.5 8.75 4.5 8.75 3 5 C2.67 6.98 2.34 8.96 2 11 C1.34 11 0.68 11 0 11 C0 7.37 0 3.74 0 0 Z " fill="#131313" transform="translate(300,393)"/>
<path d="M0 0 C2.64 0 5.28 0 8 0 C8 0.66 8 1.32 8 2 C6.35 2 4.7 2 3 2 C3 2.66 3 3.32 3 4 C4.65 4 6.3 4 8 4 C8 4.66 8 5.32 8 6 C6.02 6 4.04 6 2 6 C2 6.99 2 7.98 2 9 C4.31 9 6.62 9 9 9 C9 9.66 9 10.32 9 11 C6.03 11 3.06 11 0 11 C0 7.37 0 3.74 0 0 Z " fill="#181818" transform="translate(220,393)"/>
<path d="M0 0 C2.74368421 3.38528421 4.7325224 7.06427716 6.6875 10.9375 C7.00783203 11.54529297 7.32816406 12.15308594 7.65820312 12.77929688 C9.45606614 16.33285554 10.40137073 19.00901176 10 23 C7.69 23 5.38 23 3 23 C4.32 22.34 5.64 21.68 7 21 C6.50628906 19.87980469 6.01257813 18.75960937 5.50390625 17.60546875 C4.85670132 16.13284305 4.20956973 14.66018511 3.5625 13.1875 C3.23701172 12.44951172 2.91152344 11.71152344 2.57617188 10.95117188 C2.26357422 10.23896484 1.95097656 9.52675781 1.62890625 8.79296875 C1.34088135 8.1383667 1.05285645 7.48376465 0.75610352 6.80932617 C0.09806016 5.23465413 -0.46031369 3.61905892 -1 2 C-0.67 1.34 -0.34 0.68 0 0 Z " fill="#555555" transform="translate(268,161)"/>
<path d="M0 0 C1.3303125 0.13341797 1.3303125 0.13341797 2.6875 0.26953125 C4.0178125 0.38361328 4.0178125 0.38361328 5.375 0.5 C7.6875 1.08203125 7.6875 1.08203125 9.6875 4.08203125 C5.18396738 5.83950739 1.51110189 6.27497533 -3.3125 6.08203125 C-3.9375 4.20703125 -3.9375 4.20703125 -4.3125 2.08203125 C-2.3125 0.08203125 -2.3125 0.08203125 0 0 Z " fill="#E1E1E1" transform="translate(193.3125,120.91796875)"/>
<path d="M0 0 C0.66 0 1.32 0 2 0 C2.33 2.64 2.66 5.28 3 8 C3.99 8.33 4.98 8.66 6 9 C6 6.03 6 3.06 6 0 C6.99 0 7.98 0 9 0 C9.05399736 1.45792884 9.09279177 2.91642712 9.125 4.375 C9.14820313 5.18710937 9.17140625 5.99921875 9.1953125 6.8359375 C9 9 9 9 7 11 C3.9375 11.1875 3.9375 11.1875 1 11 C0 10 0 10 -0.09765625 7.71484375 C-0.08605469 6.79832031 -0.07445312 5.88179688 -0.0625 4.9375 C-0.05347656 4.01839844 -0.04445313 3.09929687 -0.03515625 2.15234375 C-0.02355469 1.44207031 -0.01195312 0.73179687 0 0 Z " fill="#1F1F1F" transform="translate(261,372)"/>
<path d="M0 0 C1.65 0 3.3 0 5 0 C6.54163175 3.0832635 6.29747535 5.60878099 6 9 C4 10.9375 4 10.9375 2 12 C1.34 11.67 0.68 11.34 0 11 C0.185625 10.195625 0.37125 9.39125 0.5625 8.5625 C0.706875 7.716875 0.85125 6.87125 1 6 C0.67 5.67 0.34 5.34 0 5 C-0.04063832 3.33382885 -0.042721 1.66611905 0 0 Z " fill="#646464" transform="translate(210,444)"/>
<path d="M0 0 C1.98 0 3.96 0 6 0 C6.33 0.99 6.66 1.98 7 3 C4.03 2.505 4.03 2.505 1 2 C1 2.66 1 3.32 1 4 C3.31 4.66 5.62 5.32 8 6 C7.125 9.875 7.125 9.875 6 11 C4.00041636 11.04080783 1.99954746 11.04254356 0 11 C-0.33 10.01 -0.66 9.02 -1 8 C1.97 8.495 1.97 8.495 5 9 C3.60804085 6.2160817 1.84424221 6.02101003 -1 5 C-0.67 3.35 -0.34 1.7 0 0 Z " fill="#141414" transform="translate(273,372)"/>
<path d="M0 0 C2.64 0 5.28 0 8 0 C8 0.66 8 1.32 8 2 C6.02 2 4.04 2 2 2 C2 2.66 2 3.32 2 4 C3.65 4 5.3 4 7 4 C7 4.66 7 5.32 7 6 C5.35 6 3.7 6 2 6 C2 6.99 2 7.98 2 9 C3.98 9 5.96 9 8 9 C8 9.66 8 10.32 8 11 C5.36 11 2.72 11 0 11 C0 7.37 0 3.74 0 0 Z " fill="#0B0B0B" transform="translate(242,393)"/>
<path d="M0 0 C2.64 0 5.28 0 8 0 C8 0.66 8 1.32 8 2 C6.02 2 4.04 2 2 2 C2 2.66 2 3.32 2 4 C3.65 4 5.3 4 7 4 C7 4.66 7 5.32 7 6 C5.35 6 3.7 6 2 6 C2 6.99 2 7.98 2 9 C3.98 9 5.96 9 8 9 C8 9.66 8 10.32 8 11 C5.36 11 2.72 11 0 11 C0 7.37 0 3.74 0 0 Z " fill="#0B0B0B" transform="translate(338,372)"/>
<path d="M0 0 C-0.33 1.32 -0.66 2.64 -1 4 C-3.97 4 -6.94 4 -10 4 C-10 4.66 -10 5.32 -10 6 C-12.64 6 -15.28 6 -18 6 C-17.443125 5.7525 -16.88625 5.505 -16.3125 5.25 C-13.86711132 4.06357664 -13.86711132 4.06357664 -11.8125 1.875 C-7.887169 -0.74188733 -4.58458848 -0.35957557 0 0 Z " fill="#737373" transform="translate(254,132)"/>
<path d="M0 0 C0.66 0 1.32 0 2 0 C1.71976661 3.52183993 1.42374735 7.04218608 1.125 10.5625 C1.04636719 11.55314453 0.96773438 12.54378906 0.88671875 13.56445312 C0.42072335 18.95924602 -0.28398145 23.8591545 -2 29 C-2.99 28.67 -3.98 28.34 -5 28 C-4.34 27.34 -3.68 26.68 -3 26 C-2.88154633 22.83876766 -2.95713767 19.74370689 -3.078125 16.5859375 C-3.16825719 12.77034159 -2.94119805 10.28398166 -1 7 C-0.61250787 4.67504723 -0.27017161 2.34148732 0 0 Z " fill="#262626" transform="translate(296,113)"/>
<path d="M0 0 C0.66 0 1.32 0 2 0 C2 1.32 2 2.64 2 4 C3.65 4 5.3 4 7 4 C7 2.68 7 1.36 7 0 C7.66 0 8.32 0 9 0 C9 3.63 9 7.26 9 11 C8.34 11 7.68 11 7 11 C7 9.35 7 7.7 7 6 C5.35 6 3.7 6 2 6 C2 7.65 2 9.3 2 11 C1.34 11 0.68 11 0 11 C0 7.37 0 3.74 0 0 Z " fill="#020202" transform="translate(197,372)"/>
<path d="M0 0 C0.94875 0.04125 1.8975 0.0825 2.875 0.125 C3.5 2.5 3.5 2.5 3.875 5.125 C1.875 7.125 1.875 7.125 -1.25 7.25 C-2.673125 7.188125 -2.673125 7.188125 -4.125 7.125 C-4.75 4.75 -4.75 4.75 -5.125 2.125 C-3.125 0.125 -3.125 0.125 0 0 Z " fill="#0A0A0A" transform="translate(329.125,215.875)"/>
<path d="M0 0 C1.5778125 0.4021875 1.5778125 0.4021875 3.1875 0.8125 C2.8575 1.8025 2.5275 2.7925 2.1875 3.8125 C1.0428125 3.7196875 1.0428125 3.7196875 -0.125 3.625 C-2.80469029 3.576467 -2.80469029 3.576467 -4.5625 5.0625 C-5.94188223 6.75966546 -5.94188223 6.75966546 -6.3125 8.9375 C-6.4775 9.55625 -6.6425 10.175 -6.8125 10.8125 C-7.8025 11.1425 -8.7925 11.4725 -9.8125 11.8125 C-9.56714515 7.64146759 -9.12704995 5.25657052 -6.6875 1.8125 C-3.8125 -0.1875 -3.8125 -0.1875 0 0 Z " fill="#737373" transform="translate(315.8125,120.1875)"/>
<path d="M0 0 C-0.804375 0.495 -1.60875 0.99 -2.4375 1.5 C-5.98088338 4.95695939 -5.7573941 7.14788209 -6 12 C-6.99 12 -7.98 12 -9 12 C-10.34622701 5.75840203 -10.34622701 5.75840203 -8.6875 2.125 C-5.82391078 -1.48100124 -4.24558824 -1.00553406 0 0 Z " fill="#AEAEAE" transform="translate(304,207)"/>
<path d="M0 0 C3.96 0 7.92 0 12 0 C11.67 1.32 11.34 2.64 11 4 C4.375 5.125 4.375 5.125 1 4 C0.67 2.68 0.34 1.36 0 0 Z " fill="#A5A5A5" transform="translate(189,133)"/>
<path d="M0 0 C0.99 0 1.98 0 3 0 C3 1.65 3 3.3 3 5 C4.32 5 5.64 5 7 5 C7 5.99 7 6.98 7 8 C3.37 8 -0.26 8 -4 8 C-4 7.01 -4 6.02 -4 5 C-2.68 5 -1.36 5 0 5 C0 3.35 0 1.7 0 0 Z " fill="#828282" transform="translate(185,451)"/>
<path d="M0 0 C2.64 0 5.28 0 8 0 C8 0.66 8 1.32 8 2 C6.35 2 4.7 2 3 2 C3 2.66 3 3.32 3 4 C4.65 4 6.3 4 8 4 C8 4.66 8 5.32 8 6 C6.02 6 4.04 6 2 6 C2 7.65 2 9.3 2 11 C1.34 11 0.68 11 0 11 C0 7.37 0 3.74 0 0 Z " fill="#232323" transform="translate(194,393)"/>
<path d="M0 0 C0.66 0.33 1.32 0.66 2 1 C3.48463768 7.85217391 3.48463768 7.85217391 1.8125 11.8125 C-1.48591792 15.79334922 -3.60149919 17.09840821 -8.75 17.6875 C-10.16570961 17.80395353 -11.58222818 17.91214662 -13 18 C-10.65848007 16.82165412 -8.31091141 15.67655025 -5.9375 14.5625 C-2.47802633 12.80350772 -2.47802633 12.80350772 0 10 C0.25265405 6.90498792 0.39935013 4.79870027 -1 2 C-0.67 1.34 -0.34 0.68 0 0 Z " fill="#383838" transform="translate(209,129)"/>
<path d="M0 0 C0.33 0 0.66 0 1 0 C1 3.3 1 6.6 1 10 C-1.64 9.67 -4.28 9.34 -7 9 C-7 8.01 -7 7.02 -7 6 C-5.02 6 -3.04 6 -1 6 C-1 5.34 -1 4.68 -1 4 C-2.65 4 -4.3 4 -6 4 C-6 3.34 -6 2.68 -6 2 C-4.02 2 -2.04 2 0 2 C0 1.34 0 0.68 0 0 Z " fill="#F2F2F2" transform="translate(229,393)"/>
<path d="M0 0 C2.97 0 5.94 0 9 0 C9 0.66 9 1.32 9 2 C8.01 2 7.02 2 6 2 C6 4.97 6 7.94 6 11 C5.01 11 4.02 11 3 11 C3 8.03 3 5.06 3 2 C2.01 2 1.02 2 0 2 C0 1.34 0 0.68 0 0 Z " fill="#282828" transform="translate(318,372)"/>
<path d="M0 0 C2.97 0 5.94 0 9 0 C9 0.66 9 1.32 9 2 C8.01 2 7.02 2 6 2 C6 4.97 6 7.94 6 11 C5.01 11 4.02 11 3 11 C3 8.03 3 5.06 3 2 C2.01 2 1.02 2 0 2 C0 1.34 0 0.68 0 0 Z " fill="#282828" transform="translate(161,372)"/>
<path d="M0 0 C0.33 0.66 0.66 1.32 1 2 C1.66 2 2.32 2 3 2 C3 2.66 3 3.32 3 4 C1.35 4 -0.3 4 -2 4 C-2.144375 5.093125 -2.28875 6.18625 -2.4375 7.3125 C-3 11 -3 11 -4 14 C-6.31 14 -8.62 14 -11 14 C-11.33 13.34 -11.66 12.68 -12 12 C-9.69 12 -7.38 12 -5 12 C-4.34 8.37 -3.68 4.74 -3 1 C-2.01 0.67 -1.02 0.34 0 0 Z " fill="#2C2C2C" transform="translate(203,216)"/>
<path d="M0 0 C0.99 0 1.98 0 3 0 C3 2.97 3 5.94 3 9 C4.65 9 6.3 9 8 9 C8 9.66 8 10.32 8 11 C5.36 11 2.72 11 0 11 C0 7.37 0 3.74 0 0 Z " fill="#282828" transform="translate(328,372)"/>
<path d="M0 0 C2.73251686 3.27098341 4.21683758 6.59882422 5.75 10.5625 C6.42289062 12.26599609 6.42289062 12.26599609 7.109375 14.00390625 C8 17 8 17 7 20 C5.35 20.33 3.7 20.66 2 21 C2.66 20.34 3.32 19.68 4 19 C3.71379813 14.22996881 2.47100761 10.24050113 0.62109375 5.89453125 C0 4 0 4 0 0 Z " fill="#373737" transform="translate(340,190)"/>
<path d="M0 0 C1.32 0.66 2.64 1.32 4 2 C4 3.65 4 5.3 4 7 C3.01 7.33 2.02 7.66 1 8 C1 8.99 1 9.98 1 11 C0.34 11 -0.32 11 -1 11 C-1.66 8.69 -2.32 6.38 -3 4 C-1.68 4 -0.36 4 1 4 C0.01 3.34 -0.98 2.68 -2 2 C-1.34 1.34 -0.68 0.68 0 0 Z " fill="#262523" transform="translate(327,445)"/>
<path d="M0 0 C1.98 0 3.96 0 6 0 C6 0.66 6 1.32 6 2 C5.01 2 4.02 2 3 2 C3 4.97 3 7.94 3 11 C1.02 11 -0.96 11 -3 11 C-1.68 10.67 -0.36 10.34 1 10 C0.67 9.34 0.34 8.68 0 8 C-0.13415472 5.3276379 -0.04318541 2.67749512 0 0 Z " fill="#535353" transform="translate(236,173)"/>
<path d="M0 0 C2.64 0 5.28 0 8 0 C8 0.33 8 0.66 8 1 C6.02 1 4.04 1 2 1 C2 2.32 2 3.64 2 5 C2.99 5.33 3.98 5.66 5 6 C4.01 6 3.02 6 2 6 C2 6.99 2 7.98 2 9 C3.32 9 4.64 9 6 9 C6 9.66 6 10.32 6 11 C4.02 11 2.04 11 0 11 C0 7.37 0 3.74 0 0 Z " fill="#040404" transform="translate(287,372)"/>
<path d="M0 0 C0 1.65 0 3.3 0 5 C-2.64 4.67 -5.28 4.34 -8 4 C-8 2.68 -8 1.36 -8 0 C-4.71303767 -0.79953138 -3.28976808 -1.09658936 0 0 Z " fill="#EEEEEE" transform="translate(300,442)"/>
<path d="M0 0 C1.65 0 3.3 0 5 0 C5 0.66 5 1.32 5 2 C5.66 2.33 6.32 2.66 7 3 C7 4.98 7 6.96 7 9 C6.01 9 5.02 9 4 9 C4 7.68 4 6.36 4 5 C2.68 4.67 1.36 4.34 0 4 C0 2.68 0 1.36 0 0 Z " fill="#717171" transform="translate(254,395)"/>
<path d="M0 0 C1.67542976 0.28604898 3.34385343 0.61781233 5 1 C5 2.65 5 4.3 5 6 C3.34385343 6.38218767 1.67542976 6.71395102 0 7 C-1 6 -1 6 -1.125 3.5 C-1 1 -1 1 0 0 Z " fill="#EFEFEF" transform="translate(291,395)"/>
<path d="M0 0 C1.67542976 0.28604898 3.34385343 0.61781233 5 1 C5 2.65 5 4.3 5 6 C3.34385343 6.38218767 1.67542976 6.71395102 0 7 C-1 6 -1 6 -1.125 3.5 C-1 1 -1 1 0 0 Z " fill="#EFEFEF" transform="translate(185,395)"/>
<path d="M0 0 C0.33 1.32 0.66 2.64 1 4 C3.31 3.34 5.62 2.68 8 2 C8 4.64 8 7.28 8 10 C7.34 10 6.68 10 6 10 C6 8.68 6 7.36 6 6 C4.68 6 3.36 6 2 6 C2 7.32 2 8.64 2 10 C1.34 10 0.68 10 0 10 C0 6.7 0 3.4 0 0 Z " fill="#111111" transform="translate(234,373)"/>
<path d="M0 0 C1.67542976 0.28604898 3.34385343 0.61781233 5 1 C5 2.65 5 4.3 5 6 C3.34385343 6.38218767 1.67542976 6.71395102 0 7 C-1 6 -1 6 -1.125 3.5 C-1 1 -1 1 0 0 Z " fill="#ECECEC" transform="translate(252,374)"/>
<path d="M0 0 C2 2 2 2 2.1953125 5.0390625 C2.17210937 6.22242188 2.14890625 7.40578125 2.125 8.625 C2.10695313 9.81351563 2.08890625 11.00203125 2.0703125 12.2265625 C2.04710937 13.14179688 2.02390625 14.05703125 2 15 C-0.31 15 -2.62 15 -5 15 C-5 14.34 -5 13.68 -5 13 C-3.35 13 -1.7 13 0 13 C0 8.71 0 4.42 0 0 Z " fill="#282828" transform="translate(265,223)"/>
<path d="M0 0 C0.66 0.66 1.32 1.32 2 2 C-0.99503933 7.49090543 -4.17629358 9.78198681 -10 12 C-11.3271564 12.3571341 -12.65928094 12.69773968 -14 13 C-14 12.34 -14 11.68 -14 11 C-15.32 10.67 -16.64 10.34 -18 10 C-16.78763672 9.87044922 -16.78763672 9.87044922 -15.55078125 9.73828125 C-8.59316282 9.06508918 -8.59316282 9.06508918 -2.8125 5.5625 C-0.86107443 3.06598637 -0.86107443 3.06598637 0 0 Z " fill="#AEAEAE" transform="translate(316,220)"/>
<path d="M0 0 C0.33 0 0.66 0 1 0 C1.38750411 5.94172964 0.53456392 11.55538121 -2 17 C-5.13349732 18.04449911 -5.98968256 17.93423645 -9 17 C-9 16.34 -9 15.68 -9 15 C-7.35 15 -5.7 15 -4 15 C-2.68 10.05 -1.36 5.1 0 0 Z " fill="#202020" transform="translate(218,217)"/>
<path d="M0 0 C0.33 0 0.66 0 1 0 C1.02685938 2.14576637 1.04633088 4.29162645 1.0625 6.4375 C1.07410156 7.63246094 1.08570313 8.82742187 1.09765625 10.05859375 C1 13 1 13 0 14 C-2.33297433 14.04092937 -4.66705225 14.04241723 -7 14 C-7 13.34 -7 12.68 -7 12 C-5.02 12 -3.04 12 -1 12 C-1.09539062 11.38511719 -1.19078125 10.77023438 -1.2890625 10.13671875 C-1.39992188 9.32847656 -1.51078125 8.52023438 -1.625 7.6875 C-1.74101562 6.88699219 -1.85703125 6.08648437 -1.9765625 5.26171875 C-2 3 -2 3 0 0 Z " fill="#2D2D2D" transform="translate(276,126)"/>
<path d="M0 0 C2.3828125 0.0234375 2.3828125 0.0234375 5.125 0.375 C6.03507813 0.48585937 6.94515625 0.59671875 7.8828125 0.7109375 C8.58148438 0.80632812 9.28015625 0.90171875 10 1 C10 1.33 10 1.66 10 2 C9.37351563 2.04898438 8.74703125 2.09796875 8.1015625 2.1484375 C6.87566406 2.26058594 6.87566406 2.26058594 5.625 2.375 C4.81289062 2.44460937 4.00078125 2.51421875 3.1640625 2.5859375 C0.79665809 2.82892588 0.79665809 2.82892588 -1 5 C-3.68839385 5.26991906 -6.29141936 5.08737357 -9 5 C-9 4.34 -9 3.68 -9 3 C-7.88625 2.87625 -6.7725 2.7525 -5.625 2.625 C-1.96896323 2.3534187 -1.96896323 2.3534187 0 0 Z " fill="#282828" transform="translate(230,231)"/>
<path d="M0 0 C0.33 0 0.66 0 1 0 C1 3.63 1 7.26 1 11 C0.34 11 -0.32 11 -1 11 C-1 10.34 -1 9.68 -1 9 C-2.98 9 -4.96 9 -7 9 C-7 8.01 -7 7.02 -7 6 C-5.35 6 -3.7 6 -2 6 C-1.34 4.02 -0.68 2.04 0 0 Z " fill="#ECECEC" transform="translate(251,393)"/>
<path d="M0 0 C2 1 2 1 2.68603516 2.76586914 C2.88503418 3.51473389 3.0840332 4.26359863 3.2890625 5.03515625 C3.50820313 5.84404297 3.72734375 6.65292969 3.953125 7.48632812 C4.17484375 8.33646484 4.3965625 9.18660156 4.625 10.0625 C4.85445313 10.91650391 5.08390625 11.77050781 5.3203125 12.65039062 C5.88739162 14.76512317 6.44692622 16.88156939 7 19 C6.01 19.33 5.02 19.66 4 20 C3.32923511 17.23010036 2.66323683 14.45920258 2 11.6875 C1.80921875 10.90181641 1.6184375 10.11613281 1.421875 9.30664062 C1.24140625 8.54931641 1.0609375 7.79199219 0.875 7.01171875 C0.70742188 6.31522217 0.53984375 5.61872559 0.3671875 4.90112305 C0 3 0 3 0 0 Z " fill="#232323" transform="translate(327,195)"/>
<path d="M0 0 C3.96 0 7.92 0 12 0 C12 0.99 12 1.98 12 3 C8.04 3 4.08 3 0 3 C0 2.01 0 1.02 0 0 Z " fill="#030303" transform="translate(259,457)"/>
<path d="M0 0 C1.134375 0.020625 2.26875 0.04125 3.4375 0.0625 C3.4375 0.7225 3.4375 1.3825 3.4375 2.0625 C1.7875 2.3925 0.1375 2.7225 -1.5625 3.0625 C-1.5625 3.7225 -1.5625 4.3825 -1.5625 5.0625 C-0.9025 5.0625 -0.2425 5.0625 0.4375 5.0625 C0.4375 5.7225 0.4375 6.3825 0.4375 7.0625 C-1.2125 6.7325 -2.8625 6.4025 -4.5625 6.0625 C-4.605221 4.39638095 -4.60313832 2.72867115 -4.5625 1.0625 C-3.5625 0.0625 -3.5625 0.0625 0 0 Z " fill="#EFEFEF" transform="translate(214.5625,394.9375)"/>
<path d="M0 0 C2.64 0 5.28 0 8 0 C8 0.66 8 1.32 8 2 C7.01 2 6.02 2 5 2 C5 4.97 5 7.94 5 11 C4.34 11 3.68 11 3 11 C3 8.03 3 5.06 3 2 C2.01 2 1.02 2 0 2 C0 1.34 0 0.68 0 0 Z " fill="#070707" transform="translate(274,393)"/>
<path d="M0 0 C2.64 0 5.28 0 8 0 C8 0.66 8 1.32 8 2 C7.01 2 6.02 2 5 2 C5 4.97 5 7.94 5 11 C4.34 11 3.68 11 3 11 C3 8.03 3 5.06 3 2 C2.01 2 1.02 2 0 2 C0 1.34 0 0.68 0 0 Z " fill="#070707" transform="translate(309,372)"/>
<path d="M0 0 C0.99 0 1.98 0 3 0 C3 3.63 3 7.26 3 11 C2.01 11 1.02 11 0 11 C0 7.37 0 3.74 0 0 Z " fill="#383838" transform="translate(208,372)"/>
<path d="M0 0 C2.9375 0.375 2.9375 0.375 6 1 C6.33 1.66 6.66 2.32 7 3 C5.68 3 4.36 3 3 3 C3.66 5.31 4.32 7.62 5 10 C3.68 10.33 2.36 10.66 1 11 C1.020625 10.113125 1.04125 9.22625 1.0625 8.3125 C1.00713781 5.37830369 0.6694266 2.84506304 0 0 Z " fill="#959594" transform="translate(322,447)"/>
<path d="M0 0 C0.66 0 1.32 0 2 0 C2 2.97 2 5.94 2 9 C3.65 9 5.3 9 7 9 C7 9.66 7 10.32 7 11 C4.69 11 2.38 11 0 11 C0 7.37 0 3.74 0 0 Z " fill="#000000" transform="translate(213,372)"/>
<path d="M0 0 C0.66 0 1.32 0 2 0 C3.17571451 3.67410785 3.07366746 7.16929183 3 11 C2.01 10.67 1.02 10.34 0 10 C0.33 9.67 0.66 9.34 1 9 C0.34 8.67 -0.32 8.34 -1 8 C-1.125 2.25 -1.125 2.25 0 0 Z " fill="#979797" transform="translate(188,440)"/>
<path d="M0 0 C0.99 0 1.98 0 3 0 C3.36625971 4.51720311 3.36625971 4.51720311 1.625 6.8125 C0 8 0 8 -2 8 C-1.125 1.125 -1.125 1.125 0 0 Z " fill="#EAEAEA" transform="translate(206,444)"/>
<path d="M0 0 C0.33 0 0.66 0 1 0 C1 1.98 1 3.96 1 6 C3.64 6.33 6.28 6.66 9 7 C9 7.66 9 8.32 9 9 C7.88625 8.95875 6.7725 8.9175 5.625 8.875 C1.95633975 8.58878141 1.95633975 8.58878141 0 11 C0 7.37 0 3.74 0 0 Z " fill="#DCDCDC" transform="translate(309,393)"/>
<path d="M0 0 C1.32 0.33 2.64 0.66 4 1 C4.33 3.31 4.66 5.62 5 8 C2.5 6.8125 2.5 6.8125 0 5 C-0.3125 2.3125 -0.3125 2.3125 0 0 Z " fill="#EDEDED" transform="translate(210,444)"/>
<path d="M0 0 C2.31 0 4.62 0 7 0 C7 0.33 7 0.66 7 1 C5.35 1 3.7 1 2 1 C2 1.99 2 2.98 2 4 C3.98 4 5.96 4 8 4 C8 4.66 8 5.32 8 6 C5.36 6 2.72 6 0 6 C0 4.02 0 2.04 0 0 Z " fill="#0A0A0A" transform="translate(183,377)"/>
<path d="M0 0 C0.99 0.33 1.98 0.66 3 1 C3.6875 3.0625 3.6875 3.0625 4 5 C-1.75 8 -1.75 8 -4 8 C-3.67 6.68 -3.34 5.36 -3 4 C-2.01 4 -1.02 4 0 4 C0 2.68 0 1.36 0 0 Z " fill="#838383" transform="translate(314,203)"/>
<path d="M0 0 C0.66 0 1.32 0 2 0 C2 3.63 2 7.26 2 11 C1.01 10.67 0.02 10.34 -1 10 C-1.6875 7.9375 -1.6875 7.9375 -2 6 C-1.34 6 -0.68 6 0 6 C0 4.02 0 2.04 0 0 Z " fill="#151515" transform="translate(237,393)"/>
<path d="M0 0 C0.99 0.33 1.98 0.66 3 1 C2.125 4.875 2.125 4.875 1 6 C-0.99958364 6.04080783 -3.00045254 6.04254356 -5 6 C-5.33 5.01 -5.66 4.02 -6 3 C-3.03 3.495 -3.03 3.495 0 4 C-0.33 3.01 -0.66 2.02 -1 1 C-0.67 0.67 -0.34 0.34 0 0 Z " fill="#222222" transform="translate(278,377)"/>
<path d="M0 0 C0.99 0.66 1.98 1.32 3 2 C3 3.32 3 4.64 3 6 C0.69 6.33 -1.62 6.66 -4 7 C-4 6.01 -4 5.02 -4 4 C-2.68 4 -1.36 4 0 4 C-0.33 3.01 -0.66 2.02 -1 1 C-0.67 0.67 -0.34 0.34 0 0 Z " fill="#5D5D5D" transform="translate(204,117)"/>
<path d="M0 0 C0.66 0.33 1.32 0.66 2 1 C1.34 3.31 0.68 5.62 0 8 C1.65 7.67 3.3 7.34 5 7 C5 8.32 5 9.64 5 11 C4.01 11.33 3.02 11.66 2 12 C0.5 10.9375 0.5 10.9375 -1 9 C-1.43076923 2.86153846 -1.43076923 2.86153846 0 0 Z " fill="#656565" transform="translate(204,444)"/>
<path d="M0 0 C0.66 0.99 1.32 1.98 2 3 C4.55183404 4.20450304 4.55183404 4.20450304 7 5 C7 5.66 7 6.32 7 7 C4.69 7 2.38 7 0 7 C-1.125 2.25 -1.125 2.25 0 0 Z " fill="#E4E4E4" transform="translate(271,374)"/>
<path d="M0 0 C1.65 0 3.3 0 5 0 C5 1.98 5 3.96 5 6 C2.03 5.505 2.03 5.505 -1 5 C-0.01 4.67 0.98 4.34 2 4 C2 3.34 2 2.68 2 2 C1.34 2 0.68 2 0 2 C0 1.34 0 0.68 0 0 Z " fill="#202020" transform="translate(213,398)"/>
<path d="M0 0 C0.66 0 1.32 0 2 0 C2 1.65 2 3.3 2 5 C2.99 5.33 3.98 5.66 5 6 C4.01 6 3.02 6 2 6 C2 7.65 2 9.3 2 11 C1.34 11 0.68 11 0 11 C0 7.37 0 3.74 0 0 Z " fill="#0B0B0B" transform="translate(197,372)"/>
<path d="M0 0 C0.66 0 1.32 0 2 0 C2 3.63 2 7.26 2 11 C1.34 11 0.68 11 0 11 C0 9.35 0 7.7 0 6 C-0.99 5.67 -1.98 5.34 -3 5 C-2.01 5 -1.02 5 0 5 C0 3.35 0 1.7 0 0 Z " fill="#010101" transform="translate(178,372)"/>
<path d="M0 0 C0.99 0 1.98 0 3 0 C2.88590407 1.45922693 2.75834456 2.91740598 2.625 4.375 C2.55539063 5.18710938 2.48578125 5.99921875 2.4140625 6.8359375 C2 9 2 9 0 11 C0 7.37 0 3.74 0 0 Z " fill="#494949" transform="translate(219,205)"/>
<path d="M0 0 C2.475 0.495 2.475 0.495 5 1 C5 6.28 5 11.56 5 17 C4.67 17 4.34 17 4 17 C4 12.38 4 7.76 4 3 C2.68 2.34 1.36 1.68 0 1 C0 0.67 0 0.34 0 0 Z " fill="#B7B7B7" transform="translate(211,164)"/>
<path d="M0 0 C0.66 0 1.32 0 2 0 C2 3.63 2 7.26 2 11 C1.01 10.67 0.02 10.34 -1 10 C-0.67 6.7 -0.34 3.4 0 0 Z " fill="#000000" transform="translate(307,393)"/>
<path d="M0 0 C0.99 0.33 1.98 0.66 3 1 C2.67 2.65 2.34 4.3 2 6 C0.35 6 -1.3 6 -3 6 C-3.33 5.01 -3.66 4.02 -4 3 C-2.68 3 -1.36 3 0 3 C0 2.01 0 1.02 0 0 Z " fill="#959595" transform="translate(329,124)"/>
<path d="M0 0 C0.99 0.33 1.98 0.66 3 1 C3.6875 3.0625 3.6875 3.0625 4 5 C2.35 5.33 0.7 5.66 -1 6 C-0.67 4.02 -0.34 2.04 0 0 Z " fill="#ADADAD" transform="translate(247,120)"/>
<path d="M0 0 C2.32472205 2.85306797 3.7508258 5.54074837 5 9 C4.34 9.66 3.68 10.32 3 11 C2.30300448 9.54618103 1.61766134 8.08677047 0.9375 6.625 C0.55464844 5.81289062 0.17179687 5.00078125 -0.22265625 4.1640625 C-0.47917969 3.44992188 -0.73570312 2.73578125 -1 2 C-0.67 1.34 -0.34 0.68 0 0 Z " fill="#646464" transform="translate(268,161)"/>
<path d="M0 0 C2.64 0 5.28 0 8 0 C7.67 0.99 7.34 1.98 7 3 C5.02 3 3.04 3 1 3 C0.67 2.01 0.34 1.02 0 0 Z " fill="#0A0A0A" transform="translate(227,453)"/>
<path d="M0 0 C2.875 -0.1875 2.875 -0.1875 6 0 C6.66 0.99 7.32 1.98 8 3 C6.906875 2.979375 5.81375 2.95875 4.6875 2.9375 C1.05615809 2.81455548 1.05615809 2.81455548 -2 4 C-1.34 2.68 -0.68 1.36 0 0 Z " fill="#1A1A1A" transform="translate(290,393)"/>
<path d="M0 0 C2.875 -0.1875 2.875 -0.1875 6 0 C6.66 0.99 7.32 1.98 8 3 C6.906875 2.979375 5.81375 2.95875 4.6875 2.9375 C1.05615809 2.81455548 1.05615809 2.81455548 -2 4 C-1.34 2.68 -0.68 1.36 0 0 Z " fill="#1A1A1A" transform="translate(184,393)"/>
<path d="M0 0 C0.86625 0.37125 0.86625 0.37125 1.75 0.75 C0.574375 1.2759375 0.574375 1.2759375 -0.625 1.8125 C-4.08547272 4.36665844 -4.39536744 6.63222494 -5.25 10.75 C-5.58 10.75 -5.91 10.75 -6.25 10.75 C-6.73514851 4.44306931 -6.73514851 4.44306931 -4.5 1.25 C-2.25 -0.25 -2.25 -0.25 0 0 Z " fill="#212121" transform="translate(302.25,207.25)"/>
<path d="M0 0 C0.99 0.33 1.98 0.66 3 1 C5.05893621 1.22325814 7.12233653 1.40705759 9.1875 1.5625 C10.27417969 1.64628906 11.36085937 1.73007812 12.48046875 1.81640625 C13.72763672 1.90728516 13.72763672 1.90728516 15 2 C15 2.33 15 2.66 15 3 C10.05 3 5.1 3 0 3 C0 2.01 0 1.02 0 0 Z " fill="#FFFFFF" transform="translate(228,449)"/>
<path d="M0 0 C0.94875 0.04125 1.8975 0.0825 2.875 0.125 C2.545 0.785 2.215 1.445 1.875 2.125 C1.235625 2.24875 0.59625 2.3725 -0.0625 2.5 C-2.32351273 2.93439427 -2.32351273 2.93439427 -3.375 5.1875 C-3.6225 5.826875 -3.87 6.46625 -4.125 7.125 C-4.75 4.75 -4.75 4.75 -5.125 2.125 C-3.125 0.125 -3.125 0.125 0 0 Z " fill="#1B1B1B" transform="translate(254.125,371.875)"/>
<path d="M0 0 C2 2 2 2 2 6 C0.35 6 -1.3 6 -3 6 C-1.125 1.125 -1.125 1.125 0 0 Z " fill="#B9B9B9" transform="translate(236,217)"/>
<path d="M0 0 C1.4540625 0.0309375 1.4540625 0.0309375 2.9375 0.0625 C1.31383534 3.30982932 -1.81637839 3.76405136 -5.0625 5.0625 C-3.9375 0.08035714 -3.9375 0.08035714 0 0 Z " fill="#868686" transform="translate(194.0625,120.9375)"/>
<path d="M0 0 C1.65 0 3.3 0 5 0 C5.33 0.99 5.66 1.98 6 3 C3.69 3 1.38 3 -1 3 C-0.67 2.01 -0.34 1.02 0 0 Z " fill="#151515" transform="translate(235,453)"/>
<path d="M0 0 C0.33 0.99 0.66 1.98 1 3 C2.98 3 4.96 3 7 3 C7 3.66 7 4.32 7 5 C4.36 5 1.72 5 -1 5 C-0.67 3.35 -0.34 1.7 0 0 Z " fill="#030303" transform="translate(243,399)"/>
<path d="M0 0 C0.33 0 0.66 0 1 0 C1.433125 1.423125 1.433125 1.423125 1.875 2.875 C2.76825109 6.05211578 2.76825109 6.05211578 5 8 C0.125 7.125 0.125 7.125 -1 6 C-1.125 3.5 -1.125 3.5 -1 1 C-0.67 0.67 -0.34 0.34 0 0 Z " fill="#0A0A0A" transform="translate(209,396)"/>
<path d="M0 0 C0.33 0.99 0.66 1.98 1 3 C2.98 3 4.96 3 7 3 C7 3.66 7 4.32 7 5 C4.36 5 1.72 5 -1 5 C-0.67 3.35 -0.34 1.7 0 0 Z " fill="#030303" transform="translate(339,378)"/>
<path d="M0 0 C2.31 0 4.62 0 7 0 C7 0.99 7 1.98 7 3 C4.69 3 2.38 3 0 3 C0 2.01 0 1.02 0 0 Z " fill="#808080" transform="translate(289,373)"/>
<path d="M0 0 C2.64 0 5.28 0 8 0 C8 0.99 8 1.98 8 3 C5.69 3 3.38 3 1 3 C0.67 2.01 0.34 1.02 0 0 Z " fill="#202020" transform="translate(311,401)"/>
<path d="M0 0 C1.32 0.33 2.64 0.66 4 1 C4.33 2.65 4.66 4.3 5 6 C2.525 5.01 2.525 5.01 0 4 C0 2.68 0 1.36 0 0 Z " fill="#151515" transform="translate(266,393)"/>
<path d="M0 0 C2.64 0 5.28 0 8 0 C8 0.66 8 1.32 8 2 C6.02 2 4.04 2 2 2 C1.67 2.66 1.34 3.32 1 4 C0.67 2.68 0.34 1.36 0 0 Z " fill="#121212" transform="translate(242,393)"/>
<path d="M0 0 C2.64 0 5.28 0 8 0 C8 0.66 8 1.32 8 2 C6.02 2 4.04 2 2 2 C1.67 2.66 1.34 3.32 1 4 C0.67 2.68 0.34 1.36 0 0 Z " fill="#121212" transform="translate(338,372)"/>
<path d="M0 0 C1.32 0.33 2.64 0.66 4 1 C4.33 2.65 4.66 4.3 5 6 C2.525 5.01 2.525 5.01 0 4 C0 2.68 0 1.36 0 0 Z " fill="#151515" transform="translate(301,372)"/>
<path d="M0 0 C1.32 0.33 2.64 0.66 4 1 C4.33 2.65 4.66 4.3 5 6 C2.525 5.01 2.525 5.01 0 4 C0 2.68 0 1.36 0 0 Z " fill="#151515" transform="translate(225,372)"/>
<path d="M0 0 C0.66 0.33 1.32 0.66 2 1 C2 1.66 2 2.32 2 3 C0.02 3.99 -1.96 4.98 -4 6 C-4.33 5.01 -4.66 4.02 -5 3 C-2.625 1.4375 -2.625 1.4375 0 0 Z " fill="#282828" transform="translate(427,178)"/>
<path d="M0 0 C0.33 0.66 0.66 1.32 1 2 C1.66 2 2.32 2 3 2 C3 3.65 3 5.3 3 7 C2.01 7.33 1.02 7.66 0 8 C0 5.36 0 2.72 0 0 Z " fill="#777777" transform="translate(236,159)"/>
<path d="M0 0 C2.875 -0.1875 2.875 -0.1875 6 0 C6.66 0.99 7.32 1.98 8 3 C5.36 3 2.72 3 0 3 C0 2.01 0 1.02 0 0 Z " fill="#202020" transform="translate(312,393)"/>
<path d="M0 0 C0.66 0.99 1.32 1.98 2 3 C1 4 1 4 -2.5625 4.0625 C-3.696875 4.041875 -4.83125 4.02125 -6 4 C-6 3.34 -6 2.68 -6 2 C-4.02 2 -2.04 2 0 2 C0 1.34 0 0.68 0 0 Z " fill="#1F1F1F" transform="translate(265,135)"/>
</svg>
