<?xml version="1.0" standalone="no"?>
<!DOCTYPE svg PUBLIC "-//W3C//DTD SVG 20010904//EN"
 "http://www.w3.org/TR/2001/REC-SVG-20010904/DTD/svg10.dtd">
<svg version="1.0" xmlns="http://www.w3.org/2000/svg"
 width="4572.000000pt" height="6192.000000pt" viewBox="0 0 4572.000000 6192.000000"
 preserveAspectRatio="xMidYMid meet">

<g transform="translate(0.000000,6192.000000) scale(0.100000,-0.100000)"
fill="#000000" stroke="none">
<path d="M20390 59319 c-428 -22 -858 -101 -1447 -265 -53 -14 -67 -18 -258
-69 -126 -33 -101 -25 -485 -149 -179 -57 -383 -121 -455 -141 -71 -21 -161
-48 -200 -61 -38 -12 -117 -37 -175 -54 -176 -54 -207 -65 -440 -152 -216 -82
-293 -116 -590 -261 -123 -61 -166 -83 -315 -166 -27 -16 -81 -45 -120 -66
-67 -36 -223 -129 -275 -165 -14 -10 -85 -56 -157 -103 -145 -95 -427 -303
-622 -461 -307 -249 -670 -623 -941 -972 -126 -162 -410 -570 -410 -588 0 -3
-13 -24 -29 -48 -15 -24 -43 -69 -61 -102 -17 -32 -45 -80 -60 -106 -45 -76
-235 -460 -255 -515 -10 -27 -21 -54 -25 -60 -4 -5 -15 -32 -25 -60 -9 -27
-24 -63 -31 -80 -18 -39 -86 -232 -129 -365 -101 -311 -204 -747 -213 -898 -2
-45 -8 -85 -12 -87 -4 -3 -37 6 -71 19 -35 13 -120 43 -189 66 -69 22 -134 45
-145 50 -20 8 -191 61 -275 85 -139 39 -484 121 -551 131 -24 3 -64 12 -89 19
-25 7 -90 21 -145 29 -127 21 -121 20 -245 45 -58 11 -163 25 -235 30 -71 6
-161 15 -200 20 -38 6 -183 15 -320 21 -279 13 -723 0 -875 -24 -47 -8 -128
-17 -180 -21 -145 -10 -345 -48 -585 -110 -154 -39 -177 -46 -440 -133 -233
-78 -253 -85 -420 -162 -33 -16 -82 -38 -110 -50 -73 -32 -254 -124 -354 -179
-376 -209 -735 -475 -1076 -796 -427 -401 -648 -658 -1008 -1166 -90 -128
-205 -310 -267 -424 -15 -27 -53 -97 -85 -155 -50 -90 -192 -377 -270 -545
-39 -86 -131 -305 -175 -420 -24 -60 -48 -123 -55 -140 -7 -16 -20 -52 -29
-80 -9 -27 -27 -79 -40 -115 -13 -36 -38 -112 -56 -170 -18 -58 -38 -123 -45
-145 -35 -109 -126 -478 -154 -625 -123 -658 -147 -930 -137 -1541 7 -393 30
-633 91 -931 8 -40 22 -109 30 -153 21 -113 53 -255 74 -330 36 -126 102 -334
121 -380 18 -46 70 -192 70 -199 0 -4 6 -22 14 -39 8 -18 37 -87 65 -155 94
-226 262 -556 373 -731 33 -53 65 -105 72 -115 147 -250 424 -608 739 -955 43
-47 77 -91 77 -98 0 -7 -10 -17 -22 -22 -453 -182 -793 -347 -1068 -520 -667
-418 -1168 -866 -1582 -1416 -70 -94 -251 -372 -309 -476 -68 -123 -170 -331
-193 -394 -10 -27 -24 -63 -31 -80 -87 -208 -177 -531 -210 -750 -9 -60 -23
-153 -33 -205 -13 -76 -16 -155 -15 -395 0 -291 2 -307 36 -535 20 -129 43
-257 51 -285 8 -27 20 -77 26 -110 34 -175 167 -577 270 -821 189 -442 456
-917 775 -1373 244 -348 649 -685 1094 -906 133 -67 172 -85 281 -131 34 -15
42 -18 103 -43 66 -26 248 -81 412 -124 88 -23 286 -69 375 -86 165 -33 212
-41 285 -50 174 -21 255 -30 365 -43 73 -8 238 -13 450 -13 473 0 865 29 1235
89 50 8 119 20 155 25 36 6 83 15 105 20 22 5 81 17 130 26 188 34 545 114
665 150 25 7 97 27 160 45 63 18 144 43 180 55 36 13 76 26 90 30 14 4 63 20
110 37 47 17 123 44 170 60 47 17 99 36 115 43 17 6 46 18 65 25 19 7 63 26
98 42 35 15 66 28 69 28 3 0 19 6 36 14 18 8 120 51 227 96 326 137 886 420
1165 589 63 39 140 84 172 102 58 32 218 136 368 240 44 31 152 104 240 164
195 132 319 224 404 299 36 31 70 55 75 53 6 -2 12 -17 14 -33 6 -56 126 -440
162 -519 5 -11 21 -49 36 -85 14 -36 44 -103 65 -148 22 -46 39 -85 39 -87 0
-1 21 -40 46 -86 26 -46 60 -109 77 -139 16 -30 59 -100 96 -155 36 -55 68
-104 70 -110 6 -15 53 -74 187 -235 132 -158 290 -324 368 -386 27 -21 88 -72
135 -112 47 -40 122 -97 166 -127 44 -29 107 -73 140 -96 132 -93 405 -240
648 -348 77 -35 332 -128 430 -157 49 -14 109 -33 200 -60 129 -39 340 -85
517 -113 36 -6 90 -15 120 -21 30 -6 107 -15 170 -20 63 -6 169 -17 235 -25
258 -31 509 -37 1050 -26 583 12 930 33 1175 71 36 5 126 19 200 30 364 55
821 188 1222 356 62 26 118 50 123 54 9 7 41 24 240 130 126 68 243 142 387
248 338 248 589 480 853 787 113 131 192 235 365 476 25 35 78 117 119 184 40
66 81 131 90 145 45 72 147 255 192 346 28 57 55 104 60 104 4 0 34 -35 65
-77 162 -220 588 -657 859 -880 105 -86 377 -287 470 -347 50 -32 103 -68 120
-79 94 -66 437 -262 614 -350 344 -173 687 -314 1040 -429 69 -22 135 -45 146
-49 11 -5 38 -13 60 -18 43 -11 82 -21 265 -72 183 -50 308 -76 715 -149 28
-5 111 -16 185 -25 74 -9 164 -20 200 -25 374 -54 1333 -43 1710 20 30 5 102
14 160 20 192 19 432 55 560 85 36 8 130 29 210 46 251 53 295 64 428 103 28
9 73 22 100 30 49 14 128 42 347 121 72 25 157 56 190 67 60 20 203 76 262
104 17 7 34 14 37 14 11 0 169 74 311 145 710 358 1287 829 1695 1383 169 231
351 557 444 797 22 55 45 114 52 130 7 17 20 55 29 85 10 30 23 73 30 95 25
79 49 172 80 313 14 63 25 122 25 132 0 10 4 30 10 45 l10 26 57 -37 c90 -58
113 -71 238 -139 39 -20 75 -41 80 -45 6 -5 87 -46 180 -93 205 -103 433 -200
695 -297 107 -40 204 -76 215 -80 11 -5 70 -25 130 -45 61 -20 119 -40 130
-45 11 -5 74 -25 140 -45 66 -20 134 -40 150 -45 320 -97 880 -196 1330 -236
221 -19 608 -14 810 11 66 9 174 20 240 25 66 6 134 15 150 19 17 5 75 19 130
30 112 24 344 78 390 92 17 5 64 18 105 30 95 27 305 96 345 114 17 7 61 27
98 44 38 17 70 31 73 31 21 0 405 196 589 300 226 129 531 339 770 532 335
270 825 777 1121 1158 135 174 168 226 263 418 78 156 131 268 131 277 0 3 8
25 19 48 46 104 145 397 172 507 5 25 17 72 25 105 29 118 44 191 59 285 8 52
21 138 30 190 8 52 22 212 31 355 12 214 13 311 4 545 -10 264 -29 486 -50
570 -5 19 -11 60 -15 90 -3 30 -10 73 -15 95 -5 22 -19 85 -31 140 -44 203
-135 518 -196 675 -92 238 -219 511 -319 687 -233 408 -413 646 -759 1002
-170 175 -555 501 -592 501 -15 0 -44 35 -36 43 4 4 32 19 62 33 264 123 483
250 650 376 457 345 807 761 1030 1223 122 252 159 354 226 625 89 356 96 410
102 815 8 490 -7 629 -122 1160 -35 160 -182 598 -274 815 -18 41 -52 122 -75
180 -59 143 -241 510 -349 705 -28 50 -64 115 -80 145 -106 194 -279 432 -499
686 -136 158 -430 430 -635 586 -108 83 -367 255 -483 320 -95 54 -357 186
-435 218 -84 36 -124 53 -150 65 -34 16 -326 113 -430 143 -181 53 -261 70
-505 107 -52 8 -122 19 -155 24 -207 32 -730 50 -925 31 -63 -6 -182 -15 -265
-20 -82 -5 -162 -13 -178 -19 -15 -6 -73 -15 -130 -21 -56 -5 -120 -14 -142
-20 -22 -5 -55 -10 -72 -10 -28 0 -33 4 -33 23 -1 38 -18 206 -35 332 -8 66
-20 162 -25 213 -5 51 -12 97 -15 102 -3 5 -12 44 -20 87 -36 196 -103 457
-160 623 -20 58 -47 137 -60 177 -14 40 -33 92 -44 115 -11 24 -38 88 -61 143
-49 116 -162 345 -210 425 -18 30 -46 80 -62 110 -70 128 -287 440 -397 568
-36 43 -91 109 -123 147 -70 87 -358 370 -498 490 -163 140 -437 336 -645 461
-100 61 -641 335 -725 368 -291 115 -508 190 -760 263 -219 63 -474 132 -550
149 -35 8 -87 20 -115 28 -27 8 -70 17 -95 21 -80 12 -252 45 -261 51 -10 6
-209 26 -499 50 -295 24 -618 14 -1190 -36 -63 -5 -155 -16 -205 -24 -49 -8
-139 -22 -200 -31 -113 -17 -379 -67 -450 -85 -22 -5 -87 -21 -145 -34 -95
-23 -354 -97 -505 -145 -154 -50 -340 -126 -569 -235 -76 -36 -140 -66 -142
-66 -3 0 -87 -46 -219 -120 -433 -243 -777 -526 -1157 -950 -231 -259 -528
-720 -626 -973 -15 -38 -31 -69 -37 -70 -5 0 -16 11 -22 24 -27 52 -73 161
-73 171 0 6 -13 41 -29 77 -230 518 -332 714 -532 1019 -276 423 -467 661
-789 982 -389 389 -787 691 -1210 917 -41 22 -109 60 -150 85 -94 55 -183 98
-280 133 -68 25 -131 51 -185 75 -162 73 -525 200 -640 224 -39 8 -101 23
-140 34 -38 11 -95 24 -125 27 -30 4 -100 17 -155 30 -100 24 -248 40 -510 55
-169 10 -863 10 -1065 -1z m1210 -585 c107 -7 220 -18 250 -23 30 -5 100 -17
155 -26 99 -16 180 -32 325 -62 67 -14 206 -53 315 -88 22 -7 65 -20 95 -30
54 -16 106 -36 165 -60 17 -7 66 -25 110 -40 175 -60 681 -338 952 -524 293
-201 675 -546 954 -861 169 -192 433 -544 580 -775 99 -158 242 -392 279 -460
15 -27 53 -97 85 -155 33 -58 114 -215 181 -350 116 -231 122 -246 109 -271
-12 -22 -12 -30 1 -55 23 -43 55 -74 78 -74 25 0 176 101 176 118 0 7 -5 20
-11 30 -10 15 -6 28 17 68 15 27 38 63 51 80 13 17 23 35 23 41 0 5 13 28 28
49 15 21 45 68 65 104 124 217 372 531 613 776 139 140 175 174 269 249 27 22
59 47 70 57 55 45 107 86 150 118 25 19 61 47 80 63 18 15 36 27 40 27 4 0 24
13 44 29 20 16 79 54 131 86 52 31 118 72 145 90 65 42 305 158 458 220 34 14
71 30 82 35 75 34 124 53 230 88 66 22 138 45 160 52 22 6 60 18 85 25 416
125 936 231 1285 260 39 3 113 12 165 20 174 26 437 37 720 32 298 -6 664 -22
677 -30 4 -3 49 -12 98 -21 50 -9 126 -23 170 -32 44 -8 100 -19 125 -24 42
-8 96 -20 243 -54 34 -8 116 -29 182 -46 66 -18 143 -38 170 -45 28 -8 73 -20
100 -29 28 -8 68 -20 90 -26 22 -6 49 -15 60 -20 11 -5 55 -21 98 -35 74 -25
89 -30 162 -60 17 -7 53 -21 80 -30 28 -10 55 -21 60 -25 6 -4 33 -15 60 -25
45 -16 103 -39 160 -65 11 -5 43 -19 70 -31 129 -56 271 -129 413 -212 32 -18
64 -36 72 -40 8 -4 72 -44 141 -89 551 -363 978 -787 1271 -1263 27 -44 53
-87 58 -95 62 -99 206 -385 268 -535 43 -103 77 -199 147 -415 38 -117 78
-277 99 -400 8 -47 22 -116 30 -155 44 -206 63 -665 39 -940 -7 -77 -15 -188
-19 -247 l-6 -108 25 0 c24 0 105 17 187 40 51 14 312 75 405 94 44 10 98 21
120 27 188 45 423 80 693 104 301 27 396 29 663 11 362 -25 600 -60 834 -125
105 -30 152 -43 175 -51 14 -5 59 -18 100 -30 41 -12 84 -25 95 -30 11 -5 43
-18 70 -29 293 -113 743 -371 1027 -588 228 -175 539 -491 720 -733 193 -257
529 -863 706 -1275 133 -307 238 -622 293 -875 11 -52 27 -120 35 -150 8 -30
23 -125 34 -210 11 -85 24 -180 31 -210 18 -90 15 -590 -5 -675 -8 -38 -23
-125 -31 -193 -9 -67 -20 -134 -25 -148 -5 -13 -16 -52 -24 -87 -53 -225 -189
-547 -333 -788 -171 -285 -445 -594 -732 -824 -68 -55 -136 -110 -150 -121
-87 -71 -466 -326 -553 -372 -31 -17 -75 -36 -99 -42 -43 -12 -99 -58 -99 -82
0 -29 65 -107 241 -285 192 -196 409 -440 533 -603 70 -92 241 -338 280 -403
106 -177 266 -487 321 -622 20 -49 40 -99 44 -110 35 -84 95 -263 121 -355 7
-25 21 -72 30 -105 10 -33 24 -87 31 -120 6 -33 20 -91 30 -130 11 -38 19 -83
19 -100 0 -17 11 -84 24 -150 78 -382 80 -1118 5 -1555 -11 -63 -26 -153 -34
-200 -70 -425 -286 -993 -482 -1268 -85 -119 -338 -418 -496 -587 -119 -127
-378 -378 -446 -433 -19 -15 -93 -76 -165 -136 -72 -60 -142 -116 -156 -125
-14 -9 -68 -47 -121 -86 -106 -77 -123 -88 -389 -247 -102 -60 -221 -127 -265
-148 -106 -50 -244 -110 -275 -120 -14 -5 -63 -23 -110 -40 -99 -37 -254 -88
-360 -119 -41 -13 -86 -27 -100 -31 -14 -5 -52 -14 -85 -19 -33 -6 -89 -17
-125 -26 -114 -26 -284 -55 -330 -55 -25 -1 -72 -7 -105 -16 -134 -33 -868
-36 -1015 -4 -25 6 -83 14 -130 20 -176 20 -298 39 -375 58 -44 11 -100 23
-125 27 -25 4 -67 14 -95 22 -68 19 -103 29 -220 57 -145 36 -353 101 -490
154 -27 11 -87 34 -133 51 -131 49 -318 126 -417 171 -208 95 -469 223 -490
240 -9 7 -166 90 -240 128 -16 8 -44 25 -62 38 -17 13 -34 24 -37 24 -19 0
-511 343 -591 412 -11 9 -50 39 -86 65 -37 26 -110 81 -163 122 -54 40 -100
70 -104 66 -4 -3 -12 -183 -19 -398 -15 -523 -30 -777 -47 -862 -9 -38 -24
-115 -36 -170 -21 -107 -65 -277 -79 -310 -5 -11 -17 -42 -27 -70 -50 -142
-212 -465 -298 -593 -151 -226 -447 -569 -592 -686 -28 -23 -109 -88 -180
-146 -315 -256 -679 -480 -1054 -650 -63 -28 -135 -61 -160 -72 -25 -12 -54
-24 -65 -29 -11 -4 -36 -14 -55 -23 -106 -45 -131 -55 -190 -79 -72 -29 -311
-112 -435 -151 -238 -76 -506 -144 -655 -166 -41 -6 -102 -17 -135 -25 -33 -8
-103 -21 -155 -30 -52 -9 -117 -20 -145 -26 -54 -11 -161 -22 -440 -44 -99 -8
-232 -19 -295 -26 -162 -15 -917 -16 -1000 -1 -36 7 -132 19 -215 27 -239 23
-324 33 -358 44 -18 5 -57 12 -87 15 -63 7 -117 18 -280 53 -63 14 -131 29
-150 33 -33 7 -201 52 -395 104 -92 25 -397 126 -515 169 -57 22 -140 57 -300
129 -217 97 -642 319 -800 416 -413 256 -960 678 -1270 977 -58 56 -136 131
-174 166 -37 35 -99 103 -137 152 -38 48 -76 87 -84 87 -8 0 -39 -15 -68 -34
-56 -36 -86 -72 -333 -406 -377 -509 -806 -955 -1209 -1256 -108 -82 -336
-234 -349 -234 -3 0 -43 -22 -88 -49 -138 -81 -286 -154 -418 -205 -277 -107
-387 -146 -465 -165 -22 -5 -74 -19 -115 -31 -41 -12 -93 -26 -115 -30 -22 -5
-69 -17 -105 -25 -36 -9 -110 -23 -165 -30 -55 -8 -145 -21 -200 -29 -55 -8
-107 -17 -115 -20 -20 -8 -392 -26 -730 -36 -388 -11 -955 -11 -1085 0 -60 5
-180 14 -265 20 -186 12 -425 39 -455 50 -12 4 -48 11 -81 14 -87 10 -183 27
-234 42 -25 7 -65 16 -90 19 -50 8 -107 22 -220 55 -41 12 -88 25 -105 29 -38
10 -193 63 -265 91 -30 12 -66 25 -80 30 -172 56 -539 268 -785 453 -115 87
-250 204 -326 283 -169 177 -390 494 -499 714 -65 131 -100 206 -100 216 0 5
-6 21 -14 36 -18 34 -98 272 -120 353 -9 33 -25 114 -36 180 -11 66 -25 134
-30 150 -14 45 -30 343 -39 757 -5 201 -12 371 -16 377 -4 8 -17 4 -38 -11
-60 -42 -202 -163 -302 -257 -81 -77 -236 -212 -475 -415 -14 -11 -70 -57
-125 -101 -54 -44 -113 -93 -130 -108 -98 -90 -414 -331 -692 -527 -102 -72
-357 -232 -475 -299 -21 -11 -54 -31 -75 -44 -327 -206 -1037 -556 -1364 -673
-41 -14 -87 -32 -104 -39 -16 -7 -73 -27 -125 -44 -52 -18 -102 -36 -110 -40
-9 -5 -31 -12 -50 -16 -19 -4 -39 -10 -45 -14 -5 -4 -44 -17 -85 -30 -41 -12
-84 -26 -95 -31 -46 -18 -254 -83 -367 -115 -32 -8 -82 -22 -110 -30 -29 -8
-93 -24 -143 -35 -49 -11 -108 -25 -130 -30 -93 -22 -288 -62 -371 -75 -49 -8
-123 -21 -164 -30 -140 -28 -564 -74 -800 -86 -347 -17 -735 -4 -1060 35 -352
42 -411 54 -715 141 -247 70 -308 93 -530 200 -371 177 -579 330 -837 615 -78
87 -118 140 -184 244 -21 33 -61 93 -90 133 -49 68 -126 188 -180 282 -203
348 -359 651 -424 821 -11 30 -25 64 -30 75 -13 26 -88 237 -105 295 -44 148
-78 274 -90 340 -8 41 -22 109 -30 150 -46 221 -64 672 -37 930 53 528 261
1082 585 1560 107 158 278 373 426 535 207 226 552 536 811 730 259 193 736
500 1050 675 162 90 181 101 238 136 31 18 68 34 82 34 31 1 101 32 119 53 20
25 6 91 -36 167 -20 36 -105 169 -188 295 -447 673 -690 1157 -883 1755 -33
101 -36 112 -84 290 -38 144 -86 367 -103 485 -7 50 -21 137 -30 195 -30 188
-35 260 -41 615 -6 347 5 713 26 813 6 26 14 85 20 132 22 190 38 289 82 505
33 164 47 226 93 415 21 86 91 331 104 365 5 11 23 67 41 125 19 58 47 141 63
185 52 146 109 300 123 330 7 17 45 107 84 200 78 185 239 517 307 633 24 41
43 75 43 76 0 4 101 180 174 305 70 118 391 544 551 731 87 102 429 451 510
521 22 19 87 75 145 125 155 134 477 362 630 446 36 20 90 51 120 68 167 99
530 255 790 340 217 71 491 132 785 175 61 9 139 21 175 28 94 17 997 17 1145
-1 416 -50 842 -133 1190 -231 54 -15 270 -83 290 -92 11 -4 70 -24 130 -44
61 -20 117 -40 125 -44 9 -5 30 -12 48 -15 17 -4 34 -12 37 -17 4 -5 13 -9 22
-9 8 0 29 -6 46 -14 18 -8 52 -23 77 -34 25 -10 70 -30 100 -43 48 -20 562
-278 645 -322 38 -21 39 -19 54 118 7 61 16 137 21 170 10 67 36 292 45 400
16 179 67 512 112 725 23 109 93 383 113 440 5 14 18 59 30 100 21 74 74 226
91 265 5 11 20 49 33 85 13 36 36 92 51 125 14 33 32 74 40 90 103 234 158
343 281 555 100 174 206 336 318 485 613 819 1413 1460 2451 1965 208 100 224
108 325 145 88 33 237 92 265 106 30 14 235 86 360 125 61 19 133 42 160 50
63 20 449 162 492 180 17 8 38 14 46 14 9 0 19 5 22 10 3 6 13 10 22 10 8 0
29 6 46 14 18 8 84 31 147 52 63 20 124 40 135 44 11 5 40 13 65 20 45 11 112
29 205 54 116 32 295 77 360 91 39 8 99 21 135 30 155 35 415 84 530 100 69 9
152 20 185 26 313 47 725 56 1175 23z"/>
<path d="M21620 53443 c-59 -23 -140 -69 -168 -96 -38 -36 -55 -65 -78 -134
-9 -26 -33 -84 -54 -128 -20 -44 -56 -127 -79 -185 -23 -58 -46 -114 -50 -125
-5 -11 -20 -47 -32 -80 -13 -33 -33 -76 -45 -95 -11 -19 -30 -62 -42 -95 -11
-33 -34 -91 -50 -130 -16 -38 -48 -119 -72 -180 -24 -60 -63 -152 -86 -203
-24 -52 -44 -96 -44 -98 0 -2 -11 -27 -24 -56 -14 -29 -36 -81 -50 -115 -15
-35 -38 -89 -52 -120 -14 -32 -32 -74 -41 -93 -8 -19 -23 -53 -33 -75 -10 -22
-35 -76 -55 -119 -20 -44 -39 -100 -42 -125 -3 -25 -17 -63 -29 -83 -13 -20
-26 -48 -30 -62 -3 -15 -10 -29 -15 -32 -5 -3 -9 -13 -9 -22 0 -10 -18 -53
-41 -97 -23 -44 -57 -123 -75 -175 -19 -52 -50 -126 -68 -165 -38 -77 -55
-115 -112 -250 -33 -75 -39 -101 -39 -159 0 -68 0 -69 44 -107 52 -47 51 -68
-10 -134 -37 -40 -46 -44 -112 -55 -40 -6 -101 -18 -137 -26 -36 -8 -76 -14
-90 -14 -30 0 -204 -27 -290 -45 -36 -8 -117 -21 -180 -30 -113 -15 -220 -32
-390 -60 -171 -28 -217 -35 -298 -45 -123 -14 -157 -27 -203 -77 l-41 -45 24
-25 c63 -67 170 -80 309 -37 46 14 116 30 154 34 61 8 118 18 365 60 30 6 94
10 141 10 57 0 113 7 165 22 43 11 113 24 154 28 126 11 250 31 355 56 55 13
123 26 150 30 28 3 70 15 94 25 41 18 55 19 162 9 172 -15 514 -2 559 20 73
37 136 97 154 147 33 93 70 155 116 192 65 55 122 81 174 81 25 0 68 5 96 11
35 7 64 8 99 0 35 -7 73 -7 132 1 46 6 134 12 194 13 244 4 365 32 365 85 0
27 -52 68 -121 96 -59 23 -69 25 -134 15 -38 -6 -185 -13 -325 -16 -476 -11
-557 -23 -628 -98 -32 -34 -72 -103 -72 -125 0 -46 -74 -140 -153 -193 l-62
-41 -223 6 c-123 3 -227 8 -232 11 -12 8 -13 65 -1 84 6 10 36 14 102 17 170
5 302 21 344 42 22 11 56 38 76 59 35 37 46 54 85 137 23 48 137 172 177 192
18 10 53 15 95 14 94 -2 648 18 681 24 14 3 92 8 173 11 l147 5 63 -38 c34
-20 80 -54 100 -74 39 -39 78 -109 78 -140 0 -28 59 -79 136 -118 l69 -35 265
3 c195 3 281 7 325 19 85 21 95 33 95 109 0 35 -4 65 -9 69 -5 3 -13 20 -17
37 -3 18 -10 39 -15 48 -4 8 -25 53 -46 100 -21 47 -60 123 -87 170 -27 47
-66 123 -88 170 -51 110 -117 241 -132 260 -13 16 -63 118 -121 245 -21 44
-52 113 -71 153 -19 40 -34 75 -34 78 0 3 -18 28 -39 57 -22 29 -55 93 -75
143 -35 89 -56 132 -130 265 -56 101 -351 684 -524 1035 -126 257 -177 327
-252 349 -14 4 -29 11 -35 15 -14 11 -107 20 -125 13z m137 -1539 c21 -23 76
-130 143 -279 12 -27 40 -88 62 -135 44 -93 50 -142 24 -183 -33 -49 -80 -58
-293 -54 l-193 3 -31 30 c-37 35 -36 58 12 179 17 44 39 100 49 125 46 117
103 257 122 297 17 37 25 43 50 43 20 0 39 -9 55 -26z"/>
<path d="M21672 51627 c-25 -26 -56 -110 -66 -174 -8 -54 16 -83 69 -83 60 0
87 22 114 89 29 73 24 112 -21 158 -38 39 -66 42 -96 10z"/>
<path d="M24090 53390 c-19 -10 -50 -31 -68 -47 -31 -26 -34 -34 -43 -118 -6
-49 -17 -142 -24 -205 -8 -63 -19 -167 -25 -230 -6 -63 -21 -187 -32 -275 -19
-148 -26 -221 -58 -548 -6 -65 -16 -130 -21 -145 -6 -15 -15 -88 -19 -162 -5
-74 -16 -173 -24 -220 -9 -47 -23 -159 -31 -250 -27 -298 -34 -374 -44 -440
-6 -36 -15 -104 -22 -152 -6 -49 -14 -88 -18 -88 -3 0 -11 10 -17 23 -43 88
-317 624 -324 632 -7 10 -80 149 -216 414 -35 68 -64 127 -64 132 0 12 -64
142 -194 394 -60 116 -153 296 -206 400 -256 500 -290 563 -318 588 -26 24
-120 28 -135 6 -21 -33 54 -224 144 -364 14 -22 54 -98 89 -170 121 -253 225
-460 245 -490 23 -35 30 -49 81 -165 20 -47 47 -103 59 -125 12 -22 63 -119
113 -216 50 -97 101 -194 114 -215 24 -38 94 -180 109 -219 19 -52 114 -243
134 -270 12 -17 32 -53 44 -80 12 -28 26 -59 31 -70 5 -11 18 -40 29 -65 11
-25 37 -76 58 -115 51 -93 100 -209 114 -270 6 -27 18 -67 27 -87 19 -47 6
-83 -48 -132 -54 -49 -97 -60 -204 -52 -103 7 -386 -9 -452 -25 -59 -15 -70
-30 -54 -71 21 -53 58 -86 109 -97 27 -6 136 -9 266 -7 362 6 430 18 488 89
49 60 85 120 95 158 8 33 10 34 58 34 27 -1 58 -5 69 -10 11 -5 79 -14 150
-21 72 -7 166 -17 210 -23 100 -14 131 -8 176 32 42 38 64 72 73 112 8 39 43
311 61 485 8 74 22 189 30 255 8 66 19 165 25 220 29 288 50 383 94 424 l22
21 51 -72 c28 -40 99 -129 158 -198 58 -69 137 -165 175 -215 38 -49 91 -112
119 -138 28 -26 96 -105 152 -175 56 -70 111 -138 122 -152 24 -28 205 -255
252 -315 17 -21 55 -68 85 -104 30 -36 81 -103 113 -148 67 -95 174 -198 242
-232 64 -32 163 -34 220 -5 64 33 81 74 88 217 4 67 11 138 16 157 5 19 16 98
25 175 19 165 41 354 61 520 8 66 19 167 25 225 6 58 15 132 19 165 26 177 33
252 36 365 2 69 11 177 20 240 9 63 22 176 30 250 8 74 18 151 23 170 13 47
31 203 43 380 6 80 13 178 16 219 6 89 -8 140 -51 179 -44 39 -78 50 -186 56
-52 3 -140 13 -195 21 -55 8 -143 18 -196 22 -90 5 -99 4 -138 -19 -23 -14
-56 -45 -74 -69 -31 -42 -32 -48 -38 -164 -4 -66 -14 -149 -22 -185 -9 -36
-21 -137 -27 -225 -5 -88 -15 -176 -20 -196 -6 -20 -15 -79 -20 -130 -32 -314
-40 -380 -50 -433 -12 -63 -34 -106 -54 -106 -7 0 -37 26 -67 58 -52 55 -75
83 -208 252 -32 41 -88 104 -125 140 -37 36 -86 90 -109 120 -23 30 -85 109
-138 175 -96 121 -439 555 -533 675 -28 36 -60 76 -71 90 -11 14 -52 57 -91
96 -72 71 -153 120 -239 143 -51 14 -53 14 -95 -9z"/>
<path d="M18150 53071 c-8 -5 -41 -11 -73 -14 -32 -3 -64 -10 -70 -15 -29 -23
-99 -36 -192 -37 -88 0 -106 -4 -151 -27 -28 -15 -66 -44 -84 -64 -32 -37 -32
-38 -27 -118 10 -130 26 -267 36 -300 16 -56 42 -219 50 -326 5 -58 18 -136
30 -175 15 -49 21 -97 21 -161 0 -73 6 -108 29 -180 18 -54 32 -123 35 -176 4
-47 11 -101 17 -120 16 -53 39 -190 39 -231 0 -36 36 -232 45 -247 3 -4 11
-63 19 -132 8 -68 21 -156 30 -194 8 -38 22 -127 31 -198 9 -71 23 -153 31
-184 8 -30 19 -98 24 -151 14 -136 28 -197 59 -255 40 -74 73 -89 187 -83 49
3 107 12 128 21 20 8 103 23 184 31 81 9 175 25 209 37 42 14 76 19 103 15 23
-3 55 -2 73 3 45 11 250 46 382 65 61 8 144 22 185 30 95 18 197 33 280 40 74
7 224 51 245 72 8 7 17 30 20 51 3 20 9 55 14 77 6 23 6 59 1 85 -5 25 -14 83
-19 131 -13 99 -50 250 -74 296 -10 18 -33 44 -52 58 -31 24 -41 26 -97 22
-35 -2 -90 -14 -122 -26 -33 -11 -80 -21 -105 -21 -25 -1 -66 -6 -91 -12 -25
-6 -93 -12 -152 -13 -80 -2 -114 -7 -133 -19 -16 -11 -62 -20 -123 -25 -53 -5
-117 -14 -142 -21 -91 -24 -153 7 -195 97 -22 45 -29 79 -36 172 -5 64 -16
148 -24 186 -9 39 -22 117 -30 175 -25 186 -36 254 -45 271 -5 9 -12 58 -16
110 -4 52 -15 137 -26 189 -20 101 -29 162 -48 305 -7 50 -18 113 -26 140 -7
28 -22 118 -33 200 -11 83 -29 188 -40 235 -11 47 -25 122 -31 167 -20 149
-41 183 -149 240 -26 15 -79 17 -101 4z"/>
<path d="M18576 52727 c-32 -42 -32 -63 -2 -196 13 -58 29 -149 36 -201 6 -52
18 -129 26 -170 7 -41 18 -126 24 -188 5 -62 17 -126 25 -142 14 -28 24 -83
44 -240 5 -41 14 -95 19 -120 6 -25 16 -85 22 -135 7 -49 18 -128 26 -175 8
-47 22 -134 29 -195 20 -149 24 -165 53 -202 29 -38 39 -40 85 -13 31 19 47
40 60 82 7 22 -19 219 -43 330 -11 48 -20 114 -20 145 -1 32 -5 78 -10 103
-23 105 -31 151 -45 265 -8 66 -21 156 -30 200 -9 44 -20 100 -25 125 -5 25
-9 72 -9 105 -1 36 -11 92 -25 136 -14 41 -28 106 -31 144 -27 295 -58 375
-144 375 -34 0 -44 -5 -65 -33z"/>
<path d="M26993 52698 c-28 -31 -63 -111 -63 -145 0 -15 -6 -66 -14 -113 -25
-149 -35 -261 -40 -420 -3 -86 -10 -168 -15 -183 -10 -26 -22 -126 -41 -347
-5 -58 -14 -118 -20 -135 -6 -16 -13 -63 -16 -105 -3 -41 -9 -88 -14 -105 -5
-16 -12 -89 -14 -161 -2 -73 -9 -140 -14 -150 -18 -36 -35 -160 -43 -324 -4
-91 -17 -217 -28 -280 -12 -63 -26 -187 -30 -275 -5 -88 -14 -171 -21 -185
-17 -37 -91 -91 -167 -123 -38 -16 -72 -33 -77 -37 -8 -8 22 -70 34 -70 3 0
18 -12 35 -27 24 -23 40 -28 97 -31 79 -5 129 15 201 78 57 51 63 75 76 330 7
124 17 229 27 265 20 76 32 192 33 325 1 65 7 121 16 148 14 39 39 238 49 392
7 98 25 258 36 320 6 30 15 111 20 180 6 69 17 172 25 230 16 109 38 291 55
445 5 50 15 122 21 160 7 39 12 130 13 203 1 121 -1 135 -18 148 -30 21 -79
18 -103 -8z"/>
<path d="M28835 52643 c-297 -13 -511 -66 -735 -180 -57 -30 -110 -59 -118
-66 -8 -6 -22 -16 -33 -22 -58 -32 -158 -97 -181 -117 -14 -13 -86 -90 -159
-173 -99 -111 -140 -166 -161 -215 -52 -115 -79 -173 -130 -275 -58 -116 -74
-161 -84 -230 -3 -27 -10 -57 -14 -65 -5 -9 -18 -74 -31 -145 -20 -119 -21
-150 -16 -371 6 -227 17 -321 47 -404 4 -14 16 -52 26 -85 16 -55 81 -189 133
-275 11 -19 24 -42 28 -50 18 -40 106 -140 254 -291 159 -160 167 -167 264
-213 55 -27 150 -72 210 -101 61 -29 128 -58 150 -63 201 -53 252 -66 330 -88
81 -22 109 -24 281 -24 183 0 294 12 359 40 11 5 43 11 72 14 76 9 151 38 322
124 141 70 162 85 245 165 50 48 110 105 132 127 40 38 166 221 212 306 65
122 156 368 198 534 41 165 -15 239 -236 308 -99 31 -117 36 -315 84 -66 16
-136 33 -155 38 -19 4 -62 14 -95 20 -53 11 -129 36 -315 102 -30 10 -96 25
-146 33 -77 12 -99 12 -143 0 -29 -7 -62 -22 -73 -32 -30 -27 -65 -106 -73
-165 -4 -29 -20 -96 -36 -148 -17 -52 -34 -109 -40 -126 -13 -44 -11 -74 10
-120 32 -71 112 -117 245 -141 174 -32 221 -45 273 -80 63 -42 79 -78 53 -120
-25 -42 -88 -93 -161 -131 -55 -29 -79 -35 -181 -45 -169 -16 -338 4 -443 53
-11 5 -45 19 -75 31 -70 29 -206 116 -266 171 -91 84 -159 210 -198 366 -25
100 -28 125 -24 230 7 162 56 371 120 509 53 113 89 165 183 258 133 132 182
168 285 204 36 12 75 27 88 33 13 7 85 12 180 12 123 1 171 -3 222 -17 36 -10
83 -24 105 -30 43 -12 160 -70 186 -93 8 -8 20 -14 26 -14 13 0 153 -138 153
-151 0 -23 82 -180 117 -224 50 -63 130 -107 238 -129 185 -39 234 -51 318
-78 102 -33 119 -34 172 -9 73 33 79 48 77 166 -3 112 -15 172 -63 305 -77
213 -88 237 -135 300 -22 30 -61 87 -86 125 -30 46 -93 114 -181 195 -109 101
-153 134 -228 174 -52 27 -112 61 -134 76 -54 35 -98 55 -170 75 -33 9 -69 20
-80 25 -11 5 -54 18 -95 30 -41 12 -86 25 -100 30 -108 37 -237 50 -405 43z"/>
<path d="M15675 52546 c-27 -8 -70 -17 -95 -21 -121 -19 -229 -53 -335 -105
-44 -21 -109 -51 -145 -65 -131 -53 -276 -181 -442 -389 -72 -90 -90 -121
-108 -180 -12 -39 -25 -75 -30 -81 -28 -37 -40 -116 -40 -256 0 -139 10 -217
40 -314 6 -16 18 -59 29 -96 27 -92 104 -246 154 -306 46 -56 98 -99 224 -186
76 -53 91 -59 199 -82 64 -14 143 -34 175 -45 86 -29 255 -27 413 4 66 14 191
35 276 47 85 12 162 25 170 29 28 15 154 21 200 11 115 -26 141 -34 172 -54
58 -39 73 -80 70 -182 -3 -98 -11 -117 -70 -169 -62 -54 -105 -83 -162 -106
-30 -12 -71 -29 -90 -37 -19 -8 -43 -19 -53 -24 -18 -10 -111 -24 -231 -36
-34 -3 -82 0 -115 7 -58 14 -163 65 -218 106 -17 13 -35 24 -38 24 -4 0 -22 7
-41 16 -50 24 -148 8 -359 -58 -302 -95 -336 -117 -337 -220 -1 -94 98 -262
224 -383 80 -76 195 -141 303 -170 33 -9 76 -25 95 -36 88 -50 100 -53 305
-62 214 -10 355 -2 455 28 56 17 192 51 243 62 15 3 30 9 33 14 3 5 13 9 23 9
10 0 62 22 117 50 54 27 103 50 108 50 5 0 27 15 50 34 23 18 66 46 96 61 61
31 311 274 368 357 53 77 110 199 127 273 21 87 25 351 6 440 -24 116 -71 232
-134 332 -15 24 -27 45 -27 48 0 21 -83 109 -148 157 -194 145 -346 186 -691
187 -114 1 -180 -3 -215 -13 -28 -8 -89 -19 -136 -25 -47 -6 -127 -20 -179
-31 -152 -34 -395 -18 -496 31 -52 26 -82 77 -101 170 -22 106 -14 140 50 226
59 77 126 126 211 152 39 13 81 28 94 34 14 7 79 12 165 12 140 0 142 0 206
-33 36 -18 92 -50 125 -70 33 -21 80 -45 103 -54 42 -16 46 -16 95 3 120 48
246 86 304 93 80 9 163 33 187 54 28 26 66 108 66 143 0 62 -73 187 -162 279
-88 89 -195 185 -240 213 -26 16 -198 78 -328 118 -86 27 -436 37 -515 15z"/>
<path d="M16900 52215 c0 -8 24 -54 53 -102 29 -48 64 -117 77 -153 13 -36 27
-70 32 -77 20 -26 10 -72 -28 -128 -46 -68 -60 -76 -179 -104 -244 -57 -281
-70 -315 -104 -17 -17 -30 -41 -30 -53 0 -25 43 -64 71 -64 10 0 21 -4 24 -10
13 -22 174 2 210 30 6 5 53 16 104 25 211 36 343 147 325 273 -10 73 -51 194
-83 243 -47 73 -213 239 -238 239 -14 0 -23 -6 -23 -15z"/>
<path d="M28845 51723 c-16 -3 -34 -8 -40 -12 -5 -4 -45 -18 -87 -31 -152 -47
-328 -210 -449 -414 -38 -65 -60 -114 -64 -145 -4 -25 -13 -80 -22 -121 -21
-104 -20 -247 1 -287 9 -18 21 -35 27 -39 20 -12 42 24 50 80 7 53 63 221 81
241 4 5 8 15 8 22 0 7 20 56 44 108 35 73 58 108 108 158 34 34 84 87 109 117
36 43 58 59 100 74 30 10 63 24 74 31 48 29 126 46 235 52 114 5 171 -1 275
-32 120 -35 135 -39 141 -33 23 24 -142 166 -238 205 -55 22 -80 26 -193 28
-71 2 -143 1 -160 -2z"/>
<path d="M15727 51670 c-101 -25 -244 -118 -271 -175 -19 -39 -14 -93 13 -135
42 -66 68 -58 189 59 108 103 101 99 262 147 87 26 109 54 69 90 -17 15 -39
19 -122 21 -56 1 -119 -2 -140 -7z"/>
<path d="M30618 51498 c-4 -9 -2 -34 3 -57 5 -23 13 -120 18 -214 6 -133 5
-178 -5 -198 -20 -41 -86 -99 -112 -99 -29 0 -116 21 -242 59 -315 95 -371
105 -378 69 -2 -10 11 -31 29 -48 43 -39 155 -75 389 -126 41 -9 86 -20 100
-24 63 -22 156 -40 203 -40 83 0 132 42 168 142 20 57 -14 219 -84 406 -35 92
-79 156 -89 130z"/>
<path d="M24776 51228 c-8 -13 -19 -63 -25 -113 -7 -49 -18 -139 -27 -200 -8
-60 -21 -177 -29 -260 -7 -82 -21 -213 -30 -290 -9 -77 -19 -191 -24 -253 -7
-110 -8 -113 -42 -148 -55 -57 -76 -64 -196 -64 -59 0 -126 5 -148 10 -62 15
-205 13 -250 -3 -36 -12 -40 -18 -43 -51 -2 -25 4 -46 19 -67 32 -45 77 -61
152 -53 48 4 80 1 142 -17 49 -14 101 -22 136 -20 30 1 87 -3 125 -10 38 -6
79 -13 91 -14 30 -4 98 31 128 66 32 38 42 80 55 214 26 291 39 414 49 460 5
28 17 136 26 240 9 105 20 209 26 232 12 53 12 155 0 185 -5 13 -17 48 -26 78
-25 85 -35 100 -66 100 -19 0 -34 -8 -43 -22z"/>
<path d="M17420 50901 c0 -6 15 -39 34 -73 19 -35 44 -92 56 -128 12 -35 26
-73 32 -83 9 -17 26 -88 60 -255 9 -39 8 -71 -1 -125 -6 -40 -17 -112 -22
-162 -9 -76 -19 -107 -64 -200 -83 -171 -217 -347 -310 -407 -22 -14 -72 -54
-111 -89 -47 -42 -107 -82 -175 -117 -57 -29 -123 -63 -146 -76 -59 -34 -100
-46 -168 -53 -33 -3 -73 -11 -90 -19 -87 -38 -272 -68 -498 -79 -70 -4 -129
-10 -132 -14 -6 -11 47 -27 165 -52 93 -19 128 -21 300 -16 107 2 209 9 225
15 17 5 57 18 90 27 135 38 247 80 365 137 183 89 275 153 372 260 46 50 115
125 153 167 39 42 79 97 89 121 11 25 34 79 52 120 18 41 40 102 49 135 22 82
31 289 16 379 -15 87 -84 296 -117 353 -56 97 -224 272 -224 234z"/>
<path d="M30543 50367 c-20 -30 -43 -83 -80 -182 -15 -42 -124 -263 -172 -350
-97 -176 -118 -212 -156 -264 -24 -33 -79 -86 -122 -119 -43 -34 -98 -79 -123
-101 -25 -23 -54 -44 -64 -47 -11 -4 -59 -31 -108 -60 -49 -30 -93 -54 -98
-54 -5 0 -49 -13 -97 -29 -98 -32 -207 -64 -270 -81 -44 -11 -200 -15 -418
-11 -112 2 -141 6 -218 32 -60 19 -110 29 -152 29 -41 0 -93 10 -155 30 -51
17 -99 30 -106 30 -7 0 -42 14 -79 30 -65 29 -115 39 -115 22 0 -22 65 -73
110 -87 14 -4 58 -30 98 -57 78 -53 128 -74 207 -89 28 -5 75 -16 105 -25 30
-9 82 -22 115 -29 33 -7 80 -18 105 -24 25 -6 72 -11 105 -11 33 0 98 -7 144
-15 65 -12 93 -13 124 -4 23 6 73 12 112 13 39 2 102 10 140 20 39 10 99 24
135 33 75 18 276 93 335 125 35 18 86 55 269 194 119 90 222 236 360 509 102
200 149 314 193 462 20 66 7 104 -42 127 -47 22 -57 20 -82 -17z"/>
<path d="M16165 50368 c-38 -11 -126 -23 -195 -28 -69 -4 -179 -20 -245 -34
-97 -21 -147 -26 -262 -26 -115 0 -143 -3 -143 -14 0 -18 48 -40 130 -61 36
-9 89 -24 118 -32 40 -12 113 -15 325 -15 l272 -1 120 37 c206 64 236 88 179
141 -60 55 -172 68 -299 33z"/>
<path d="M23382 47680 c-84 -20 -120 -75 -267 -405 -7 -16 -36 -79 -65 -140
-29 -60 -67 -144 -85 -185 -60 -137 -171 -376 -292 -630 -36 -74 -76 -160 -90
-190 -13 -30 -31 -69 -39 -87 -8 -17 -14 -33 -14 -36 0 -8 -58 -136 -77 -172
-29 -52 -32 -59 -54 -110 -30 -71 -92 -205 -144 -310 -39 -79 -45 -99 -45
-155 0 -36 5 -72 10 -80 13 -21 106 -26 330 -19 200 6 221 11 271 66 14 15 36
46 49 68 37 64 89 124 131 152 l38 25 363 5 c243 4 382 2 421 -6 78 -14 138
-65 197 -168 50 -87 98 -126 170 -142 27 -5 127 -6 253 -2 238 9 247 12 247
86 0 40 -10 74 -46 152 -8 17 -14 34 -14 37 0 4 -31 71 -70 150 -38 78 -70
146 -70 150 0 3 -26 61 -59 129 -51 106 -73 155 -111 242 -4 11 -42 90 -83
175 -41 85 -78 165 -81 177 -4 13 -28 64 -53 115 -45 92 -82 171 -130 278 -14
30 -38 82 -53 115 -71 151 -109 233 -125 270 -9 22 -30 67 -45 100 -15 33 -39
85 -53 115 -55 123 -69 148 -100 182 -47 52 -126 69 -215 48z m91 -1132 c35
-28 202 -414 191 -443 -3 -8 -22 -24 -41 -36 -32 -20 -44 -21 -193 -17 -109 3
-164 9 -174 17 -26 21 -18 80 20 166 19 44 51 116 70 160 76 174 85 185 127
153z"/>
<path d="M23413 46336 c-29 -36 -57 -128 -49 -160 6 -25 10 -27 53 -24 41 3
50 8 70 37 27 39 29 80 8 121 -13 25 -42 50 -59 50 -2 0 -13 -11 -23 -24z"/>
<path d="M17669 47663 c-32 -22 -49 -40 -72 -75 -15 -23 -17 -54 -17 -210 0
-165 2 -186 20 -216 40 -65 56 -69 292 -71 225 -2 234 -3 283 -55 19 -20 20
-37 24 -456 2 -239 3 -482 3 -540 -1 -58 -2 -260 -3 -450 l-1 -345 38 -32 c20
-18 53 -38 73 -44 101 -31 404 -17 466 21 67 42 65 7 65 942 0 832 0 841 21
883 37 73 62 81 280 77 174 -3 189 -2 228 18 70 35 77 56 85 257 6 170 6 177
-16 222 -16 31 -36 53 -63 68 -40 23 -41 23 -365 16 -179 -3 -343 -5 -365 -5
-34 1 -221 2 -417 1 -32 -1 -103 -1 -158 0 -55 0 -117 -1 -137 -2 -21 -1 -83
2 -138 6 -87 7 -103 5 -126 -10z"/>
<path d="M19872 47659 c-21 -9 -48 -31 -61 -49 l-24 -33 -1 -1169 -1 -1169 41
-39 c52 -48 85 -53 334 -48 209 4 230 10 261 70 18 35 19 62 19 436 l0 399 30
41 c49 68 69 72 337 72 247 0 309 -8 362 -49 35 -27 40 -86 41 -504 0 -245 4
-363 12 -376 16 -27 87 -68 139 -81 72 -18 415 0 451 24 65 42 60 -51 59 1235
-1 1110 -2 1167 -20 1191 -36 50 -60 55 -290 58 -251 4 -285 -3 -327 -70 l-25
-39 3 -352 3 -352 -25 -42 c-14 -23 -34 -44 -45 -47 -11 -3 -156 -6 -321 -6
-346 0 -338 -2 -370 92 -15 46 -16 87 -12 376 8 457 21 438 -320 444 -184 3
-219 2 -250 -13z"/>
<path d="M24888 47655 c-63 -43 -70 -66 -74 -259 -3 -143 -1 -179 14 -221 27
-80 45 -85 295 -85 180 0 213 -2 240 -17 72 -41 66 41 67 -945 0 -792 2 -888
16 -902 8 -9 36 -28 61 -43 39 -23 60 -27 147 -31 123 -5 311 13 342 32 39 27
62 77 72 161 9 76 7 659 -2 673 -2 4 0 121 5 260 7 203 6 265 -4 312 -12 51
-12 83 3 243 10 101 22 193 28 204 6 11 28 29 49 39 34 17 58 19 228 16 l190
-3 47 30 c70 45 75 61 78 246 1 88 2 170 1 183 -2 34 -77 110 -121 122 -24 6
-153 8 -361 3 -178 -3 -342 -5 -364 -3 -34 2 -155 2 -385 -2 -30 0 -95 0 -145
1 -49 0 -112 0 -140 -1 -27 -2 -95 1 -150 5 -97 8 -101 8 -137 -18z"/>
<path d="M23840 47425 c-23 -28 -15 -52 120 -330 37 -77 82 -174 100 -215 18
-41 66 -144 106 -228 41 -84 74 -154 74 -156 0 -6 91 -202 214 -461 29 -60 63
-137 76 -170 13 -33 39 -89 58 -124 19 -35 45 -92 58 -126 13 -35 41 -96 62
-137 21 -41 47 -99 57 -129 10 -29 24 -71 31 -92 19 -51 18 -122 -2 -142 -44
-44 -72 -49 -244 -46 -169 2 -291 -9 -315 -29 -24 -20 2 -67 51 -96 43 -26 48
-26 252 -28 253 -1 296 7 348 68 19 22 45 61 56 86 19 40 20 52 10 110 -13 85
-29 147 -47 187 -8 17 -15 34 -15 38 0 3 -22 52 -49 108 -27 56 -65 136 -84
177 -19 41 -63 134 -97 205 -118 247 -210 445 -210 450 0 3 -35 80 -90 200
-10 22 -44 94 -75 160 -32 66 -86 181 -120 255 -211 454 -213 458 -250 465
-16 4 -37 9 -46 11 -9 2 -22 -2 -29 -11z"/>
<path d="M20545 47366 c-20 -46 -22 -445 -3 -464 21 -21 85 -15 108 10 19 21
20 32 18 237 l-3 216 -25 11 c-14 6 -38 14 -53 18 -25 6 -29 3 -42 -28z"/>
<path d="M21992 47389 l-22 -8 0 -1087 c0 -786 -3 -1097 -11 -1125 -7 -21 -24
-50 -39 -64 -27 -25 -30 -26 -191 -29 -130 -3 -171 -7 -197 -20 -66 -34 -63
-109 5 -122 19 -4 87 -4 151 0 82 5 138 3 187 -7 129 -25 209 18 219 117 9 84
15 2186 7 2258 -4 37 -10 70 -13 74 -13 12 -75 21 -96 13z"/>
<path d="M26802 47384 c-18 -12 -22 -25 -22 -66 0 -86 -20 -231 -37 -265 -9
-19 -25 -34 -42 -37 -14 -4 -122 -9 -239 -12 -235 -5 -244 -7 -282 -69 -21
-33 -21 -42 -20 -893 2 -940 4 -901 -56 -957 -28 -26 -28 -26 -158 -19 -117 5
-136 4 -176 -14 -53 -23 -83 -53 -78 -79 2 -10 21 -27 43 -39 38 -20 49 -20
260 -14 121 4 228 10 238 15 10 4 27 26 39 49 23 44 21 -46 27 1141 0 28 -2
171 -5 318 -6 314 0 349 64 389 36 22 45 23 249 23 233 0 237 1 287 69 20 26
21 40 19 209 -1 100 -5 196 -8 214 -5 31 -9 33 -65 49 -9 2 -26 -3 -38 -12z"/>
<path d="M19556 47375 c-3 -9 -6 -60 -6 -113 -1 -98 -18 -172 -51 -223 -20
-29 -92 -38 -331 -38 l-177 -1 -28 -47 -28 -48 0 -855 0 -855 -26 -56 c-36
-77 -60 -85 -190 -71 -68 7 -110 7 -136 0 -88 -24 -134 -68 -113 -108 19 -36
56 -42 250 -41 256 2 272 5 315 52 l35 39 0 198 c1 1186 6 1580 19 1596 38 46
65 51 281 51 225 1 262 8 297 61 23 36 27 154 11 329 l-13 140 -51 3 c-40 2
-53 -1 -58 -13z"/>
<path d="M17940 47001 c-55 -12 -78 -28 -85 -61 -9 -40 4 -54 62 -70 37 -11
57 -11 107 -1 34 7 67 17 74 23 19 16 15 73 -8 93 -22 20 -95 28 -150 16z"/>
<path d="M25160 47001 c-69 -14 -98 -49 -80 -96 10 -26 60 -39 142 -37 66 1
100 20 112 61 9 30 7 36 -18 57 -28 25 -80 30 -156 15z"/>
<path d="M20592 46063 c-12 -10 -30 -35 -41 -56 -20 -36 -21 -53 -21 -450 l-1
-412 -47 -34 -46 -35 -167 -6 c-134 -4 -171 -9 -192 -23 -45 -30 -31 -75 31
-95 48 -16 460 -27 495 -13 59 23 61 43 67 504 l5 418 25 19 c42 33 121 50
228 50 93 0 103 2 131 26 30 25 40 64 23 90 -15 23 -106 34 -285 34 -162 0
-187 -2 -205 -17z"/>
<path d="M23065 45370 c-41 -8 -98 -61 -116 -109 -19 -47 -91 -147 -123 -169
-31 -21 -42 -22 -207 -21 -176 1 -215 -5 -251 -38 -24 -21 -23 -56 2 -78 26
-23 190 -38 376 -33 123 3 133 5 172 30 42 28 81 78 125 162 29 54 99 108 157
120 19 4 159 9 310 11 151 3 294 7 317 10 51 7 72 34 53 69 -26 50 -30 51
-415 53 -198 0 -378 -2 -400 -7z"/>
<path d="M13490 44523 c-66 -28 -124 -104 -144 -187 -4 -16 -20 -57 -36 -90
-15 -34 -42 -107 -60 -163 -57 -180 -29 -234 150 -298 58 -20 114 -41 125 -45
46 -19 95 -39 185 -74 107 -42 134 -63 161 -121 22 -48 23 -87 3 -140 -9 -22
-39 -107 -68 -190 -29 -82 -74 -202 -100 -265 -27 -63 -54 -133 -61 -155 -8
-22 -34 -98 -60 -170 -25 -71 -57 -161 -70 -200 -41 -120 -81 -224 -150 -390
-37 -88 -89 -227 -116 -310 -49 -145 -134 -370 -149 -390 -52 -69 26 -202 150
-256 25 -11 54 -24 65 -29 28 -13 160 -59 220 -77 185 -55 222 -60 263 -39 65
34 143 175 208 374 14 42 46 131 71 197 25 66 52 138 60 160 8 22 21 52 29 66
7 14 22 59 34 100 38 130 41 139 77 222 19 45 44 109 55 142 11 33 26 74 34
90 27 59 115 301 133 365 24 84 140 371 181 447 17 32 48 73 67 90 55 50 89
52 238 14 34 -8 155 -66 190 -90 6 -4 30 -13 55 -20 25 -7 75 -22 113 -34 l67
-21 47 24 c68 37 108 79 127 135 10 28 22 58 27 67 5 10 9 23 9 29 0 6 7 25
15 42 37 81 76 197 81 243 6 44 2 61 -21 108 -34 70 -59 88 -183 131 -54 18
-124 45 -155 59 -32 14 -85 33 -120 42 -34 10 -84 28 -112 40 -47 22 -168 63
-333 114 -40 13 -83 31 -95 40 -37 29 -99 57 -157 70 -30 7 -80 25 -111 40
-31 15 -80 29 -110 33 -30 3 -76 16 -104 30 -121 61 -181 87 -202 87 -12 0
-40 6 -60 14 -21 8 -51 17 -68 21 -16 4 -77 29 -135 57 -174 83 -196 89 -260
61z"/>
<path d="M31215 44443 c-64 -16 -299 -99 -350 -124 -33 -16 -95 -40 -138 -54
-119 -38 -131 -47 -165 -117 -49 -100 -49 -107 -2 -195 23 -43 46 -82 50 -88
4 -5 17 -39 29 -75 23 -70 32 -90 80 -191 17 -36 31 -69 31 -72 0 -3 32 -71
70 -151 39 -81 70 -152 70 -159 1 -6 9 -30 20 -52 11 -22 19 -43 20 -47 0 -4
18 -45 40 -92 22 -46 40 -88 40 -93 0 -16 72 -176 96 -215 13 -21 24 -42 24
-47 0 -5 14 -36 30 -69 17 -34 30 -67 30 -74 0 -8 4 -18 9 -24 5 -5 35 -70 66
-144 68 -161 106 -228 141 -254 43 -30 151 -16 259 34 11 5 86 36 168 69 183
74 205 86 241 140 40 59 44 115 16 199 -12 37 -26 72 -30 77 -12 16 -38 106
-45 155 -4 25 -31 94 -61 153 -30 59 -54 113 -54 120 0 7 -7 25 -15 40 -8 16
-30 74 -49 130 -19 56 -51 147 -71 202 -20 55 -40 116 -44 135 -12 47 -73 214
-99 272 -12 26 -22 53 -22 61 0 8 -18 50 -40 93 -22 43 -40 89 -40 101 0 13
-13 49 -29 80 -17 32 -39 81 -51 108 -12 28 -28 64 -35 80 -32 72 -110 108
-190 88z"/>
<path d="M31684 44258 c-67 -32 -55 -163 31 -343 60 -128 64 -138 70 -190 5
-43 27 -98 86 -219 16 -33 29 -67 29 -76 0 -19 26 -101 46 -147 8 -17 14 -36
14 -41 0 -6 11 -32 25 -57 13 -26 34 -77 46 -113 12 -37 25 -71 29 -77 4 -5
17 -41 30 -80 12 -38 26 -74 30 -80 5 -5 11 -27 15 -48 4 -20 11 -40 16 -43 5
-3 9 -13 9 -22 0 -9 6 -29 14 -44 8 -15 17 -42 21 -60 4 -18 25 -73 46 -122
41 -93 48 -141 27 -179 -17 -29 -81 -111 -90 -115 -16 -7 -7 -42 15 -56 61
-38 182 -24 253 30 32 23 74 92 74 119 0 8 -19 50 -42 92 -30 55 -43 92 -45
127 -3 46 -12 68 -87 198 -15 26 -29 66 -31 88 -3 35 -34 124 -75 215 -41 92
-48 113 -43 137 5 28 1 39 -62 152 -63 114 -65 119 -65 161 0 57 -40 171 -87
247 -13 21 -23 51 -23 67 0 34 -37 136 -84 229 -18 37 -39 92 -46 122 -10 42
-23 65 -55 98 -44 44 -56 48 -91 30z"/>
<path d="M29765 43916 c-22 -8 -67 -21 -100 -30 -33 -9 -87 -26 -120 -38 -88
-30 -161 -54 -245 -79 -41 -12 -82 -28 -91 -36 -9 -8 -33 -47 -53 -87 -41 -82
-42 -72 18 -199 59 -127 66 -144 66 -179 0 -19 11 -56 24 -84 14 -27 45 -106
70 -175 24 -69 53 -144 63 -165 11 -21 25 -59 32 -84 21 -71 52 -163 62 -182
5 -10 9 -23 9 -29 0 -6 6 -25 14 -42 7 -18 23 -63 35 -102 12 -38 26 -79 31
-90 24 -52 100 -248 100 -257 0 -6 6 -24 14 -41 7 -18 35 -90 60 -162 65 -180
86 -224 124 -262 51 -51 100 -47 330 28 103 34 212 71 242 82 68 26 140 96
159 154 13 39 12 48 -12 115 -14 40 -28 89 -32 108 -3 19 -15 58 -25 85 -10
28 -21 75 -23 105 -3 34 -15 74 -31 103 -15 26 -36 77 -47 115 -12 37 -25 72
-29 77 -5 6 -12 35 -15 65 -4 30 -10 64 -14 75 -38 95 -52 138 -60 190 -5 33
-17 80 -26 105 -9 25 -22 78 -30 118 -8 41 -21 87 -29 104 -9 17 -25 65 -37
107 -12 42 -25 81 -29 86 -5 6 -16 42 -26 80 -9 39 -36 117 -59 175 -23 58
-45 120 -48 137 -15 79 -78 123 -174 123 -32 -1 -76 -7 -98 -14z"/>
<path d="M30289 43710 c-9 -5 -22 -35 -28 -67 -15 -67 0 -162 42 -268 33 -86
63 -188 81 -278 10 -45 27 -94 41 -115 14 -20 25 -50 25 -67 0 -42 56 -237 91
-316 16 -36 29 -74 29 -85 0 -21 24 -107 39 -139 5 -11 18 -56 29 -100 11 -44
27 -100 35 -125 8 -25 20 -70 27 -100 7 -30 18 -68 26 -85 22 -49 44 -128 44
-160 0 -46 -33 -107 -73 -138 -78 -60 -68 -92 36 -108 125 -20 220 20 258 107
l19 43 -32 73 c-17 40 -35 77 -40 82 -4 6 -8 35 -8 66 0 43 -7 72 -29 116 -48
95 -53 112 -91 279 -5 22 -22 74 -38 115 -19 49 -30 94 -30 127 0 41 -8 69
-37 125 -59 117 -77 174 -79 252 -1 58 -8 84 -34 138 -17 37 -32 74 -32 81 0
8 -7 34 -16 58 -8 24 -20 71 -24 104 -5 33 -23 87 -40 120 -17 33 -34 83 -37
110 -13 110 -93 191 -154 155z"/>
<path d="M16050 43591 c-75 -40 -112 -119 -135 -293 -3 -27 -8 -48 -10 -48 -2
0 -17 12 -32 26 -37 35 -70 47 -93 34 -25 -13 -65 -85 -84 -150 -19 -67 -93
-194 -134 -233 -21 -21 -40 -29 -65 -29 -40 0 -178 31 -191 43 -6 5 -18 9 -28
9 -19 0 -136 38 -153 50 -5 3 -32 15 -60 25 -27 10 -63 27 -80 37 -43 26 -79
22 -147 -14 -70 -37 -84 -56 -119 -157 -26 -78 -241 -652 -264 -706 -7 -16
-34 -88 -60 -160 -26 -71 -51 -139 -56 -150 -4 -11 -19 -51 -32 -90 -13 -38
-33 -90 -44 -115 -27 -60 -83 -213 -83 -227 0 -12 -62 -178 -84 -228 -8 -16
-22 -55 -31 -85 -67 -216 -77 -239 -133 -307 -43 -52 -98 -78 -147 -70 -20 3
-82 26 -138 51 -170 74 -250 90 -307 61 -32 -16 -70 -61 -70 -81 0 -39 156
-117 355 -178 44 -14 120 -41 169 -60 103 -41 154 -45 202 -15 45 27 72 76
133 234 27 72 67 175 89 230 22 55 49 129 60 165 22 69 69 200 121 340 18 47
44 119 58 160 14 41 29 79 34 84 5 6 9 16 9 24 0 7 20 56 45 108 25 51 45 101
45 109 0 30 64 217 152 440 50 127 95 242 100 257 29 80 75 127 150 151 23 8
141 -27 233 -69 17 -7 55 -23 85 -34 30 -11 64 -24 75 -29 85 -37 212 -66 248
-57 46 11 81 53 127 150 25 53 48 96 52 96 9 0 1 -57 -19 -135 -8 -33 -25
-103 -38 -155 -13 -52 -31 -120 -40 -150 -9 -30 -22 -82 -29 -116 -7 -34 -16
-66 -20 -72 -6 -10 -11 -31 -41 -182 -7 -36 -20 -90 -29 -120 -9 -30 -23 -89
-31 -130 -7 -41 -22 -109 -33 -150 -24 -88 -78 -320 -88 -370 -3 -19 -16 -73
-29 -120 -13 -47 -31 -130 -40 -185 -24 -142 -43 -226 -75 -335 -49 -165 -48
-187 11 -262 35 -44 73 -64 159 -84 30 -7 82 -20 115 -28 33 -9 96 -23 140
-32 249 -49 248 -49 322 -11 60 30 72 59 128 327 13 63 31 147 40 185 10 39
23 97 30 130 8 33 21 89 30 125 15 59 30 125 55 235 23 102 79 176 149 195 39
10 149 1 216 -19 17 -5 66 -17 110 -26 44 -9 98 -21 120 -26 22 -6 65 -16 95
-24 137 -34 236 -69 262 -92 43 -39 61 -84 60 -147 -1 -54 -35 -257 -46 -275
-3 -4 -14 -54 -26 -112 -11 -57 -27 -124 -35 -149 -8 -25 -21 -85 -30 -135 -9
-49 -21 -100 -26 -113 -15 -38 -49 -213 -49 -254 0 -78 131 -183 248 -198 37
-5 92 -16 122 -25 30 -9 84 -21 119 -26 36 -5 84 -16 108 -24 73 -25 113 -20
182 25 64 41 81 68 81 123 0 18 9 64 21 102 12 39 25 102 30 140 5 39 23 106
40 150 20 52 32 103 34 145 2 36 11 90 20 120 10 30 23 82 30 115 7 33 22 101
34 150 20 79 34 138 96 400 7 33 23 98 34 145 11 47 32 135 46 195 61 258 155
654 185 780 5 22 19 81 30 130 11 50 25 106 30 125 24 86 50 211 50 242 0 18
-8 49 -18 68 -30 56 -90 81 -312 133 -58 14 -141 34 -184 46 -53 14 -109 21
-172 21 -92 0 -92 0 -121 -33 -16 -18 -34 -46 -40 -63 -25 -64 -63 -221 -63
-257 0 -20 -13 -74 -29 -120 -15 -45 -31 -116 -35 -157 -4 -41 -18 -111 -31
-155 -12 -44 -26 -102 -30 -130 -9 -67 -43 -117 -109 -159 -54 -34 -55 -35
-108 -22 -30 7 -59 15 -64 19 -6 3 -58 13 -116 22 -59 8 -130 23 -159 31 -29
9 -73 20 -98 25 -208 40 -241 49 -293 84 -38 25 -88 106 -88 143 0 10 6 38 14
63 18 57 35 135 46 201 5 29 16 80 25 113 9 33 23 89 31 125 13 64 21 93 64
240 15 50 23 104 24 165 1 79 -2 94 -22 123 -31 43 -87 67 -204 86 -53 9 -123
26 -155 37 -32 11 -85 26 -118 34 -33 7 -78 18 -100 24 -60 16 -116 13 -155
-8z m-185 -518 c-8 -44 -25 -68 -25 -36 0 26 17 73 26 73 3 0 3 -17 -1 -37z"/>
<path d="M13470 43579 c-77 -32 -80 -78 -7 -136 74 -59 198 -89 250 -61 76 40
58 138 -34 177 -55 24 -173 36 -209 20z"/>
<path d="M27460 43299 c-19 -5 -66 -14 -105 -19 -234 -31 -280 -42 -420 -97
-77 -31 -167 -73 -200 -94 -33 -21 -100 -63 -149 -93 -184 -113 -380 -328
-540 -593 -68 -112 -89 -168 -132 -343 -12 -52 -30 -119 -38 -149 -13 -46 -15
-95 -10 -295 4 -133 10 -259 16 -281 5 -22 18 -82 29 -133 11 -51 29 -115 39
-143 11 -27 20 -60 20 -72 0 -24 27 -106 39 -122 10 -12 57 -97 159 -285 62
-115 83 -142 196 -256 147 -147 301 -258 426 -308 25 -10 56 -23 70 -28 14 -6
106 -38 205 -71 l180 -61 235 2 c248 2 285 6 500 53 170 37 209 50 329 106
214 100 198 90 460 304 38 32 93 93 137 153 40 56 83 114 96 130 65 84 100
159 113 246 4 25 13 52 21 60 24 28 44 88 44 134 0 25 7 94 16 153 25 162 13
396 -32 643 -35 195 -99 260 -242 246 -205 -20 -212 -21 -557 -106 -156 -38
-267 -60 -303 -60 -16 0 -60 -6 -98 -14 -38 -8 -97 -19 -132 -25 -135 -25
-218 -76 -257 -157 -13 -27 -14 -42 -6 -67 11 -34 35 -154 46 -227 11 -70 51
-207 69 -235 22 -34 95 -65 151 -65 56 0 167 23 262 55 122 41 247 31 267 -20
17 -46 -8 -121 -76 -225 -52 -80 -220 -187 -376 -239 -32 -11 -122 -28 -201
-37 -136 -17 -149 -17 -226 -1 -46 9 -98 17 -117 17 -43 0 -187 72 -264 131
-121 93 -248 293 -298 469 -35 124 -47 185 -55 287 -9 110 2 302 19 334 5 9
17 39 26 65 16 49 21 61 67 166 35 80 180 224 262 261 33 15 67 32 75 37 48
31 82 45 140 55 36 7 92 20 125 30 47 13 81 16 161 11 174 -11 264 -43 374
-134 97 -80 172 -112 258 -112 93 0 208 23 269 53 36 18 70 26 138 29 103 6
160 28 218 84 26 26 37 45 37 66 0 33 -53 135 -111 213 -62 84 -288 298 -354
334 -33 19 -95 54 -137 78 -44 25 -120 57 -175 73 -54 16 -127 38 -163 50 -44
14 -110 24 -205 30 -77 6 -171 12 -210 14 -38 3 -86 1 -105 -5z"/>
<path d="M16898 43033 c-28 -32 -55 -97 -63 -148 -4 -27 -11 -57 -16 -67 -5
-9 -18 -73 -29 -141 -11 -69 -27 -138 -35 -154 -26 -50 -20 -80 25 -109 54
-36 85 -34 127 9 29 29 38 47 48 103 7 38 25 116 39 174 14 58 30 124 36 148
13 56 13 118 -1 145 -29 54 -100 75 -131 40z"/>
<path d="M28860 42880 c0 -15 27 -57 72 -110 21 -25 65 -99 98 -163 67 -131
75 -178 40 -228 -46 -63 -55 -66 -355 -119 -138 -24 -242 -48 -267 -61 -22
-12 -23 -42 -2 -63 18 -19 76 -15 219 16 50 10 115 23 145 29 30 6 64 15 75
20 21 9 91 24 181 39 28 4 62 14 75 20 44 24 100 72 114 100 18 35 11 108 -17
165 -47 95 -181 242 -309 338 -37 27 -69 35 -69 17z"/>
<path d="M20450 42834 c-106 -41 -151 -82 -219 -204 -30 -52 -66 -113 -81
-135 -14 -22 -48 -80 -75 -130 -26 -49 -64 -119 -83 -155 -19 -36 -55 -96 -79
-135 -25 -38 -75 -126 -112 -195 -98 -181 -126 -231 -208 -368 -40 -67 -73
-124 -73 -126 0 -2 -68 -118 -152 -257 -162 -272 -228 -390 -228 -408 0 -7
-19 -42 -43 -79 -24 -37 -47 -75 -50 -86 -4 -10 -31 -55 -61 -100 -29 -44 -74
-124 -100 -176 -26 -52 -58 -106 -70 -120 -13 -14 -40 -61 -60 -105 -21 -44
-41 -82 -45 -85 -10 -7 -49 -73 -79 -133 -19 -39 -25 -66 -24 -110 1 -60 10
-80 45 -99 61 -32 626 -63 702 -38 51 17 118 80 172 163 45 68 92 112 170 161
47 29 100 34 163 15 26 -8 58 -9 103 -2 54 8 81 5 168 -14 74 -17 161 -26 304
-33 268 -14 377 -25 415 -45 17 -9 57 -43 89 -76 47 -48 62 -71 75 -117 9 -32
16 -65 16 -73 0 -33 134 -146 205 -172 24 -9 92 -17 170 -21 72 -3 146 -10
165 -16 19 -5 94 -10 166 -10 123 0 132 1 151 23 38 42 38 114 -1 245 -9 28
-22 73 -30 100 -7 26 -22 67 -34 92 -11 25 -24 56 -28 70 -4 14 -17 48 -29 75
-13 28 -43 111 -68 185 -24 74 -65 186 -91 248 -25 62 -46 121 -46 132 0 11
-11 48 -25 81 -13 33 -31 87 -39 120 -17 63 -40 121 -85 209 -15 30 -34 84
-41 120 -6 36 -19 78 -27 93 -8 16 -23 54 -33 85 -10 31 -39 101 -64 155 -25
55 -46 109 -46 120 0 19 -33 119 -86 262 -8 22 -26 74 -41 115 -14 41 -29 80
-32 85 -10 14 -63 157 -105 285 -60 184 -123 355 -153 416 -31 65 -83 122
-134 149 -34 17 -169 30 -199 19z m-8 -1501 c24 -28 74 -141 93 -213 10 -36
22 -73 27 -82 5 -10 20 -57 34 -105 14 -48 29 -92 34 -98 13 -15 23 -82 16
-108 -3 -13 -18 -36 -32 -50 -25 -26 -32 -27 -123 -27 -53 1 -116 5 -141 11
-25 6 -79 13 -120 17 -80 8 -104 17 -135 52 -19 21 -19 22 -1 73 25 72 220
431 268 495 44 56 56 62 80 35z"/>
<path d="M20333 41026 c-15 -19 -43 -69 -62 -112 -44 -99 -41 -106 66 -127 26
-5 38 -1 63 20 43 35 79 111 70 144 -17 59 -58 108 -92 109 -9 0 -29 -16 -45
-34z"/>
<path d="M24920 42830 c-47 -4 -157 -13 -245 -20 -144 -11 -163 -14 -193 -37
-55 -41 -83 -96 -83 -161 -1 -148 10 -393 20 -447 6 -33 11 -96 11 -140 0 -44
5 -120 10 -170 5 -49 12 -205 15 -345 6 -218 5 -258 -8 -275 -14 -18 -17 -18
-43 -5 -16 8 -72 53 -124 100 -144 130 -215 190 -329 278 -133 104 -212 173
-562 491 -63 57 -130 118 -149 135 -19 17 -102 92 -185 167 -178 161 -246 215
-294 235 -117 50 -212 59 -277 26 -84 -43 -87 -59 -74 -382 5 -146 15 -305 20
-355 11 -98 23 -305 40 -710 7 -154 17 -283 26 -316 18 -71 18 -93 -3 -136
-12 -26 -14 -40 -6 -52 6 -9 14 -64 17 -121 4 -58 11 -172 17 -255 6 -82 14
-247 19 -365 10 -230 32 -473 49 -530 7 -22 24 -44 48 -60 l37 -25 275 2 c293
3 362 11 422 49 42 26 56 60 66 157 7 69 -12 524 -32 762 -22 268 -29 512 -15
567 21 83 47 84 125 5 73 -75 421 -373 553 -474 38 -29 129 -108 203 -176 74
-67 212 -189 307 -270 95 -81 227 -201 295 -266 173 -167 244 -210 357 -218
73 -6 135 8 173 37 41 32 47 88 37 320 -5 113 -15 318 -21 455 -6 138 -15 288
-19 335 -4 47 -13 202 -19 345 -12 260 -17 331 -45 585 -8 74 -17 270 -21 435
-3 165 -12 363 -20 440 -8 77 -15 160 -15 185 0 68 -39 143 -92 176 -49 31
-119 37 -268 24z"/>
<path d="M18752 42598 c-11 -13 -25 -41 -31 -63 -6 -22 -17 -67 -26 -100 -9
-33 -22 -87 -30 -120 -12 -57 -43 -192 -87 -375 -11 -47 -28 -125 -39 -175
-20 -98 -19 -92 -83 -340 -24 -93 -48 -192 -52 -220 -3 -27 -11 -61 -16 -75
-5 -14 -20 -74 -33 -135 -13 -60 -28 -123 -33 -140 -12 -38 -29 -117 -38 -175
-3 -25 -15 -72 -26 -105 -11 -33 -24 -100 -28 -148 -5 -49 -13 -94 -18 -100
-12 -15 -29 -72 -47 -157 -54 -255 -103 -436 -127 -467 -15 -19 -117 -63 -146
-63 -15 0 -39 6 -54 14 -39 21 -122 43 -208 56 -148 24 -152 23 -197 -6 -23
-15 -47 -38 -54 -51 -11 -20 -9 -26 10 -47 12 -13 45 -36 74 -52 42 -23 67
-29 137 -32 86 -4 112 -11 295 -76 155 -55 207 -47 274 42 40 54 60 103 61
152 0 19 12 62 25 95 14 33 25 80 25 104 0 25 25 135 55 245 31 110 62 231 70
270 13 63 26 123 55 246 5 19 15 67 24 105 25 117 57 258 66 295 4 19 15 67
24 105 8 39 22 97 30 130 9 33 22 87 30 120 8 33 22 85 31 115 9 30 23 87 31
125 8 39 21 97 28 130 8 33 21 92 30 130 8 39 22 99 31 135 9 36 22 94 30 130
8 36 22 90 30 120 31 103 56 242 53 289 -3 43 -5 47 -48 69 -24 12 -51 22 -60
22 -9 0 -26 -10 -38 -22z"/>
<path d="M25492 42494 c-12 -8 -32 -34 -45 -57 -21 -40 -22 -51 -19 -232 2
-104 8 -230 13 -280 30 -297 39 -430 44 -647 4 -134 10 -272 15 -308 5 -36 6
-90 2 -120 -5 -33 -3 -81 5 -120 7 -36 13 -110 13 -165 0 -55 7 -154 15 -220
8 -66 15 -181 15 -255 0 -74 5 -191 10 -260 25 -336 25 -331 -6 -369 -41 -49
-69 -72 -121 -101 -69 -38 -75 -55 -33 -91 49 -41 96 -62 136 -61 57 2 138 48
194 109 l51 56 -4 81 c-2 45 -11 151 -20 236 -9 85 -19 236 -22 335 -3 99 -11
266 -16 370 -6 105 -12 233 -14 285 -2 52 -8 127 -14 165 -5 39 -15 228 -21
420 -6 193 -13 357 -16 366 -2 9 -11 131 -19 270 -31 526 -35 557 -86 593 -29
20 -29 20 -57 0z"/>
<path d="M21052 42444 c-17 -12 -22 -25 -22 -63 0 -43 51 -221 70 -246 20 -25
95 -228 151 -405 12 -36 31 -94 44 -130 13 -36 26 -76 30 -90 3 -14 17 -47 30
-75 61 -131 85 -196 85 -232 0 -14 7 -39 15 -56 8 -18 30 -75 49 -127 19 -52
49 -133 66 -180 18 -47 38 -101 45 -121 8 -20 25 -61 39 -92 14 -31 26 -60 26
-65 0 -5 11 -35 25 -66 14 -31 32 -89 41 -129 9 -39 22 -81 29 -92 7 -11 16
-36 20 -55 4 -19 25 -75 46 -123 22 -48 39 -93 39 -100 0 -7 6 -24 14 -38 7
-14 16 -43 20 -65 6 -35 75 -221 112 -301 8 -17 14 -60 14 -96 0 -35 7 -84 15
-107 22 -63 19 -77 -26 -120 -67 -64 -99 -74 -183 -61 -97 16 -367 43 -446 44
-113 2 -154 -38 -116 -112 29 -55 176 -109 267 -98 27 3 82 0 125 -8 47 -10
138 -15 244 -15 l167 0 58 58 c59 59 102 135 112 197 6 38 -6 130 -37 286 -19
92 -29 122 -78 229 -11 25 -28 70 -37 100 -22 71 -152 422 -176 477 -11 23
-19 46 -19 50 0 4 -36 103 -80 218 -45 116 -90 242 -102 280 -22 77 -80 245
-126 370 -63 171 -135 363 -157 420 -13 33 -40 107 -60 165 -39 109 -89 243
-111 295 -6 17 -19 53 -28 80 -9 28 -30 78 -47 111 -25 49 -40 66 -74 83 -50
25 -45 25 -73 5z"/>
<path d="M27450 42408 c-88 -25 -159 -54 -209 -85 -57 -36 -170 -144 -214
-205 -34 -46 -97 -176 -97 -200 0 -9 -4 -19 -9 -22 -22 -14 -42 -150 -44 -298
-2 -150 -1 -155 32 -248 62 -174 134 -290 182 -290 15 0 19 7 19 33 0 18 -4
37 -9 42 -22 25 -41 162 -47 342 -6 161 -5 199 9 235 22 63 45 147 51 191 5
40 33 80 134 188 45 50 138 114 242 168 27 14 123 39 175 46 139 18 170 38
101 69 -94 43 -233 58 -316 34z"/>
<path d="M32010 42059 c-111 -8 -201 -44 -311 -125 -73 -53 -142 -169 -164
-275 -17 -80 -5 -143 50 -261 46 -101 84 -142 162 -179 94 -44 112 -50 176
-59 77 -11 181 15 304 76 109 54 164 108 220 215 35 69 38 80 38 159 0 72 -5
96 -29 155 -57 134 -121 209 -222 256 -77 37 -130 46 -224 38z"/>
<path d="M32506 41912 c-2 -4 11 -43 30 -85 45 -102 56 -146 61 -238 4 -67 1
-82 -23 -135 -52 -110 -116 -190 -199 -248 -56 -39 -97 -58 -220 -101 -88 -31
-96 -48 -32 -66 126 -34 374 40 485 145 46 43 104 131 127 191 26 69 26 201 1
275 -28 82 -98 181 -161 229 -58 44 -61 45 -69 33z"/>
<path d="M29325 41863 c-26 -27 -27 -30 -21 -113 15 -210 17 -380 6 -599 l-11
-236 -60 -140 c-32 -77 -59 -144 -59 -149 0 -23 -162 -248 -219 -305 -131
-131 -237 -227 -274 -250 -57 -35 -135 -71 -153 -71 -8 0 -29 -13 -45 -29 -52
-53 -200 -110 -369 -142 -36 -7 -85 -22 -110 -33 -55 -25 -130 -45 -145 -40
-6 3 -60 -7 -119 -21 -59 -14 -128 -25 -152 -25 -56 0 -58 -20 -6 -43 46 -20
67 -21 126 -5 36 9 53 9 88 -3 49 -16 149 -17 181 -1 12 6 58 18 102 27 226
47 395 100 497 155 10 6 23 10 30 10 6 0 43 20 82 44 39 24 88 51 108 61 20 9
65 42 100 73 35 32 83 72 108 91 25 19 65 57 90 85 25 28 68 76 96 106 75 81
147 194 159 252 4 18 24 65 45 105 79 151 93 244 94 638 1 267 -14 487 -36
530 -32 61 -88 73 -133 28z"/>
<path d="M30380 41493 c-217 -78 -279 -126 -371 -288 -32 -56 -34 -66 -34
-150 0 -81 4 -99 40 -187 21 -54 51 -111 65 -127 29 -35 154 -106 220 -127 98
-30 254 -3 396 69 71 36 155 125 195 204 32 65 33 73 32 170 -1 98 -2 105 -42
187 -49 100 -82 142 -154 189 -76 49 -141 67 -244 66 -48 0 -95 -3 -103 -6z"/>
<path d="M16555 41314 c-16 -8 -40 -25 -53 -37 -31 -29 -82 -134 -82 -171 -1
-17 -10 -67 -21 -111 -82 -324 -92 -366 -118 -493 -6 -30 -18 -74 -26 -98 -8
-25 -15 -63 -15 -86 0 -146 -94 -237 -232 -225 -70 6 -154 23 -272 56 -69 19
-86 21 -128 11 -81 -20 -103 -79 -45 -122 53 -41 89 -56 188 -78 52 -12 128
-32 169 -45 41 -13 95 -27 120 -31 25 -3 70 -13 100 -20 85 -22 112 -19 147
19 17 17 40 52 51 77 19 42 28 73 53 189 5 25 20 77 33 115 13 39 31 107 41
151 38 187 47 225 70 320 14 55 34 138 44 184 15 66 25 90 50 115 31 31 33 31
129 31 62 -1 122 -7 167 -19 100 -27 196 -27 232 0 30 23 44 68 32 102 -4 12
-25 30 -46 40 -50 26 -222 77 -298 90 -33 5 -86 19 -117 31 -68 25 -131 27
-173 5z"/>
<path d="M30975 41310 c-7 -12 4 -53 39 -139 21 -53 26 -81 26 -154 0 -81 -3
-96 -32 -156 -23 -45 -58 -91 -113 -147 -99 -100 -169 -137 -348 -184 -59 -16
-65 -24 -30 -47 22 -15 47 -18 133 -17 91 0 118 5 200 33 137 46 177 75 260
184 58 78 80 143 80 238 0 142 -40 240 -143 348 -49 52 -61 59 -72 41z"/>
<path d="M23531 40654 c-18 -23 -21 -40 -21 -123 1 -53 5 -116 11 -141 5 -25
14 -142 19 -260 5 -118 14 -303 20 -410 19 -316 19 -320 -13 -368 -44 -68 -84
-81 -249 -88 -245 -9 -392 -63 -355 -129 13 -25 33 -45 44 -45 4 0 19 -9 33
-20 31 -24 61 -25 102 -4 36 18 130 21 171 5 23 -9 47 -8 110 5 56 12 104 15
156 10 66 -5 82 -3 115 15 50 26 60 37 87 88 21 41 21 46 10 164 -7 67 -18
250 -26 407 -37 730 -32 667 -65 759 -29 82 -44 107 -85 143 -28 24 -40 22
-64 -8z"/>
<path d="M19769 39797 c-48 -14 -128 -57 -146 -79 -6 -7 -27 -45 -47 -84 -40
-80 -90 -131 -165 -169 -60 -30 -163 -34 -276 -10 -164 34 -304 17 -358 -43
-25 -28 -15 -54 34 -86 45 -30 92 -41 269 -61 69 -7 168 -19 220 -25 118 -15
163 -9 237 31 76 40 104 68 138 135 61 120 102 154 227 188 66 19 178 21 228
5 36 -12 277 -27 535 -35 169 -4 189 1 187 56 -1 40 -4 43 -73 86 -59 35 -66
37 -190 45 -134 9 -278 22 -414 38 -152 18 -357 22 -406 8z"/>
<path d="M9740 32440 c-58 -4 -121 -12 -140 -18 -19 -6 -64 -21 -100 -32 -36
-12 -81 -28 -100 -36 -19 -9 -44 -19 -55 -23 -29 -11 -226 -109 -250 -123 -20
-13 -91 -61 -220 -149 -108 -74 -270 -233 -357 -349 -146 -195 -282 -516 -322
-755 -9 -55 -21 -122 -27 -150 -16 -74 -23 -358 -10 -440 6 -38 17 -117 26
-175 37 -247 159 -528 329 -755 221 -295 402 -441 771 -620 197 -95 191 -92
240 -104 22 -6 67 -17 100 -27 120 -32 182 -44 290 -54 218 -20 556 -7 674 26
31 8 81 21 111 29 181 45 308 99 529 224 144 82 351 241 443 339 238 257 403
608 447 951 23 176 9 482 -29 643 -6 24 -20 83 -31 133 -55 232 -143 444 -255
615 -102 154 -282 357 -418 468 -232 191 -377 265 -691 350 l-110 30 -370 5
c-203 2 -417 1 -475 -3z m245 -540 c135 -14 249 -30 280 -40 17 -5 57 -17 90
-26 252 -69 447 -160 600 -281 61 -48 211 -202 258 -263 82 -108 157 -267 238
-500 12 -36 59 -355 59 -404 0 -47 -23 -191 -46 -286 -24 -96 -62 -194 -117
-294 -81 -151 -134 -221 -256 -338 -211 -202 -471 -345 -751 -411 -36 -8 -99
-23 -140 -33 -48 -12 -116 -18 -190 -18 -111 -1 -117 0 -185 33 -101 49 -207
115 -310 191 -136 101 -167 128 -339 298 -174 173 -276 311 -360 486 -124 260
-160 566 -102 851 46 223 120 416 217 565 93 145 295 355 419 438 l62 42 247
-1 c135 0 282 -4 326 -9z"/>
<path d="M6820 27320 c-117 -13 -226 -50 -356 -121 -188 -103 -378 -257 -478
-389 -41 -53 -136 -205 -136 -216 0 -3 -6 -20 -14 -37 -100 -228 -126 -361
-126 -630 0 -201 15 -303 63 -437 40 -111 57 -147 133 -272 74 -122 132 -194
241 -299 99 -96 180 -153 298 -212 44 -21 102 -50 128 -63 65 -33 135 -58 247
-90 86 -24 116 -27 322 -31 247 -6 273 -3 486 58 302 86 631 313 781 539 89
133 167 322 197 475 34 172 21 491 -26 650 -46 154 -66 209 -111 302 -80 167
-162 283 -286 403 -219 214 -410 312 -698 360 -99 16 -162 20 -360 18 -132 0
-269 -4 -305 -8z m291 -395 c57 -8 120 -19 139 -25 19 -5 76 -19 125 -31 265
-63 536 -274 657 -512 92 -183 122 -313 122 -527 -1 -222 -23 -304 -128 -485
-80 -137 -310 -341 -484 -429 -122 -62 -237 -93 -390 -106 -120 -10 -187 -4
-217 20 -5 4 -35 21 -65 37 -76 40 -319 223 -409 308 -92 87 -199 224 -244
313 -75 147 -136 406 -124 524 16 161 63 353 111 455 72 151 217 325 357 428
l61 45 192 0 c118 0 233 -6 297 -15z"/>
<path d="M22040 18251 c-80 -9 -160 -26 -188 -40 -9 -5 -42 -19 -72 -31 -112
-46 -224 -130 -300 -225 -59 -74 -136 -215 -155 -283 -7 -26 -24 -81 -36 -122
-21 -69 -23 -95 -23 -305 l0 -230 33 -115 c61 -212 165 -378 303 -482 94 -73
143 -98 253 -136 114 -38 197 -52 313 -52 178 0 329 34 476 106 178 88 336
280 410 498 18 52 51 242 61 351 7 82 -23 331 -54 440 -35 125 -118 269 -210
368 -102 109 -281 212 -417 241 -86 18 -294 27 -394 17z m240 -342 c73 -11
164 -54 226 -105 82 -66 155 -212 189 -372 40 -192 2 -470 -84 -617 -97 -167
-268 -256 -461 -241 -225 17 -376 146 -453 385 -19 59 -21 90 -22 286 0 241 3
257 69 395 39 81 150 196 221 230 94 44 202 58 315 39z"/>
<path d="M25905 18254 c-248 -17 -451 -143 -546 -339 -43 -89 -43 -91 -47
-216 -6 -180 21 -277 100 -368 100 -114 237 -178 493 -230 53 -11 142 -31 240
-54 196 -47 302 -107 321 -184 11 -44 -3 -140 -25 -171 -88 -124 -359 -168
-583 -95 -95 31 -188 144 -188 231 0 45 1 44 -65 44 -14 0 -93 0 -176 -1
l-152 -1 6 -69 c33 -348 296 -551 737 -568 174 -7 293 7 408 47 125 43 201 91
274 169 92 100 131 183 150 321 12 90 1 226 -21 267 -5 10 -20 41 -33 68 -59
129 -216 222 -468 279 -41 10 -97 24 -125 31 -27 8 -97 25 -155 39 -271 62
-311 81 -349 160 -43 87 -16 179 70 242 60 44 112 60 216 69 94 8 216 -14 273
-50 82 -52 132 -118 140 -184 l5 -46 193 -3 c164 -2 193 0 198 13 7 17 -9 90
-42 192 -59 182 -243 338 -457 387 -68 16 -286 27 -392 20z"/>
<path d="M6103 18203 c-10 -3 -13 -47 -13 -169 l0 -164 295 0 295 0 2 -792 3
-793 200 0 200 0 5 790 5 790 282 3 282 2 3 163 c2 89 2 165 0 170 -3 8 -1539
9 -1559 0z"/>
<path d="M7897 18204 c-4 -4 -7 -439 -7 -966 l0 -958 203 2 202 3 3 428 2 427
33 0 c17 0 184 1 369 3 l338 2 2 -430 3 -430 203 -3 202 -2 0 965 0 965 -202
-2 -203 -3 -3 -362 -2 -363 -370 0 -370 0 -2 363 -3 362 -196 3 c-107 1 -198
-1 -202 -4z"/>
<path d="M9845 18198 c-3 -7 -4 -440 -3 -963 l3 -950 730 0 730 0 3 167 2 168
-532 2 -533 3 0 242 c0 133 2 244 5 247 3 2 194 6 425 7 231 1 438 3 460 6
l40 5 3 164 4 164 -469 2 -468 3 -3 180 c-1 99 0 190 3 203 l5 22 504 0 503 0
7 160 c4 89 4 165 1 170 -10 16 -1414 13 -1420 -2z"/>
<path d="M12377 18204 c-4 -4 -7 -439 -7 -966 l0 -958 203 2 202 3 3 420 c1
230 6 423 10 427 4 4 169 8 367 9 l360 1 5 -429 5 -428 200 0 200 0 0 960 0
960 -197 3 c-109 1 -199 1 -200 0 -1 -2 -5 -165 -8 -363 l-5 -360 -367 -3
-368 -2 -2 362 -3 363 -196 3 c-107 1 -198 -1 -202 -4z"/>
<path d="M14295 18198 c-3 -7 -4 -440 -3 -963 l3 -950 200 0 200 0 0 960 0
960 -198 3 c-152 2 -199 0 -202 -10z"/>
<path d="M15079 18198 c-2 -7 -3 -442 -1 -966 l2 -952 677 2 676 3 4 173 4
172 -480 0 c-265 0 -481 1 -482 3 0 1 -3 355 -5 787 l-5 785 -193 3 c-150 2
-195 0 -197 -10z"/>
<path d="M17246 18188 c-8 -13 -26 -57 -40 -98 -22 -66 -78 -228 -176 -505
-16 -44 -49 -138 -75 -210 -26 -71 -51 -143 -57 -160 -5 -16 -14 -39 -19 -50
-4 -11 -18 -49 -30 -85 -11 -36 -27 -79 -35 -97 -8 -17 -14 -36 -14 -42 0 -6
-4 -19 -9 -29 -5 -9 -23 -56 -40 -105 -72 -207 -94 -268 -133 -367 -22 -58
-42 -117 -45 -132 l-5 -28 211 0 c210 0 211 0 220 23 5 12 23 69 40 127 18 58
38 119 45 135 7 17 17 45 20 62 4 18 12 36 17 39 6 3 169 6 362 6 l352 1 17
-49 c9 -27 31 -96 48 -154 17 -58 36 -123 43 -145 l12 -40 219 -3 218 -2 -5
22 c-4 20 -72 212 -90 258 -4 8 -16 44 -27 80 -12 36 -25 74 -30 85 -5 11 -19
49 -30 85 -12 36 -25 74 -30 85 -5 11 -19 49 -30 85 -12 36 -25 74 -30 85 -10
21 -25 64 -120 335 -31 91 -60 172 -64 180 -3 8 -17 47 -30 85 -132 387 -180
522 -188 533 -8 9 -67 12 -234 12 -221 0 -224 0 -238 -22z m247 -445 c3 -10
19 -63 37 -118 17 -55 37 -122 45 -150 7 -27 25 -84 39 -125 62 -182 103 -316
98 -328 -7 -19 -461 -17 -468 2 -3 8 8 54 24 102 54 163 151 468 173 544 12
41 24 78 26 83 7 13 20 8 26 -10z"/>
<path d="M18657 18196 c-3 -8 -5 -442 -4 -963 l2 -948 195 0 195 0 3 373 2
372 273 0 c161 0 288 -4 310 -11 56 -15 112 -76 130 -140 10 -35 18 -120 22
-244 6 -197 20 -334 33 -347 14 -14 455 -5 459 9 2 6 -11 29 -31 50 -59 66
-64 93 -69 348 -5 261 -16 321 -74 392 -18 23 -58 57 -88 75 -31 18 -54 37
-52 42 2 6 19 19 38 29 96 53 172 146 211 257 26 74 27 240 3 325 -39 136
-150 271 -270 330 -120 58 -123 59 -726 63 -492 3 -557 1 -562 -12z m1042
-350 c89 -57 119 -101 127 -187 9 -93 -10 -172 -53 -219 -61 -68 -84 -72 -420
-74 l-298 -1 -3 253 -2 252 305 0 305 0 39 -24z"/>
<path d="M20565 18188 c-3 -13 -4 -446 -3 -963 l3 -940 198 -3 197 -2 0 965 0
965 -195 0 c-194 0 -195 0 -200 -22z"/>
<path d="M23425 18187 c-4 -13 -4 -336 -2 -718 5 -773 2 -745 76 -885 52 -101
131 -190 211 -238 34 -20 64 -36 68 -36 4 0 19 -6 33 -14 79 -41 218 -66 369
-66 201 0 347 31 483 103 108 57 221 187 267 310 47 124 51 187 48 897 l-3
665 -202 3 -203 2 0 -673 c0 -584 -2 -680 -16 -723 -55 -173 -159 -240 -369
-238 -81 0 -109 5 -150 23 -66 29 -130 93 -163 161 l-27 55 -5 695 -5 695
-202 3 -203 2 -5 -23z"/>
<path d="M27910 18203 c0 -30 0 -1892 0 -1905 0 -17 30 -18 498 -18 613 0 677
8 822 98 72 45 123 93 172 166 56 81 78 151 85 265 14 234 -53 382 -214 473
-30 17 -52 35 -50 42 2 6 26 27 55 46 91 63 124 119 148 258 13 75 13 92 -2
173 -9 49 -20 92 -25 95 -5 3 -9 12 -9 20 0 32 -86 136 -149 182 -55 40 -94
58 -186 85 -66 20 -98 21 -607 25 -296 2 -538 0 -538 -5z m1027 -357 c90 -44
125 -115 109 -218 -11 -68 -40 -104 -113 -140 l-65 -32 -233 -4 c-129 -3 -259
-1 -289 2 l-56 7 0 205 0 204 298 0 c295 0 299 0 349 -24z m-19 -732 c69 -20
134 -73 159 -128 25 -56 22 -155 -7 -221 -26 -60 -53 -91 -100 -115 -69 -35
-136 -41 -410 -38 l-265 3 -3 249 c-2 193 1 251 10 258 7 4 136 8 286 8 224 0
284 -3 330 -16z"/>
<path d="M30382 18198 c-7 -7 -12 -17 -12 -22 0 -6 -6 -23 -14 -37 -7 -14 -16
-39 -20 -55 -4 -16 -32 -96 -62 -179 -95 -257 -113 -308 -134 -375 -11 -36
-24 -74 -29 -85 -5 -11 -22 -58 -39 -105 -38 -108 -182 -510 -189 -530 -21
-56 -97 -272 -108 -305 -7 -22 -29 -77 -48 -122 -29 -66 -33 -84 -23 -93 9 -7
81 -10 217 -8 195 3 204 4 207 23 2 11 7 29 12 40 5 11 19 52 31 90 47 152 82
235 98 236 9 1 169 1 356 1 272 0 341 -3 347 -14 4 -7 15 -40 24 -73 9 -33 25
-85 34 -115 10 -30 24 -80 31 -110 7 -30 17 -61 22 -67 12 -16 437 -19 437 -3
0 14 -41 133 -50 145 -4 6 -11 26 -15 45 -4 19 -11 40 -15 45 -4 6 -18 42 -30
80 -12 39 -26 79 -30 90 -9 21 -83 234 -105 300 -7 22 -34 96 -58 165 -93 260
-141 393 -233 660 -53 151 -100 284 -104 295 -5 11 -12 31 -16 45 -13 50 -13
50 -248 50 -159 0 -225 -3 -234 -12z m258 -510 c12 -40 29 -95 37 -123 9 -27
32 -102 53 -165 21 -63 48 -149 60 -190 12 -41 28 -94 36 -118 29 -89 44 -83
-210 -81 -122 0 -229 5 -236 9 -11 7 -7 29 19 112 19 57 58 177 87 268 29 91
60 190 70 220 27 91 46 140 55 140 4 0 17 -33 29 -72z"/>
<path d="M31617 18203 c-4 -3 -7 -80 -7 -170 l0 -163 295 0 295 0 0 -795 0
-795 203 2 202 3 3 793 2 792 290 0 290 0 -2 168 -3 167 -781 3 c-429 1 -784
-1 -787 -5z"/>
<path d="M33277 18203 c-4 -3 -7 -80 -7 -170 l0 -163 288 -2 287 -3 5 -790 5
-790 198 -3 c108 -1 197 1 197 5 0 5 2 58 4 118 2 61 4 415 5 788 l1 677 290
0 290 0 -2 168 -3 167 -776 3 c-426 1 -779 -1 -782 -5z"/>
<path d="M35083 18198 c-4 -7 -9 -437 -11 -954 -2 -789 0 -943 11 -953 11 -8
193 -10 683 -9 l669 3 3 173 2 172 -474 0 c-389 0 -476 2 -485 14 -8 10 -11
222 -11 787 l1 774 -190 3 c-145 2 -191 -1 -198 -10z"/>
<path d="M36719 18198 c-2 -7 -2 -440 1 -963 l5 -950 725 0 725 0 0 165 0 165
-530 5 -530 5 0 245 0 245 345 6 c190 3 400 7 467 8 l122 1 3 153 c2 83 2 158
0 164 -3 10 -110 13 -471 15 l-466 3 0 200 0 200 508 3 507 2 0 170 0 170
-704 0 c-555 0 -705 -3 -707 -12z"/>
<path d="M10450 14685 c-145 -22 -162 -27 -294 -91 -126 -61 -268 -204 -344
-346 -134 -252 -161 -695 -60 -983 55 -157 111 -250 208 -344 126 -122 199
-162 430 -232 31 -10 100 -14 220 -14 185 0 265 14 395 68 197 81 358 245 449
457 45 104 64 194 77 362 31 390 -57 677 -273 890 -74 74 -142 122 -240 167
-82 39 -121 49 -248 66 -124 17 -204 17 -320 0z m312 -342 c7 -6 26 -13 42
-17 91 -22 218 -157 276 -291 27 -63 60 -255 60 -351 0 -87 -30 -269 -58 -344
-36 -101 -141 -232 -216 -268 -93 -46 -99 -47 -241 -47 -168 0 -228 16 -313
85 -146 117 -213 294 -215 565 -1 157 13 254 54 358 44 111 158 239 249 280
72 32 83 36 115 41 53 8 233 0 247 -11z"/>
<path d="M14950 14685 c-200 -27 -348 -95 -482 -222 -140 -134 -221 -285 -275
-513 -25 -107 -25 -443 0 -550 50 -213 119 -341 262 -486 110 -112 212 -170
395 -225 72 -22 349 -19 425 5 112 35 215 96 293 173 101 100 108 98 114 -28
4 -71 9 -104 19 -110 8 -5 70 -8 139 -7 l125 3 -1 515 -1 515 -399 0 -399 0
-6 -145 c-3 -80 -3 -151 -1 -157 3 -10 56 -13 218 -13 184 0 215 -2 221 -15 8
-23 -35 -143 -73 -200 -38 -58 -124 -136 -192 -173 -45 -25 -54 -26 -202 -27
-130 0 -163 3 -205 19 -149 58 -251 170 -305 336 -37 113 -45 399 -15 536 21
95 89 229 152 299 33 36 97 81 158 111 58 28 66 29 205 29 140 0 147 -1 202
-29 93 -47 166 -119 204 -202 18 -39 38 -73 46 -75 7 -2 94 -2 193 1 l180 5 3
27 c3 28 -25 129 -53 188 -38 80 -52 99 -144 190 -143 142 -281 204 -506 230
-110 12 -171 11 -295 -5z"/>
<path d="M28810 14685 c-94 -13 -156 -27 -195 -45 -11 -5 -42 -19 -69 -30
-128 -57 -268 -184 -345 -314 -27 -45 -52 -93 -56 -107 -4 -13 -11 -28 -15
-34 -15 -22 -39 -103 -45 -155 -4 -30 -13 -84 -21 -120 -36 -170 -3 -506 64
-660 85 -197 141 -271 282 -377 96 -72 147 -95 340 -154 61 -19 376 -19 445 0
199 54 316 115 416 218 151 155 196 238 260 473 21 76 23 106 23 295 0 222
-11 297 -64 449 -75 218 -243 401 -455 496 -87 39 -123 49 -240 65 -120 17
-198 17 -325 0z m338 -353 c148 -57 253 -179 317 -367 21 -64 31 -324 17 -455
-18 -165 -93 -312 -202 -397 -107 -83 -124 -87 -300 -88 -155 0 -156 0 -221
32 -114 56 -215 176 -263 313 -23 63 -46 221 -46 310 0 41 7 118 15 170 25
166 72 266 170 366 81 82 144 117 245 137 56 12 215 -1 268 -21z"/>
<path d="M32660 14685 c-116 -16 -180 -34 -250 -69 -150 -75 -237 -177 -292
-340 -32 -91 -31 -267 2 -356 49 -137 128 -222 265 -286 74 -34 199 -68 445
-123 108 -24 278 -74 310 -91 85 -45 120 -97 120 -177 -1 -124 -80 -195 -255
-227 -113 -20 -168 -20 -275 3 -102 21 -133 36 -189 92 -50 51 -70 87 -85 154
l-11 50 -145 3 c-80 2 -165 0 -189 -3 l-43 -7 7 -76 c21 -241 173 -425 415
-506 139 -46 180 -51 385 -50 176 0 210 3 280 23 86 24 213 80 254 112 112 88
159 153 212 294 31 81 33 271 5 354 -27 79 -80 164 -126 204 -74 63 -237 133
-380 162 -36 8 -90 21 -120 30 -30 8 -86 22 -125 30 -38 7 -119 26 -179 42
-100 25 -114 32 -158 73 -64 61 -84 125 -58 189 21 54 81 116 140 144 40 20
62 22 200 22 143 0 159 -2 202 -24 88 -43 127 -87 157 -176 l27 -80 157 -3
c171 -3 220 4 225 33 2 10 -4 50 -13 89 -54 229 -223 403 -455 469 -128 36
-297 44 -460 22z"/>
<path d="M11872 13688 l3 -963 193 -3 192 -2 0 393 c0 292 3 396 12 405 9 9
117 12 425 12 l413 0 -2 173 -3 172 -420 5 -420 5 -3 203 c-2 167 0 203 12
208 7 3 225 6 482 7 l469 2 5 165 c3 91 4 168 2 173 -2 4 -309 7 -683 7 l-679
0 2 -962z"/>
<path d="M16349 14638 c-2 -7 -2 -440 1 -963 l5 -950 725 0 725 0 3 167 2 168
-532 2 -533 3 0 245 0 245 465 5 465 5 3 167 2 168 -467 2 -468 3 -3 197 -2
198 507 2 508 3 3 173 2 172 -704 0 c-554 0 -705 -3 -707 -12z"/>
<path d="M18120 14625 c-6 -15 -9 -388 -7 -962 l2 -938 185 0 185 0 2 674 c2
371 5 676 7 679 5 5 65 -86 105 -160 14 -26 31 -56 36 -66 6 -9 28 -48 49 -87
22 -38 60 -106 87 -150 26 -44 56 -97 68 -117 96 -172 275 -483 298 -521 13
-20 40 -68 60 -105 54 -101 81 -140 100 -149 10 -5 101 -6 203 -3 l185 5 0
960 0 960 -185 0 -185 0 -3 -662 c-1 -365 -6 -663 -10 -663 -4 0 -19 21 -32
47 -14 27 -34 64 -46 83 -12 19 -56 96 -98 170 -42 74 -81 142 -86 150 -12 19
-68 118 -104 185 -16 28 -49 86 -76 130 -26 44 -49 85 -51 90 -3 8 -66 120
-99 175 -47 79 -84 147 -116 210 -20 41 -42 78 -48 82 -6 4 -102 8 -214 8
l-202 0 -10 -25z"/>
<path d="M20075 14568 c-3 -46 -5 -479 -3 -963 l3 -880 730 0 730 0 3 168 2
167 -535 0 -535 0 2 248 3 247 465 5 465 5 0 168 0 168 -465 2 -465 2 -3 198
-2 197 22 0 c13 1 241 2 508 3 l485 2 7 160 c5 88 6 166 3 173 -3 9 -154 12
-709 12 l-704 0 -7 -82z"/>
<path d="M21865 14618 c-3 -18 -4 -451 -3 -963 l3 -930 180 -3 c99 -1 189 0
200 2 20 5 20 12 17 376 l-2 370 273 0 c346 0 370 -7 428 -126 30 -60 31 -64
34 -240 3 -202 14 -345 26 -366 6 -10 53 -14 201 -16 279 -5 293 1 219 84 -48
55 -51 72 -51 306 0 170 -10 266 -36 350 -10 33 -75 104 -126 138 -28 19 -52
40 -52 45 1 6 16 18 35 27 94 48 178 156 215 277 18 60 18 240 0 309 -39 145
-174 293 -316 345 -128 46 -139 47 -703 47 l-536 0 -6 -32z m1017 -320 c49
-14 113 -76 139 -131 44 -98 13 -252 -62 -308 -70 -52 -82 -54 -399 -54 l-295
0 -3 253 -2 252 291 0 c195 0 305 -4 331 -12z"/>
<path d="M24342 14638 c-5 -7 -17 -33 -25 -58 -9 -25 -32 -90 -52 -145 -20
-55 -47 -131 -60 -170 -34 -98 -57 -163 -105 -295 -23 -63 -48 -133 -55 -155
-21 -63 -151 -427 -165 -460 -5 -11 -13 -33 -18 -50 -6 -16 -31 -88 -57 -160
-26 -71 -57 -161 -70 -200 -13 -38 -37 -101 -53 -140 -25 -56 -28 -71 -17 -78
8 -4 104 -6 215 -5 l201 3 59 177 c32 97 63 186 70 197 11 21 16 21 355 21
375 0 368 1 381 -58 3 -15 21 -76 39 -137 19 -60 37 -125 40 -143 12 -61 16
-62 241 -62 154 0 206 3 209 13 3 6 -4 37 -16 67 -44 117 -101 277 -114 320
-16 52 -92 265 -105 295 -5 11 -28 74 -51 140 -80 231 -119 341 -154 440 -20
55 -41 116 -46 135 -10 35 -82 234 -101 280 -5 14 -22 64 -38 111 -46 143 -16
129 -274 129 -167 0 -226 -3 -234 -12z m248 -488 c7 -19 18 -48 25 -65 7 -16
20 -64 30 -105 10 -41 24 -88 31 -105 7 -16 34 -97 59 -180 26 -82 53 -167 61
-188 8 -21 12 -43 9 -48 -4 -5 -106 -9 -241 -9 -186 0 -234 3 -234 13 0 14 37
134 124 402 29 88 63 194 75 235 13 41 25 81 27 89 6 19 17 5 34 -39z"/>
<path d="M25577 14628 c-3 -13 -6 -86 -7 -164 0 -114 2 -143 14 -153 12 -10
82 -12 293 -9 l278 3 5 -790 5 -790 200 0 200 0 0 782 c0 430 4 785 9 790 4 4
132 8 284 9 l277 0 5 165 c3 90 4 167 2 172 -2 4 -353 7 -782 7 l-778 0 -5
-22z"/>
<path d="M27355 14638 c-3 -7 -4 -440 -2 -963 l2 -950 200 0 200 0 -1 960 -2
960 -196 3 c-152 2 -198 0 -201 -10z"/>
<path d="M30210 14648 c-5 -26 -6 -1909 -1 -1917 5 -8 60 -11 187 -9 l179 3 0
677 c0 455 3 678 10 678 6 0 19 -17 30 -37 10 -21 29 -52 42 -70 13 -17 23
-35 23 -38 0 -4 24 -48 54 -98 88 -153 132 -229 167 -292 18 -33 57 -100 86
-148 29 -48 53 -90 53 -92 0 -3 50 -92 111 -198 129 -223 147 -254 185 -324
18 -34 36 -55 53 -60 14 -4 107 -6 206 -3 l180 5 0 960 0 960 -185 0 -185 0
-3 -663 c-1 -481 -5 -663 -13 -660 -6 2 -32 44 -58 93 -26 50 -65 120 -87 157
-21 37 -60 104 -86 150 -27 46 -104 182 -173 302 -69 120 -125 220 -125 222 0
2 -20 37 -45 77 -25 41 -45 77 -45 81 0 3 -17 34 -38 68 -21 35 -41 71 -45 80
-3 9 -17 35 -32 57 l-25 41 -210 0 c-116 0 -210 -1 -210 -2z"/>
<path d="M33997 14643 c-10 -10 -8 -370 3 -513 13 -162 33 -348 58 -535 12
-82 24 -190 29 -240 l8 -90 105 0 105 0 7 90 c9 113 26 262 39 340 24 152 40
364 49 639 5 165 7 303 4 308 -6 10 -398 11 -407 1z"/>
<path d="M34894 14636 c-9 -23 3 -515 14 -616 7 -52 17 -147 22 -210 6 -63 17
-149 25 -190 8 -41 19 -135 26 -208 7 -73 16 -138 21 -145 8 -13 182 -16 195
-3 4 4 11 42 15 84 11 131 36 350 58 507 16 115 22 225 27 473 l6 322 -202 0
c-163 0 -203 -3 -207 -14z"/>
<path d="M34009 13089 c-6 -3 -8 -81 -7 -185 l3 -179 193 -3 c105 -1 192 1
192 5 0 5 1 85 2 180 2 94 -1 175 -5 180 -10 9 -364 11 -378 2z"/>
<path d="M35050 13092 l-145 -3 0 -180 c0 -172 1 -180 20 -185 11 -2 97 -3
190 -2 l170 3 0 183 0 184 -45 1 c-25 1 -110 1 -190 -1z"/>
<path d="M23190 7211 c-54 -5 -75 -13 -115 -42 -66 -47 -111 -107 -132 -177
-17 -53 -18 -161 -18 -1717 0 -1375 2 -1671 14 -1722 16 -73 58 -129 135 -178
96 -61 80 -60 996 -60 880 0 891 0 980 45 37 19 117 99 141 141 12 20 14 299
14 1764 l0 1740 -23 45 c-30 57 -86 116 -137 143 l-40 22 -875 1 c-481 1 -904
-1 -940 -5z m1321 -188 c23 -59 33 -58 -436 -58 -389 0 -429 2 -438 17 -8 12
-8 24 1 42 l12 26 425 0 425 0 11 -27z m521 -233 c2 -5 2 -640 0 -1410 l-2
-1400 -953 2 -952 3 -3 1408 -2 1407 954 0 c627 0 955 -3 958 -10z m-903
-3046 c62 -37 95 -123 65 -168 -23 -36 -97 -86 -126 -86 -30 0 -113 79 -122
115 -11 43 12 93 56 126 46 33 87 37 127 13z"/>
<path d="M10326 6948 c-110 -21 -261 -114 -334 -207 -35 -44 -41 -60 -52 -138
-8 -55 -10 -127 -6 -194 8 -136 -5 -209 -38 -209 -36 0 -74 -37 -87 -82 -6
-23 -28 -62 -50 -88 -54 -64 -51 -98 15 -168 l31 -33 6 -267 c3 -147 11 -285
17 -307 32 -117 78 -201 146 -269 61 -59 157 -136 170 -136 5 0 22 -6 39 -14
33 -14 110 -39 160 -50 l27 -6 2 -280 c0 -154 1 -286 2 -292 1 -9 -28 -15 -99
-19 -169 -11 -453 -51 -487 -70 -10 -5 -28 -9 -40 -9 -13 0 -36 -7 -52 -15
-15 -8 -34 -15 -41 -15 -21 0 -95 -59 -116 -93 -18 -28 -20 -44 -16 -135 3
-89 7 -105 26 -126 61 -65 298 -136 533 -161 193 -21 723 -20 917 0 221 24
450 88 524 148 24 20 37 70 37 142 0 87 -15 128 -60 168 -91 83 -193 111 -545
152 -77 9 -165 19 -195 23 l-55 7 0 285 0 285 25 6 c14 4 56 15 94 24 85 20
145 58 259 165 70 66 93 95 123 157 67 140 74 180 74 433 0 240 0 239 55 316
30 42 25 102 -13 161 -16 26 -40 69 -52 94 -24 48 -63 79 -101 79 l-22 0 6
159 c7 165 -3 260 -31 316 -25 52 -83 115 -146 162 -87 64 -132 85 -211 99
-80 15 -366 16 -439 2z m285 -48 c17 -10 19 -22 19 -121 l0 -110 33 3 c31 3
32 4 32 53 0 28 -4 76 -8 108 l-8 57 31 0 c27 0 120 -34 120 -44 0 -2 -7 -20
-16 -41 -8 -21 -14 -57 -12 -83 3 -45 4 -47 36 -50 42 -4 47 10 32 98 -7 39
-10 74 -7 76 9 10 111 -61 146 -101 62 -71 72 -108 69 -251 l-3 -127 -30 46
c-38 62 -64 68 -262 65 l-158 -3 -3 -33 c-6 -57 5 -62 152 -62 72 0 146 -4
164 -10 19 -5 55 -10 82 -12 l48 -3 7 -68 c6 -67 1 -107 -14 -107 -5 0 -11 12
-14 28 -10 47 -54 64 -182 70 -62 2 -142 1 -178 -2 l-67 -8 0 -33 c0 -18 6
-37 13 -43 6 -5 95 -13 197 -16 102 -4 195 -8 207 -9 18 -2 24 -11 33 -50 5
-26 10 -63 10 -81 0 -28 5 -36 30 -46 17 -7 33 -10 36 -7 3 3 8 30 11 61 6 53
14 68 28 46 3 -5 14 -10 23 -10 19 0 82 -97 82 -127 0 -18 -25 -62 -42 -74 -5
-3 -13 -125 -18 -270 -9 -266 -13 -300 -56 -396 -8 -17 -14 -34 -14 -38 0 -4
-21 -38 -46 -76 -55 -83 -157 -167 -261 -215 -62 -29 -86 -35 -190 -42 -233
-17 -350 -4 -462 49 -65 32 -100 58 -160 117 -42 43 -86 97 -97 122 -67 139
-72 175 -75 465 -2 138 -6 263 -9 279 -4 20 -16 33 -40 45 -39 18 -48 57 -17
72 9 5 25 13 34 17 9 5 22 26 28 48 6 22 18 40 27 42 15 3 16 -23 17 -270 1
-272 6 -402 17 -488 8 -70 85 -218 139 -270 25 -25 54 -53 64 -62 25 -26 108
-68 176 -89 48 -16 89 -19 220 -19 252 0 363 38 483 169 52 57 118 172 132
230 15 65 21 571 7 614 -8 23 -14 28 -36 25 -24 -3 -27 -9 -37 -68 -7 -36 -12
-66 -13 -67 -1 -2 -16 14 -34 34 -28 30 -43 38 -88 44 -66 9 -245 11 -287 3
-36 -7 -48 -38 -26 -71 13 -21 22 -23 112 -24 53 0 149 -8 212 -17 l115 -17 3
-68 c2 -37 0 -67 -4 -67 -5 0 -20 12 -35 26 -33 31 -109 43 -277 44 -109 0
-113 -1 -123 -24 -7 -14 -9 -36 -5 -50 l6 -26 133 0 c82 0 165 -6 218 -16 l87
-17 6 -61 c4 -34 2 -85 -2 -114 -8 -46 -17 -62 -63 -109 -47 -48 -118 -103
-133 -103 -3 0 -7 42 -8 93 -3 92 -3 92 -30 95 -34 4 -40 -16 -36 -113 3 -69
4 -70 33 -76 27 -6 29 -8 8 -13 -5 -1 -21 -9 -38 -18 -40 -20 -147 -26 -400
-19 -133 4 -220 43 -325 145 l-68 67 -7 69 c-4 38 -4 87 0 108 6 38 8 40 58
51 93 22 160 29 264 30 56 1 108 4 117 7 11 4 16 19 16 44 0 35 -2 38 -37 44
-56 9 -166 7 -268 -4 -84 -9 -92 -12 -122 -45 -19 -20 -35 -30 -39 -24 -9 15
16 127 30 137 21 16 132 32 261 37 179 8 175 7 175 54 0 35 -3 39 -31 45 -42
8 -174 7 -278 -3 -80 -8 -86 -10 -118 -45 -18 -20 -36 -36 -39 -36 -3 0 -3 27
1 60 7 59 7 59 -22 65 -48 11 -53 14 -53 29 0 9 12 19 26 22 30 8 47 43 45 95
-1 46 16 68 65 85 46 16 264 44 347 44 l57 0 0 39 0 39 -75 7 c-41 4 -114 4
-163 0 -160 -12 -212 -33 -212 -82 0 -24 -15 -31 -23 -10 -7 18 29 148 44 158
22 13 101 22 264 28 l160 6 3 48 3 47 -159 0 c-88 0 -174 -3 -191 -6 -17 -4
-49 -24 -70 -45 -44 -45 -56 -48 -48 -16 4 12 9 74 12 137 8 135 17 155 105
229 46 38 80 56 153 80 141 46 136 49 120 -56 -17 -103 -12 -133 20 -133 47 0
50 11 44 118 l-7 100 28 10 c36 14 119 15 143 2z m-419 -1783 c92 -44 185 -59
349 -59 143 1 281 21 294 43 4 5 14 9 23 9 9 0 44 13 76 30 33 16 62 27 65 25
10 -11 -79 -81 -137 -107 -100 -45 -171 -58 -334 -58 -154 0 -236 14 -311 52
-49 25 -117 86 -117 106 0 13 2 13 18 1 9 -8 43 -27 74 -42z m399 -307 c18
-10 19 -26 19 -421 l0 -411 -62 7 c-35 4 -66 9 -69 11 -11 6 -10 769 0 797 9
23 16 27 51 27 23 0 50 -5 61 -10z m-211 -700 c6 -4 -39 -10 -100 -14 -182
-11 -440 -50 -440 -66 0 -4 16 -22 35 -39 29 -25 45 -31 81 -31 25 0 80 -9
122 -19 172 -43 649 -51 847 -14 44 8 116 21 160 28 114 19 142 31 154 67 10
27 13 29 43 23 68 -14 107 -65 76 -102 -70 -85 -677 -164 -1033 -134 -223 19
-422 50 -490 78 -105 42 -141 69 -131 100 7 21 76 63 103 63 11 0 23 4 29 10
8 8 85 25 224 49 63 11 303 11 320 1z m680 -9 c141 -20 163 -25 168 -40 4 -11
-4 -13 -39 -7 -196 32 -250 38 -366 43 -73 3 -133 9 -133 12 0 11 282 5 370
-8z m-1434 -206 c20 -13 82 -37 164 -63 311 -96 1105 -106 1445 -17 33 9 77
20 97 25 21 6 60 24 86 40 61 37 72 37 72 1 0 -20 -8 -34 -25 -45 -30 -20
-141 -56 -172 -56 -12 0 -48 -7 -80 -15 -238 -62 -978 -71 -1273 -16 -117 22
-291 65 -312 76 -30 18 -58 50 -58 67 0 22 27 24 56 3z"/>
<path d="M10210 6783 c-7 -21 -10 -54 -8 -73 3 -33 5 -35 38 -35 l35 0 0 70
c0 69 -1 70 -27 73 -23 3 -28 -2 -38 -35z"/>
<path d="M10200 6083 c-25 -1 -75 -8 -112 -14 l-68 -11 0 -50 0 -50 63 7 c34
4 80 11 102 16 22 5 72 9 111 9 39 0 92 3 118 6 45 7 46 7 46 44 0 34 -3 38
-31 44 -31 6 -137 6 -229 -1z"/>
<path d="M10725 6081 l-100 -6 -3 -29 c-2 -16 2 -34 8 -40 6 -6 69 -14 153
-17 78 -4 170 -14 205 -22 l62 -15 0 28 c0 42 -9 58 -43 79 -38 22 -136 30
-282 22z"/>
<path d="M11202 5825 c0 -55 1 -57 9 -27 7 22 7 43 0 60 -8 23 -9 17 -9 -33z"/>
<path d="M11193 5615 c0 -22 2 -30 4 -17 2 12 2 30 0 40 -3 9 -5 -1 -4 -23z"/>
<path d="M10210 5335 c-11 -29 -14 -124 -4 -149 4 -10 18 -16 35 -16 l30 0 -3
93 c-3 87 -4 92 -25 95 -17 3 -26 -3 -33 -23z"/>
<path d="M10392 5348 c-7 -7 -12 -40 -12 -79 0 -119 16 -152 54 -113 12 11 16
36 16 98 0 79 -9 106 -35 106 -6 0 -16 -5 -23 -12z"/>
<path d="M10637 5353 c-4 -3 -7 -53 -7 -110 0 -108 5 -118 43 -89 24 19 26
191 1 200 -20 8 -29 8 -37 -1z"/>
<path d="M34270 6829 c-60 -10 -69 -13 -150 -52 -190 -93 -403 -366 -531 -681
-25 -61 -44 -76 -100 -76 -17 0 -58 -11 -92 -24 -34 -14 -89 -34 -122 -44 -80
-27 -176 -76 -202 -104 -11 -13 -27 -36 -35 -53 -13 -28 -17 -30 -63 -28 -41
2 -62 -4 -119 -35 -39 -21 -71 -43 -73 -49 -3 -7 21 -14 59 -18 35 -4 104 -20
153 -35 50 -15 167 -51 260 -79 94 -29 211 -65 260 -80 140 -45 179 -56 335
-96 267 -68 358 -106 492 -204 135 -101 226 -267 258 -476 16 -102 0 -322 -40
-549 -21 -117 -94 -222 -196 -282 -70 -41 -55 -58 27 -29 162 58 419 217 487
303 68 85 122 211 163 375 13 52 42 97 63 97 12 0 50 15 176 72 126 57 263
177 302 265 19 44 21 64 19 223 -2 210 -4 223 -43 325 -57 147 -109 202 -283
295 -44 24 -93 52 -109 63 -41 29 -66 94 -76 200 -26 252 -81 436 -168 549
-49 66 -169 155 -252 189 -112 45 -264 60 -400 38z m306 -231 c49 -45 99 -138
136 -253 16 -51 22 -95 22 -165 1 -84 -2 -99 -23 -128 -13 -18 -41 -44 -63
-58 -34 -22 -49 -25 -97 -21 -31 3 -85 12 -121 21 -36 8 -114 20 -175 26 -60
6 -123 16 -139 22 -35 14 -56 60 -56 125 0 43 -1 46 -14 27 -49 -70 -138 -365
-157 -524 -6 -52 -15 -98 -21 -101 -8 -5 -58 -1 -58 5 0 1 6 25 14 52 8 27 17
67 21 89 17 103 88 311 143 420 39 76 64 107 162 206 202 203 318 299 362 299
10 0 39 -19 64 -42z m-1156 -838 c0 -22 -34 -70 -50 -70 -60 0 -68 40 -12 67
35 18 62 19 62 3z m165 -95 c44 -8 93 -17 109 -20 31 -5 64 -30 54 -41 -4 -3
-35 3 -70 14 -81 26 -136 37 -171 33 -30 -3 -60 15 -51 30 3 5 15 7 27 4 12
-3 58 -12 102 -20z m510 -20 c55 -3 141 -13 190 -21 240 -40 261 -44 450 -90
145 -35 365 -105 560 -178 63 -24 71 -24 92 -10 24 15 65 69 95 123 9 17 22
31 28 31 7 0 -2 -26 -20 -57 -49 -91 -115 -144 -274 -222 -223 -108 -241 -111
-323 -39 -64 55 -194 113 -403 180 -36 11 -72 24 -81 28 -9 5 -38 11 -65 15
-164 23 -181 30 -306 138 -64 56 -114 105 -112 109 3 5 20 6 37 4 18 -3 77 -8
132 -11z m1135 -450 c0 -21 -232 -155 -268 -155 -45 0 36 61 113 86 27 9 57
22 65 29 31 26 90 52 90 40z m-331 -288 c5 -62 12 -139 15 -173 2 -35 13 -78
26 -103 15 -30 18 -47 11 -54 -16 -16 -37 8 -50 58 -6 25 -15 95 -21 157 -5
62 -16 141 -25 176 -18 69 -13 92 15 67 13 -12 20 -43 29 -128z"/>
<path d="M28765 6763 c-11 -3 -32 -14 -47 -25 -52 -36 -68 -72 -84 -180 -8
-57 -21 -137 -29 -178 -14 -72 -30 -174 -56 -347 -11 -75 -11 -86 7 -124 50
-112 78 -129 237 -149 48 -6 97 -14 110 -19 12 -5 76 -14 142 -21 66 -7 124
-16 128 -20 12 -11 -40 -56 -90 -81 -68 -33 -57 -59 25 -62 26 -1 50 -5 53
-10 3 -5 -2 -38 -11 -75 -33 -124 -52 -269 -40 -292 16 -30 -18 -58 -160 -132
-63 -32 -178 -92 -255 -133 -77 -40 -207 -108 -290 -150 -82 -43 -151 -81
-153 -85 -2 -5 13 -40 32 -79 20 -39 36 -78 36 -86 0 -36 37 -23 197 68 93 52
213 119 268 149 55 31 118 66 140 78 143 81 331 183 397 216 l77 38 55 -17
c50 -16 58 -16 91 -3 25 11 40 26 50 50 21 49 65 271 65 323 0 49 2 50 86 28
51 -13 59 -13 83 1 24 15 74 71 105 118 12 18 16 17 131 -8 142 -31 203 -33
253 -7 83 43 116 103 131 235 6 47 15 102 20 123 25 95 44 259 45 390 l1 142
-40 41 c-50 51 -122 75 -260 85 -55 4 -151 18 -214 31 -62 13 -126 24 -142 24
-16 0 -49 5 -74 12 -42 11 -46 11 -72 -14 -16 -15 -41 -32 -56 -37 -19 -7 -27
-17 -25 -28 3 -15 35 -22 208 -45 258 -35 296 -43 343 -74 71 -46 81 -112 47
-293 -10 -58 -26 -157 -35 -219 -17 -126 -26 -150 -81 -205 -46 -46 -63 -50
-134 -37 -30 6 -126 22 -213 35 -88 13 -166 26 -175 30 -16 6 -132 24 -292 45
-41 6 -88 14 -105 19 -29 9 -71 16 -255 42 -128 18 -182 45 -216 111 -19 38
-18 63 16 276 48 304 54 324 107 373 l45 42 77 -6 c98 -7 267 -32 406 -62 181
-39 183 -39 222 -4 19 16 52 37 74 45 21 9 39 19 39 23 -1 29 -52 51 -119 51
-50 0 -71 -12 -71 -42 0 -24 -24 -23 -41 2 -11 16 -39 25 -129 40 -291 51
-534 77 -585 63z m803 -155 c16 -16 15 -25 -4 -32 -17 -6 -54 19 -54 36 0 12
44 10 58 -4z m848 -533 c28 -38 10 -101 -36 -125 -35 -19 -120 32 -120 72 0
11 7 33 16 50 15 29 18 30 71 26 39 -3 60 -11 69 -23z"/>
<path d="M14275 6500 c-227 -50 -443 -169 -612 -337 -144 -144 -231 -284 -299
-484 -42 -125 -59 -286 -49 -474 6 -105 12 -136 51 -251 72 -215 144 -333 297
-487 177 -178 373 -287 613 -343 59 -13 120 -18 239 -18 192 1 298 20 440 79
17 7 35 14 41 16 6 2 64 36 129 74 99 58 139 90 235 185 64 64 136 145 159
180 70 108 139 260 168 371 25 95 27 120 27 294 0 240 -21 350 -99 510 -83
169 -123 225 -249 350 -176 174 -409 301 -626 341 -109 19 -364 17 -465 -6z
m123 -212 c9 -9 12 -124 12 -454 l0 -442 -72 -64 c-40 -35 -122 -104 -183
-153 -60 -49 -140 -115 -176 -147 -100 -87 -283 -228 -296 -228 -20 0 -48 45
-85 137 -60 147 -73 217 -73 398 0 156 1 162 34 255 51 142 65 172 128 267
133 201 301 327 543 408 112 37 149 42 168 23z m358 -9 c158 -48 264 -97 349
-162 125 -96 292 -306 331 -417 9 -25 28 -74 41 -110 22 -55 26 -87 30 -202 6
-158 -6 -262 -42 -373 -33 -103 -86 -209 -105 -213 -17 -3 -162 105 -299 222
-52 45 -109 92 -126 106 -86 67 -235 192 -272 229 l-43 41 0 428 c0 523 -8
495 136 451z m-356 -1258 c6 -13 10 -138 10 -340 0 -370 3 -357 -84 -345 -85
11 -182 45 -291 101 -66 34 -182 127 -190 153 -9 30 14 60 102 132 42 35 121
102 177 149 201 171 250 198 276 150z m322 1 c27 -17 107 -82 143 -116 11 -10
72 -60 135 -111 157 -127 200 -169 200 -193 0 -51 -225 -195 -375 -240 -115
-34 -147 -37 -175 -14 l-25 20 -3 317 c-3 287 -1 319 14 336 21 24 51 24 86 1z"/>
<path d="M17467 6473 c-4 -3 -7 -341 -7 -749 l0 -743 -29 -15 c-16 -9 -30 -21
-32 -28 -2 -7 -2 -163 1 -346 l5 -333 25 -12 c23 -12 25 -19 30 -99 3 -48 9
-90 13 -95 9 -9 3647 -17 3683 -8 19 4 22 13 26 85 4 70 8 84 31 108 l26 27 1
339 2 339 -27 21 -26 21 1 731 c0 403 -3 739 -6 748 -6 15 -164 16 -1858 16
-1019 0 -1856 -3 -1859 -7z m218 -63 c13 -15 16 -28 10 -57 -4 -21 -11 -44
-17 -50 -11 -14 -76 -17 -93 -5 -15 10 -35 60 -35 86 0 44 101 64 135 26z
m3403 -59 c4 -53 -17 -81 -63 -81 -38 0 -85 39 -85 70 0 49 17 61 83 58 l62
-3 3 -44z m-196 -118 c19 -16 55 -49 81 -74 l47 -47 -2 -703 -3 -704 -1665 0
-1665 0 -3 680 c-1 374 0 694 3 710 5 30 91 130 131 153 14 8 428 11 1530 12
l1511 0 35 -27z m-1494 -1756 c21 -44 9 -75 -35 -83 -42 -8 -64 3 -77 39 -7
19 -5 32 8 52 14 22 23 26 54 23 29 -2 40 -9 50 -31z m-536 -164 c21 -19 25
-82 6 -101 -7 -7 -28 -12 -48 -12 -47 0 -60 15 -60 65 0 23 5 46 12 53 17 17
68 15 90 -5z m1082 -5 c53 -75 -47 -153 -103 -82 -25 32 -26 52 -5 82 11 16
25 22 54 22 29 0 43 -6 54 -22z m379 -36 c12 -13 22 -39 25 -70 4 -42 1 -52
-19 -71 -42 -39 -139 -22 -167 31 -11 20 -10 31 7 70 11 25 28 51 38 57 26 16
92 6 116 -17z m-1817 -7 c20 -26 18 -119 -2 -136 -8 -7 -39 -14 -68 -17 -48
-4 -55 -2 -74 23 -26 32 -28 72 -7 122 l15 35 61 -4 c45 -3 65 -10 75 -23z
m-829 3 c20 -25 24 -82 7 -106 -12 -17 -25 -22 -59 -22 -39 0 -46 4 -60 30
-33 63 -7 110 59 110 24 0 48 -6 53 -12z m3393 -18 c23 -23 28 -88 8 -108 -7
-7 -33 -12 -58 -12 -54 0 -70 13 -70 55 0 52 26 77 88 84 6 0 21 -8 32 -19z"/>
<path d="M18407 5649 c-49 -12 -83 -33 -134 -86 -50 -52 -67 -102 -67 -198 1
-111 18 -161 78 -220 92 -92 27 -87 1071 -87 l910 -1 45 22 c131 62 203 212
170 353 -18 74 -42 119 -86 158 -79 69 -11 65 -1029 67 -519 1 -936 -3 -958
-8z m201 -79 c71 -40 121 -124 121 -205 1 -112 -122 -229 -237 -226 -92 3
-190 79 -213 165 -32 119 38 251 151 285 50 15 133 6 178 -19z m1147 -115 l0
-140 -412 -3 -412 -2 -12 22 c-16 30 -5 248 13 260 7 4 195 7 418 5 l405 -2 0
-140z m476 134 c85 -29 169 -140 169 -223 0 -86 -76 -180 -172 -212 -89 -29
-126 -22 -204 42 -125 101 -126 255 -3 349 71 54 138 68 210 44z"/>
<path d="M17784 5589 c-2 -5 -4 -54 -3 -109 1 -90 4 -102 22 -111 24 -13 177
-13 191 1 9 9 10 182 0 213 -5 15 -18 17 -105 16 -55 -1 -102 -5 -105 -10z
m122 -37 c19 -12 46 -79 42 -104 -3 -20 -8 -23 -44 -22 -65 1 -74 8 -74 58 0
61 37 94 76 68z"/>
<path d="M32640 5634 c0 -11 6 -14 20 -9 11 3 20 2 20 -3 0 -5 46 -17 103 -26
113 -18 264 -61 462 -131 72 -25 150 -50 175 -56 25 -5 54 -14 65 -19 11 -5
109 -39 218 -75 329 -108 464 -185 572 -325 63 -82 84 -127 113 -247 24 -98
26 -125 26 -298 -1 -197 -27 -397 -55 -431 -15 -18 -54 -41 -45 -26 9 16 33
155 46 272 7 60 10 174 8 265 -4 140 -8 169 -31 230 -42 113 -58 148 -83 182
-13 17 -24 35 -24 40 0 11 -81 95 -122 126 -60 45 -300 157 -339 157 -16 0
-100 25 -134 41 -11 5 -38 13 -60 18 -107 26 -316 86 -455 129 -137 44 -325
100 -395 118 -107 27 -110 29 -107 47 2 9 -2 17 -8 17 -5 0 -10 -7 -10 -15 0
-10 -11 -14 -37 -14 -100 2 -199 -43 -257 -117 -43 -54 -83 -158 -95 -247 -16
-112 -13 -415 3 -517 14 -85 54 -208 85 -265 57 -104 108 -158 209 -222 56
-36 224 -123 237 -123 4 0 36 -13 72 -30 35 -16 67 -30 69 -30 3 0 30 -12 61
-26 31 -14 72 -31 92 -38 20 -7 92 -34 161 -60 204 -78 468 -164 570 -186 57
-13 132 -21 192 -22 89 0 103 2 185 36 150 62 153 65 215 156 94 139 128 293
128 576 0 364 -80 550 -300 701 -92 63 -274 137 -390 158 -34 7 -188 51 -281
81 -26 8 -80 24 -120 34 -41 10 -139 39 -219 64 -241 76 -359 105 -442 109
-10 1 -18 5 -18 9 0 4 -18 8 -40 8 -30 0 -40 -4 -40 -16z m15 -104 c126 -32
220 -59 380 -110 55 -17 138 -42 185 -56 47 -13 96 -29 110 -33 14 -5 50 -16
80 -25 353 -100 478 -143 570 -196 25 -14 56 -31 70 -38 14 -7 46 -32 71 -55
173 -159 219 -369 175 -792 -29 -281 -69 -366 -201 -427 -71 -33 -235 -32
-350 1 -142 41 -340 109 -515 176 -233 90 -329 130 -523 219 -44 20 -81 36
-83 36 -3 0 -37 22 -77 49 -127 87 -204 186 -243 311 -37 122 -46 214 -41 447
5 259 12 301 73 388 46 67 79 93 142 110 66 18 86 18 177 -5z"/>
<path d="M28045 4614 c-38 -20 -114 -63 -168 -96 -53 -32 -100 -58 -102 -58
-3 0 -33 -17 -67 -38 -60 -37 -268 -156 -463 -265 -186 -104 -242 -139 -284
-178 l-44 -41 7 -71 c8 -92 24 -117 75 -117 42 0 155 43 241 92 30 17 93 52
140 76 489 255 880 484 880 514 0 25 -27 113 -43 143 -46 84 -75 91 -172 39z
m-998 -687 c44 -49 65 -84 61 -103 -2 -13 -18 1 -56 49 -28 37 -52 71 -52 77
0 18 16 10 47 -23z"/>
</g>
</svg>
