<?xml version="1.0" standalone="no"?>
<!DOCTYPE svg PUBLIC "-//W3C//DTD SVG 20010904//EN"
 "http://www.w3.org/TR/2001/REC-SVG-20010904/DTD/svg10.dtd">
<svg version="1.0" xmlns="http://www.w3.org/2000/svg"
 width="810.000000pt" height="810.000000pt" viewBox="0 0 810.000000 810.000000"
 preserveAspectRatio="xMidYMid meet">

<g transform="translate(0.000000,810.000000) scale(0.100000,-0.100000)"
fill="#000000" stroke="none">
<path d="M3973 4323 c-13 -8 -23 -20 -23 -25 0 -5 12 0 26 11 37 29 81 28 87
-1 l4 -23 2 23 c0 12 6 22 11 22 6 0 10 -10 11 -22 0 -21 1 -21 8 -4 12 32 41
-7 39 -53 -1 -37 -2 -38 -29 -27 -21 8 -32 7 -41 -2 -9 -9 -6 -12 14 -12 38 0
58 -10 59 -29 0 -12 2 -12 6 -2 12 29 18 -10 13 -78 -6 -77 -33 -121 -77 -121
-22 0 -23 -3 -23 -75 0 -60 -3 -75 -15 -75 -12 0 -15 15 -15 75 0 68 -2 75
-19 75 -11 0 -32 10 -47 23 -23 20 -28 34 -34 98 -7 76 -4 101 11 78 7 -11 9
-11 9 2 0 19 20 29 56 29 13 0 24 5 24 10 0 13 -36 13 -62 -1 -16 -9 -19 -8
-16 3 3 7 21 14 41 16 20 2 37 7 37 13 0 14 -58 11 -66 -3 -6 -9 -10 -5 -15
12 -7 23 -7 23 -6 -5 0 -16 -6 -41 -15 -55 -14 -21 -15 -38 -8 -100 7 -66 12
-78 39 -102 17 -16 38 -28 46 -28 11 0 15 -13 15 -54 l0 -53 -54 -7 c-76 -9
-86 -14 -86 -47 0 -19 7 -32 22 -40 33 -17 184 -23 250 -10 49 11 59 16 64 38
9 33 -13 50 -75 58 -70 10 -71 10 -71 59 0 42 3 46 35 62 46 22 61 52 68 141
4 56 2 76 -9 87 -8 8 -14 31 -14 51 0 56 -35 85 -102 84 -31 0 -62 -7 -75 -16z
m14 -479 c-3 -3 -12 -4 -19 -1 -8 3 -5 6 6 6 11 1 17 -2 13 -5z m146 -1 c-7
-2 -19 -2 -25 0 -7 3 -2 5 12 5 14 0 19 -2 13 -5z m-196 -14 c17 -17 197 -16
218 1 12 10 19 10 27 2 8 -8 5 -14 -13 -22 -21 -9 -20 -10 11 -5 31 4 33 3 15
-8 -29 -17 -279 -17 -297 1 -11 11 -9 13 12 9 14 -2 19 -2 13 0 -14 5 -18 33
-5 33 4 0 13 -5 19 -11z"/>
<path d="M3998 3793 c29 -2 74 -2 100 0 26 2 2 3 -53 3 -55 0 -76 -1 -47 -3z"/>
<path d="M4021 4304 c0 -11 3 -14 6 -6 3 7 2 16 -1 19 -3 4 -6 -2 -5 -13z"/>
<path d="M4060 4250 c0 -5 16 -10 35 -10 19 0 35 5 35 10 0 6 -16 10 -35 10
-19 0 -35 -4 -35 -10z"/>
<path d="M3960 4180 c0 -5 16 -10 35 -10 19 0 35 5 35 10 0 6 -16 10 -35 10
-19 0 -35 -4 -35 -10z"/>
<path d="M4065 4180 c3 -5 19 -10 36 -10 16 0 29 5 29 10 0 6 -16 10 -36 10
-21 0 -33 -4 -29 -10z"/>
<path d="M3942 4103 c6 -84 31 -113 99 -113 26 0 55 3 64 6 26 10 45 60 44
116 0 29 -3 48 -5 42 -4 -9 -13 -9 -34 -1 -23 9 -33 8 -42 -1 -9 -9 -6 -12 14
-12 15 0 33 -3 42 -6 30 -11 16 -20 -25 -16 -29 3 -40 1 -35 -7 4 -6 23 -11
42 -11 27 0 34 -4 34 -19 0 -10 -7 -24 -15 -31 -8 -7 -13 -16 -10 -20 3 -5 -5
-6 -17 -3 -17 3 -19 2 -10 -5 11 -7 10 -10 -3 -16 -29 -11 -70 -7 -91 10 -18
15 -18 15 3 5 12 -6 35 -11 51 -11 27 0 29 2 23 28 -5 25 -6 25 -9 5 -2 -14
-10 -23 -22 -23 -32 0 -49 11 -43 28 4 15 3 15 -6 2 -10 -13 -13 -12 -26 5
-21 26 -14 39 21 43 49 6 55 25 6 20 -26 -2 -41 0 -39 7 2 5 20 11 40 13 20 2
37 7 37 13 0 13 -57 11 -66 -2 -4 -8 -9 -7 -16 2 -6 9 -8 -8 -6 -48z"/>
<path d="M4021 4044 c0 -11 3 -14 6 -6 3 7 2 16 -1 19 -3 4 -6 -2 -5 -13z"/>
</g>
</svg>
