<?xml version="1.0" standalone="no"?>
<!DOCTYPE svg PUBLIC "-//W3C//DTD SVG 20010904//EN"
 "http://www.w3.org/TR/2001/REC-SVG-20010904/DTD/svg10.dtd">
<svg version="1.0" xmlns="http://www.w3.org/2000/svg"
 width="1200.000000pt" height="1920.000000pt" viewBox="0 0 1200.000000 1920.000000"
 preserveAspectRatio="xMidYMid meet">

<g transform="translate(0.000000,1920.000000) scale(0.100000,-0.100000)"
fill="#000000" stroke="none">
<path d="M4100 17911 c-127 -41 -186 -140 -178 -296 6 -106 41 -175 113 -220
45 -28 56 -30 140 -30 84 0 95 2 140 30 33 21 57 47 79 85 29 52 31 61 31 160
0 83 -4 112 -19 140 -46 87 -116 131 -216 136 -36 2 -76 0 -90 -5z m170 -126
c72 -69 63 -260 -15 -311 -64 -42 -156 -22 -196 43 -47 75 -33 217 26 273 48
45 135 43 185 -5z"/>
<path d="M6116 17906 c-52 -19 -86 -45 -114 -86 -87 -128 -58 -344 56 -425 38
-26 54 -30 122 -34 66 -2 87 1 125 19 52 25 88 67 109 128 l15 42 -59 0 c-48
0 -60 -3 -60 -16 0 -25 -54 -72 -93 -79 -85 -16 -148 58 -149 177 -2 123 43
188 131 188 53 0 84 -18 106 -61 14 -27 20 -29 70 -29 55 0 55 0 49 28 -10 45
-57 106 -103 131 -54 30 -149 38 -205 17z"/>
<path d="M4520 17641 l0 -271 148 0 c172 0 206 8 252 55 30 31 35 42 38 100 4
63 3 66 -31 100 l-36 36 24 23 c56 56 33 165 -41 202 -32 16 -66 19 -196 22
l-158 4 0 -271z m304 153 c21 -20 20 -53 -1 -76 -13 -15 -32 -18 -105 -18
l-88 0 0 55 0 55 89 0 c68 0 93 -4 105 -16z m5 -208 c13 -12 21 -31 21 -51 0
-54 -28 -69 -131 -73 l-89 -4 0 77 0 77 89 -4 c70 -2 93 -7 110 -22z"/>
<path d="M5257 17904 c-4 -4 -7 -102 -7 -219 0 -151 -3 -214 -12 -223 -17 -17
-74 -15 -92 4 -10 9 -16 33 -16 60 l0 44 -56 0 -57 0 6 -55 c11 -110 63 -155
177 -155 76 0 119 21 147 72 16 29 18 60 18 253 l0 220 -50 3 c-28 2 -54 0
-58 -4z"/>
<path d="M5480 17640 l0 -270 200 0 200 0 0 45 0 45 -145 0 -145 0 0 70 0 69
128 3 127 3 3 48 3 47 -130 0 -131 0 0 55 0 55 140 0 140 0 0 50 0 50 -195 0
-195 0 0 -270z"/>
<path d="M6470 17860 l0 -50 80 0 80 0 0 -220 0 -220 55 0 55 0 0 220 0 220
80 0 80 0 0 50 0 50 -215 0 -215 0 0 -50z"/>
<path d="M6960 17640 l0 -270 55 0 55 0 0 270 0 270 -55 0 -55 0 0 -270z"/>
<path d="M7139 17903 c0 -4 40 -126 88 -271 l88 -263 54 3 53 3 89 259 c49
142 89 263 89 268 0 5 -25 8 -57 6 l-56 -3 -57 -200 c-32 -110 -61 -193 -64
-185 -3 8 -30 98 -59 200 l-53 185 -57 3 c-31 2 -57 -1 -58 -5z"/>
<path d="M7677 17903 c-4 -3 -7 -125 -7 -270 l0 -263 205 0 205 0 0 45 0 44
-147 3 -148 3 -3 67 -3 67 133 3 133 3 0 45 0 45 -132 3 -133 3 0 54 0 55 145
0 145 0 0 50 0 50 -193 0 c-107 0 -197 -3 -200 -7z"/>
<path d="M1960 16116 l0 -156 84 0 c76 0 87 3 115 26 40 34 44 92 7 121 -23
19 -23 19 -5 42 25 31 24 54 -5 88 -23 26 -31 28 -110 32 l-86 3 0 -156z m164
98 c19 -18 20 -28 6 -55 -9 -15 -22 -19 -70 -19 l-60 0 0 45 0 45 54 0 c36 0
60 -5 70 -16z m7 -124 c22 -12 26 -59 7 -78 -7 -7 -39 -12 -75 -12 l-63 0 0
50 0 50 56 0 c30 0 64 -5 75 -10z"/>
<path d="M2717 16263 c-4 -3 -7 -73 -7 -155 0 -141 1 -148 20 -148 18 0 20 7
20 71 0 76 9 102 41 119 16 9 26 8 45 -5 22 -14 24 -21 24 -100 0 -69 3 -85
15 -85 12 0 15 17 15 95 0 82 -3 98 -20 115 -24 24 -67 26 -98 4 -22 -15 -22
-15 -22 40 0 40 -4 56 -13 56 -8 0 -17 -3 -20 -7z"/>
<path d="M3326 16248 c-9 -12 -16 -33 -16 -45 0 -14 -6 -23 -15 -23 -8 0 -15
-7 -15 -15 0 -8 7 -15 15 -15 12 0 15 -17 15 -95 0 -88 1 -95 20 -95 19 0 20
7 20 95 0 88 1 95 20 95 11 0 20 7 20 15 0 8 -9 15 -20 15 -15 0 -20 7 -20 26
0 17 6 28 20 31 29 8 25 33 -4 33 -14 0 -32 -10 -40 -22z"/>
<path d="M3424 16255 c-7 -18 3 -35 22 -35 8 0 14 10 14 25 0 27 -27 35 -36
10z"/>
<path d="M6814 16255 c-7 -18 3 -35 22 -35 8 0 14 10 14 25 0 27 -27 35 -36
10z"/>
<path d="M7597 16263 c-4 -3 -7 -73 -7 -155 0 -141 1 -148 20 -148 11 0 20 4
20 9 0 5 13 3 29 -5 79 -40 153 55 122 157 -18 60 -82 86 -129 53 -22 -15 -22
-15 -22 40 0 40 -4 56 -13 56 -8 0 -17 -3 -20 -7z m130 -129 c22 -22 25 -32
20 -70 -6 -53 -21 -74 -55 -74 -40 0 -62 27 -62 77 0 33 6 50 25 68 30 31 40
31 72 -1z"/>
<path d="M9304 16255 c-7 -18 3 -35 22 -35 8 0 14 10 14 25 0 27 -27 35 -36
10z"/>
<path d="M10617 16263 c-4 -3 -7 -28 -7 -55 0 -49 0 -49 -22 -34 -68 48 -148
-24 -133 -119 12 -81 67 -120 126 -91 16 8 29 10 29 5 0 -5 9 -9 20 -9 19 0
20 7 20 155 0 123 -3 155 -13 155 -8 0 -17 -3 -20 -7z m-38 -113 c13 0 31 -50
31 -87 0 -44 -24 -73 -60 -73 -36 0 -51 20 -57 74 -5 38 -2 48 21 71 16 16 33
24 42 21 9 -3 19 -6 23 -6z"/>
<path d="M5769 16231 c-17 -17 -29 -40 -29 -55 0 -36 26 -33 38 4 23 66 112
58 112 -10 0 -24 -8 -36 -41 -58 -73 -48 -109 -86 -115 -119 l-6 -33 101 0
c94 0 101 1 101 20 0 18 -7 20 -82 20 l-81 0 18 20 c11 12 45 37 76 56 60 36
69 48 69 94 0 42 -9 59 -41 75 -45 24 -87 19 -120 -14z"/>
<path d="M6070 16239 c-7 -11 -25 -25 -41 -31 -41 -14 -38 -38 6 -38 l35 0 0
-105 c0 -98 1 -105 20 -105 19 0 20 7 20 150 0 125 -2 150 -15 150 -8 0 -19
-9 -25 -21z"/>
<path d="M2607 16244 c-4 -4 -7 -20 -7 -36 0 -18 -5 -28 -15 -28 -8 0 -15 -7
-15 -15 0 -8 7 -15 15 -15 12 0 15 -16 15 -83 0 -51 5 -88 12 -95 17 -17 58
-15 58 3 0 8 -7 15 -15 15 -12 0 -15 16 -15 80 0 64 3 80 15 80 8 0 15 7 15
15 0 8 -6 15 -14 15 -9 0 -16 12 -18 32 -3 31 -17 45 -31 32z"/>
<path d="M3887 16244 c-4 -4 -7 -20 -7 -36 0 -18 -5 -28 -15 -28 -8 0 -15 -7
-15 -15 0 -8 7 -15 15 -15 12 0 15 -16 15 -83 0 -51 5 -88 12 -95 17 -17 58
-15 58 3 0 8 -7 15 -15 15 -12 0 -15 16 -15 80 0 64 3 80 15 80 8 0 15 7 15
15 0 8 -6 15 -14 15 -9 0 -16 12 -18 32 -3 31 -17 45 -31 32z"/>
<path d="M4120 16216 c0 -25 -4 -36 -15 -36 -8 0 -15 -7 -15 -15 0 -8 7 -15
15 -15 11 0 15 -19 17 -92 l3 -93 33 -3 c24 -2 32 1 32 12 0 9 -7 16 -15 16
-12 0 -15 16 -15 80 0 64 3 80 15 80 8 0 15 7 15 15 0 8 -6 15 -14 15 -9 0
-16 12 -18 32 -2 22 -9 34 -20 36 -15 3 -18 -4 -18 -32z"/>
<path d="M7157 16243 c-4 -3 -7 -19 -7 -35 0 -18 -5 -28 -15 -28 -8 0 -15 -7
-15 -15 0 -8 7 -15 15 -15 12 0 15 -15 15 -76 0 -91 10 -114 50 -114 34 0 42
25 10 33 -18 5 -20 14 -20 81 0 69 2 76 20 76 11 0 20 7 20 15 0 8 -9 15 -20
15 -16 0 -20 7 -20 35 0 33 -16 46 -33 28z"/>
<path d="M2281 16176 c-33 -18 -50 -53 -51 -104 0 -88 58 -137 135 -112 42 14
80 70 47 70 -9 0 -25 -9 -35 -20 -33 -38 -107 -17 -107 31 0 17 8 19 80 19 75
0 80 1 80 21 0 80 -82 132 -149 95z m97 -44 c25 -33 15 -42 -48 -42 -68 0 -78
14 -33 49 28 23 59 20 81 -7z"/>
<path d="M2978 16161 c-30 -27 -33 -34 -33 -89 0 -50 4 -65 24 -86 31 -33 70
-41 114 -22 30 12 57 41 57 60 0 15 -37 4 -48 -14 -25 -41 -112 -15 -112 33 0
15 12 17 80 17 79 0 80 0 80 25 0 93 -94 137 -162 76z m110 -29 c25 -32 15
-42 -48 -42 -64 0 -66 1 -49 31 20 38 70 43 97 11z"/>
<path d="M3580 16170 c-16 -16 -20 -17 -20 -5 0 8 -9 15 -20 15 -19 0 -20 -7
-20 -110 0 -103 1 -110 20 -110 18 0 20 7 20 75 0 62 4 79 20 95 11 11 27 20
35 20 8 0 15 9 15 20 0 11 -7 20 -15 20 -8 0 -24 -9 -35 -20z"/>
<path d="M3691 16177 c-14 -6 -29 -25 -34 -41 -12 -37 13 -63 79 -80 42 -10
49 -16 49 -37 0 -21 -5 -24 -42 -27 -34 -3 -44 1 -53 17 -13 26 -40 27 -40 3
0 -42 69 -70 126 -52 53 18 72 71 37 103 -10 8 -40 21 -66 28 -54 13 -70 35
-41 56 22 16 65 9 77 -13 10 -18 37 -18 37 0 0 22 -49 56 -79 56 -14 0 -37 -6
-50 -13z"/>
<path d="M4271 16176 c-34 -19 -50 -54 -51 -108 0 -67 38 -110 99 -112 36 -1
47 4 72 32 49 55 37 157 -22 188 -34 17 -67 17 -98 0z m79 -26 c39 -21 47
-103 12 -142 -22 -25 -67 -23 -86 4 -19 27 -21 98 -3 120 20 26 49 33 77 18z"/>
<path d="M4606 16169 c-28 -22 -36 -69 -13 -87 7 -6 33 -16 59 -22 57 -15 76
-33 58 -55 -19 -22 -77 -19 -92 5 -11 17 -48 29 -48 15 0 -21 28 -56 53 -65
63 -22 130 12 130 65 0 35 -11 44 -75 65 -39 13 -54 22 -56 38 -2 16 3 23 21
27 26 7 67 -9 67 -25 0 -6 9 -10 20 -10 27 0 25 16 -5 45 -30 31 -82 33 -119
4z"/>
<path d="M4843 16180 c-45 -18 -72 -96 -53 -154 15 -48 42 -68 91 -70 33 -1
45 5 65 27 13 16 24 35 24 43 0 23 -26 16 -44 -11 -19 -29 -66 -34 -87 -9 -19
23 -18 110 3 130 23 24 69 21 86 -5 8 -11 21 -21 28 -21 22 0 16 29 -11 55
-25 26 -62 31 -102 15z"/>
<path d="M5040 16163 c-42 -38 -52 -110 -21 -159 46 -74 152 -61 179 21 26 80
-11 152 -84 162 -36 4 -46 1 -74 -24z m97 -18 c31 -22 40 -78 19 -121 -13 -29
-21 -34 -50 -34 -43 0 -66 29 -66 83 0 27 7 45 25 62 28 29 42 31 72 10z"/>
<path d="M5310 16170 c-16 -16 -20 -17 -20 -5 0 8 -9 15 -20 15 -19 0 -20 -7
-20 -110 0 -103 1 -110 20 -110 18 0 20 7 20 75 0 62 4 79 20 95 11 11 27 20
35 20 8 0 15 9 15 20 0 11 -7 20 -15 20 -8 0 -24 -9 -35 -20z"/>
<path d="M5418 16161 c-30 -27 -33 -34 -33 -89 0 -50 4 -65 24 -86 31 -33 70
-41 114 -22 30 12 57 41 57 60 0 15 -37 4 -48 -14 -25 -41 -112 -15 -112 33 0
15 12 17 80 17 79 0 80 0 80 25 0 93 -94 137 -162 76z m110 -29 c25 -32 15
-42 -48 -42 -64 0 -66 1 -49 31 20 38 70 43 97 11z"/>
<path d="M6393 16173 c-14 -9 -23 -11 -23 -4 0 6 -7 11 -15 11 -13 0 -15 -24
-15 -155 0 -131 2 -155 15 -155 11 0 15 13 15 54 l0 54 29 -14 c38 -19 75 -10
106 28 20 24 25 40 25 85 0 47 -4 59 -29 84 -33 33 -73 37 -108 12z m85 -41
c20 -25 15 -106 -7 -126 -29 -26 -73 -17 -90 18 -38 81 44 173 97 108z"/>
<path d="M6618 16174 c-37 -20 -48 -43 -48 -103 0 -41 5 -56 28 -82 23 -26 36
-32 71 -32 58 0 91 33 99 98 11 102 -68 164 -150 119z m86 -35 c51 -40 27
-149 -33 -149 -50 0 -80 57 -61 115 18 56 51 68 94 34z"/>
<path d="M6970 16173 c-17 -12 -25 -13 -28 -5 -2 7 -10 12 -18 12 -11 0 -14
-22 -14 -110 0 -103 1 -110 20 -110 18 0 20 7 20 84 0 91 9 109 56 109 37 0
44 -17 44 -110 0 -76 2 -83 20 -83 19 0 20 7 20 90 0 83 -2 93 -25 115 -28 29
-61 32 -95 8z"/>
<path d="M7286 16169 c-28 -22 -36 -69 -13 -87 7 -6 33 -16 59 -22 57 -15 76
-33 58 -55 -19 -22 -77 -19 -92 5 -11 17 -48 29 -48 15 0 -21 28 -56 53 -65
63 -22 130 12 130 65 0 35 -11 44 -75 65 -39 13 -54 22 -56 38 -2 16 3 23 21
27 26 7 67 -9 67 -25 0 -6 9 -10 20 -10 27 0 25 16 -5 45 -30 31 -82 33 -119
4z"/>
<path d="M8197 16170 c-66 -52 -48 -185 28 -210 30 -10 40 -9 60 4 24 16 25
16 25 -8 0 -50 -63 -75 -101 -40 -10 9 -25 14 -34 12 -15 -3 -14 -6 5 -30 17
-23 29 -28 65 -28 92 0 105 24 105 190 0 113 -1 120 -20 120 -11 0 -20 -5 -20
-11 0 -5 -10 -3 -22 5 -30 22 -60 20 -91 -4z m101 -38 c18 -23 15 -107 -4
-126 -8 -9 -29 -16 -45 -16 -25 0 -33 6 -46 37 -36 87 41 171 95 105z"/>
<path d="M8668 16161 c-30 -27 -33 -34 -33 -89 0 -50 4 -65 24 -86 31 -33 70
-41 114 -22 30 12 57 41 57 60 0 15 -37 4 -48 -14 -25 -41 -112 -15 -112 33 0
15 12 17 80 17 79 0 80 0 80 25 0 93 -94 137 -162 76z m110 -29 c25 -32 15
-42 -48 -42 -64 0 -66 1 -49 31 20 38 70 43 97 11z"/>
<path d="M8895 16165 c-48 -47 -28 -84 60 -110 41 -12 55 -20 55 -34 0 -36
-81 -44 -102 -11 -17 27 -48 27 -41 1 9 -35 40 -54 90 -54 38 0 50 5 70 27 43
50 23 86 -60 107 -54 13 -70 35 -42 55 26 19 42 17 65 -6 21 -21 50 -27 50
-10 0 25 -50 60 -85 60 -25 0 -44 -8 -60 -25z"/>
<path d="M9121 16177 c-14 -6 -29 -25 -34 -41 -12 -37 13 -63 79 -80 42 -10
49 -16 49 -37 0 -21 -5 -24 -42 -27 -34 -3 -44 1 -53 17 -13 26 -40 27 -40 3
0 -42 69 -70 126 -52 53 18 72 71 37 103 -10 8 -40 21 -66 28 -54 13 -70 35
-41 56 22 16 65 9 77 -13 10 -18 37 -18 37 0 0 22 -49 56 -79 56 -14 0 -37 -6
-50 -13z"/>
<path d="M9460 16173 c-17 -12 -25 -13 -28 -5 -2 7 -10 12 -18 12 -11 0 -14
-22 -14 -110 0 -103 1 -110 20 -110 18 0 20 7 20 84 0 91 9 109 56 109 37 0
44 -17 44 -110 0 -76 2 -83 20 -83 19 0 20 7 20 90 0 83 -2 93 -25 115 -28 29
-61 32 -95 8z"/>
<path d="M9667 16170 c-66 -52 -48 -185 28 -210 30 -10 40 -9 60 4 24 16 25
16 25 -8 0 -50 -63 -75 -101 -40 -10 9 -25 14 -34 12 -15 -3 -14 -6 5 -30 17
-23 29 -28 65 -28 92 0 105 24 105 190 0 113 -1 120 -20 120 -11 0 -20 -5 -20
-11 0 -5 -10 -3 -22 5 -30 22 -60 20 -91 -4z m101 -38 c18 -23 15 -107 -4
-126 -8 -9 -29 -16 -45 -16 -25 0 -33 6 -46 37 -36 87 41 171 95 105z"/>
<path d="M10018 16170 c-16 -12 -28 -28 -28 -36 0 -21 33 -17 48 6 7 11 23 20
36 20 24 0 56 -23 56 -40 0 -14 -36 -30 -68 -30 -58 0 -103 -64 -74 -106 23
-35 87 -39 123 -7 14 12 17 12 22 -2 8 -20 57 -20 57 0 0 8 -7 15 -15 15 -12
0 -15 16 -15 84 0 96 -6 106 -73 113 -33 4 -48 0 -69 -17z m112 -118 c0 -35
-29 -62 -66 -62 -63 0 -57 59 7 71 56 10 59 10 59 -9z"/>
<path d="M10290 16173 c-17 -12 -25 -13 -28 -5 -2 7 -10 12 -18 12 -11 0 -14
-22 -14 -110 0 -103 1 -110 20 -110 18 0 20 7 20 84 0 91 9 109 56 109 37 0
44 -17 44 -110 0 -76 2 -83 20 -83 19 0 20 7 20 90 0 83 -2 93 -25 115 -28 29
-61 32 -95 8z"/>
<path d="M3420 16070 c0 -103 1 -110 20 -110 19 0 20 7 20 110 0 103 -1 110
-20 110 -19 0 -20 -7 -20 -110z"/>
<path d="M6810 16070 c0 -103 1 -110 20 -110 19 0 20 7 20 110 0 103 -1 110
-20 110 -19 0 -20 -7 -20 -110z"/>
<path d="M7851 16068 c34 -95 39 -118 30 -141 -7 -17 -18 -27 -31 -27 -11 0
-20 -7 -20 -15 0 -10 10 -15 30 -15 23 0 33 7 46 33 15 29 104 262 104 273 0
2 -9 4 -19 4 -16 0 -25 -17 -47 -85 -16 -46 -30 -82 -33 -79 -4 3 -18 40 -32
82 -20 61 -30 78 -47 80 -20 3 -19 -2 19 -110z"/>
<path d="M8402 16085 c2 -73 7 -98 20 -112 23 -23 81 -22 108 2 18 16 20 16
20 2 0 -10 7 -17 15 -17 12 0 15 19 15 110 0 87 -3 110 -14 110 -10 0 -15 -21
-18 -79 -5 -88 -17 -111 -57 -111 -43 0 -51 17 -51 107 0 78 -1 83 -21 83 -20
0 -21 -4 -17 -95z"/>
<path d="M9300 16070 c0 -103 1 -110 20 -110 19 0 20 7 20 110 0 103 -1 110
-20 110 -19 0 -20 -7 -20 -110z"/>
<path d="M1672 16098 c-7 -7 -12 -21 -12 -33 0 -28 19 -45 50 -45 31 0 50 17
50 45 0 28 -19 45 -50 45 -14 0 -31 -5 -38 -12z"/>
<path d="M2404 15665 c-7 -18 3 -35 22 -35 8 0 14 10 14 25 0 27 -27 35 -36
10z"/>
<path d="M3310 15525 c0 -131 2 -155 15 -155 13 0 15 24 15 155 0 131 -2 155
-15 155 -13 0 -15 -24 -15 -155z"/>
<path d="M5067 15673 c-4 -3 -7 -28 -7 -55 0 -49 0 -49 -22 -34 -68 48 -148
-24 -133 -119 12 -81 67 -120 126 -91 16 8 29 10 29 5 0 -5 9 -9 20 -9 19 0
20 7 20 155 0 123 -3 155 -13 155 -8 0 -17 -3 -20 -7z m-38 -113 c13 0 31 -50
31 -87 0 -44 -24 -73 -60 -73 -36 0 -51 20 -57 74 -5 38 -2 48 21 71 16 16 33
24 42 21 9 -3 19 -6 23 -6z"/>
<path d="M6790 15526 c0 -150 1 -156 20 -156 20 0 20 5 18 152 -3 136 -5 153
-20 156 -17 3 -18 -9 -18 -152z"/>
<path d="M6680 15626 c0 -25 -4 -36 -15 -36 -8 0 -15 -7 -15 -15 0 -8 7 -15
15 -15 11 0 15 -19 17 -92 l3 -93 33 -3 c24 -2 32 1 32 12 0 9 -7 16 -15 16
-12 0 -15 16 -15 80 0 64 3 80 15 80 8 0 15 7 15 15 0 8 -6 15 -14 15 -9 0
-16 12 -18 32 -2 22 -9 34 -20 36 -15 3 -18 -4 -18 -32z"/>
<path d="M2221 15587 c-14 -6 -29 -25 -34 -41 -12 -37 13 -63 79 -80 42 -10
49 -16 49 -37 0 -21 -5 -24 -42 -27 -34 -3 -44 1 -53 17 -13 26 -40 27 -40 3
0 -42 69 -70 126 -52 53 18 72 71 37 103 -10 8 -40 21 -66 28 -54 13 -70 35
-41 56 22 16 65 9 77 -13 10 -18 37 -18 37 0 0 22 -49 56 -79 56 -14 0 -37 -6
-50 -13z"/>
<path d="M2560 15583 c-17 -12 -25 -13 -28 -5 -2 7 -10 12 -18 12 -11 0 -14
-22 -14 -110 0 -103 1 -110 20 -110 18 0 20 7 20 84 0 91 9 109 56 109 37 0
44 -17 44 -110 0 -76 2 -83 20 -83 19 0 20 7 20 90 0 83 -2 93 -25 115 -28 29
-61 32 -95 8z"/>
<path d="M2767 15580 c-66 -52 -48 -185 28 -210 30 -10 40 -9 60 4 24 16 25
16 25 -8 0 -50 -63 -75 -101 -40 -10 9 -25 14 -34 12 -15 -3 -14 -6 5 -30 17
-23 29 -28 65 -28 92 0 105 24 105 190 0 113 -1 120 -20 120 -11 0 -20 -5 -20
-11 0 -5 -10 -3 -22 5 -30 22 -60 20 -91 -4z m101 -38 c18 -23 15 -107 -4
-126 -8 -9 -29 -16 -45 -16 -25 0 -33 6 -46 37 -36 87 41 171 95 105z"/>
<path d="M3121 15587 c-14 -6 -29 -25 -34 -41 -12 -37 13 -63 79 -80 42 -10
49 -16 49 -37 0 -21 -5 -24 -42 -27 -34 -3 -44 1 -53 17 -13 26 -40 27 -40 3
0 -42 69 -70 126 -52 53 18 72 71 37 103 -10 8 -40 21 -66 28 -54 13 -70 35
-41 56 22 16 65 9 77 -13 10 -18 37 -18 37 0 0 22 -49 56 -79 56 -14 0 -37 -6
-50 -13z"/>
<path d="M3428 15580 c-16 -12 -28 -28 -28 -36 0 -21 33 -17 48 6 7 11 23 20
36 20 24 0 56 -23 56 -40 0 -14 -36 -30 -68 -30 -58 0 -103 -64 -74 -106 23
-35 87 -39 123 -7 14 12 17 12 22 -2 8 -20 57 -20 57 0 0 8 -7 15 -15 15 -12
0 -15 16 -15 84 0 96 -6 106 -73 113 -33 4 -48 0 -69 -17z m112 -118 c0 -35
-29 -62 -66 -62 -63 0 -57 59 7 71 56 10 59 10 59 -9z"/>
<path d="M3692 15584 c-12 -8 -22 -10 -22 -5 0 6 -7 11 -15 11 -12 0 -15 -19
-15 -110 0 -91 3 -110 15 -110 12 0 15 14 15 64 0 76 11 111 40 126 17 9 26 8
46 -5 22 -14 24 -21 24 -100 0 -80 1 -85 21 -85 20 0 21 4 17 96 -3 86 -5 98
-27 115 -28 23 -69 24 -99 3z"/>
<path d="M3913 15588 c-33 -16 -56 -73 -50 -121 11 -79 69 -122 127 -94 29 15
30 15 30 -7 0 -47 -70 -75 -104 -41 -17 17 -46 20 -46 5 0 -5 9 -19 20 -30 29
-29 100 -27 137 4 28 24 28 26 31 155 3 127 3 131 -17 131 -12 0 -21 -5 -21
-11 0 -5 -10 -3 -22 5 -26 18 -53 19 -85 4z m76 -28 c13 0 31 -50 31 -87 0
-44 -24 -73 -60 -73 -36 0 -51 20 -57 74 -5 38 -2 48 21 71 16 16 33 24 42 21
9 -3 19 -6 23 -6z"/>
<path d="M4578 15584 c-37 -20 -48 -43 -48 -103 0 -41 5 -56 28 -82 23 -26 36
-32 71 -32 58 0 91 33 99 98 11 102 -68 164 -150 119z m86 -35 c51 -40 27
-149 -33 -149 -50 0 -80 57 -61 115 18 56 51 68 94 34z"/>
<path d="M4842 15584 c-12 -8 -22 -10 -22 -5 0 6 -9 11 -20 11 -19 0 -20 -7
-20 -110 0 -103 1 -110 20 -110 18 0 20 7 20 78 0 83 14 112 53 112 10 0 17 8
17 20 0 24 -18 26 -48 4z"/>
<path d="M5185 15589 c-27 -17 -35 -29 -35 -60 0 -34 17 -48 77 -63 41 -10 48
-16 48 -37 0 -21 -5 -24 -43 -27 -37 -3 -44 0 -49 17 -5 21 -43 30 -43 10 0
-25 23 -49 59 -60 33 -10 45 -9 78 7 35 17 38 23 38 59 l0 40 -65 22 c-69 23
-83 38 -54 60 25 19 51 16 74 -7 23 -23 40 -26 40 -7 0 42 -81 72 -125 46z"/>
<path d="M5533 15590 c-65 -26 -82 -145 -29 -198 37 -38 99 -37 132 1 13 16
24 35 24 43 0 22 -34 16 -45 -8 -14 -33 -68 -37 -89 -6 -25 35 -21 94 9 124
15 15 32 23 41 20 9 -3 19 -6 24 -6 5 0 12 -9 15 -20 7 -23 45 -27 45 -5 0 9
-11 27 -25 40 -25 26 -62 31 -102 15z"/>
<path d="M5738 15584 c-37 -20 -48 -43 -48 -103 0 -41 5 -56 28 -82 23 -26 36
-32 71 -32 58 0 91 33 99 98 11 102 -68 164 -150 119z m86 -35 c51 -40 27
-149 -33 -149 -50 0 -80 57 -61 115 18 56 51 68 94 34z"/>
<path d="M6002 15584 c-12 -8 -22 -10 -22 -5 0 6 -9 11 -20 11 -19 0 -20 -7
-20 -110 0 -103 1 -110 20 -110 18 0 20 7 20 78 0 83 14 112 53 112 10 0 17 8
17 20 0 24 -18 26 -48 4z"/>
<path d="M6140 15580 c-16 -16 -20 -17 -20 -5 0 8 -9 15 -20 15 -19 0 -20 -7
-20 -110 0 -103 1 -110 20 -110 18 0 20 7 20 75 0 62 4 79 20 95 11 11 27 20
35 20 8 0 15 9 15 20 0 11 -7 20 -15 20 -8 0 -24 -9 -35 -20z"/>
<path d="M6248 15571 c-30 -27 -33 -34 -33 -89 0 -50 4 -65 24 -86 31 -33 70
-41 114 -22 30 12 57 41 57 60 0 15 -37 4 -48 -14 -25 -41 -112 -15 -112 33 0
15 12 17 80 17 79 0 80 0 80 25 0 93 -94 137 -162 76z m110 -29 c25 -32 15
-42 -48 -42 -64 0 -66 1 -49 31 20 38 70 43 97 11z"/>
<path d="M6503 15590 c-45 -18 -72 -96 -53 -154 15 -48 42 -68 91 -70 33 -1
45 5 65 27 13 16 24 35 24 43 0 23 -26 16 -44 -11 -19 -29 -66 -34 -87 -9 -19
23 -18 110 3 130 23 24 69 21 86 -5 8 -11 21 -21 28 -21 22 0 16 29 -11 55
-25 26 -62 31 -102 15z"/>
<path d="M1952 15495 c2 -73 7 -98 20 -112 23 -23 81 -22 108 2 18 16 20 16
20 2 0 -10 7 -17 15 -17 12 0 15 19 15 110 0 87 -3 110 -14 110 -10 0 -15 -21
-18 -79 -5 -88 -17 -111 -57 -111 -43 0 -51 17 -51 107 0 78 -1 83 -21 83 -20
0 -21 -4 -17 -95z"/>
<path d="M2400 15480 c0 -103 1 -110 20 -110 19 0 20 7 20 110 0 103 -1 110
-20 110 -19 0 -20 -7 -20 -110z"/>
<path d="M4213 15578 c2 -7 17 -57 32 -111 25 -86 31 -98 48 -95 16 2 24 17
37 68 28 110 24 112 61 -32 7 -27 15 -38 29 -38 15 0 24 17 44 83 41 135 42
140 20 135 -14 -2 -24 -22 -40 -83 -11 -43 -23 -75 -26 -69 -3 5 -13 42 -23
82 -15 62 -20 72 -39 72 -19 0 -25 -10 -42 -82 l-21 -83 -11 40 c-6 22 -16 59
-22 83 -8 32 -16 42 -31 42 -13 0 -19 -5 -16 -12z"/>
<path d="M6901 15478 c34 -95 39 -118 30 -141 -7 -17 -18 -27 -31 -27 -11 0
-20 -7 -20 -15 0 -10 10 -15 30 -15 23 0 33 7 46 33 15 29 104 262 104 273 0
2 -9 4 -19 4 -16 0 -25 -17 -47 -85 -16 -46 -30 -82 -33 -79 -4 3 -18 40 -32
82 -20 61 -30 78 -47 80 -20 3 -19 -2 19 -110z"/>
<path d="M3560 14261 c-127 -41 -186 -140 -178 -296 6 -106 41 -175 113 -220
45 -28 56 -30 140 -30 84 0 95 2 140 30 33 21 57 47 79 85 29 52 31 61 31 160
0 83 -4 112 -19 140 -46 87 -116 131 -216 136 -36 2 -76 0 -90 -5z m170 -126
c72 -69 63 -260 -15 -311 -64 -42 -156 -22 -196 43 -47 75 -33 217 26 273 48
45 135 43 185 -5z"/>
<path d="M6038 14261 c-52 -17 -89 -46 -108 -86 -46 -94 -6 -181 94 -210 28
-8 84 -24 124 -35 85 -24 107 -50 78 -94 -31 -48 -153 -48 -193 -1 -13 14 -23
33 -23 41 0 12 -11 14 -52 12 -52 -3 -53 -3 -49 -33 5 -47 28 -83 72 -112 36
-24 54 -28 133 -31 80 -3 97 -1 136 20 64 33 90 76 90 151 0 55 -3 62 -34 92
-28 26 -54 37 -128 55 -139 34 -158 43 -158 78 0 79 139 97 185 24 18 -28 25
-31 73 -32 52 0 52 0 46 28 -12 48 -45 92 -88 114 -45 23 -153 33 -198 19z"/>
<path d="M7250 14261 c-73 -22 -125 -69 -157 -140 -21 -46 -23 -200 -4 -255
18 -51 76 -115 126 -137 46 -21 154 -25 206 -8 74 25 128 84 150 163 15 54 14
163 -2 215 -20 66 -90 137 -152 156 -54 16 -125 18 -167 6z m151 -107 c67 -33
93 -195 46 -279 -47 -83 -152 -99 -214 -32 -71 78 -68 234 6 301 39 35 104 39
162 10z"/>
<path d="M2200 14210 l0 -50 80 0 80 0 0 -220 0 -220 55 0 55 0 0 220 0 220
80 0 80 0 0 50 0 50 -215 0 -215 0 0 -50z"/>
<path d="M2658 14255 c-3 -3 29 -125 71 -270 l75 -265 53 0 c29 0 53 1 53 3 0
10 79 389 82 392 2 2 21 -87 42 -196 l40 -200 55 3 55 3 68 240 c93 332 90
295 25 295 l-55 0 -36 -150 c-20 -82 -39 -168 -42 -190 -4 -23 -9 -39 -11 -36
-3 2 -20 78 -39 168 -18 90 -36 173 -39 186 -5 19 -12 22 -60 22 -29 0 -57 -4
-60 -10 -3 -5 -19 -81 -36 -167 -16 -87 -32 -169 -35 -183 -5 -17 -18 25 -43
140 -21 91 -41 177 -44 193 -7 25 -11 27 -61 27 -29 0 -55 -2 -58 -5z"/>
<path d="M4150 14253 c-1 -4 32 -126 72 -270 l73 -263 51 0 c33 0 54 5 56 13
3 6 22 99 44 205 l38 193 41 -203 40 -203 55 -3 56 -3 72 259 c40 142 72 264
72 270 0 9 -15 12 -52 10 l-52 -3 -13 -45 c-7 -25 -28 -112 -46 -193 l-33
-148 -28 138 c-15 76 -33 163 -40 193 l-12 55 -54 3 c-29 2 -56 0 -61 -5 -4
-4 -22 -88 -40 -185 -19 -98 -36 -178 -39 -178 -3 0 -23 82 -45 183 l-40 182
-57 3 c-32 2 -58 -1 -58 -5z"/>
<path d="M5034 14224 c-8 -20 -48 -130 -89 -243 -40 -113 -78 -219 -84 -234
l-11 -28 62 3 61 3 17 50 17 50 99 3 100 3 18 -56 17 -55 60 0 c53 0 60 2 55
18 -3 9 -46 130 -95 267 l-88 250 -62 3 -62 3 -15 -37z m106 -191 c16 -54 30
-101 30 -105 0 -4 -29 -8 -65 -8 -36 0 -65 3 -65 7 0 10 64 203 67 203 1 0 16
-44 33 -97z"/>
<path d="M5390 14256 c0 -2 41 -76 90 -165 l90 -161 0 -105 0 -105 60 0 60 0
0 105 0 105 85 158 c47 88 85 162 85 165 0 4 -27 7 -60 7 l-61 0 -30 -67 c-17
-38 -41 -90 -54 -118 l-23 -50 -56 118 -57 117 -64 0 c-36 0 -65 -2 -65 -4z"/>
<path d="M6590 14210 l0 -50 80 0 80 0 0 -220 0 -220 55 0 55 0 0 220 0 220
86 0 85 0 -3 48 -3 47 -217 3 -218 2 0 -50z"/>
<path d="M7880 13990 l0 -270 55 0 55 0 0 94 0 94 93 4 c104 5 143 20 178 70
30 41 38 141 16 184 -40 76 -90 94 -269 94 l-128 0 0 -270z m280 150 c12 -12
20 -33 20 -55 0 -58 -26 -75 -115 -75 l-75 0 0 75 0 75 75 0 c62 0 79 -4 95
-20z"/>
<path d="M8380 13990 l0 -270 190 0 190 0 0 50 0 50 -135 0 -135 0 0 220 0
220 -55 0 -55 0 0 -270z"/>
<path d="M8987 14253 c-7 -12 -187 -518 -187 -527 0 -4 26 -6 57 -4 l56 3 17
50 17 50 101 3 101 3 16 -56 16 -55 60 0 c32 0 59 3 59 8 0 4 -42 124 -93 267
l-92 260 -62 3 c-34 2 -63 -1 -66 -5z m96 -222 c15 -50 27 -95 27 -100 0 -7
-26 -11 -66 -11 -49 0 -65 3 -61 13 2 6 17 51 33 100 15 48 31 87 34 87 4 0
18 -40 33 -89z"/>
<path d="M9330 14256 c0 -2 41 -76 90 -165 l90 -161 0 -105 0 -105 60 0 60 0
0 105 0 105 85 158 c47 88 85 162 85 165 0 4 -27 7 -60 7 l-61 0 -30 -67 c-17
-38 -41 -90 -54 -118 l-23 -50 -56 118 -57 117 -64 0 c-36 0 -65 -2 -65 -4z"/>
<path d="M1985 12505 c-18 -17 -25 -35 -25 -64 0 -48 19 -64 95 -81 28 -6 60
-18 73 -26 46 -30 13 -84 -52 -84 -47 0 -74 14 -86 46 -12 31 -40 32 -40 1 0
-56 67 -94 145 -82 56 8 84 31 91 75 9 54 -19 81 -108 105 -65 18 -73 23 -76
47 -6 51 78 78 118 38 11 -11 20 -24 20 -30 0 -5 9 -10 20 -10 29 0 25 27 -9
61 -26 25 -37 29 -86 29 -46 0 -60 -4 -80 -25z"/>
<path d="M2480 12375 c0 -131 2 -155 15 -155 13 0 15 24 15 155 0 131 -2 155
-15 155 -13 0 -15 -24 -15 -155z"/>
<path d="M2930 12375 c0 -148 1 -155 20 -155 19 0 20 7 21 123 l1 122 41 -122
c35 -104 45 -123 62 -123 17 0 27 19 62 123 l41 122 1 -122 c1 -116 2 -123 21
-123 19 0 20 7 20 156 l0 155 -27 -3 c-26 -3 -31 -11 -72 -133 l-45 -129 -44
132 c-43 129 -44 132 -73 132 l-29 0 0 -155z"/>
<path d="M3670 12475 c0 -59 -4 -63 -34 -40 -30 23 -65 18 -97 -14 -24 -25
-29 -37 -29 -81 0 -67 21 -105 64 -120 28 -9 40 -8 65 5 18 9 31 11 31 5 0 -5
7 -10 15 -10 13 0 15 24 15 155 0 131 -2 155 -15 155 -12 0 -15 -13 -15 -55z
m-22 -83 c18 -23 15 -107 -4 -126 -8 -9 -29 -16 -45 -16 -25 0 -33 6 -46 37
-36 87 41 171 95 105z"/>
<path d="M4477 12523 c-4 -3 -7 -73 -7 -155 l0 -148 25 0 c24 0 25 2 25 65 l0
65 63 0 c73 0 87 -10 87 -61 0 -54 9 -69 38 -69 20 0 23 3 14 12 -7 7 -12 33
-12 58 0 25 -6 55 -14 65 -12 17 -11 23 7 47 29 39 14 87 -33 110 -35 18 -179
26 -193 11z m181 -45 c7 -7 12 -24 12 -38 0 -40 -18 -50 -87 -50 l-63 0 0 50
0 50 63 0 c36 0 68 -5 75 -12z"/>
<path d="M5400 12475 c0 -59 -4 -63 -34 -40 -30 23 -65 18 -97 -14 -24 -25
-29 -37 -29 -81 0 -67 21 -105 64 -120 28 -9 40 -8 65 5 18 9 31 11 31 5 0 -5
7 -10 15 -10 13 0 15 24 15 155 0 131 -2 155 -15 155 -12 0 -15 -13 -15 -55z
m-22 -83 c18 -23 15 -107 -4 -126 -8 -9 -29 -16 -45 -16 -25 0 -33 6 -46 37
-36 87 41 171 95 105z"/>
<path d="M5727 12523 c-4 -3 -7 -73 -7 -155 0 -141 1 -148 20 -148 18 0 20 7
20 71 0 76 9 102 41 119 16 9 26 8 45 -5 22 -14 24 -21 24 -100 0 -69 3 -85
15 -85 12 0 15 17 15 95 0 82 -3 98 -20 115 -24 24 -67 26 -98 4 -22 -15 -22
-15 -22 40 0 40 -4 56 -13 56 -8 0 -17 -3 -20 -7z"/>
<path d="M6817 12523 c-4 -3 -7 -73 -7 -155 0 -141 1 -148 20 -148 18 0 20 7
20 71 0 76 9 102 41 119 16 9 26 8 45 -5 22 -14 24 -21 24 -100 0 -69 3 -85
15 -85 12 0 15 17 15 95 0 82 -3 98 -20 115 -24 24 -67 26 -98 4 -22 -15 -22
-15 -22 40 0 40 -4 56 -13 56 -8 0 -17 -3 -20 -7z"/>
<path d="M7290 12376 c0 -148 1 -156 20 -156 17 0 19 8 22 87 3 85 4 88 30
101 21 10 33 10 48 2 18 -10 20 -21 20 -100 0 -83 1 -90 20 -90 19 0 20 7 20
90 0 83 -2 93 -25 115 -28 28 -61 32 -92 10 -22 -15 -22 -15 -25 37 -2 41 -7
54 -20 56 -17 3 -18 -9 -18 -152z"/>
<path d="M8100 12375 c0 -131 2 -155 15 -155 13 0 15 24 15 155 0 131 -2 155
-15 155 -13 0 -15 -24 -15 -155z"/>
<path d="M9857 12523 c-4 -3 -7 -28 -7 -55 0 -49 0 -49 -22 -34 -68 48 -148
-24 -133 -119 12 -81 67 -120 126 -91 16 8 29 10 29 5 0 -5 9 -9 20 -9 19 0
20 7 20 155 0 123 -3 155 -13 155 -8 0 -17 -3 -20 -7z m-38 -113 c13 0 31 -50
31 -87 0 -44 -24 -73 -60 -73 -36 0 -51 20 -57 74 -5 38 -2 48 21 71 16 16 33
24 42 21 9 -3 19 -6 23 -6z"/>
<path d="M5617 12503 c-4 -3 -7 -19 -7 -35 0 -18 -5 -28 -15 -28 -8 0 -15 -7
-15 -15 0 -8 7 -15 15 -15 12 0 15 -15 15 -76 0 -91 10 -114 50 -114 34 0 42
25 10 33 -18 5 -20 14 -20 81 0 69 2 76 20 76 11 0 20 7 20 15 0 8 -9 15 -20
15 -16 0 -20 7 -20 35 0 33 -16 46 -33 28z"/>
<path d="M7180 12476 c0 -25 -4 -36 -15 -36 -8 0 -15 -7 -15 -15 0 -8 7 -15
15 -15 11 0 15 -19 17 -92 l3 -93 33 -3 c24 -2 32 1 32 12 0 9 -7 16 -15 16
-12 0 -15 16 -15 80 0 64 3 80 15 80 8 0 15 7 15 15 0 8 -6 15 -14 15 -9 0
-16 12 -18 32 -2 22 -9 34 -20 36 -15 3 -18 -4 -18 -32z"/>
<path d="M2278 12434 c-37 -20 -48 -43 -48 -103 0 -41 5 -56 28 -82 23 -26 36
-32 71 -32 58 0 91 33 99 98 11 102 -68 164 -150 119z m86 -35 c51 -40 27
-149 -33 -149 -50 0 -80 57 -61 115 18 56 51 68 94 34z"/>
<path d="M2611 12436 c-34 -19 -50 -54 -51 -108 0 -67 38 -110 99 -112 36 -1
47 4 72 32 49 55 37 157 -22 188 -34 17 -67 17 -98 0z m79 -26 c39 -21 47
-103 12 -142 -22 -25 -67 -23 -86 4 -19 27 -21 98 -3 120 20 26 49 33 77 18z"/>
<path d="M3321 12436 c-34 -19 -50 -54 -51 -108 0 -67 38 -110 99 -112 36 -1
47 4 72 32 49 55 37 157 -22 188 -34 17 -67 17 -98 0z m79 -26 c39 -21 47
-103 12 -142 -22 -25 -67 -23 -86 4 -19 27 -21 98 -3 120 20 26 49 33 77 18z"/>
<path d="M3802 12437 c-12 -7 -29 -23 -38 -35 -18 -26 -21 -111 -4 -142 15
-28 75 -53 109 -45 31 8 71 43 71 62 0 19 -24 16 -45 -7 -20 -22 -74 -27 -93
-8 -7 7 -12 22 -12 35 0 22 3 23 80 23 44 0 80 3 80 8 0 4 -5 24 -10 44 -19
66 -82 96 -138 65z m83 -42 c38 -37 31 -45 -35 -45 -43 0 -60 4 -60 13 0 25
32 53 63 56 4 1 19 -10 32 -24z"/>
<path d="M4822 12437 c-12 -7 -29 -23 -38 -35 -18 -26 -21 -111 -4 -142 15
-28 75 -53 109 -45 31 8 71 43 71 62 0 19 -24 16 -45 -7 -20 -22 -74 -27 -93
-8 -7 7 -12 22 -12 35 0 22 3 23 80 23 44 0 80 3 80 8 0 4 -5 24 -10 44 -19
66 -82 96 -138 65z m83 -42 c38 -37 31 -45 -35 -45 -43 0 -60 4 -60 13 0 25
32 53 63 56 4 1 19 -10 32 -24z"/>
<path d="M5035 12425 c-14 -13 -25 -29 -25 -35 0 -17 29 -11 50 10 11 11 27
20 36 20 27 0 54 -20 54 -39 0 -22 -19 -31 -66 -31 -65 0 -109 -75 -66 -112
29 -26 60 -31 94 -14 21 11 35 13 42 6 16 -16 56 -12 56 5 0 8 -4 15 -10 15
-6 0 -10 32 -10 75 0 67 -3 79 -25 100 -18 19 -35 25 -65 25 -30 0 -47 -6 -65
-25z m115 -118 c0 -35 -32 -59 -71 -55 -24 2 -35 9 -37 22 -5 24 9 36 50 46
53 13 58 11 58 -13z"/>
<path d="M6022 12428 c-19 -19 -22 -20 -22 -5 0 9 -7 17 -15 17 -12 0 -15 -19
-15 -110 0 -91 3 -110 15 -110 12 0 15 15 15 75 0 62 4 79 20 95 11 11 27 20
35 20 8 0 15 9 15 20 0 26 -20 25 -48 -2z"/>
<path d="M6130 12423 c-42 -38 -52 -110 -21 -159 46 -74 152 -61 179 21 26 80
-11 152 -84 162 -36 4 -46 1 -74 -24z m97 -18 c31 -22 40 -78 19 -121 -13 -29
-21 -34 -50 -34 -43 0 -66 29 -66 83 0 27 7 45 25 62 28 29 42 31 72 10z"/>
<path d="M6599 12421 c-25 -25 -29 -37 -29 -84 0 -45 5 -61 25 -85 31 -38 68
-47 106 -28 29 14 29 14 23 -12 -4 -15 -11 -33 -17 -39 -13 -18 -72 -16 -87 2
-15 19 -40 20 -40 2 0 -50 112 -66 155 -22 24 23 25 29 25 155 0 109 -2 130
-15 130 -8 0 -15 -5 -15 -11 0 -7 -10 -5 -25 5 -37 24 -73 20 -106 -13z m112
-28 c17 -20 17 -106 0 -126 -17 -22 -59 -22 -83 0 -21 19 -25 100 -5 125 23
29 65 30 88 1z"/>
<path d="M7572 12437 c-12 -7 -29 -23 -38 -35 -18 -26 -21 -111 -4 -142 15
-28 75 -53 109 -45 31 8 71 43 71 62 0 19 -24 16 -45 -7 -20 -22 -74 -27 -93
-8 -7 7 -12 22 -12 35 0 22 3 23 80 23 44 0 80 3 80 8 0 4 -5 24 -10 44 -19
66 -82 96 -138 65z m83 -42 c38 -37 31 -45 -35 -45 -43 0 -60 4 -60 13 0 25
32 53 63 56 4 1 19 -10 32 -24z"/>
<path d="M7911 12437 c-14 -6 -29 -25 -34 -41 -12 -37 13 -63 79 -80 42 -10
49 -16 49 -37 0 -21 -5 -24 -42 -27 -34 -3 -44 1 -53 17 -13 26 -40 27 -40 3
0 -42 69 -70 126 -52 53 18 72 71 37 103 -10 8 -40 21 -66 28 -54 13 -70 35
-41 56 22 16 65 9 77 -13 10 -18 37 -18 37 0 0 22 -49 56 -79 56 -14 0 -37 -6
-50 -13z"/>
<path d="M8225 12439 c-23 -14 -35 -29 -35 -46 0 -20 23 -15 43 7 29 34 87 23
87 -16 0 -24 -4 -26 -81 -39 -47 -7 -61 -25 -57 -72 2 -30 9 -41 32 -52 24
-11 34 -11 69 3 27 11 44 13 51 6 13 -13 56 -13 56 0 0 6 -7 13 -15 16 -12 5
-15 24 -15 83 0 48 -5 84 -13 95 -16 22 -94 31 -122 15z m95 -139 c0 -25 -6
-33 -31 -44 -38 -16 -65 -11 -72 14 -9 34 11 46 96 59 4 0 7 -13 7 -29z"/>
<path d="M8482 12434 c-12 -8 -22 -10 -22 -5 0 6 -7 11 -15 11 -12 0 -15 -19
-15 -110 0 -91 3 -110 15 -110 12 0 15 14 15 64 0 76 11 111 40 126 17 9 26 8
46 -5 22 -14 24 -21 24 -100 0 -80 1 -85 21 -85 20 0 21 4 17 96 -3 86 -5 98
-27 115 -28 23 -69 24 -99 3z"/>
<path d="M8703 12438 c-33 -16 -56 -73 -50 -121 11 -79 69 -122 127 -94 29 15
30 15 30 -7 0 -47 -70 -75 -104 -41 -17 17 -46 20 -46 5 0 -5 9 -19 20 -30 29
-29 100 -27 137 4 28 24 28 26 31 155 3 127 3 131 -17 131 -12 0 -21 -5 -21
-11 0 -5 -10 -3 -22 5 -26 18 -53 19 -85 4z m76 -28 c13 0 31 -50 31 -87 0
-44 -24 -73 -60 -73 -36 0 -51 20 -57 74 -5 38 -2 48 21 71 16 16 33 24 42 21
9 -3 19 -6 23 -6z"/>
<path d="M9368 12434 c-37 -20 -48 -43 -48 -103 0 -41 5 -56 28 -82 23 -26 36
-32 71 -32 58 0 91 33 99 98 11 102 -68 164 -150 119z m86 -35 c51 -40 27
-149 -33 -149 -50 0 -80 57 -61 115 18 56 51 68 94 34z"/>
<path d="M9632 12434 c-12 -8 -22 -10 -22 -5 0 6 -9 11 -20 11 -19 0 -20 -7
-20 -110 0 -103 1 -110 20 -110 18 0 20 7 20 78 0 83 14 112 53 112 10 0 17 8
17 20 0 24 -18 26 -48 4z"/>
<path d="M9975 12439 c-27 -17 -35 -29 -35 -60 0 -34 17 -48 77 -63 41 -10 48
-16 48 -37 0 -21 -5 -24 -43 -27 -37 -3 -44 0 -49 17 -5 21 -43 30 -43 10 0
-25 23 -49 59 -60 33 -10 45 -9 78 7 35 17 38 23 38 59 l0 40 -65 22 c-69 23
-83 38 -54 60 25 19 51 16 74 -7 23 -23 40 -26 40 -7 0 42 -81 72 -125 46z"/>
<path d="M6340 12351 c0 -72 4 -93 19 -112 23 -29 81 -31 111 -4 18 16 20 16
20 2 0 -10 7 -17 15 -17 12 0 15 19 15 110 0 103 -1 110 -20 110 -18 0 -20 -7
-20 -79 0 -89 -12 -111 -60 -111 -35 0 -40 13 -40 111 0 72 -2 79 -20 79 -19
0 -20 -7 -20 -89z"/>
<path d="M9003 12428 c2 -7 17 -57 32 -111 25 -86 31 -98 48 -95 16 2 24 17
37 68 28 110 24 112 61 -32 7 -27 15 -38 29 -38 15 0 24 17 44 83 41 135 42
140 20 135 -14 -2 -24 -22 -40 -83 -11 -43 -23 -75 -26 -69 -3 5 -13 42 -23
82 -15 62 -20 72 -39 72 -19 0 -25 -10 -42 -82 l-21 -83 -11 40 c-6 22 -16 59
-22 83 -8 32 -16 42 -31 42 -13 0 -19 -5 -16 -12z"/>
<path d="M1672 12358 c-7 -7 -12 -21 -12 -33 0 -28 19 -45 50 -45 31 0 50 17
50 45 0 28 -19 45 -50 45 -14 0 -31 -5 -38 -12z"/>
<path d="M4080 12335 c0 -12 20 -15 120 -15 100 0 120 3 120 15 0 13 -20 15
-120 15 -100 0 -120 -2 -120 -15z"/>
<path d="M2580 11885 c0 -59 -4 -63 -34 -40 -30 23 -65 18 -97 -14 -24 -25
-29 -37 -29 -81 0 -67 21 -105 64 -120 28 -9 40 -8 65 5 18 9 31 11 31 5 0 -5
7 -10 15 -10 13 0 15 24 15 155 0 131 -2 155 -15 155 -12 0 -15 -13 -15 -55z
m-22 -83 c18 -23 15 -107 -4 -126 -8 -9 -29 -16 -45 -16 -25 0 -33 6 -46 37
-36 87 41 171 95 105z"/>
<path d="M5230 11785 c0 -126 3 -155 14 -155 10 0 15 20 18 80 4 88 17 113 63
113 38 0 45 -17 45 -110 0 -78 1 -83 21 -83 20 0 21 4 17 96 -3 86 -5 98 -27
115 -28 23 -69 24 -99 3 -22 -15 -22 -15 -22 40 0 43 -3 56 -15 56 -13 0 -15
-24 -15 -155z"/>
<path d="M5700 11915 c0 -18 5 -25 20 -25 15 0 20 7 20 25 0 18 -5 25 -20 25
-15 0 -20 -7 -20 -25z"/>
<path d="M7124 11925 c-7 -18 3 -35 22 -35 8 0 14 10 14 25 0 27 -27 35 -36
10z"/>
<path d="M8020 11786 c0 -149 1 -156 20 -156 11 0 20 4 20 10 0 5 13 2 29 -7
59 -35 122 23 124 114 1 80 -65 134 -123 101 l-29 -16 -3 51 c-2 40 -7 53 -20
55 -17 3 -18 -9 -18 -152z m137 21 c21 -16 26 -71 9 -110 -12 -31 -20 -37 -45
-37 -43 0 -61 23 -61 79 0 78 45 109 97 68z"/>
<path d="M9877 11933 c-4 -3 -7 -73 -7 -155 0 -141 1 -148 20 -148 19 0 20 7
20 155 0 123 -3 155 -13 155 -8 0 -17 -3 -20 -7z"/>
<path d="M9986 11918 c-9 -12 -16 -33 -16 -45 0 -14 -6 -23 -15 -23 -8 0 -15
-7 -15 -15 0 -8 7 -15 15 -15 12 0 15 -17 15 -95 0 -88 1 -95 20 -95 19 0 20
7 20 95 0 88 1 95 20 95 11 0 20 7 20 15 0 8 -9 15 -20 15 -15 0 -20 7 -20 26
0 17 6 28 20 31 29 8 25 33 -4 33 -14 0 -32 -10 -40 -22z"/>
<path d="M2797 11914 c-4 -4 -7 -20 -7 -36 0 -18 -5 -28 -15 -28 -8 0 -15 -7
-15 -15 0 -8 7 -15 15 -15 12 0 15 -16 15 -83 0 -51 5 -88 12 -95 17 -17 58
-15 58 3 0 8 -7 15 -15 15 -12 0 -15 16 -15 80 0 64 3 80 15 80 8 0 15 7 15
15 0 8 -6 15 -14 15 -9 0 -16 12 -18 32 -3 31 -17 45 -31 32z"/>
<path d="M3387 11913 c-4 -3 -7 -19 -7 -35 0 -18 -5 -28 -15 -28 -8 0 -15 -7
-15 -15 0 -8 7 -15 15 -15 12 0 15 -15 15 -76 0 -91 10 -114 50 -114 34 0 42
25 10 33 -18 5 -20 14 -20 81 0 69 2 76 20 76 11 0 20 7 20 15 0 8 -9 15 -20
15 -16 0 -20 7 -20 35 0 33 -16 46 -33 28z"/>
<path d="M5120 11890 c0 -18 -6 -33 -15 -36 -19 -8 -20 -34 0 -34 11 0 15 -19
17 -92 l3 -93 33 -3 c36 -4 47 22 12 31 -18 5 -20 14 -20 81 0 69 2 76 20 76
11 0 20 6 20 14 0 7 -9 16 -20 19 -15 4 -20 14 -20 36 0 21 -5 31 -15 31 -10
0 -15 -10 -15 -30z"/>
<path d="M1975 11835 c-14 -13 -25 -29 -25 -35 0 -17 29 -11 50 10 11 11 27
20 36 20 27 0 54 -20 54 -39 0 -22 -19 -31 -66 -31 -65 0 -109 -75 -66 -112
29 -26 60 -31 94 -14 21 11 35 13 42 6 16 -16 56 -12 56 5 0 8 -4 15 -10 15
-6 0 -10 32 -10 75 0 67 -3 79 -25 100 -18 19 -35 25 -65 25 -30 0 -47 -6 -65
-25z m115 -118 c0 -35 -32 -59 -71 -55 -24 2 -35 9 -37 22 -5 24 9 36 50 46
53 13 58 11 58 -13z"/>
<path d="M2252 11844 c-12 -8 -22 -10 -22 -5 0 6 -9 11 -20 11 -19 0 -20 -7
-20 -110 0 -103 1 -110 20 -110 18 0 20 7 20 74 0 41 3 82 6 91 9 24 51 37 75
25 17 -9 19 -22 19 -100 0 -83 1 -90 20 -90 19 0 20 7 20 93 0 98 -3 108 -37
126 -30 15 -54 14 -81 -5z"/>
<path d="M2963 11838 c-20 -19 -23 -20 -23 -5 0 9 -7 17 -15 17 -12 0 -15 -19
-15 -110 0 -103 1 -110 20 -110 18 0 20 7 20 79 0 84 12 111 50 111 10 0 20 5
22 11 2 5 20 -39 41 -98 31 -90 36 -114 28 -136 -7 -17 -18 -27 -31 -27 -11 0
-20 -7 -20 -15 0 -10 10 -15 30 -15 23 0 33 7 46 33 15 29 104 262 104 273 0
2 -9 4 -19 4 -16 0 -25 -17 -47 -85 -16 -47 -31 -82 -35 -77 -4 4 -17 39 -29
77 -12 39 -25 73 -29 77 -3 3 -22 9 -41 13 -28 5 -39 2 -57 -17z"/>
<path d="M3543 11850 c-81 -33 -79 -182 2 -216 80 -33 150 27 142 120 -7 81
-72 125 -144 96z m82 -45 c18 -17 25 -35 25 -62 0 -54 -23 -83 -66 -83 -29 0
-37 5 -50 34 -21 43 -12 99 19 121 30 21 44 19 72 -10z"/>
<path d="M3887 11849 c-9 -5 -24 -23 -32 -39 -50 -96 30 -219 115 -177 27 14
30 14 30 -2 0 -9 -7 -27 -16 -39 -18 -26 -81 -31 -90 -7 -8 19 -44 20 -44 1 0
-42 108 -62 149 -28 29 23 40 77 41 195 0 90 -1 97 -20 97 -11 0 -20 -5 -20
-11 0 -5 -10 -3 -22 5 -26 18 -65 20 -91 5z m88 -44 c48 -47 25 -145 -35 -145
-37 0 -60 32 -60 85 0 42 14 69 40 78 26 9 30 8 55 -18z"/>
<path d="M4372 11847 c-12 -7 -29 -23 -38 -35 -18 -26 -21 -111 -4 -142 15
-28 75 -53 109 -45 31 8 71 43 71 62 0 19 -24 16 -45 -7 -20 -22 -74 -27 -93
-8 -7 7 -12 22 -12 35 0 22 3 23 80 23 44 0 80 3 80 8 0 4 -5 24 -10 44 -19
66 -82 96 -138 65z m83 -42 c38 -37 31 -45 -35 -45 -43 0 -60 4 -60 13 0 25
32 53 63 56 4 1 19 -10 32 -24z"/>
<path d="M4591 11847 c-14 -6 -29 -25 -34 -41 -12 -37 13 -63 79 -80 42 -10
49 -16 49 -37 0 -21 -5 -24 -42 -27 -34 -3 -44 1 -53 17 -13 26 -40 27 -40 3
0 -42 69 -70 126 -52 53 18 72 71 37 103 -10 8 -40 21 -66 28 -54 13 -70 35
-41 56 22 16 65 9 77 -13 10 -18 37 -18 37 0 0 22 -49 56 -79 56 -14 0 -37 -6
-50 -13z"/>
<path d="M4796 11839 c-28 -22 -36 -69 -13 -87 7 -6 33 -16 59 -22 57 -15 76
-33 58 -55 -19 -22 -77 -19 -92 5 -11 17 -48 29 -48 15 0 -21 28 -56 53 -65
63 -22 130 12 130 65 0 35 -11 44 -75 65 -39 13 -54 22 -56 38 -2 16 3 23 21
27 26 7 67 -9 67 -25 0 -6 9 -10 20 -10 27 0 25 16 -5 45 -30 31 -82 33 -119
4z"/>
<path d="M5514 11850 c-48 -19 -74 -93 -55 -153 17 -51 44 -70 98 -70 38 0 50
5 70 27 12 15 23 31 23 37 0 17 -35 9 -48 -11 -18 -29 -76 -27 -96 2 -30 42
-22 48 64 48 l80 0 0 36 c0 68 -70 111 -136 84z m93 -61 c12 -24 12 -24 -48
-27 -34 -2 -63 -1 -66 2 -9 9 19 47 40 55 30 11 59 -1 74 -30z"/>
<path d="M5862 11844 c-12 -8 -22 -10 -22 -5 0 6 -9 11 -20 11 -19 0 -20 -7
-20 -110 0 -103 1 -110 20 -110 18 0 20 7 20 78 0 83 14 112 53 112 10 0 17 8
17 20 0 24 -18 26 -48 4z"/>
<path d="M6112 11844 c-12 -8 -22 -10 -22 -5 0 6 -7 11 -15 11 -12 0 -15 -19
-15 -110 0 -87 3 -110 14 -110 10 0 15 20 18 81 3 70 6 83 27 100 28 23 35 23
55 3 12 -12 16 -36 16 -100 0 -65 3 -84 14 -84 10 0 15 20 18 81 3 70 6 84 26
99 23 19 50 17 64 -4 4 -6 8 -48 8 -93 0 -78 1 -83 21 -83 21 0 21 4 17 96 -4
86 -7 99 -27 115 -28 23 -59 24 -89 3 -20 -14 -24 -14 -44 0 -12 9 -32 16 -43
16 -11 0 -31 -7 -43 -16z"/>
<path d="M6438 11831 c-30 -27 -33 -34 -33 -89 0 -50 4 -65 24 -86 31 -33 70
-41 114 -22 30 12 57 41 57 60 0 15 -37 4 -48 -14 -25 -41 -112 -15 -112 33 0
15 12 17 80 17 79 0 80 0 80 25 0 93 -94 137 -162 76z m110 -29 c25 -32 15
-42 -48 -42 -64 0 -66 1 -49 31 20 38 70 43 97 11z"/>
<path d="M6685 11849 c-23 -14 -35 -29 -35 -46 0 -20 23 -15 43 7 29 34 87 23
87 -16 0 -24 -4 -26 -81 -39 -47 -7 -61 -25 -57 -72 2 -30 9 -41 32 -52 24
-11 34 -11 69 3 27 11 44 13 51 6 13 -13 56 -13 56 0 0 6 -7 13 -15 16 -12 5
-15 24 -15 83 0 48 -5 84 -13 95 -16 22 -94 31 -122 15z m95 -139 c0 -25 -6
-33 -31 -44 -38 -16 -65 -11 -72 14 -9 34 11 46 96 59 4 0 7 -13 7 -29z"/>
<path d="M6942 11844 c-12 -8 -22 -10 -22 -5 0 6 -7 11 -15 11 -12 0 -15 -19
-15 -110 0 -91 3 -110 15 -110 12 0 15 14 15 64 0 76 11 111 40 126 17 9 26 8
46 -5 22 -14 24 -21 24 -100 0 -80 1 -85 21 -85 20 0 21 4 17 96 -3 86 -5 98
-27 115 -28 23 -69 24 -99 3z"/>
<path d="M7272 11844 c-12 -8 -22 -10 -22 -5 0 6 -7 11 -15 11 -12 0 -15 -19
-15 -110 0 -91 3 -110 15 -110 12 0 15 14 15 64 0 76 11 111 40 126 17 9 26 8
46 -5 22 -14 24 -21 24 -100 0 -80 1 -85 21 -85 20 0 21 4 17 96 -3 86 -5 98
-27 115 -28 23 -69 24 -99 3z"/>
<path d="M7493 11848 c-33 -16 -56 -73 -50 -121 11 -79 69 -122 127 -94 29 15
30 15 30 -7 0 -47 -70 -75 -104 -41 -17 17 -46 20 -46 5 0 -5 9 -19 20 -30 29
-29 100 -27 137 4 28 24 28 26 31 155 3 127 3 131 -17 131 -12 0 -21 -5 -21
-11 0 -5 -10 -3 -22 5 -26 18 -53 19 -85 4z m76 -28 c13 0 31 -50 31 -87 0
-44 -24 -73 -60 -73 -36 0 -51 20 -57 74 -5 38 -2 48 21 71 16 16 33 24 42 21
9 -3 19 -6 23 -6z"/>
<path d="M7721 11847 c-14 -6 -29 -25 -34 -41 -12 -37 13 -63 79 -80 42 -10
49 -16 49 -37 0 -21 -5 -24 -42 -27 -34 -3 -44 1 -53 17 -13 26 -40 27 -40 3
0 -42 69 -70 126 -52 53 18 72 71 37 103 -10 8 -40 21 -66 28 -54 13 -70 35
-41 56 22 16 65 9 77 -13 10 -18 37 -18 37 0 0 22 -49 56 -79 56 -14 0 -37 -6
-50 -13z"/>
<path d="M8853 11850 c-81 -33 -79 -182 2 -216 80 -33 150 27 142 120 -7 81
-72 125 -144 96z m82 -45 c18 -17 25 -35 25 -62 0 -54 -23 -83 -66 -83 -29 0
-37 5 -50 34 -21 43 -12 99 19 121 30 21 44 19 72 -10z"/>
<path d="M9342 11838 c-19 -19 -22 -20 -22 -5 0 9 -7 17 -15 17 -12 0 -15 -19
-15 -110 0 -91 3 -110 15 -110 12 0 15 15 15 75 0 62 4 79 20 95 11 11 27 20
35 20 8 0 15 9 15 20 0 26 -20 25 -48 -2z"/>
<path d="M9451 11847 c-14 -6 -29 -25 -34 -41 -12 -37 13 -63 79 -80 42 -10
49 -16 49 -37 0 -21 -5 -24 -42 -27 -34 -3 -44 1 -53 17 -13 26 -40 27 -40 3
0 -42 69 -70 126 -52 53 18 72 71 37 103 -10 8 -40 21 -66 28 -54 13 -70 35
-41 56 22 16 65 9 77 -13 10 -18 37 -18 37 0 0 22 -49 56 -79 56 -14 0 -37 -6
-50 -13z"/>
<path d="M9682 11847 c-12 -7 -29 -23 -38 -35 -18 -26 -21 -111 -4 -142 15
-28 75 -53 109 -45 31 8 71 43 71 62 0 19 -24 16 -45 -7 -20 -22 -74 -27 -93
-8 -7 7 -12 22 -12 35 0 22 3 23 80 23 44 0 80 3 80 8 0 4 -5 24 -10 44 -19
66 -82 96 -138 65z m83 -42 c38 -37 31 -45 -35 -45 -43 0 -60 4 -60 13 0 25
32 53 63 56 4 1 19 -10 32 -24z"/>
<path d="M4090 11757 c0 -77 3 -97 18 -109 28 -26 60 -31 92 -14 17 8 30 10
30 5 0 -5 9 -9 20 -9 19 0 20 7 20 110 0 103 -1 110 -20 110 -18 0 -20 -7 -20
-73 0 -90 -16 -120 -63 -115 l-32 3 -3 93 c-2 84 -4 92 -22 92 -18 0 -20 -7
-20 -93z"/>
<path d="M5700 11740 c0 -103 1 -110 20 -110 19 0 20 7 20 110 0 103 -1 110
-20 110 -19 0 -20 -7 -20 -110z"/>
<path d="M7120 11740 c0 -103 1 -110 20 -110 19 0 20 7 20 110 0 103 -1 110
-20 110 -19 0 -20 -7 -20 -110z"/>
<path d="M8242 11838 c80 -212 81 -217 64 -243 -9 -14 -23 -25 -31 -25 -8 0
-15 -7 -15 -15 0 -21 43 -19 64 4 9 10 39 79 66 152 40 110 46 135 33 137 -22
5 -28 -4 -53 -83 -13 -38 -25 -74 -28 -79 -3 -6 -17 28 -32 75 -22 72 -29 84
-49 87 -17 3 -22 0 -19 -10z"/>
<path d="M8611 11738 c34 -95 39 -118 30 -141 -7 -17 -18 -27 -31 -27 -11 0
-20 -7 -20 -15 0 -10 10 -15 30 -15 23 0 33 7 46 33 15 29 104 262 104 273 0
2 -9 4 -19 4 -16 0 -25 -17 -47 -85 -16 -46 -30 -82 -33 -79 -4 3 -18 40 -32
82 -20 61 -30 78 -47 80 -20 3 -19 -2 19 -110z"/>
<path d="M9042 11755 c2 -73 7 -98 20 -112 23 -23 81 -22 108 2 18 16 20 16
20 2 0 -10 7 -17 15 -17 12 0 15 19 15 110 0 87 -3 110 -14 110 -10 0 -15 -21
-18 -79 -5 -88 -17 -111 -57 -111 -43 0 -51 17 -51 107 0 78 -1 83 -21 83 -20
0 -21 -4 -17 -95z"/>
<path d="M10097 11674 c-4 -4 -7 -16 -7 -26 0 -13 7 -18 26 -18 21 0 25 4 22
22 -3 23 -27 35 -41 22z"/>
<path d="M1938 10675 c-3 -3 3 -36 13 -73 10 -37 28 -104 39 -149 19 -71 25
-83 44 -83 19 0 25 15 57 127 l35 127 35 -125 c29 -106 37 -124 56 -127 14 -2
23 3 27 15 9 31 76 284 76 289 0 3 -10 4 -22 2 -20 -3 -26 -17 -49 -116 -14
-62 -28 -115 -31 -117 -3 -3 -20 49 -38 115 -26 98 -36 120 -51 120 -24 0 -27
-5 -59 -127 -16 -58 -31 -107 -33 -110 -3 -2 -18 49 -33 114 -20 83 -34 119
-44 121 -9 1 -18 0 -22 -3z"/>
<path d="M2360 10655 c0 -16 6 -25 15 -25 9 0 15 9 15 25 0 16 -6 25 -15 25
-9 0 -15 -9 -15 -25z"/>
<path d="M2570 10526 c0 -149 1 -156 20 -156 18 0 20 7 20 74 0 41 3 82 6 91
9 24 51 37 75 25 17 -9 19 -22 19 -100 0 -83 1 -90 20 -90 19 0 20 7 20 94 0
73 -4 98 -16 110 -25 26 -65 31 -95 13 l-28 -15 -3 51 c-2 40 -7 53 -20 55
-17 3 -18 -9 -18 -152z"/>
<path d="M2970 10525 c0 -148 1 -155 20 -155 18 0 20 7 20 70 l0 70 76 0 c66
0 75 2 72 18 -3 14 -16 18 -76 20 l-72 3 0 44 0 45 85 0 c78 0 85 2 85 20 0
19 -7 20 -105 20 l-105 0 0 -155z"/>
<path d="M3814 10665 c-7 -18 3 -35 22 -35 8 0 14 10 14 25 0 27 -27 35 -36
10z"/>
<path d="M3910 10525 c0 -131 2 -155 15 -155 13 0 15 24 15 155 0 131 -2 155
-15 155 -13 0 -15 -24 -15 -155z"/>
<path d="M4440 10669 c-13 -6 -28 -15 -32 -22 -11 -18 -10 -65 3 -85 9 -15 6
-24 -20 -49 -88 -89 19 -194 128 -126 21 14 25 14 33 -1 5 -9 21 -16 35 -16
l25 0 -26 35 c-22 28 -25 39 -16 54 5 11 10 27 10 35 0 24 -25 19 -37 -6 -9
-21 -10 -21 -32 11 l-23 32 20 22 c31 33 37 69 15 94 -23 27 -51 34 -83 22z
m58 -52 c4 -18 -23 -57 -38 -57 -12 0 -33 58 -25 70 11 18 59 8 63 -13z m-14
-144 c23 -27 27 -39 19 -51 -12 -21 -69 -28 -89 -11 -19 16 -18 58 3 81 22 25
33 22 67 -19z"/>
<path d="M4810 10525 c0 -148 1 -155 20 -155 18 0 20 7 20 70 l0 70 75 0 c68
0 75 2 75 20 0 18 -7 20 -75 20 l-75 0 0 45 0 45 85 0 c78 0 85 2 85 20 0 19
-7 20 -105 20 l-105 0 0 -155z"/>
<path d="M5210 10655 c0 -16 6 -25 15 -25 9 0 15 9 15 25 0 16 -6 25 -15 25
-9 0 -15 -9 -15 -25z"/>
<path d="M5927 10673 c-4 -3 -7 -28 -7 -55 0 -49 0 -49 -22 -34 -68 48 -148
-24 -133 -119 12 -81 67 -120 126 -91 16 8 29 10 29 5 0 -5 9 -9 20 -9 19 0
20 7 20 155 0 123 -3 155 -13 155 -8 0 -17 -3 -20 -7z m-38 -113 c13 0 31 -50
31 -87 0 -44 -24 -73 -60 -73 -36 0 -51 20 -57 74 -5 38 -2 48 21 71 16 16 33
24 42 21 9 -3 19 -6 23 -6z"/>
<path d="M6680 10526 c0 -149 1 -156 20 -156 18 0 20 7 20 65 l0 65 68 0 c69
1 90 10 110 47 19 34 14 69 -12 100 -23 26 -30 28 -115 31 l-91 4 0 -156z
m175 94 c42 -46 -15 -96 -99 -88 -30 3 -31 5 -34 56 l-3 52 59 0 c46 0 63 -4
77 -20z"/>
<path d="M6960 10526 c0 -150 1 -156 20 -156 20 0 20 5 18 152 -3 136 -5 153
-20 156 -17 3 -18 -9 -18 -152z"/>
<path d="M7964 10665 c-7 -18 3 -35 22 -35 8 0 14 10 14 25 0 27 -27 35 -36
10z"/>
<path d="M8180 10525 c0 -126 3 -155 14 -155 10 0 15 20 18 80 4 88 17 113 63
113 38 0 45 -17 45 -110 0 -78 1 -83 21 -83 20 0 21 4 17 96 -3 86 -5 98 -27
115 -28 23 -69 24 -99 3 -22 -15 -22 -15 -22 40 0 43 -3 56 -15 56 -13 0 -15
-24 -15 -155z"/>
<path d="M8920 10526 c0 -149 1 -156 20 -156 18 0 20 7 20 74 0 41 3 82 6 91
9 24 51 37 75 25 17 -9 19 -22 19 -100 0 -83 1 -90 20 -90 19 0 20 7 20 94 0
73 -4 98 -16 110 -25 26 -65 31 -95 13 l-28 -15 -3 51 c-2 40 -7 53 -20 55
-17 3 -18 -9 -18 -152z"/>
<path d="M10380 10525 c0 -131 2 -155 15 -155 11 0 15 11 15 38 0 26 7 45 19
56 18 17 20 15 52 -38 26 -43 39 -56 57 -56 l24 0 -23 38 c-12 20 -31 49 -41
64 -24 35 -24 36 19 80 36 37 37 38 12 38 -16 0 -39 -14 -64 -40 -21 -22 -43
-40 -47 -40 -4 0 -8 38 -8 85 0 69 -3 85 -15 85 -13 0 -15 -24 -15 -155z"/>
<path d="M2460 10626 c0 -25 -4 -36 -15 -36 -8 0 -15 -7 -15 -15 0 -8 7 -15
15 -15 11 0 15 -19 17 -92 l3 -93 33 -3 c24 -2 32 1 32 12 0 9 -7 16 -15 16
-12 0 -15 16 -15 80 0 64 3 80 15 80 8 0 15 7 15 15 0 8 -6 15 -14 15 -9 0
-16 12 -18 32 -2 22 -9 34 -20 36 -15 3 -18 -4 -18 -32z"/>
<path d="M8070 10630 c0 -18 -6 -33 -15 -36 -19 -8 -20 -34 0 -34 11 0 15 -19
17 -92 l3 -93 33 -3 c36 -4 47 22 12 31 -18 5 -20 14 -20 81 0 69 2 76 20 76
11 0 20 6 20 14 0 7 -9 16 -20 19 -15 4 -20 14 -20 36 0 21 -5 31 -15 31 -10
0 -15 -10 -15 -30z"/>
<path d="M8817 10654 c-4 -4 -7 -20 -7 -36 0 -18 -5 -28 -15 -28 -8 0 -15 -7
-15 -15 0 -8 7 -15 15 -15 12 0 15 -16 15 -83 0 -51 5 -88 12 -95 17 -17 58
-15 58 3 0 8 -7 15 -15 15 -12 0 -15 16 -15 80 0 64 3 80 15 80 8 0 15 7 15
15 0 8 -6 15 -14 15 -9 0 -16 12 -18 32 -3 31 -17 45 -31 32z"/>
<path d="M10030 10626 c0 -25 -4 -36 -15 -36 -8 0 -15 -7 -15 -15 0 -8 7 -15
15 -15 11 0 15 -19 17 -92 l3 -93 33 -3 c24 -2 32 1 32 12 0 9 -7 16 -15 16
-12 0 -15 16 -15 80 0 64 3 80 15 80 8 0 15 7 15 15 0 8 -6 15 -14 15 -9 0
-16 12 -18 32 -2 22 -9 34 -20 36 -15 3 -18 -4 -18 -32z"/>
<path d="M3248 10580 c-16 -12 -28 -28 -28 -36 0 -21 33 -17 48 6 7 11 23 20
36 20 24 0 56 -23 56 -40 0 -14 -36 -30 -68 -30 -58 0 -103 -64 -74 -106 23
-35 87 -39 123 -7 14 12 17 12 22 -2 8 -20 57 -20 57 0 0 8 -7 15 -15 15 -12
0 -15 16 -15 84 0 96 -6 106 -73 113 -33 4 -48 0 -69 -17z m112 -118 c0 -35
-29 -62 -66 -62 -63 0 -57 59 7 71 56 10 59 10 59 -9z"/>
<path d="M3512 10584 c-12 -8 -22 -10 -22 -5 0 6 -7 11 -15 11 -12 0 -15 -19
-15 -110 0 -87 3 -110 14 -110 10 0 15 20 18 81 3 70 6 83 27 100 28 23 35 23
55 3 12 -12 16 -36 16 -100 0 -65 3 -84 14 -84 10 0 15 20 18 81 3 70 6 84 26
99 23 19 50 17 64 -4 4 -6 8 -48 8 -93 0 -78 1 -83 21 -83 21 0 21 4 17 96 -4
86 -7 99 -27 115 -28 23 -59 24 -89 3 -20 -14 -24 -14 -44 0 -12 9 -32 16 -43
16 -11 0 -31 -7 -43 -16z"/>
<path d="M5132 10584 c-12 -8 -22 -10 -22 -5 0 6 -9 11 -20 11 -19 0 -20 -7
-20 -110 0 -103 1 -110 20 -110 18 0 20 7 20 78 0 83 14 112 53 112 10 0 17 8
17 20 0 24 -18 26 -48 4z"/>
<path d="M5328 10571 c-30 -27 -33 -34 -33 -89 0 -50 4 -65 24 -86 31 -33 70
-41 114 -22 30 12 57 41 57 60 0 15 -37 4 -48 -14 -25 -41 -112 -15 -112 33 0
15 12 17 80 17 79 0 80 0 80 25 0 93 -94 137 -162 76z m110 -29 c25 -32 15
-42 -48 -42 -64 0 -66 1 -49 31 20 38 70 43 97 11z"/>
<path d="M5600 10583 c-17 -12 -25 -13 -28 -5 -2 7 -10 12 -18 12 -11 0 -14
-22 -14 -110 0 -103 1 -110 20 -110 18 0 20 7 20 84 0 91 9 109 56 109 37 0
44 -17 44 -110 0 -76 2 -83 20 -83 19 0 20 7 20 90 0 83 -2 93 -25 115 -28 29
-61 32 -95 8z"/>
<path d="M6045 10589 c-27 -17 -35 -29 -35 -60 0 -34 17 -48 77 -63 41 -10 48
-16 48 -37 0 -21 -5 -24 -43 -27 -37 -3 -44 0 -49 17 -5 21 -43 30 -43 10 0
-25 23 -49 59 -60 33 -10 45 -9 78 7 35 17 38 23 38 59 l0 40 -65 22 c-69 23
-83 38 -54 60 25 19 51 16 74 -7 23 -23 40 -26 40 -7 0 42 -81 72 -125 46z"/>
<path d="M7075 10575 c-14 -13 -25 -29 -25 -35 0 -17 29 -11 50 10 11 11 27
20 36 20 27 0 54 -20 54 -39 0 -22 -19 -31 -66 -31 -65 0 -109 -75 -66 -112
29 -26 60 -31 94 -14 21 11 35 13 42 6 16 -16 56 -12 56 5 0 8 -4 15 -10 15
-6 0 -10 32 -10 75 0 67 -3 79 -25 100 -18 19 -35 25 -65 25 -30 0 -47 -6 -65
-25z m115 -118 c0 -35 -32 -59 -71 -55 -24 2 -35 9 -37 22 -5 24 9 36 50 46
53 13 58 11 58 -13z"/>
<path d="M8613 10590 c-81 -33 -79 -182 2 -216 80 -33 150 27 142 120 -7 81
-72 125 -144 96z m82 -45 c18 -17 25 -35 25 -62 0 -54 -23 -83 -66 -83 -29 0
-37 5 -50 34 -21 43 -12 99 19 121 30 21 44 19 72 -10z"/>
<path d="M9201 10586 c-33 -18 -50 -53 -51 -104 0 -88 58 -137 135 -112 42 14
80 70 47 70 -9 0 -25 -9 -35 -20 -33 -38 -107 -17 -107 31 0 17 8 19 80 19 75
0 80 1 80 21 0 80 -82 132 -149 95z m97 -44 c25 -33 15 -42 -48 -42 -68 0 -78
14 -33 49 28 23 59 20 81 -7z"/>
<path d="M9462 10584 c-12 -8 -22 -10 -22 -5 0 6 -9 11 -20 11 -19 0 -20 -7
-20 -110 0 -103 1 -110 20 -110 18 0 20 7 20 78 0 83 14 112 53 112 10 0 17 8
17 20 0 24 -18 26 -48 4z"/>
<path d="M9555 10575 c-48 -47 -28 -84 60 -110 41 -12 55 -20 55 -34 0 -36
-81 -44 -102 -11 -17 27 -48 27 -41 1 9 -35 40 -54 90 -54 38 0 50 5 70 27 43
50 23 86 -60 107 -54 13 -70 35 -42 55 26 19 42 17 65 -6 21 -21 50 -27 50
-10 0 25 -50 60 -85 60 -25 0 -44 -8 -60 -25z"/>
<path d="M10168 10580 c-16 -12 -28 -28 -28 -36 0 -21 33 -17 48 6 7 11 23 20
36 20 24 0 56 -23 56 -40 0 -14 -36 -30 -68 -30 -58 0 -103 -64 -74 -106 23
-35 87 -39 123 -7 14 12 17 12 22 -2 8 -20 57 -20 57 0 0 8 -7 15 -15 15 -12
0 -15 16 -15 84 0 96 -6 106 -73 113 -33 4 -48 0 -69 -17z m112 -118 c0 -35
-29 -62 -66 -62 -63 0 -57 59 7 71 56 10 59 10 59 -9z"/>
<path d="M10618 10571 c-30 -27 -33 -34 -33 -89 0 -50 4 -65 24 -86 31 -33 70
-41 114 -22 30 12 57 41 57 60 0 15 -37 4 -48 -14 -25 -41 -112 -15 -112 33 0
15 12 17 80 17 79 0 80 0 80 25 0 93 -94 137 -162 76z m110 -29 c25 -32 15
-42 -48 -42 -64 0 -66 1 -49 31 20 38 70 43 97 11z"/>
<path d="M2360 10480 c0 -91 3 -110 15 -110 12 0 15 19 15 110 0 91 -3 110
-15 110 -12 0 -15 -19 -15 -110z"/>
<path d="M3810 10480 c0 -103 1 -110 20 -110 19 0 20 7 20 110 0 103 -1 110
-20 110 -19 0 -20 -7 -20 -110z"/>
<path d="M3982 10578 c80 -212 81 -217 64 -243 -9 -14 -23 -25 -31 -25 -8 0
-15 -7 -15 -15 0 -21 43 -19 64 4 9 10 39 79 66 152 40 110 46 135 33 137 -22
5 -28 -4 -53 -83 -13 -38 -25 -74 -28 -79 -3 -6 -17 28 -32 75 -22 72 -29 84
-49 87 -17 3 -22 0 -19 -10z"/>
<path d="M5210 10480 c0 -91 3 -110 15 -110 12 0 15 19 15 110 0 91 -3 110
-15 110 -12 0 -15 -19 -15 -110z"/>
<path d="M7273 10573 c2 -10 20 -61 39 -113 38 -102 37 -137 -2 -147 -29 -8
-25 -33 5 -33 36 0 49 24 125 233 l29 77 -23 0 c-20 0 -26 -10 -46 -77 -12
-43 -25 -81 -29 -85 -4 -5 -19 30 -35 77 -22 70 -31 85 -48 85 -15 0 -19 -5
-15 -17z"/>
<path d="M7640 10578 c0 -7 13 -56 28 -108 23 -78 32 -96 49 -98 18 -3 23 6
38 70 10 40 21 77 25 81 3 4 15 -29 25 -73 16 -70 21 -80 40 -80 18 0 25 9 34
43 6 23 19 72 30 110 19 64 19 67 1 67 -14 0 -22 -15 -35 -67 -27 -102 -30
-103 -52 -17 -16 66 -23 80 -40 82 -18 3 -24 -4 -32 -37 -6 -23 -16 -60 -23
-83 l-11 -43 -21 83 c-16 65 -24 82 -38 82 -10 0 -18 -6 -18 -12z"/>
<path d="M7960 10480 c0 -103 1 -110 20 -110 19 0 20 7 20 110 0 103 -1 110
-20 110 -19 0 -20 -7 -20 -110z"/>
<path d="M1672 10508 c-7 -7 -12 -21 -12 -33 0 -28 19 -45 50 -45 31 0 50 17
50 45 0 28 -19 45 -50 45 -14 0 -31 -5 -38 -12z"/>
<path d="M6370 10490 c0 -17 7 -20 50 -20 43 0 50 3 50 20 0 17 -7 20 -50 20
-43 0 -50 -3 -50 -20z"/>
<path d="M9760 10396 c0 -13 6 -26 13 -29 9 -3 9 -9 -1 -27 -16 -26 -9 -38 13
-20 9 8 15 29 15 56 0 37 -3 44 -20 44 -14 0 -20 -7 -20 -24z"/>
<path d="M3130 9936 c0 -149 1 -156 20 -156 11 0 20 4 20 10 0 5 13 2 29 -7
59 -35 122 23 124 114 1 80 -65 134 -123 101 l-29 -16 -3 51 c-2 40 -7 53 -20
55 -17 3 -18 -9 -18 -152z m137 21 c21 -16 26 -71 9 -110 -12 -31 -20 -37 -45
-37 -43 0 -61 23 -61 79 0 78 45 109 97 68z"/>
<path d="M3610 10065 c0 -20 4 -26 18 -23 9 2 17 12 17 23 0 11 -8 21 -17 23
-14 3 -18 -3 -18 -23z"/>
<path d="M4530 9935 c0 -126 3 -155 14 -155 10 0 15 20 18 80 4 88 17 113 63
113 38 0 45 -17 45 -110 0 -78 1 -83 21 -83 20 0 21 4 17 96 -3 86 -5 98 -27
115 -28 23 -69 24 -99 3 -22 -15 -22 -15 -22 40 0 43 -3 56 -15 56 -13 0 -15
-24 -15 -155z"/>
<path d="M5347 10084 c-4 -4 -7 -62 -7 -129 0 -127 -6 -145 -45 -145 -27 0
-45 18 -45 47 0 16 -6 23 -20 23 -27 0 -27 -49 -1 -81 27 -33 101 -34 133 -2
20 21 22 32 22 155 1 112 -1 133 -14 136 -9 1 -19 0 -23 -4z"/>
<path d="M5830 10035 c0 -56 0 -56 -22 -41 -44 31 -97 16 -123 -34 -50 -96 30
-219 115 -177 16 9 30 11 30 6 0 -5 9 -9 20 -9 20 0 20 5 18 152 -3 136 -5
153 -20 156 -15 3 -18 -5 -18 -53z m-25 -80 c48 -47 25 -145 -35 -145 -37 0
-60 32 -60 85 0 42 14 69 40 78 26 9 30 8 55 -18z"/>
<path d="M7370 10035 c0 -59 -4 -63 -34 -40 -30 23 -65 18 -97 -14 -24 -25
-29 -37 -29 -81 0 -67 21 -105 64 -120 28 -9 40 -8 65 5 18 9 31 11 31 5 0 -5
7 -10 15 -10 13 0 15 24 15 155 0 131 -2 155 -15 155 -12 0 -15 -13 -15 -55z
m-22 -83 c18 -23 15 -107 -4 -126 -8 -9 -29 -16 -45 -16 -25 0 -33 6 -46 37
-36 87 41 171 95 105z"/>
<path d="M1967 10064 c-4 -4 -7 -20 -7 -36 0 -18 -5 -28 -15 -28 -8 0 -15 -7
-15 -15 0 -8 7 -15 15 -15 12 0 15 -16 15 -83 0 -51 5 -88 12 -95 17 -17 58
-15 58 3 0 8 -7 15 -15 15 -12 0 -15 16 -15 80 0 64 3 80 15 80 8 0 15 7 15
15 0 8 -6 15 -14 15 -9 0 -16 12 -18 32 -3 31 -17 45 -31 32z"/>
<path d="M4420 10040 c0 -18 -6 -33 -15 -36 -19 -8 -20 -34 0 -34 11 0 15 -19
17 -92 l3 -93 33 -3 c36 -4 47 22 12 31 -18 5 -20 14 -20 81 0 69 2 76 20 76
11 0 20 6 20 14 0 7 -9 16 -20 19 -15 4 -20 14 -20 36 0 21 -5 31 -15 31 -10
0 -15 -10 -15 -30z"/>
<path d="M8977 10063 c-4 -3 -7 -19 -7 -35 0 -18 -5 -28 -15 -28 -8 0 -15 -7
-15 -15 0 -8 7 -15 15 -15 12 0 15 -15 15 -76 0 -91 10 -114 50 -114 34 0 42
25 10 33 -18 5 -20 14 -20 81 0 69 2 76 20 76 11 0 20 7 20 15 0 8 -9 15 -20
15 -16 0 -20 7 -20 35 0 33 -16 46 -33 28z"/>
<path d="M9567 10064 c-4 -4 -7 -20 -7 -36 0 -18 -5 -28 -15 -28 -8 0 -15 -7
-15 -15 0 -8 7 -15 15 -15 12 0 15 -16 15 -83 0 -51 5 -88 12 -95 17 -17 58
-15 58 3 0 8 -7 15 -15 15 -12 0 -15 16 -15 80 0 64 3 80 15 80 8 0 15 7 15
15 0 8 -6 15 -14 15 -9 0 -16 12 -18 32 -3 31 -17 45 -31 32z"/>
<path d="M2370 9990 c-16 -16 -20 -17 -20 -5 0 8 -9 15 -20 15 -19 0 -20 -7
-20 -110 0 -103 1 -110 20 -110 18 0 20 7 20 75 0 62 4 79 20 95 11 11 27 20
35 20 8 0 15 9 15 20 0 11 -7 20 -15 20 -8 0 -24 -9 -35 -20z"/>
<path d="M2512 9994 c-12 -8 -22 -10 -22 -5 0 6 -9 11 -20 11 -19 0 -20 -7
-20 -110 0 -103 1 -110 20 -110 18 0 20 7 20 74 0 41 3 82 6 91 9 24 51 37 75
25 17 -9 19 -22 19 -100 0 -83 1 -90 20 -90 19 0 20 7 20 93 0 98 -3 108 -37
126 -30 15 -54 14 -81 -5z"/>
<path d="M2705 9985 c-48 -47 -28 -84 60 -110 41 -12 55 -20 55 -34 0 -36 -81
-44 -102 -11 -17 27 -48 27 -41 1 9 -35 40 -54 90 -54 38 0 50 5 70 27 43 50
23 86 -60 107 -54 13 -70 35 -42 55 26 19 42 17 65 -6 21 -21 50 -27 50 -10 0
25 -50 60 -85 60 -25 0 -44 -8 -60 -25z"/>
<path d="M3398 9981 c-30 -27 -33 -34 -33 -89 0 -50 4 -65 24 -86 31 -33 70
-41 114 -22 30 12 57 41 57 60 0 15 -37 4 -48 -14 -25 -41 -112 -15 -112 33 0
15 12 17 80 17 79 0 80 0 80 25 0 93 -94 137 -162 76z m110 -29 c25 -32 15
-42 -48 -42 -64 0 -66 1 -49 31 20 38 70 43 97 11z"/>
<path d="M3762 9994 c-12 -8 -22 -10 -22 -5 0 6 -9 11 -20 11 -19 0 -20 -7
-20 -110 0 -103 1 -110 20 -110 18 0 20 7 20 75 0 67 3 79 25 100 29 30 39 31
65 5 17 -17 20 -33 20 -100 0 -64 3 -80 15 -80 12 0 15 17 15 95 0 82 -3 98
-20 115 -24 24 -67 26 -98 4z"/>
<path d="M3959 9981 c-25 -25 -29 -37 -29 -84 0 -45 5 -61 25 -85 31 -38 68
-47 106 -28 29 14 29 14 23 -12 -4 -15 -11 -33 -17 -39 -13 -18 -72 -16 -87 2
-15 19 -40 20 -40 2 0 -50 112 -66 155 -22 24 23 25 29 25 155 0 109 -2 130
-15 130 -8 0 -15 -5 -15 -11 0 -7 -10 -5 -25 5 -37 24 -73 20 -106 -13z m112
-28 c17 -20 17 -106 0 -126 -17 -22 -59 -22 -83 0 -21 19 -25 100 -5 125 23
29 65 30 88 1z"/>
<path d="M4814 10000 c-48 -19 -74 -93 -55 -153 17 -51 44 -70 98 -70 38 0 50
5 70 27 12 15 23 31 23 37 0 17 -35 9 -48 -11 -18 -29 -76 -27 -96 2 -30 42
-22 48 64 48 l80 0 0 36 c0 68 -70 111 -136 84z m93 -61 c12 -24 12 -24 -48
-27 -34 -2 -63 -1 -66 2 -9 9 19 47 40 55 30 11 59 -1 74 -30z"/>
<path d="M5957 9999 c-9 -5 -24 -23 -32 -39 -50 -96 30 -219 115 -177 27 14
30 14 30 -2 0 -9 -7 -27 -16 -39 -18 -26 -81 -31 -90 -7 -8 19 -44 20 -44 1 0
-42 108 -62 149 -28 29 23 40 77 41 195 0 90 -1 97 -20 97 -11 0 -20 -5 -20
-11 0 -5 -10 -3 -22 5 -26 18 -65 20 -91 5z m88 -44 c48 -47 25 -145 -35 -145
-37 0 -60 32 -60 85 0 42 14 69 40 78 26 9 30 8 55 -18z"/>
<path d="M6202 9997 c-12 -7 -29 -23 -38 -35 -18 -26 -21 -111 -4 -142 15 -28
75 -53 109 -45 31 8 71 43 71 62 0 19 -24 16 -45 -7 -20 -22 -74 -27 -93 -8
-7 7 -12 22 -12 35 0 22 3 23 80 23 44 0 80 3 80 8 0 4 -5 24 -10 44 -19 66
-82 96 -138 65z m83 -42 c38 -37 31 -45 -35 -45 -43 0 -60 4 -60 13 0 25 32
53 63 56 4 1 19 -10 32 -24z"/>
<path d="M6765 9985 c-14 -13 -25 -29 -25 -35 0 -17 29 -11 50 10 11 11 27 20
36 20 27 0 54 -20 54 -39 0 -22 -19 -31 -66 -31 -65 0 -109 -75 -66 -112 29
-26 60 -31 94 -14 21 11 35 13 42 6 16 -16 56 -12 56 5 0 8 -4 15 -10 15 -6 0
-10 32 -10 75 0 67 -3 79 -25 100 -18 19 -35 25 -65 25 -30 0 -47 -6 -65 -25z
m115 -118 c0 -35 -32 -59 -71 -55 -24 2 -35 9 -37 22 -5 24 9 36 50 46 53 13
58 11 58 -13z"/>
<path d="M7042 9994 c-12 -8 -22 -10 -22 -5 0 6 -9 11 -20 11 -19 0 -20 -7
-20 -110 0 -103 1 -110 20 -110 18 0 20 7 20 74 0 41 3 82 6 91 9 24 51 37 75
25 17 -9 19 -22 19 -100 0 -83 1 -90 20 -90 19 0 20 7 20 93 0 98 -3 108 -37
126 -30 15 -54 14 -81 -5z"/>
<path d="M7733 10000 c-65 -26 -82 -145 -29 -198 37 -38 99 -37 132 1 13 16
24 35 24 43 0 22 -34 16 -45 -8 -14 -33 -68 -37 -89 -6 -25 35 -21 94 9 124
15 15 32 23 41 20 9 -3 19 -6 24 -6 5 0 12 -9 15 -20 7 -23 45 -27 45 -5 0 9
-11 27 -25 40 -25 26 -62 31 -102 15z"/>
<path d="M7941 9996 c-34 -19 -50 -54 -51 -108 0 -67 38 -110 99 -112 36 -1
47 4 72 32 49 55 37 157 -22 188 -34 17 -67 17 -98 0z m79 -26 c39 -21 47
-103 12 -142 -22 -25 -67 -23 -86 4 -19 27 -21 98 -3 120 20 26 49 33 77 18z"/>
<path d="M8192 9994 c-12 -8 -22 -10 -22 -5 0 6 -7 11 -15 11 -12 0 -15 -19
-15 -110 0 -87 3 -110 14 -110 10 0 15 20 18 81 3 70 6 83 27 100 28 23 35 23
55 3 12 -12 16 -36 16 -100 0 -65 3 -84 14 -84 10 0 15 20 18 81 3 70 6 84 26
99 23 19 50 17 64 -4 4 -6 8 -48 8 -93 0 -78 1 -83 21 -83 21 0 21 4 17 96 -4
86 -7 99 -27 115 -28 23 -59 24 -89 3 -20 -14 -24 -14 -44 0 -12 9 -32 16 -43
16 -11 0 -31 -7 -43 -16z"/>
<path d="M8552 9994 c-12 -8 -22 -10 -22 -5 0 6 -9 11 -20 11 -19 0 -20 -7
-20 -155 0 -148 1 -155 20 -155 18 0 20 7 20 55 l0 55 25 -16 c20 -13 30 -14
60 -4 76 25 94 158 28 210 -31 24 -61 26 -91 4z m75 -37 c21 -16 26 -71 9
-110 -12 -31 -20 -37 -45 -37 -43 0 -61 23 -61 79 0 78 45 109 97 68z"/>
<path d="M8771 9996 c-33 -18 -50 -53 -51 -104 0 -88 58 -137 135 -112 42 14
80 70 47 70 -9 0 -25 -9 -35 -20 -33 -38 -107 -17 -107 31 0 17 8 19 80 19 75
0 80 1 80 21 0 80 -82 132 -149 95z m97 -44 c25 -33 15 -42 -48 -42 -68 0 -78
14 -33 49 28 23 59 20 81 -7z"/>
<path d="M9132 9997 c-12 -7 -29 -23 -38 -35 -18 -26 -21 -111 -4 -142 15 -28
75 -53 109 -45 31 8 71 43 71 62 0 19 -24 16 -45 -7 -20 -22 -74 -27 -93 -8
-7 7 -12 22 -12 35 0 22 3 23 80 23 44 0 80 3 80 8 0 4 -5 24 -10 44 -19 66
-82 96 -138 65z m83 -42 c38 -37 31 -45 -35 -45 -43 0 -60 4 -60 13 0 25 32
53 63 56 4 1 19 -10 32 -24z"/>
<path d="M9700 9983 c-42 -38 -52 -110 -21 -159 46 -74 152 -61 179 21 26 80
-11 152 -84 162 -36 4 -46 1 -74 -24z m97 -18 c31 -22 40 -78 19 -121 -13 -29
-21 -34 -50 -34 -43 0 -66 29 -66 83 0 27 7 45 25 62 28 29 42 31 72 10z"/>
<path d="M10171 9997 c-14 -6 -29 -25 -34 -41 -12 -37 13 -63 79 -80 42 -10
49 -16 49 -37 0 -21 -5 -24 -42 -27 -34 -3 -44 1 -53 17 -13 26 -40 27 -40 3
0 -42 69 -70 126 -52 53 18 72 71 37 103 -10 8 -40 21 -66 28 -54 13 -70 35
-41 56 22 16 65 9 77 -13 10 -18 37 -18 37 0 0 22 -49 56 -79 56 -14 0 -37 -6
-50 -13z"/>
<path d="M10404 10000 c-48 -19 -74 -93 -55 -153 17 -51 44 -70 98 -70 38 0
50 5 70 27 12 15 23 31 23 37 0 17 -35 9 -48 -11 -18 -29 -76 -27 -96 2 -30
42 -22 48 64 48 l80 0 0 36 c0 68 -70 111 -136 84z m93 -61 c12 -24 12 -24
-48 -27 -34 -2 -63 -1 -66 2 -9 9 19 47 40 55 30 11 59 -1 74 -30z"/>
<path d="M10618 9981 c-30 -27 -33 -34 -33 -89 0 -50 4 -65 24 -86 31 -33 70
-41 114 -22 30 12 57 41 57 60 0 15 -37 4 -48 -14 -25 -41 -112 -15 -112 33 0
15 12 17 80 17 79 0 80 0 80 25 0 93 -94 137 -162 76z m110 -29 c25 -32 15
-42 -48 -42 -64 0 -66 1 -49 31 20 38 70 43 97 11z"/>
<path d="M2072 9905 c2 -73 7 -98 20 -112 23 -23 81 -22 108 2 18 16 20 16 20
2 0 -10 7 -17 15 -17 12 0 15 19 15 110 0 87 -3 110 -14 110 -10 0 -15 -21
-18 -79 -5 -88 -17 -111 -57 -111 -43 0 -51 17 -51 107 0 78 -1 83 -21 83 -20
0 -21 -4 -17 -95z"/>
<path d="M3610 9890 c0 -103 1 -110 20 -110 19 0 20 7 20 110 0 103 -1 110
-20 110 -19 0 -20 -7 -20 -110z"/>
<path d="M5450 9908 c0 -100 3 -109 38 -127 26 -14 87 0 96 22 2 7 5 4 5 -5 1
-11 9 -18 21 -18 19 0 20 7 20 110 0 103 -1 110 -20 110 -18 0 -20 -7 -20 -73
0 -86 -16 -117 -60 -117 -40 0 -50 23 -50 114 0 61 -3 76 -15 76 -12 0 -15
-17 -15 -92z"/>
<path d="M6407 9824 c-11 -11 -8 -44 3 -44 14 0 12 -38 -2 -43 -7 -2 -10 -8
-5 -13 14 -15 40 24 41 62 1 27 -3 39 -14 42 -9 1 -19 0 -23 -4z"/>
<path d="M2260 9346 c0 -149 1 -156 20 -156 18 0 20 7 20 74 0 41 3 82 6 91 9
24 51 37 75 25 17 -9 19 -22 19 -100 0 -83 1 -90 20 -90 19 0 20 7 20 94 0 73
-4 98 -16 110 -25 26 -65 31 -95 13 l-28 -15 -3 51 c-2 40 -7 53 -20 55 -17 3
-18 -9 -18 -152z"/>
<path d="M3900 9346 c0 -148 1 -156 20 -156 17 0 19 8 22 87 3 85 4 88 30 101
21 10 33 10 48 2 18 -10 20 -21 20 -100 0 -83 1 -90 20 -90 19 0 20 7 20 90 0
83 -2 93 -25 115 -28 28 -61 32 -92 10 -22 -15 -22 -15 -25 37 -2 41 -7 54
-20 56 -17 3 -18 -9 -18 -152z"/>
<path d="M4490 9345 c0 -131 2 -155 15 -155 8 0 15 4 15 9 0 5 13 3 29 -5 38
-19 75 -10 106 28 20 24 25 40 25 85 0 47 -4 59 -29 84 -33 33 -69 37 -106 13
l-25 -16 0 56 c0 43 -3 56 -15 56 -13 0 -15 -24 -15 -155z m138 22 c7 -5 12
-32 12 -62 0 -61 -22 -88 -67 -83 -39 4 -58 46 -47 101 13 59 57 78 102 44z"/>
<path d="M3340 9450 c0 -18 -6 -33 -15 -36 -19 -8 -20 -34 0 -34 11 0 15 -19
17 -92 l3 -93 33 -3 c36 -4 47 22 12 31 -18 5 -20 14 -20 81 0 69 2 76 20 76
11 0 20 6 20 14 0 7 -9 16 -20 19 -15 4 -20 14 -20 36 0 21 -5 31 -15 31 -10
0 -15 -10 -15 -30z"/>
<path d="M3790 9450 c0 -18 -6 -33 -15 -36 -19 -8 -20 -34 0 -34 11 0 15 -19
17 -92 l3 -93 33 -3 c36 -4 47 22 12 31 -18 5 -20 14 -20 81 0 69 2 76 20 76
11 0 20 6 20 14 0 7 -9 16 -20 19 -15 4 -20 14 -20 36 0 21 -5 31 -15 31 -10
0 -15 -10 -15 -30z"/>
<path d="M5190 9450 c0 -18 -6 -33 -15 -36 -19 -8 -20 -34 0 -34 11 0 15 -19
17 -92 l3 -93 33 -3 c36 -4 47 22 12 31 -18 5 -20 14 -20 81 0 69 2 76 20 76
11 0 20 6 20 14 0 7 -9 16 -20 19 -15 4 -20 14 -20 36 0 21 -5 31 -15 31 -10
0 -15 -10 -15 -30z"/>
<path d="M2538 9404 c-37 -20 -48 -43 -48 -103 0 -41 5 -56 28 -82 23 -26 36
-32 71 -32 58 0 91 33 99 98 11 102 -68 164 -150 119z m86 -35 c51 -40 27
-149 -33 -149 -50 0 -80 57 -61 115 18 56 51 68 94 34z"/>
<path d="M2893 9408 c-33 -16 -56 -73 -50 -121 11 -79 69 -122 127 -94 29 15
30 15 30 -7 0 -47 -70 -75 -104 -41 -17 17 -46 20 -46 5 0 -5 9 -19 20 -30 29
-29 100 -27 137 4 28 24 28 26 31 155 3 127 3 131 -17 131 -12 0 -21 -5 -21
-11 0 -5 -10 -3 -22 5 -26 18 -53 19 -85 4z m76 -28 c13 0 31 -50 31 -87 0
-44 -24 -73 -60 -73 -36 0 -51 20 -57 74 -5 38 -2 48 21 71 16 16 33 24 42 21
9 -3 19 -6 23 -6z"/>
<path d="M3118 9391 c-30 -27 -33 -34 -33 -89 0 -50 4 -65 24 -86 31 -33 70
-41 114 -22 30 12 57 41 57 60 0 15 -37 4 -48 -14 -25 -41 -112 -15 -112 33 0
15 12 17 80 17 79 0 80 0 80 25 0 93 -94 137 -162 76z m110 -29 c25 -32 15
-42 -48 -42 -64 0 -66 1 -49 31 20 38 70 43 97 11z"/>
<path d="M3465 9395 c-48 -47 -28 -84 60 -110 41 -12 55 -20 55 -34 0 -36 -81
-44 -102 -11 -17 27 -48 27 -41 1 9 -35 40 -54 90 -54 38 0 50 5 70 27 43 50
23 86 -60 107 -54 13 -70 35 -42 55 26 19 42 17 65 -6 21 -21 50 -27 50 -10 0
25 -50 60 -85 60 -25 0 -44 -8 -60 -25z"/>
<path d="M4182 9407 c-12 -7 -29 -23 -38 -35 -18 -26 -21 -111 -4 -142 15 -28
75 -53 109 -45 31 8 71 43 71 62 0 19 -24 16 -45 -7 -20 -22 -74 -27 -93 -8
-7 7 -12 22 -12 35 0 22 3 23 80 23 44 0 80 3 80 8 0 4 -5 24 -10 44 -19 66
-82 96 -138 65z m83 -42 c38 -37 31 -45 -35 -45 -43 0 -60 4 -60 13 0 25 32
53 63 56 4 1 19 -10 32 -24z"/>
<path d="M4771 9406 c-33 -18 -50 -53 -51 -104 0 -88 58 -137 135 -112 42 14
80 70 47 70 -9 0 -25 -9 -35 -20 -33 -38 -107 -17 -107 31 0 17 8 19 80 19 75
0 80 1 80 21 0 80 -82 132 -149 95z m97 -44 c25 -33 15 -42 -48 -42 -68 0 -78
14 -33 49 28 23 59 20 81 -7z"/>
<path d="M4986 9399 c-28 -22 -36 -69 -13 -87 7 -6 33 -16 59 -22 57 -15 76
-33 58 -55 -19 -22 -77 -19 -92 5 -11 17 -48 29 -48 15 0 -21 28 -56 53 -65
63 -22 130 12 130 65 0 35 -11 44 -75 65 -39 13 -54 22 -56 38 -2 16 3 23 21
27 26 7 67 -9 67 -25 0 -6 9 -10 20 -10 27 0 25 16 -5 45 -30 31 -82 33 -119
4z"/>
<path d="M5451 9407 c-29 -15 -48 -57 -26 -57 8 0 24 9 35 20 34 34 90 21 90
-22 0 -18 -8 -21 -83 -33 -73 -12 -88 -92 -23 -124 24 -11 34 -11 70 3 25 10
42 12 44 6 6 -16 52 -12 52 5 0 8 -4 15 -10 15 -6 0 -10 33 -10 79 0 74 -2 81
-26 100 -30 24 -77 27 -113 8z m99 -131 c0 -34 -25 -56 -65 -56 -25 0 -35 5
-40 21 -9 26 4 39 47 49 53 13 58 11 58 -14z"/>
<path d="M5712 9404 c-12 -8 -22 -10 -22 -5 0 6 -9 11 -20 11 -19 0 -20 -7
-20 -110 0 -103 1 -110 20 -110 18 0 20 7 20 75 0 67 3 79 25 100 29 30 39 31
65 5 17 -17 20 -33 20 -100 0 -64 3 -80 15 -80 12 0 15 17 15 95 0 82 -3 98
-20 115 -24 24 -67 26 -98 4z"/>
<path d="M5921 9407 c-14 -6 -29 -25 -34 -41 -12 -37 13 -63 79 -80 42 -10 49
-16 49 -37 0 -21 -5 -24 -42 -27 -34 -3 -44 1 -53 17 -13 26 -40 27 -40 3 0
-42 69 -70 126 -52 53 18 72 71 37 103 -10 8 -40 21 -66 28 -54 13 -70 35 -41
56 22 16 65 9 77 -13 10 -18 37 -18 37 0 0 22 -49 56 -79 56 -14 0 -37 -6 -50
-13z"/>
<path d="M6438 9391 c-30 -27 -33 -34 -33 -89 0 -50 4 -65 24 -86 31 -33 70
-41 114 -22 30 12 57 41 57 60 0 15 -37 4 -48 -14 -25 -41 -112 -15 -112 33 0
15 12 17 80 17 79 0 80 0 80 25 0 93 -94 137 -162 76z m110 -29 c25 -32 15
-42 -48 -42 -64 0 -66 1 -49 31 20 38 70 43 97 11z"/>
<path d="M6710 9400 c-16 -16 -20 -17 -20 -5 0 8 -9 15 -20 15 -19 0 -20 -7
-20 -110 0 -103 1 -110 20 -110 18 0 20 7 20 75 0 62 4 79 20 95 11 11 27 20
35 20 8 0 15 9 15 20 0 11 -7 20 -15 20 -8 0 -24 -9 -35 -20z"/>
<path d="M6821 9407 c-14 -6 -29 -25 -34 -41 -12 -37 13 -63 79 -80 42 -10 49
-16 49 -37 0 -21 -5 -24 -42 -27 -34 -3 -44 1 -53 17 -13 26 -40 27 -40 3 0
-42 69 -70 126 -52 53 18 72 71 37 103 -10 8 -40 21 -66 28 -54 13 -70 35 -41
56 22 16 65 9 77 -13 10 -18 37 -18 37 0 0 22 -49 56 -79 56 -14 0 -37 -6 -50
-13z"/>
<path d="M1951 9343 c11 -37 25 -87 31 -110 10 -34 17 -43 33 -43 19 0 24 11
40 80 10 44 22 77 25 73 4 -4 15 -41 25 -81 15 -64 20 -73 38 -70 17 2 26 22
52 111 30 99 31 107 14 107 -14 0 -22 -14 -34 -57 -9 -32 -20 -69 -24 -83 -9
-27 -7 -31 -42 101 -8 33 -14 40 -32 37 -18 -2 -24 -16 -41 -83 -11 -44 -22
-73 -24 -65 -3 8 -13 44 -22 80 -13 52 -20 66 -38 68 l-21 3 20 -68z"/>
<path d="M6101 9343 c11 -37 25 -87 31 -110 10 -34 17 -43 33 -43 19 0 24 11
40 80 10 44 22 77 25 73 4 -4 15 -41 25 -81 15 -64 20 -73 38 -70 17 2 26 22
52 111 30 99 31 107 14 107 -14 0 -22 -14 -34 -57 -9 -32 -20 -69 -24 -83 -9
-27 -7 -31 -42 101 -8 33 -14 40 -32 37 -18 -2 -24 -16 -41 -83 -11 -44 -22
-73 -24 -65 -3 8 -13 44 -22 80 -13 52 -20 66 -38 68 l-21 3 20 -68z"/>
<path d="M7017 9234 c-4 -4 -7 -16 -7 -26 0 -13 7 -18 26 -18 21 0 25 4 22 22
-3 23 -27 35 -41 22z"/>
<path d="M2135 3083 c-60 -15 -160 -54 -199 -77 -71 -41 -155 -160 -156 -220
0 -15 -5 -17 -27 -11 -16 4 -52 11 -82 16 -184 30 -357 -129 -369 -340 -5 -91
8 -143 51 -208 l32 -48 -50 -30 c-59 -36 -110 -100 -126 -158 -25 -92 36 -222
124 -266 92 -46 255 -22 384 56 31 18 57 32 58 31 2 -2 12 -22 24 -45 37 -74
118 -113 235 -113 103 0 172 23 222 74 22 22 46 50 51 60 10 18 14 17 58 -22
70 -62 140 -85 255 -86 72 -1 108 4 149 19 67 25 146 94 161 141 9 27 16 34
29 28 159 -70 277 -59 385 36 103 91 106 263 7 370 -19 19 -28 36 -22 38 30
10 71 57 87 97 22 58 14 120 -27 202 -46 96 -124 143 -235 143 -52 0 -54 1
-54 28 0 15 -12 52 -26 81 -63 125 -235 184 -399 136 -46 -13 -69 -28 -110
-70 l-52 -53 -16 34 c-25 51 -80 107 -134 134 -37 19 -66 25 -128 27 -44 1
-89 -1 -100 -4z m200 -39 c56 -20 112 -72 153 -143 l28 -51 31 44 c82 116 293
139 429 45 52 -36 94 -114 94 -177 0 -36 3 -43 16 -38 106 41 231 -9 284 -114
56 -111 49 -180 -25 -249 l-45 -41 35 -45 c82 -108 73 -241 -23 -327 -57 -51
-102 -68 -183 -68 -59 0 -77 5 -142 38 l-74 38 -12 -57 c-9 -47 -19 -64 -54
-96 -63 -59 -123 -78 -238 -78 -89 0 -99 2 -170 37 -41 20 -85 48 -98 62 l-23
25 -50 -54 c-64 -71 -117 -89 -237 -83 -136 7 -200 53 -217 156 -4 23 -8 42
-10 42 -3 0 -28 -19 -57 -43 -57 -47 -124 -79 -213 -102 -137 -36 -230 1 -280
110 -46 98 -21 185 75 261 31 24 62 44 69 44 8 0 12 3 10 8 -1 4 -16 34 -33
67 -27 54 -30 69 -30 155 0 81 4 103 26 150 33 71 79 123 138 158 40 24 56 27
126 26 58 0 93 -6 127 -21 51 -23 58 -19 58 36 0 41 56 145 96 180 44 39 101
69 189 97 83 27 164 30 230 8z"/>
<path d="M2301 2728 c-15 -35 -33 -78 -41 -97 -8 -19 -16 -29 -18 -23 -2 7
-19 12 -38 12 -26 0 -32 3 -28 15 4 8 3 37 -1 63 -7 41 -9 44 -16 22 -7 -23
-7 -23 -8 8 -1 27 -5 32 -26 32 -29 0 -31 -15 -12 -125 12 -69 13 -70 42 -68
26 2 27 1 10 -7 -16 -8 -13 -9 15 -5 94 13 125 19 130 24 11 14 75 31 78 21 5
-14 49 -12 55 3 4 9 6 9 6 -1 1 -7 -9 -17 -21 -22 l-23 -9 22 0 c12 -1 25 4
28 9 3 6 18 10 33 9 l27 -1 -25 -8 -25 -8 26 -1 c28 -1 40 20 38 69 -1 23 -2
23 -9 -5 l-8 -30 -1 33 c0 17 2 32 7 32 4 0 25 -22 47 -50 42 -53 50 -58 59
-37 3 6 3 1 0 -12 -4 -15 -2 -21 4 -17 6 3 13 30 16 59 16 127 16 133 7 112
-8 -17 -10 -15 -10 13 -1 27 -5 32 -26 32 -21 0 -25 -5 -25 -27 0 -56 -15 -58
-55 -9 -20 25 -43 46 -50 46 -9 0 -15 -26 -20 -82 -7 -79 -8 -81 -22 -55 -8
15 -18 25 -23 22 -6 -3 -7 1 -4 9 7 20 -14 58 -28 50 -6 -4 -8 -3 -5 4 9 13
-2 44 -13 37 -4 -3 -10 2 -14 10 -11 29 -27 15 -55 -47z m59 -60 c0 -5 -7 -8
-15 -8 -15 0 -20 21 -8 33 7 7 23 -11 23 -25z m-193 -15 c-3 -10 -5 -4 -5 12
0 17 2 24 5 18 2 -7 2 -21 0 -30z m470 -20 c-3 -10 -5 -2 -5 17 0 19 2 27 5
18 2 -10 2 -26 0 -35z m-392 -53 c-3 -5 -16 -10 -28 -9 -20 1 -20 2 3 9 14 4
26 8 28 9 2 1 0 -3 -3 -9z m52 4 c-3 -3 -12 -4 -19 -1 -8 3 -5 6 6 6 11 1 17
-2 13 -5z"/>
<path d="M1971 2730 c-13 -3 -34 -18 -45 -33 -19 -26 -19 -30 -5 -55 11 -21
24 -28 54 -31 32 -3 36 -5 20 -11 -20 -9 -20 -9 1 -9 11 -1 26 5 33 12 11 10
13 9 9 -3 -3 -9 -18 -15 -39 -16 -56 -2 -59 -3 -59 -19 0 -16 27 -30 78 -41
21 -4 24 -3 12 5 -13 9 -13 11 1 11 20 0 55 38 62 68 3 13 3 21 0 18 -3 -3
-12 2 -19 12 -9 12 -26 17 -61 17 -36 0 -48 4 -48 15 0 11 11 15 42 15 23 0
48 6 55 14 7 8 8 11 2 8 -7 -4 -14 -1 -17 7 -6 16 -43 24 -76 16z"/>
<path d="M2711 2724 c-13 -9 -30 -32 -38 -51 -28 -69 18 -131 99 -134 l33 -2
-35 -7 -35 -7 38 -2 c50 -1 103 46 93 84 -3 13 -2 27 4 30 5 3 10 11 10 18 0
6 -6 2 -14 -9 -8 -11 -18 -15 -23 -10 -4 5 -2 11 5 13 22 8 13 41 -19 67 -35
30 -83 34 -118 10z m102 -56 c24 -24 21 -30 -12 -23 -35 8 -52 -20 -24 -41 17
-12 17 -13 1 -19 -30 -12 -57 12 -55 48 2 17 6 37 10 43 10 17 61 12 80 -8z
m37 -91 c0 -2 -10 -12 -22 -23 l-23 -19 19 23 c18 21 26 27 26 19z"/>
<path d="M2735 2669 c-11 -17 1 -21 15 -4 8 9 8 15 2 15 -6 0 -14 -5 -17 -11z"/>
<path d="M2050 2680 c-13 -8 -13 -10 2 -10 9 0 20 5 23 10 8 13 -5 13 -25 0z"/>
<path d="M1970 2669 c0 -5 5 -7 10 -4 6 3 10 8 10 11 0 2 -4 4 -10 4 -5 0 -10
-5 -10 -11z"/>
<path d="M2101 2597 c-1 -10 -13 -30 -28 -44 -16 -14 -22 -24 -14 -21 22 6 54
54 48 69 -4 10 -6 8 -6 -4z"/>
<path d="M2120 2436 c0 -17 24 -38 33 -29 4 3 7 -19 7 -50 0 -31 4 -57 9 -57
5 0 16 -3 25 -6 13 -5 16 3 16 50 0 43 3 56 15 56 16 0 19 9 9 34 -8 21 -114
23 -114 2z m77 -78 c-2 -13 -4 -5 -4 17 -1 22 1 32 4 23 2 -10 2 -28 0 -40z
m0 -50 c-3 -8 -6 -5 -6 6 -1 11 2 17 5 13 3 -3 4 -12 1 -19z"/>
<path d="M2250 2375 c0 -41 4 -75 9 -75 5 0 16 -3 24 -6 17 -6 30 53 13 60 -6
2 -1 5 12 5 18 1 22 -4 22 -29 0 -19 5 -30 15 -31 25 -2 93 -1 118 1 21 2 21
2 -3 10 l-25 8 27 1 c15 1 29 -3 32 -8 10 -16 56 -20 56 -5 0 8 -5 14 -11 14
-5 0 -8 4 -4 9 8 14 -16 61 -28 54 -6 -3 -7 -1 -4 5 9 13 -2 44 -13 37 -4 -3
-11 3 -14 12 -9 22 -21 9 -56 -63 l-28 -59 -3 60 -3 60 -6 -70 -6 -70 -2 78
c-2 69 -4 78 -19 75 -11 -2 -19 -14 -21 -31 -2 -19 -9 -27 -22 -27 -13 0 -17
5 -14 15 7 18 -12 45 -32 45 -11 0 -14 -18 -14 -75z"/>
<path d="M2545 2440 c-8 -13 14 -42 26 -34 5 3 9 -19 9 -49 0 -51 2 -55 26
-60 25 -5 26 -4 22 52 -3 55 -2 57 20 53 16 -3 22 0 22 14 0 16 -2 17 -10 4
-8 -12 -10 -11 -10 8 0 20 -5 22 -49 22 -28 0 -53 -5 -56 -10z"/>
<path d="M1843 2245 c-3 -9 2 -22 13 -30 18 -13 18 -15 -5 -80 -20 -56 -21
-69 -10 -76 20 -13 27 -11 38 9 6 9 10 13 11 7 0 -21 -18 -38 -35 -32 -9 4
-14 3 -10 -3 3 -6 15 -10 25 -10 14 0 24 16 40 65 21 64 31 73 59 56 11 -7 12
-17 2 -54 -18 -74 -15 -90 14 -85 28 6 35 -8 8 -15 -14 -4 -13 -5 4 -6 16 -1
23 6 28 29 4 16 14 34 23 40 14 8 13 9 -7 10 -13 0 -22 3 -18 6 3 4 17 4 31 0
22 -5 24 -10 19 -46 -4 -27 -2 -40 6 -40 7 0 10 -4 6 -9 -5 -9 33 -27 39 -19
4 4 46 175 46 185 0 4 -5 1 -11 -7 -8 -12 -9 -10 -7 10 2 21 -1 25 -22 25 -17
0 -26 -7 -30 -25 -6 -26 -29 -36 -58 -25 -16 6 -16 7 1 16 9 6 17 15 17 22 0
8 -4 6 -11 -3 -9 -12 -10 -11 -6 8 7 28 -26 50 -49 31 -11 -9 -14 -8 -14 3 0
9 -23 24 -59 37 -69 25 -70 25 -78 6z m137 -71 c0 -3 -13 -3 -29 -2 -16 1 -28
5 -26 9 5 6 55 0 55 -7z m-79 -71 c-12 -20 -14 -14 -5 12 4 9 9 14 11 11 3 -2
0 -13 -6 -23z m246 -5 c-3 -8 -6 -5 -6 6 -1 11 2 17 5 13 3 -3 4 -12 1 -19z
m-10 -50 c-3 -7 -5 -2 -5 12 0 14 2 19 5 13 2 -7 2 -19 0 -25z m-120 -10 c-3
-8 -6 -5 -6 6 -1 11 2 17 5 13 3 -3 4 -12 1 -19z m110 -30 c-3 -8 -6 -5 -6 6
-1 11 2 17 5 13 3 -3 4 -12 1 -19z"/>
<path d="M2878 2253 c-24 -6 -23 -18 7 -80 26 -57 35 -62 59 -37 15 14 16 14
17 -3 0 -11 3 -13 6 -5 7 19 -29 112 -44 112 -7 0 -13 5 -13 10 0 10 -3 11
-32 3z"/>
<path d="M2780 2208 c0 -6 8 -35 17 -65 18 -56 42 -70 62 -35 9 15 10 15 11
-5 0 -13 -6 -23 -14 -23 -18 0 -37 -23 -28 -36 19 -28 72 -22 72 9 0 6 -6 3
-13 -7 -12 -16 -13 -13 -10 25 3 51 -20 135 -36 132 -6 -2 -11 2 -11 7 0 6
-11 10 -25 10 -14 0 -25 -5 -25 -12z m77 -70 c-3 -8 -6 -5 -6 6 -1 11 2 17 5
13 3 -3 4 -12 1 -19z"/>
<path d="M2650 2183 c-55 -20 -80 -80 -56 -136 17 -42 47 -61 96 -59 27 1 32
-1 20 -9 -11 -8 -9 -9 10 -4 40 10 80 60 79 98 l-1 32 -8 -30 -8 -30 -2 35
c-2 19 -2 44 -2 55 2 16 0 17 -8 5 -8 -13 -10 -13 -10 2 0 31 -68 56 -110 41z
m15 -53 c-8 -13 8 -13 21 0 8 8 20 7 40 -1 30 -12 29 -13 -18 -23 -20 -5 -25
-11 -21 -25 3 -11 15 -22 27 -24 20 -3 20 -4 -5 -16 -21 -10 -31 -10 -49 -1
-12 6 -20 17 -17 23 2 7 7 23 11 37 l7 25 -15 -25 c-9 -14 -15 -20 -16 -15 0
12 28 55 36 55 3 0 2 -4 -1 -10z m101 -118 c-17 -16 -18 -16 -5 5 7 12 15 20
18 17 3 -2 -3 -12 -13 -22z"/>
<path d="M2204 2073 c-27 -48 -50 -91 -52 -95 -5 -12 46 -10 53 2 10 15 71 12
85 -5 7 -8 27 -16 44 -16 l31 -1 -30 -8 -30 -8 27 -1 c15 0 29 3 32 8 6 9 -54
184 -61 178 -2 -3 1 -17 7 -32 6 -15 9 -30 6 -32 -2 -2 -12 18 -21 46 -9 28
-22 51 -29 51 -7 0 -35 -39 -62 -87z m66 -29 c0 -8 -7 -14 -15 -14 -17 0 -18
2 -9 24 7 18 24 12 24 -10z"/>
<path d="M2498 2114 l-3 -46 -47 41 c-25 23 -51 41 -57 41 -12 0 -15 -91 -5
-152 5 -31 11 -38 30 -38 16 0 24 7 27 23 l4 22 2 -23 c1 -15 -7 -26 -21 -32
-22 -8 -22 -9 5 -9 25 -1 27 2 27 38 0 22 -4 43 -10 46 -5 3 -10 11 -10 16 0
6 22 -9 50 -32 29 -24 55 -39 64 -36 11 4 13 1 9 -11 -4 -11 -3 -14 4 -7 7 6
8 44 4 100 l-6 90 -6 -60 -6 -60 -1 68 c-2 64 -3 67 -26 67 -22 0 -25 -5 -28
-46z"/>
<path d="M2933 2113 c-14 -5 -18 -42 -5 -44 41 -7 57 -2 59 16 l3 20 -9 -20
c-8 -19 -9 -19 -12 4 -4 25 -15 33 -36 24z"/>
<path d="M2205 1970 c-3 -5 -16 -11 -28 -11 -19 -1 -19 -2 -3 -6 10 -3 28 0
40 6 11 5 32 12 46 14 18 3 14 5 -12 6 -20 0 -40 -3 -43 -9z"/>
<path d="M1580 1617 c-49 -38 -61 -89 -33 -138 26 -43 77 -64 123 -50 53 16
75 44 75 96 0 35 -6 50 -29 74 -25 26 -37 31 -75 31 -25 0 -53 -6 -61 -13z
m107 -39 c48 -45 18 -128 -46 -128 -34 0 -81 48 -81 84 0 62 78 90 127 44z"/>
<path d="M1420 1330 c-45 -45 -4 -130 62 -130 44 0 82 43 74 83 -3 17 -14 39
-23 49 -23 25 -87 24 -113 -2z m94 -16 c36 -35 7 -98 -42 -92 -64 7 -66 108
-3 108 16 0 37 -7 45 -16z"/>
</g>
</svg>
