<?xml version="1.0" standalone="no"?>
<!DOCTYPE svg PUBLIC "-//W3C//DTD SVG 20010904//EN"
 "http://www.w3.org/TR/2001/REC-SVG-20010904/DTD/svg10.dtd">
<svg version="1.0" xmlns="http://www.w3.org/2000/svg"
 width="847.000000pt" height="738.000000pt" viewBox="0 0 847.000000 738.000000"
 preserveAspectRatio="xMidYMid meet">

<g transform="translate(0.000000,738.000000) scale(0.100000,-0.100000)"
fill="#000000" stroke="none">
<path d="M3716 7305 c-194 -32 -583 -153 -736 -230 -386 -194 -656 -532 -731
-915 -7 -36 -14 -66 -14 -68 -1 -1 -28 7 -61 19 -96 33 -261 67 -382 79 -261
24 -524 -38 -732 -175 -96 -64 -245 -207 -325 -314 -122 -162 -227 -399 -273
-616 -33 -155 -37 -402 -9 -533 47 -213 125 -373 271 -551 44 -55 56 -76 46
-79 -8 -3 -62 -29 -120 -58 -234 -118 -411 -292 -505 -498 -97 -212 -85 -470
34 -720 134 -278 279 -410 526 -474 123 -32 252 -45 373 -37 369 24 692 137
1021 359 l139 93 16 -61 c10 -33 33 -90 52 -126 122 -232 345 -379 644 -425
112 -18 380 -20 517 -4 339 38 585 201 768 509 21 36 40 67 41 69 2 2 41 -37
87 -85 148 -156 330 -269 552 -342 162 -54 263 -73 430 -79 489 -19 941 163
1144 460 45 66 96 180 112 250 8 31 16 56 19 55 3 -2 53 -26 110 -55 576 -284
1103 -195 1495 254 135 154 186 282 210 523 8 79 -7 227 -35 335 -45 175 -170
377 -304 487 -34 28 -62 54 -64 57 -1 4 17 16 40 28 68 33 166 111 219 175
164 197 201 470 103 757 -35 102 -124 280 -178 355 -121 169 -317 300 -526
352 -79 20 -331 27 -416 12 l-41 -8 -7 68 c-33 342 -239 639 -551 795 -197 98
-412 150 -620 149 -467 0 -829 -183 -1001 -506 l-33 -61 -16 40 c-67 164 -158
304 -268 417 -156 158 -328 256 -541 309 -109 27 -355 34 -480 14z m503 -135
c204 -50 408 -181 544 -350 97 -121 214 -316 227 -380 9 -43 40 -31 70 26 41
79 94 146 179 226 128 120 260 185 476 236 99 23 131 26 310 26 190 1 206 0
310 -28 413 -109 654 -327 740 -670 20 -78 25 -124 25 -218 0 -109 2 -119 18
-114 70 22 223 48 302 53 440 25 785 -254 920 -747 31 -110 33 -275 6 -365
-31 -103 -85 -195 -161 -270 -66 -66 -200 -165 -224 -165 -23 0 -9 -24 50 -88
134 -145 217 -288 261 -448 29 -106 32 -372 5 -477 -32 -127 -72 -207 -150
-297 -242 -282 -520 -405 -853 -379 -224 17 -493 121 -688 265 -47 35 -91 64
-96 64 -6 0 -10 -45 -10 -113 0 -198 -48 -328 -168 -458 -185 -199 -481 -323
-841 -350 -424 -33 -814 110 -1123 409 -42 41 -81 71 -87 68 -6 -4 -32 -35
-58 -69 -179 -237 -334 -351 -560 -415 -96 -26 -104 -27 -368 -27 -322 1 -397
13 -554 92 -232 116 -350 319 -351 606 0 48 -2 87 -5 87 -3 0 -49 -39 -103
-86 -143 -126 -261 -213 -401 -293 -442 -253 -982 -318 -1291 -155 -89 47
-167 128 -244 256 -177 295 -191 561 -44 813 84 143 315 341 526 450 28 15 52
32 52 38 0 5 -27 52 -60 103 -223 349 -274 671 -166 1065 125 459 406 785 771
895 78 23 113 27 255 31 141 4 180 2 270 -17 134 -27 257 -68 359 -120 94 -47
83 -58 101 109 24 216 105 432 221 586 114 151 305 304 492 394 175 84 520
192 702 221 95 14 317 4 414 -20z"/>
<path d="M4044 6104 c-12 -5 -26 -36 -194 -434 -73 -173 -90 -221 -85 -247 3
-17 1 -34 -4 -37 -5 -4 -83 -18 -173 -32 -164 -25 -192 -34 -171 -55 8 -8 36
-7 105 5 223 37 289 46 352 46 58 0 70 3 91 25 14 13 25 29 25 34 0 20 43 33
123 37 105 7 118 11 93 29 -15 11 -41 13 -115 9 -98 -6 -131 -15 -131 -38 0
-29 -45 -56 -93 -56 -54 0 -67 24 -14 27 56 4 71 12 99 53 l28 40 117 0 118 0
36 -40 c35 -38 40 -40 96 -40 115 0 117 -15 -62 341 -86 173 -162 320 -167
327 -10 12 -51 15 -74 6z m80 -360 c18 -38 24 -60 17 -67 -9 -9 -99 -12 -108
-3 -8 8 40 126 51 126 7 0 24 -25 40 -56z"/>
<path d="M4071 5729 c-14 -39 9 -56 28 -20 8 14 7 22 -4 31 -12 10 -16 8 -24
-11z"/>
<path d="M4567 6097 c-11 -9 -23 -82 -47 -292 -17 -153 -33 -281 -34 -283 -2
-2 -64 115 -137 259 -74 144 -140 264 -146 267 -29 9 -6 -49 118 -294 73 -142
136 -272 140 -288 13 -43 -4 -56 -70 -56 -60 0 -88 -11 -77 -29 4 -7 39 -11
86 -11 76 0 80 1 97 28 9 15 17 28 17 28 1 1 25 -2 54 -6 29 -5 60 -6 67 -3
19 7 30 54 45 191 7 62 16 114 20 117 3 2 60 -62 126 -142 181 -222 173 -213
204 -213 19 0 31 6 34 18 5 15 20 141 56 472 6 52 12 109 15 127 5 47 -12 61
-86 68 -62 7 -68 6 -83 -16 -9 -13 -16 -44 -17 -69 -1 -73 -23 -213 -34 -216
-5 -2 -27 18 -48 44 -177 219 -225 278 -238 288 -25 19 -47 23 -62 11z"/>
<path d="M3300 6026 c-76 -16 -76 6 0 -459 33 -201 45 -233 79 -222 10 3 91
16 181 30 100 15 169 30 178 39 11 10 12 27 7 65 -7 55 -28 86 -52 77 -34 -13
-194 -29 -202 -20 -8 7 -81 431 -81 465 0 13 -31 39 -43 38 -7 -1 -37 -7 -67
-13z"/>
<path d="M3440 5963 c0 -31 64 -390 71 -397 26 -28 27 18 4 174 -30 199 -37
224 -58 228 -9 2 -17 0 -17 -5z"/>
<path d="M5162 5954 c-5 -11 -13 -48 -16 -84 -14 -131 -37 -337 -47 -420 -9
-71 -15 -88 -35 -106 -23 -19 -24 -22 -9 -34 14 -12 21 -12 43 1 26 14 26 16
61 327 25 226 32 315 24 323 -8 8 -14 6 -21 -7z"/>
<path d="M5455 5936 c-106 -34 -169 -89 -216 -188 -30 -66 -34 -82 -34 -163 0
-71 4 -100 22 -137 47 -103 148 -175 278 -199 64 -12 145 1 206 32 94 48 195
238 147 277 -17 13 -231 72 -262 72 -29 0 -43 -21 -52 -80 -8 -49 9 -70 56
-70 14 0 35 -6 45 -14 16 -12 17 -16 6 -30 -7 -9 -31 -21 -52 -27 -89 -27
-201 43 -214 135 -15 96 45 211 121 236 74 25 171 -12 201 -74 18 -38 22 -41
102 -62 47 -13 57 -13 69 -1 12 12 11 23 -3 76 -19 67 -72 136 -134 176 -79
50 -203 67 -286 41z"/>
<path d="M2783 5910 c-68 -24 -103 -49 -138 -100 -53 -77 -43 -194 24 -261 52
-52 118 -66 230 -46 102 18 135 11 139 -27 4 -33 -11 -53 -56 -72 -45 -19 -92
-18 -121 2 -26 19 -75 15 -133 -9 -44 -18 -46 -31 -15 -78 48 -74 168 -106
283 -75 154 41 240 148 214 268 -27 128 -114 167 -299 137 -87 -15 -124 -1
-129 47 -6 64 86 101 158 64 38 -20 43 -20 94 -5 70 20 82 34 63 72 -49 92
-187 129 -314 83z"/>
<path d="M3110 5859 c0 -4 6 -22 14 -40 19 -45 6 -65 -43 -74 -46 -8 -73 -31
-47 -41 19 -7 104 12 123 28 23 19 15 66 -17 100 -16 18 -30 30 -30 27z"/>
<path d="M5510 5749 c-57 -23 -100 -92 -100 -161 0 -48 12 -42 30 17 26 83 94
131 174 121 l51 -6 -24 20 c-25 22 -88 26 -131 9z"/>
<path d="M2833 5738 c-26 -13 -34 -30 -23 -49 7 -11 13 -9 33 9 13 12 28 22
33 22 6 0 19 7 30 15 18 13 17 14 -16 14 -19 0 -45 -5 -57 -11z"/>
<path d="M5911 5662 c-1 -64 -10 -69 -86 -47 -57 17 -83 15 -48 -3 30 -16 130
-35 147 -29 20 8 21 60 1 102 l-13 30 -1 -53z"/>
<path d="M4707 5632 c-3 -15 -9 -68 -13 -117 -9 -122 -11 -125 -84 -125 -45 0
-60 -4 -60 -14 0 -9 21 -17 68 -24 72 -10 88 -8 96 13 9 26 29 262 23 279 -10
25 -24 19 -30 -12z"/>
<path d="M3231 5539 c58 -152 -58 -288 -282 -327 l-44 -8 42 -7 c114 -19 259
56 313 163 33 65 21 167 -26 211 l-23 22 20 -54z"/>
<path d="M2870 5476 c-109 -13 -107 -27 4 -34 52 -3 82 0 111 12 31 13 36 19
25 26 -8 5 -22 9 -30 8 -8 0 -58 -6 -110 -12z"/>
<path d="M5857 5410 c-67 -139 -162 -196 -312 -187 -44 3 -99 12 -122 20 -51
17 -57 9 -10 -15 117 -61 280 -49 380 27 69 53 154 235 110 235 -4 0 -25 -36
-46 -80z"/>
<path d="M4418 4928 c-9 -7 -41 -67 -71 -133 -30 -66 -78 -169 -106 -229 -66
-141 -66 -146 3 -146 49 0 57 3 79 32 l25 31 93 -2 c91 -1 95 -2 119 -31 22
-27 31 -30 78 -30 46 0 52 2 52 21 0 12 -16 56 -36 98 -20 42 -50 108 -67 146
-64 143 -122 250 -137 253 -9 1 -23 -3 -32 -10z m62 -310 c0 -14 -8 -18 -35
-18 -46 0 -52 17 -24 72 l22 43 18 -40 c10 -22 19 -48 19 -57z"/>
<path d="M4427 4645 c-8 -19 13 -31 23 -14 9 14 4 29 -10 29 -4 0 -10 -7 -13
-15z"/>
<path d="M3244 4906 c-3 -13 -4 -37 -2 -52 3 -27 7 -29 55 -34 29 -3 57 -10
63 -16 5 -5 11 -88 12 -194 l3 -185 48 -3 c77 -5 77 -5 77 198 0 130 3 180 13
188 6 5 31 9 55 9 47 -2 62 11 62 55 0 59 4 58 -196 58 l-184 0 -6 -24z"/>
<path d="M3697 4924 c-9 -9 -9 -466 -1 -488 9 -23 119 -23 128 0 3 9 6 53 6
99 0 92 2 95 68 95 80 0 82 -3 82 -94 0 -107 8 -118 80 -114 l55 3 0 250 0
250 -59 3 c-71 4 -76 -2 -70 -77 3 -30 3 -65 0 -78 -6 -22 -11 -23 -81 -23
l-74 0 -3 88 -3 87 -60 3 c-34 2 -64 0 -68 -4z"/>
<path d="M4724 4916 c-3 -8 -4 -31 -2 -52 l3 -39 52 -5 c29 -3 57 -10 63 -16
5 -5 11 -88 12 -194 l3 -185 48 -3 c77 -5 77 -5 77 204 l0 184 24 6 c14 3 29
3 35 0 5 -3 21 -2 36 4 24 9 26 14 23 57 l-3 48 -183 3 c-150 2 -183 0 -188
-12z"/>
<path d="M4520 4881 c0 -5 43 -103 96 -216 52 -114 96 -219 97 -234 2 -25 0
-26 -56 -29 -79 -4 -71 -26 11 -30 53 -3 62 0 72 18 16 31 6 65 -65 213 -35
73 -79 167 -98 210 -20 42 -40 77 -46 77 -6 0 -11 -4 -11 -9z"/>
<path d="M3647 4873 c-4 -3 -7 -21 -7 -39 l0 -33 -57 -3 -58 -3 -6 -195 c-3
-107 -6 -196 -7 -197 -1 -1 -20 -3 -42 -5 -55 -4 -51 -22 6 -26 74 -5 74 -4
74 204 0 206 -7 190 80 196 35 3 35 3 38 56 3 48 -4 63 -21 45z"/>
<path d="M3845 4858 c-7 -33 -1 -83 10 -82 19 2 28 31 21 67 -8 42 -23 48 -31
15z"/>
<path d="M4140 4653 c0 -165 -3 -232 -12 -241 -7 -7 -29 -12 -51 -12 -59 0
-41 -24 21 -28 42 -3 53 0 62 17 16 30 9 483 -7 489 -10 3 -13 -47 -13 -225z"/>
<path d="M5126 4869 c-3 -8 -6 -25 -8 -39 -3 -23 -8 -25 -58 -30 l-55 -5 -3
-184 c-1 -110 -7 -190 -13 -197 -6 -7 -27 -14 -47 -16 -56 -5 -39 -23 20 -23
66 0 66 1 61 197 -4 186 -1 196 69 200 l53 3 3 44 c3 44 -12 79 -22 50z"/>
<path d="M3307 4794 c-14 -14 -6 -24 19 -24 16 0 24 5 22 13 -5 14 -31 21 -41
11z"/>
<path d="M4787 4794 c-14 -14 -7 -25 13 -22 12 2 21 8 21 13 0 12 -24 18 -34
9z"/>
<path d="M3852 4593 c-5 -10 -10 -54 -11 -98 -1 -44 -5 -83 -7 -87 -3 -4 -23
-8 -45 -8 -40 0 -52 -13 -23 -24 27 -10 93 -7 100 6 4 7 9 50 11 97 3 91 8
101 56 101 48 0 25 25 -26 28 -36 2 -48 -1 -55 -15z"/>
<path d="M4368 4462 c-9 -4 -26 -19 -38 -34 -18 -23 -29 -28 -67 -28 -62 0
-52 -24 12 -28 45 -3 51 0 81 32 32 35 35 36 103 36 66 0 94 12 54 23 -28 8
-126 7 -145 -1z"/>
<path d="M2386 4268 c-7 -13 -20 -40 -27 -61 -16 -45 -8 -55 63 -81 75 -28 75
-29 23 -173 -50 -137 -88 -238 -111 -291 -10 -23 -11 -39 -4 -52 10 -19 76
-48 120 -53 31 -3 43 21 111 208 71 199 89 243 104 255 9 8 27 5 66 -10 74
-30 94 -22 115 45 22 68 17 75 -84 111 -42 15 -90 33 -107 39 -59 25 -232 85
-243 85 -6 0 -18 -10 -26 -22z"/>
<path d="M5952 4247 c-59 -25 -70 -45 -49 -90 8 -18 35 -79 60 -137 79 -184
97 -221 110 -225 6 -3 39 5 72 18 58 22 60 25 59 58 -1 31 -98 308 -130 372
-18 34 -48 35 -122 4z"/>
<path d="M6122 4209 c3 -19 17 -65 31 -104 90 -241 96 -259 86 -276 -5 -10 -9
-20 -9 -23 0 -12 39 -5 53 9 16 15 18 8 -68 235 -54 142 -72 184 -84 188 -10
3 -12 -4 -9 -29z"/>
<path d="M5680 4149 c-30 -11 -60 -26 -66 -34 -9 -12 2 -54 52 -193 83 -228
83 -230 100 -236 20 -7 106 23 125 45 18 20 21 7 -51 254 -59 200 -59 200
-160 164z"/>
<path d="M5835 4118 c-4 -9 8 -62 25 -119 84 -279 82 -270 65 -289 -27 -29 19
-44 49 -15 13 13 13 21 -4 73 -10 31 -28 91 -40 132 -12 41 -26 86 -30 100 -4
14 -13 44 -20 68 -15 49 -37 73 -45 50z"/>
<path d="M2397 4093 c-12 -12 -7 -20 20 -32 32 -15 53 0 33 24 -13 15 -42 20
-53 8z"/>
<path d="M2909 4070 c-6 -16 -17 -30 -25 -30 -8 0 -22 -16 -30 -35 -19 -47
-34 -51 -104 -30 -32 10 -63 16 -70 13 -7 -2 -46 -94 -87 -203 -104 -283 -97
-269 -136 -260 -47 11 -82 11 -86 0 -5 -15 119 -60 137 -49 15 10 30 44 119
288 32 87 66 164 75 170 13 8 29 6 65 -7 61 -22 89 -22 103 1 10 15 10 15 6
-3 -32 -120 -87 -360 -103 -442 -5 -30 -3 -34 28 -47 19 -8 55 -17 81 -21 56
-9 55 -11 90 140 21 89 25 100 47 103 37 6 160 -28 170 -47 6 -10 0 -54 -16
-124 -24 -101 -25 -108 -9 -126 18 -20 116 -44 141 -35 17 7 12 -10 94 344 34
146 61 275 61 287 0 26 -46 44 -117 46 -52 2 -50 7 -78 -126 -10 -49 -22 -80
-32 -84 -23 -9 -152 18 -175 37 -19 15 -19 16 2 99 11 46 20 97 18 114 -3 28
-7 32 -58 43 -86 20 -100 18 -111 -16z"/>
<path d="M5189 4026 c-95 -25 -177 -93 -225 -186 -22 -44 -31 -182 -15 -244
17 -67 75 -160 123 -195 68 -50 147 -70 241 -60 100 10 171 44 231 110 60 66
80 130 73 225 -7 89 -19 114 -55 114 -55 0 -256 -49 -268 -65 -9 -12 -9 -28 0
-68 l12 -52 72 3 c78 3 86 -3 56 -46 -23 -34 -87 -62 -140 -62 -90 0 -143 45
-169 147 -34 131 43 233 175 233 23 0 49 -9 70 -25 38 -28 54 -30 122 -12 65
17 73 28 54 64 -53 103 -215 158 -357 119z"/>
<path d="M3091 3958 c-18 -55 -18 -103 -1 -103 17 0 46 95 37 119 -10 25 -25
18 -36 -16z"/>
<path d="M3811 3933 c-24 -20 -361 -606 -361 -627 0 -20 23 -26 94 -26 58 0
64 2 97 36 l34 36 99 -7 c131 -9 138 -11 156 -35 45 -63 53 -68 123 -75 57 -6
68 -4 73 10 6 13 -39 148 -125 380 -11 28 -31 84 -46 125 -52 146 -68 181 -86
190 -25 14 -34 13 -58 -7z m41 -353 c10 -30 16 -60 13 -67 -5 -15 -82 -18
-104 -4 -11 7 -7 21 19 70 18 34 38 60 43 58 6 -2 19 -28 29 -57z"/>
<path d="M3795 3559 c-8 -25 -1 -34 20 -26 19 8 20 47 1 47 -8 0 -18 -9 -21
-21z"/>
<path d="M4720 3942 c-84 -5 -84 -4 -76 -174 5 -106 3 -148 -5 -148 -11 0 -63
45 -246 208 -73 65 -99 82 -123 82 -18 0 -33 -6 -37 -15 -9 -26 28 -639 40
-654 15 -18 144 -11 158 9 6 9 7 73 3 163 -4 81 -4 147 0 147 9 0 96 -74 221
-186 115 -103 138 -118 171 -110 l26 7 -7 147 c-4 81 -11 190 -16 242 -4 52
-9 128 -9 168 0 75 -9 107 -32 113 -7 2 -38 3 -68 1z"/>
<path d="M5570 3918 c37 -61 24 -80 -62 -93 -45 -7 -68 -25 -30 -25 23 1 128
26 141 35 20 12 12 44 -20 80 -39 44 -55 46 -29 3z"/>
<path d="M3471 3865 c-5 -20 -28 -118 -51 -218 -61 -263 -80 -335 -95 -347
-10 -8 -24 -8 -54 1 -42 12 -75 7 -69 -12 6 -18 136 -48 152 -35 16 13 25 43
56 181 13 55 40 172 61 260 22 88 39 170 39 183 0 35 -28 26 -39 -13z"/>
<path d="M4852 3864 c-5 -11 -8 -32 -5 -49 2 -16 10 -147 17 -290 l14 -260
-21 -23 c-18 -19 -19 -25 -8 -32 8 -4 21 -6 30 -3 32 11 39 33 35 111 -32 553
-37 593 -62 546z"/>
<path d="M3950 3852 c0 -10 29 -99 66 -198 36 -98 84 -234 106 -301 51 -150
49 -154 -53 -146 -58 5 -69 3 -69 -9 0 -20 12 -25 91 -33 60 -6 65 -5 88 19
22 23 23 29 14 73 -9 38 -157 457 -204 575 -13 32 -39 45 -39 20z"/>
<path d="M5235 3850 c-47 -19 -95 -100 -95 -160 0 -32 22 -94 36 -103 5 -3 9
32 9 78 0 102 16 130 94 161 38 15 48 23 36 28 -22 8 -55 7 -80 -4z"/>
<path d="M6175 3783 c-34 -9 -63 -33 -75 -64 -26 -61 40 -131 106 -115 35 9
84 59 84 86 0 33 -26 75 -55 88 -27 13 -28 13 -60 5z"/>
<path d="M5640 3653 c0 -115 -15 -157 -81 -228 -50 -54 -118 -88 -214 -108
l-70 -14 40 -6 c112 -18 280 75 336 186 36 69 38 267 3 267 -11 0 -14 -19 -14
-97z"/>
<path d="M6306 3710 c5 -37 2 -50 -16 -73 -12 -15 -36 -34 -54 -42 l-31 -15
44 4 c84 8 127 95 73 149 l-22 22 6 -45z"/>
<path d="M5822 3654 c-12 -8 -29 -28 -37 -44 -14 -26 -14 -34 -1 -64 23 -56
77 -72 136 -41 56 29 66 85 24 134 -20 24 -34 31 -63 31 -20 0 -47 -7 -59 -16z"/>
<path d="M3028 3630 c-11 -7 -26 -49 -43 -124 -17 -73 -32 -117 -42 -120 -8
-3 -35 -1 -59 5 -30 8 -49 8 -55 2 -14 -14 7 -27 73 -45 44 -12 60 -13 72 -5
9 7 28 62 43 122 l28 110 45 2 c25 1 51 2 58 2 6 1 12 8 12 16 0 8 -17 19 -42
25 -24 6 -50 13 -58 15 -8 2 -23 0 -32 -5z"/>
<path d="M5987 3592 c7 -53 -14 -87 -70 -113 l-42 -19 49 4 c35 3 55 11 74 30
33 33 35 87 5 118 l-21 21 5 -41z"/>
<path d="M4459 3496 c-2 -3 -1 -60 3 -128 8 -142 6 -146 -68 -156 -34 -5 -49
-12 -49 -22 0 -12 13 -14 70 -12 38 2 75 8 82 14 10 8 12 39 7 127 -7 140 -22
200 -45 177z"/>
<path d="M3688 3321 c-7 -2 -28 -19 -45 -39 -32 -33 -34 -34 -87 -28 -37 5
-56 3 -61 -4 -13 -21 12 -32 78 -37 59 -5 67 -3 83 17 45 54 42 53 146 47 94
-5 123 2 101 24 -10 10 -193 27 -215 20z"/>
<path d="M1565 1800 c-108 -44 -185 -122 -226 -229 -17 -47 -20 -72 -17 -156
4 -85 8 -108 32 -154 38 -74 109 -141 191 -182 66 -32 75 -34 180 -34 103 0
114 2 177 32 167 79 251 235 219 407 -24 130 -111 250 -220 303 -50 25 -69 28
-171 31 -96 2 -123 -1 -165 -18z m237 -115 c66 -23 140 -93 169 -157 33 -74
33 -176 1 -238 -51 -97 -148 -161 -257 -168 -59 -4 -62 -3 -123 43 -113 85
-164 168 -165 270 -2 88 26 159 87 223 l51 54 95 -5 c52 -3 116 -13 142 -22z"/>
<path d="M972 749 c-59 -29 -126 -107 -143 -166 -72 -255 179 -465 421 -351
113 53 155 120 155 248 0 72 -4 93 -27 136 -32 62 -107 130 -157 144 -20 5
-74 10 -121 10 -66 0 -94 -5 -128 -21z m199 -74 c102 -36 166 -153 139 -254
-32 -118 -195 -201 -276 -139 -101 75 -137 134 -136 218 0 69 12 99 58 149 36
40 38 41 104 41 37 0 87 -7 111 -15z"/>
</g>
</svg>
