<?xml version="1.0" standalone="no"?>
<!DOCTYPE svg PUBLIC "-//W3C//DTD SVG 20010904//EN"
 "http://www.w3.org/TR/2001/REC-SVG-20010904/DTD/svg10.dtd">
<svg version="1.0" xmlns="http://www.w3.org/2000/svg"
 width="1284.000000pt" height="2778.000000pt" viewBox="0 0 1284.000000 2778.000000"
 preserveAspectRatio="xMidYMid meet">

<g transform="translate(0.000000,2778.000000) scale(0.100000,-0.100000)"
fill="#000000" stroke="none">
<path d="M5720 22571 c-168 -32 -618 -166 -760 -225 -423 -178 -765 -515 -923
-911 -39 -98 -87 -273 -87 -319 0 -18 -4 -26 -13 -23 -276 106 -628 151 -887
113 -143 -21 -289 -69 -428 -141 -138 -71 -222 -134 -353 -264 -252 -253 -422
-584 -502 -976 -18 -93 -22 -142 -22 -315 0 -178 3 -219 23 -309 58 -259 171
-486 338 -677 66 -75 71 -84 54 -84 -27 0 -234 -107 -321 -166 -271 -181 -449
-424 -515 -699 -22 -93 -22 -283 0 -388 46 -214 194 -510 326 -651 147 -158
388 -255 695 -281 166 -13 452 21 674 81 274 74 624 248 864 431 33 24 60 43
61 41 1 -2 12 -37 25 -78 117 -376 447 -623 906 -679 211 -26 591 -7 765 38
318 81 559 269 743 579 l61 103 35 -43 c189 -236 510 -432 861 -527 175 -47
247 -56 470 -56 287 0 463 28 699 110 410 143 702 427 771 751 7 32 16 62 20
67 3 4 49 -15 102 -43 282 -148 603 -228 873 -217 258 10 469 83 699 241 98
66 286 246 358 341 85 112 149 269 179 435 18 102 16 334 -4 435 -56 284 -192
525 -393 698 -43 38 -80 72 -82 77 -1 4 12 13 29 20 63 27 175 108 242 176
121 122 200 278 227 447 18 112 8 298 -23 418 -70 269 -231 560 -390 704 -244
222 -563 328 -894 297 -71 -7 -138 -15 -150 -18 -21 -6 -23 -3 -23 39 0 60
-32 224 -60 307 -106 314 -311 550 -610 700 -366 184 -742 232 -1150 149 -383
-78 -678 -282 -839 -579 l-40 -75 -16 40 c-85 206 -185 363 -322 506 -187 194
-410 325 -667 391 -118 30 -488 35 -626 9z m596 -145 c149 -30 296 -92 439
-184 106 -69 297 -266 382 -395 75 -112 183 -314 183 -341 0 -8 4 -17 9 -20
19 -12 42 7 61 50 53 121 213 301 349 393 141 96 317 162 541 203 91 17 155
22 310 22 179 0 205 -2 314 -28 315 -74 526 -182 701 -360 200 -204 311 -503
290 -783 -6 -75 -4 -93 7 -93 7 0 63 11 123 25 243 55 431 55 620 0 248 -72
461 -242 594 -473 135 -237 190 -405 198 -607 5 -112 2 -143 -16 -215 -38
-151 -96 -254 -205 -362 -63 -64 -222 -179 -263 -192 -13 -4 -23 -13 -23 -19
1 -7 33 -46 72 -87 238 -251 343 -491 355 -811 9 -225 -25 -392 -114 -561 -51
-98 -270 -321 -393 -401 -205 -132 -367 -185 -595 -194 -329 -13 -689 108
-1000 336 l-110 80 -7 -150 c-8 -175 -30 -274 -83 -381 -137 -273 -467 -483
-904 -575 -116 -25 -145 -27 -376 -27 -269 -1 -319 6 -541 69 -108 31 -325
135 -431 206 -106 70 -247 185 -312 254 -43 45 -58 56 -70 48 -9 -6 -45 -48
-81 -95 -224 -294 -403 -422 -695 -498 -151 -39 -562 -49 -770 -19 -243 36
-459 141 -573 277 -137 164 -192 329 -192 573 0 54 -4 99 -9 99 -4 0 -37 -26
-72 -58 -188 -170 -321 -272 -481 -368 -333 -201 -708 -319 -1049 -331 -327
-12 -567 53 -720 195 -106 98 -248 336 -302 507 -129 412 24 786 445 1088 92
65 281 180 316 191 12 4 22 15 22 25 0 10 -30 64 -67 122 -132 205 -201 363
-245 559 -33 150 -33 432 0 600 123 611 491 1089 950 1234 143 45 257 59 432
52 243 -8 464 -64 674 -168 108 -54 116 -53 116 12 0 66 40 304 65 390 112
391 372 693 778 904 213 111 636 249 893 291 107 17 353 13 460 -9z"/>
<path d="M6152 21103 c-12 -10 -37 -58 -57 -108 -20 -49 -67 -162 -105 -250
-195 -458 -198 -467 -167 -478 8 -3 6 -10 -8 -24 -15 -15 -49 -25 -130 -37
-119 -18 -228 -36 -260 -42 -11 -2 -27 -8 -35 -14 -13 -9 -12 -12 5 -26 11 -8
29 -12 40 -9 11 3 63 12 115 21 52 8 148 24 213 34 64 11 151 20 193 20 82 0
75 -4 153 86 16 19 33 23 135 29 64 4 118 10 120 14 3 4 1 13 -4 21 -6 10 -37
13 -132 11 -127 -2 -162 -12 -175 -49 -16 -46 -44 -62 -110 -62 -49 0 -63 3
-63 15 0 11 13 15 53 15 59 0 74 9 106 62 12 20 28 38 35 41 22 9 279 10 299
2 10 -4 25 -21 33 -37 21 -40 65 -55 147 -50 53 3 69 8 77 22 8 15 -27 92
-181 397 -105 208 -200 386 -211 396 -11 9 -30 17 -43 17 -13 0 -32 -8 -43
-17z m99 -428 c35 -78 36 -93 7 -100 -26 -6 -106 0 -115 8 -10 11 49 157 64
157 8 0 27 -29 44 -65z"/>
<path d="M6188 20646 c-8 -20 -9 -29 0 -38 16 -16 44 9 40 35 -5 31 -26 32
-40 3z"/>
<path d="M6791 21101 c-13 -8 -28 -124 -76 -565 -8 -77 -17 -141 -19 -143 -2
-2 -63 114 -136 259 -168 334 -198 388 -216 388 -18 0 -18 -40 0 -65 22 -32
305 -599 321 -644 20 -57 4 -71 -81 -71 -76 0 -112 -14 -93 -36 8 -10 35 -14
100 -14 78 0 91 3 109 22 11 12 20 28 20 35 0 15 -3 15 82 3 106 -15 100 -25
128 209 10 84 22 157 27 162 6 6 31 -18 63 -58 30 -38 62 -76 71 -85 10 -10
55 -64 100 -120 118 -147 139 -168 170 -168 14 0 31 6 37 13 5 6 21 118 36
247 14 129 30 271 36 315 21 180 23 230 8 243 -8 6 -50 16 -92 20 -112 12
-110 14 -131 -188 -10 -91 -21 -171 -25 -179 -6 -11 -13 -7 -32 15 -14 16 -45
52 -69 79 -24 28 -90 109 -147 181 -112 144 -149 171 -191 145z"/>
<path d="M5290 21020 c-14 -4 -39 -8 -56 -9 -16 -1 -39 -7 -49 -15 -18 -13
-18 -19 -6 -108 32 -250 109 -681 124 -695 14 -14 32 -13 184 12 314 50 294
45 303 70 10 25 -10 139 -27 156 -8 8 -49 5 -139 -10 -109 -17 -131 -18 -143
-7 -7 8 -22 67 -32 132 -10 66 -31 193 -45 284 -31 196 -41 213 -114 190z"/>
<path d="M5420 20929 c0 -12 5 -49 11 -83 5 -33 22 -135 37 -226 21 -130 31
-165 43 -168 33 -6 33 -9 -21 333 -12 72 -23 138 -26 148 -8 25 -44 22 -44 -4z"/>
<path d="M7521 20922 c-5 -9 -14 -69 -20 -132 -6 -63 -18 -169 -26 -235 -8
-66 -19 -165 -25 -220 -15 -139 -17 -143 -51 -160 -25 -13 -28 -19 -18 -31 16
-19 53 -18 77 4 20 18 20 15 57 357 9 77 22 194 30 260 19 152 19 175 0 175
-8 0 -19 -8 -24 -18z"/>
<path d="M7881 20904 c-72 -19 -159 -73 -199 -124 -76 -94 -119 -231 -109
-351 18 -220 226 -383 468 -366 160 11 264 92 324 252 31 82 32 110 3 129 -34
21 -256 79 -308 80 -44 1 -45 0 -58 -39 -7 -22 -14 -55 -15 -74 -2 -39 15 -53
91 -71 53 -13 64 -36 31 -61 -62 -47 -187 -29 -258 39 -66 63 -78 164 -31 269
39 88 103 133 187 133 89 -1 153 -36 179 -97 18 -42 43 -57 127 -78 101 -25
116 -4 78 108 -24 68 -53 111 -106 159 -105 94 -264 130 -404 92z"/>
<path d="M4649 20886 c-112 -31 -210 -114 -239 -202 -29 -85 17 -229 88 -277
65 -44 134 -53 260 -32 94 15 113 15 138 4 56 -27 39 -94 -31 -123 -66 -28
-96 -28 -152 0 l-54 26 -68 -21 c-89 -27 -99 -39 -76 -91 24 -53 50 -75 123
-105 165 -67 405 17 484 169 40 77 21 200 -40 270 -52 58 -156 76 -299 52 -66
-11 -101 -12 -127 -5 -20 6 -36 11 -36 12 0 1 -4 17 -10 36 -9 31 -7 36 23 66
47 47 109 55 173 24 47 -22 48 -22 113 -5 36 10 72 23 80 31 21 20 7 56 -43
106 -71 72 -189 97 -307 65z"/>
<path d="M5010 20818 c0 -3 9 -27 20 -53 27 -62 17 -79 -57 -97 -58 -14 -81
-39 -48 -52 23 -9 127 21 149 43 27 27 14 82 -29 129 -19 20 -35 34 -35 30z"/>
<path d="M7935 20667 c-73 -41 -136 -171 -108 -222 8 -13 14 -4 33 47 29 80
88 143 145 154 22 4 62 2 89 -3 l50 -10 -32 28 c-42 38 -117 40 -177 6z"/>
<path d="M4680 20661 c-37 -19 -49 -46 -31 -64 8 -8 17 -5 34 11 12 11 39 28
60 37 20 8 37 20 37 25 0 17 -63 11 -100 -9z"/>
<path d="M8438 20578 c6 -84 -6 -93 -96 -67 -76 22 -82 22 -82 10 0 -11 19
-19 100 -40 113 -29 136 -10 106 93 -22 75 -33 77 -28 4z"/>
<path d="M6966 20528 c-3 -24 -10 -92 -16 -153 -14 -138 -22 -147 -116 -138
-53 5 -64 3 -64 -9 0 -26 22 -35 107 -42 72 -6 83 -4 91 11 15 28 45 308 37
342 -10 45 -32 39 -39 -11z"/>
<path d="M5161 20424 c40 -115 10 -220 -88 -301 -79 -66 -142 -91 -263 -102
l-65 -7 59 -11 c150 -27 334 66 397 202 35 76 16 206 -37 256 l-24 23 21 -60z"/>
<path d="M4828 20353 c-9 -2 -63 -10 -120 -17 -102 -12 -103 -13 -63 -24 58
-17 179 -15 223 4 35 15 36 16 18 30 -20 14 -28 15 -58 7z"/>
<path d="M8375 20264 c-67 -135 -123 -187 -235 -220 -84 -25 -181 -19 -340 22
-17 4 -11 -3 19 -21 155 -97 393 -68 517 63 33 35 104 179 107 216 4 57 -21
35 -68 -60z"/>
<path d="M5193 19673 c-9 -3 -13 -27 -13 -69 0 -72 0 -71 95 -76 l50 -3 3
-224 c1 -145 6 -229 13 -238 14 -17 120 -18 137 -1 9 9 12 73 12 228 0 118 5
222 10 230 7 11 24 14 61 13 29 -1 59 3 66 9 16 13 17 110 1 126 -9 9 -70 12
-217 11 -114 0 -212 -3 -218 -6z"/>
<path d="M5741 19671 c-11 -7 -13 -62 -12 -307 1 -164 4 -301 7 -306 3 -4 36
-8 74 -8 53 0 69 4 74 16 3 9 6 60 6 114 0 72 4 101 14 109 9 8 43 11 93 9
l78 -3 3 -110 c2 -89 6 -112 19 -122 21 -16 125 -17 141 -1 9 9 12 90 12 305
0 333 6 313 -89 313 -75 0 -85 -15 -77 -112 9 -113 5 -118 -98 -118 -67 0 -85
3 -90 16 -3 9 -6 55 -6 103 0 54 -5 92 -12 99 -14 14 -116 16 -137 3z"/>
<path d="M6603 19668 c-25 -32 -274 -590 -269 -603 4 -11 22 -15 68 -15 60 0
64 1 99 40 l37 40 103 0 c102 -1 139 -11 139 -38 0 -24 45 -42 107 -42 58 0
63 2 63 22 0 12 -26 78 -59 147 -32 69 -80 173 -107 231 -99 213 -106 225
-140 228 -17 2 -35 -3 -41 -10z m71 -320 c16 -36 20 -57 13 -65 -12 -16 -83
-17 -92 -2 -8 12 34 119 46 119 5 0 20 -24 33 -52z"/>
<path d="M6632 19338 c-16 -16 -15 -38 2 -38 20 0 29 17 19 35 -7 12 -12 12
-21 3z"/>
<path d="M6990 19661 c-15 -30 -12 -97 6 -115 10 -11 34 -16 74 -16 44 0 59
-4 64 -16 3 -9 6 -114 6 -234 0 -246 -6 -230 85 -230 43 0 56 4 65 19 6 12 10
106 10 236 0 214 0 216 23 224 12 4 39 6 60 3 21 -2 44 1 52 8 18 15 21 110 3
128 -9 9 -73 12 -225 12 -200 0 -213 -1 -223 -19z"/>
<path d="M6740 19605 c0 -9 7 -29 15 -43 63 -113 227 -489 223 -510 -2 -13
-17 -18 -68 -22 -49 -4 -65 -9 -65 -20 0 -12 16 -16 72 -18 68 -3 73 -1 89 22
11 17 14 35 10 53 -7 27 -152 348 -219 483 -31 63 -57 88 -57 55z"/>
<path d="M5670 19586 c0 -14 -4 -36 -10 -50 -9 -24 -14 -26 -69 -26 -36 0 -63
-5 -70 -13 -7 -9 -12 -93 -13 -238 l-3 -224 -30 -3 c-55 -5 -75 -12 -75 -27 0
-20 122 -21 139 -2 7 9 12 93 13 238 l3 224 60 5 c33 3 66 9 73 13 19 12 16
127 -3 127 -9 0 -15 -9 -15 -24z"/>
<path d="M5914 19597 c-3 -8 -4 -36 -2 -63 2 -36 7 -49 18 -49 20 0 22 116 3
122 -7 3 -16 -2 -19 -10z"/>
<path d="M6275 19598 c-3 -7 -6 -137 -7 -288 l-3 -275 -52 -5 c-28 -3 -55 -8
-58 -12 -17 -17 12 -28 71 -28 60 0 65 2 74 26 11 27 14 552 4 578 -7 19 -23
21 -29 4z"/>
<path d="M7475 19598 c-2 -7 -6 -29 -7 -48 l-3 -35 -62 -3 c-34 -2 -66 -9 -72
-16 -7 -8 -12 -97 -13 -237 l-3 -224 -45 -3 c-46 -3 -74 -18 -64 -33 3 -5 34
-9 70 -9 58 0 65 2 73 23 5 13 8 95 5 183 -2 87 -1 185 3 217 l6 57 56 0 c79
0 93 12 89 80 -3 51 -22 79 -33 48z"/>
<path d="M5247 19504 c-16 -16 -5 -25 26 -22 17 2 31 8 30 13 -3 12 -46 19
-56 9z"/>
<path d="M7057 19503 c-15 -14 -6 -23 23 -23 20 0 30 5 30 15 0 15 -40 21 -53
8z"/>
<path d="M5923 19268 c-4 -7 -10 -62 -13 -123 l-5 -110 -52 -5 c-57 -6 -75
-16 -53 -30 23 -15 126 -12 138 3 6 7 13 62 14 123 l3 109 45 5 c32 4 46 10
48 23 3 15 -5 17 -57 17 -37 0 -63 -5 -68 -12z"/>
<path d="M6552 19102 c-12 -4 -31 -21 -42 -39 -17 -29 -24 -32 -77 -35 -44 -2
-58 -7 -58 -18 0 -11 15 -16 62 -18 65 -3 62 -5 118 61 12 14 31 17 99 17 81
0 115 12 86 30 -15 10 -156 11 -188 2z"/>
<path d="M4134 18878 c-20 -25 -45 -107 -42 -133 2 -22 12 -30 57 -46 69 -24
101 -45 101 -67 0 -19 -9 -45 -125 -355 -90 -241 -91 -231 27 -269 68 -22 69
-22 87 -3 11 11 36 65 56 120 158 428 165 445 191 445 8 0 42 -12 76 -26 78
-33 97 -25 128 50 35 87 28 97 -92 141 -115 42 -161 59 -298 111 -113 43 -152
51 -166 32z"/>
<path d="M8496 18840 c-38 -15 -73 -36 -79 -45 -7 -12 9 -59 63 -181 116 -267
148 -334 162 -334 7 0 44 12 81 27 90 35 96 48 62 138 -15 39 -42 115 -62 170
-35 99 -47 131 -84 213 -23 52 -43 54 -143 12z"/>
<path d="M8694 18816 c-7 -19 -6 -23 40 -146 131 -353 125 -330 101 -350 -8
-7 -12 -16 -9 -21 10 -16 50 -9 69 11 17 19 17 22 -7 82 -14 35 -39 99 -55
143 -17 44 -48 127 -69 184 -38 102 -58 129 -70 97z"/>
<path d="M8148 18716 c-93 -29 -96 -39 -48 -168 21 -56 62 -168 91 -246 28
-79 58 -146 66 -149 17 -7 117 22 151 43 12 8 22 24 22 36 0 39 -133 473 -152
495 -14 18 -51 15 -130 -11z"/>
<path d="M8343 18674 c-3 -8 2 -39 11 -67 43 -137 56 -180 85 -278 35 -122 36
-132 16 -149 -20 -17 -10 -30 24 -30 51 0 56 19 26 117 -15 48 -36 120 -47
158 -70 240 -79 265 -100 265 -5 0 -11 -7 -15 -16z"/>
<path d="M4137 18647 c-7 -19 9 -33 45 -42 21 -5 29 -3 34 10 8 21 -4 33 -42
41 -23 4 -33 2 -37 -9z"/>
<path d="M4776 18638 c-9 -12 -16 -31 -16 -41 0 -14 -5 -17 -19 -12 -16 5 -23
-2 -39 -37 -30 -68 -40 -72 -109 -48 -89 32 -97 33 -114 13 -9 -10 -57 -130
-108 -268 -50 -137 -95 -256 -99 -264 -17 -29 -40 -36 -74 -22 -49 20 -85 24
-93 12 -12 -20 12 -37 86 -61 52 -18 75 -21 87 -14 18 12 35 53 143 344 39
107 74 200 76 207 9 24 38 23 109 -3 79 -28 99 -27 114 8 10 23 10 23 6 -2 -3
-22 -88 -386 -115 -498 -14 -55 -14 -89 1 -98 19 -12 151 -40 170 -36 20 4 29
27 64 176 23 95 33 121 49 126 26 9 191 -31 211 -52 15 -14 13 -28 -15 -154
l-32 -139 25 -21 c33 -29 158 -53 181 -34 8 7 15 19 15 27 0 16 11 64 106 467
46 196 61 273 54 286 -9 18 -120 50 -169 50 -27 0 -37 -21 -62 -136 -32 -151
-25 -146 -166 -118 -121 24 -123 28 -90 163 40 161 41 159 -59 185 -82 21
-100 20 -118 -6z"/>
<path d="M7587 18575 c-133 -27 -244 -112 -304 -235 -23 -45 -28 -71 -31 -151
-5 -110 11 -179 59 -265 72 -127 225 -212 361 -200 165 13 267 63 342 166 54
74 70 137 63 250 -3 54 -10 107 -16 119 -15 27 -55 27 -170 1 -47 -10 -112
-24 -144 -30 -71 -14 -81 -29 -66 -104 16 -76 35 -92 93 -77 95 24 121 5 75
-53 -35 -44 -95 -69 -169 -70 -114 -1 -177 59 -205 191 -13 62 -13 76 0 121
30 100 95 147 205 147 55 0 71 -4 104 -28 44 -31 64 -33 138 -13 70 19 88 26
88 38 0 35 -73 116 -140 156 -71 42 -184 56 -283 37z"/>
<path d="M4991 18488 c-5 -18 -13 -54 -17 -80 -6 -44 -5 -48 14 -48 16 0 24
10 33 43 18 65 17 111 -3 115 -11 2 -19 -7 -27 -30z"/>
<path d="M8000 18475 c0 -3 11 -23 25 -43 47 -69 33 -91 -65 -106 -50 -7 -78
-21 -67 -32 10 -10 169 27 190 44 24 21 22 33 -13 80 -26 37 -70 72 -70 57z"/>
<path d="M5869 18457 c-9 -7 -63 -95 -122 -197 -58 -102 -153 -268 -211 -369
-58 -102 -106 -193 -106 -203 0 -20 14 -24 113 -33 l68 -7 38 40 c20 21 45 43
54 48 22 13 285 -12 305 -28 8 -7 21 -28 29 -46 18 -43 63 -62 148 -62 50 0
67 4 72 16 5 15 -60 210 -156 467 -30 81 -97 268 -110 308 -22 69 -78 100
-122 66z m50 -429 c23 -69 26 -94 11 -103 -17 -11 -121 6 -127 21 -6 17 65
144 82 144 7 0 23 -28 34 -62z"/>
<path d="M5852 17995 c-16 -34 -15 -35 7 -35 24 0 43 23 35 44 -9 24 -29 19
-42 -9z"/>
<path d="M6947 18463 c-68 -6 -70 -15 -59 -213 5 -91 6 -169 2 -174 -10 -10
-110 71 -294 236 -126 114 -171 137 -203 106 -15 -16 -16 1 12 -468 2 -41 7
-129 11 -195 4 -66 11 -128 16 -137 7 -15 23 -18 93 -18 122 0 118 -8 109 216
-4 101 -4 184 0 184 8 0 276 -229 357 -306 59 -55 101 -74 128 -57 13 9 16 32
14 144 0 74 -6 208 -12 299 -6 91 -14 209 -17 263 -8 133 -6 131 -157 120z"/>
<path d="M5465 18400 c-4 -6 -33 -124 -65 -263 -33 -138 -69 -294 -81 -345
-24 -102 -40 -127 -73 -118 -12 4 -42 9 -67 12 -37 5 -47 3 -52 -10 -7 -17 19
-36 51 -36 11 0 39 -7 62 -15 51 -18 73 -13 87 18 6 12 27 94 48 182 21 88 57
241 80 340 54 227 57 245 31 245 -8 0 -18 -5 -21 -10z"/>
<path d="M7151 18381 c-7 -5 -13 -19 -14 -32 -1 -40 33 -652 38 -683 4 -22 -2
-34 -25 -56 -30 -28 -30 -29 -11 -39 23 -13 65 0 78 23 10 18 -32 759 -44 780
-5 10 -13 12 -22 7z"/>
<path d="M6040 18350 c0 -11 7 -37 16 -58 9 -20 41 -107 71 -192 30 -85 77
-218 105 -295 87 -243 86 -247 -47 -238 -74 5 -85 4 -85 -10 0 -25 27 -35 115
-42 77 -7 81 -6 104 19 36 38 26 101 -47 296 -33 91 -91 248 -129 350 -49 134
-73 186 -85 188 -13 2 -18 -3 -18 -18z"/>
<path d="M7627 18355 c-80 -28 -127 -101 -126 -195 0 -55 23 -120 45 -127 8
-3 9 11 2 49 -24 133 33 232 146 254 21 3 34 10 29 14 -17 16 -60 18 -96 5z"/>
<path d="M8765 18271 c-95 -23 -131 -113 -74 -185 40 -50 135 -42 184 15 45
54 24 138 -40 165 -19 8 -36 14 -37 13 -2 -1 -16 -4 -33 -8z"/>
<path d="M8914 18225 c5 -11 10 -36 13 -55 6 -47 -29 -98 -87 -127 l-45 -22
32 0 c125 -3 189 128 100 206 -20 18 -20 17 -13 -2z"/>
<path d="M8109 18218 c0 -7 0 -56 1 -108 1 -76 -3 -107 -20 -153 -27 -72 -114
-169 -184 -204 -48 -24 -176 -61 -221 -64 -11 -1 1 -5 28 -10 35 -7 63 -5 110
7 204 53 319 177 332 359 7 103 -4 179 -28 183 -9 2 -17 -2 -18 -10z"/>
<path d="M8328 18113 c-15 -10 -35 -32 -45 -50 -16 -30 -16 -37 -3 -75 30 -86
128 -102 197 -33 23 23 33 42 33 64 0 39 -24 87 -49 101 -30 15 -103 12 -133
-7z"/>
<path d="M4899 18068 c-6 -12 -24 -75 -39 -141 -15 -65 -35 -126 -43 -135 -14
-13 -23 -13 -77 -2 -47 10 -64 10 -73 1 -15 -15 1 -26 68 -45 92 -26 103 -27
119 -11 8 8 29 76 47 151 18 78 37 138 45 141 7 3 33 0 58 -5 34 -7 50 -6 63
4 25 18 9 32 -58 49 -74 20 -96 19 -110 -7z"/>
<path d="M8529 18067 c6 -16 11 -41 11 -57 0 -40 -52 -97 -102 -112 -36 -11
-38 -13 -18 -20 47 -17 139 32 156 84 10 33 -5 83 -32 109 l-25 24 10 -28z"/>
<path d="M6661 17863 c0 -38 4 -107 7 -154 4 -47 6 -93 4 -102 -4 -18 -59 -37
-110 -37 -31 0 -53 -22 -38 -37 10 -11 170 -2 184 10 12 10 13 39 8 166 -7
150 -22 221 -45 221 -7 0 -11 -26 -10 -67z"/>
<path d="M5695 17693 c-68 -80 -60 -76 -134 -68 -54 5 -70 4 -80 -8 -18 -23
16 -38 104 -44 78 -6 74 -8 133 62 l22 27 125 -7 c110 -7 125 -6 125 8 0 27
-33 36 -157 43 -113 6 -121 6 -138 -13z"/>
<path d="M3126 15846 c-73 -31 -156 -87 -196 -133 -98 -111 -136 -306 -90
-454 40 -130 124 -225 253 -289 174 -85 359 -73 520 34 75 50 123 105 160 185
56 119 48 285 -20 430 -37 78 -135 174 -219 213 -66 32 -74 33 -209 36 -130 2
-144 1 -199 -22z m265 -134 c83 -29 116 -48 161 -95 50 -51 84 -122 97 -202
30 -191 -108 -361 -323 -398 -59 -10 -64 -9 -116 19 -80 42 -194 158 -227 230
-24 51 -28 71 -27 144 1 120 28 185 110 269 l63 64 103 -6 c61 -4 126 -14 159
-25z"/>
<path d="M2404 14560 c-76 -38 -131 -91 -163 -160 -23 -48 -26 -68 -26 -155 0
-86 3 -107 25 -150 33 -68 106 -139 177 -172 51 -24 71 -27 158 -28 88 0 107
3 157 27 77 36 150 106 179 171 46 104 24 262 -51 366 -67 92 -158 131 -305
131 -82 0 -98 -3 -151 -30z m223 -85 c110 -33 180 -119 191 -237 9 -104 -49
-198 -154 -249 -72 -34 -125 -36 -176 -6 -62 36 -138 115 -161 166 -42 96 -17
224 61 304 35 36 37 37 112 37 42 0 99 -7 127 -15z"/>
<path d="M6227 12306 c-85 -38 -129 -119 -129 -235 0 -161 82 -250 228 -251
94 0 159 38 199 115 26 51 30 69 30 139 -1 71 -4 88 -30 135 -44 80 -88 105
-189 108 -50 2 -92 -3 -109 -11z m185 -104 c86 -97 47 -276 -65 -297 -49 -9
-105 19 -129 65 -22 43 -24 146 -4 195 33 79 142 99 198 37z"/>
<path d="M7179 12299 c-48 -28 -69 -67 -69 -126 0 -83 29 -107 171 -143 116
-30 146 -62 98 -106 -16 -14 -36 -19 -79 -19 -63 0 -100 21 -100 57 0 15 -8
18 -50 18 -44 0 -50 -3 -50 -20 0 -28 23 -70 52 -96 33 -30 82 -44 152 -44
118 1 186 56 186 153 0 86 -25 107 -167 142 -101 25 -123 37 -123 66 0 56 100
80 154 38 14 -11 26 -27 26 -35 0 -10 13 -14 51 -14 51 0 51 0 45 28 -9 34
-34 70 -70 96 -42 32 -177 35 -227 5z"/>
<path d="M2300 12270 l0 -40 75 0 75 0 0 -200 0 -200 50 0 50 0 0 200 0 200
75 0 75 0 0 40 0 40 -200 0 -200 0 0 -40z"/>
<path d="M2750 12070 l0 -240 50 0 49 0 3 108 3 107 93 3 92 3 0 -111 0 -110
50 0 50 0 0 240 0 240 -50 0 -50 0 0 -90 0 -90 -95 0 -95 0 0 90 0 90 -50 0
-50 0 0 -240z"/>
<path d="M3240 12070 l0 -240 186 0 185 0 -3 43 -3 42 -132 3 -133 3 0 59 0
60 115 0 115 0 0 45 0 45 -115 0 -115 0 0 50 0 50 130 0 130 0 0 40 0 40 -180
0 -180 0 0 -240z"/>
<path d="M3870 12070 l0 -240 50 0 49 0 3 108 3 107 93 3 92 3 0 -111 0 -110
50 0 50 0 0 240 0 240 -50 0 -50 0 0 -90 0 -90 -95 0 -95 0 0 90 0 90 -50 0
-50 0 0 -240z"/>
<path d="M4350 12070 l0 -240 50 0 50 0 0 240 0 240 -50 0 -50 0 0 -240z"/>
<path d="M4550 12070 l0 -240 170 0 170 0 0 45 0 45 -120 0 -120 0 0 195 0
195 -50 0 -50 0 0 -240z"/>
<path d="M5047 12183 c-25 -70 -64 -179 -86 -240 l-40 -113 53 0 54 0 17 50
17 50 89 0 88 0 14 -47 14 -48 56 -3 56 -3 -50 143 c-28 79 -66 186 -83 238
l-33 95 -60 3 -60 3 -46 -128z m132 -67 c11 -41 24 -82 27 -90 5 -14 -4 -16
-55 -16 -34 0 -61 3 -61 7 0 16 55 173 61 173 3 0 16 -33 28 -74z"/>
<path d="M5440 12070 l0 -240 50 0 50 0 0 95 0 95 73 0 c39 0 78 -4 85 -8 18
-12 32 -68 32 -129 l0 -53 61 0 c48 0 59 3 52 13 -6 6 -13 48 -17 92 -5 66
-10 84 -30 103 l-24 24 30 27 c60 54 43 162 -33 203 -28 15 -57 18 -181 18
l-148 0 0 -240z m280 140 c11 -11 20 -31 20 -45 0 -48 -31 -65 -120 -65 l-80
0 0 65 0 65 80 0 c67 0 83 -3 100 -20z"/>
<path d="M5920 12070 l0 -240 50 0 50 0 0 240 0 240 -50 0 -50 0 0 -240z"/>
<path d="M6640 12122 c0 -217 7 -240 80 -279 94 -50 240 -20 281 57 17 30 19
59 19 222 l0 188 -50 0 -50 0 0 -176 c0 -96 -4 -184 -10 -194 -10 -19 -59 -40
-92 -40 -11 0 -33 13 -49 29 l-29 29 0 176 0 176 -50 0 -50 0 0 -188z"/>
<path d="M7760 12070 l0 -240 135 0 c152 0 185 9 228 59 22 27 27 42 27 88 0
47 -4 58 -30 85 l-30 30 25 30 c43 51 26 130 -38 168 -28 17 -51 20 -174 20
l-143 0 0 -240z m255 150 c22 -8 26 -15 23 -42 -4 -44 -36 -59 -118 -56 l-65
3 -3 53 -3 52 70 0 c38 0 82 -4 96 -10z m19 -196 c20 -19 21 -64 2 -90 -12
-16 -27 -19 -98 -19 l-83 0 -3 63 -3 62 85 0 c64 0 88 -4 100 -16z"/>
<path d="M8292 12078 c-45 -128 -82 -236 -82 -240 0 -5 22 -8 49 -8 l49 0 17
50 17 51 90 -3 91 -3 14 -47 14 -48 55 0 c48 0 55 2 49 18 -3 9 -40 116 -83
237 l-78 220 -60 3 -60 3 -82 -233z m198 -60 c0 -5 -27 -8 -61 -8 -45 0 -60 3
-57 13 3 6 18 50 33 97 l28 85 28 -90 c16 -50 29 -93 29 -97z"/>
<path d="M8680 12270 l0 -40 75 0 75 0 0 -200 0 -200 50 0 50 0 0 200 0 200
75 0 75 0 0 40 0 40 -200 0 -200 0 0 -40z"/>
<path d="M9100 12270 l0 -40 70 0 70 0 0 -200 0 -200 50 0 50 0 2 198 3 197
73 3 72 3 0 39 0 40 -195 0 -195 0 0 -40z"/>
<path d="M9550 12070 l0 -240 170 0 170 0 0 45 0 45 -120 0 -120 0 0 195 0
195 -50 0 -50 0 0 -240z"/>
<path d="M9960 12070 l0 -240 180 0 180 0 0 45 0 45 -130 0 -130 0 0 60 0 60
115 0 115 0 0 45 0 45 -115 0 -115 0 0 50 0 50 125 0 125 0 0 40 0 40 -175 0
-175 0 0 -240z"/>
<path d="M3340 11419 c-88 -35 -133 -114 -134 -235 -1 -70 3 -88 29 -139 40
-77 105 -115 199 -115 146 1 228 90 228 250 0 116 -38 187 -124 231 -41 21
-154 26 -198 8z m158 -89 c47 -29 65 -78 60 -165 -4 -86 -30 -129 -88 -146
-77 -23 -150 30 -165 121 -25 146 86 255 193 190z"/>
<path d="M4455 11413 c-77 -40 -119 -107 -131 -205 -13 -107 44 -221 130 -262
64 -30 179 -15 215 27 19 24 31 21 31 -8 0 -22 4 -25 35 -25 l35 0 0 130 0
130 -100 0 -100 0 0 -40 0 -40 55 0 c66 0 71 -13 23 -65 -58 -63 -154 -54
-198 17 -24 40 -28 151 -6 203 37 87 173 101 216 21 11 -22 20 -26 62 -26 26
0 48 5 48 10 0 18 -37 84 -57 102 -52 48 -195 65 -258 31z"/>
<path d="M7930 11419 c-88 -35 -133 -114 -134 -235 -1 -70 3 -88 29 -139 40
-77 105 -115 199 -115 146 1 228 90 228 250 0 116 -38 187 -124 231 -41 21
-154 26 -198 8z m158 -89 c47 -29 65 -78 60 -165 -4 -86 -30 -129 -88 -146
-77 -23 -150 30 -165 121 -25 146 86 255 193 190z"/>
<path d="M8882 11414 c-61 -31 -90 -97 -72 -163 14 -54 45 -77 135 -101 144
-38 165 -53 142 -101 -28 -55 -145 -50 -182 8 -17 28 -26 32 -62 33 -37 0 -43
-3 -43 -21 0 -37 31 -88 68 -111 54 -33 175 -38 236 -9 55 27 86 73 86 129 0
86 -34 115 -170 147 -92 21 -120 38 -120 70 0 55 109 77 155 30 14 -13 25 -29
25 -35 0 -5 22 -10 50 -10 50 0 50 0 44 28 -8 34 -33 70 -68 96 -38 29 -175
34 -224 10z"/>
<path d="M3750 11180 l0 -240 50 0 50 0 0 100 0 100 105 0 105 0 0 45 0 45
-105 0 -105 0 0 55 0 55 120 0 120 0 0 40 0 40 -170 0 -170 0 0 -240z"/>
<path d="M4870 11180 l0 -240 180 0 180 0 0 45 0 45 -135 0 -135 0 0 60 0 60
120 0 120 0 0 45 0 45 -121 0 -120 0 3 48 3 47 128 3 127 3 0 39 0 40 -175 0
-175 0 0 -240z"/>
<path d="M5310 11180 l0 -240 45 0 45 0 2 172 3 173 98 -173 98 -172 50 0 49
0 0 240 0 240 -45 0 -45 0 -2 -166 -3 -166 -95 166 -94 166 -53 0 -53 0 0
-240z"/>
<path d="M5800 11180 l0 -240 180 0 180 0 0 45 0 45 -130 0 -130 0 0 60 0 60
115 0 115 0 0 45 0 45 -115 0 -115 0 0 50 0 50 125 0 125 0 0 40 0 40 -175 0
-175 0 0 -240z"/>
<path d="M6250 11180 l0 -240 45 0 44 0 3 93 3 92 70 3 c99 4 109 -5 115 -105
l5 -78 58 -3 c53 -3 73 7 47 23 -5 3 -10 33 -10 65 0 66 -12 107 -38 127 -16
12 -16 14 4 30 71 58 53 184 -31 219 -24 10 -75 14 -175 14 l-140 0 0 -240z
m270 140 c11 -11 20 -33 20 -49 0 -46 -30 -61 -122 -61 l-78 0 0 58 c0 32 3
62 7 65 3 4 39 7 80 7 60 0 77 -4 93 -20z"/>
<path d="M6782 11188 c-45 -128 -82 -236 -82 -240 0 -5 22 -8 49 -8 l49 0 17
50 17 51 90 -3 91 -3 14 -47 14 -48 55 0 c48 0 55 2 49 18 -3 9 -40 116 -83
237 l-78 220 -60 3 -60 3 -82 -233z m198 -60 c0 -5 -27 -8 -61 -8 -45 0 -60 3
-57 13 3 6 18 50 33 97 l28 85 28 -90 c16 -50 29 -93 29 -97z"/>
<path d="M7170 11380 l0 -40 75 0 75 0 0 -200 0 -200 50 0 50 0 0 200 0 200
75 0 75 0 0 40 0 40 -200 0 -200 0 0 -40z"/>
<path d="M7620 11180 l0 -240 50 0 50 0 0 240 0 240 -50 0 -50 0 0 -240z"/>
<path d="M8330 11180 l0 -240 50 0 50 0 2 165 3 165 94 -165 93 -165 49 0 49
0 0 240 0 240 -45 0 -45 0 0 -167 0 -168 -96 168 -95 167 -55 0 -54 0 0 -240z"/>
<path d="M9281 11338 c0 -46 6 -123 12 -173 12 -86 13 -90 37 -90 24 0 25 3
37 95 6 52 12 130 12 173 l1 77 -50 0 -50 0 1 -82z"/>
<path d="M9500 11368 c0 -29 7 -107 15 -173 8 -65 15 -121 15 -122 0 -2 11 -3
25 -3 14 0 25 3 25 8 0 4 7 61 15 127 8 65 15 141 15 167 l0 48 -55 0 -55 0 0
-52z"/>
<path d="M9280 10985 l0 -45 50 0 50 0 0 45 0 45 -50 0 -50 0 0 -45z"/>
<path d="M9510 10985 l0 -45 45 0 45 0 0 45 0 45 -45 0 -45 0 0 -45z"/>
<path d="M6531 9534 c-21 -26 -21 -37 -21 -450 0 -289 4 -431 11 -447 19 -43
46 -47 283 -47 211 0 225 1 250 21 l26 20 0 443 c0 383 -2 444 -16 464 -15 22
-18 22 -264 22 l-249 0 -20 -26z m379 -24 c0 -6 -43 -10 -110 -10 -67 0 -110
4 -110 10 0 6 43 10 110 10 67 0 110 -4 110 -10z m130 -400 l0 -350 -240 0
-240 0 0 350 0 350 240 0 240 0 0 -350z m-226 -416 c22 -8 20 -41 -2 -53 -22
-12 -42 3 -42 29 0 28 14 36 44 24z"/>
<path d="M3323 9480 c-47 -28 -64 -60 -61 -115 1 -35 -3 -50 -15 -57 -10 -5
-17 -16 -17 -23 0 -8 -4 -15 -10 -15 -5 0 -10 -9 -10 -19 0 -11 5 -23 10 -26
6 -3 10 -35 10 -71 0 -36 6 -80 14 -98 18 -42 62 -84 98 -91 28 -6 28 -8 28
-80 l0 -74 -37 -6 c-159 -23 -175 -31 -171 -84 5 -56 44 -66 253 -66 210 0
248 10 253 67 3 32 -1 39 -26 52 -17 9 -49 18 -73 21 -24 3 -59 8 -76 11 l-33
5 0 74 c0 64 3 75 17 75 30 0 83 44 103 86 14 28 20 61 20 107 0 36 5 69 10
72 18 11 11 41 -17 71 -21 23 -26 37 -24 75 3 81 -55 129 -156 129 -40 0 -68
-6 -90 -20z m115 -23 c2 -15 8 -27 14 -27 6 0 8 11 6 25 -4 17 -1 25 8 25 8 0
14 -11 14 -25 0 -14 5 -25 11 -25 6 0 9 9 6 20 -7 26 1 25 30 -2 27 -25 35
-101 9 -79 -17 14 -101 11 -101 -4 0 -5 25 -12 55 -15 44 -4 56 -9 59 -25 3
-16 1 -17 -12 -7 -18 15 -96 12 -100 -3 -1 -5 22 -11 51 -13 47 -3 54 -6 64
-30 10 -25 11 -26 18 -7 5 12 9 -23 9 -92 1 -106 0 -113 -25 -143 -30 -35 -73
-60 -104 -60 -19 0 -20 -6 -20 -105 0 -87 -3 -105 -15 -105 -12 0 -15 18 -15
105 0 100 -1 105 -21 105 -32 0 -94 38 -112 70 -13 22 -17 52 -16 137 0 70 3
101 9 88 9 -19 9 -19 16 3 7 26 40 42 85 42 16 0 29 5 29 10 0 14 -84 12 -99
-2 -10 -11 -12 -9 -9 7 3 16 13 21 58 25 30 3 55 10 55 15 0 15 -84 18 -101 4
-25 -20 -18 51 8 78 26 28 38 29 31 3 -3 -11 0 -20 6 -20 6 0 11 11 11 25 0
14 6 25 14 25 9 0 12 -8 8 -25 -2 -15 0 -25 7 -25 6 0 11 11 11 23 0 13 3 27
7 31 15 14 38 0 41 -27z m-201 -219 c-3 -8 -6 -5 -6 6 -1 11 2 17 5 13 3 -3 4
-12 1 -19z m360 0 c-3 -8 -6 -5 -6 6 -1 11 2 17 5 13 3 -3 4 -12 1 -19z m-290
-458 c-72 -9 -79 -16 -30 -29 75 -21 333 -8 309 16 -3 3 -31 9 -63 13 -54 7
-55 7 -15 9 45 1 112 -21 112 -38 0 -22 -78 -36 -205 -36 -132 0 -205 14 -205
39 0 17 55 34 110 34 42 -1 42 -1 -13 -8z m-38 -70 c99 -19 275 -11 366 16 13
4 17 3 10 -4 -42 -42 -418 -42 -460 0 -7 7 -3 8 10 4 11 -3 44 -10 74 -16z"/>
<path d="M3290 9264 c0 -12 6 -15 23 -10 12 3 34 6 50 6 15 0 27 5 27 10 0 6
-22 10 -50 10 -39 0 -50 -3 -50 -16z"/>
<path d="M3440 9270 c0 -5 12 -10 28 -10 15 0 37 -3 50 -6 16 -5 22 -2 22 10
0 13 -11 16 -50 16 -27 0 -50 -4 -50 -10z"/>
<path d="M3260 9163 c0 -126 45 -178 155 -178 110 0 155 52 155 178 0 45 -4
77 -10 77 -5 0 -10 -8 -11 -17 0 -11 -3 -13 -6 -5 -6 15 -103 17 -103 2 0 -5
13 -10 29 -10 45 0 81 -17 80 -37 0 -11 -3 -13 -6 -5 -6 15 -103 17 -103 2 0
-5 11 -10 24 -10 13 0 38 -3 55 -6 29 -6 32 -10 29 -38 -5 -47 -55 -76 -133
-76 -78 0 -128 29 -133 76 -3 28 0 32 29 38 17 3 42 6 55 6 13 0 24 5 24 10 0
15 -97 13 -103 -2 -3 -8 -6 -6 -6 5 -1 20 35 37 80 37 16 0 29 5 29 10 0 15
-97 13 -103 -2 -3 -8 -6 -6 -6 5 -1 9 -5 17 -11 17 -6 0 -10 -32 -10 -77z
m165 -138 c28 1 61 7 73 14 12 6 22 9 22 7 0 -3 -14 -13 -32 -22 -41 -21 -141
-15 -166 10 -16 16 -15 16 18 3 19 -8 58 -13 85 -12z"/>
<path d="M3330 9080 c0 -11 5 -20 10 -20 6 0 10 9 10 20 0 11 -4 20 -10 20 -5
0 -10 -9 -10 -20z"/>
<path d="M3373 9084 c-3 -8 -1 -20 6 -27 8 -8 11 -4 11 16 0 30 -7 35 -17 11z"/>
<path d="M3440 9075 c0 -15 4 -24 10 -20 6 3 10 12 10 20 0 8 -4 17 -10 20 -6
4 -10 -5 -10 -20z"/>
<path d="M3480 9080 c0 -11 5 -20 10 -20 6 0 10 9 10 20 0 11 -4 20 -10 20 -5
0 -10 -9 -10 -20z"/>
<path d="M9315 9456 c-38 -17 -88 -73 -120 -135 -21 -43 -31 -51 -76 -66 -28
-10 -59 -25 -69 -35 -9 -9 -30 -21 -46 -25 l-29 -8 26 -11 c24 -10 20 -11 -36
-12 -34 -1 -72 -7 -84 -14 -70 -37 -69 -240 2 -308 50 -48 315 -152 385 -152
53 0 191 60 225 98 10 11 26 42 36 68 16 41 26 53 64 71 24 12 54 34 67 50 19
24 21 37 18 97 -4 64 -6 70 -40 100 -20 17 -46 38 -58 46 -17 12 -25 31 -31
73 -4 32 -16 74 -27 95 -35 69 -132 101 -207 68z m125 -68 c26 -42 27 -114 3
-127 -11 -5 -41 -5 -77 0 -64 11 -91 32 -73 59 15 22 106 100 118 100 5 0 18
-15 29 -32z m-180 -173 c-11 -38 -19 -61 -19 -49 -1 22 28 128 34 122 1 -1 -5
-34 -15 -73z m-120 -19 c0 -2 -7 -6 -15 -10 -8 -3 -15 -1 -15 4 0 6 7 10 15
10 8 0 15 -2 15 -4z m48 -23 c-10 -2 -26 -2 -35 0 -10 3 -2 5 17 5 19 0 27 -2
18 -5z m224 -18 c40 -9 102 -25 138 -37 36 -12 68 -21 73 -20 21 6 2 -10 -33
-28 -22 -11 -40 -25 -40 -30 0 -5 -29 5 -64 24 -35 19 -89 39 -119 46 -34 7
-63 20 -77 35 l-23 25 36 0 c19 0 69 -7 109 -15z m-323 -28 c35 -11 60 -22 55
-24 -5 -1 -52 11 -104 27 -52 17 -77 28 -55 24 22 -3 69 -15 104 -27z m11 18
c19 -7 28 -13 20 -13 -8 0 -31 6 -50 13 -19 7 -28 13 -20 13 8 0 31 -6 50 -13z
m-11 -44 c89 -27 176 -58 194 -68 18 -10 42 -39 55 -63 20 -39 23 -55 19 -122
-6 -93 -27 -135 -73 -144 -61 -11 -345 98 -397 153 -54 58 -62 219 -12 269 13
13 30 24 38 24 7 0 86 -22 176 -49z m138 3 c-3 -3 -12 -4 -19 -1 -8 3 -5 6 6
6 11 1 17 -2 13 -5z m-12 -19 c39 -17 21 -18 -25 0 -19 7 -28 14 -20 14 8 0
29 -6 45 -14z m86 0 c87 -30 129 -92 129 -192 0 -76 -14 -124 -45 -153 l-24
-23 19 39 c28 54 28 195 1 240 -22 37 -73 77 -116 92 -16 6 -25 11 -19 11 6 1
31 -6 55 -14z m0 -38 c62 -42 79 -79 79 -176 0 -47 -4 -92 -8 -98 -4 -7 -6 29
-5 80 4 82 1 96 -19 132 -13 22 -41 50 -63 62 -22 13 -35 23 -29 23 6 0 26
-10 45 -23z m196 -49 c-3 -8 -6 -5 -6 6 -1 11 2 17 5 13 3 -3 4 -12 1 -19z
m17 -73 c5 -22 4 -26 -4 -15 -5 8 -10 24 -10 34 0 26 6 18 14 -19z"/>
<path d="M7952 9438 c-11 -15 -32 -130 -32 -181 0 -44 13 -52 93 -62 31 -4 57
-10 57 -13 0 -2 -8 -11 -17 -18 -17 -13 -17 -13 0 -14 15 0 17 -5 11 -37 -4
-21 -7 -45 -7 -53 1 -10 -38 -37 -107 -73 -105 -56 -108 -58 -96 -82 l11 -24
50 28 c155 87 204 111 228 111 30 0 39 11 47 60 4 24 11 36 25 38 11 2 28 11
37 19 13 11 29 14 57 9 56 -9 77 13 90 95 23 136 13 152 -94 165 -33 4 -77 13
-97 20 -35 12 -42 11 -39 -8 2 -12 -17 -10 -21 2 -4 11 -95 30 -148 30 -21 0
-42 -6 -48 -12z m150 -28 c38 -7 64 -7 83 0 24 9 26 8 16 -3 -10 -12 -2 -16
46 -22 91 -11 97 -17 89 -86 -8 -85 -16 -108 -36 -114 -19 -6 -311 38 -330 50
-13 8 -5 120 11 162 10 26 34 29 121 13z m283 -130 c10 -16 -16 -43 -28 -31
-11 11 -2 41 12 41 5 0 13 -5 16 -10z"/>
<path d="M4319 9376 c-82 -29 -141 -80 -181 -156 -19 -38 -23 -60 -23 -135 0
-107 17 -147 90 -214 72 -66 122 -84 220 -79 91 5 143 28 202 90 59 62 78 113
78 208 0 76 -3 91 -30 139 -16 29 -47 68 -69 87 -76 65 -200 91 -287 60z m61
-159 l0 -113 -85 -69 c-46 -39 -88 -71 -93 -73 -17 -5 -37 63 -37 128 0 44 6
77 19 104 35 69 119 135 174 136 22 0 22 -2 22 -113z m128 97 c87 -36 146
-125 146 -219 0 -60 -19 -135 -34 -135 -4 0 -47 32 -94 71 l-86 72 0 113 c0
127 0 127 68 98z m-128 -385 l0 -91 -27 7 c-37 9 -106 47 -110 61 -4 12 111
114 128 114 5 0 9 -41 9 -91z m138 40 c34 -28 62 -55 62 -60 0 -11 -78 -55
-112 -63 l-28 -6 0 90 c0 49 3 90 8 90 4 0 35 -23 70 -51z"/>
<path d="M5150 9196 c0 -113 -4 -187 -10 -191 -5 -3 -10 -46 -10 -96 0 -53 4
-89 10 -89 6 0 10 -11 10 -25 l0 -25 462 2 462 3 7 30 c5 16 6 152 2 302 l-6
273 -464 0 -463 0 0 -184z m50 153 c0 -24 -23 -21 -28 4 -2 10 3 17 12 17 10
0 16 -9 16 -21z m850 -4 c0 -8 -7 -15 -15 -15 -8 0 -15 7 -15 15 0 8 7 15 15
15 8 0 15 -7 15 -15z m-28 -42 c16 -14 18 -34 18 -190 l0 -173 -420 0 -420 0
0 172 c0 145 3 174 17 190 15 17 41 18 401 18 345 0 387 -2 404 -17z m-392
-428 c0 -8 -7 -15 -15 -15 -16 0 -20 12 -8 23 11 12 23 8 23 -8z m-130 -50 c0
-8 -7 -15 -15 -15 -8 0 -15 7 -15 15 0 8 7 15 15 15 8 0 15 -7 15 -15z m270 0
c0 -8 -7 -15 -15 -15 -8 0 -15 7 -15 15 0 8 7 15 15 15 8 0 15 -7 15 -15z
m-567 -2 c9 -9 -13 -34 -24 -27 -14 8 -11 34 4 34 8 0 17 -3 20 -7z m207 -13
c0 -21 -33 -29 -45 -10 -9 15 4 30 26 30 12 0 19 -7 19 -20z m455 0 c0 -8 -10
-16 -22 -18 -18 -3 -23 2 -23 18 0 16 5 21 23 18 12 -2 22 -10 22 -18z m185
-6 c0 -8 -7 -14 -15 -14 -15 0 -21 21 -9 33 10 9 24 -2 24 -19z"/>
<path d="M5383 9173 c-50 -10 -69 -81 -34 -124 l19 -24 247 0 247 0 19 24 c24
30 24 72 0 102 -19 24 -20 24 -248 25 -125 1 -238 0 -250 -3z m59 -30 c37 -34
15 -93 -35 -93 -39 0 -57 15 -57 49 0 52 54 78 92 44z m278 -18 l0 -35 -105 0
-105 0 0 35 0 35 105 0 105 0 0 -35z m140 15 c24 -24 25 -47 3 -72 -33 -36
-103 -10 -103 39 0 20 38 53 60 53 11 0 29 -9 40 -20z"/>
<path d="M5220 9130 c0 -27 3 -30 30 -30 27 0 30 3 30 30 0 27 -3 30 -30 30
-27 0 -30 -3 -30 -30z m44 4 c8 -21 9 -20 -13 -20 -12 0 -17 6 -13 18 5 22 18
23 26 2z"/>
<path d="M7655 8836 c-121 -70 -140 -85 -143 -109 -3 -22 1 -27 17 -27 12 0
21 5 21 11 0 5 5 7 10 4 11 -7 264 128 276 146 11 18 -6 59 -24 58 -9 0 -80
-38 -157 -83z"/>
</g>
</svg>
